<svg width="150" height="347" viewBox="0 0 150 347" fill="none" xmlns="http://www.w3.org/2000/svg">
<g opacity="0.2">
<path d="M149 173.5C149 268.769 71.7691 346 -23.5 346C-118.769 346 -196 268.769 -196 173.5C-196 78.2308 -118.769 0.999997 -23.5 0.999992C71.7691 0.999988 149 78.2308 149 173.5Z" stroke="#545A5C" stroke-miterlimit="10"/>
<path d="M113 173.499C113 146.281 104.951 119.676 89.8741 97.0533C74.7968 74.4301 53.3691 56.8068 28.3048 46.4156C3.24048 36.0243 -24.3327 33.3326 -50.9225 38.6812C-77.5122 44.0298 -101.922 57.1782 -121.061 76.4611C-140.199 95.744 -153.205 120.294 -158.432 147.001C-163.658 173.708 -160.869 201.371 -150.419 226.487C-139.969 251.602 -122.327 273.04 -99.7277 288.085C-77.1287 303.129 -50.5893 311.104 -23.471 310.999C12.7719 310.859 47.4827 296.31 73.0609 270.539C98.6391 244.768 113 209.874 113 173.499V173.499Z" stroke="#545A5C" stroke-miterlimit="10"/>
<path d="M76.9986 173.499C76.9983 153.401 71.0612 133.756 59.9397 117.053C48.8182 100.35 33.013 87.3415 14.527 79.6751C-3.95903 72.0087 -24.2937 70.0299 -43.8999 73.9896C-63.5061 77.9492 -81.5014 87.6691 -95.6051 101.917C-109.709 116.166 -119.286 134.301 -123.123 154.025C-126.96 173.749 -124.885 194.173 -117.159 212.711C-109.434 231.248 -96.4061 247.063 -79.7275 258.152C-63.0488 269.241 -43.4698 275.104 -23.4718 274.999C-10.2333 274.999 2.87485 272.37 15.0991 267.262C27.3233 262.155 38.4225 254.67 47.759 245.238C57.0955 235.806 64.4852 224.612 69.5031 212.301C74.521 199.989 77.0683 186.803 76.9986 173.499V173.499Z" stroke="#545A5C" stroke-miterlimit="10"/>
<path d="M40.9978 173.498C40.9974 160.521 37.1717 147.836 30.0059 137.053C22.8401 126.271 12.6572 117.876 0.749412 112.934C-11.1584 107.993 -24.2545 106.727 -36.8773 109.298C-49.5 111.869 -61.0806 118.16 -70.1495 127.374C-79.2184 136.588 -85.3668 148.308 -87.8148 161.049C-90.2628 173.79 -88.9001 186.976 -83.8993 198.935C-78.8986 210.894 -70.4853 221.086 -59.727 228.219C-48.9687 235.352 -36.3501 239.103 -23.4726 238.998C-14.9615 238.998 -6.53464 237.3 1.32192 234.002C9.17849 230.704 16.3091 225.871 22.3027 219.781C28.2963 213.692 33.0341 206.467 36.2428 198.523C39.4515 190.58 41.0676 182.074 40.9978 173.498Z" stroke="#545A5C" stroke-miterlimit="10"/>
</g>
<path d="M23.6335 288.927C23.6335 288.927 30.7936 300.185 39.6239 298.761C39.6239 298.761 30.8375 304.391 30.8695 314.985C30.8695 314.985 26.5874 307.25 15.2607 305.271C15.2607 305.271 22.9759 303.393 23.6335 288.927Z" fill="#8EC6D8"/>
<path d="M100.385 130C100.385 130 118.103 145.154 132 138.106C132 138.106 120.362 152.203 125.92 170C125.92 170 114.803 159.251 95 161.894C95 161.894 106.812 154.67 100.385 130Z" fill="#EE4D4A"/>
<path d="M57.4633 327.685L56.3145 317.148L66.8512 316L68.0001 326.536L57.4633 327.685Z" fill="#F0CA50"/>
</svg>
