<svg width="163" height="282" viewBox="0 0 163 282" fill="none" xmlns="http://www.w3.org/2000/svg">
<g opacity="0.05">
<path opacity="0.64" d="M38.9996 221.603C38.9996 224.72 41.5269 227.247 44.6443 227.247C47.7618 227.247 50.2891 224.72 50.2891 221.603C50.2891 218.485 47.7618 215.958 44.6443 215.958C41.5269 215.958 38.9996 218.485 38.9996 221.603Z" fill="black"/>
<path opacity="0.64" d="M59.8152 221.603C59.8152 224.72 62.3423 227.247 65.4598 227.247C68.5773 227.247 71.1045 224.72 71.1045 221.603C71.1045 218.485 68.5773 215.958 65.4598 215.958C62.3423 215.958 59.8152 218.485 59.8152 221.603Z" fill="black"/>
<path opacity="0.64" d="M80.6296 221.603C80.6296 224.72 83.1569 227.247 86.2743 227.247C89.3918 227.247 91.9189 224.72 91.9189 221.603C91.9189 218.485 89.3918 215.958 86.2743 215.958C83.1569 215.958 80.6296 218.485 80.6296 221.603Z" fill="black"/>
<path opacity="0.64" d="M101.621 221.603C101.621 224.72 104.148 227.247 107.265 227.247C110.383 227.247 112.91 224.72 112.91 221.603C112.91 218.485 110.383 215.958 107.265 215.958C104.148 215.958 101.621 218.485 101.621 221.603Z" fill="black"/>
<path opacity="0.64" d="M38.9996 239.772C38.9996 242.889 41.5269 245.416 44.6443 245.416C47.7618 245.416 50.2891 242.889 50.2891 239.772C50.2891 236.654 47.7618 234.127 44.6443 234.127C41.5269 234.127 38.9996 236.654 38.9996 239.772Z" fill="black"/>
<path opacity="0.64" d="M59.8152 239.772C59.8152 242.889 62.3423 245.416 65.4598 245.416C68.5773 245.416 71.1045 242.889 71.1045 239.772C71.1045 236.654 68.5773 234.127 65.4598 234.127C62.3423 234.127 59.8152 236.654 59.8152 239.772Z" fill="black"/>
<path opacity="0.64" d="M80.6296 239.772C80.6296 242.889 83.1569 245.416 86.2743 245.416C89.3918 245.416 91.9189 242.889 91.9189 239.772C91.9189 236.654 89.3918 234.127 86.2743 234.127C83.1569 234.127 80.6296 236.654 80.6296 239.772Z" fill="black"/>
<path opacity="0.64" d="M101.621 239.772C101.621 242.889 104.148 245.416 107.265 245.416C110.383 245.416 112.91 242.889 112.91 239.772C112.91 236.654 110.383 234.127 107.265 234.127C104.148 234.127 101.621 236.654 101.621 239.772Z" fill="black"/>
<path opacity="0.64" d="M38.9996 257.941C38.9996 261.058 41.5269 263.585 44.6443 263.585C47.7618 263.585 50.2891 261.058 50.2891 257.941C50.2891 254.823 47.7618 252.296 44.6443 252.296C41.5269 252.296 38.9996 254.823 38.9996 257.941Z" fill="black"/>
<path opacity="0.64" d="M59.8152 257.941C59.8152 261.058 62.3423 263.585 65.4598 263.585C68.5773 263.585 71.1045 261.058 71.1045 257.941C71.1045 254.823 68.5773 252.296 65.4598 252.296C62.3423 252.296 59.8152 254.823 59.8152 257.941Z" fill="black"/>
<path opacity="0.64" d="M80.6296 257.941C80.6296 261.058 83.1569 263.585 86.2743 263.585C89.3918 263.585 91.9189 261.058 91.9189 257.941C91.9189 254.823 89.3918 252.296 86.2743 252.296C83.1569 252.296 80.6296 254.823 80.6296 257.941Z" fill="black"/>
<path opacity="0.64" d="M101.621 257.941C101.621 261.058 104.148 263.585 107.265 263.585C110.383 263.585 112.91 261.058 112.91 257.941C112.91 254.823 110.383 252.296 107.265 252.296C104.148 252.296 101.621 254.823 101.621 257.941Z" fill="black"/>
<path opacity="0.64" d="M38.9996 276.11C38.9996 279.227 41.5269 281.754 44.6443 281.754C47.7618 281.754 50.2891 279.227 50.2891 276.11C50.2891 272.992 47.7618 270.465 44.6443 270.465C41.5269 270.465 38.9996 272.992 38.9996 276.11Z" fill="black"/>
<path opacity="0.64" d="M59.8152 276.11C59.8152 279.227 62.3423 281.754 65.4598 281.754C68.5773 281.754 71.1045 279.227 71.1045 276.11C71.1045 272.992 68.5773 270.465 65.4598 270.465C62.3423 270.465 59.8152 272.992 59.8152 276.11Z" fill="black"/>
<path opacity="0.64" d="M80.6296 276.11C80.6296 279.227 83.1569 281.754 86.2743 281.754C89.3918 281.754 91.9189 279.227 91.9189 276.11C91.9189 272.992 89.3918 270.465 86.2743 270.465C83.1569 270.465 80.6296 272.992 80.6296 276.11Z" fill="black"/>
<path opacity="0.64" d="M101.621 276.11C101.621 279.227 104.148 281.754 107.265 281.754C110.383 281.754 112.91 279.227 112.91 276.11C112.91 272.992 110.383 270.465 107.265 270.465C104.148 270.465 101.621 272.992 101.621 276.11Z" fill="black"/>
<path opacity="0.64" d="M38.9996 149.633C38.9996 152.75 41.5269 155.278 44.6443 155.278C47.7618 155.278 50.2891 152.75 50.2891 149.633C50.2891 146.515 47.7618 143.988 44.6443 143.988C41.5269 143.988 38.9996 146.515 38.9996 149.633Z" fill="black"/>
<path opacity="0.64" d="M59.8152 149.633C59.8152 152.75 62.3423 155.278 65.4598 155.278C68.5773 155.278 71.1045 152.75 71.1045 149.633C71.1045 146.515 68.5773 143.988 65.4598 143.988C62.3423 143.988 59.8152 146.515 59.8152 149.633Z" fill="black"/>
<path opacity="0.64" d="M80.6296 149.633C80.6296 152.75 83.1569 155.278 86.2743 155.278C89.3918 155.278 91.9189 152.75 91.9189 149.633C91.9189 146.515 89.3918 143.988 86.2743 143.988C83.1569 143.988 80.6296 146.515 80.6296 149.633Z" fill="black"/>
<path opacity="0.64" d="M101.621 149.633C101.621 152.75 104.148 155.278 107.265 155.278C110.383 155.278 112.91 152.75 112.91 149.633C112.91 146.515 110.383 143.988 107.265 143.988C104.148 143.988 101.621 146.515 101.621 149.633Z" fill="black"/>
<path opacity="0.64" d="M38.9996 167.802C38.9996 170.919 41.5269 173.447 44.6443 173.447C47.7618 173.447 50.2891 170.919 50.2891 167.802C50.2891 164.684 47.7618 162.157 44.6443 162.157C41.5269 162.157 38.9996 164.684 38.9996 167.802Z" fill="black"/>
<path opacity="0.64" d="M59.8152 167.802C59.8152 170.919 62.3423 173.447 65.4598 173.447C68.5773 173.447 71.1045 170.919 71.1045 167.802C71.1045 164.684 68.5773 162.157 65.4598 162.157C62.3423 162.157 59.8152 164.684 59.8152 167.802Z" fill="black"/>
<path opacity="0.64" d="M80.6296 167.802C80.6296 170.919 83.1569 173.447 86.2743 173.447C89.3918 173.447 91.9189 170.919 91.9189 167.802C91.9189 164.684 89.3918 162.157 86.2743 162.157C83.1569 162.157 80.6296 164.684 80.6296 167.802Z" fill="black"/>
<path opacity="0.64" d="M101.621 167.802C101.621 170.919 104.148 173.447 107.265 173.447C110.383 173.447 112.91 170.919 112.91 167.802C112.91 164.684 110.383 162.157 107.265 162.157C104.148 162.157 101.621 164.684 101.621 167.802Z" fill="black"/>
<path opacity="0.64" d="M38.9996 185.794C38.9996 188.912 41.5269 191.439 44.6443 191.439C47.7618 191.439 50.2891 188.912 50.2891 185.794C50.2891 182.677 47.7618 180.149 44.6443 180.149C41.5269 180.149 38.9996 182.677 38.9996 185.794Z" fill="black"/>
<path opacity="0.64" d="M59.8152 185.794C59.8152 188.912 62.3423 191.439 65.4598 191.439C68.5773 191.439 71.1045 188.912 71.1045 185.794C71.1045 182.677 68.5773 180.149 65.4598 180.149C62.3423 180.149 59.8152 182.677 59.8152 185.794Z" fill="black"/>
<path opacity="0.64" d="M80.6296 185.794C80.6296 188.912 83.1569 191.439 86.2743 191.439C89.3918 191.439 91.9189 188.912 91.9189 185.794C91.9189 182.677 89.3918 180.149 86.2743 180.149C83.1569 180.149 80.6296 182.677 80.6296 185.794Z" fill="black"/>
<path opacity="0.64" d="M101.621 185.794C101.621 188.912 104.148 191.439 107.265 191.439C110.383 191.439 112.91 188.912 112.91 185.794C112.91 182.677 110.383 180.149 107.265 180.149C104.148 180.149 101.621 182.677 101.621 185.794Z" fill="black"/>
<path opacity="0.64" d="M38.9996 203.963C38.9996 207.081 41.5269 209.608 44.6443 209.608C47.7618 209.608 50.2891 207.081 50.2891 203.963C50.2891 200.846 47.7618 198.318 44.6443 198.318C41.5269 198.318 38.9996 200.846 38.9996 203.963Z" fill="black"/>
<path opacity="0.64" d="M59.8152 203.963C59.8152 207.081 62.3423 209.608 65.4598 209.608C68.5773 209.608 71.1045 207.081 71.1045 203.963C71.1045 200.846 68.5773 198.318 65.4598 198.318C62.3423 198.318 59.8152 200.846 59.8152 203.963Z" fill="black"/>
<path opacity="0.64" d="M80.6296 203.963C80.6296 207.081 83.1569 209.608 86.2743 209.608C89.3918 209.608 91.9189 207.081 91.9189 203.963C91.9189 200.846 89.3918 198.318 86.2743 198.318C83.1569 198.318 80.6296 200.846 80.6296 203.963Z" fill="black"/>
<path opacity="0.64" d="M101.621 203.963C101.621 207.081 104.148 209.608 107.265 209.608C110.383 209.608 112.91 207.081 112.91 203.963C112.91 200.846 110.383 198.318 107.265 198.318C104.148 198.318 101.621 200.846 101.621 203.963Z" fill="black"/>
<path opacity="0.64" d="M119.79 221.603C119.79 224.72 122.317 227.247 125.434 227.247C128.552 227.247 131.079 224.72 131.079 221.603C131.079 218.485 128.552 215.958 125.434 215.958C122.317 215.958 119.79 218.485 119.79 221.603Z" fill="black"/>
<path opacity="0.64" d="M140.604 221.603C140.604 224.72 143.131 227.247 146.249 227.247C149.366 227.247 151.894 224.72 151.894 221.603C151.894 218.485 149.366 215.958 146.249 215.958C143.131 215.958 140.604 218.485 140.604 221.603Z" fill="black"/>
<path opacity="0.64" d="M161.595 221.603C161.595 224.72 164.123 227.247 167.24 227.247C170.358 227.247 172.885 224.72 172.885 221.603C172.885 218.485 170.358 215.958 167.24 215.958C164.123 215.958 161.595 218.485 161.595 221.603Z" fill="black"/>
<path opacity="0.64" d="M119.79 239.772C119.79 242.889 122.317 245.416 125.434 245.416C128.552 245.416 131.079 242.889 131.079 239.772C131.079 236.654 128.552 234.127 125.434 234.127C122.317 234.127 119.79 236.654 119.79 239.772Z" fill="black"/>
<path opacity="0.64" d="M140.604 239.772C140.604 242.889 143.131 245.416 146.249 245.416C149.366 245.416 151.894 242.889 151.894 239.772C151.894 236.654 149.366 234.127 146.249 234.127C143.131 234.127 140.604 236.654 140.604 239.772Z" fill="black"/>
<path opacity="0.64" d="M161.595 239.772C161.595 242.889 164.123 245.416 167.24 245.416C170.358 245.416 172.885 242.889 172.885 239.772C172.885 236.654 170.358 234.127 167.24 234.127C164.123 234.127 161.595 236.654 161.595 239.772Z" fill="black"/>
<path opacity="0.64" d="M119.79 257.941C119.79 261.058 122.317 263.585 125.434 263.585C128.552 263.585 131.079 261.058 131.079 257.941C131.079 254.823 128.552 252.296 125.434 252.296C122.317 252.296 119.79 254.823 119.79 257.941Z" fill="black"/>
<path opacity="0.64" d="M140.604 257.941C140.604 261.058 143.131 263.585 146.249 263.585C149.366 263.585 151.894 261.058 151.894 257.941C151.894 254.823 149.366 252.296 146.249 252.296C143.131 252.296 140.604 254.823 140.604 257.941Z" fill="black"/>
<path opacity="0.64" d="M161.595 257.941C161.595 261.058 164.123 263.585 167.24 263.585C170.358 263.585 172.885 261.058 172.885 257.941C172.885 254.823 170.358 252.296 167.24 252.296C164.123 252.296 161.595 254.823 161.595 257.941Z" fill="black"/>
<path opacity="0.64" d="M119.79 276.11C119.79 279.227 122.317 281.754 125.434 281.754C128.552 281.754 131.079 279.227 131.079 276.11C131.079 272.992 128.552 270.465 125.434 270.465C122.317 270.465 119.79 272.992 119.79 276.11Z" fill="black"/>
<path opacity="0.64" d="M140.604 276.11C140.604 279.227 143.131 281.754 146.249 281.754C149.366 281.754 151.894 279.227 151.894 276.11C151.894 272.992 149.366 270.465 146.249 270.465C143.131 270.465 140.604 272.992 140.604 276.11Z" fill="black"/>
<path opacity="0.64" d="M161.595 276.11C161.595 279.227 164.123 281.754 167.24 281.754C170.358 281.754 172.885 279.227 172.885 276.11C172.885 272.992 170.358 270.465 167.24 270.465C164.123 270.465 161.595 272.992 161.595 276.11Z" fill="black"/>
<path opacity="0.64" d="M119.79 149.633C119.79 152.75 122.317 155.278 125.434 155.278C128.552 155.278 131.079 152.75 131.079 149.633C131.079 146.515 128.552 143.988 125.434 143.988C122.317 143.988 119.79 146.515 119.79 149.633Z" fill="black"/>
<path opacity="0.64" d="M140.604 149.633C140.604 152.75 143.131 155.278 146.249 155.278C149.366 155.278 151.894 152.75 151.894 149.633C151.894 146.515 149.366 143.988 146.249 143.988C143.131 143.988 140.604 146.515 140.604 149.633Z" fill="black"/>
<path opacity="0.64" d="M161.595 149.633C161.595 152.75 164.123 155.278 167.24 155.278C170.358 155.278 172.885 152.75 172.885 149.633C172.885 146.515 170.358 143.988 167.24 143.988C164.123 143.988 161.595 146.515 161.595 149.633Z" fill="black"/>
<path opacity="0.64" d="M119.79 167.802C119.79 170.919 122.317 173.447 125.434 173.447C128.552 173.447 131.079 170.919 131.079 167.802C131.079 164.684 128.552 162.157 125.434 162.157C122.317 162.157 119.79 164.684 119.79 167.802Z" fill="black"/>
<path opacity="0.64" d="M140.604 167.802C140.604 170.919 143.131 173.447 146.249 173.447C149.366 173.447 151.894 170.919 151.894 167.802C151.894 164.684 149.366 162.157 146.249 162.157C143.131 162.157 140.604 164.684 140.604 167.802Z" fill="black"/>
<path opacity="0.64" d="M161.595 167.802C161.595 170.919 164.123 173.447 167.24 173.447C170.358 173.447 172.885 170.919 172.885 167.802C172.885 164.684 170.358 162.157 167.24 162.157C164.123 162.157 161.595 164.684 161.595 167.802Z" fill="black"/>
<path opacity="0.64" d="M119.79 185.794C119.79 188.912 122.317 191.439 125.434 191.439C128.552 191.439 131.079 188.912 131.079 185.794C131.079 182.677 128.552 180.149 125.434 180.149C122.317 180.149 119.79 182.677 119.79 185.794Z" fill="black"/>
<path opacity="0.64" d="M140.604 185.794C140.604 188.912 143.131 191.439 146.249 191.439C149.366 191.439 151.894 188.912 151.894 185.794C151.894 182.677 149.366 180.149 146.249 180.149C143.131 180.149 140.604 182.677 140.604 185.794Z" fill="black"/>
<path opacity="0.64" d="M161.595 185.794C161.595 188.912 164.123 191.439 167.24 191.439C170.358 191.439 172.885 188.912 172.885 185.794C172.885 182.677 170.358 180.149 167.24 180.149C164.123 180.149 161.595 182.677 161.595 185.794Z" fill="black"/>
<path opacity="0.64" d="M119.79 203.963C119.79 207.081 122.317 209.608 125.434 209.608C128.552 209.608 131.079 207.081 131.079 203.963C131.079 200.846 128.552 198.318 125.434 198.318C122.317 198.318 119.79 200.846 119.79 203.963Z" fill="black"/>
<path opacity="0.64" d="M140.604 203.963C140.604 207.081 143.131 209.608 146.249 209.608C149.366 209.608 151.894 207.081 151.894 203.963C151.894 200.846 149.366 198.318 146.249 198.318C143.131 198.318 140.604 200.846 140.604 203.963Z" fill="black"/>
<path opacity="0.64" d="M161.595 203.963C161.595 207.081 164.123 209.608 167.24 209.608C170.358 209.608 172.885 207.081 172.885 203.963C172.885 200.846 170.358 198.318 167.24 198.318C164.123 198.318 161.595 200.846 161.595 203.963Z" fill="black"/>
<path opacity="0.64" d="M38.9996 78.5451C38.9996 81.6626 41.5269 84.1898 44.6443 84.1898C47.7618 84.1898 50.2891 81.6626 50.2891 78.5451C50.2891 75.4276 47.7618 72.9004 44.6443 72.9004C41.5269 72.9004 38.9996 75.4276 38.9996 78.5451Z" fill="black"/>
<path opacity="0.64" d="M59.8152 78.5451C59.8152 81.6626 62.3423 84.1898 65.4598 84.1898C68.5773 84.1898 71.1045 81.6626 71.1045 78.5451C71.1045 75.4276 68.5773 72.9004 65.4598 72.9004C62.3423 72.9004 59.8152 75.4276 59.8152 78.5451Z" fill="black"/>
<path opacity="0.64" d="M80.6296 78.5451C80.6296 81.6626 83.1569 84.1898 86.2743 84.1898C89.3918 84.1898 91.9189 81.6626 91.9189 78.5451C91.9189 75.4276 89.3918 72.9004 86.2743 72.9004C83.1569 72.9004 80.6296 75.4276 80.6296 78.5451Z" fill="black"/>
<path opacity="0.64" d="M101.621 78.5451C101.621 81.6626 104.148 84.1898 107.265 84.1898C110.383 84.1898 112.91 81.6626 112.91 78.5451C112.91 75.4276 110.383 72.9004 107.265 72.9004C104.148 72.9004 101.621 75.4276 101.621 78.5451Z" fill="black"/>
<path opacity="0.64" d="M38.9996 96.5373C38.9996 99.6548 41.5269 102.182 44.6443 102.182C47.7618 102.182 50.2891 99.6548 50.2891 96.5373C50.2891 93.4198 47.7618 90.8926 44.6443 90.8926C41.5269 90.8926 38.9996 93.4198 38.9996 96.5373Z" fill="black"/>
<path opacity="0.64" d="M59.8152 96.5373C59.8152 99.6548 62.3423 102.182 65.4598 102.182C68.5773 102.182 71.1045 99.6548 71.1045 96.5373C71.1045 93.4198 68.5773 90.8926 65.4598 90.8926C62.3423 90.8926 59.8152 93.4198 59.8152 96.5373Z" fill="black"/>
<path opacity="0.64" d="M80.6296 96.5373C80.6296 99.6548 83.1569 102.182 86.2743 102.182C89.3918 102.182 91.9189 99.6548 91.9189 96.5373C91.9189 93.4198 89.3918 90.8926 86.2743 90.8926C83.1569 90.8926 80.6296 93.4198 80.6296 96.5373Z" fill="black"/>
<path opacity="0.64" d="M101.621 96.5373C101.621 99.6548 104.148 102.182 107.265 102.182C110.383 102.182 112.91 99.6548 112.91 96.5373C112.91 93.4198 110.383 90.8926 107.265 90.8926C104.148 90.8926 101.621 93.4198 101.621 96.5373Z" fill="black"/>
<path opacity="0.64" d="M38.9996 114.706C38.9996 117.824 41.5269 120.351 44.6443 120.351C47.7618 120.351 50.2891 117.824 50.2891 114.706C50.2891 111.589 47.7618 109.062 44.6443 109.062C41.5269 109.062 38.9996 111.589 38.9996 114.706Z" fill="black"/>
<path opacity="0.64" d="M59.8152 114.706C59.8152 117.824 62.3423 120.351 65.4598 120.351C68.5773 120.351 71.1045 117.824 71.1045 114.706C71.1045 111.589 68.5773 109.062 65.4598 109.062C62.3423 109.062 59.8152 111.589 59.8152 114.706Z" fill="black"/>
<path opacity="0.64" d="M80.6296 114.706C80.6296 117.824 83.1569 120.351 86.2743 120.351C89.3918 120.351 91.9189 117.824 91.9189 114.706C91.9189 111.589 89.3918 109.062 86.2743 109.062C83.1569 109.062 80.6296 111.589 80.6296 114.706Z" fill="black"/>
<path opacity="0.64" d="M101.621 114.706C101.621 117.824 104.148 120.351 107.265 120.351C110.383 120.351 112.91 117.824 112.91 114.706C112.91 111.589 110.383 109.062 107.265 109.062C104.148 109.062 101.621 111.589 101.621 114.706Z" fill="black"/>
<path opacity="0.64" d="M38.9996 132.875C38.9996 135.993 41.5269 138.52 44.6443 138.52C47.7618 138.52 50.2891 135.993 50.2891 132.875C50.2891 129.758 47.7618 127.23 44.6443 127.23C41.5269 127.23 38.9996 129.758 38.9996 132.875Z" fill="black"/>
<path opacity="0.64" d="M59.8152 132.875C59.8152 135.993 62.3423 138.52 65.4598 138.52C68.5773 138.52 71.1045 135.993 71.1045 132.875C71.1045 129.758 68.5773 127.23 65.4598 127.23C62.3423 127.23 59.8152 129.758 59.8152 132.875Z" fill="black"/>
<path opacity="0.64" d="M80.6296 132.875C80.6296 135.993 83.1569 138.52 86.2743 138.52C89.3918 138.52 91.9189 135.993 91.9189 132.875C91.9189 129.758 89.3918 127.23 86.2743 127.23C83.1569 127.23 80.6296 129.758 80.6296 132.875Z" fill="black"/>
<path opacity="0.64" d="M101.621 132.875C101.621 135.993 104.148 138.52 107.265 138.52C110.383 138.52 112.91 135.993 112.91 132.875C112.91 129.758 110.383 127.23 107.265 127.23C104.148 127.23 101.621 129.758 101.621 132.875Z" fill="black"/>
<path opacity="0.64" d="M38.9996 6.39862C38.9996 9.5161 41.5269 12.0433 44.6443 12.0433C47.7618 12.0433 50.2891 9.5161 50.2891 6.39862C50.2891 3.28114 47.7618 0.753906 44.6443 0.753906C41.5269 0.753906 38.9996 3.28114 38.9996 6.39862Z" fill="black"/>
<path opacity="0.64" d="M59.8152 6.39862C59.8152 9.5161 62.3423 12.0433 65.4598 12.0433C68.5773 12.0433 71.1045 9.5161 71.1045 6.39862C71.1045 3.28114 68.5773 0.753906 65.4598 0.753906C62.3423 0.753906 59.8152 3.28114 59.8152 6.39862Z" fill="black"/>
<path opacity="0.64" d="M80.6296 6.39862C80.6296 9.5161 83.1569 12.0433 86.2743 12.0433C89.3918 12.0433 91.9189 9.5161 91.9189 6.39862C91.9189 3.28114 89.3918 0.753906 86.2743 0.753906C83.1569 0.753906 80.6296 3.28114 80.6296 6.39862Z" fill="black"/>
<path opacity="0.64" d="M101.621 6.39862C101.621 9.5161 104.148 12.0433 107.265 12.0433C110.383 12.0433 112.91 9.5161 112.91 6.39862C112.91 3.28114 110.383 0.753906 107.265 0.753906C104.148 0.753906 101.621 3.28114 101.621 6.39862Z" fill="black"/>
<path opacity="0.64" d="M38.9996 24.5675C38.9996 27.685 41.5269 30.2123 44.6443 30.2123C47.7618 30.2123 50.2891 27.685 50.2891 24.5675C50.2891 21.4501 47.7618 18.9229 44.6443 18.9229C41.5269 18.9229 38.9996 21.4501 38.9996 24.5675Z" fill="black"/>
<path opacity="0.64" d="M59.8152 24.5675C59.8152 27.685 62.3423 30.2123 65.4598 30.2123C68.5773 30.2123 71.1045 27.685 71.1045 24.5675C71.1045 21.4501 68.5773 18.9229 65.4598 18.9229C62.3423 18.9229 59.8152 21.4501 59.8152 24.5675Z" fill="black"/>
<path opacity="0.64" d="M80.6296 24.5675C80.6296 27.685 83.1569 30.2123 86.2743 30.2123C89.3918 30.2123 91.9189 27.685 91.9189 24.5675C91.9189 21.4501 89.3918 18.9229 86.2743 18.9229C83.1569 18.9229 80.6296 21.4501 80.6296 24.5675Z" fill="black"/>
<path opacity="0.64" d="M101.621 24.5675C101.621 27.685 104.148 30.2123 107.265 30.2123C110.383 30.2123 112.91 27.685 112.91 24.5675C112.91 21.4501 110.383 18.9229 107.265 18.9229C104.148 18.9229 101.621 21.4501 101.621 24.5675Z" fill="black"/>
<path opacity="0.64" d="M38.9996 42.7365C38.9996 45.854 41.5269 48.3812 44.6443 48.3812C47.7618 48.3812 50.2891 45.854 50.2891 42.7365C50.2891 39.619 47.7618 37.0918 44.6443 37.0918C41.5269 37.0918 38.9996 39.619 38.9996 42.7365Z" fill="black"/>
<path opacity="0.64" d="M59.8152 42.7365C59.8152 45.854 62.3423 48.3812 65.4598 48.3812C68.5773 48.3812 71.1045 45.854 71.1045 42.7365C71.1045 39.619 68.5773 37.0918 65.4598 37.0918C62.3423 37.0918 59.8152 39.619 59.8152 42.7365Z" fill="black"/>
<path opacity="0.64" d="M80.6296 42.7365C80.6296 45.854 83.1569 48.3812 86.2743 48.3812C89.3918 48.3812 91.9189 45.854 91.9189 42.7365C91.9189 39.619 89.3918 37.0918 86.2743 37.0918C83.1569 37.0918 80.6296 39.619 80.6296 42.7365Z" fill="black"/>
<path opacity="0.64" d="M101.621 42.7365C101.621 45.854 104.148 48.3812 107.265 48.3812C110.383 48.3812 112.91 45.854 112.91 42.7365C112.91 39.619 110.383 37.0918 107.265 37.0918C104.148 37.0918 101.621 39.619 101.621 42.7365Z" fill="black"/>
<path opacity="0.64" d="M38.9996 60.9055C38.9996 64.0229 41.5269 66.5502 44.6443 66.5502C47.7618 66.5502 50.2891 64.0229 50.2891 60.9055C50.2891 57.788 47.7618 55.2607 44.6443 55.2607C41.5269 55.2607 38.9996 57.788 38.9996 60.9055Z" fill="black"/>
<path opacity="0.64" d="M59.8152 60.9055C59.8152 64.0229 62.3423 66.5502 65.4598 66.5502C68.5773 66.5502 71.1045 64.0229 71.1045 60.9055C71.1045 57.788 68.5773 55.2607 65.4598 55.2607C62.3423 55.2607 59.8152 57.788 59.8152 60.9055Z" fill="black"/>
<path opacity="0.64" d="M80.6296 60.9045C80.6296 64.022 83.1569 66.5492 86.2743 66.5492C89.3918 66.5492 91.9189 64.022 91.9189 60.9045C91.9189 57.787 89.3918 55.2598 86.2743 55.2598C83.1569 55.2598 80.6296 57.787 80.6296 60.9045Z" fill="black"/>
<path opacity="0.64" d="M101.621 60.9055C101.621 64.0229 104.148 66.5502 107.265 66.5502C110.383 66.5502 112.91 64.0229 112.91 60.9055C112.91 57.788 110.383 55.2607 107.265 55.2607C104.148 55.2607 101.621 57.788 101.621 60.9055Z" fill="black"/>
<path opacity="0.64" d="M119.79 78.5451C119.79 81.6626 122.317 84.1898 125.434 84.1898C128.552 84.1898 131.079 81.6626 131.079 78.5451C131.079 75.4276 128.552 72.9004 125.434 72.9004C122.317 72.9004 119.79 75.4276 119.79 78.5451Z" fill="black"/>
<path opacity="0.64" d="M140.604 78.5451C140.604 81.6626 143.131 84.1898 146.249 84.1898C149.366 84.1898 151.894 81.6626 151.894 78.5451C151.894 75.4276 149.366 72.9004 146.249 72.9004C143.131 72.9004 140.604 75.4276 140.604 78.5451Z" fill="black"/>
<path opacity="0.64" d="M161.595 78.5451C161.595 81.6626 164.123 84.1898 167.24 84.1898C170.358 84.1898 172.885 81.6626 172.885 78.5451C172.885 75.4276 170.358 72.9004 167.24 72.9004C164.123 72.9004 161.595 75.4276 161.595 78.5451Z" fill="black"/>
<path opacity="0.64" d="M119.79 96.5373C119.79 99.6548 122.317 102.182 125.434 102.182C128.552 102.182 131.079 99.6548 131.079 96.5373C131.079 93.4198 128.552 90.8926 125.434 90.8926C122.317 90.8926 119.79 93.4198 119.79 96.5373Z" fill="black"/>
<path opacity="0.64" d="M140.604 96.5373C140.604 99.6548 143.131 102.182 146.249 102.182C149.366 102.182 151.894 99.6548 151.894 96.5373C151.894 93.4198 149.366 90.8926 146.249 90.8926C143.131 90.8926 140.604 93.4198 140.604 96.5373Z" fill="black"/>
<path opacity="0.64" d="M161.595 96.5373C161.595 99.6548 164.123 102.182 167.24 102.182C170.358 102.182 172.885 99.6548 172.885 96.5373C172.885 93.4198 170.358 90.8926 167.24 90.8926C164.123 90.8926 161.595 93.4198 161.595 96.5373Z" fill="black"/>
<path opacity="0.64" d="M119.79 114.706C119.79 117.824 122.317 120.351 125.434 120.351C128.552 120.351 131.079 117.824 131.079 114.706C131.079 111.589 128.552 109.062 125.434 109.062C122.317 109.062 119.79 111.589 119.79 114.706Z" fill="black"/>
<path opacity="0.64" d="M140.604 114.706C140.604 117.824 143.131 120.351 146.249 120.351C149.366 120.351 151.894 117.824 151.894 114.706C151.894 111.589 149.366 109.062 146.249 109.062C143.131 109.062 140.604 111.589 140.604 114.706Z" fill="black"/>
<path opacity="0.64" d="M161.595 114.706C161.595 117.824 164.123 120.351 167.24 120.351C170.358 120.351 172.885 117.824 172.885 114.706C172.885 111.589 170.358 109.062 167.24 109.062C164.123 109.062 161.595 111.589 161.595 114.706Z" fill="black"/>
<path opacity="0.64" d="M119.79 132.875C119.79 135.993 122.317 138.52 125.434 138.52C128.552 138.52 131.079 135.993 131.079 132.875C131.079 129.758 128.552 127.23 125.434 127.23C122.317 127.23 119.79 129.758 119.79 132.875Z" fill="black"/>
<path opacity="0.64" d="M140.604 132.875C140.604 135.993 143.131 138.52 146.249 138.52C149.366 138.52 151.894 135.993 151.894 132.875C151.894 129.758 149.366 127.23 146.249 127.23C143.131 127.23 140.604 129.758 140.604 132.875Z" fill="black"/>
<path opacity="0.64" d="M161.595 132.875C161.595 135.993 164.123 138.52 167.24 138.52C170.358 138.52 172.885 135.993 172.885 132.875C172.885 129.758 170.358 127.23 167.24 127.23C164.123 127.23 161.595 129.758 161.595 132.875Z" fill="black"/>
<path opacity="0.64" d="M119.79 6.39862C119.79 9.5161 122.317 12.0433 125.434 12.0433C128.552 12.0433 131.079 9.5161 131.079 6.39862C131.079 3.28114 128.552 0.753906 125.434 0.753906C122.317 0.753906 119.79 3.28114 119.79 6.39862Z" fill="black"/>
<path opacity="0.64" d="M140.604 6.39862C140.604 9.5161 143.131 12.0433 146.249 12.0433C149.366 12.0433 151.894 9.5161 151.894 6.39862C151.894 3.28114 149.366 0.753906 146.249 0.753906C143.131 0.753906 140.604 3.28114 140.604 6.39862Z" fill="black"/>
<path opacity="0.64" d="M161.595 6.39862C161.595 9.5161 164.123 12.0433 167.24 12.0433C170.358 12.0433 172.885 9.5161 172.885 6.39862C172.885 3.28114 170.358 0.753906 167.24 0.753906C164.123 0.753906 161.595 3.28114 161.595 6.39862Z" fill="black"/>
<path opacity="0.64" d="M119.79 24.5675C119.79 27.685 122.317 30.2123 125.434 30.2123C128.552 30.2123 131.079 27.685 131.079 24.5675C131.079 21.4501 128.552 18.9229 125.434 18.9229C122.317 18.9229 119.79 21.4501 119.79 24.5675Z" fill="black"/>
<path opacity="0.64" d="M140.604 24.5675C140.604 27.685 143.131 30.2123 146.249 30.2123C149.366 30.2123 151.894 27.685 151.894 24.5675C151.894 21.4501 149.366 18.9229 146.249 18.9229C143.131 18.9229 140.604 21.4501 140.604 24.5675Z" fill="black"/>
<path opacity="0.64" d="M161.595 24.5675C161.595 27.685 164.123 30.2123 167.24 30.2123C170.358 30.2123 172.885 27.685 172.885 24.5675C172.885 21.4501 170.358 18.9229 167.24 18.9229C164.123 18.9229 161.595 21.4501 161.595 24.5675Z" fill="black"/>
<path opacity="0.64" d="M119.79 42.7365C119.79 45.854 122.317 48.3812 125.434 48.3812C128.552 48.3812 131.079 45.854 131.079 42.7365C131.079 39.619 128.552 37.0918 125.434 37.0918C122.317 37.0918 119.79 39.619 119.79 42.7365Z" fill="black"/>
<path opacity="0.64" d="M140.604 42.7365C140.604 45.854 143.131 48.3812 146.249 48.3812C149.366 48.3812 151.894 45.854 151.894 42.7365C151.894 39.619 149.366 37.0918 146.249 37.0918C143.131 37.0918 140.604 39.619 140.604 42.7365Z" fill="black"/>
<path opacity="0.64" d="M161.595 42.7365C161.595 45.854 164.123 48.3812 167.24 48.3812C170.358 48.3812 172.885 45.854 172.885 42.7365C172.885 39.619 170.358 37.0918 167.24 37.0918C164.123 37.0918 161.595 39.619 161.595 42.7365Z" fill="black"/>
<path opacity="0.64" d="M119.79 60.9055C119.79 64.0229 122.317 66.5502 125.434 66.5502C128.552 66.5502 131.079 64.0229 131.079 60.9055C131.079 57.788 128.552 55.2607 125.434 55.2607C122.317 55.2607 119.79 57.788 119.79 60.9055Z" fill="black"/>
<path opacity="0.64" d="M140.604 60.9055C140.604 64.0229 143.131 66.5502 146.249 66.5502C149.366 66.5502 151.894 64.0229 151.894 60.9055C151.894 57.788 149.366 55.2607 146.249 55.2607C143.131 55.2607 140.604 57.788 140.604 60.9055Z" fill="black"/>
<path opacity="0.64" d="M161.595 60.9045C161.595 64.022 164.123 66.5492 167.24 66.5492C170.358 66.5492 172.885 64.022 172.885 60.9045C172.885 57.787 170.358 55.2598 167.24 55.2598C164.123 55.2598 161.595 57.787 161.595 60.9045Z" fill="black"/>
</g>
<path d="M94.7361 124.189L136.048 237.856C104.527 249.318 69.9014 233.08 58.6781 201.559C47.216 170.277 63.454 135.652 94.7361 124.189Z" stroke="#545A5C" stroke-width="2" stroke-miterlimit="10"/>
<path d="M149.181 230.692L115.033 136.368C141.062 126.817 169.956 140.428 179.269 166.456C188.582 192.485 175.209 221.379 149.181 230.692Z" fill="#F0CA50"/>
<path d="M40.9624 226.754C40.9624 226.754 34.2582 232.437 29 229.794C29 229.794 33.4038 235.08 31.3005 241.754C31.3005 241.754 35.507 237.723 43 238.714C43 238.714 38.5305 236.005 40.9624 226.754Z" fill="#F0CA50"/>
<path d="M10.8882 189.777L23.0234 178.889L12.1352 166.753L-2.99712e-05 177.642L10.8882 189.777Z" fill="#EE4D4A"/>
</svg>
