<svg width="126" height="129" viewBox="0 0 126 129" fill="none" xmlns="http://www.w3.org/2000/svg">
<path d="M29.779 22.7664C23.5253 22.7664 18.4297 17.6813 18.4297 11.3666C18.4628 5.08504 23.5253 0 29.779 0C36.0326 0 41.1282 5.08504 41.1282 11.3998C41.1282 17.6813 36.0657 22.7664 29.779 22.7664Z" fill="#5C9EDC"/>
<path d="M26.9997 8.84082H24.6504V16.4518H26.9997V8.84082Z" fill="white"/>
<path d="M25.8087 7.84355C26.5697 7.84355 27.1984 7.21207 27.1984 6.44765C27.1984 5.68323 26.5697 5.05176 25.8087 5.05176C25.0476 5.05176 24.4189 5.68323 24.4189 6.44765C24.4189 7.21207 25.0476 7.84355 25.8087 7.84355Z" fill="white"/>
<path d="M30.7384 12.4637C30.7384 11.4002 31.2347 10.7687 32.1612 10.7687C33.0215 10.7687 33.4516 11.367 33.4516 12.4637C33.4516 13.5605 33.4516 16.452 33.4516 16.452H35.8009C35.8009 16.452 35.8009 13.6602 35.8009 11.6328C35.8009 9.60547 34.6428 8.6084 33.0546 8.6084C31.4332 8.6084 30.7715 9.87135 30.7715 9.87135V8.84105H28.5215V16.452H30.7715C30.7384 16.452 30.7384 13.627 30.7384 12.4637Z" fill="white"/>
<path d="M112.897 40.6466C106.213 43.9036 98.1729 41.1118 94.9303 34.3983C91.6876 27.6847 94.467 19.6084 101.151 16.3513C107.835 13.0943 115.875 15.886 119.118 22.5996C122.36 29.3132 119.548 37.3895 112.897 40.6466Z" fill="#EE4D4A"/>
<path d="M103.698 31.5074C103.93 31.5074 104.062 31.3412 103.996 31.1085C103.963 30.9424 103.864 30.5435 103.831 30.3774C103.798 30.1447 103.732 30.0782 103.5 29.9785C102.971 29.7459 102.507 29.3471 102.176 28.6159C101.151 26.522 101.812 23.8964 104.327 22.6667C106.544 21.5699 108.43 22.3343 109.29 24.1623C110.448 26.5553 110.382 29.0812 108.794 29.8456C107.934 30.2777 106.941 29.8788 106.71 28.8818C106.445 27.7185 106.379 26.3559 106.015 25.5914C105.684 24.9267 105.055 24.5279 104.294 24.8935C103.401 25.3256 103.136 26.5885 103.732 27.8182C104.096 28.6159 104.625 29.0147 104.625 29.0147C104.625 29.0147 105.585 33.3021 105.75 34.0333C106.081 35.5289 107.14 37.0245 107.239 37.1907C107.305 37.2904 107.437 37.2571 107.471 37.1574C107.504 37.0245 107.934 35.1965 107.636 33.7342C107.57 33.3021 107.107 31.175 107.107 31.175C107.669 31.5738 108.728 31.6736 109.621 31.2083C112.268 29.9121 112.897 26.6217 111.309 23.3647C110.118 20.9052 106.941 19.6423 103.798 21.1711C99.8934 23.0988 99.2647 26.8876 100.423 29.2141C101.151 30.61 102.309 31.6071 103.698 31.5074Z" fill="white"/>
<path d="M113.393 77.9038C108.595 76.0758 106.213 70.6917 108.032 65.8725C109.852 61.0533 115.213 58.6604 120.01 60.4883C124.808 62.3163 127.191 67.7005 125.371 72.5196C123.551 77.3388 118.191 79.7317 113.393 77.9038Z" fill="#EE4D4A"/>
<path fill-rule="evenodd" clip-rule="evenodd" d="M121.566 70.791C122.459 68.2651 121.169 65.4401 118.621 64.4762C116.106 63.5124 113.327 64.7089 112.268 67.1351C112.235 67.2016 112.202 67.268 112.202 67.3345C111.871 68.1986 111.805 69.1292 111.97 69.9934L110.184 72.1537L113.095 72.3198C113.625 72.9513 114.32 73.4499 115.114 73.749C117.695 74.746 120.573 73.4499 121.533 70.8907C121.533 70.8575 121.533 70.8242 121.566 70.791ZM115.378 73.0178C114.584 72.7187 113.923 72.1869 113.459 71.5554L111.772 71.4557L112.798 70.1928C112.566 69.3619 112.599 68.4645 112.93 67.6004C112.963 67.4674 113.029 67.3345 113.095 67.2348C114.055 65.3404 116.305 64.4098 118.356 65.2074C120.408 66.0051 121.5 68.2319 120.904 70.3257C120.871 70.4254 120.838 70.5251 120.805 70.6248C119.945 72.7851 117.529 73.8487 115.378 73.0178Z" fill="white"/>
<path fill-rule="evenodd" clip-rule="evenodd" d="M118.621 70.8582C118.522 70.7585 118.059 70.26 117.993 70.1935C117.893 70.1271 117.827 70.0606 117.728 70.1603C117.596 70.26 117.298 70.4262 117.199 70.4594C117.099 70.5259 117.033 70.4926 116.934 70.3929C116.835 70.2932 116.504 70.0274 116.239 69.4623C116.007 69.0303 115.941 68.565 115.908 68.432C115.875 68.2991 115.974 68.2659 116.04 68.2326C116.107 68.1994 116.206 68.1329 116.305 68.0997C116.338 68.0997 116.338 68.0665 116.371 68.0665C116.404 68.0332 116.438 68 116.504 67.9667C116.57 67.9003 116.57 67.8338 116.57 67.7673C116.57 67.7009 116.537 67.0361 116.537 66.7703C116.537 66.5044 116.404 66.5044 116.338 66.4711C116.272 66.4379 116.206 66.4047 116.14 66.3714C116.074 66.3382 115.941 66.3382 115.776 66.4047C115.643 66.4711 115.213 66.6373 115.015 67.2023C114.949 67.3353 114.949 67.4682 114.915 67.6012C114.882 68.0332 115.015 68.4653 115.015 68.5318C115.048 68.6315 115.313 70.0938 116.305 70.9912C117.298 71.8885 117.364 71.7556 117.563 71.7888C117.794 71.8553 118.357 71.7888 118.555 71.5562C118.754 71.3235 118.853 71.0909 118.82 71.0244C118.787 71.0244 118.721 70.9912 118.621 70.8582Z" fill="white"/>
<path d="M11.4788 43.5414C5.14937 43.5414 0 38.3568 0 31.9841C0 25.6113 5.14937 20.4268 11.4788 20.4268C17.8083 20.4268 22.9576 25.6113 22.9576 31.9841C22.904 38.3568 17.8083 43.5414 11.4788 43.5414Z" fill="#EE4D4A"/>
<path d="M5.33887 35.9373C6.46989 36.6511 7.76249 37.0904 9.21666 37.0904C13.9023 37.0904 16.5414 33.0819 16.3798 29.4578C16.8645 29.0734 17.2954 28.6341 17.6185 28.1399C17.1877 28.3596 16.7029 28.4694 16.1644 28.5243C16.7029 28.1948 17.0799 27.7006 17.2954 27.0966C16.8107 27.3712 16.2721 27.5908 15.6796 27.7006C15.1949 27.2064 14.5486 26.877 13.8485 26.877C12.2327 26.877 11.0478 28.4145 11.371 30.0069C9.27051 29.8971 7.43934 28.8537 6.2006 27.3162C5.5543 28.4694 5.87745 29.952 6.95461 30.7207C6.52375 30.7207 6.14674 30.6109 5.82359 30.3913C5.76973 31.5993 6.63146 32.6975 7.81634 32.9172C7.43934 33.027 7.06233 33.027 6.68532 32.9721C7.00847 34.0154 7.92406 34.7292 9.05508 34.7292C7.97792 35.7176 6.68532 36.102 5.33887 35.9373Z" fill="white"/>
<path d="M26.5704 120.579C20.0189 122.141 13.4674 118.086 11.9123 111.505C10.3571 104.925 14.3939 98.344 20.9454 96.7819C27.4968 95.2198 34.0483 99.2746 35.6034 105.855C37.1586 112.403 33.0887 119.017 26.5704 120.579Z" fill="#5C9EDC"/>
<path d="M22.4675 103.33C24.1881 102.931 24.4197 102.864 25.1145 102.731C25.7432 102.598 26.1403 102.632 26.3719 102.665C26.7028 102.698 26.9675 102.798 27.2322 102.964C27.53 103.13 27.6954 103.33 27.8939 103.596C28.0263 103.795 28.2248 104.127 28.3903 104.759C28.5888 105.424 28.655 105.656 29.052 107.384C29.4491 109.113 29.5153 109.345 29.6476 110.043C29.78 110.675 29.7469 111.074 29.7138 111.306C29.6807 111.639 29.5814 111.904 29.416 112.17C29.2506 112.469 29.052 112.636 28.7873 112.835C28.5888 112.968 28.2579 113.167 27.6292 113.334C26.9675 113.533 26.7359 113.599 25.0153 113.998C23.2947 114.397 23.0631 114.464 22.3682 114.597C21.7395 114.729 21.3425 114.696 21.1109 114.663C20.78 114.63 20.5153 114.53 20.2506 114.364C19.9528 114.198 19.7873 113.998 19.5888 113.732C19.4564 113.533 19.2579 113.201 19.0925 112.569C18.8939 111.904 18.8278 111.672 18.4307 109.944C18.0336 108.215 17.9675 107.983 17.8351 107.285C17.7028 106.653 17.7359 106.254 17.7689 106.022C17.802 105.689 17.9013 105.423 18.0667 105.158C18.2322 104.858 18.4307 104.692 18.6954 104.493C18.8939 104.36 19.2248 104.161 19.8535 103.994C20.5153 103.795 20.7469 103.728 22.4675 103.33ZM22.2028 102.133C20.4491 102.565 20.2175 102.632 19.5226 102.798C18.8278 102.997 18.3976 103.23 18.0336 103.463C17.6366 103.728 17.3388 104.028 17.0741 104.493C16.8094 104.958 16.677 105.357 16.6109 105.822C16.5447 106.288 16.5447 106.786 16.677 107.484C16.8094 108.182 16.8425 108.415 17.2726 110.176C17.7028 111.938 17.7689 112.17 17.9344 112.868C18.1329 113.566 18.3645 113.998 18.5961 114.364C18.8609 114.763 19.1586 115.062 19.6219 115.328C20.0851 115.594 20.4822 115.727 20.9454 115.793C21.4086 115.859 21.905 115.859 22.5998 115.727C23.2947 115.594 23.5263 115.56 25.28 115.128C27.0336 114.696 27.2653 114.63 27.9601 114.464C28.655 114.264 29.0851 114.032 29.4491 113.799C29.8461 113.533 30.1439 113.234 30.4086 112.769C30.6734 112.303 30.8057 111.904 30.8719 111.439C30.9381 110.974 30.9381 110.475 30.8057 109.777C30.6734 109.079 30.6403 108.847 30.2101 107.085C29.78 105.324 29.7138 105.091 29.5484 104.393C29.3498 103.695 29.1182 103.263 28.8866 102.898C28.6219 102.499 28.3241 102.2 27.8609 101.934C27.3976 101.668 27.0006 101.535 26.5373 101.468C26.0741 101.402 25.5778 101.402 24.8829 101.535C24.1881 101.668 23.9564 101.734 22.2028 102.133Z" fill="white"/>
<path d="M22.9313 105.323C21.0784 105.755 19.9534 107.617 20.3835 109.478C20.8137 111.339 22.6666 112.469 24.5196 112.037C26.3725 111.605 27.4975 109.744 27.0674 107.883C26.6372 106.021 24.7843 104.891 22.9313 105.323ZM24.2549 110.841C23.0637 111.14 21.8725 110.375 21.5747 109.179C21.2769 107.982 22.038 106.786 23.2291 106.487C24.4203 106.188 25.6115 106.952 25.9093 108.148C26.174 109.345 25.446 110.541 24.2549 110.841Z" fill="white"/>
<path d="M27.1658 104.16C27.2651 104.592 27.0004 105.024 26.5702 105.124C26.1401 105.224 25.7099 104.958 25.6107 104.526C25.5114 104.094 25.7761 103.662 26.2063 103.562C26.6364 103.462 27.0666 103.728 27.1658 104.16Z" fill="white"/>
<path d="M112.385 106.973C107.52 106.973 103.576 103.002 103.576 98.103C103.576 93.2041 107.52 89.2334 112.385 89.2334C117.251 89.2334 121.195 93.2041 121.195 98.103C121.195 103.002 117.251 106.973 112.385 106.973Z" fill="#5C9EDC"/>
<path d="M110.5 103.21H112.603V98.0537H114.054L114.204 96.3351H112.603C112.603 96.3351 112.603 95.6968 112.603 95.353C112.603 94.9602 112.703 94.7638 113.103 94.7638C113.403 94.7638 114.254 94.7638 114.254 94.7638V92.9961C114.254 92.9961 113.053 92.9961 112.803 92.9961C111.251 92.9961 110.55 93.6835 110.55 94.9602C110.55 96.0896 110.55 96.3351 110.55 96.3351H109.449V98.0537H110.55V103.21H110.5Z" fill="white"/>
<path d="M91.3237 128.052L45.695 128.021C40.2024 128.021 35.7686 123.798 35.7686 118.638L35.8016 10.513C35.8016 5.321 40.2686 1.12988 45.7612 1.12988L91.3899 1.16116C96.8825 1.16116 101.316 5.38356 101.316 10.5443L101.283 118.669C101.283 123.861 96.8164 128.052 91.3237 128.052Z" fill="#163459"/>
<path d="M91.3137 5.05371H82.4791C81.2879 5.05371 80.3284 5.99202 80.3284 7.18055V8.68185C80.3284 9.8391 79.3688 10.8087 78.1776 10.8087H60.9387C59.7475 10.8087 58.7879 9.87037 58.7879 8.68185V7.18055C58.7879 6.0233 57.8284 5.05371 56.6372 5.05371H53.5269H45.7842C41.946 5.05371 38.8357 7.99375 38.8357 11.6219L38.7695 117.119C38.7695 120.747 41.8798 123.687 45.7181 123.687L91.2475 123.719C95.0857 123.719 98.196 120.779 98.196 117.151L98.2622 11.6219C98.2622 7.99375 95.1519 5.05371 91.3137 5.05371Z" fill="white"/>
<path d="M91.986 13.5455C91.986 13.577 90.8279 13.6086 89.4051 13.6086C87.9823 13.6086 86.8242 13.6086 86.8242 13.577C86.8242 13.5455 87.9823 13.514 89.4051 13.514C90.8279 13.4825 91.986 13.514 91.986 13.5455Z" fill="#163459"/>
<path d="M91.986 14.7669C91.986 14.7984 90.8279 14.8299 89.4051 14.8299C87.9823 14.8299 86.8242 14.8299 86.8242 14.7984C86.8242 14.7669 87.9823 14.7354 89.4051 14.7354C90.8279 14.7354 91.986 14.7669 91.986 14.7669Z" fill="#163459"/>
<path d="M91.986 16.0178C91.986 16.0493 90.8279 16.0809 89.4051 16.0809C87.9823 16.0809 86.8242 16.0809 86.8242 16.0493C86.8242 16.0178 87.9823 15.9863 89.4051 15.9863C90.861 15.9863 91.986 15.9863 91.986 16.0178Z" fill="#163459"/>
<path d="M43.6101 17.2378C43.6101 17.2378 43.6432 17.2378 43.7425 17.2378C43.8417 17.2378 43.9741 17.2378 44.1064 17.2378C44.4704 17.2378 44.9336 17.2065 45.4961 17.2065L45.4631 17.2378C45.4631 16.9563 45.4631 16.6435 45.4631 16.2995C45.4631 16.1118 45.4631 15.9554 45.4631 15.7678C45.4961 15.5801 45.6947 15.3924 45.9263 15.3612C46.1579 15.3612 46.3564 15.3612 46.5881 15.3612C46.8528 15.3924 47.0513 15.6114 47.0513 15.8616C47.0513 16.2995 47.0513 16.7686 47.0844 17.2378L47.0182 17.1752C47.5807 17.1752 48.1763 17.1752 48.7719 17.144L48.7057 17.2065C48.7057 16.5497 48.7057 15.8616 48.6726 15.1422C48.6726 14.9546 48.6726 14.7982 48.6726 14.6105C48.6726 14.4541 48.5734 14.329 48.441 14.2352C48.1763 13.985 47.9447 13.766 47.68 13.5158C47.4153 13.2969 47.1836 13.0467 46.952 12.8277C46.8197 12.7026 46.7204 12.6088 46.5881 12.4837C46.4557 12.3586 46.3564 12.2647 46.2241 12.2335C46.0917 12.2022 45.9263 12.2335 45.827 12.296C45.7278 12.3898 45.5954 12.515 45.4961 12.6088C45.2976 12.8277 45.066 13.0154 44.8675 13.2031C44.4704 13.5784 44.0734 13.9537 43.7756 14.2665C43.6432 14.4541 43.7094 14.6731 43.6763 14.892C43.6763 15.1109 43.6763 15.2986 43.6763 15.4863C43.6763 15.8303 43.6763 16.1431 43.6763 16.4246C43.6763 16.6748 43.6763 16.8625 43.6763 17.0188C43.6101 17.144 43.6101 17.2378 43.6101 17.2378C43.6101 17.2378 43.6101 17.1752 43.6101 17.0501C43.6101 16.8937 43.6101 16.7061 43.577 16.4559C43.577 16.1744 43.577 15.8616 43.5439 15.5176C43.5439 15.3299 43.5439 15.1422 43.5439 14.9233C43.5439 14.8295 43.5439 14.7043 43.5439 14.6105C43.5439 14.4854 43.577 14.3603 43.6432 14.2665C43.9741 13.8911 44.3381 13.5471 44.7351 13.1718C44.9336 12.9841 45.1322 12.7652 45.3638 12.5775C45.4631 12.4837 45.5623 12.3586 45.6947 12.2647C45.827 12.1709 46.0256 12.1396 46.191 12.1709C46.3895 12.2022 46.4888 12.3586 46.6211 12.4524C46.7535 12.5462 46.8528 12.6713 46.9851 12.7964C47.2167 13.0154 47.4814 13.2343 47.7131 13.4845C47.9778 13.7035 48.2094 13.9537 48.4741 14.2039C48.5403 14.2665 48.6064 14.329 48.6726 14.3916C48.7388 14.4854 48.7719 14.5792 48.7719 14.6731C48.7719 14.8607 48.7719 15.0171 48.7719 15.2048C48.7719 15.8929 48.7719 16.581 48.805 17.2691V17.3316H48.7388C48.1432 17.3316 47.5476 17.3316 46.9851 17.3316H46.9189V17.2691C46.9189 16.7999 46.9189 16.3308 46.9189 15.8929C46.9189 15.7052 46.7535 15.5175 46.555 15.4863C46.3564 15.4863 46.1248 15.4863 45.9263 15.4863C45.7278 15.4863 45.5954 15.6427 45.5623 15.799C45.5292 15.9554 45.5623 16.1431 45.5623 16.3308C45.5623 16.6748 45.5623 16.9876 45.5623 17.2691V17.3003H45.5292C44.9667 17.3003 44.4704 17.3003 44.1395 17.3003C44.0072 17.3003 43.8748 17.3003 43.7756 17.3003C43.6432 17.2378 43.577 17.2378 43.6101 17.2378Z" fill="#163459"/>
<path d="M93.4417 110.38L92.4821 109.473L91.5557 110.349V107.722H93.4417V110.38ZM92.449 109.348L93.3424 110.193V107.784H91.6218V110.13L92.449 109.348Z" fill="#163459"/>
<path d="M67.5331 110.037L67.2022 109.88C67.0368 109.974 66.9044 110.005 66.7721 110.005C66.2426 110.005 65.8125 109.599 65.8125 109.098C65.8125 108.598 66.2426 108.191 66.7721 108.191C67.3015 108.191 67.7316 108.598 67.7316 109.098C67.7316 109.317 67.6654 109.536 67.5 109.693L67.5331 110.037ZM66.739 108.285C66.2426 108.285 65.8456 108.661 65.8456 109.13C65.8456 109.599 66.2426 109.974 66.739 109.974C66.8713 109.974 67.0037 109.943 67.1691 109.849L67.4338 109.943L67.3676 109.693C67.5331 109.536 67.5993 109.317 67.5993 109.13C67.6324 108.629 67.2353 108.254 66.739 108.285Z" fill="#163459"/>
<path d="M69.75 109.88L69.3529 108.973L68.625 108.348H70.4118L69.75 109.88ZM68.7904 108.41L69.4191 108.942L69.75 109.724L70.3125 108.41H68.7904Z" fill="#163459"/>
<path d="M70.3662 108.345L69.3955 108.942L69.4316 108.995L70.4023 108.398L70.3662 108.345Z" fill="#163459"/>
<path d="M64.7207 108.535C64.6546 108.285 64.423 108.097 64.1582 108.128C63.8935 108.128 63.6619 108.347 63.6288 108.598C63.5957 108.347 63.3641 108.16 63.0994 108.16C62.8347 108.16 62.6031 108.347 62.5369 108.598C62.5038 108.785 62.57 108.973 62.6693 109.098C62.7685 109.254 62.934 109.379 63.0663 109.473C63.2649 109.63 63.4634 109.786 63.6619 109.974C63.8605 109.817 64.0259 109.63 64.2244 109.473C64.3568 109.348 64.5222 109.223 64.6215 109.067C64.7207 108.91 64.7869 108.723 64.7207 108.535Z" fill="#EE4D4A"/>
<path d="M95.4263 112.694C95.4263 112.694 95.4263 112.6 95.4263 112.413C95.4263 112.225 95.4263 111.944 95.4263 111.568C95.4263 110.818 95.4263 109.692 95.4263 108.253C95.4263 105.375 95.3932 101.184 95.3932 95.9611L95.4594 96.0236C82.7204 96.0236 63.7278 96.0549 42.5513 96.0549L42.6506 95.9611C42.6506 101.779 42.6506 107.44 42.6506 112.726L42.5513 112.632C57.7719 112.632 71.0072 112.663 80.4042 112.663C85.1028 112.663 88.8748 112.694 91.4557 112.694C92.7461 112.694 93.7388 112.694 94.4336 112.694C94.7645 112.694 95.0292 112.694 95.1947 112.694C95.327 112.694 95.4263 112.694 95.4263 112.694C95.4263 112.694 95.327 112.694 95.1616 112.694C94.9962 112.694 94.7314 112.694 94.4006 112.694C93.7388 112.694 92.7461 112.694 91.4557 112.694C88.8748 112.694 85.1359 112.694 80.4373 112.726C71.0072 112.726 57.7719 112.757 42.5182 112.757H42.4189V112.663C42.4189 107.377 42.4189 101.716 42.4189 95.8985V95.8047H42.5182C63.6947 95.8047 82.6873 95.836 95.4263 95.836H95.4925V95.8985C95.4925 101.153 95.4594 105.344 95.4594 108.222C95.4594 109.66 95.4594 110.755 95.4594 111.506C95.4594 111.881 95.4594 112.163 95.4594 112.35C95.4263 112.6 95.4263 112.694 95.4263 112.694Z" fill="#163459"/>
<path d="M44.7111 98.7414L44.6445 109.813L59.3026 109.892L59.3692 98.8201L44.7111 98.7414Z" fill="#5C9EDC"/>
<path d="M59.3598 98.837C59.3598 98.837 59.3267 98.837 59.2936 98.837C59.2274 98.837 59.1613 98.837 59.0951 98.837C58.8966 98.837 58.6318 98.837 58.301 98.837C57.6061 98.837 56.5804 98.837 55.2899 98.837C52.7091 98.837 49.0693 98.8371 44.7348 98.8058L44.801 98.7432C44.7679 102.027 44.7679 105.812 44.7348 109.815C44.7679 109.847 44.5693 109.659 44.6355 109.721H44.6686H44.7348H44.8671H45.1318H45.6282C45.959 109.721 46.2899 109.721 46.6208 109.721C47.2826 109.721 47.9443 109.721 48.6061 109.721C49.8965 109.721 51.187 109.721 52.4113 109.753C54.8598 109.784 57.176 109.784 59.2605 109.815L59.1943 109.878C59.2274 106.562 59.2605 103.779 59.2936 101.84C59.2936 100.87 59.3267 100.119 59.3267 99.5877C59.3267 99.3375 59.3267 99.1498 59.3267 98.9934C59.3598 98.8996 59.3598 98.837 59.3598 98.837C59.3598 98.837 59.3598 98.8996 59.3598 99.0247C59.3598 99.1498 59.3598 99.3688 59.3598 99.619C59.3598 100.151 59.3598 100.901 59.3598 101.84C59.3598 103.779 59.3598 106.562 59.3598 109.909V109.972H59.2936C57.2091 109.972 54.8929 109.94 52.4443 109.94C51.2201 109.94 49.9296 109.94 48.6392 109.909C47.9774 109.909 47.3157 109.909 46.6539 109.909C46.323 109.909 45.9921 109.909 45.6612 109.909H45.1649H44.9002H44.7679H44.7017H44.6686C44.7348 109.972 44.5693 109.815 44.5693 109.815C44.6024 105.812 44.6355 102.027 44.6355 98.7432V98.6807H44.7017C49.0693 98.7119 52.7421 98.7432 55.323 98.7745C56.6135 98.7745 57.6061 98.8058 58.301 98.8058C58.6318 98.8058 58.8966 98.8058 59.0951 98.8058C59.1613 98.8058 59.2274 98.8058 59.2936 98.8058C59.3598 98.8371 59.3598 98.837 59.3598 98.837Z" fill="#163459"/>
<path d="M45.2263 99.4233L45.168 109.119L58.8003 109.192L58.8586 99.4965L45.2263 99.4233Z" fill="#F1CA50"/>
<path d="M45.165 109.128L49.9628 103.154L52.8746 106.908L54.893 104.906L58.7643 109.191L45.165 109.128Z" fill="white"/>
<path d="M54.1644 102.434C54.1644 102.997 53.6681 103.435 53.0725 103.435C52.4769 103.435 52.0137 102.966 52.0137 102.403C52.0137 101.84 52.51 101.402 53.1056 101.402C53.6681 101.402 54.1644 101.871 54.1644 102.434Z" fill="white"/>
<path d="M91.0917 88.2037L89.6358 86.8275L88.2461 88.1098V84.2002H91.0586L91.0917 88.2037ZM89.6358 86.6711L89.6689 86.7024L90.9262 87.9222V84.3566H88.3454V87.8596L89.6358 86.6711Z" fill="#163459"/>
<path d="M54.3973 87.797L53.7356 87.5155C53.4047 87.6719 53.1069 87.7658 52.8753 87.7658C51.8495 87.7658 50.9893 86.9838 50.9893 86.0142C50.9893 85.0446 51.8165 84.2314 52.8422 84.2314C53.8679 84.2314 54.7282 85.0134 54.7282 85.983C54.7282 86.4208 54.5628 86.8274 54.265 87.1715L54.3973 87.797ZM52.8091 84.3253C51.8495 84.3253 51.0554 85.0759 51.0885 85.983C51.0885 86.89 51.8826 87.6406 52.8422 87.6094C53.0738 87.6094 53.3716 87.5155 53.6694 87.3592H53.7025L54.1988 87.5781L54.0995 87.1089L54.1326 87.0777C54.4304 86.7649 54.5959 86.3583 54.5959 85.9517C54.5628 85.0759 53.8017 84.3253 52.8091 84.3253Z" fill="#163459"/>
<path d="M58.7316 87.5154L57.9705 85.7326L56.5146 84.4815L60.022 84.4502L58.7316 87.5154ZM56.8455 84.6066L58.0698 85.67L58.7316 87.2026L59.8235 84.5753L56.8455 84.6066Z" fill="#163459"/>
<path d="M59.9684 84.4638L58.0547 85.6406L58.1269 85.7455L60.0405 84.5687L59.9684 84.4638Z" fill="#163459"/>
<path d="M48.8714 84.857C48.7722 84.3879 48.2758 84.0125 47.7464 84.0438C47.2501 84.0751 46.7869 84.4504 46.7207 84.9508C46.6545 84.4817 46.1913 84.0751 45.6619 84.0751C45.1655 84.0751 44.6692 84.4504 44.5699 84.9196C44.5038 85.2636 44.6361 85.6389 44.8347 85.9204C45.0332 86.2019 45.331 86.4521 45.5957 86.6711C45.9927 86.9839 46.3567 87.2966 46.7538 87.6407C47.1508 87.2966 47.4817 86.9839 47.8457 86.6711C48.1104 86.4209 48.4082 86.2019 48.6067 85.8892C48.8052 85.5764 48.9376 85.2011 48.8714 84.857Z" fill="#EE4D4A"/>
<path d="M48.5406 29.2158C49.8563 29.2158 50.9229 28.2076 50.9229 26.9639C50.9229 25.7201 49.8563 24.7119 48.5406 24.7119C47.2248 24.7119 46.1582 25.7201 46.1582 26.9639C46.1582 28.2076 47.2248 29.2158 48.5406 29.2158Z" fill="#5C9EDC"/>
<path d="M66.8049 117.169C66.8049 117.669 66.3747 118.076 65.8453 118.076C65.3159 118.076 64.8857 117.669 64.8857 117.169C64.8857 116.668 65.3159 116.262 65.8453 116.262C66.3747 116.262 66.8049 116.668 66.8049 117.169Z" fill="#163459"/>
<path d="M69.7492 117.2C69.7492 117.7 69.319 118.107 68.7896 118.107C68.2602 118.107 67.8301 117.7 67.8301 117.2C67.8301 116.7 68.2602 116.293 68.7896 116.293C69.319 116.293 69.7492 116.7 69.7492 117.2Z" fill="#163459"/>
<path d="M72.6945 117.2C72.6945 117.7 72.2644 118.107 71.735 118.107C71.2055 118.107 70.7754 117.7 70.7754 117.2C70.7754 116.7 71.2055 116.293 71.735 116.293C72.2644 116.293 72.6945 116.7 72.6945 117.2Z" fill="#163459"/>
<path d="M95.7245 31.4375H42.8164V62.0264H95.7245V31.4375Z" fill="#F1CA50"/>
<path d="M47.7139 62.0264L62.8683 42.8535L72.2653 54.8326L78.6514 48.4208L91.1587 62.0264H47.7139Z" fill="white"/>
<path d="M76.2683 40.5072C76.2683 42.29 74.7463 43.7287 72.8602 43.7287C70.9742 43.7287 69.4521 42.29 69.4521 40.5072C69.4521 38.7244 70.9742 37.2856 72.8602 37.2856C74.7132 37.2544 76.2683 38.7244 76.2683 40.5072Z" fill="white"/>
<path d="M95.5924 90.4573C95.5924 89.8005 95.5593 62.1829 95.5263 21.2725L95.5924 21.3351C79.6439 21.3351 61.6439 21.3351 42.6843 21.3351L42.7836 21.2413C42.7836 47.1074 42.7836 71.0656 42.7836 90.426L42.7174 90.3635C74.7799 90.426 95.0299 90.4573 95.5924 90.4573C95.0299 90.4573 74.7799 90.4886 42.6843 90.5199H42.6182V90.4573C42.6182 71.0968 42.6182 47.1386 42.6182 21.2725V21.1787H42.7174C61.677 21.1787 79.677 21.1787 95.6255 21.1787H95.6917V21.2413C95.6917 41.7277 95.6586 59.0239 95.6586 71.2219C95.6586 77.321 95.6586 82.1063 95.6255 85.4217C95.6255 87.0481 95.6255 88.3305 95.6255 89.175C95.6255 89.6128 95.6255 89.9256 95.6255 90.1445C95.5924 90.3635 95.5924 90.4573 95.5924 90.4573Z" fill="#163459"/>
<path d="M70.742 102.023L71.9001 98.7551C72.0986 98.041 72.3633 97.2172 72.7273 96.256C73.0581 95.4046 73.8853 94.4983 74.6795 93.8392C75.8706 92.8231 76.4331 92.8231 77.2603 92.3013C77.3265 92.2739 77.4258 92.2189 77.492 92.164C77.6574 92.0816 77.7898 91.9992 77.889 91.8894C78.5839 91.2577 77.9221 90.2965 76.4993 90.4064C75.4405 90.4888 73.7199 90.7359 70.9074 93.1252C70.8743 93.1527 70.8412 93.1801 70.8081 93.2351C69.3192 94.8279 67.9626 90.2965 67.6978 88.5938C67.5324 87.4953 66.1096 86.8362 64.8192 87.2207L57.9699 89.8846C57.4074 89.7198 56.7456 89.7473 55.9846 89.9395C54.992 90.2416 54.4295 91.1204 54.6942 91.9443L57.4736 101.144L49.3008 123.636H66.8375L70.742 102.023Z" fill="#FDDCCF"/>
<path d="M84.2094 80.1639L78.783 90.8325L76.0697 90.0681L62.4374 101.202C61.2793 102.166 59.5918 102 58.5992 100.87L53.4043 94.8208C53.4043 94.8208 63.8602 90.3007 65.8124 86.5451C67.7646 82.7895 65.5146 81.9586 65.5146 81.9586L70.4447 76.3418L84.2094 80.1639Z" fill="#EE4D4A"/>
<path d="M77.1946 58.3619C77.1946 58.3619 69.2535 56.6004 58.0696 45.7988C46.8858 34.9972 41.6248 20.6727 40.2682 20.7392C38.9116 20.8056 32.9226 18.0139 21.5733 42.8408C10.2241 67.6678 14.691 73.4176 16.941 73.3843C19.191 73.3511 34.5439 69.0305 44.1395 70.1272C53.7351 71.224 66.0439 76.2426 66.0439 76.2426L77.1946 58.3619Z" fill="#EE4D4A"/>
<path d="M94.0697 71.8888L91.3565 77.0736L90.1322 79.4001C88.4778 82.5907 84.6065 83.8869 81.3638 82.3913L64.3564 76.4421L74.2829 53.709L91.2903 62.8155C94.5329 64.5438 95.7903 68.5985 94.0697 71.8888Z" fill="#EE4D4A"/>
<g opacity="0.4">
<path opacity="0.4" d="M94.0697 71.8888L91.3565 77.0736L90.1322 79.4001C88.4778 82.5907 84.6065 83.8869 81.3638 82.3913L64.3564 76.4421L74.2829 53.709L91.2903 62.8155C94.5329 64.5438 95.7903 68.5985 94.0697 71.8888Z" fill="#163459"/>
</g>
<path d="M22.4663 43.3062C16.4112 56.7666 13.8965 68.7314 16.8413 70.0608C19.7862 71.3902 27.0656 61.5857 33.1207 48.1253C39.1759 34.6649 41.6906 22.7001 38.7457 21.3707C35.8009 20.0413 28.5215 29.8458 22.4663 43.3062Z" fill="#EE4D4A"/>
<g opacity="0.5">
<path opacity="0.5" d="M22.4663 43.3062C16.4112 56.7666 13.8965 68.7314 16.8413 70.0608C19.7862 71.3902 27.0656 61.5857 33.1207 48.1253C39.1759 34.6649 41.6906 22.7001 38.7457 21.3707C35.8009 20.0413 28.5215 29.8458 22.4663 43.3062Z" fill="#163459"/>
</g>
<path d="M95.5259 79.3671L90.8936 77.9047L93.7722 72.4541L97.2134 74.6144L95.5259 79.3671Z" fill="#EE4D4A"/>
<g opacity="0.6">
<path opacity="0.6" d="M93.7722 72.4541L90.8936 77.9047L91.8531 78.2038L94.1693 72.72L93.7722 72.4541Z" fill="#163459"/>
</g>
<path d="M34.8088 40.3146C34.8088 40.3146 27.8933 36.0272 24.1213 45.3997C20.3492 54.7721 27.5955 56.3009 27.5955 56.3009C30.5735 51.648 32.9889 46.3635 34.8088 40.3146Z" fill="#F1CA50"/>
<g opacity="0.4">
<path opacity="0.4" d="M55.0586 94.0902C55.6873 95.2534 56.316 96.4167 57.2755 97.314C58.202 98.2446 59.4924 98.8761 60.7829 98.7432C62.0733 98.6102 63.2976 97.5135 63.3307 96.2173C63.9593 96.6826 64.9189 96.4167 65.4152 95.8517C65.9446 95.2534 66.1101 94.4558 66.1762 93.6581C67.0365 94.1567 68.1946 93.7578 68.7571 92.9602C69.3196 92.1625 69.3527 91.0658 69.088 90.1019C68.8233 89.1381 68.2608 88.3072 67.7314 87.4763C68.3932 87.5428 69.088 87.576 69.6505 87.2769C70.2461 86.9778 70.6432 86.2134 70.2792 85.6484C70.0807 85.316 69.6836 85.1498 69.3196 85.0501C68.2939 84.7178 67.566 84.4851 66.5071 84.5848C66.2755 84.5848 66.9373 87.4098 60.2535 91.2652C56.349 93.5584 55.0586 94.0902 55.0586 94.0902Z" fill="#163459"/>
</g>
<path d="M55.4883 92.2948C56.5471 93.3251 57.3081 94.4884 58.4331 95.5187C58.9295 95.984 59.7567 96.8813 60.4184 97.0143C61.1133 97.1472 61.5434 97.0475 61.8081 96.3828C62.0398 95.851 61.6427 95.1531 61.3449 94.721C60.617 93.591 59.9552 92.6937 59.3927 91.8295C59.128 91.4307 59.4589 91.331 59.5912 91.5304C60.1206 92.0622 60.8817 92.5275 61.3449 93.1257C61.9736 93.9234 62.1059 94.9869 63.7603 94.6546C63.992 94.6213 64.1905 94.5216 64.389 94.3887C65.0177 93.9234 65.0508 93.0593 64.7861 92.3945C64.5876 91.8628 64.2236 91.4307 63.8596 90.9986C64.5545 91.7963 65.3486 92.6604 66.4736 92.7269C67.1353 92.7934 67.7971 92.461 68.0618 91.8628C68.3927 91.0984 67.9295 90.3672 67.4331 89.7689C66.5728 88.7054 65.6464 87.7416 64.6206 86.8774C64.2236 86.5451 63.7603 86.3789 63.264 86.3789C62.6684 86.3789 61.9405 86.4786 61.6096 86.9772C60.9478 87.9077 61.1464 88.7054 61.1464 88.7054C61.1464 88.7054 59.6905 87.9742 58.5324 88.7386C57.3743 89.503 57.0765 90.8657 57.0765 90.8657L55.4883 92.2948Z" fill="#FDDCCF"/>
<path d="M63.2642 86.0809C62.8009 85.6156 62.7017 84.7847 63.0656 84.0868C63.2973 83.5883 63.6281 83.123 63.959 83.0233C65.3487 82.558 71.4039 83.6215 71.3377 84.9509C71.2715 86.3468 70.8414 86.9451 67.5656 86.4798C67.0031 86.38 66.0767 86.2803 66.0767 86.2803L65.2826 87.4768L63.2642 86.0809Z" fill="#FDDCCF"/>
</svg>
