<svg width="112" height="120" viewBox="0 0 112 120" fill="none" xmlns="http://www.w3.org/2000/svg">
<path d="M26.4701 20.088C20.9112 20.088 16.3818 15.6012 16.3818 10.0293C16.4112 4.4868 20.9112 0 26.4701 0C32.0289 0 36.5583 4.4868 36.5583 10.0587C36.5583 15.6012 32.0583 20.088 26.4701 20.088Z" fill="#5C9EDC"/>
<path d="M23.9994 7.7998H21.9111V14.5153H23.9994V7.7998Z" fill="white"/>
<path d="M22.9404 6.92037C23.6168 6.92037 24.1757 6.36319 24.1757 5.6887C24.1757 5.01422 23.6168 4.45703 22.9404 4.45703C22.2639 4.45703 21.7051 5.01422 21.7051 5.6887C21.7051 6.36319 22.2639 6.92037 22.9404 6.92037Z" fill="white"/>
<path d="M27.3222 10.9965C27.3222 10.0581 27.7633 9.50089 28.5869 9.50089C29.3516 9.50089 29.7339 10.0287 29.7339 10.9965C29.7339 11.9642 29.7339 14.5155 29.7339 14.5155H31.8221C31.8221 14.5155 31.8221 12.0522 31.8221 10.2633C31.8221 8.47449 30.7927 7.59473 29.381 7.59473C27.9398 7.59473 27.3516 8.7091 27.3516 8.7091V7.80001H25.3516V14.5155H27.3516C27.3222 14.5155 27.3222 12.0229 27.3222 10.9965Z" fill="white"/>
<path d="M100.353 35.8646C94.4118 38.7385 87.2647 36.2752 84.3824 30.3514C81.5 24.4277 83.9706 17.3016 89.9118 14.4277C95.8529 11.5538 103 14.0171 105.882 19.9409C108.765 25.8646 106.265 32.9907 100.353 35.8646Z" fill="#EE4D4A"/>
<path d="M92.1761 27.8C92.382 27.8 92.4996 27.6534 92.4408 27.4481C92.4114 27.3015 92.3232 26.9496 92.2938 26.8029C92.2643 26.5976 92.2055 26.539 91.9996 26.451C91.5291 26.2457 91.1173 25.8938 90.8232 25.2487C89.9114 23.4012 90.4996 21.0844 92.7349 19.9994C94.7055 19.0317 96.382 19.7061 97.1467 21.319C98.1761 23.4305 98.1173 25.6592 96.7055 26.3337C95.9408 26.7149 95.0585 26.363 94.8526 25.4833C94.6173 24.4569 94.5585 23.2545 94.2349 22.58C93.9408 21.9935 93.382 21.6416 92.7055 21.9642C91.9114 22.3454 91.6761 23.4598 92.2055 24.5449C92.5291 25.2487 92.9997 25.6006 92.9997 25.6006C92.9997 25.6006 93.8526 29.3836 93.9996 30.0287C94.2938 31.3484 95.2349 32.668 95.3232 32.8147C95.382 32.9026 95.4996 32.8733 95.5291 32.7853C95.5585 32.668 95.9408 31.0551 95.6761 29.7648C95.6173 29.3836 95.2055 27.5067 95.2055 27.5067C95.7055 27.8586 96.6467 27.9466 97.4408 27.5361C99.7938 26.3924 100.353 23.4891 98.9408 20.6152C97.882 18.4452 95.0585 17.3308 92.2644 18.6798C88.7938 20.3806 88.2349 23.7237 89.2644 25.7765C89.9114 27.0082 90.9408 27.888 92.1761 27.8Z" fill="white"/>
<path d="M19.5619 55.7452C13.8427 53.5822 11.0029 47.2112 13.1722 41.5088C15.3416 35.8064 21.7313 32.9749 27.4505 35.1379C33.1697 37.3008 36.0095 43.6718 33.8402 49.3742C31.6708 55.0766 25.2811 57.9082 19.5619 55.7452Z" fill="#EE4D4A"/>
<path fill-rule="evenodd" clip-rule="evenodd" d="M29.3046 47.3289C30.3696 44.34 28.8313 40.9972 25.7942 39.8567C22.7966 38.7163 19.4834 40.132 18.2212 43.0029C18.1818 43.0815 18.1423 43.1602 18.1423 43.2389C17.7479 44.2614 17.669 45.3625 17.8662 46.385L15.7363 48.9413L19.2073 49.1379C19.8384 49.8851 20.6667 50.475 21.6133 50.829C24.6898 52.0088 28.1213 50.475 29.2652 47.4468C29.2652 47.4075 29.2652 47.3682 29.3046 47.3289ZM21.9288 49.9638C20.9822 49.6098 20.1933 48.9806 19.6412 48.2334L17.6296 48.1154L18.8523 46.621C18.5762 45.6378 18.6156 44.576 19.0101 43.5535C19.0495 43.3962 19.1284 43.2389 19.2073 43.1209C20.3511 40.8792 23.0332 39.7781 25.4787 40.7219C27.9241 41.6658 29.2257 44.3007 28.5158 46.7783C28.4763 46.8963 28.4369 47.0142 28.3974 47.1322C27.3719 49.6885 24.4926 50.9469 21.9288 49.9638Z" fill="white"/>
<path fill-rule="evenodd" clip-rule="evenodd" d="M25.794 47.4082C25.6757 47.2902 25.1235 46.7003 25.0446 46.6217C24.9263 46.543 24.8474 46.4644 24.7291 46.5823C24.5713 46.7003 24.2163 46.897 24.098 46.9363C23.9797 47.0149 23.9008 46.9756 23.7825 46.8576C23.6641 46.7397 23.2697 46.425 22.9542 45.7565C22.6781 45.2452 22.5992 44.6946 22.5597 44.5373C22.5203 44.38 22.6386 44.3407 22.7175 44.3014C22.7964 44.2621 22.9147 44.1834 23.033 44.1441C23.0725 44.1441 23.0725 44.1047 23.1119 44.1047C23.1514 44.0654 23.1908 44.0261 23.2697 43.9868C23.3486 43.9081 23.3486 43.8295 23.3486 43.7508C23.3486 43.6721 23.3091 42.8856 23.3091 42.571C23.3091 42.2564 23.1514 42.2564 23.0725 42.2171C22.9936 42.1777 22.9147 42.1384 22.8358 42.0991C22.7569 42.0597 22.5992 42.0597 22.402 42.1384C22.2442 42.2171 21.7314 42.4137 21.4948 43.0822C21.4159 43.2396 21.4159 43.3969 21.3764 43.5542C21.337 44.0654 21.4948 44.5767 21.4948 44.6553C21.5342 44.7733 21.8498 46.5037 23.033 47.5655C24.2163 48.6273 24.2952 48.47 24.5319 48.5094C24.808 48.588 25.4785 48.5094 25.7151 48.2341C25.9518 47.9588 26.0701 47.6835 26.0307 47.6048C25.9913 47.6048 25.9124 47.5655 25.794 47.4082Z" fill="white"/>
<path d="M97.3147 64.5124C91.6885 64.5124 87.1113 59.9378 87.1113 54.3148C87.1113 48.6918 91.6885 44.1172 97.3147 44.1172C102.941 44.1172 107.518 48.6918 107.518 54.3148C107.47 59.9378 102.941 64.5124 97.3147 64.5124Z" fill="#5C9EDC"/>
<path d="M91.8574 57.803C92.8628 58.4328 94.0117 58.8205 95.3043 58.8205C99.4694 58.8205 101.815 55.2835 101.672 52.0858C102.102 51.7466 102.485 51.359 102.773 50.923C102.39 51.1168 101.959 51.2137 101.48 51.2621C101.959 50.9714 102.294 50.5354 102.485 50.0024C102.055 50.2447 101.576 50.4385 101.049 50.5354C100.618 50.0993 100.044 49.8086 99.4215 49.8086C97.9853 49.8086 96.9321 51.1652 97.2193 52.5703C95.3522 52.4734 93.7245 51.5528 92.6234 50.1962C92.0489 51.2137 92.3362 52.5218 93.2936 53.2002C92.9106 53.2002 92.5755 53.1033 92.2883 52.9095C92.2404 53.9754 93.0064 54.9444 94.0596 55.1382C93.7245 55.2351 93.3894 55.2351 93.0543 55.1866C93.3415 56.1072 94.1554 56.7371 95.1607 56.7371C94.2032 57.6092 93.0543 57.9483 91.8574 57.803Z" fill="white"/>
<path d="M81.1763 112.987L40.6175 112.96C35.7351 112.96 31.7939 109.234 31.7939 104.68L31.8234 9.27628C31.8234 4.69512 35.7939 0.99707 40.6763 0.99707L81.2351 1.02467C86.1175 1.02467 90.0587 4.75031 90.0587 9.30388L90.0293 104.708C90.0293 109.289 86.0587 112.987 81.1763 112.987Z" fill="#163459"/>
<path d="M81.1668 4.45898H73.3139C72.2551 4.45898 71.4021 5.28691 71.4021 6.33561V7.66028C71.4021 8.68138 70.5492 9.5369 69.4904 9.5369H54.1668C53.108 9.5369 52.2551 8.70898 52.2551 7.66028V6.33561C52.2551 5.3145 51.4021 4.45898 50.3433 4.45898H47.5786H40.6962C37.2845 4.45898 34.5198 7.05314 34.5198 10.2544L34.4609 103.34C34.4609 106.542 37.2256 109.136 40.6374 109.136L81.108 109.163C84.5198 109.163 87.2845 106.569 87.2845 103.368L87.3433 10.2544C87.3433 7.05314 84.5786 4.45898 81.1668 4.45898Z" fill="white"/>
<path d="M81.765 11.9524C81.765 11.9802 80.7356 12.008 79.4709 12.008C78.2062 12.008 77.1768 12.008 77.1768 11.9802C77.1768 11.9524 78.2062 11.9246 79.4709 11.9246C80.7356 11.8968 81.765 11.9246 81.765 11.9524Z" fill="#163459"/>
<path d="M81.765 13.0298C81.765 13.0576 80.7356 13.0854 79.4709 13.0854C78.2062 13.0854 77.1768 13.0854 77.1768 13.0576C77.1768 13.0298 78.2062 13.002 79.4709 13.002C80.7356 13.002 81.765 13.0298 81.765 13.0298Z" fill="#163459"/>
<path d="M81.765 14.1333C81.765 14.1611 80.7356 14.1889 79.4709 14.1889C78.2062 14.1889 77.1768 14.1889 77.1768 14.1611C77.1768 14.1333 78.2062 14.1055 79.4709 14.1055C80.765 14.1055 81.765 14.1055 81.765 14.1333Z" fill="#163459"/>
<path d="M38.7649 15.2096C38.7649 15.2096 38.7943 15.2096 38.8825 15.2096C38.9708 15.2096 39.0884 15.2096 39.2061 15.2096C39.5296 15.2096 39.9413 15.182 40.4413 15.182L40.4119 15.2096C40.4119 14.9613 40.4119 14.6853 40.4119 14.3817C40.4119 14.2161 40.4119 14.0781 40.4119 13.9126C40.4413 13.747 40.6178 13.5814 40.8237 13.5538C41.0296 13.5538 41.2061 13.5538 41.4119 13.5538C41.6472 13.5814 41.8237 13.7746 41.8237 13.9954C41.8237 14.3817 41.8237 14.7957 41.8531 15.2096L41.7943 15.1544C42.2943 15.1544 42.8237 15.1544 43.3531 15.1268L43.2943 15.182C43.2943 14.6025 43.2943 13.9954 43.2649 13.3606C43.2649 13.195 43.2649 13.057 43.2649 12.8915C43.2649 12.7535 43.1766 12.6431 43.059 12.5603C42.8237 12.3395 42.6178 12.1463 42.3825 11.9256C42.1472 11.7324 41.9413 11.5116 41.7355 11.3184C41.6178 11.208 41.5296 11.1252 41.4119 11.0148C41.2943 10.9044 41.2061 10.8217 41.0884 10.7941C40.9708 10.7665 40.8237 10.7941 40.7355 10.8493C40.6472 10.932 40.5296 11.0424 40.4413 11.1252C40.2649 11.3184 40.059 11.484 39.8825 11.6496C39.5296 11.9807 39.1766 12.3119 38.9119 12.5879C38.7943 12.7535 38.8531 12.9467 38.8237 13.1398C38.8237 13.333 38.8237 13.4986 38.8237 13.6642C38.8237 13.9678 38.8237 14.2437 38.8237 14.4921C38.8237 14.7129 38.8237 14.8785 38.8237 15.0165C38.7649 15.1268 38.7649 15.2096 38.7649 15.2096C38.7649 15.2096 38.7649 15.1544 38.7649 15.0441C38.7649 14.9061 38.7649 14.7405 38.7355 14.5197C38.7355 14.2713 38.7355 13.9954 38.7061 13.6918C38.7061 13.5262 38.7061 13.3606 38.7061 13.1674C38.7061 13.0846 38.7061 12.9743 38.7061 12.8915C38.7061 12.7811 38.7355 12.6707 38.7943 12.5879C39.0884 12.2567 39.4119 11.9531 39.7649 11.622C39.9413 11.4564 40.1178 11.2632 40.3237 11.0976C40.4119 11.0148 40.5002 10.9044 40.6178 10.8217C40.7355 10.7389 40.9119 10.7113 41.059 10.7389C41.2355 10.7665 41.3237 10.9044 41.4413 10.9872C41.559 11.07 41.6472 11.1804 41.7649 11.2908C41.9708 11.484 42.2061 11.6772 42.4119 11.898C42.6472 12.0911 42.8531 12.3119 43.0884 12.5327C43.1472 12.5879 43.2061 12.6431 43.2649 12.6983C43.3237 12.7811 43.3531 12.8639 43.3531 12.9467C43.3531 13.1122 43.3531 13.2502 43.3531 13.4158C43.3531 14.023 43.3531 14.6301 43.3825 15.2372V15.2924H43.3237C42.7943 15.2924 42.2649 15.2924 41.7649 15.2924H41.7061V15.2372C41.7061 14.8233 41.7061 14.4093 41.7061 14.023C41.7061 13.8574 41.559 13.6918 41.3825 13.6642C41.2061 13.6642 41.0002 13.6642 40.8237 13.6642C40.6472 13.6642 40.5296 13.8022 40.5002 13.9402C40.4708 14.0781 40.5002 14.2437 40.5002 14.4093C40.5002 14.7129 40.5002 14.9889 40.5002 15.2372V15.2648H40.4708C39.9708 15.2648 39.5296 15.2648 39.2355 15.2648C39.1178 15.2648 39.0002 15.2648 38.9119 15.2648C38.7943 15.2096 38.7355 15.2096 38.7649 15.2096Z" fill="#163459"/>
<path d="M83.0583 97.3946L82.2054 96.5943L81.3818 97.367V95.0488H83.0583V97.3946ZM82.1759 96.4839L82.9701 97.229V95.104H81.4407V97.1738L82.1759 96.4839Z" fill="#163459"/>
<path d="M60.0284 97.0902L59.7343 96.9522C59.5873 97.035 59.4696 97.0626 59.352 97.0626C58.8814 97.0626 58.499 96.7038 58.499 96.2622C58.499 95.8207 58.8814 95.4619 59.352 95.4619C59.8226 95.4619 60.2049 95.8207 60.2049 96.2622C60.2049 96.4554 60.1461 96.6486 59.999 96.7866L60.0284 97.0902ZM59.3226 95.5447C58.8814 95.5447 58.5284 95.8759 58.5284 96.2898C58.5284 96.7038 58.8814 97.035 59.3226 97.035C59.4402 97.035 59.5578 97.0074 59.7049 96.9246L59.9402 97.0074L59.8814 96.7866C60.0284 96.6486 60.0873 96.4554 60.0873 96.2898C60.1167 95.8483 59.7637 95.5171 59.3226 95.5447Z" fill="#163459"/>
<path d="M61.999 96.9529L61.6461 96.1525L60.999 95.6006H62.5873L61.999 96.9529ZM61.1461 95.6558L61.7049 96.1249L61.999 96.8149L62.499 95.6558H61.1461Z" fill="#163459"/>
<path d="M62.5474 95.5982L61.6846 96.125L61.7166 96.1713L62.5795 95.6445L62.5474 95.5982Z" fill="#163459"/>
<path d="M57.5289 95.7661C57.4701 95.5453 57.2642 95.3797 57.0289 95.4073C56.7936 95.4073 56.5877 95.6005 56.5583 95.8213C56.5289 95.6005 56.323 95.4349 56.0877 95.4349C55.8524 95.4349 55.6466 95.6005 55.5877 95.8213C55.5583 95.9868 55.6171 96.1524 55.7054 96.2628C55.7936 96.4008 55.9407 96.5112 56.0583 96.594C56.2348 96.732 56.4113 96.87 56.5877 97.0355C56.7642 96.8976 56.9113 96.732 57.0877 96.594C57.2054 96.4836 57.3524 96.3732 57.4407 96.2352C57.5289 96.0972 57.5877 95.9316 57.5289 95.7661Z" fill="#EE4D4A"/>
<path d="M84.8227 99.4358C84.8227 99.4358 84.8227 99.353 84.8227 99.1874C84.8227 99.0218 84.8227 98.7734 84.8227 98.4423C84.8227 97.7799 84.8227 96.7864 84.8227 95.517C84.8227 92.978 84.7933 89.28 84.7933 84.6712L84.8521 84.7264C73.5286 84.7264 56.6463 84.754 37.8227 84.754L37.911 84.6712C37.911 89.8043 37.911 94.7994 37.911 99.4634L37.8227 99.3806C51.3521 99.3806 63.1168 99.4082 71.4698 99.4082C75.6462 99.4082 78.9992 99.4358 81.2933 99.4358C82.4404 99.4358 83.3227 99.4358 83.9404 99.4358C84.2345 99.4358 84.4698 99.4358 84.6168 99.4358C84.7345 99.4358 84.8227 99.4358 84.8227 99.4358C84.8227 99.4358 84.7345 99.4358 84.5874 99.4358C84.4404 99.4358 84.2051 99.4358 83.9109 99.4358C83.3227 99.4358 82.4404 99.4358 81.2933 99.4358C78.9992 99.4358 75.6757 99.4358 71.4992 99.4634C63.1168 99.4634 51.3521 99.491 37.7933 99.491H37.7051V99.4082C37.7051 94.7442 37.7051 89.7491 37.7051 84.616V84.5332H37.7933C56.6168 84.5332 73.4992 84.5608 84.8227 84.5608H84.8815V84.616C84.8815 89.2524 84.8521 92.9504 84.8521 95.4894C84.8521 96.7588 84.8521 97.7247 84.8521 98.3871C84.8521 98.7182 84.8521 98.9666 84.8521 99.1322C84.8227 99.353 84.8227 99.4358 84.8227 99.4358Z" fill="#163459"/>
<path d="M39.7418 87.125L39.6826 96.8945L52.712 96.964L52.7712 87.1945L39.7418 87.125Z" fill="#5C9EDC"/>
<path d="M52.7633 87.2093C52.7633 87.2093 52.7339 87.2093 52.7045 87.2093C52.6456 87.2093 52.5868 87.2093 52.528 87.2093C52.3515 87.2093 52.1162 87.2093 51.8221 87.2093C51.2045 87.2093 50.2927 87.2093 49.1456 87.2093C46.8515 87.2093 43.6162 87.2093 39.7633 87.1817L39.8221 87.1265C39.7927 90.0242 39.7927 93.3635 39.7633 96.896C39.7927 96.9236 39.6162 96.758 39.675 96.8132H39.7044H39.7633H39.8809H40.1162H40.5574C40.8515 96.8132 41.1456 96.8132 41.4397 96.8132C42.028 96.8132 42.6162 96.8132 43.2044 96.8132C44.3515 96.8132 45.4986 96.8132 46.5868 96.8408C48.7633 96.8684 50.8221 96.8684 52.675 96.896L52.6162 96.9512C52.6456 94.0258 52.675 91.5697 52.7045 89.8586C52.7045 89.0031 52.7339 88.3408 52.7339 87.8716C52.7339 87.6508 52.7339 87.4852 52.7339 87.3473C52.7633 87.2645 52.7633 87.2093 52.7633 87.2093C52.7633 87.2093 52.7633 87.2645 52.7633 87.3749C52.7633 87.4853 52.7633 87.6784 52.7633 87.8992C52.7633 88.3684 52.7633 89.0307 52.7633 89.8586C52.7633 91.5697 52.7633 94.0258 52.7633 96.9788V97.0339H52.7045C50.8515 97.0339 48.7927 97.0063 46.6162 97.0063C45.528 97.0063 44.3809 97.0064 43.2339 96.9788C42.6456 96.9788 42.0574 96.9788 41.4692 96.9788C41.175 96.9788 40.8809 96.9788 40.5868 96.9788H40.1456H39.9103H39.7927H39.7339H39.7044C39.7633 97.0339 39.6162 96.896 39.6162 96.896C39.6456 93.3635 39.675 90.0242 39.675 87.1265V87.0713H39.7339C43.6162 87.0989 46.8809 87.1265 49.175 87.1541C50.3221 87.1541 51.2045 87.1817 51.8221 87.1817C52.1162 87.1817 52.3515 87.1817 52.528 87.1817C52.5868 87.1817 52.6456 87.1817 52.7045 87.1817C52.7633 87.2093 52.7633 87.2093 52.7633 87.2093Z" fill="#163459"/>
<path d="M40.2003 87.727L40.1484 96.2822L52.2661 96.3469L52.3179 87.7917L40.2003 87.727Z" fill="#F1CA50"/>
<path d="M40.1455 96.2896L44.4102 91.0186L46.9985 94.3302L48.7926 92.564L52.2337 96.3448L40.1455 96.2896Z" fill="white"/>
<path d="M48.1452 90.3843C48.1452 90.8811 47.704 91.2675 47.1746 91.2675C46.6452 91.2675 46.2334 90.8535 46.2334 90.3568C46.2334 89.86 46.6746 89.4736 47.204 89.4736C47.704 89.4736 48.1452 89.8876 48.1452 90.3843Z" fill="white"/>
<path d="M80.9698 77.8274L79.6757 76.6131L78.4404 77.7446V74.2949H80.9404L80.9698 77.8274ZM79.6757 76.4751L79.7051 76.5027L80.8228 77.579V74.4329H78.5287V77.5238L79.6757 76.4751Z" fill="#163459"/>
<path d="M48.3526 77.4684L47.7644 77.22C47.4703 77.358 47.2056 77.4408 46.9997 77.4408C46.0879 77.4408 45.3232 76.7508 45.3232 75.8953C45.3232 75.0398 46.0585 74.3223 46.9703 74.3223C47.8821 74.3223 48.6468 75.0122 48.6468 75.8677C48.6468 76.2541 48.4997 76.6129 48.235 76.9164L48.3526 77.4684ZM46.9409 74.4051C46.0879 74.4051 45.3821 75.0674 45.4115 75.8677C45.4115 76.668 46.1174 77.3304 46.9703 77.3028C47.1762 77.3028 47.4409 77.22 47.7056 77.082H47.735L48.1762 77.2752L48.0879 76.8612L48.1174 76.8336C48.3821 76.5577 48.5291 76.1989 48.5291 75.8401C48.4997 75.0674 47.8232 74.4051 46.9409 74.4051Z" fill="#163459"/>
<path d="M52.205 77.2202L51.5285 75.6471L50.2344 74.5432L53.352 74.5156L52.205 77.2202ZM50.5285 74.6536L51.6167 75.5919L52.205 76.9442L53.1755 74.626L50.5285 74.6536Z" fill="#163459"/>
<path d="M53.3046 74.5271L51.6035 75.5654L51.6677 75.658L53.3687 74.6196L53.3046 74.5271Z" fill="#163459"/>
<path d="M43.4404 74.8744C43.3522 74.4605 42.911 74.1293 42.4404 74.1569C41.9992 74.1845 41.5875 74.5156 41.5286 74.9572C41.4698 74.5432 41.058 74.1845 40.5875 74.1845C40.1463 74.1845 39.7051 74.5156 39.6169 74.9296C39.558 75.2332 39.6757 75.5643 39.8522 75.8127C40.0286 76.0611 40.2933 76.2819 40.5286 76.4751C40.8816 76.751 41.2051 77.027 41.558 77.3306C41.911 77.027 42.2051 76.751 42.5286 76.4751C42.7639 76.2543 43.0286 76.0611 43.2051 75.7851C43.3816 75.5092 43.4992 75.178 43.4404 74.8744Z" fill="#EE4D4A"/>
<path d="M43.146 25.7787C44.3155 25.7787 45.2636 24.8891 45.2636 23.7917C45.2636 22.6943 44.3155 21.8047 43.146 21.8047C41.9764 21.8047 41.0283 22.6943 41.0283 23.7917C41.0283 24.8891 41.9764 25.7787 43.146 25.7787Z" fill="#5C9EDC"/>
<path d="M59.3817 103.384C59.3817 103.826 58.9993 104.185 58.5287 104.185C58.0581 104.185 57.6758 103.826 57.6758 103.384C57.6758 102.943 58.0581 102.584 58.5287 102.584C58.9993 102.584 59.3817 102.943 59.3817 103.384Z" fill="#163459"/>
<path d="M61.9988 103.412C61.9988 103.853 61.6165 104.212 61.1459 104.212C60.6753 104.212 60.293 103.853 60.293 103.412C60.293 102.97 60.6753 102.611 61.1459 102.611C61.6165 102.611 61.9988 102.97 61.9988 103.412Z" fill="#163459"/>
<path d="M64.617 103.412C64.617 103.853 64.2347 104.212 63.7641 104.212C63.2935 104.212 62.9111 103.853 62.9111 103.412C62.9111 102.97 63.2935 102.611 63.7641 102.611C64.2347 102.611 64.617 102.97 64.617 103.412Z" fill="#163459"/>
<path d="M85.088 27.7393H38.0586V54.7295H85.088V27.7393Z" fill="#F1CA50"/>
<path d="M42.4121 54.7297L55.8827 37.8125L64.2356 48.3823L69.9121 42.7248L81.0298 54.7297H42.4121Z" fill="white"/>
<path d="M67.7932 35.7424C67.7932 37.3154 66.4403 38.5849 64.7638 38.5849C63.0873 38.5849 61.7344 37.3154 61.7344 35.7424C61.7344 34.1693 63.0873 32.8998 64.7638 32.8998C66.4108 32.8722 67.7932 34.1693 67.7932 35.7424Z" fill="white"/>
<path d="M84.971 79.8157C84.971 79.2361 84.9416 54.8677 84.9122 18.7703L84.971 18.8255C70.7946 18.8255 54.7946 18.8255 37.9416 18.8255L38.0299 18.7427C38.0299 41.5657 38.0299 62.7053 38.0299 79.7881L37.971 79.7329C66.471 79.7881 84.471 79.8157 84.971 79.8157C84.471 79.8157 66.471 79.8433 37.9416 79.8709H37.8828V79.8157C37.8828 62.7329 37.8828 41.5933 37.8828 18.7703V18.6875H37.971C54.824 18.6875 70.824 18.6875 85.0005 18.6875H85.0593V18.7427C85.0593 36.819 85.0299 52.0803 85.0299 62.8433C85.0299 68.2248 85.0299 72.4472 85.0005 75.3725C85.0005 76.8076 85.0005 77.9391 85.0005 78.6842C85.0005 79.0706 85.0005 79.3465 85.0005 79.5397C84.971 79.7329 84.971 79.8157 84.971 79.8157Z" fill="#163459"/>
<path d="M89.3336 93.5295C83.6876 93.5295 79.1113 88.9869 79.1113 83.3824C79.1113 77.7779 83.6876 73.2354 89.3336 73.2354C94.9795 73.2354 99.5558 77.7779 99.5558 83.3824C99.5558 88.9869 94.9795 93.5295 89.3336 93.5295Z" fill="#5C9EDC"/>
<path d="M87.7656 88.9172H90.205V83.3292H91.8893L92.0636 81.4665H90.205C90.205 81.4665 90.205 80.7747 90.205 80.4022C90.205 79.9764 90.3212 79.7635 90.7858 79.7635C91.1343 79.7635 92.1217 79.7635 92.1217 79.7635V77.8477C92.1217 77.8477 90.7277 77.8477 90.4373 77.8477C88.6368 77.8477 87.8237 78.5927 87.8237 79.9764C87.8237 81.2004 87.8237 81.4665 87.8237 81.4665H86.5459V83.3292H87.8237V88.9172H87.7656Z" fill="white"/>
<path d="M31.0292 107.21C23.5871 108.972 16.145 104.4 14.3785 96.9793C12.6119 89.559 17.1974 82.1387 24.6395 80.3773C32.0816 78.616 39.5238 83.1881 41.2903 90.6083C43.0569 97.9911 38.4338 105.449 31.0292 107.21Z" fill="#EE4D4A"/>
<path d="M26.3682 87.7602C28.3227 87.3105 28.5858 87.2355 29.3751 87.0856C30.0892 86.9357 30.5403 86.9732 30.8034 87.0107C31.1792 87.0482 31.4799 87.1606 31.7806 87.348C32.1189 87.5353 32.3068 87.7602 32.5324 88.06C32.6827 88.2849 32.9082 88.6596 33.0961 89.3717C33.3217 90.1212 33.3968 90.3835 33.8479 92.3323C34.2989 94.2811 34.3741 94.5434 34.5244 95.3304C34.6748 96.0424 34.6372 96.4921 34.5996 96.7545C34.562 97.1292 34.4493 97.429 34.2613 97.7289C34.0734 98.0661 33.8479 98.2535 33.5472 98.4784C33.3217 98.6283 32.9458 98.8531 32.2317 99.0405C31.4799 99.2654 31.2168 99.3403 29.2623 99.79C27.3078 100.24 27.0447 100.315 26.2554 100.465C25.5413 100.615 25.0902 100.577 24.8271 100.54C24.4513 100.502 24.1506 100.39 23.8499 100.202C23.5116 100.015 23.3237 99.7901 23.0982 99.4902C22.9478 99.2654 22.7223 98.8906 22.5344 98.1786C22.3089 97.4291 22.2337 97.1667 21.7826 95.218C21.3316 93.2692 21.2564 93.0069 21.1061 92.2199C20.9557 91.5078 20.9933 91.0581 21.0309 90.7958C21.0685 90.421 21.1813 90.1212 21.3692 89.8214C21.5571 89.4841 21.7826 89.2967 22.0833 89.0719C22.3089 88.922 22.6847 88.6971 23.3989 88.5097C24.1506 88.2849 24.4137 88.2099 26.3682 87.7602ZM26.0675 86.4111C24.0754 86.8982 23.8123 86.9732 23.023 87.1606C22.2337 87.3854 21.7451 87.6478 21.3316 87.9101C20.8806 88.2099 20.5423 88.5472 20.2416 89.0719C19.9409 89.5965 19.7906 90.0462 19.7154 90.5709C19.6402 91.0956 19.6402 91.6577 19.7906 92.4447C19.9409 93.2317 19.9785 93.4941 20.4671 95.4803C20.9557 97.4665 21.0309 97.7289 21.2188 98.5159C21.4444 99.3029 21.7075 99.79 21.9706 100.202C22.2713 100.652 22.6095 100.989 23.1358 101.289C23.662 101.589 24.113 101.739 24.6392 101.814C25.1654 101.889 25.7292 101.889 26.5185 101.739C27.3078 101.589 27.5709 101.551 29.563 101.064C31.5551 100.577 31.8182 100.502 32.6075 100.315C33.3968 100.09 33.8855 99.8275 34.2989 99.5652C34.7499 99.2654 35.0882 98.9281 35.3889 98.4034C35.6896 97.8788 35.84 97.429 35.9151 96.9044C35.9903 96.3797 35.9903 95.8176 35.84 95.0306C35.6896 94.2436 35.652 93.9812 35.1634 91.995C34.6748 90.0088 34.5996 89.7464 34.4117 88.9594C34.1862 88.1724 33.923 87.6853 33.6599 87.273C33.3593 86.8233 33.021 86.486 32.4948 86.1862C31.9686 85.8864 31.5175 85.7365 30.9913 85.6615C30.4651 85.5866 29.9013 85.5866 29.112 85.7365C28.3227 85.8864 28.0596 85.9613 26.0675 86.4111Z" fill="white"/>
<path d="M26.8946 90.009C24.7898 90.4962 23.5119 92.5948 24.0005 94.6935C24.4891 96.7921 26.5939 98.0663 28.6988 97.5792C30.8036 97.092 32.0816 94.9933 31.5929 92.8946C31.1043 90.796 28.9995 89.5218 26.8946 90.009ZM28.3981 96.23C27.045 96.5673 25.6919 95.7053 25.3536 94.3562C25.0153 93.0071 25.8798 91.6579 27.2329 91.3206C28.586 90.9833 29.9391 91.8453 30.2774 93.1944C30.5781 94.5436 29.7512 95.8927 28.3981 96.23Z" fill="white"/>
<path d="M31.7062 88.6982C31.819 89.1854 31.5183 89.6725 31.0297 89.785C30.5411 89.8974 30.0524 89.5976 29.9397 89.1104C29.8269 88.6232 30.1276 88.136 30.6162 88.0236C31.1049 87.9112 31.5935 88.211 31.7062 88.6982Z" fill="white"/>
</svg>
