<svg width="125" height="120" viewBox="0 0 125 120" fill="none" xmlns="http://www.w3.org/2000/svg">
<path d="M90.5782 65.2063C82.8203 57.4228 82.8203 44.794 90.5782 37.0105C98.3362 29.227 110.924 29.227 118.682 37.0105C126.44 44.794 126.44 57.4228 118.682 65.1548C110.924 72.9899 98.3362 73.0414 90.5782 65.2063Z" fill="#F1CA50"/>
<path d="M103.011 52.7833C102.138 51.907 102.087 50.4122 103.011 49.4844C103.885 48.6081 105.375 48.6081 106.248 49.4844C107.122 50.3607 107.122 51.8555 106.248 52.7318C105.323 53.6596 103.885 53.6596 103.011 52.7833Z" fill="#163459"/>
<path d="M102.549 49.0722C103.679 47.9382 105.529 47.9382 106.659 49.0722C107.789 50.2062 107.789 52.0619 106.659 53.1959C105.529 54.3299 103.679 54.3299 102.549 53.1959C101.419 52.0619 101.419 50.2062 102.549 49.0722ZM105.786 52.3196C106.454 51.6495 106.454 50.6186 105.786 49.9485C105.118 49.2784 104.039 49.2784 103.422 49.9485C102.754 50.6186 102.754 51.7011 103.422 52.3196C104.09 52.9897 105.169 52.9897 105.786 52.3196Z" fill="#163459"/>
<path d="M106.162 52.2299C106.432 51.9234 106.809 51.9234 107.079 52.2299L112.798 58.728C113.067 59.0345 113.067 59.4636 112.798 59.7701C112.528 60.0766 112.15 60.0766 111.881 59.7701L106.162 53.272C105.946 53.0268 105.946 52.5364 106.162 52.2299Z" fill="#163459"/>
<path d="M114.468 61.0312C114.725 60.7735 115.085 60.7735 115.341 61.0312L116.472 62.1652C116.729 62.4229 116.729 62.7838 116.472 63.0415C116.215 63.2992 115.855 63.2992 115.598 63.0415L114.468 61.9075C114.211 61.6497 114.211 61.2374 114.468 61.0312Z" fill="#163459"/>
<path d="M92.7874 39.2783C93.0443 39.0205 93.4039 39.0205 93.6608 39.2783L94.7911 40.4123C95.048 40.67 95.048 41.0308 94.7911 41.2886C94.5342 41.5463 94.1746 41.5463 93.9177 41.2886L92.7874 40.1546C92.5305 39.8968 92.5305 39.4844 92.7874 39.2783Z" fill="#163459"/>
<path d="M118.732 50.7221C118.835 50.619 118.989 50.5159 119.195 50.5674H120.787C121.147 50.5674 121.404 50.8252 121.404 51.186C121.404 51.5468 121.147 51.8045 120.787 51.8045H119.195C118.835 51.8045 118.578 51.5468 118.578 51.186C118.527 50.9798 118.629 50.8252 118.732 50.7221Z" fill="#163459"/>
<path d="M88.0604 50.7221C88.1631 50.619 88.3173 50.5159 88.5228 50.5674H90.1155C90.4751 50.5674 90.732 50.8252 90.732 51.186C90.732 51.5468 90.4751 51.8045 90.1155 51.8045H88.5228C88.1631 51.8045 87.9062 51.5468 87.9062 51.186C87.9062 50.9798 87.9576 50.8252 88.0604 50.7221Z" fill="#163459"/>
<path d="M114.469 40.3605L115.599 39.2265C115.856 38.9688 116.216 38.9688 116.473 39.2265C116.73 39.4842 116.73 39.8451 116.473 40.1028L115.342 41.2368C115.086 41.4945 114.726 41.4945 114.469 41.2368C114.212 41.0306 114.212 40.6183 114.469 40.3605Z" fill="#163459"/>
<path d="M92.7874 62.1642L93.9177 61.0302C94.1746 60.7725 94.5342 60.7725 94.7911 61.0302C95.048 61.2879 95.048 61.6488 94.7911 61.9065L93.6608 63.0405C93.4039 63.2983 93.0443 63.2983 92.7874 63.0405C92.5305 62.7828 92.5305 62.3704 92.7874 62.1642Z" fill="#163459"/>
<path d="M104.193 34.5365C104.296 34.4334 104.45 34.3303 104.656 34.3819C105.015 34.3819 105.272 34.6396 105.272 35.0004V36.5984C105.272 36.9592 105.015 37.2169 104.656 37.2169C104.296 37.2169 104.039 36.9592 104.039 36.5984V35.0004C103.988 34.7942 104.09 34.6396 104.193 34.5365Z" fill="#163459"/>
<path d="M104.193 65.3099C104.296 65.2069 104.45 65.1038 104.656 65.1553C105.015 65.1553 105.272 65.413 105.272 65.7739V67.3718C105.272 67.7326 105.015 67.9904 104.656 67.9904C104.296 67.9904 104.039 67.7326 104.039 67.3718V65.7739C103.988 65.5677 104.09 65.413 104.193 65.3099Z" fill="#163459"/>
<path d="M106.22 48.7845L111.785 43.2197C112.077 42.9268 112.487 42.9268 112.78 43.2197C113.073 43.5126 113.073 43.9226 112.78 44.2155L107.215 49.7803C106.923 50.0732 106.513 50.0732 106.22 49.7803C105.927 49.4874 105.927 49.0774 106.22 48.7845Z" fill="#163459"/>
<path d="M62.834 104.381C65.0946 105.824 67.9717 104.896 69.2048 102.319C70.4379 99.6903 69.6158 96.4428 67.3552 94.948C67.2525 94.8965 67.0983 94.7934 66.9956 94.7418C67.4066 93.2985 67.7149 91.8037 67.9718 90.3088C68.1259 90.3088 68.2286 90.3088 68.3828 90.3088C71.003 90.2573 73.0581 87.7831 73.0067 84.7934C72.9553 81.8037 70.7975 79.4325 68.1773 79.4841C68.0231 79.4841 67.9204 79.4841 67.7662 79.5356C67.5093 78.0408 67.0983 76.5459 66.6359 75.1542C66.7387 75.1026 66.8928 74.9996 66.9956 74.948C69.2048 73.4016 69.9241 70.1026 68.5883 67.5253C67.2525 64.9996 64.3753 64.1748 62.1661 65.7212C62.0634 65.8243 61.9606 65.8758 61.8579 65.9789C60.9845 64.8449 60.0083 63.814 58.9807 62.8346C59.0321 62.7315 59.1349 62.5769 59.1862 62.4222C60.4193 59.7934 59.5973 56.5459 57.3367 55.1026C55.0761 53.6593 52.2503 54.6387 51.0173 57.2676C50.9659 57.4222 50.9145 57.5253 50.8631 57.68C49.5787 57.2161 48.2943 56.8552 47.0099 56.5975C47.0099 56.4429 47.0099 56.2882 47.0099 56.1336C46.9585 53.1439 44.852 50.8243 42.2832 50.8758C39.7143 50.9274 37.7106 53.4016 37.762 56.3398C37.762 56.4944 37.762 56.649 37.8133 56.8037C36.5289 57.113 35.2959 57.5253 34.0628 58.0923C34.0114 57.9377 33.96 57.8346 33.8573 57.68C32.5215 55.1542 29.6957 54.381 27.5379 55.8758C25.3801 57.4222 24.6608 60.6697 25.9966 63.1954C26.048 63.3501 26.1507 63.4532 26.2021 63.5563C25.2259 64.5356 24.3525 65.6697 23.5305 66.8037C23.4277 66.7006 23.325 66.649 23.2222 66.5459C21.013 65.1027 18.2386 66.082 17.0056 68.6593C15.7725 71.2367 16.5946 74.4841 18.8038 75.8758C18.9065 75.9274 19.0607 76.0305 19.1634 76.082C18.7524 77.5253 18.4441 78.9686 18.2386 80.4635C18.1359 80.4635 17.9817 80.4635 17.879 80.4635C15.3615 80.515 13.3578 82.9377 13.4092 85.8758C13.4605 88.814 15.567 91.1851 18.0845 91.1336C18.2386 91.1336 18.3414 91.1336 18.4955 91.082C18.7524 92.5769 19.112 94.0202 19.5744 95.4119C19.4717 95.4635 19.3175 95.5666 19.2148 95.6181C17.057 97.113 16.3377 100.412 17.6735 102.938C19.0093 105.463 21.7837 106.288 23.9929 104.793C24.0956 104.742 24.1984 104.639 24.3011 104.536C25.1745 105.67 26.0993 106.701 27.1269 107.68C27.0755 107.783 26.9727 107.938 26.9214 108.041C25.6883 110.618 26.5104 113.866 28.7196 115.309C30.9288 116.752 33.7545 115.876 34.9876 113.299C35.039 113.144 35.0903 113.041 35.1417 112.886C36.3748 113.402 37.6592 113.762 38.9436 114.02C38.9436 114.175 38.9436 114.329 38.9436 114.484C38.995 117.422 41.1015 119.845 43.6703 119.793C46.2392 119.742 48.2943 117.319 48.2429 114.381C48.2429 114.226 48.2429 114.072 48.1915 113.917C49.476 113.608 50.7604 113.195 51.9934 112.68C52.0448 112.835 52.0962 112.938 52.1989 113.092C53.5348 115.67 56.4119 116.494 58.6211 115C60.8303 113.505 61.5496 110.206 60.2138 107.628C60.1624 107.474 60.0597 107.371 60.0083 107.268C60.9845 106.288 61.9092 105.154 62.7313 103.969C62.5771 104.226 62.6799 104.329 62.834 104.381ZM34.7307 102.422C26.6131 97.1645 23.6846 85.3604 28.103 76.0305C32.5729 66.649 42.7969 63.1954 50.9659 68.4016C59.1862 73.6078 62.1661 85.515 57.6449 94.948C53.1237 104.329 42.8997 107.68 34.7307 102.422Z" fill="#F1CA50"/>
<path d="M15.207 57.0103L19.3686 69.3299L22.3998 68.9175L35.3469 83.0412C36.4258 84.2268 38.3268 84.3299 39.5084 83.299L46.0333 77.5773C46.0333 77.5773 35.4496 71.0825 33.9597 66.701C32.4698 62.3711 34.9872 61.8041 34.9872 61.8041L30.5688 55L15.207 57.0103Z" fill="#EE4D4A"/>
<path d="M26.2021 34.6907C26.2021 34.6907 35.039 34.0206 48.7567 24.1752C62.4744 14.3298 70.3865 -0.30934 71.8251 -6.15828e-05C73.2637 0.309217 80.1482 -1.75264 88.5227 26.701C96.8972 55.2061 91.1429 60.67 88.7282 60.2577C86.3135 59.8453 70.4379 52.835 59.957 52.4742C49.476 52.1649 35.3987 55.6185 35.3987 55.6185L26.2021 34.6907Z" fill="#EE4D4A"/>
<path d="M5.90816 46.5468L8.01462 52.5262L8.93941 55.2066C10.2238 58.8664 14.1799 60.9283 17.9304 59.7942L37.1969 56.0829L30.1068 30.1035L10.378 37.2169C6.57606 38.5571 4.57235 42.7839 5.90816 46.5468Z" fill="#EE4D4A"/>
<g opacity="0.4">
<path opacity="0.4" d="M5.90816 46.5468L8.01462 52.5262L8.93941 55.2066C10.2238 58.8664 14.1799 60.9283 17.9304 59.7942L37.1969 56.0829L30.1068 30.1035L10.378 37.2169C6.57606 38.5571 4.57235 42.7839 5.90816 46.5468Z" fill="#163459"/>
</g>
<path d="M87.4433 27.0624C91.8617 42.4748 92.6838 55.7737 89.3443 56.7531C85.9534 57.7325 79.634 46.0315 75.2155 30.6191C70.7971 15.2067 69.9751 1.90774 73.3146 0.928354C76.7569 -0.051028 83.0249 11.65 87.4433 27.0624Z" fill="#EE4D4A"/>
<g opacity="0.5">
<path opacity="0.5" d="M87.4433 27.0624C91.8617 42.4748 92.6838 55.7737 89.3443 56.7531C85.9534 57.7325 79.634 46.0315 75.2155 30.6191C70.7971 15.2067 69.9751 1.90774 73.3146 0.928354C76.7569 -0.051028 83.0249 11.65 87.4433 27.0624Z" fill="#163459"/>
</g>
<path d="M3.18537 54.3817L8.37446 53.557L6.16524 47.2168L2.10645 49.0209L3.18537 54.3817Z" fill="#EE4D4A"/>
<g opacity="0.6">
<path opacity="0.6" d="M6.16514 47.2168L8.37436 53.557L7.29544 53.7116L5.65137 47.423L6.16514 47.2168Z" fill="#163459"/>
</g>
<path d="M74.6504 21.907C74.6504 21.907 82.768 18.3503 85.3368 29.0204C87.9571 39.6905 79.8909 40.2059 79.8909 40.2059C77.4248 34.7936 75.6779 28.7111 74.6504 21.907Z" fill="#F1CA50"/>
<path d="M117.962 65.2057L10.1213 62.2675C4.57257 62.1129 0 66.649 0 72.3191V93.9685C0 99.6902 4.57257 104.175 10.1727 103.969L118.013 99.9995C121.867 99.8448 124.898 95.9789 124.898 91.3397V73.7624C124.898 69.1232 121.815 65.3087 117.962 65.2057Z" fill="#163459"/>
<path d="M10.1722 102.629C5.34276 102.783 1.38672 98.9172 1.38672 93.9688V72.3193C1.38672 67.3708 5.34276 63.4533 10.1722 63.6079L118.013 66.2884C121.352 66.3914 123.973 69.6904 123.973 73.7626V91.3914C123.973 95.4121 121.301 98.7626 118.013 98.9172L10.1722 102.629Z" fill="white"/>
<path d="M23.6849 72.1645L26.6134 78.4016C26.7161 78.6078 26.9216 78.814 27.1785 78.814L33.6007 79.7934C34.2172 79.8965 34.4227 80.6697 34.0117 81.082L29.3877 85.8759C29.2336 86.0305 29.1309 86.2882 29.1822 86.546L30.2612 93.2985C30.3639 93.9171 29.7474 94.4326 29.1822 94.1233L23.3252 91.0305C23.1197 90.9274 22.8628 90.9274 22.6059 91.0305L16.6462 94.381C16.081 94.6903 15.4131 94.2264 15.5159 93.5563L16.6462 86.6491C16.6976 86.3913 16.5948 86.1336 16.4407 85.979L11.5599 81.082C11.0975 80.6181 11.3543 79.8449 11.9709 79.7418L18.7013 78.7625C18.9582 78.7109 19.1637 78.5563 19.2664 78.3501L22.2463 72.1645C22.6059 71.5975 23.428 71.5975 23.6849 72.1645Z" fill="#5C9EDC"/>
<path d="M47.4209 72.4737L50.1439 78.4531C50.2466 78.6593 50.4522 78.8139 50.6577 78.8655L56.6174 79.8448C57.1826 79.9479 57.3881 80.6696 56.9771 81.082L52.6614 85.7211C52.5072 85.8758 52.4045 86.1335 52.4559 86.3912L53.4834 92.8861C53.5862 93.5046 52.9696 93.9686 52.5072 93.7108L47.1126 90.7211C46.9071 90.618 46.6502 90.618 46.4447 90.7211L40.896 93.9686C40.3822 94.2778 39.7657 93.8139 39.8685 93.1954L40.9474 86.5459C40.9987 86.2881 40.896 86.0304 40.7419 85.8758L36.2207 81.1851C35.8097 80.7211 36.0152 79.9479 36.6317 79.8964L42.8997 78.917C43.1052 78.8655 43.3107 78.7108 43.4135 78.5046L46.1878 72.5253C46.4447 71.9067 47.164 71.9067 47.4209 72.4737Z" fill="#F1CA50"/>
<path d="M69.4621 72.7317L71.9796 78.5048C72.0823 78.711 72.2364 78.8657 72.442 78.9172L77.9907 79.845C78.5045 79.9481 78.71 80.6698 78.3503 81.0822L74.3429 85.5152C74.1888 85.6698 74.1374 85.9275 74.1374 86.1337L75.1136 92.3708C75.2163 92.9378 74.6512 93.4018 74.1888 93.144L69.1538 90.2574C68.9483 90.1543 68.7428 90.1543 68.5373 90.2574L63.3996 93.3502C62.9372 93.6595 62.372 93.1956 62.4234 92.577L63.3996 86.1853C63.4509 85.9275 63.3482 85.7213 63.1941 85.5152L58.9811 80.9791C58.5701 80.5667 58.827 79.7935 59.3408 79.742L65.1464 78.8141C65.3519 78.7626 65.5574 78.6079 65.6602 78.4018L68.229 72.6286C68.5887 72.1646 69.2566 72.2162 69.4621 72.7317Z" fill="#F1CA50"/>
<path d="M90.0127 72.9891L92.3761 78.5561C92.4788 78.7623 92.633 78.917 92.8385 78.917L98.0276 79.7933C98.49 79.8964 98.6955 80.5665 98.3358 80.9788L94.5853 85.2572C94.4312 85.4118 94.3798 85.6696 94.4312 85.8757L95.3046 91.9067C95.4073 92.4737 94.8936 92.9376 94.4312 92.6799L89.7559 89.8964C89.6017 89.7933 89.3448 89.7933 89.1907 89.8964L84.4126 92.8861C83.9502 93.1438 83.4365 92.7314 83.5392 92.1644L84.464 85.9788C84.5154 85.7727 84.4126 85.5149 84.3099 85.3603L80.3538 80.9788C79.9942 80.5665 80.1997 79.8448 80.7135 79.7933L86.1081 78.917C86.3136 78.8654 86.4677 78.7623 86.5705 78.5561L88.9338 72.9891C89.1393 72.4737 89.8072 72.4737 90.0127 72.9891Z" fill="#5C9EDC"/>
<path d="M109.176 73.1955L111.385 78.5563C111.488 78.7625 111.642 78.9171 111.796 78.9171L116.626 79.7934C117.088 79.8965 117.242 80.5666 116.934 80.9274L113.44 85.1027C113.286 85.2573 113.235 85.4635 113.286 85.7213L114.108 91.546C114.211 92.113 113.697 92.5254 113.286 92.2677L108.919 89.5872C108.765 89.4842 108.56 89.4842 108.405 89.5872L103.936 92.4738C103.525 92.7316 103.011 92.3192 103.114 91.7522L103.987 85.7728C104.038 85.5666 103.936 85.3089 103.833 85.1543L100.185 80.9274C99.8255 80.5151 100.031 79.845 100.493 79.7419L105.528 78.8656C105.734 78.814 105.888 78.711 105.939 78.5048L108.149 73.1439C108.354 72.7316 108.971 72.7316 109.176 73.1955Z" fill="#5C9EDC"/>
<path d="M23.6849 72.1645L26.6134 78.4016C26.7161 78.6078 26.9216 78.814 27.1785 78.814L33.6007 79.7934C34.2172 79.8965 34.4227 80.6697 34.0117 81.082L29.3877 85.8759C29.2336 86.0305 29.1309 86.2882 29.1822 86.546L30.2612 93.2985C30.3639 93.9171 29.7474 94.4326 29.1822 94.1233L23.3252 91.0305C23.1197 90.9274 22.8628 90.9274 22.6059 91.0305L16.6462 94.381C16.081 94.6903 15.4131 94.2264 15.5159 93.5563L16.6462 86.6491C16.6976 86.3913 16.5948 86.1336 16.4407 85.979L11.5599 81.082C11.0975 80.6181 11.3543 79.8449 11.9709 79.7418L18.7013 78.7625C18.9582 78.7109 19.1637 78.5563 19.2664 78.3501L22.2463 72.1645C22.6059 71.5975 23.428 71.5975 23.6849 72.1645Z" fill="#F1CA50"/>
</svg>
