<svg width="121" height="91" viewBox="0 0 121 91" fill="none" xmlns="http://www.w3.org/2000/svg">
<path d="M92.8036 58.1561L60.1221 15.6421C56.6025 13.7427 42.9154 10.2232 32.7478 20.4466L20.3456 32.8488C14.2004 38.9941 14.2004 48.994 20.3456 55.1392L28.8372 63.6308L67.0494 84.4688C69.4517 86.871 73.3064 86.871 75.6528 84.4688L75.7086 84.413C78.1109 82.0108 78.1109 78.1559 75.7086 75.8096L75.3734 75.4745L75.541 75.5862C77.9433 77.9884 81.798 77.9884 84.1444 75.5862L84.2002 75.5303C86.5466 73.1839 86.6025 69.3291 84.2561 66.9828C86.6583 69.2733 90.4572 69.2733 92.8036 66.927L92.8594 66.8711C95.2058 64.413 95.2058 60.5583 92.8036 58.1561Z" fill="#EEB098"/>
<path d="M97.1612 31.9554C94.8148 29.5532 87.8874 22.8494 86.2115 21.0058C75.988 10.7824 62.245 14.3019 58.7813 16.2572L43.1389 23.0728C39.4518 24.8605 37.9434 29.2739 39.7311 32.9051C41.5188 36.5923 45.9322 38.1007 49.5635 36.313L58.502 32.3465C58.5579 32.4023 63.6417 35.0839 69.8986 35.1398L92.8595 58.1007C93.474 58.7152 93.9209 59.3856 94.2003 60.1677L97.1612 57.2068C104.144 50.2794 104.144 38.9387 97.1612 31.9554Z" fill="#FDDCCF"/>
<path d="M27.1052 68.1566C24.6471 65.6985 24.6471 61.8438 27.0494 59.4974L30.6806 55.8661C33.0829 53.4639 36.9376 53.4639 39.284 55.8661L39.3398 55.922C41.7421 58.3243 41.7421 62.179 39.3398 64.5253L35.7086 68.1566C33.3063 70.5588 29.4516 70.5588 27.1052 68.1566Z" fill="#FDDCCF"/>
<path d="M36.4911 76.1456C34.033 73.6875 34.033 69.8327 36.4352 67.4864L43.7537 60.1679C46.1559 57.7657 50.0106 57.7657 52.357 60.1679L52.4129 60.2238C54.8151 62.626 54.8151 66.4807 52.4129 68.8271L45.0944 76.1456C42.6922 78.5478 38.8375 78.5478 36.4911 76.1456Z" fill="#FDDCCF"/>
<path d="M47.2169 82.7372C44.7588 80.2791 44.7588 76.4243 47.1611 74.078L50.7923 70.4467C53.1946 68.0445 57.0493 68.0445 59.3957 70.4467L59.4515 70.5025C61.8538 72.9047 61.8538 76.7595 59.4515 79.1059L55.8203 82.7372C53.4739 85.1394 49.6191 85.1394 47.2169 82.7372Z" fill="#FDDCCF"/>
<path d="M58.8374 88.4919C56.3793 86.0338 56.3793 82.1791 58.7816 79.8327L59.005 79.6093C61.4073 77.2071 65.262 77.2071 67.6084 79.6093L67.6642 79.6652C70.0665 82.0674 70.0665 85.9221 67.6642 88.2685L67.4408 88.4919C65.0944 90.8383 61.2397 90.8383 58.8374 88.4919Z" fill="#FDDCCF"/>
<path d="M41.1279 16.8154L16.3794 41.5639C13.4743 44.4689 8.72574 44.4689 5.82072 41.5639L2.35704 38.1002C-0.547987 35.1952 -0.547987 30.4466 2.35704 27.5416L27.1056 2.79302C30.0106 -0.111998 34.7592 -0.111998 37.6642 2.79302L41.1279 6.25668C44.0329 9.1617 44.0329 13.9104 41.1279 16.8154Z" fill="#EE4D4A"/>
<path d="M103.977 40.7821L79.3962 16.2011C76.4912 13.2961 76.4912 8.54758 79.3962 5.64256L82.8599 2.17877C85.7649 -0.726256 90.5135 -0.726256 93.4185 2.17877L117.999 26.7597C120.905 29.6648 120.905 34.4134 117.999 37.3185L114.536 40.7821C111.631 43.743 106.938 43.743 103.977 40.7821Z" fill="#F0CA50"/>
</svg>
