<svg width="119" height="120" viewBox="0 0 119 120" fill="none" xmlns="http://www.w3.org/2000/svg">
<g clip-path="url(#clip0_42_572)">
<path d="M61.8021 52.1025L68.0035 35.9894L49.9823 51.9964L53.9576 57.9858L61.8021 52.1025Z" fill="#5C9EDC"/>
<path d="M18.0212 16.007H38.0035C38.0035 10.4946 33.4982 5.98932 27.9859 6.04233C26.7668 6.04233 25.6007 6.25434 24.4346 6.67837C19.2933 0.900984 10.4417 0.423953 4.66431 5.56529C1.69611 8.21547 0 12.0317 0 16.007H18.0212Z" fill="white"/>
<path d="M74.0459 36.0424C79.5785 36.0424 84.0636 31.5574 84.0636 26.0247C84.0636 20.4921 79.5785 16.0071 74.0459 16.0071C68.5133 16.0071 64.0283 20.4921 64.0283 26.0247C64.0283 31.5574 68.5133 36.0424 74.0459 36.0424Z" fill="#5C9EDC"/>
<path d="M86.6608 55.4417L78.0212 54.0106L80.0353 43.9929H100.018V35.9894H68.0035L61.8021 52.1025C60.212 56.2367 62.2792 60.848 66.4134 62.4381C67.1025 62.7032 67.8445 62.8622 68.5866 62.9152L80.0353 63.9752V75.954H90.053V59.3639C90 57.4558 88.6219 55.7597 86.6608 55.4417Z" fill="#5C9EDC"/>
<path d="M100.018 2.01416V18.0212L116.025 10.0177L100.018 2.01416Z" fill="#EE4D4A"/>
<path d="M24.0106 56.0247C29.5432 56.0247 34.0283 51.5396 34.0283 46.007C34.0283 40.4744 29.5432 35.9894 24.0106 35.9894C18.478 35.9894 13.993 40.4744 13.993 46.007C13.993 51.5396 18.478 56.0247 24.0106 56.0247Z" fill="#5C9EDC"/>
<path d="M36.6784 75.477L28.0389 74.0459L30.053 66.0424H40.0707L54.0636 58.0388L50.0883 52.0494L38.1095 58.0388L26.1307 56.0247H18.0212L11.8198 72.1378C10.2297 76.2721 12.2968 80.8834 16.4311 82.4735C17.1201 82.7385 17.8622 82.8975 18.6042 82.9505L30.053 84.0106V95.9894H40.0707V79.3463C40.0177 77.4381 38.5866 75.795 36.6784 75.477Z" fill="#5C9EDC"/>
<path d="M0 120V117.986L26.0247 111.996V95.9894H58.0389L76.0601 76.0071H118.092V120H0Z" fill="#F1CA50"/>
<path d="M64.6643 60.6891L58.6749 70.7067L50.6714 78.7103L56.6608 84.6997L66.6785 74.682L74.682 62.7032L64.6643 60.6891Z" fill="#5C9EDC"/>
<path d="M14.47 80.9364L8.48058 90.9541L0.424042 98.9046L6.41344 104.894L16.4311 94.9293L24.4346 82.9505L14.47 80.9364Z" fill="#5C9EDC"/>
<path d="M98.0035 38.0035V42.0318V38.0035ZM117.827 9.06356C117.615 8.69254 117.35 8.37451 116.979 8.2155L100.919 0.21197C99.9117 -0.265062 98.7456 0.105963 98.2156 1.11303C98.0565 1.37805 98.0035 1.69607 98.0035 2.01409V58.0388H101.979V19.2402L116.873 11.7667C117.933 11.2897 118.304 10.0706 117.827 9.06356ZM102.032 14.7349V5.1943L111.572 9.96462L102.032 14.7349Z" fill="#EE4D4A"/>
</g>
<defs>
<clipPath id="clip0_42_572">
<rect width="118.039" height="120" fill="white"/>
</clipPath>
</defs>
</svg>
