<svg width="96" height="52" viewBox="0 0 96 52" fill="none" xmlns="http://www.w3.org/2000/svg">
<path d="M83.9997 27.1724C83.9997 27.1724 80.4135 38.8964 72.1377 39.8619C72.1377 39.8619 81.379 42.6206 83.9997 51.9998C83.9997 51.9998 85.7928 44.1378 95.31 39.5861C95.31 39.5861 88.1376 39.862 83.9997 27.1724Z" fill="#F0CA50"/>
<path d="M8.5517 7.03467C8.5517 7.03467 3.72412 11.1726 0 9.24156C0.924917 10.4114 1.55754 11.7849 1.8454 13.2482C2.13325 14.7115 2.06806 16.2223 1.65518 17.6553C2.81668 16.7571 4.15179 16.1095 5.57623 15.7534C7.00066 15.3973 8.48347 15.3404 9.931 15.5864C9.931 15.5864 6.7586 13.6553 8.5517 7.03467Z" fill="#F0CA50"/>
<path d="M57.2413 0L19.0346 37.3791C16.276 40.8274 16.8278 45.3791 19.1726 47.448C21.5174 49.517 27.3105 48.9653 29.9311 44.5515L57.2413 0Z" fill="#EE4D4A"/>
<path d="M23.7238 46.4823C26.1615 46.4823 28.1376 44.5062 28.1376 42.0685C28.1376 39.6309 26.1615 37.6548 23.7238 37.6548C21.2862 37.6548 19.3101 39.6309 19.3101 42.0685C19.3101 44.5062 21.2862 46.4823 23.7238 46.4823Z" fill="white"/>
</svg>
