<svg width="93" height="186" viewBox="0 0 93 186" fill="none" xmlns="http://www.w3.org/2000/svg">
<g opacity="0.2">
<path d="M92.4963 93.248C92.4963 144.195 51.1954 185.496 0.248147 185.496C-50.6991 185.496 -92 144.195 -92 93.248C-92 42.3008 -50.6991 0.999876 0.248138 0.999874C51.1954 0.999871 92.4963 42.3007 92.4963 93.248Z" stroke="#545A5C" stroke-miterlimit="10"/>
<path d="M73.2443 93.2474C73.2442 78.6922 68.9401 64.4646 60.8772 52.3664C52.8143 40.2682 41.3554 30.8437 27.9517 25.2868C14.548 19.7298 -0.197389 18.2903 -14.4168 21.1506C-28.6363 24.0109 -41.6901 31.0423 -51.9249 41.3543C-62.1596 51.6662 -69.1149 64.7947 -71.9097 79.077C-74.7046 93.3593 -73.2134 108.153 -67.6248 121.584C-62.0362 135.015 -52.6018 146.479 -40.5165 154.525C-28.4312 162.57 -14.2387 166.835 0.263442 166.778C19.6451 166.703 38.2075 158.923 51.886 145.142C65.5645 131.36 73.2444 112.7 73.2443 93.2474V93.2474Z" stroke="#545A5C" stroke-miterlimit="10"/>
<path d="M53.9919 93.2473C53.9918 82.4998 50.8168 71.9943 44.8693 63.062C38.9218 54.1298 30.4697 47.173 20.5839 43.0732C10.698 38.9734 -0.176352 37.9152 -10.6612 40.0327C-21.1461 42.1502 -30.7694 47.3481 -38.3117 54.9677C-45.854 62.5873 -50.9756 72.2855 -53.0277 82.8333C-55.0797 93.3811 -53.9696 104.304 -49.8382 114.217C-45.7068 124.13 -38.74 132.587 -29.8208 138.517C-20.9015 144.447 -10.4312 147.583 0.26315 147.527C7.34277 147.527 14.3526 146.121 20.8898 143.389C27.427 140.658 33.3625 136.656 38.3554 131.612C43.3483 126.567 47.3001 120.582 49.9835 113.998C52.667 107.414 54.0292 100.362 53.9919 93.2473V93.2473Z" stroke="#545A5C" stroke-miterlimit="10"/>
<path d="M34.7418 93.2461C34.7416 86.3062 32.6957 79.5229 28.8637 73.7566C25.0316 67.9903 19.5861 63.5011 13.2181 60.8585C6.85014 58.2159 -0.153273 57.5391 -6.90357 58.9139C-13.6539 60.2887 -19.8469 63.6532 -24.6966 68.5804C-29.5464 73.5076 -32.8344 79.7755 -34.1435 86.5888C-35.4526 93.4022 -34.7239 100.454 -32.0496 106.849C-29.3754 113.244 -24.8762 118.695 -19.123 122.509C-13.3697 126.324 -6.62168 128.33 0.264879 128.274C4.81634 128.274 9.3228 127.366 13.5243 125.602C17.7257 123.838 21.539 121.254 24.7442 117.997C27.9494 114.741 30.4831 110.877 32.199 106.629C33.9149 102.381 34.7791 97.8325 34.7418 93.2461Z" stroke="#545A5C" stroke-miterlimit="10"/>
</g>
<path d="M25.4511 154.975C25.4511 154.975 29.2802 160.995 34.0024 160.234C34.0024 160.234 29.3036 163.244 29.3208 168.91C29.3208 168.91 27.0308 164.774 20.9736 163.715C20.9736 163.715 25.0995 162.711 25.4511 154.975Z" fill="#8EC6D8"/>
<path d="M69.1364 86.4033C69.1364 86.4033 71.6748 79.8569 68.2857 76.6113C68.2857 76.6113 73.4524 78.512 77.9549 75.1571C77.9549 75.1571 76.0097 79.3884 78.7363 84.7516C78.7363 84.7516 75.505 82.116 69.1364 86.4033Z" fill="#EE4D4A"/>
<path d="M43.5441 175.701L42.9297 170.066L48.5645 169.452L49.1788 175.087L43.5441 175.701Z" fill="#F0CA50"/>
</svg>
