<svg width="136" height="135" viewBox="0 0 136 135" fill="none" xmlns="http://www.w3.org/2000/svg">
<circle cx="67.6294" cy="67.479" r="65.979" fill="white" stroke="#5C9EDC" stroke-width="3"/>
<path d="M55.628 64.8716C53.9853 64.3987 52.3426 64.1587 50.7447 64.1587C48.2771 64.1587 46.2181 64.7226 44.6215 65.4131C46.1607 59.7784 49.8582 50.0556 57.2239 48.9607C57.906 48.8593 58.465 48.3661 58.6511 47.7021L60.261 41.9442C60.3967 41.4572 60.3162 40.936 60.0385 40.5134C59.7607 40.0909 59.3144 39.8089 58.8141 39.7404C58.2705 39.6662 57.7164 39.6284 57.1672 39.6284C48.3261 39.6284 39.5702 48.8565 35.8755 62.0696C33.7067 69.8215 33.0707 81.4759 38.413 88.8114C41.4025 92.9161 45.764 95.1081 51.3764 95.3271C51.3995 95.3278 51.4219 95.3285 51.445 95.3285C58.3699 95.3285 64.5105 90.6648 66.3785 83.9882C67.4944 79.9969 66.99 75.811 64.9569 72.1988C62.9454 68.6272 59.6327 66.0239 55.628 64.8716Z" fill="#5C9EDC"/>
<path d="M98.9763 72.1998C96.9648 68.6275 93.6521 66.0242 89.6474 64.8719C88.0047 64.3989 86.362 64.159 84.7647 64.159C82.2972 64.159 80.2375 64.7229 78.6409 65.4134C80.1801 59.7786 83.8776 50.0559 91.244 48.961C91.9261 48.8595 92.4844 48.3663 92.6712 47.7023L94.2811 41.9444C94.4168 41.4575 94.3363 40.9363 94.0586 40.5137C93.7815 40.0911 93.3352 39.8092 92.8342 39.7406C92.2913 39.6664 91.7372 39.6287 91.1873 39.6287C82.3461 39.6287 73.5903 48.8567 69.8949 62.0699C67.7267 69.8217 67.0908 81.4761 72.4338 88.8131C75.4226 92.9171 79.7848 95.1097 85.3965 95.328C85.4196 95.3287 85.442 95.3294 85.4658 95.3294C92.39 95.3294 98.5313 90.6657 100.399 83.9892C101.514 79.9978 101.009 75.8112 98.9763 72.1998Z" fill="#5C9EDC"/>
</svg>
