<svg width="167" height="113" viewBox="0 0 167 113" fill="none" xmlns="http://www.w3.org/2000/svg">
<path opacity="0.6" d="M113.599 0H99.2012V112.104H113.599V0Z" fill="#ADC9EA"/>
<path opacity="0.6" d="M93.497 34.1924H79.0996V112.103H93.497V34.1924Z" fill="#ADC9EA"/>
<path opacity="0.6" d="M133.995 24.291H119.598V112.111H133.995V24.291Z" fill="#ADC9EA"/>
<path opacity="0.6" d="M73.3877 20.8369H58.9902V112.104H73.3877V20.8369Z" fill="#ADC9EA"/>
<path opacity="0.6" d="M53.2861 47.8955H38.8887V112.104H53.2861V47.8955Z" fill="#ADC9EA"/>
<path d="M113.599 25.8379H99.2012V112.104H113.599V25.8379Z" fill="#5C9EDC"/>
<path d="M93.497 52.1523H79.0996V112.103H93.497V52.1523Z" fill="#5C9EDC"/>
<path d="M133.995 44.5283H119.598V112.104H133.995V44.5283Z" fill="#5C9EDC"/>
<path d="M73.3877 41.8682H58.9902V112.104H73.3877V41.8682Z" fill="#5C9EDC"/>
<path d="M53.2861 62.6973H38.8887V112.111H53.2861V62.6973Z" fill="#5C9EDC"/>
<path d="M140.992 0.860352L129.519 9.58379L133.902 9.86566L106.515 58.3541L91.3487 35.4867L69.9034 85.8181L56.1023 66.1019L38.9102 90.5593L39.9878 94.9319L56.0951 72.1367L70.6793 92.9805L92.0527 42.8297L106.766 65.0178L137.084 11.34L139.9 14.3828L140.992 0.860352Z" fill="#EE4D4A"/>
<path d="M25.8134 66.9689C25.7847 67.5109 25.3752 67.9301 24.901 67.9084C24.4268 67.8795 24.0676 67.417 24.0963 66.8749C24.1251 66.3329 24.5346 65.9137 25.0087 65.9354C25.4901 65.9571 25.8493 66.4268 25.8134 66.9689Z" fill="white"/>
<path d="M167 111.742H0V112.993H167V111.742Z" fill="#0E2E35"/>
<path d="M21 96.6738H48.6973V91.1108H21V96.6738Z" fill="#F1CA50"/>
<path d="M21.0127 91.1332C21.0127 91.1999 27.2011 91.2665 34.8279 91.2665C42.4546 91.2665 48.643 91.1999 48.643 91.1332C48.643 91.0666 42.4546 91 34.8279 91C27.2011 91 21.0127 91.0666 21.0127 91.1332Z" fill="#163459"/>
<path d="M134.848 94.8101L158.803 80.9072L156.01 76.0958L132.055 89.9986L134.848 94.8101Z" fill="#F1CA50"/>
<path d="M132.078 90.0127C132.111 90.0703 137.497 87.0216 144.093 83.1933C150.689 79.365 156.008 76.2011 155.975 76.1435C155.941 76.0858 150.556 79.1345 143.959 82.9628C137.363 86.7912 132.044 89.9551 132.078 90.0127Z" fill="#163459"/>
<path d="M117.001 71.3942L143.332 79.9844L145.057 74.6956L118.726 66.1055L117.001 71.3942Z" fill="#F1CA50"/>
<path d="M118.73 66.1306C118.709 66.1939 124.572 68.1766 131.823 70.542C139.073 72.9074 144.977 74.7633 144.998 74.7C145.019 74.6367 139.156 72.654 131.905 70.2886C124.655 67.9232 118.751 66.0672 118.73 66.1306Z" fill="#163459"/>
<path d="M21 101.674H48.6973V96.1108H21V101.674Z" fill="#F1CA50"/>
<path d="M21.0127 96.1332C21.0127 96.1999 27.2011 96.2665 34.8279 96.2665C42.4546 96.2665 48.643 96.1999 48.643 96.1332C48.643 96.0666 42.4546 96 34.8279 96C27.2011 96 21.0127 96.0666 21.0127 96.1332Z" fill="#163459"/>
<path d="M124 101.674H151.697V96.1108H124V101.674Z" fill="#F1CA50"/>
<path d="M124.013 96.1332C124.013 96.1999 130.201 96.2665 137.828 96.2665C145.455 96.2665 151.643 96.1999 151.643 96.1332C151.643 96.0666 145.455 96 137.828 96C130.201 96 124.013 96.0666 124.013 96.1332Z" fill="#163459"/>
<path d="M21 106.674H48.6973V101.111H21V106.674Z" fill="#F1CA50"/>
<path d="M21.0127 101.133C21.0127 101.2 27.2011 101.266 34.8279 101.266C42.4546 101.266 48.643 101.2 48.643 101.133C48.643 101.067 42.4546 101 34.8279 101C27.2011 101 21.0127 101.067 21.0127 101.133Z" fill="#163459"/>
<path d="M124 106.674H151.697V101.111H124V106.674Z" fill="#F1CA50"/>
<path d="M124.013 101.133C124.013 101.2 130.201 101.266 137.828 101.266C145.455 101.266 151.643 101.2 151.643 101.133C151.643 101.067 145.455 101 137.828 101C130.201 101 124.013 101.067 124.013 101.133Z" fill="#163459"/>
<path d="M21 111.674H48.6973V106.111H21V111.674Z" fill="#F1CA50"/>
<path d="M21.0127 106.133C21.0127 106.2 27.2011 106.266 34.8279 106.266C42.4546 106.266 48.643 106.2 48.643 106.133C48.643 106.067 42.4546 106 34.8279 106C27.2011 106 21.0127 106.067 21.0127 106.133Z" fill="#163459"/>
<path d="M124 111.674H151.697V106.111H124V111.674Z" fill="#F1CA50"/>
<path d="M124.013 106.133C124.013 106.2 130.201 106.266 137.828 106.266C145.455 106.266 151.643 106.2 151.643 106.133C151.643 106.067 145.455 106 137.828 106C130.201 106 124.013 106.067 124.013 106.133Z" fill="#163459"/>
</svg>
