<svg width="20" height="20" viewBox="0 0 20 20" fill="none" xmlns="http://www.w3.org/2000/svg">
<path d="M19.0284 13.4319L14.3369 11.4213C14.092 11.3158 13.8245 11.2734 13.559 11.2978C13.2934 11.3222 13.0382 11.4126 12.8165 11.561L10.3081 13.233C8.77505 12.4874 7.53424 11.2521 6.78183 9.7223L6.78202 9.7221L8.44823 7.17613C8.59327 6.9551 8.68126 6.70157 8.70434 6.43822C8.72742 6.17486 8.68486 5.90989 8.58048 5.66701L6.568 0.971516C6.43101 0.652785 6.19446 0.387004 5.89378 0.213966C5.59309 0.0409275 5.24444 -0.0300569 4.90003 0.0116408C3.54668 0.185647 2.30296 0.846399 1.40122 1.87046C0.499471 2.89452 0.0013832 4.21184 0 5.57634C0 13.5296 6.47038 20 14.4237 20C15.7882 19.9986 17.1055 19.5005 18.1296 18.5987C19.1536 17.697 19.8144 16.4532 19.9884 15.0999C20.0299 14.7555 19.9589 14.4069 19.7859 14.1062C19.6128 13.8055 19.3471 13.569 19.0284 13.4319Z" fill="#8EC6D8"/>
<path d="M12.5557 2.34378C13.7782 2.67249 14.8928 3.31669 15.788 4.21183C16.6831 5.10698 17.3273 6.22163 17.656 7.44414C17.7113 7.64905 17.8455 7.82368 18.0293 7.92971C18.2132 8.03575 18.4316 8.06453 18.6366 8.00974C18.8416 7.95494 19.0165 7.82105 19.123 7.63745C19.2294 7.45384 19.2586 7.23551 19.2043 7.03037C18.8024 5.53595 18.0149 4.17336 16.9207 3.07911C15.8264 1.98486 14.4638 1.19737 12.9694 0.795533C12.7643 0.741174 12.546 0.770415 12.3624 0.87684C12.1787 0.983266 12.0449 1.15818 11.9901 1.36321C11.9353 1.56823 11.964 1.78662 12.0701 1.97045C12.1761 2.15429 12.3508 2.28855 12.5557 2.34377L12.5557 2.34378Z" fill="#8EC6D8"/>
<path d="M11.7256 5.4407C12.4047 5.62332 13.0239 5.98119 13.5212 6.47846C14.0185 6.97573 14.3763 7.59494 14.5589 8.27406C14.6142 8.47897 14.7484 8.6536 14.9323 8.75964C15.1161 8.86567 15.3345 8.89445 15.5395 8.83966C15.7445 8.78487 15.9195 8.65098 16.0259 8.46737C16.1323 8.28376 16.1615 8.06544 16.1072 7.86029C15.8515 6.90924 15.3503 6.04209 14.6539 5.34571C13.9576 4.64933 13.0904 4.14817 12.1393 3.89246C11.9342 3.8381 11.7159 3.86734 11.5323 3.97376C11.3487 4.08019 11.2148 4.25511 11.16 4.46013C11.1052 4.66516 11.134 4.88355 11.24 5.06738C11.346 5.25121 11.5207 5.38547 11.7256 5.4407L11.7256 5.4407Z" fill="#8EC6D8"/>
</svg>
