<svg width="17" height="17" viewBox="0 0 17 17" fill="none" xmlns="http://www.w3.org/2000/svg">
<path d="M15.7227 11.2455L11.9695 9.63702C11.7736 9.55266 11.5596 9.5187 11.3472 9.53821C11.1347 9.55773 10.9305 9.63012 10.7532 9.74877L8.7465 11.0864C7.52004 10.4899 6.52739 9.50164 5.92546 8.27784L5.92562 8.27768L7.25859 6.2409C7.37461 6.06408 7.44501 5.86126 7.46347 5.65057C7.48193 5.43989 7.44789 5.22791 7.36439 5.03361L5.7544 1.27721C5.64481 1.02223 5.45557 0.809603 5.21502 0.671173C4.97447 0.532742 4.69555 0.475954 4.42003 0.509313C3.33734 0.648518 2.34237 1.17712 1.62097 1.99637C0.899577 2.81562 0.501107 3.86947 0.5 4.96107C0.5 11.3237 5.67631 16.5 12.0389 16.5C13.1305 16.4989 14.1844 16.1004 15.0037 15.379C15.8229 14.6576 16.3515 13.6626 16.4907 12.5799C16.524 12.3044 16.4671 12.0255 16.3287 11.7849C16.1903 11.5444 15.9777 11.3552 15.7227 11.2455Z" fill="#163459"/>
</svg>
