<svg width="164" height="347" viewBox="0 0 164 347" fill="none" xmlns="http://www.w3.org/2000/svg">
<g opacity="0.2">
<path d="M0.999992 173.5C0.999988 268.769 78.2309 346 173.5 346C268.769 346 346 268.769 346 173.5C346 78.2308 268.769 0.999997 173.5 0.999992C78.2309 0.999988 0.999997 78.2308 0.999992 173.5Z" stroke="#545A5C" stroke-miterlimit="10"/>
<path d="M37 173.499C37.0002 146.281 45.0486 119.676 60.1259 97.0533C75.2032 74.4301 96.6309 56.8068 121.695 46.4156C146.76 36.0243 174.333 33.3326 200.922 38.6812C227.512 44.0298 251.922 57.1782 271.061 76.4611C290.199 95.744 303.205 120.294 308.432 147.001C313.658 173.708 310.869 201.371 300.419 226.487C289.969 251.602 272.327 273.04 249.728 288.085C227.129 303.129 200.589 311.104 173.471 310.999C137.228 310.859 102.517 296.31 76.9391 270.539C51.3609 244.768 36.9997 209.874 37 173.499V173.499Z" stroke="#545A5C" stroke-miterlimit="10"/>
<path d="M73.0014 173.499C73.0017 153.401 78.9388 133.756 90.0603 117.053C101.182 100.35 116.987 87.3415 135.473 79.6751C153.959 72.0087 174.294 70.0299 193.9 73.9896C213.506 77.9492 231.501 87.6691 245.605 101.917C259.709 116.166 269.286 134.301 273.123 154.025C276.96 173.749 274.885 194.173 267.159 212.711C259.434 231.248 246.406 247.063 229.727 258.152C213.049 269.241 193.47 275.104 173.472 274.999C160.233 274.999 147.125 272.37 134.901 267.262C122.677 262.155 111.577 254.67 102.241 245.238C92.9045 235.806 85.5148 224.612 80.4969 212.301C75.479 199.989 72.9317 186.803 73.0014 173.499V173.499Z" stroke="#545A5C" stroke-miterlimit="10"/>
<path d="M109.002 173.498C109.003 160.521 112.828 147.836 119.994 137.053C127.16 126.271 137.343 117.876 149.251 112.934C161.158 107.993 174.254 106.727 186.877 109.298C199.5 111.869 211.081 118.16 220.15 127.374C229.218 136.588 235.367 148.308 237.815 161.049C240.263 173.79 238.9 186.976 233.899 198.935C228.899 210.894 220.485 221.086 209.727 228.219C198.969 235.352 186.35 239.103 173.473 238.998C164.962 238.998 156.535 237.3 148.678 234.002C140.822 230.704 133.691 225.871 127.697 219.781C121.704 213.692 116.966 206.467 113.757 198.523C110.548 190.58 108.932 182.074 109.002 173.498Z" stroke="#545A5C" stroke-miterlimit="10"/>
</g>
<path d="M126.367 288.927C126.367 288.927 119.206 300.185 110.376 298.761C110.376 298.761 119.163 304.391 119.131 314.985C119.131 314.985 123.413 307.25 134.739 305.271C134.739 305.271 127.024 303.393 126.367 288.927Z" fill="#8EC6D8"/>
<path d="M49.615 130C49.615 130 31.8967 145.154 18 138.106C18 138.106 29.6385 152.203 24.0798 170C24.0798 170 35.1972 159.251 55 161.894C55 161.894 43.1878 154.67 49.615 130Z" fill="#EE4D4A"/>
<path d="M92.5367 327.685L93.6855 317.148L83.1488 316L81.9999 326.536L92.5367 327.685Z" fill="#F0CA50"/>
</svg>
