<svg width="158" height="231" viewBox="0 0 158 231" fill="none" xmlns="http://www.w3.org/2000/svg">
<path d="M127.27 125L127.27 200.167" stroke="#5C9EDC" stroke-width="6" stroke-linecap="round" stroke-linejoin="round"/>
<path d="M98.9367 172.333L127.27 204" stroke="#5C9EDC" stroke-width="6" stroke-linecap="round" stroke-linejoin="round"/>
<path d="M154.603 172.333L127.27 204" stroke="#5C9EDC" stroke-width="6" stroke-linecap="round" stroke-linejoin="round"/>
<g opacity="0.05">
<path opacity="0.64" d="M1.88708e-05 181.395C1.87589e-05 183.955 2.07577 186.031 4.63632 186.031C7.19686 186.031 9.27261 183.955 9.27261 181.395C9.27261 178.834 7.19686 176.759 4.63632 176.759C2.07577 176.759 1.89828e-05 178.834 1.88708e-05 181.395Z" fill="black"/>
<path opacity="0.64" d="M17.0968 181.395C17.0968 183.955 19.1724 186.031 21.733 186.031C24.2935 186.031 26.3693 183.955 26.3693 181.395C26.3693 178.834 24.2935 176.759 21.733 176.759C19.1724 176.759 17.0968 178.834 17.0968 181.395Z" fill="black"/>
<path opacity="0.64" d="M34.1935 181.395C34.1935 183.955 36.2692 186.031 38.8298 186.031C41.3903 186.031 43.466 183.955 43.466 181.395C43.466 178.834 41.3903 176.759 38.8298 176.759C36.2692 176.759 34.1935 178.834 34.1935 181.395Z" fill="black"/>
<path opacity="0.64" d="M51.4346 181.395C51.4346 183.955 53.5103 186.031 56.0709 186.031C58.6314 186.031 60.7072 183.955 60.7072 181.395C60.7072 178.834 58.6314 176.759 56.0709 176.759C53.5103 176.759 51.4346 178.834 51.4346 181.395Z" fill="black"/>
<path opacity="0.64" d="M1.88708e-05 196.318C1.87589e-05 198.878 2.07577 200.954 4.63632 200.954C7.19686 200.954 9.27261 198.878 9.27261 196.318C9.27261 193.757 7.19686 191.682 4.63632 191.682C2.07577 191.682 1.89828e-05 193.757 1.88708e-05 196.318Z" fill="black"/>
<path opacity="0.64" d="M17.0968 196.318C17.0968 198.878 19.1724 200.954 21.733 200.954C24.2935 200.954 26.3693 198.878 26.3693 196.318C26.3693 193.757 24.2935 191.682 21.733 191.682C19.1724 191.682 17.0968 193.757 17.0968 196.318Z" fill="black"/>
<path opacity="0.64" d="M34.1935 196.318C34.1935 198.878 36.2692 200.954 38.8298 200.954C41.3903 200.954 43.466 198.878 43.466 196.318C43.466 193.757 41.3903 191.682 38.8298 191.682C36.2692 191.682 34.1935 193.757 34.1935 196.318Z" fill="black"/>
<path opacity="0.64" d="M51.4346 196.318C51.4346 198.878 53.5103 200.954 56.0709 200.954C58.6314 200.954 60.7072 198.878 60.7072 196.318C60.7072 193.757 58.6314 191.682 56.0709 191.682C53.5103 191.682 51.4346 193.757 51.4346 196.318Z" fill="black"/>
<path opacity="0.64" d="M1.88708e-05 211.241C1.87589e-05 213.801 2.07577 215.877 4.63632 215.877C7.19686 215.877 9.27261 213.801 9.27261 211.241C9.27261 208.68 7.19686 206.604 4.63632 206.604C2.07577 206.604 1.89828e-05 208.68 1.88708e-05 211.241Z" fill="black"/>
<path opacity="0.64" d="M17.0968 211.241C17.0968 213.801 19.1724 215.877 21.733 215.877C24.2935 215.877 26.3693 213.801 26.3693 211.241C26.3693 208.68 24.2935 206.604 21.733 206.604C19.1724 206.604 17.0968 208.68 17.0968 211.241Z" fill="black"/>
<path opacity="0.64" d="M34.1935 211.241C34.1935 213.801 36.2692 215.877 38.8298 215.877C41.3903 215.877 43.466 213.801 43.466 211.241C43.466 208.68 41.3903 206.604 38.8298 206.604C36.2692 206.604 34.1935 208.68 34.1935 211.241Z" fill="black"/>
<path opacity="0.64" d="M51.4346 211.241C51.4346 213.801 53.5103 215.877 56.0709 215.877C58.6314 215.877 60.7072 213.801 60.7072 211.241C60.7072 208.68 58.6314 206.604 56.0709 206.604C53.5103 206.604 51.4346 208.68 51.4346 211.241Z" fill="black"/>
<path opacity="0.64" d="M1.50561e-05 226.164C1.49442e-05 228.724 2.07577 230.8 4.63631 230.8C7.19686 230.8 9.27261 228.724 9.27261 226.164C9.27261 223.603 7.19686 221.527 4.63631 221.527C2.07577 221.527 1.51681e-05 223.603 1.50561e-05 226.164Z" fill="black"/>
<path opacity="0.64" d="M17.0968 226.164C17.0968 228.724 19.1724 230.8 21.733 230.8C24.2935 230.8 26.3693 228.724 26.3693 226.164C26.3693 223.603 24.2935 221.527 21.733 221.527C19.1724 221.527 17.0968 223.603 17.0968 226.164Z" fill="black"/>
<path opacity="0.64" d="M34.1935 226.164C34.1935 228.724 36.2692 230.8 38.8298 230.8C41.3903 230.8 43.466 228.724 43.466 226.164C43.466 223.603 41.3903 221.527 38.8298 221.527C36.2692 221.527 34.1935 223.603 34.1935 226.164Z" fill="black"/>
<path opacity="0.64" d="M51.4346 226.164C51.4346 228.724 53.5103 230.8 56.0709 230.8C58.6314 230.8 60.7072 228.724 60.7072 226.164C60.7072 223.603 58.6314 221.527 56.0709 221.527C53.5103 221.527 51.4346 223.603 51.4346 226.164Z" fill="black"/>
<path opacity="0.64" d="M2.26855e-05 122.282C2.25736e-05 124.843 2.07577 126.919 4.63632 126.919C7.19687 126.919 9.27262 124.843 9.27262 122.282C9.27262 119.722 7.19687 117.646 4.63632 117.646C2.07577 117.646 2.27975e-05 119.722 2.26855e-05 122.282Z" fill="black"/>
<path opacity="0.64" d="M17.0968 122.282C17.0968 124.843 19.1725 126.919 21.733 126.919C24.2935 126.919 26.3693 124.843 26.3693 122.282C26.3693 119.722 24.2935 117.646 21.733 117.646C19.1725 117.646 17.0968 119.722 17.0968 122.282Z" fill="black"/>
<path opacity="0.64" d="M34.1935 122.282C34.1935 124.843 36.2692 126.919 38.8298 126.919C41.3903 126.919 43.466 124.843 43.466 122.282C43.466 119.722 41.3903 117.646 38.8298 117.646C36.2692 117.646 34.1935 119.722 34.1935 122.282Z" fill="black"/>
<path opacity="0.64" d="M51.4346 122.282C51.4346 124.843 53.5103 126.919 56.0709 126.919C58.6314 126.919 60.7072 124.843 60.7072 122.282C60.7072 119.722 58.6314 117.646 56.0709 117.646C53.5103 117.646 51.4346 119.722 51.4346 122.282Z" fill="black"/>
<path opacity="0.64" d="M1.88708e-05 137.205C1.87589e-05 139.766 2.07577 141.842 4.63632 141.842C7.19686 141.842 9.27261 139.766 9.27261 137.205C9.27261 134.645 7.19686 132.569 4.63632 132.569C2.07577 132.569 1.89828e-05 134.645 1.88708e-05 137.205Z" fill="black"/>
<path opacity="0.64" d="M17.0968 137.205C17.0968 139.766 19.1724 141.842 21.733 141.842C24.2935 141.842 26.3693 139.766 26.3693 137.205C26.3693 134.645 24.2935 132.569 21.733 132.569C19.1724 132.569 17.0968 134.645 17.0968 137.205Z" fill="black"/>
<path opacity="0.64" d="M34.1935 137.205C34.1935 139.766 36.2692 141.842 38.8298 141.842C41.3903 141.842 43.466 139.766 43.466 137.205C43.466 134.645 41.3903 132.569 38.8298 132.569C36.2692 132.569 34.1935 134.645 34.1935 137.205Z" fill="black"/>
<path opacity="0.64" d="M51.4346 137.205C51.4346 139.766 53.5103 141.842 56.0709 141.842C58.6314 141.842 60.7072 139.766 60.7072 137.205C60.7072 134.645 58.6314 132.569 56.0709 132.569C53.5103 132.569 51.4346 134.645 51.4346 137.205Z" fill="black"/>
<path opacity="0.64" d="M1.88708e-05 151.983C1.87589e-05 154.544 2.07577 156.62 4.63632 156.62C7.19686 156.62 9.27261 154.544 9.27261 151.983C9.27261 149.423 7.19686 147.347 4.63632 147.347C2.07577 147.347 1.89828e-05 149.423 1.88708e-05 151.983Z" fill="black"/>
<path opacity="0.64" d="M17.0968 151.983C17.0968 154.544 19.1724 156.62 21.733 156.62C24.2935 156.62 26.3693 154.544 26.3693 151.983C26.3693 149.423 24.2935 147.347 21.733 147.347C19.1724 147.347 17.0968 149.423 17.0968 151.983Z" fill="black"/>
<path opacity="0.64" d="M34.1935 151.983C34.1935 154.544 36.2692 156.619 38.8298 156.619C41.3903 156.619 43.466 154.544 43.466 151.983C43.466 149.423 41.3903 147.347 38.8298 147.347C36.2692 147.347 34.1935 149.423 34.1935 151.983Z" fill="black"/>
<path opacity="0.64" d="M51.4346 151.983C51.4346 154.544 53.5103 156.619 56.0709 156.619C58.6314 156.619 60.7072 154.544 60.7072 151.983C60.7072 149.423 58.6314 147.347 56.0709 147.347C53.5103 147.347 51.4346 149.423 51.4346 151.983Z" fill="black"/>
<path opacity="0.64" d="M1.88708e-05 166.907C1.87589e-05 169.467 2.07577 171.543 4.63632 171.543C7.19686 171.543 9.27261 169.467 9.27261 166.907C9.27261 164.346 7.19686 162.27 4.63632 162.27C2.07577 162.27 1.89828e-05 164.346 1.88708e-05 166.907Z" fill="black"/>
<path opacity="0.64" d="M17.0968 166.907C17.0968 169.467 19.1724 171.543 21.733 171.543C24.2935 171.543 26.3693 169.467 26.3693 166.907C26.3693 164.346 24.2935 162.27 21.733 162.27C19.1724 162.27 17.0968 164.346 17.0968 166.907Z" fill="black"/>
<path opacity="0.64" d="M34.1935 166.906C34.1935 169.467 36.2692 171.543 38.8298 171.543C41.3903 171.543 43.466 169.467 43.466 166.906C43.466 164.346 41.3903 162.27 38.8298 162.27C36.2692 162.27 34.1935 164.346 34.1935 166.906Z" fill="black"/>
<path opacity="0.64" d="M51.4346 166.906C51.4346 169.467 53.5103 171.543 56.0709 171.543C58.6314 171.543 60.7072 169.467 60.7072 166.906C60.7072 164.346 58.6314 162.27 56.0709 162.27C53.5103 162.27 51.4346 164.346 51.4346 166.906Z" fill="black"/>
<path opacity="0.64" d="M66.3575 181.395C66.3575 183.955 68.4332 186.031 70.9937 186.031C73.5543 186.031 75.63 183.955 75.63 181.395C75.63 178.834 73.5543 176.759 70.9937 176.759C68.4332 176.759 66.3575 178.834 66.3575 181.395Z" fill="black"/>
<path opacity="0.64" d="M83.4542 181.395C83.4542 183.955 85.53 186.031 88.0905 186.031C90.6511 186.031 92.7267 183.955 92.7267 181.395C92.7267 178.834 90.6511 176.759 88.0905 176.759C85.53 176.759 83.4542 178.834 83.4542 181.395Z" fill="black"/>
<path opacity="0.64" d="M100.694 181.395C100.694 183.955 102.77 186.031 105.331 186.031C107.891 186.031 109.967 183.955 109.967 181.395C109.967 178.834 107.891 176.759 105.331 176.759C102.77 176.759 100.694 178.834 100.694 181.395Z" fill="black"/>
<path opacity="0.64" d="M117.791 181.395C117.791 183.955 119.867 186.031 122.427 186.031C124.988 186.031 127.064 183.955 127.064 181.395C127.064 178.834 124.988 176.758 122.427 176.758C119.867 176.758 117.791 178.834 117.791 181.395Z" fill="black"/>
<path opacity="0.64" d="M66.3575 196.318C66.3575 198.878 68.4332 200.954 70.9937 200.954C73.5543 200.954 75.63 198.878 75.63 196.318C75.63 193.757 73.5543 191.682 70.9937 191.682C68.4332 191.682 66.3575 193.757 66.3575 196.318Z" fill="black"/>
<path opacity="0.64" d="M83.4542 196.318C83.4542 198.878 85.53 200.954 88.0905 200.954C90.6511 200.954 92.7267 198.878 92.7267 196.318C92.7267 193.757 90.6511 191.682 88.0905 191.682C85.53 191.682 83.4542 193.757 83.4542 196.318Z" fill="black"/>
<path opacity="0.64" d="M100.694 196.318C100.694 198.878 102.77 200.954 105.331 200.954C107.891 200.954 109.967 198.878 109.967 196.318C109.967 193.757 107.891 191.682 105.331 191.682C102.77 191.682 100.694 193.757 100.694 196.318Z" fill="black"/>
<path opacity="0.64" d="M117.791 196.318C117.791 198.878 119.867 200.954 122.427 200.954C124.988 200.954 127.064 198.878 127.064 196.318C127.064 193.757 124.988 191.682 122.427 191.682C119.867 191.682 117.791 193.757 117.791 196.318Z" fill="black"/>
<path opacity="0.64" d="M66.3575 211.241C66.3575 213.801 68.4332 215.877 70.9937 215.877C73.5543 215.877 75.63 213.801 75.63 211.241C75.63 208.68 73.5543 206.604 70.9937 206.604C68.4332 206.604 66.3575 208.68 66.3575 211.241Z" fill="black"/>
<path opacity="0.64" d="M83.4542 211.241C83.4542 213.801 85.53 215.877 88.0905 215.877C90.6511 215.877 92.7267 213.801 92.7267 211.241C92.7267 208.68 90.6511 206.604 88.0905 206.604C85.53 206.604 83.4542 208.68 83.4542 211.241Z" fill="black"/>
<path opacity="0.64" d="M100.694 211.241C100.694 213.801 102.77 215.877 105.331 215.877C107.891 215.877 109.967 213.801 109.967 211.241C109.967 208.68 107.891 206.604 105.331 206.604C102.77 206.604 100.694 208.68 100.694 211.241Z" fill="black"/>
<path opacity="0.64" d="M117.791 211.241C117.791 213.801 119.867 215.877 122.427 215.877C124.988 215.877 127.064 213.801 127.064 211.241C127.064 208.68 124.988 206.604 122.427 206.604C119.867 206.604 117.791 208.68 117.791 211.241Z" fill="black"/>
<path opacity="0.64" d="M66.3575 226.164C66.3575 228.724 68.4332 230.8 70.9937 230.8C73.5543 230.8 75.63 228.724 75.63 226.164C75.63 223.603 73.5543 221.527 70.9937 221.527C68.4332 221.527 66.3575 223.603 66.3575 226.164Z" fill="black"/>
<path opacity="0.64" d="M83.4542 226.164C83.4542 228.724 85.53 230.8 88.0905 230.8C90.6511 230.8 92.7267 228.724 92.7267 226.164C92.7267 223.603 90.6511 221.527 88.0905 221.527C85.53 221.527 83.4542 223.603 83.4542 226.164Z" fill="black"/>
<path opacity="0.64" d="M100.694 226.164C100.694 228.724 102.77 230.8 105.331 230.8C107.891 230.8 109.967 228.724 109.967 226.164C109.967 223.603 107.891 221.527 105.331 221.527C102.77 221.527 100.694 223.603 100.694 226.164Z" fill="black"/>
<path opacity="0.64" d="M117.791 226.164C117.791 228.724 119.867 230.8 122.427 230.8C124.988 230.8 127.064 228.724 127.064 226.164C127.064 223.603 124.988 221.527 122.427 221.527C119.867 221.527 117.791 223.603 117.791 226.164Z" fill="black"/>
<path opacity="0.64" d="M66.3575 122.282C66.3575 124.843 68.4332 126.919 70.9937 126.919C73.5543 126.919 75.63 124.843 75.63 122.282C75.63 119.722 73.5543 117.646 70.9937 117.646C68.4332 117.646 66.3575 119.722 66.3575 122.282Z" fill="black"/>
<path opacity="0.64" d="M83.4542 122.282C83.4542 124.843 85.53 126.919 88.0905 126.919C90.6511 126.919 92.7267 124.843 92.7267 122.282C92.7267 119.722 90.6511 117.646 88.0905 117.646C85.53 117.646 83.4542 119.722 83.4542 122.282Z" fill="black"/>
<path opacity="0.64" d="M100.694 122.282C100.694 124.843 102.77 126.919 105.331 126.919C107.891 126.919 109.967 124.843 109.967 122.282C109.967 119.722 107.891 117.646 105.331 117.646C102.77 117.646 100.694 119.722 100.694 122.282Z" fill="black"/>
<path opacity="0.64" d="M117.791 122.282C117.791 124.843 119.867 126.919 122.427 126.919C124.988 126.919 127.064 124.843 127.064 122.282C127.064 119.722 124.988 117.646 122.427 117.646C119.867 117.646 117.791 119.722 117.791 122.282Z" fill="black"/>
<path opacity="0.64" d="M66.3575 137.205C66.3575 139.766 68.4332 141.842 70.9937 141.842C73.5543 141.842 75.63 139.766 75.63 137.205C75.63 134.645 73.5543 132.569 70.9937 132.569C68.4332 132.569 66.3575 134.645 66.3575 137.205Z" fill="black"/>
<path opacity="0.64" d="M83.4542 137.205C83.4542 139.766 85.53 141.842 88.0905 141.842C90.6511 141.842 92.7267 139.766 92.7267 137.205C92.7267 134.645 90.6511 132.569 88.0905 132.569C85.53 132.569 83.4542 134.645 83.4542 137.205Z" fill="black"/>
<path opacity="0.64" d="M100.694 137.205C100.694 139.766 102.77 141.842 105.331 141.842C107.891 141.842 109.967 139.766 109.967 137.205C109.967 134.645 107.891 132.569 105.331 132.569C102.77 132.569 100.694 134.645 100.694 137.205Z" fill="black"/>
<path opacity="0.64" d="M117.791 137.205C117.791 139.766 119.867 141.842 122.427 141.842C124.988 141.842 127.064 139.766 127.064 137.205C127.064 134.645 124.988 132.569 122.427 132.569C119.867 132.569 117.791 134.645 117.791 137.205Z" fill="black"/>
<path opacity="0.64" d="M66.3575 151.983C66.3575 154.544 68.4332 156.619 70.9937 156.619C73.5543 156.619 75.63 154.544 75.63 151.983C75.63 149.423 73.5543 147.347 70.9937 147.347C68.4332 147.347 66.3575 149.423 66.3575 151.983Z" fill="black"/>
<path opacity="0.64" d="M83.4542 151.983C83.4542 154.544 85.53 156.619 88.0905 156.619C90.6511 156.619 92.7267 154.544 92.7267 151.983C92.7267 149.423 90.6511 147.347 88.0905 147.347C85.53 147.347 83.4542 149.423 83.4542 151.983Z" fill="black"/>
<path opacity="0.64" d="M100.694 151.983C100.694 154.544 102.77 156.619 105.331 156.619C107.891 156.619 109.967 154.544 109.967 151.983C109.967 149.423 107.891 147.347 105.331 147.347C102.77 147.347 100.694 149.423 100.694 151.983Z" fill="black"/>
<path opacity="0.64" d="M117.791 151.983C117.791 154.544 119.867 156.62 122.427 156.62C124.988 156.62 127.064 154.544 127.064 151.983C127.064 149.423 124.988 147.347 122.427 147.347C119.867 147.347 117.791 149.423 117.791 151.983Z" fill="black"/>
<path opacity="0.64" d="M66.3575 166.906C66.3575 169.467 68.4332 171.543 70.9937 171.543C73.5543 171.543 75.63 169.467 75.63 166.906C75.63 164.346 73.5543 162.27 70.9937 162.27C68.4332 162.27 66.3575 164.346 66.3575 166.906Z" fill="black"/>
<path opacity="0.64" d="M83.4542 166.906C83.4542 169.467 85.53 171.543 88.0905 171.543C90.6511 171.543 92.7267 169.467 92.7267 166.906C92.7267 164.346 90.6511 162.27 88.0905 162.27C85.53 162.27 83.4542 164.346 83.4542 166.906Z" fill="black"/>
<path opacity="0.64" d="M100.694 166.906C100.694 169.467 102.77 171.543 105.331 171.543C107.891 171.543 109.967 169.467 109.967 166.906C109.967 164.346 107.891 162.27 105.331 162.27C102.77 162.27 100.694 164.346 100.694 166.906Z" fill="black"/>
<path opacity="0.64" d="M117.791 166.906C117.791 169.467 119.867 171.543 122.427 171.543C124.988 171.543 127.064 169.467 127.064 166.906C127.064 164.346 124.988 162.27 122.427 162.27C119.867 162.27 117.791 164.346 117.791 166.906Z" fill="black"/>
<path opacity="0.64" d="M1.50561e-05 63.8936C1.49442e-05 66.4542 2.07577 68.5299 4.63631 68.5299C7.19686 68.5299 9.27261 66.4542 9.27261 63.8936C9.27261 61.3331 7.19686 59.2573 4.63631 59.2573C2.07577 59.2573 1.51681e-05 61.3331 1.50561e-05 63.8936Z" fill="black"/>
<path opacity="0.64" d="M17.0968 63.8936C17.0968 66.4542 19.1724 68.5299 21.733 68.5299C24.2935 68.5299 26.3693 66.4542 26.3693 63.8936C26.3693 61.3331 24.2935 59.2573 21.733 59.2573C19.1724 59.2573 17.0968 61.3331 17.0968 63.8936Z" fill="black"/>
<path opacity="0.64" d="M34.1935 63.8936C34.1935 66.4542 36.2692 68.5299 38.8298 68.5299C41.3903 68.5299 43.466 66.4542 43.466 63.8936C43.466 61.3331 41.3903 59.2573 38.8298 59.2573C36.2692 59.2573 34.1935 61.3331 34.1935 63.8936Z" fill="black"/>
<path opacity="0.64" d="M51.4346 63.8936C51.4346 66.4542 53.5103 68.5299 56.0709 68.5299C58.6314 68.5299 60.7072 66.4542 60.7072 63.8936C60.7072 61.3331 58.6314 59.2573 56.0709 59.2573C53.5103 59.2573 51.4346 61.3331 51.4346 63.8936Z" fill="black"/>
<path opacity="0.64" d="M1.50561e-05 78.6719C1.49442e-05 81.2325 2.07577 83.3082 4.63631 83.3082C7.19686 83.3082 9.27261 81.2325 9.27261 78.6719C9.27261 76.1114 7.19686 74.0356 4.63631 74.0356C2.07577 74.0356 1.51681e-05 76.1114 1.50561e-05 78.6719Z" fill="black"/>
<path opacity="0.64" d="M17.0968 78.6719C17.0968 81.2325 19.1724 83.3082 21.733 83.3082C24.2935 83.3082 26.3693 81.2325 26.3693 78.6719C26.3693 76.1114 24.2935 74.0356 21.733 74.0356C19.1724 74.0356 17.0968 76.1114 17.0968 78.6719Z" fill="black"/>
<path opacity="0.64" d="M34.1935 78.6719C34.1935 81.2325 36.2692 83.3082 38.8298 83.3082C41.3903 83.3082 43.466 81.2325 43.466 78.6719C43.466 76.1114 41.3903 74.0356 38.8298 74.0356C36.2692 74.0356 34.1935 76.1114 34.1935 78.6719Z" fill="black"/>
<path opacity="0.64" d="M51.4346 78.6719C51.4346 81.2325 53.5103 83.3082 56.0709 83.3082C58.6314 83.3082 60.7072 81.2325 60.7072 78.6719C60.7072 76.1114 58.6314 74.0356 56.0709 74.0356C53.5103 74.0356 51.4346 76.1114 51.4346 78.6719Z" fill="black"/>
<path opacity="0.64" d="M2.26855e-05 93.5948C2.25736e-05 96.1553 2.07577 98.2311 4.63632 98.2311C7.19687 98.2311 9.27262 96.1553 9.27262 93.5948C9.27262 91.0342 7.19687 88.9585 4.63632 88.9585C2.07577 88.9585 2.27974e-05 91.0342 2.26855e-05 93.5948Z" fill="black"/>
<path opacity="0.64" d="M17.0968 93.5948C17.0968 96.1553 19.1725 98.2311 21.733 98.2311C24.2935 98.2311 26.3693 96.1553 26.3693 93.5948C26.3693 91.0342 24.2935 88.9585 21.733 88.9585C19.1725 88.9585 17.0968 91.0342 17.0968 93.5948Z" fill="black"/>
<path opacity="0.64" d="M34.1935 93.5948C34.1935 96.1553 36.2692 98.2311 38.8298 98.2311C41.3903 98.2311 43.466 96.1553 43.466 93.5948C43.466 91.0342 41.3903 88.9585 38.8298 88.9585C36.2692 88.9585 34.1935 91.0342 34.1935 93.5948Z" fill="black"/>
<path opacity="0.64" d="M51.4346 93.5948C51.4346 96.1553 53.5103 98.2311 56.0709 98.2311C58.6314 98.2311 60.7072 96.1553 60.7072 93.5948C60.7072 91.0342 58.6314 88.9585 56.0709 88.9585C53.5103 88.9585 51.4346 91.0342 51.4346 93.5948Z" fill="black"/>
<path opacity="0.64" d="M2.26855e-05 108.518C2.25736e-05 111.078 2.07577 113.154 4.63632 113.154C7.19687 113.154 9.27262 111.078 9.27262 108.518C9.27262 105.957 7.19687 103.882 4.63632 103.882C2.07577 103.882 2.27975e-05 105.957 2.26855e-05 108.518Z" fill="black"/>
<path opacity="0.64" d="M17.0968 108.518C17.0968 111.078 19.1725 113.154 21.733 113.154C24.2935 113.154 26.3693 111.078 26.3693 108.518C26.3693 105.957 24.2935 103.882 21.733 103.882C19.1725 103.882 17.0968 105.957 17.0968 108.518Z" fill="black"/>
<path opacity="0.64" d="M34.1935 108.518C34.1935 111.078 36.2692 113.154 38.8298 113.154C41.3903 113.154 43.466 111.078 43.466 108.518C43.466 105.957 41.3903 103.882 38.8298 103.882C36.2692 103.882 34.1935 105.957 34.1935 108.518Z" fill="black"/>
<path opacity="0.64" d="M51.4346 108.518C51.4346 111.078 53.5103 113.154 56.0709 113.154C58.6314 113.154 60.7072 111.078 60.7072 108.518C60.7072 105.957 58.6314 103.882 56.0709 103.882C53.5103 103.882 51.4346 105.957 51.4346 108.518Z" fill="black"/>
<path opacity="0.64" d="M1.88708e-05 4.6363C1.87589e-05 7.19684 2.07577 9.27257 4.63632 9.27257C7.19686 9.27257 9.27261 7.19684 9.27261 4.6363C9.27261 2.07575 7.19686 -9.0734e-08 4.63632 -2.02659e-07C2.07577 -3.14584e-07 1.89828e-05 2.07575 1.88708e-05 4.6363Z" fill="black"/>
<path opacity="0.64" d="M17.0968 4.6363C17.0968 7.19684 19.1724 9.27257 21.733 9.27257C24.2935 9.27257 26.3693 7.19684 26.3693 4.6363C26.3693 2.07575 24.2935 -9.0734e-08 21.733 -2.02659e-07C19.1724 -3.14584e-07 17.0968 2.07575 17.0968 4.6363Z" fill="black"/>
<path opacity="0.64" d="M34.1935 4.6363C34.1935 7.19684 36.2692 9.27257 38.8298 9.27257C41.3903 9.27257 43.466 7.19684 43.466 4.6363C43.466 2.07575 41.3903 -9.07301e-08 38.8298 -2.02655e-07C36.2692 -3.1458e-07 34.1935 2.07575 34.1935 4.6363Z" fill="black"/>
<path opacity="0.64" d="M51.4346 4.6363C51.4346 7.19684 53.5103 9.27257 56.0709 9.27257C58.6314 9.27257 60.7072 7.19684 60.7072 4.6363C60.7072 2.07575 58.6314 -9.0734e-08 56.0709 -2.02659e-07C53.5103 -3.14584e-07 51.4346 2.07575 51.4346 4.6363Z" fill="black"/>
<path opacity="0.64" d="M1.88708e-05 19.5594C1.87589e-05 22.1199 2.07577 24.1957 4.63632 24.1957C7.19686 24.1957 9.27261 22.1199 9.27261 19.5594C9.27261 16.9988 7.19686 14.9231 4.63632 14.9231C2.07577 14.9231 1.89828e-05 16.9988 1.88708e-05 19.5594Z" fill="black"/>
<path opacity="0.64" d="M17.0968 19.5594C17.0968 22.1199 19.1724 24.1957 21.733 24.1957C24.2935 24.1957 26.3693 22.1199 26.3693 19.5594C26.3693 16.9988 24.2935 14.9231 21.733 14.9231C19.1724 14.9231 17.0968 16.9988 17.0968 19.5594Z" fill="black"/>
<path opacity="0.64" d="M34.1935 19.5594C34.1935 22.1199 36.2692 24.1957 38.8298 24.1957C41.3903 24.1957 43.466 22.1199 43.466 19.5594C43.466 16.9988 41.3903 14.9231 38.8298 14.9231C36.2692 14.9231 34.1935 16.9988 34.1935 19.5594Z" fill="black"/>
<path opacity="0.64" d="M51.4346 19.5594C51.4346 22.1199 53.5103 24.1957 56.0709 24.1957C58.6314 24.1957 60.7072 22.1199 60.7072 19.5594C60.7072 16.9988 58.6314 14.9231 56.0709 14.9231C53.5103 14.9231 51.4346 16.9988 51.4346 19.5594Z" fill="black"/>
<path opacity="0.64" d="M1.88708e-05 34.4825C1.87589e-05 37.043 2.07577 39.1187 4.63632 39.1187C7.19686 39.1187 9.27261 37.043 9.27261 34.4825C9.27261 31.9219 7.19686 29.8462 4.63632 29.8462C2.07577 29.8462 1.89828e-05 31.9219 1.88708e-05 34.4825Z" fill="black"/>
<path opacity="0.64" d="M17.0968 34.4825C17.0968 37.043 19.1724 39.1187 21.733 39.1187C24.2935 39.1187 26.3693 37.043 26.3693 34.4825C26.3693 31.9219 24.2935 29.8462 21.733 29.8462C19.1724 29.8462 17.0968 31.9219 17.0968 34.4825Z" fill="black"/>
<path opacity="0.64" d="M34.1935 34.4825C34.1935 37.043 36.2692 39.1187 38.8298 39.1187C41.3903 39.1187 43.466 37.043 43.466 34.4825C43.466 31.9219 41.3903 29.8462 38.8298 29.8462C36.2692 29.8462 34.1935 31.9219 34.1935 34.4825Z" fill="black"/>
<path opacity="0.64" d="M51.4346 34.4825C51.4346 37.043 53.5103 39.1187 56.0709 39.1187C58.6314 39.1187 60.7072 37.043 60.7072 34.4825C60.7072 31.9219 58.6314 29.8462 56.0709 29.8462C53.5103 29.8462 51.4346 31.9219 51.4346 34.4825Z" fill="black"/>
<path opacity="0.64" d="M1.50561e-05 49.4053C1.49442e-05 51.9659 2.07577 54.0416 4.63631 54.0416C7.19686 54.0416 9.27261 51.9659 9.27261 49.4053C9.27261 46.8448 7.19686 44.769 4.63631 44.769C2.07577 44.769 1.51681e-05 46.8448 1.50561e-05 49.4053Z" fill="black"/>
<path opacity="0.64" d="M17.0968 49.4053C17.0968 51.9659 19.1724 54.0416 21.733 54.0416C24.2935 54.0416 26.3693 51.9659 26.3693 49.4053C26.3693 46.8448 24.2935 44.769 21.733 44.769C19.1724 44.769 17.0968 46.8448 17.0968 49.4053Z" fill="black"/>
<path opacity="0.64" d="M34.1935 49.4053C34.1935 51.9659 36.2692 54.0416 38.8298 54.0416C41.3903 54.0416 43.466 51.9659 43.466 49.4053C43.466 46.8448 41.3903 44.769 38.8298 44.769C36.2692 44.769 34.1935 46.8448 34.1935 49.4053Z" fill="black"/>
<path opacity="0.64" d="M51.4346 49.4053C51.4346 51.9659 53.5103 54.0416 56.0709 54.0416C58.6314 54.0416 60.7072 51.9659 60.7072 49.4053C60.7072 46.8448 58.6314 44.769 56.0709 44.769C53.5103 44.769 51.4346 46.8448 51.4346 49.4053Z" fill="black"/>
<path opacity="0.64" d="M66.3575 63.8936C66.3575 66.4542 68.4332 68.5299 70.9937 68.5299C73.5543 68.5299 75.63 66.4542 75.63 63.8936C75.63 61.3331 73.5543 59.2573 70.9937 59.2573C68.4332 59.2573 66.3575 61.3331 66.3575 63.8936Z" fill="black"/>
<path opacity="0.64" d="M83.4542 63.8936C83.4542 66.4542 85.53 68.5299 88.0905 68.5299C90.6511 68.5299 92.7267 66.4542 92.7267 63.8936C92.7267 61.3331 90.6511 59.2573 88.0905 59.2573C85.53 59.2573 83.4542 61.3331 83.4542 63.8936Z" fill="black"/>
<path opacity="0.64" d="M100.694 63.8936C100.694 66.4542 102.77 68.5299 105.331 68.5299C107.891 68.5299 109.967 66.4542 109.967 63.8936C109.967 61.3331 107.891 59.2573 105.331 59.2573C102.77 59.2573 100.694 61.3331 100.694 63.8936Z" fill="black"/>
<path opacity="0.64" d="M117.791 63.8936C117.791 66.4541 119.867 68.5299 122.427 68.5299C124.988 68.5299 127.064 66.4541 127.064 63.8936C127.064 61.333 124.988 59.2573 122.427 59.2573C119.867 59.2573 117.791 61.333 117.791 63.8936Z" fill="black"/>
<path opacity="0.64" d="M66.3575 78.6719C66.3575 81.2325 68.4332 83.3082 70.9937 83.3082C73.5543 83.3082 75.63 81.2325 75.63 78.6719C75.63 76.1114 73.5543 74.0356 70.9937 74.0356C68.4332 74.0356 66.3575 76.1114 66.3575 78.6719Z" fill="black"/>
<path opacity="0.64" d="M83.4542 78.6719C83.4542 81.2325 85.53 83.3082 88.0905 83.3082C90.6511 83.3082 92.7267 81.2325 92.7267 78.6719C92.7267 76.1114 90.6511 74.0356 88.0905 74.0356C85.53 74.0356 83.4542 76.1114 83.4542 78.6719Z" fill="black"/>
<path opacity="0.64" d="M100.694 78.6719C100.694 81.2325 102.77 83.3082 105.331 83.3082C107.891 83.3082 109.967 81.2325 109.967 78.6719C109.967 76.1114 107.891 74.0356 105.331 74.0356C102.77 74.0356 100.694 76.1114 100.694 78.6719Z" fill="black"/>
<path opacity="0.64" d="M117.791 78.672C117.791 81.2326 119.867 83.3083 122.427 83.3083C124.988 83.3083 127.064 81.2326 127.064 78.672C127.064 76.1115 124.988 74.0357 122.427 74.0357C119.867 74.0357 117.791 76.1115 117.791 78.672Z" fill="black"/>
<path opacity="0.64" d="M66.3575 93.5948C66.3575 96.1553 68.4332 98.2311 70.9937 98.2311C73.5543 98.2311 75.63 96.1553 75.63 93.5948C75.63 91.0342 73.5543 88.9585 70.9937 88.9585C68.4332 88.9585 66.3575 91.0342 66.3575 93.5948Z" fill="black"/>
<path opacity="0.64" d="M83.4542 93.5948C83.4542 96.1553 85.53 98.2311 88.0905 98.2311C90.6511 98.2311 92.7267 96.1553 92.7267 93.5948C92.7267 91.0342 90.6511 88.9585 88.0905 88.9585C85.53 88.9585 83.4542 91.0342 83.4542 93.5948Z" fill="black"/>
<path opacity="0.64" d="M100.694 93.5948C100.694 96.1553 102.77 98.2311 105.331 98.2311C107.891 98.2311 109.967 96.1553 109.967 93.5948C109.967 91.0342 107.891 88.9585 105.331 88.9585C102.77 88.9585 100.694 91.0342 100.694 93.5948Z" fill="black"/>
<path opacity="0.64" d="M117.791 93.5948C117.791 96.1553 119.867 98.2311 122.427 98.2311C124.988 98.2311 127.064 96.1553 127.064 93.5948C127.064 91.0342 124.988 88.9585 122.427 88.9585C119.867 88.9585 117.791 91.0342 117.791 93.5948Z" fill="black"/>
<path opacity="0.64" d="M66.3575 108.518C66.3575 111.078 68.4332 113.154 70.9937 113.154C73.5543 113.154 75.63 111.078 75.63 108.518C75.63 105.957 73.5543 103.882 70.9937 103.882C68.4332 103.882 66.3575 105.957 66.3575 108.518Z" fill="black"/>
<path opacity="0.64" d="M83.4542 108.518C83.4542 111.078 85.53 113.154 88.0905 113.154C90.6511 113.154 92.7267 111.078 92.7267 108.518C92.7267 105.957 90.6511 103.882 88.0905 103.882C85.53 103.882 83.4542 105.957 83.4542 108.518Z" fill="black"/>
<path opacity="0.64" d="M100.694 108.518C100.694 111.078 102.77 113.154 105.331 113.154C107.891 113.154 109.967 111.078 109.967 108.518C109.967 105.957 107.891 103.882 105.331 103.882C102.77 103.882 100.694 105.957 100.694 108.518Z" fill="black"/>
<path opacity="0.64" d="M117.791 108.518C117.791 111.078 119.867 113.154 122.427 113.154C124.988 113.154 127.064 111.078 127.064 108.518C127.064 105.957 124.988 103.882 122.427 103.882C119.867 103.882 117.791 105.957 117.791 108.518Z" fill="black"/>
<path opacity="0.64" d="M66.3575 4.6363C66.3575 7.19684 68.4332 9.27257 70.9937 9.27257C73.5543 9.27257 75.63 7.19684 75.63 4.6363C75.63 2.07575 73.5543 -9.0734e-08 70.9937 -2.02659e-07C68.4332 -3.14584e-07 66.3575 2.07575 66.3575 4.6363Z" fill="black"/>
<path opacity="0.64" d="M83.4542 4.6363C83.4542 7.19684 85.53 9.27257 88.0905 9.27257C90.6511 9.27257 92.7267 7.19684 92.7267 4.6363C92.7267 2.07575 90.6511 -9.07301e-08 88.0905 -2.02655e-07C85.53 -3.1458e-07 83.4542 2.07575 83.4542 4.6363Z" fill="black"/>
<path opacity="0.64" d="M100.694 4.6363C100.694 7.19684 102.77 9.27257 105.331 9.27257C107.891 9.27257 109.967 7.19684 109.967 4.6363C109.967 2.07575 107.891 -9.0734e-08 105.331 -2.02659e-07C102.77 -3.14584e-07 100.694 2.07575 100.694 4.6363Z" fill="black"/>
<path opacity="0.64" d="M117.791 4.6363C117.791 7.19684 119.867 9.27257 122.427 9.27257C124.988 9.27257 127.064 7.19684 127.064 4.6363C127.064 2.07575 124.988 -9.0734e-08 122.427 -2.02659e-07C119.867 -3.14584e-07 117.791 2.07575 117.791 4.6363Z" fill="black"/>
<path opacity="0.64" d="M66.3575 19.5594C66.3575 22.1199 68.4332 24.1957 70.9937 24.1957C73.5543 24.1957 75.63 22.1199 75.63 19.5594C75.63 16.9988 73.5543 14.9231 70.9937 14.9231C68.4332 14.9231 66.3575 16.9988 66.3575 19.5594Z" fill="black"/>
<path opacity="0.64" d="M83.4542 19.5594C83.4542 22.1199 85.53 24.1957 88.0905 24.1957C90.6511 24.1957 92.7267 22.1199 92.7267 19.5594C92.7267 16.9988 90.6511 14.9231 88.0905 14.9231C85.53 14.9231 83.4542 16.9988 83.4542 19.5594Z" fill="black"/>
<path opacity="0.64" d="M100.694 19.5594C100.694 22.1199 102.77 24.1957 105.331 24.1957C107.891 24.1957 109.967 22.1199 109.967 19.5594C109.967 16.9988 107.891 14.9231 105.331 14.9231C102.77 14.9231 100.694 16.9988 100.694 19.5594Z" fill="black"/>
<path opacity="0.64" d="M117.791 19.5594C117.791 22.1199 119.867 24.1957 122.427 24.1957C124.988 24.1957 127.064 22.1199 127.064 19.5594C127.064 16.9988 124.988 14.9231 122.427 14.9231C119.867 14.9231 117.791 16.9988 117.791 19.5594Z" fill="black"/>
<path opacity="0.64" d="M66.3575 34.4825C66.3575 37.043 68.4332 39.1187 70.9937 39.1187C73.5543 39.1187 75.63 37.043 75.63 34.4825C75.63 31.9219 73.5543 29.8462 70.9937 29.8462C68.4332 29.8462 66.3575 31.9219 66.3575 34.4825Z" fill="black"/>
<path opacity="0.64" d="M83.4542 34.4825C83.4542 37.043 85.53 39.1187 88.0905 39.1187C90.6511 39.1187 92.7267 37.043 92.7267 34.4825C92.7267 31.9219 90.6511 29.8462 88.0905 29.8462C85.53 29.8462 83.4542 31.9219 83.4542 34.4825Z" fill="black"/>
<path opacity="0.64" d="M100.694 34.4825C100.694 37.043 102.77 39.1187 105.331 39.1187C107.891 39.1187 109.967 37.043 109.967 34.4825C109.967 31.9219 107.891 29.8462 105.331 29.8462C102.77 29.8462 100.694 31.9219 100.694 34.4825Z" fill="black"/>
<path opacity="0.64" d="M117.791 34.4825C117.791 37.043 119.867 39.1187 122.427 39.1187C124.988 39.1187 127.064 37.043 127.064 34.4825C127.064 31.9219 124.988 29.8462 122.427 29.8462C119.867 29.8462 117.791 31.9219 117.791 34.4825Z" fill="black"/>
<path opacity="0.64" d="M66.3575 49.4053C66.3575 51.9659 68.4332 54.0416 70.9937 54.0416C73.5543 54.0416 75.63 51.9659 75.63 49.4053C75.63 46.8448 73.5543 44.769 70.9937 44.769C68.4332 44.769 66.3575 46.8448 66.3575 49.4053Z" fill="black"/>
<path opacity="0.64" d="M83.4542 49.4053C83.4542 51.9659 85.53 54.0416 88.0905 54.0416C90.6511 54.0416 92.7267 51.9659 92.7267 49.4053C92.7267 46.8448 90.6511 44.769 88.0905 44.769C85.53 44.769 83.4542 46.8448 83.4542 49.4053Z" fill="black"/>
<path opacity="0.64" d="M100.694 49.4053C100.694 51.9659 102.77 54.0416 105.331 54.0416C107.891 54.0416 109.967 51.9659 109.967 49.4053C109.967 46.8448 107.891 44.769 105.331 44.769C102.77 44.769 100.694 46.8448 100.694 49.4053Z" fill="black"/>
<path opacity="0.64" d="M117.791 49.4053C117.791 51.9659 119.867 54.0416 122.427 54.0416C124.988 54.0416 127.064 51.9659 127.064 49.4053C127.064 46.8448 124.988 44.769 122.427 44.769C119.867 44.769 117.791 46.8448 117.791 49.4053Z" fill="black"/>
</g>
</svg>
