<svg width="176" height="347" viewBox="0 0 176 347" fill="none" xmlns="http://www.w3.org/2000/svg">
<g opacity="0.2">
<path d="M175 173.5C175 268.769 97.7691 346 2.50002 346C-92.7691 346 -170 268.769 -170 173.5C-170 78.2308 -92.7691 0.999997 2.5 0.999992C97.7691 0.999988 175 78.2308 175 173.5Z" stroke="white" stroke-miterlimit="10"/>
<path d="M139 173.499C139 146.281 130.951 119.676 115.874 97.0533C100.797 74.4301 79.3691 56.8068 54.3048 46.4156C29.2405 36.0243 1.66728 33.3326 -24.9225 38.6812C-51.5122 44.0298 -75.9223 57.1782 -95.0608 76.4611C-114.199 95.744 -127.205 120.294 -132.432 147.001C-137.658 173.708 -134.869 201.371 -124.419 226.487C-113.969 251.602 -96.3267 273.04 -73.7277 288.085C-51.1287 303.129 -24.5893 311.104 2.52902 310.999C38.7719 310.859 73.4827 296.31 99.0609 270.539C124.639 244.768 139 209.874 139 173.499V173.499Z" stroke="white" stroke-miterlimit="10"/>
<path d="M102.999 173.499C102.998 153.401 97.0612 133.756 85.9397 117.053C74.8182 100.35 59.013 87.3415 40.527 79.6751C22.041 72.0087 1.70631 70.0299 -17.8999 73.9896C-37.5061 77.9492 -55.5014 87.6691 -69.6051 101.917C-83.7088 116.166 -93.2862 134.301 -97.1233 154.025C-100.96 173.749 -98.8848 194.173 -91.1592 212.711C-83.4337 231.248 -70.4061 247.063 -53.7275 258.152C-37.0488 269.241 -17.4698 275.104 2.52816 274.999C15.7667 274.999 28.8748 272.37 41.0991 267.262C53.3233 262.155 64.4225 254.67 73.759 245.238C83.0955 235.806 90.4852 224.612 95.5031 212.301C100.521 199.989 103.068 186.803 102.999 173.499V173.499Z" stroke="white" stroke-miterlimit="10"/>
<path d="M66.9978 173.498C66.9974 160.521 63.1717 147.836 56.0059 137.053C48.8401 126.271 38.6572 117.876 26.7494 112.934C14.8416 107.993 1.74551 106.727 -10.8773 109.298C-23.5 111.869 -35.0806 118.16 -44.1495 127.374C-53.2184 136.588 -59.3668 148.308 -61.8148 161.049C-64.2628 173.79 -62.9001 186.976 -57.8993 198.935C-52.8986 210.894 -44.4853 221.086 -33.727 228.219C-22.9687 235.352 -10.3501 239.103 2.52743 238.998C11.0385 238.998 19.4654 237.3 27.3219 234.002C35.1785 230.704 42.3091 225.871 48.3027 219.781C54.2963 213.692 59.0341 206.467 62.2428 198.523C65.4515 190.58 67.0676 182.074 66.9978 173.498Z" stroke="white" stroke-miterlimit="10"/>
</g>
<path d="M49.6335 288.926C49.6335 288.926 56.7936 300.184 65.6239 298.76C65.6239 298.76 56.8375 304.39 56.8695 314.985C56.8695 314.985 52.5874 307.249 41.2607 305.27C41.2607 305.27 48.9759 303.392 49.6335 288.926Z" fill="#8EC6D8"/>
<path d="M126.385 130C126.385 130 144.103 145.154 158 138.106C158 138.106 146.362 152.203 151.92 170C151.92 170 140.803 159.251 121 161.894C121 161.894 132.812 154.67 126.385 130Z" fill="#EE4D4A"/>
<path d="M83.4633 327.685L82.3145 317.148L92.8512 316L94.0001 326.536L83.4633 327.685Z" fill="#F0CA50"/>
</svg>
