<svg width="158" height="231" viewBox="0 0 158 231" fill="none" xmlns="http://www.w3.org/2000/svg">
<path d="M127.269 125L127.269 200.167" stroke="#F0CA50" stroke-width="6" stroke-linecap="round" stroke-linejoin="round"/>
<path d="M98.9358 172.334L127.269 204" stroke="#F0CA50" stroke-width="6" stroke-linecap="round" stroke-linejoin="round"/>
<path d="M154.602 172.333L127.269 204" stroke="#F0CA50" stroke-width="6" stroke-linecap="round" stroke-linejoin="round"/>
<g opacity="0.05">
<path opacity="0.64" d="M0.000110424 181.395C0.000110312 183.955 2.07586 186.031 4.63641 186.031C7.19695 186.031 9.2727 183.955 9.2727 181.395C9.2727 178.834 7.19695 176.758 4.63641 176.758C2.07586 176.758 0.000110535 178.834 0.000110424 181.395Z" fill="black"/>
<path opacity="0.64" d="M17.0966 181.395C17.0966 183.955 19.1723 186.031 21.7328 186.031C24.2934 186.031 26.3691 183.955 26.3691 181.395C26.3691 178.834 24.2934 176.758 21.7328 176.758C19.1723 176.758 17.0966 178.834 17.0966 181.395Z" fill="black"/>
<path opacity="0.64" d="M34.1928 181.395C34.1928 183.955 36.2686 186.031 38.8291 186.031C41.3897 186.031 43.4653 183.955 43.4653 181.395C43.4653 178.834 41.3897 176.758 38.8291 176.758C36.2686 176.758 34.1928 178.834 34.1928 181.395Z" fill="black"/>
<path opacity="0.64" d="M51.4338 181.395C51.4338 183.955 53.5096 186.031 56.0701 186.031C58.6307 186.031 60.7064 183.955 60.7064 181.395C60.7064 178.834 58.6307 176.758 56.0701 176.758C53.5096 176.758 51.4338 178.834 51.4338 181.395Z" fill="black"/>
<path opacity="0.64" d="M7.9906e-05 196.318C7.97941e-05 198.878 2.07583 200.954 4.63638 200.954C7.19692 200.954 9.27267 198.878 9.27267 196.318C9.27267 193.757 7.19692 191.682 4.63638 191.682C2.07583 191.682 8.00179e-05 193.757 7.9906e-05 196.318Z" fill="black"/>
<path opacity="0.64" d="M17.0966 196.318C17.0966 198.878 19.1723 200.954 21.7328 200.954C24.2934 200.954 26.3691 198.878 26.3691 196.318C26.3691 193.757 24.2934 191.682 21.7328 191.682C19.1723 191.682 17.0966 193.757 17.0966 196.318Z" fill="black"/>
<path opacity="0.64" d="M34.1929 196.318C34.1929 198.878 36.2686 200.954 38.8292 200.954C41.3897 200.954 43.4654 198.878 43.4654 196.318C43.4654 193.757 41.3897 191.682 38.8292 191.682C36.2686 191.682 34.1929 193.757 34.1929 196.318Z" fill="black"/>
<path opacity="0.64" d="M51.4338 196.318C51.4338 198.878 53.5095 200.954 56.0701 200.954C58.6306 200.954 60.7064 198.878 60.7064 196.318C60.7064 193.757 58.6306 191.682 56.0701 191.682C53.5095 191.682 51.4338 193.757 51.4338 196.318Z" fill="black"/>
<path opacity="0.64" d="M-1.16468e-05 211.24C-1.17587e-05 213.801 2.07574 215.877 4.63629 215.877C7.19683 215.877 9.27258 213.801 9.27258 211.24C9.27258 208.68 7.19683 206.604 4.63629 206.604C2.07574 206.604 -1.15348e-05 208.68 -1.16468e-05 211.24Z" fill="black"/>
<path opacity="0.64" d="M17.0964 211.24C17.0964 213.801 19.1721 215.877 21.7326 215.877C24.2931 215.877 26.3689 213.801 26.3689 211.24C26.3689 208.68 24.2931 206.604 21.7326 206.604C19.1721 206.604 17.0964 208.68 17.0964 211.24Z" fill="black"/>
<path opacity="0.64" d="M34.1928 211.24C34.1928 213.801 36.2686 215.877 38.8291 215.877C41.3897 215.877 43.4653 213.801 43.4653 211.24C43.4653 208.68 41.3897 206.604 38.8291 206.604C36.2686 206.604 34.1928 208.68 34.1928 211.24Z" fill="black"/>
<path opacity="0.64" d="M51.4337 211.24C51.4337 213.801 53.5095 215.877 56.07 215.877C58.6305 215.877 60.7063 213.801 60.7063 211.24C60.7063 208.68 58.6305 206.604 56.07 206.604C53.5095 206.604 51.4337 208.68 51.4337 211.24Z" fill="black"/>
<path opacity="0.64" d="M4.93884e-05 226.164C4.92765e-05 228.724 2.0758 230.8 4.63635 230.8C7.19689 230.8 9.27264 228.724 9.27264 226.164C9.27264 223.603 7.19689 221.527 4.63635 221.527C2.0758 221.527 4.95003e-05 223.603 4.93884e-05 226.164Z" fill="black"/>
<path opacity="0.64" d="M17.0964 226.164C17.0964 228.724 19.1721 230.8 21.7326 230.8C24.2931 230.8 26.3689 228.724 26.3689 226.164C26.3689 223.603 24.2931 221.527 21.7326 221.527C19.1721 221.527 17.0964 223.603 17.0964 226.164Z" fill="black"/>
<path opacity="0.64" d="M34.1929 226.164C34.1929 228.724 36.2686 230.8 38.8292 230.8C41.3897 230.8 43.4654 228.724 43.4654 226.164C43.4654 223.603 41.3897 221.527 38.8292 221.527C36.2686 221.527 34.1929 223.603 34.1929 226.164Z" fill="black"/>
<path opacity="0.64" d="M51.4337 226.164C51.4337 228.724 53.5095 230.8 56.07 230.8C58.6305 230.8 60.7063 228.724 60.7063 226.164C60.7063 223.603 58.6305 221.527 56.07 221.527C53.5095 221.527 51.4337 223.603 51.4337 226.164Z" fill="black"/>
<path opacity="0.64" d="M4.93884e-05 122.282C4.92765e-05 124.843 2.0758 126.919 4.63635 126.919C7.19689 126.919 9.27264 124.843 9.27264 122.282C9.27264 119.722 7.19689 117.646 4.63635 117.646C2.0758 117.646 4.95003e-05 119.722 4.93884e-05 122.282Z" fill="black"/>
<path opacity="0.64" d="M17.0966 122.282C17.0966 124.843 19.1723 126.919 21.7328 126.919C24.2934 126.919 26.3691 124.843 26.3691 122.282C26.3691 119.722 24.2934 117.646 21.7328 117.646C19.1723 117.646 17.0966 119.722 17.0966 122.282Z" fill="black"/>
<path opacity="0.64" d="M34.1929 122.282C34.1929 124.843 36.2686 126.919 38.8292 126.919C41.3897 126.919 43.4654 124.843 43.4654 122.282C43.4654 119.722 41.3897 117.646 38.8292 117.646C36.2686 117.646 34.1929 119.722 34.1929 122.282Z" fill="black"/>
<path opacity="0.64" d="M51.4339 122.282C51.4339 124.843 53.5097 126.919 56.0702 126.919C58.6308 126.919 60.7065 124.843 60.7065 122.282C60.7065 119.722 58.6308 117.646 56.0702 117.646C53.5097 117.646 51.4339 119.722 51.4339 122.282Z" fill="black"/>
<path opacity="0.64" d="M0.000110424 137.205C0.000110312 139.766 2.07586 141.841 4.63641 141.841C7.19695 141.841 9.2727 139.766 9.2727 137.205C9.2727 134.645 7.19695 132.569 4.63641 132.569C2.07586 132.569 0.000110535 134.645 0.000110424 137.205Z" fill="black"/>
<path opacity="0.64" d="M17.0966 137.205C17.0966 139.766 19.1723 141.841 21.7328 141.841C24.2934 141.841 26.3691 139.766 26.3691 137.205C26.3691 134.645 24.2934 132.569 21.7328 132.569C19.1723 132.569 17.0966 134.645 17.0966 137.205Z" fill="black"/>
<path opacity="0.64" d="M34.1929 137.205C34.1929 139.766 36.2687 141.841 38.8292 141.841C41.3898 141.841 43.4655 139.766 43.4655 137.205C43.4655 134.645 41.3898 132.569 38.8292 132.569C36.2687 132.569 34.1929 134.645 34.1929 137.205Z" fill="black"/>
<path opacity="0.64" d="M51.4339 137.205C51.4339 139.766 53.5097 141.841 56.0702 141.841C58.6308 141.841 60.7065 139.766 60.7065 137.205C60.7065 134.645 58.6308 132.569 56.0702 132.569C53.5097 132.569 51.4339 134.645 51.4339 137.205Z" fill="black"/>
<path opacity="0.64" d="M4.93884e-05 151.983C4.92765e-05 154.544 2.0758 156.62 4.63635 156.62C7.19689 156.62 9.27264 154.544 9.27264 151.983C9.27264 149.423 7.19689 147.347 4.63635 147.347C2.0758 147.347 4.95003e-05 149.423 4.93884e-05 151.983Z" fill="black"/>
<path opacity="0.64" d="M17.0966 151.983C17.0966 154.544 19.1723 156.62 21.7328 156.62C24.2934 156.62 26.3691 154.544 26.3691 151.983C26.3691 149.423 24.2934 147.347 21.7328 147.347C19.1723 147.347 17.0966 149.423 17.0966 151.983Z" fill="black"/>
<path opacity="0.64" d="M34.1929 151.983C34.1929 154.543 36.2687 156.619 38.8292 156.619C41.3898 156.619 43.4655 154.543 43.4655 151.983C43.4655 149.422 41.3898 147.347 38.8292 147.347C36.2687 147.347 34.1929 149.422 34.1929 151.983Z" fill="black"/>
<path opacity="0.64" d="M51.4339 151.983C51.4339 154.543 53.5097 156.619 56.0702 156.619C58.6308 156.619 60.7065 154.543 60.7065 151.983C60.7065 149.422 58.6308 147.347 56.0702 147.347C53.5097 147.347 51.4339 149.422 51.4339 151.983Z" fill="black"/>
<path opacity="0.64" d="M0.000110424 166.906C0.000110312 169.467 2.07586 171.543 4.63641 171.543C7.19695 171.543 9.2727 169.467 9.2727 166.906C9.2727 164.346 7.19695 162.27 4.63641 162.27C2.07586 162.27 0.000110535 164.346 0.000110424 166.906Z" fill="black"/>
<path opacity="0.64" d="M17.0966 166.906C17.0966 169.467 19.1723 171.543 21.7328 171.543C24.2934 171.543 26.3691 169.467 26.3691 166.906C26.3691 164.346 24.2934 162.27 21.7328 162.27C19.1723 162.27 17.0966 164.346 17.0966 166.906Z" fill="black"/>
<path opacity="0.64" d="M34.1929 166.906C34.1929 169.467 36.2686 171.543 38.8292 171.543C41.3897 171.543 43.4654 169.467 43.4654 166.906C43.4654 164.346 41.3897 162.27 38.8292 162.27C36.2686 162.27 34.1929 164.346 34.1929 166.906Z" fill="black"/>
<path opacity="0.64" d="M51.4339 166.906C51.4339 169.467 53.5097 171.543 56.0702 171.543C58.6308 171.543 60.7065 169.467 60.7065 166.906C60.7065 164.346 58.6308 162.27 56.0702 162.27C53.5097 162.27 51.4339 164.346 51.4339 166.906Z" fill="black"/>
<path opacity="0.64" d="M66.357 181.395C66.357 183.955 68.4327 186.031 70.9932 186.031C73.5538 186.031 75.6295 183.955 75.6295 181.395C75.6295 178.834 73.5538 176.758 70.9932 176.758C68.4327 176.758 66.357 178.834 66.357 181.395Z" fill="black"/>
<path opacity="0.64" d="M83.4533 181.395C83.4533 183.955 85.5291 186.031 88.0896 186.031C90.6502 186.031 92.7258 183.955 92.7258 181.395C92.7258 178.834 90.6502 176.758 88.0896 176.758C85.5291 176.758 83.4533 178.834 83.4533 181.395Z" fill="black"/>
<path opacity="0.64" d="M100.694 181.395C100.694 183.955 102.77 186.031 105.331 186.031C107.891 186.031 109.967 183.955 109.967 181.395C109.967 178.834 107.891 176.758 105.331 176.758C102.77 176.758 100.694 178.834 100.694 181.395Z" fill="black"/>
<path opacity="0.64" d="M117.791 181.395C117.791 183.955 119.866 186.031 122.427 186.031C124.987 186.031 127.063 183.955 127.063 181.395C127.063 178.834 124.987 176.758 122.427 176.758C119.866 176.758 117.791 178.834 117.791 181.395Z" fill="black"/>
<path opacity="0.64" d="M66.3569 196.318C66.3569 198.878 68.4325 200.954 70.9931 200.954C73.5536 200.954 75.6294 198.878 75.6294 196.318C75.6294 193.757 73.5536 191.682 70.9931 191.682C68.4325 191.682 66.3569 193.757 66.3569 196.318Z" fill="black"/>
<path opacity="0.64" d="M83.4533 196.318C83.4533 198.878 85.5291 200.954 88.0896 200.954C90.6502 200.954 92.7258 198.878 92.7258 196.318C92.7258 193.757 90.6502 191.682 88.0896 191.682C85.5291 191.682 83.4533 193.757 83.4533 196.318Z" fill="black"/>
<path opacity="0.64" d="M100.694 196.318C100.694 198.878 102.77 200.954 105.331 200.954C107.891 200.954 109.967 198.878 109.967 196.318C109.967 193.757 107.891 191.682 105.331 191.682C102.77 191.682 100.694 193.757 100.694 196.318Z" fill="black"/>
<path opacity="0.64" d="M117.791 196.318C117.791 198.878 119.866 200.954 122.427 200.954C124.987 200.954 127.063 198.878 127.063 196.318C127.063 193.757 124.987 191.682 122.427 191.682C119.866 191.682 117.791 193.757 117.791 196.318Z" fill="black"/>
<path opacity="0.64" d="M66.3569 211.24C66.3569 213.801 68.4325 215.877 70.9931 215.877C73.5536 215.877 75.6294 213.801 75.6294 211.24C75.6294 208.68 73.5536 206.604 70.9931 206.604C68.4325 206.604 66.3569 208.68 66.3569 211.24Z" fill="black"/>
<path opacity="0.64" d="M83.4533 211.24C83.4533 213.801 85.5291 215.877 88.0896 215.877C90.6502 215.877 92.7258 213.801 92.7258 211.24C92.7258 208.68 90.6502 206.604 88.0896 206.604C85.5291 206.604 83.4533 208.68 83.4533 211.24Z" fill="black"/>
<path opacity="0.64" d="M100.694 211.24C100.694 213.801 102.77 215.877 105.331 215.877C107.891 215.877 109.967 213.801 109.967 211.24C109.967 208.68 107.891 206.604 105.331 206.604C102.77 206.604 100.694 208.68 100.694 211.24Z" fill="black"/>
<path opacity="0.64" d="M117.791 211.241C117.791 213.801 119.866 215.877 122.427 215.877C124.987 215.877 127.063 213.801 127.063 211.241C127.063 208.68 124.987 206.604 122.427 206.604C119.866 206.604 117.791 208.68 117.791 211.241Z" fill="black"/>
<path opacity="0.64" d="M66.3571 226.164C66.3571 228.724 68.4328 230.8 70.9933 230.8C73.5539 230.8 75.6296 228.724 75.6296 226.164C75.6296 223.603 73.5539 221.527 70.9933 221.527C68.4328 221.527 66.3571 223.603 66.3571 226.164Z" fill="black"/>
<path opacity="0.64" d="M83.4533 226.164C83.4533 228.724 85.5291 230.8 88.0896 230.8C90.6502 230.8 92.7258 228.724 92.7258 226.164C92.7258 223.603 90.6502 221.527 88.0896 221.527C85.5291 221.527 83.4533 223.603 83.4533 226.164Z" fill="black"/>
<path opacity="0.64" d="M100.694 226.164C100.694 228.724 102.77 230.8 105.331 230.8C107.891 230.8 109.967 228.724 109.967 226.164C109.967 223.603 107.891 221.527 105.331 221.527C102.77 221.527 100.694 223.603 100.694 226.164Z" fill="black"/>
<path opacity="0.64" d="M117.791 226.164C117.791 228.724 119.866 230.8 122.427 230.8C124.987 230.8 127.063 228.724 127.063 226.164C127.063 223.603 124.987 221.527 122.427 221.527C119.866 221.527 117.791 223.603 117.791 226.164Z" fill="black"/>
<path opacity="0.64" d="M66.3569 122.282C66.3569 124.843 68.4325 126.919 70.9931 126.919C73.5536 126.919 75.6294 124.843 75.6294 122.282C75.6294 119.722 73.5536 117.646 70.9931 117.646C68.4325 117.646 66.3569 119.722 66.3569 122.282Z" fill="black"/>
<path opacity="0.64" d="M83.4533 122.282C83.4533 124.843 85.5291 126.919 88.0896 126.919C90.6502 126.919 92.7258 124.843 92.7258 122.282C92.7258 119.722 90.6502 117.646 88.0896 117.646C85.5291 117.646 83.4533 119.722 83.4533 122.282Z" fill="black"/>
<path opacity="0.64" d="M100.694 122.282C100.694 124.843 102.77 126.919 105.331 126.919C107.891 126.919 109.967 124.843 109.967 122.282C109.967 119.722 107.891 117.646 105.331 117.646C102.77 117.646 100.694 119.722 100.694 122.282Z" fill="black"/>
<path opacity="0.64" d="M117.791 122.282C117.791 124.843 119.866 126.919 122.427 126.919C124.987 126.919 127.063 124.843 127.063 122.282C127.063 119.722 124.987 117.646 122.427 117.646C119.866 117.646 117.791 119.722 117.791 122.282Z" fill="black"/>
<path opacity="0.64" d="M66.3571 137.205C66.3571 139.766 68.4328 141.841 70.9933 141.841C73.5539 141.841 75.6296 139.766 75.6296 137.205C75.6296 134.645 73.5539 132.569 70.9933 132.569C68.4328 132.569 66.3571 134.645 66.3571 137.205Z" fill="black"/>
<path opacity="0.64" d="M83.4533 137.205C83.4533 139.766 85.5291 141.841 88.0896 141.841C90.6502 141.841 92.7258 139.766 92.7258 137.205C92.7258 134.645 90.6502 132.569 88.0896 132.569C85.5291 132.569 83.4533 134.645 83.4533 137.205Z" fill="black"/>
<path opacity="0.64" d="M100.694 137.205C100.694 139.766 102.77 141.841 105.33 141.841C107.891 141.841 109.967 139.766 109.967 137.205C109.967 134.645 107.891 132.569 105.33 132.569C102.77 132.569 100.694 134.645 100.694 137.205Z" fill="black"/>
<path opacity="0.64" d="M117.791 137.206C117.791 139.766 119.866 141.842 122.427 141.842C124.987 141.842 127.063 139.766 127.063 137.206C127.063 134.645 124.987 132.569 122.427 132.569C119.866 132.569 117.791 134.645 117.791 137.206Z" fill="black"/>
<path opacity="0.64" d="M66.3571 151.983C66.3571 154.543 68.4328 156.619 70.9933 156.619C73.5539 156.619 75.6296 154.543 75.6296 151.983C75.6296 149.422 73.5539 147.347 70.9933 147.347C68.4328 147.347 66.3571 149.422 66.3571 151.983Z" fill="black"/>
<path opacity="0.64" d="M83.4533 151.983C83.4533 154.543 85.5291 156.619 88.0896 156.619C90.6502 156.619 92.7258 154.543 92.7258 151.983C92.7258 149.422 90.6502 147.347 88.0896 147.347C85.5291 147.347 83.4533 149.422 83.4533 151.983Z" fill="black"/>
<path opacity="0.64" d="M100.694 151.983C100.694 154.543 102.77 156.619 105.33 156.619C107.891 156.619 109.967 154.543 109.967 151.983C109.967 149.422 107.891 147.347 105.33 147.347C102.77 147.347 100.694 149.422 100.694 151.983Z" fill="black"/>
<path opacity="0.64" d="M117.791 151.983C117.791 154.544 119.866 156.62 122.427 156.62C124.987 156.62 127.063 154.544 127.063 151.983C127.063 149.423 124.987 147.347 122.427 147.347C119.866 147.347 117.791 149.423 117.791 151.983Z" fill="black"/>
<path opacity="0.64" d="M66.3571 166.906C66.3571 169.467 68.4328 171.543 70.9933 171.543C73.5539 171.543 75.6296 169.467 75.6296 166.906C75.6296 164.346 73.5539 162.27 70.9933 162.27C68.4328 162.27 66.3571 164.346 66.3571 166.906Z" fill="black"/>
<path opacity="0.64" d="M83.4533 166.906C83.4533 169.467 85.5291 171.543 88.0896 171.543C90.6502 171.543 92.7258 169.467 92.7258 166.906C92.7258 164.346 90.6502 162.27 88.0896 162.27C85.5291 162.27 83.4533 164.346 83.4533 166.906Z" fill="black"/>
<path opacity="0.64" d="M100.694 166.906C100.694 169.467 102.77 171.543 105.331 171.543C107.891 171.543 109.967 169.467 109.967 166.906C109.967 164.346 107.891 162.27 105.331 162.27C102.77 162.27 100.694 164.346 100.694 166.906Z" fill="black"/>
<path opacity="0.64" d="M117.791 166.906C117.791 169.467 119.866 171.543 122.427 171.543C124.987 171.543 127.063 169.467 127.063 166.906C127.063 164.346 124.987 162.27 122.427 162.27C119.866 162.27 117.791 164.346 117.791 166.906Z" fill="black"/>
<path opacity="0.64" d="M7.9906e-05 63.8936C7.97941e-05 66.4542 2.07583 68.5299 4.63638 68.5299C7.19692 68.5299 9.27267 66.4542 9.27267 63.8936C9.27267 61.3331 7.19692 59.2573 4.63638 59.2573C2.07583 59.2573 8.00179e-05 61.3331 7.9906e-05 63.8936Z" fill="black"/>
<path opacity="0.64" d="M17.0966 63.8936C17.0966 66.4542 19.1723 68.5299 21.7328 68.5299C24.2934 68.5299 26.3691 66.4542 26.3691 63.8936C26.3691 61.3331 24.2934 59.2573 21.7328 59.2573C19.1723 59.2573 17.0966 61.3331 17.0966 63.8936Z" fill="black"/>
<path opacity="0.64" d="M34.1929 63.8936C34.1929 66.4542 36.2686 68.5299 38.8292 68.5299C41.3897 68.5299 43.4654 66.4542 43.4654 63.8936C43.4654 61.3331 41.3897 59.2573 38.8292 59.2573C36.2686 59.2573 34.1929 61.3331 34.1929 63.8936Z" fill="black"/>
<path opacity="0.64" d="M51.4338 63.8936C51.4338 66.4542 53.5095 68.5299 56.0701 68.5299C58.6306 68.5299 60.7064 66.4542 60.7064 63.8936C60.7064 61.3331 58.6306 59.2573 56.0701 59.2573C53.5095 59.2573 51.4338 61.3331 51.4338 63.8936Z" fill="black"/>
<path opacity="0.64" d="M7.9906e-05 78.672C7.97941e-05 81.2326 2.07583 83.3083 4.63638 83.3083C7.19692 83.3083 9.27267 81.2326 9.27267 78.672C9.27267 76.1115 7.19692 74.0357 4.63638 74.0357C2.07583 74.0357 8.00179e-05 76.1115 7.9906e-05 78.672Z" fill="black"/>
<path opacity="0.64" d="M17.0966 78.6719C17.0966 81.2325 19.1723 83.3082 21.7328 83.3082C24.2934 83.3082 26.3691 81.2325 26.3691 78.6719C26.3691 76.1114 24.2934 74.0356 21.7328 74.0356C19.1723 74.0356 17.0966 76.1114 17.0966 78.6719Z" fill="black"/>
<path opacity="0.64" d="M34.1929 78.672C34.1929 81.2326 36.2686 83.3083 38.8292 83.3083C41.3897 83.3083 43.4654 81.2326 43.4654 78.672C43.4654 76.1115 41.3897 74.0357 38.8292 74.0357C36.2686 74.0357 34.1929 76.1115 34.1929 78.672Z" fill="black"/>
<path opacity="0.64" d="M51.4337 78.6719C51.4337 81.2325 53.5095 83.3082 56.07 83.3082C58.6305 83.3082 60.7063 81.2325 60.7063 78.6719C60.7063 76.1114 58.6305 74.0356 56.07 74.0356C53.5095 74.0356 51.4337 76.1114 51.4337 78.6719Z" fill="black"/>
<path opacity="0.64" d="M7.9906e-05 93.5948C7.97941e-05 96.1553 2.07583 98.2311 4.63638 98.2311C7.19692 98.2311 9.27267 96.1553 9.27267 93.5948C9.27267 91.0342 7.19692 88.9585 4.63638 88.9585C2.07583 88.9585 8.00179e-05 91.0342 7.9906e-05 93.5948Z" fill="black"/>
<path opacity="0.64" d="M17.0966 93.5948C17.0966 96.1553 19.1723 98.2311 21.7328 98.2311C24.2934 98.2311 26.3691 96.1553 26.3691 93.5948C26.3691 91.0343 24.2934 88.9585 21.7328 88.9585C19.1723 88.9585 17.0966 91.0343 17.0966 93.5948Z" fill="black"/>
<path opacity="0.64" d="M34.1929 93.5948C34.1929 96.1553 36.2686 98.2311 38.8292 98.2311C41.3897 98.2311 43.4654 96.1553 43.4654 93.5948C43.4654 91.0342 41.3897 88.9585 38.8292 88.9585C36.2686 88.9585 34.1929 91.0342 34.1929 93.5948Z" fill="black"/>
<path opacity="0.64" d="M51.4338 93.5948C51.4338 96.1553 53.5096 98.2311 56.0701 98.2311C58.6307 98.2311 60.7064 96.1553 60.7064 93.5948C60.7064 91.0342 58.6307 88.9585 56.0701 88.9585C53.5096 88.9585 51.4338 91.0342 51.4338 93.5948Z" fill="black"/>
<path opacity="0.64" d="M0.000110424 108.518C0.000110312 111.078 2.07586 113.154 4.63641 113.154C7.19695 113.154 9.2727 111.078 9.2727 108.518C9.2727 105.957 7.19695 103.881 4.63641 103.881C2.07586 103.881 0.000110535 105.957 0.000110424 108.518Z" fill="black"/>
<path opacity="0.64" d="M17.0966 108.518C17.0966 111.079 19.1723 113.154 21.7328 113.154C24.2934 113.154 26.3691 111.079 26.3691 108.518C26.3691 105.958 24.2934 103.882 21.7328 103.882C19.1723 103.882 17.0966 105.958 17.0966 108.518Z" fill="black"/>
<path opacity="0.64" d="M34.1928 108.518C34.1928 111.078 36.2686 113.154 38.8291 113.154C41.3897 113.154 43.4653 111.078 43.4653 108.518C43.4653 105.957 41.3897 103.881 38.8291 103.881C36.2686 103.881 34.1928 105.957 34.1928 108.518Z" fill="black"/>
<path opacity="0.64" d="M51.4338 108.518C51.4338 111.078 53.5096 113.154 56.0701 113.154C58.6307 113.154 60.7064 111.078 60.7064 108.518C60.7064 105.957 58.6307 103.881 56.0701 103.881C53.5096 103.881 51.4338 105.957 51.4338 108.518Z" fill="black"/>
<path opacity="0.64" d="M7.9906e-05 4.6363C7.97941e-05 7.19684 2.07583 9.27257 4.63638 9.27257C7.19692 9.27257 9.27267 7.19684 9.27267 4.6363C9.27267 2.07575 7.19692 -9.0734e-08 4.63638 -2.02659e-07C2.07583 -3.14584e-07 8.00179e-05 2.07575 7.9906e-05 4.6363Z" fill="black"/>
<path opacity="0.64" d="M17.0966 4.6363C17.0966 7.19684 19.1723 9.27257 21.7328 9.27257C24.2934 9.27257 26.3691 7.19684 26.3691 4.6363C26.3691 2.07575 24.2934 -9.0734e-08 21.7328 -2.02659e-07C19.1723 -3.14584e-07 17.0966 2.07575 17.0966 4.6363Z" fill="black"/>
<path opacity="0.64" d="M34.1929 4.6363C34.1929 7.19684 36.2686 9.27257 38.8292 9.27257C41.3897 9.27257 43.4654 7.19684 43.4654 4.6363C43.4654 2.07575 41.3897 -9.07301e-08 38.8292 -2.02655e-07C36.2686 -3.1458e-07 34.1929 2.07575 34.1929 4.6363Z" fill="black"/>
<path opacity="0.64" d="M51.4338 4.6363C51.4338 7.19684 53.5095 9.27257 56.0701 9.27257C58.6306 9.27257 60.7064 7.19684 60.7064 4.6363C60.7064 2.07575 58.6306 -9.0734e-08 56.0701 -2.02659e-07C53.5095 -3.14584e-07 51.4338 2.07575 51.4338 4.6363Z" fill="black"/>
<path opacity="0.64" d="M4.93884e-05 19.5596C4.92765e-05 22.1202 2.0758 24.1959 4.63635 24.1959C7.19689 24.1959 9.27264 22.1202 9.27264 19.5596C9.27264 16.9991 7.19689 14.9233 4.63635 14.9233C2.0758 14.9233 4.95003e-05 16.9991 4.93884e-05 19.5596Z" fill="black"/>
<path opacity="0.64" d="M17.0964 19.5596C17.0964 22.1202 19.1721 24.1959 21.7326 24.1959C24.2931 24.1959 26.3689 22.1202 26.3689 19.5596C26.3689 16.9991 24.2931 14.9233 21.7326 14.9233C19.1721 14.9233 17.0964 16.9991 17.0964 19.5596Z" fill="black"/>
<path opacity="0.64" d="M34.1929 19.5596C34.1929 22.1202 36.2686 24.1959 38.8292 24.1959C41.3897 24.1959 43.4654 22.1202 43.4654 19.5596C43.4654 16.9991 41.3897 14.9233 38.8292 14.9233C36.2686 14.9233 34.1929 16.9991 34.1929 19.5596Z" fill="black"/>
<path opacity="0.64" d="M51.4337 19.5591C51.4337 22.1197 53.5095 24.1954 56.07 24.1954C58.6305 24.1954 60.7063 22.1197 60.7063 19.5591C60.7063 16.9986 58.6305 14.9229 56.07 14.9229C53.5095 14.9229 51.4337 16.9986 51.4337 19.5591Z" fill="black"/>
<path opacity="0.64" d="M7.9906e-05 34.4825C7.97941e-05 37.043 2.07583 39.1187 4.63638 39.1187C7.19692 39.1187 9.27267 37.043 9.27267 34.4825C9.27267 31.9219 7.19692 29.8462 4.63638 29.8462C2.07583 29.8462 8.00179e-05 31.9219 7.9906e-05 34.4825Z" fill="black"/>
<path opacity="0.64" d="M17.0966 34.4825C17.0966 37.043 19.1723 39.1187 21.7328 39.1187C24.2934 39.1187 26.3691 37.043 26.3691 34.4825C26.3691 31.9219 24.2934 29.8462 21.7328 29.8462C19.1723 29.8462 17.0966 31.9219 17.0966 34.4825Z" fill="black"/>
<path opacity="0.64" d="M34.1929 34.4825C34.1929 37.043 36.2686 39.1187 38.8292 39.1187C41.3897 39.1187 43.4654 37.043 43.4654 34.4825C43.4654 31.9219 41.3897 29.8462 38.8292 29.8462C36.2686 29.8462 34.1929 31.9219 34.1929 34.4825Z" fill="black"/>
<path opacity="0.64" d="M51.4338 34.4825C51.4338 37.043 53.5095 39.1187 56.0701 39.1187C58.6306 39.1187 60.7064 37.043 60.7064 34.4825C60.7064 31.9219 58.6306 29.8462 56.0701 29.8462C53.5095 29.8462 51.4338 31.9219 51.4338 34.4825Z" fill="black"/>
<path opacity="0.64" d="M4.93884e-05 49.4053C4.92765e-05 51.9659 2.0758 54.0416 4.63635 54.0416C7.19689 54.0416 9.27264 51.9659 9.27264 49.4053C9.27264 46.8448 7.19689 44.769 4.63635 44.769C2.0758 44.769 4.95003e-05 46.8448 4.93884e-05 49.4053Z" fill="black"/>
<path opacity="0.64" d="M17.0964 49.4053C17.0964 51.9659 19.1721 54.0416 21.7326 54.0416C24.2931 54.0416 26.3689 51.9659 26.3689 49.4053C26.3689 46.8448 24.2931 44.769 21.7326 44.769C19.1721 44.769 17.0964 46.8448 17.0964 49.4053Z" fill="black"/>
<path opacity="0.64" d="M34.1929 49.4053C34.1929 51.9659 36.2686 54.0416 38.8292 54.0416C41.3897 54.0416 43.4654 51.9659 43.4654 49.4053C43.4654 46.8448 41.3897 44.769 38.8292 44.769C36.2686 44.769 34.1929 46.8448 34.1929 49.4053Z" fill="black"/>
<path opacity="0.64" d="M51.4337 49.4053C51.4337 51.9659 53.5095 54.0416 56.07 54.0416C58.6305 54.0416 60.7063 51.9659 60.7063 49.4053C60.7063 46.8448 58.6305 44.769 56.07 44.769C53.5095 44.769 51.4337 46.8448 51.4337 49.4053Z" fill="black"/>
<path opacity="0.64" d="M66.357 63.8936C66.357 66.4542 68.4327 68.5299 70.9932 68.5299C73.5537 68.5299 75.6295 66.4542 75.6295 63.8936C75.6295 61.3331 73.5538 59.2573 70.9932 59.2573C68.4327 59.2573 66.357 61.3331 66.357 63.8936Z" fill="black"/>
<path opacity="0.64" d="M83.4533 63.8936C83.4533 66.4542 85.5291 68.5299 88.0896 68.5299C90.6502 68.5299 92.7258 66.4542 92.7258 63.8936C92.7258 61.3331 90.6502 59.2573 88.0896 59.2573C85.5291 59.2573 83.4533 61.3331 83.4533 63.8936Z" fill="black"/>
<path opacity="0.64" d="M100.694 63.8936C100.694 66.4542 102.77 68.5299 105.331 68.5299C107.891 68.5299 109.967 66.4542 109.967 63.8936C109.967 61.3331 107.891 59.2573 105.331 59.2573C102.77 59.2573 100.694 61.3331 100.694 63.8936Z" fill="black"/>
<path opacity="0.64" d="M117.791 63.8936C117.791 66.4542 119.866 68.5299 122.427 68.5299C124.987 68.5299 127.063 66.4542 127.063 63.8936C127.063 61.3331 124.987 59.2573 122.427 59.2573C119.866 59.2573 117.791 61.3331 117.791 63.8936Z" fill="black"/>
<path opacity="0.64" d="M66.357 78.672C66.357 81.2326 68.4327 83.3083 70.9932 83.3083C73.5537 83.3083 75.6295 81.2326 75.6295 78.672C75.6295 76.1115 73.5538 74.0357 70.9932 74.0357C68.4327 74.0357 66.357 76.1115 66.357 78.672Z" fill="black"/>
<path opacity="0.64" d="M83.4533 78.672C83.4533 81.2326 85.5291 83.3083 88.0896 83.3083C90.6502 83.3083 92.7258 81.2326 92.7258 78.672C92.7258 76.1115 90.6502 74.0357 88.0896 74.0357C85.5291 74.0357 83.4533 76.1115 83.4533 78.672Z" fill="black"/>
<path opacity="0.64" d="M100.694 78.672C100.694 81.2326 102.77 83.3083 105.331 83.3083C107.891 83.3083 109.967 81.2326 109.967 78.672C109.967 76.1115 107.891 74.0357 105.331 74.0357C102.77 74.0357 100.694 76.1115 100.694 78.672Z" fill="black"/>
<path opacity="0.64" d="M117.791 78.672C117.791 81.2326 119.866 83.3083 122.427 83.3083C124.987 83.3083 127.063 81.2326 127.063 78.672C127.063 76.1115 124.987 74.0357 122.427 74.0357C119.866 74.0357 117.791 76.1115 117.791 78.672Z" fill="black"/>
<path opacity="0.64" d="M66.357 93.5948C66.357 96.1553 68.4326 98.2311 70.9932 98.2311C73.5537 98.2311 75.6295 96.1553 75.6295 93.5948C75.6295 91.0342 73.5537 88.9585 70.9932 88.9585C68.4326 88.9585 66.357 91.0342 66.357 93.5948Z" fill="black"/>
<path opacity="0.64" d="M83.4533 93.5948C83.4533 96.1553 85.5291 98.2311 88.0896 98.2311C90.6502 98.2311 92.7258 96.1553 92.7258 93.5948C92.7258 91.0342 90.6502 88.9585 88.0896 88.9585C85.5291 88.9585 83.4533 91.0342 83.4533 93.5948Z" fill="black"/>
<path opacity="0.64" d="M100.694 93.5948C100.694 96.1553 102.77 98.2311 105.331 98.2311C107.891 98.2311 109.967 96.1553 109.967 93.5948C109.967 91.0342 107.891 88.9585 105.331 88.9585C102.77 88.9585 100.694 91.0342 100.694 93.5948Z" fill="black"/>
<path opacity="0.64" d="M117.791 93.5948C117.791 96.1553 119.866 98.2311 122.427 98.2311C124.987 98.2311 127.063 96.1553 127.063 93.5948C127.063 91.0342 124.987 88.9585 122.427 88.9585C119.866 88.9585 117.791 91.0342 117.791 93.5948Z" fill="black"/>
<path opacity="0.64" d="M66.3569 108.518C66.3569 111.078 68.4325 113.154 70.9931 113.154C73.5536 113.154 75.6294 111.078 75.6294 108.518C75.6294 105.957 73.5536 103.881 70.9931 103.881C68.4325 103.881 66.3569 105.957 66.3569 108.518Z" fill="black"/>
<path opacity="0.64" d="M83.4533 108.518C83.4533 111.078 85.5291 113.154 88.0896 113.154C90.6502 113.154 92.7258 111.078 92.7258 108.518C92.7258 105.957 90.6502 103.881 88.0896 103.881C85.5291 103.881 83.4533 105.957 83.4533 108.518Z" fill="black"/>
<path opacity="0.64" d="M100.694 108.518C100.694 111.078 102.77 113.154 105.331 113.154C107.891 113.154 109.967 111.078 109.967 108.518C109.967 105.957 107.891 103.881 105.331 103.881C102.77 103.881 100.694 105.957 100.694 108.518Z" fill="black"/>
<path opacity="0.64" d="M117.791 108.518C117.791 111.078 119.866 113.154 122.427 113.154C124.987 113.154 127.063 111.078 127.063 108.518C127.063 105.957 124.987 103.881 122.427 103.881C119.866 103.881 117.791 105.957 117.791 108.518Z" fill="black"/>
<path opacity="0.64" d="M66.357 4.6363C66.357 7.19684 68.4326 9.27257 70.9932 9.27257C73.5537 9.27257 75.6295 7.19684 75.6295 4.6363C75.6295 2.07575 73.5537 -9.0734e-08 70.9932 -2.02659e-07C68.4326 -3.14584e-07 66.357 2.07575 66.357 4.6363Z" fill="black"/>
<path opacity="0.64" d="M83.4533 4.6363C83.4533 7.19684 85.5291 9.27257 88.0896 9.27257C90.6502 9.27257 92.7258 7.19684 92.7258 4.6363C92.7258 2.07575 90.6502 -9.07301e-08 88.0896 -2.02655e-07C85.5291 -3.1458e-07 83.4533 2.07575 83.4533 4.6363Z" fill="black"/>
<path opacity="0.64" d="M100.694 4.6363C100.694 7.19684 102.77 9.27257 105.331 9.27257C107.891 9.27257 109.967 7.19684 109.967 4.6363C109.967 2.07575 107.891 -9.0734e-08 105.331 -2.02659e-07C102.77 -3.14584e-07 100.694 2.07575 100.694 4.6363Z" fill="black"/>
<path opacity="0.64" d="M117.791 4.6363C117.791 7.19684 119.866 9.27257 122.427 9.27257C124.987 9.27257 127.063 7.19684 127.063 4.6363C127.063 2.07575 124.987 -9.0734e-08 122.427 -2.02659e-07C119.866 -3.14584e-07 117.791 2.07575 117.791 4.6363Z" fill="black"/>
<path opacity="0.64" d="M66.3569 19.5596C66.3569 22.1202 68.4325 24.1959 70.9931 24.1959C73.5536 24.1959 75.6294 22.1202 75.6294 19.5596C75.6294 16.9991 73.5536 14.9233 70.9931 14.9233C68.4325 14.9233 66.3569 16.9991 66.3569 19.5596Z" fill="black"/>
<path opacity="0.64" d="M83.4533 19.5596C83.4533 22.1202 85.5291 24.1959 88.0896 24.1959C90.6502 24.1959 92.7258 22.1202 92.7258 19.5596C92.7258 16.9991 90.6502 14.9233 88.0896 14.9233C85.5291 14.9233 83.4533 16.9991 83.4533 19.5596Z" fill="black"/>
<path opacity="0.64" d="M100.694 19.5596C100.694 22.1202 102.77 24.1959 105.331 24.1959C107.891 24.1959 109.967 22.1202 109.967 19.5596C109.967 16.9991 107.891 14.9233 105.331 14.9233C102.77 14.9233 100.694 16.9991 100.694 19.5596Z" fill="black"/>
<path opacity="0.64" d="M117.791 19.5591C117.791 22.1197 119.866 24.1954 122.427 24.1954C124.987 24.1954 127.063 22.1197 127.063 19.5591C127.063 16.9986 124.987 14.9229 122.427 14.9229C119.866 14.9229 117.791 16.9986 117.791 19.5591Z" fill="black"/>
<path opacity="0.64" d="M66.3569 34.4825C66.3569 37.043 68.4325 39.1187 70.9931 39.1187C73.5536 39.1187 75.6294 37.043 75.6294 34.4825C75.6294 31.9219 73.5536 29.8462 70.9931 29.8462C68.4325 29.8462 66.3569 31.9219 66.3569 34.4825Z" fill="black"/>
<path opacity="0.64" d="M83.4533 34.4825C83.4533 37.043 85.5291 39.1187 88.0896 39.1187C90.6502 39.1187 92.7258 37.043 92.7258 34.4825C92.7258 31.9219 90.6502 29.8462 88.0896 29.8462C85.5291 29.8462 83.4533 31.9219 83.4533 34.4825Z" fill="black"/>
<path opacity="0.64" d="M100.694 34.4825C100.694 37.043 102.77 39.1187 105.331 39.1187C107.891 39.1187 109.967 37.043 109.967 34.4825C109.967 31.9219 107.891 29.8462 105.331 29.8462C102.77 29.8462 100.694 31.9219 100.694 34.4825Z" fill="black"/>
<path opacity="0.64" d="M117.791 34.4825C117.791 37.043 119.866 39.1187 122.427 39.1187C124.987 39.1187 127.063 37.043 127.063 34.4825C127.063 31.9219 124.987 29.8462 122.427 29.8462C119.866 29.8462 117.791 31.9219 117.791 34.4825Z" fill="black"/>
<path opacity="0.64" d="M66.3571 49.4053C66.3571 51.9659 68.4328 54.0416 70.9933 54.0416C73.5539 54.0416 75.6296 51.9659 75.6296 49.4053C75.6296 46.8448 73.5539 44.769 70.9933 44.769C68.4328 44.769 66.3571 46.8448 66.3571 49.4053Z" fill="black"/>
<path opacity="0.64" d="M83.4533 49.4053C83.4533 51.9659 85.5291 54.0416 88.0896 54.0416C90.6502 54.0416 92.7258 51.9659 92.7258 49.4053C92.7258 46.8448 90.6502 44.769 88.0896 44.769C85.5291 44.769 83.4533 46.8448 83.4533 49.4053Z" fill="black"/>
<path opacity="0.64" d="M100.694 49.4053C100.694 51.9659 102.77 54.0416 105.331 54.0416C107.891 54.0416 109.967 51.9659 109.967 49.4053C109.967 46.8448 107.891 44.769 105.331 44.769C102.77 44.769 100.694 46.8448 100.694 49.4053Z" fill="black"/>
<path opacity="0.64" d="M117.791 49.4053C117.791 51.9659 119.866 54.0416 122.427 54.0416C124.987 54.0416 127.063 51.9659 127.063 49.4053C127.063 46.8448 124.987 44.769 122.427 44.769C119.866 44.769 117.791 46.8448 117.791 49.4053Z" fill="black"/>
</g>
</svg>
