<svg width="110" height="121" viewBox="0 0 110 121" fill="none" xmlns="http://www.w3.org/2000/svg">
<g clip-path="url(#clip0_1400_14610)">
<path d="M60.1457 47.9779C62.989 48.2616 65.8566 48.5454 68.6998 48.2493C71.4945 47.9532 74.1919 47.1143 76.9501 46.6208C80.6561 45.9546 84.4714 45.9053 88.1895 46.4975C91.5309 47.0279 94.8238 48.0519 98.2016 47.9655C101.58 47.8792 105.225 46.3371 106.573 43.1912C106.744 42.8087 106.865 42.3893 106.829 41.9575C106.707 40.7485 105.334 40.1563 104.168 39.8355C90.729 36.1345 76.7071 34.8515 62.8067 35.5423C56.2697 35.8631 49.7326 36.7637 43.2442 37.3682C40.571 37.6149 31.9926 42.5743 36.7557 45.5845C37.9586 46.3494 40.9963 46.0657 42.4058 46.2014C44.3742 46.3988 46.3426 46.5962 48.311 46.7935C52.2721 47.1883 56.2089 47.5831 60.1457 47.9779Z" fill="#545A5C"/>
<path d="M43.8266 28.9795C47.8396 28.9795 51.0927 25.6765 51.0927 21.6021C51.0927 17.5276 47.8396 14.2246 43.8266 14.2246C39.8137 14.2246 36.5605 17.5276 36.5605 21.6021C36.5605 25.6765 39.8137 28.9795 43.8266 28.9795Z" fill="#F0CA50"/>
<path d="M43.8282 28.7451C47.7137 28.7451 50.8634 25.547 50.8634 21.602C50.8634 17.657 47.7137 14.459 43.8282 14.459C39.9428 14.459 36.793 17.657 36.793 21.602C36.793 25.547 39.9428 28.7451 43.8282 28.7451Z" fill="#F0CA50"/>
<path opacity="0.78" d="M48.1826 26.0381C50.5077 23.6774 50.5077 19.8499 48.1826 17.4892C45.8575 15.1285 42.0878 15.1285 39.7627 17.4892C37.4376 19.8499 37.4376 23.6774 39.7627 26.0381C42.0878 28.3989 45.8575 28.3989 48.1826 26.0381Z" fill="white"/>
<path d="M43.3899 26.2527V25.5988C42.7095 25.5742 42.0534 25.4138 41.5795 25.2041C41.4094 25.13 41.3243 24.9327 41.3729 24.7599L41.543 24.1431C41.6038 23.921 41.8468 23.7977 42.0534 23.8964C42.5273 24.0937 43.0983 24.2541 43.7302 24.2541C44.3742 24.2541 44.8602 24.0321 44.8602 23.5756C44.8602 23.1561 44.4835 22.9217 43.5844 22.675C42.2964 22.3172 41.3729 21.7497 41.3729 20.5901C41.3729 19.5538 42.1263 18.7519 43.4264 18.5422V17.8883C43.4264 17.6786 43.5965 17.5059 43.8031 17.5059H44.1797C44.3863 17.5059 44.5564 17.6786 44.5564 17.8883V18.4805C45.1761 18.5051 45.6378 18.6162 45.9902 18.7395C46.1725 18.8012 46.2818 19.011 46.2211 19.196L46.0752 19.7635C46.0145 19.9856 45.7836 20.0966 45.5771 20.0226C45.249 19.8992 44.7751 19.7635 44.1676 19.7635C43.4021 19.7635 43.1712 20.0843 43.1712 20.3803C43.1712 20.7381 43.633 20.9849 44.6415 21.2933C46.0752 21.7251 46.6706 22.3296 46.6706 23.4152C46.6706 24.4145 45.9416 25.3028 44.5321 25.5248V26.265C44.5321 26.4748 44.362 26.6475 44.1554 26.6475H43.7788C43.5601 26.6351 43.3899 26.4624 43.3899 26.2527Z" fill="#F0CA50"/>
<path d="M64.5204 25.71C71.5128 25.71 77.1814 19.9546 77.1814 12.855C77.1814 5.75539 71.5128 0 64.5204 0C57.5279 0 51.8594 5.75539 51.8594 12.855C51.8594 19.9546 57.5279 25.71 64.5204 25.71Z" fill="#F0CA50"/>
<path d="M64.5209 25.2781C71.2785 25.2781 76.7566 19.716 76.7566 12.8549C76.7566 5.99371 71.2785 0.431641 64.5209 0.431641C57.7633 0.431641 52.2852 5.99371 52.2852 12.8549C52.2852 19.716 57.7633 25.2781 64.5209 25.2781Z" fill="#F0CA50"/>
<path opacity="0.78" d="M65.1289 23.6303C70.843 23.4371 75.3208 18.5774 75.1306 12.7758C74.9403 6.97425 70.1539 2.42774 64.4399 2.62092C58.7259 2.8141 54.248 7.67382 54.4383 13.4754C54.6285 19.277 59.4149 23.8235 65.1289 23.6303Z" fill="white"/>
<path d="M63.7673 20.9359V19.7885C62.5887 19.7392 61.4344 19.4554 60.6082 19.0977C60.3166 18.962 60.1586 18.6289 60.2437 18.3205L60.5353 17.2595C60.6446 16.8647 61.0577 16.6673 61.4223 16.8277C62.2364 17.1731 63.257 17.4569 64.3384 17.4569C65.4684 17.4569 66.319 17.0621 66.319 16.2725C66.319 15.557 65.6629 15.1252 64.0954 14.6934C61.8475 14.0642 60.2437 13.0773 60.2437 11.0664C60.2437 9.25285 61.5438 7.87113 63.816 7.50102V6.35369C63.816 5.98359 64.1076 5.6875 64.4721 5.6875H65.1282C65.4927 5.6875 65.7844 5.98359 65.7844 6.35369V7.37765C66.8658 7.427 67.6677 7.61205 68.2874 7.83412C68.6033 7.94515 68.7856 8.30292 68.7005 8.63601L68.4332 9.62296C68.336 10.0054 67.935 10.2151 67.5705 10.0671C66.9873 9.84502 66.1732 9.61062 65.1161 9.61062C63.7795 9.61062 63.3907 10.1781 63.3907 10.6839C63.3907 11.3131 64.1926 11.7326 65.9423 12.2754C68.4332 13.0403 69.466 14.0889 69.466 15.9764C69.466 17.7036 68.2023 19.2704 65.7479 19.6528V20.9359C65.7479 21.306 65.4563 21.6021 65.0918 21.6021H64.4356C64.059 21.6021 63.7673 21.306 63.7673 20.9359Z" fill="#F0CA50"/>
<path d="M47.661 47.6487C53.5489 47.6487 58.322 42.8025 58.322 36.8244C58.322 30.8462 53.5489 26 47.661 26C41.7731 26 37 30.8462 37 36.8244C37 42.8025 41.7731 47.6487 47.661 47.6487Z" fill="#F0CA50"/>
<path d="M47.6623 47.2849C53.3524 47.2849 57.9652 42.6014 57.9652 36.8241C57.9652 31.0467 53.3524 26.3633 47.6623 26.3633C41.9721 26.3633 37.3594 31.0467 37.3594 36.8241C37.3594 42.6014 41.9721 47.2849 47.6623 47.2849Z" fill="#F0CA50"/>
<path opacity="0.78" d="M48.1729 45.8971C52.9843 45.7344 56.7548 41.6424 56.5946 36.7572C56.4344 31.8721 52.4041 28.0438 47.5927 28.2064C42.7813 28.3691 39.0107 32.4612 39.1709 37.3463C39.3312 42.2314 43.3615 46.0598 48.1729 45.8971Z" fill="white"/>
<path d="M47.0255 43.6287V42.6626C46.033 42.6211 45.0611 42.3821 44.3653 42.0809C44.1198 41.9666 43.9868 41.6861 44.0584 41.4264L44.3039 40.5331C44.396 40.2007 44.7439 40.0344 45.0508 40.1695C45.7363 40.4604 46.5957 40.6993 47.5063 40.6993C48.4578 40.6993 49.174 40.3669 49.174 39.702C49.174 39.0995 48.6215 38.7359 47.3017 38.3724C45.4089 37.8426 44.0584 37.0115 44.0584 35.3183C44.0584 33.7912 45.1531 32.6278 47.0664 32.3161V31.35C47.0664 31.0384 47.3119 30.7891 47.6189 30.7891H48.1714C48.4783 30.7891 48.7239 31.0384 48.7239 31.35V32.2122C49.6344 32.2538 50.3097 32.4096 50.8315 32.5966C51.0975 32.6901 51.251 32.9913 51.1794 33.2718L50.9543 34.1029C50.8724 34.4249 50.5348 34.6015 50.2278 34.4768C49.7367 34.2898 49.0513 34.0925 48.1611 34.0925C47.0357 34.0925 46.7083 34.5703 46.7083 34.9962C46.7083 35.526 47.3836 35.8792 48.8569 36.3363C50.9543 36.9804 51.8239 37.8633 51.8239 39.4527C51.8239 40.907 50.7599 42.2263 48.6932 42.5484V43.6287C48.6932 43.9404 48.4476 44.1897 48.1407 44.1897H47.5882C47.271 44.1897 47.0255 43.9404 47.0255 43.6287Z" fill="#F0CA50"/>
<path d="M70.6564 59.3038C77.8502 59.3038 83.6819 53.3827 83.6819 46.0786C83.6819 38.7746 77.8502 32.8535 70.6564 32.8535C63.4626 32.8535 57.6309 38.7746 57.6309 46.0786C57.6309 53.3827 63.4626 59.3038 70.6564 59.3038Z" fill="#F0CA50"/>
<path d="M70.6565 58.8598C77.6087 58.8598 83.2445 53.1376 83.2445 46.0788C83.2445 39.0201 77.6087 33.2979 70.6565 33.2979C63.7042 33.2979 58.0684 39.0201 58.0684 46.0788C58.0684 53.1376 63.7042 58.8598 70.6565 58.8598Z" fill="#F0CA50"/>
<path opacity="0.78" d="M81.3012 48.8386C82.6536 43.0234 79.1069 37.196 73.3794 35.8229C67.6519 34.4497 61.9125 38.0508 60.5601 43.866C59.2077 49.6813 62.7544 55.5087 68.4819 56.8818C74.2094 58.255 79.9488 54.6539 81.3012 48.8386Z" fill="white"/>
<path d="M69.8903 54.3937V53.2217C68.6874 53.1723 67.4845 52.8886 66.6339 52.5061C66.3302 52.3704 66.1722 52.025 66.2573 51.7042L66.5489 50.6062C66.6582 50.1991 67.0835 50.0017 67.4723 50.1621C68.3107 50.5199 69.3557 50.8036 70.4735 50.8036C71.64 50.8036 72.5027 50.4089 72.5027 49.5823C72.5027 48.8421 71.8344 48.398 70.2184 47.9538C67.9097 47.3123 66.2573 46.2883 66.2573 44.2281C66.2573 42.3652 67.5938 40.9465 69.9268 40.564V39.392C69.9268 39.0096 70.2305 38.7012 70.6072 38.7012H71.2876C71.6643 38.7012 71.9681 39.0096 71.9681 39.392V40.453C73.0859 40.5024 73.9 40.6874 74.544 40.9218C74.8721 41.0452 75.0543 41.4029 74.9693 41.7484L74.702 42.76C74.5926 43.1548 74.1916 43.3645 73.815 43.2165C73.2196 42.9821 72.3812 42.7477 71.2876 42.7477C69.9025 42.7477 69.5136 43.3275 69.5136 43.8456C69.5136 44.4872 70.3399 44.9313 72.1382 45.4864C74.702 46.2637 75.7712 47.3493 75.7712 49.2985C75.7712 51.0874 74.4711 52.6788 71.9438 53.086V54.406C71.9438 54.7884 71.64 55.0969 71.2633 55.0969H70.5829C70.1819 55.0845 69.8903 54.7761 69.8903 54.3937Z" fill="#F0CA50"/>
<path d="M88.7976 21.244C93.3608 21.244 97.0601 17.488 97.0601 12.8549C97.0601 8.22174 93.3608 4.46582 88.7976 4.46582C84.2344 4.46582 80.5352 8.22174 80.5352 12.8549C80.5352 17.488 84.2344 21.244 88.7976 21.244Z" fill="#F0CA50"/>
<path d="M88.7959 20.9726C93.2115 20.9726 96.7911 17.3382 96.7911 12.855C96.7911 8.3717 93.2115 4.7373 88.7959 4.7373C84.3803 4.7373 80.8008 8.3717 80.8008 12.855C80.8008 17.3382 84.3803 20.9726 88.7959 20.9726Z" fill="#F0CA50"/>
<path opacity="0.78" d="M92.3621 18.9738C95.5949 17.0691 96.6948 12.864 94.8188 9.58166C92.9428 6.29928 88.8013 5.1825 85.5684 7.08726C82.3356 8.99202 81.2357 13.197 83.1117 16.4794C84.9877 19.7618 89.1292 20.8786 92.3621 18.9738Z" fill="white"/>
<path d="M88.3105 18.1352V17.3826C87.5451 17.3456 86.7796 17.1729 86.2449 16.9262C86.0505 16.8398 85.9533 16.6177 86.0141 16.4204L86.1963 15.7295C86.2692 15.4704 86.5366 15.347 86.7796 15.4457C87.3142 15.6678 87.9703 15.8529 88.6872 15.8529C89.4284 15.8529 89.9752 15.5938 89.9752 15.0756C89.9752 14.6068 89.5499 14.3231 88.5171 14.0517C87.0469 13.6446 86.0019 12.9907 86.0019 11.683C86.0019 10.4987 86.8525 9.59807 88.3349 9.35133V8.59878C88.3349 8.36438 88.5293 8.16699 88.7601 8.16699H89.1975C89.4284 8.16699 89.6228 8.36438 89.6228 8.59878V9.26497C90.3276 9.28965 90.85 9.41302 91.2632 9.56106C91.4697 9.63508 91.5912 9.86948 91.5305 10.0792L91.3604 10.7207C91.2996 10.9675 91.0323 11.1032 90.8014 11.0168C90.4248 10.8688 89.8901 10.7207 89.1975 10.7207C88.3227 10.7207 88.0675 11.0908 88.0675 11.4239C88.0675 11.831 88.59 12.1148 89.7322 12.4602C91.3604 12.9537 92.0408 13.6446 92.0408 14.8782C92.0408 16.0132 91.2146 17.0249 89.6107 17.2839V18.1228C89.6107 18.3572 89.4163 18.5546 89.1854 18.5546H88.748C88.4928 18.567 88.3105 18.3696 88.3105 18.1352Z" fill="#F0CA50"/>
<path d="M108.214 110.513C112.005 105.455 108.457 74.2676 106.622 68.5433C105.042 63.6086 101.847 60.9931 103.244 55.5649C104.082 52.2956 104.848 49.0017 105.771 45.7571C106.027 44.8318 106.78 43.9189 106.962 43.0183C107.108 42.2781 106.44 41.3528 106.537 40.8594C105.784 44.6098 100.547 45.3623 97.5211 45.4487C93.4506 45.5597 89.4652 44.4864 85.4676 43.8572C81.2999 43.2034 77.0229 43.2527 72.8674 43.9806C70.8018 44.3384 68.7604 44.8812 66.6705 45.1156C62.7459 45.5721 58.1772 45.1526 54.2404 44.8195C50.8503 44.5481 47.5089 43.8819 44.1189 43.6598C42.0654 43.5241 39.9755 43.7832 37.9463 43.4501C37.351 43.3514 35.9293 42.6235 35.3947 43.0553C34.6292 43.6722 35.662 44.9552 36.1966 45.3377C37.8127 46.522 39.3801 46.4233 40.741 48.1505C41.8953 49.6062 42.3449 51.5184 42.029 53.3566C41.6158 55.75 40.2914 57.5388 39.1007 59.5744C38.0557 61.3756 37.5454 63.1521 37.0107 65.2C35.8686 69.6043 35.018 74.0826 34.4348 78.5855C33.1833 88.0972 33.0132 97.7817 33.9002 107.33C31.2513 124.343 96.9378 125.564 108.214 110.513Z" fill="#EE4D4A"/>
<path d="M41.3731 49.1377C52.3937 57.2924 70.0851 61.2772 103.232 55.5652C105.03 56.3548 104.216 57.5514 102.916 58.8098C64.9575 62.7453 49.4047 57.8969 42.0778 51.5311C41.6039 50.8772 40.6319 50.6798 41.3731 49.1377Z" fill="white"/>
<path d="M72.2523 102.589L72.1697 100.08C69.6656 100.063 67.1699 99.5352 65.3848 98.8C64.7485 98.5318 64.4014 97.8139 64.5584 97.1133L65.0873 94.7518C65.2856 93.8868 66.1616 93.4111 66.955 93.7225C68.7235 94.4231 70.897 94.9508 73.211 94.8643C75.6159 94.7778 77.3844 93.8609 77.3265 92.1049C77.277 90.522 75.8555 89.631 72.4755 88.8179C67.6574 87.6242 64.1534 85.5742 64.0047 81.1713C63.8724 77.201 66.55 74.061 71.335 73.0749L71.2524 70.5664C71.2276 69.762 71.8309 69.0786 72.5994 69.0527L74.0126 69.0008C74.7812 68.9748 75.434 69.6063 75.4588 70.4107L75.5332 72.6684C77.8472 72.677 79.5496 73.0317 80.9049 73.4728C81.5991 73.6977 81.9958 74.4589 81.8305 75.1942L81.3429 77.374C81.1529 78.213 80.3182 78.7061 79.5331 78.4293C78.2852 77.9881 76.5332 77.547 74.2688 77.6248C71.4094 77.7286 70.6325 79.0002 70.6739 80.1074C70.7152 81.4741 72.4672 82.3564 76.2191 83.4117C81.5826 84.8822 83.8635 87.1139 83.9957 91.2572C84.1197 95.0632 81.5413 98.5751 76.3431 99.6217L76.434 102.433C76.4588 103.237 75.8555 103.921 75.0869 103.947L73.6738 103.999C72.9217 104.033 72.2771 103.402 72.2523 102.589Z" fill="white"/>
<path d="M96.8899 49.1259C104.131 49.1259 110 43.1661 110 35.8144C110 28.4627 104.131 22.5029 96.8899 22.5029C89.6491 22.5029 83.7793 28.4627 83.7793 35.8144C83.7793 43.1661 89.6491 49.1259 96.8899 49.1259Z" fill="#F0CA50"/>
<path d="M96.89 48.682C103.889 48.682 109.563 42.9211 109.563 35.8146C109.563 28.7082 103.889 22.9473 96.89 22.9473C89.8908 22.9473 84.2168 28.7082 84.2168 35.8146C84.2168 42.9211 89.8908 48.682 96.89 48.682Z" fill="#F0CA50"/>
<path opacity="0.78" d="M107.594 38.6673C108.991 32.8207 105.456 26.931 99.6972 25.5124C93.9388 24.0937 88.1381 27.6833 86.7408 33.53C85.3436 39.3766 88.879 45.2662 94.6374 46.6849C100.396 48.1035 106.197 44.5139 107.594 38.6673Z" fill="white"/>
<path d="M96.0264 44.1916L96.0386 43.0072C94.8235 42.9456 93.6206 42.6371 92.7701 42.2547C92.4663 42.119 92.3083 41.7612 92.4055 41.4405L92.7093 40.3425C92.8187 39.9354 93.2561 39.738 93.6327 39.8983C94.4711 40.2685 95.5161 40.5645 96.6461 40.5769C97.8126 40.5892 98.6996 40.1944 98.6996 39.3679C98.7117 38.6277 98.0313 38.1712 96.4153 37.7024C94.0945 37.0362 92.442 35.9876 92.4663 33.9026C92.4906 32.0274 93.8515 30.6087 96.1965 30.2509L96.2087 29.0666C96.2087 28.6841 96.5246 28.3757 96.9013 28.3881L97.5817 28.4004C97.9584 28.4004 98.2622 28.7211 98.25 29.1036L98.2379 30.1646C99.3679 30.2262 100.182 30.4236 100.826 30.6704C101.154 30.7937 101.336 31.1638 101.239 31.5093L100.96 32.5332C100.85 32.928 100.437 33.1377 100.06 32.9897C99.4651 32.7553 98.6145 32.5086 97.521 32.4962C96.1358 32.4839 95.7227 33.0637 95.7227 33.5819C95.7105 34.2234 96.5489 34.6799 98.3472 35.2597C100.923 36.0739 101.98 37.1719 101.956 39.1335C101.932 40.9346 100.607 42.5261 98.0556 42.9085L98.0434 44.2409C98.0434 44.6234 97.7275 44.9318 97.3509 44.9195L96.6704 44.9071C96.318 44.8824 96.0143 44.574 96.0264 44.1916Z" fill="#F0CA50"/>
<path d="M48.5175 79.166C41.8954 66.9648 26.78 62.5235 14.7629 69.2471C2.73378 75.9831 -1.64046 91.3301 4.9938 103.531C11.6159 115.732 26.7313 120.174 38.7484 113.45C50.7654 106.714 55.1396 91.3795 48.5175 79.166Z" fill="white"/>
<path d="M37.7886 113.956C37.4848 114.141 37.1689 114.326 36.853 114.511C36.7437 114.573 36.6343 114.635 36.5371 114.684C36.2941 114.82 36.0511 114.943 35.7959 115.066C23.9611 120.963 9.52616 116.436 3.09845 104.592C-3.04979 93.2918 0.255194 79.2894 10.3281 71.949C11.13 71.3568 11.9806 70.814 12.8676 70.3205C13.1835 70.1478 13.5116 69.9751 13.8275 69.8147C14.1434 69.6543 14.4593 69.5063 14.7752 69.3582C15.7473 68.9141 16.7315 68.544 17.74 68.2479C19.2224 67.7914 20.7291 67.483 22.2358 67.3226C26.9138 66.8168 31.6282 67.6928 35.8081 69.7653C40.243 71.9613 44.0705 75.5267 46.6343 80.2393C53.0742 92.1198 49.0887 106.973 37.7886 113.956Z" fill="#F0CA50"/>
<path d="M25.0296 115.671C22.9154 115.671 20.789 115.363 18.7112 114.758C12.9032 113.056 8.09156 109.145 5.1754 103.778C2.25923 98.3993 1.5788 92.1939 3.25559 86.2968C4.93238 80.3998 8.78414 75.5144 14.0697 72.5536C19.3674 69.5927 25.4792 68.9019 31.2872 70.6043C37.0952 72.3068 41.9069 76.2176 44.823 81.5842C47.7392 86.963 48.4196 93.1685 46.7428 99.0655C45.066 104.963 41.2143 109.848 35.9287 112.809C32.5266 114.709 28.7963 115.671 25.0296 115.671ZM6.35401 103.112C9.10006 108.17 13.6201 111.834 19.0879 113.438C24.5557 115.042 30.303 114.388 35.2847 111.6C40.2665 108.812 43.8753 104.222 45.4549 98.6707C47.0344 93.1191 46.3905 87.2838 43.6444 82.2257C40.8984 77.1676 36.3783 73.5035 30.9105 71.8997C25.4427 70.2959 19.6954 70.9498 14.7137 73.7379C9.73189 76.526 6.12315 81.1154 4.54356 86.6669C2.96397 92.2185 3.60796 98.0539 6.35401 103.112Z" fill="#FFA412"/>
<path d="M35.942 94.8705C35.8934 94.7471 35.8448 94.6237 35.7841 94.5127C35.3831 93.6121 34.8728 92.8842 34.2774 92.3291C33.5969 91.6999 32.8071 91.2311 31.908 90.9103C31.0088 90.5896 30.0003 90.4045 28.8946 90.3305C27.7889 90.2565 26.5738 90.2441 25.2737 90.2811C24.4718 90.3058 23.7792 90.2935 23.2081 90.2441C22.637 90.1948 22.151 90.0838 21.75 89.9234C21.3491 89.763 21.0331 89.5409 20.778 89.2572C20.535 88.9734 20.3284 88.628 20.1583 88.2209C20.0003 87.8138 19.9031 87.4067 19.8788 87.0119C19.8545 86.6171 19.9153 86.2347 20.0611 85.8769C20.2069 85.5191 20.4378 85.186 20.7537 84.8776C21.0696 84.5692 21.4949 84.3101 22.0173 84.1004C22.9894 83.7056 23.8885 83.7056 24.7269 84.1251C25.5653 84.5445 26.2458 85.4081 26.7804 86.7281L31.8472 84.6432C31.4098 83.5452 30.8509 82.6076 30.1947 81.8551C29.5265 81.1025 28.7853 80.5104 27.9469 80.0909C27.1206 79.6714 26.2093 79.437 25.2251 79.363C24.2409 79.289 23.2203 79.4 22.1753 79.6838L20.7415 76.0938L17.9347 77.2534L19.3442 80.7941C18.3357 81.3246 17.473 81.9414 16.7683 82.657C16.0635 83.3602 15.5289 84.125 15.1522 84.9516C14.7755 85.7782 14.5811 86.6418 14.5568 87.5424C14.5325 88.443 14.7148 89.3682 15.0915 90.3058C15.5289 91.3915 16.0757 92.2427 16.7561 92.8719C17.4365 93.5011 18.2263 93.9699 19.1255 94.2783C20.0246 94.5867 21.0331 94.7718 22.1389 94.8335C23.2567 94.8951 24.4596 94.8951 25.7719 94.8335C26.5252 94.7841 27.1935 94.7964 27.7525 94.8458C28.3114 94.8951 28.7974 95.0062 29.1984 95.1666C29.5994 95.3393 29.9396 95.5613 30.2069 95.8697C30.4742 96.1658 30.7051 96.5483 30.8873 97.0171C31.0453 97.4242 31.1304 97.8313 31.1304 98.2384C31.1304 98.6455 31.0453 99.028 30.863 99.3981C30.6808 99.7682 30.4135 100.114 30.0611 100.422C29.7087 100.73 29.247 101.002 28.7002 101.236C28.2263 101.434 27.7282 101.569 27.2178 101.631C26.7075 101.693 26.2093 101.643 25.7233 101.483C25.2373 101.323 24.7755 101.014 24.3503 100.582C23.925 100.151 23.5605 99.5461 23.2446 98.7566L18.1777 100.842C18.7002 102.162 19.3685 103.21 20.1704 103.987C20.9724 104.765 21.8472 105.32 22.795 105.653C23.7427 105.986 24.7391 106.134 25.7719 106.085C26.8047 106.048 27.8375 105.875 28.846 105.567L30.1583 108.836L32.9408 107.688L31.6285 104.37C32.637 103.839 33.5119 103.223 34.2288 102.532C34.8971 101.89 35.4195 101.199 35.7962 100.447C35.8327 100.385 35.857 100.323 35.8813 100.262C36.2579 99.4474 36.4645 98.5962 36.4888 97.6833C36.5131 96.7827 36.3308 95.8327 35.942 94.8705Z" fill="white"/>
</g>
<defs>
<clipPath id="clip0_1400_14610">
<rect width="110" height="121" fill="white"/>
</clipPath>
</defs>
</svg>
