<svg width="212" height="130" viewBox="0 0 212 130" fill="none" xmlns="http://www.w3.org/2000/svg">
<path d="M180.481 5.34505L202.793 2.24707L200.753 24.4326L180.481 5.34505Z" fill="#5C9EDC"/>
<path d="M197.276 17.2832L188.039 8.58691L152.741 45.7697L161.978 54.4661L197.276 17.2832Z" fill="#5C9EDC"/>
<path d="M197.877 39.5881L211.525 37.7227L210.287 51.2805L197.877 39.5881Z" fill="#5C9EDC"/>
<path d="M208.148 46.9387L202.484 41.6064L180.883 64.3616L186.546 69.6938L208.148 46.9387Z" fill="#5C9EDC"/>
<path d="M38.3477 33.1252L51.9956 31.2598L50.7579 44.8176L38.3477 33.1252Z" fill="#5C9EDC"/>
<path d="M48.617 40.4768L42.9531 35.1445L21.3513 57.8997L27.0152 63.2319L48.617 40.4768Z" fill="#5C9EDC"/>
<path d="M63.8331 71.6872L52.6025 61.1143L-0.000252557 116.525L11.2304 127.098L63.8331 71.6872Z" fill="#5C9EDC"/>
<path d="M206.809 97.5479H179.111V103.111H206.809V97.5479Z" fill="#F1CA50"/>
<g opacity="0.3">
<g opacity="0.3">
<g opacity="0.3">
<g opacity="0.3">
<path opacity="0.3" d="M179.578 97.5479C188.242 98.7138 197.775 98.7471 206.406 97.5479H179.578Z" fill="#163459"/>
</g>
</g>
</g>
</g>
<path d="M206.843 97.5532C206.843 97.6198 200.655 97.6864 193.028 97.6864C185.401 97.6864 179.213 97.6198 179.213 97.5532C179.213 97.4865 185.401 97.4199 193.028 97.4199C200.655 97.4532 206.843 97.4865 206.843 97.5532Z" fill="#163459"/>
<path d="M207.443 103.012H179.746V108.575H207.443V103.012Z" fill="#F1CA50"/>
<g opacity="0.3">
<g opacity="0.3">
<g opacity="0.3">
<g opacity="0.3">
<path opacity="0.3" d="M180.183 103.012C188.846 104.178 198.38 104.211 207.01 103.012H180.183Z" fill="#163459"/>
</g>
</g>
</g>
</g>
<path d="M207.441 103.047C207.441 103.114 201.252 103.181 193.626 103.181C185.999 103.181 179.811 103.114 179.811 103.047C179.811 102.981 185.999 102.914 193.626 102.914C201.252 102.914 207.441 102.981 207.441 103.047Z" fill="#163459"/>
<path d="M204.805 108.409H177.107V113.972H204.805V108.409Z" fill="#F1CA50"/>
<g opacity="0.3">
<g opacity="0.3">
<g opacity="0.3">
<g opacity="0.3">
<path opacity="0.3" d="M177.571 108.409C186.235 109.575 195.769 109.608 204.399 108.409H177.571Z" fill="#163459"/>
</g>
</g>
</g>
</g>
<path d="M204.831 108.408C204.831 108.474 198.642 108.541 191.015 108.541C183.389 108.541 177.2 108.474 177.2 108.408C177.2 108.341 183.389 108.274 191.015 108.274C198.642 108.308 204.831 108.341 204.831 108.408Z" fill="#163459"/>
<path d="M208.044 113.905H180.347V119.268H208.044V113.905Z" fill="#F1CA50"/>
<g opacity="0.3">
<g opacity="0.3">
<g opacity="0.3">
<g opacity="0.3">
<path opacity="0.3" d="M180.813 113.937C189.477 115.436 199.011 115.469 207.641 113.937H180.813Z" fill="#163459"/>
</g>
</g>
</g>
</g>
<path d="M208.075 113.942C208.075 114.008 201.886 114.075 194.26 114.075C186.633 114.075 180.444 114.008 180.444 113.942C180.444 113.875 186.633 113.809 194.26 113.809C201.886 113.809 208.075 113.875 208.075 113.942Z" fill="#163459"/>
<path d="M206.269 119.271H178.571V124.635H206.269V119.271Z" fill="#F1CA50"/>
<g opacity="0.3">
<g opacity="0.3">
<g opacity="0.3">
<g opacity="0.3">
<path opacity="0.3" d="M179.001 119.271C187.665 120.97 197.198 121.037 205.829 119.271H179.001Z" fill="#163459"/>
</g>
</g>
</g>
</g>
<path d="M206.271 119.306C206.271 119.373 200.083 119.439 192.456 119.439C184.829 119.439 178.641 119.373 178.641 119.306C178.641 119.239 184.829 119.173 192.456 119.173C200.083 119.173 206.271 119.239 206.271 119.306Z" fill="#163459"/>
<path d="M207.843 124.565H180.146V129.929H207.843V124.565Z" fill="#F1CA50"/>
<g opacity="0.3">
<g opacity="0.3">
<g opacity="0.3">
<g opacity="0.3">
<path opacity="0.3" d="M180.616 124.563C189.28 126.062 198.813 126.096 207.444 124.563H180.616Z" fill="#163459"/>
</g>
</g>
</g>
</g>
<path d="M207.875 124.564C207.875 124.631 201.687 124.697 194.06 124.697C186.434 124.697 180.245 124.631 180.245 124.564C180.245 124.497 186.434 124.431 194.06 124.431C201.687 124.431 207.875 124.497 207.875 124.564Z" fill="#163459"/>
<path d="M180.147 129.895C180.147 129.895 180.147 129.862 180.147 129.795C180.147 129.729 180.147 129.629 180.147 129.529C180.147 129.296 180.147 128.929 180.147 128.496C180.147 127.563 180.147 126.264 180.181 124.632V124.565H180.114C179.645 124.565 179.11 124.565 178.575 124.565L178.642 124.632C178.642 123.066 178.642 121.268 178.642 119.269L178.575 119.336C179.144 119.336 179.746 119.336 180.348 119.336H180.448V119.236C180.448 117.57 180.448 115.804 180.448 113.939V113.839H180.348C179.746 113.839 179.144 113.839 178.508 113.839C178.04 113.839 177.571 113.839 177.103 113.839L177.203 113.939C177.203 111.974 177.203 110.042 177.203 108.276L177.103 108.376C178.006 108.376 178.876 108.376 179.746 108.376H179.813V108.309C179.813 106.377 179.813 104.612 179.813 103.113V103.046H179.746C179.511 103.046 179.277 103.046 179.077 103.046L179.144 103.113C179.144 101.381 179.144 100.015 179.144 99.0487C179.144 98.5824 179.144 98.2159 179.144 97.9494C179.144 97.8162 179.144 97.7496 179.144 97.6829C179.144 97.6163 179.144 97.583 179.144 97.583C179.144 97.583 179.144 97.6163 179.144 97.6829C179.144 97.7496 179.144 97.8495 179.144 97.9494C179.144 98.2159 179.144 98.5824 179.11 99.0487C179.11 100.015 179.077 101.414 179.043 103.113V103.179H179.11C179.311 103.179 179.545 103.179 179.779 103.179L179.712 103.113C179.712 104.612 179.712 106.377 179.712 108.309L179.779 108.243C178.943 108.243 178.073 108.243 177.136 108.243H177.036V108.343C177.036 110.142 177.036 112.04 177.036 114.006V114.106H177.136C177.605 114.106 178.073 114.106 178.541 114.106C179.177 114.106 179.813 114.106 180.381 114.106L180.281 114.006C180.281 115.871 180.281 117.67 180.281 119.302L180.381 119.202C179.779 119.202 179.144 119.202 178.608 119.202H178.541V119.269C178.541 121.234 178.541 123.066 178.541 124.632V124.699H178.608C179.144 124.699 179.645 124.699 180.147 124.699L180.08 124.632C180.08 126.264 180.114 127.597 180.114 128.496C180.114 128.929 180.114 129.296 180.114 129.529C180.114 129.629 180.114 129.729 180.114 129.795C180.147 129.862 180.147 129.895 180.147 129.895Z" fill="#163459"/>
<path d="M204.529 81.4609H176.832V86.8241H204.529V81.4609Z" fill="#F1CA50"/>
<g opacity="0.3">
<g opacity="0.3">
<g opacity="0.3">
<g opacity="0.3">
<path opacity="0.3" d="M177.302 81.4609C185.966 82.96 195.499 82.9933 204.129 81.4609H177.302Z" fill="#163459"/>
</g>
</g>
</g>
</g>
<path d="M204.568 81.4936C204.568 81.5602 198.379 81.6268 190.753 81.6268C183.126 81.6268 176.938 81.5602 176.938 81.4936C176.938 81.427 183.126 81.3604 190.753 81.3604C198.379 81.3604 204.568 81.427 204.568 81.4936Z" fill="#163459"/>
<path d="M202.758 86.8223H175.061V92.1854H202.758V86.8223Z" fill="#F1CA50"/>
<g opacity="0.3">
<g opacity="0.3">
<g opacity="0.3">
<g opacity="0.3">
<path opacity="0.3" d="M175.523 86.8223C184.187 88.5212 193.721 88.5878 202.351 86.8223H175.523Z" fill="#163459"/>
</g>
</g>
</g>
</g>
<path d="M202.79 86.8207C202.79 86.8874 196.601 86.954 188.974 86.954C181.348 86.954 175.159 86.8874 175.159 86.8207C175.159 86.7541 181.348 86.6875 188.974 86.6875C196.568 86.7208 202.79 86.7541 202.79 86.8207Z" fill="#163459"/>
<path d="M204.363 92.0869H176.666V97.4501H204.363V92.0869Z" fill="#F1CA50"/>
<g opacity="0.3">
<g opacity="0.3">
<g opacity="0.3">
<g opacity="0.3">
<path opacity="0.3" d="M177.107 92.0869C185.771 93.586 195.305 93.6193 203.935 92.0869H177.107Z" fill="#163459"/>
</g>
</g>
</g>
</g>
<path d="M204.363 92.1215C204.363 92.1881 198.174 92.2548 190.548 92.2548C182.921 92.2548 176.732 92.1881 176.732 92.1215C176.732 92.0549 182.921 91.9883 190.548 91.9883C198.174 91.9883 204.363 92.0549 204.363 92.1215Z" fill="#163459"/>
<path d="M200.173 70.9033H172.476V76.2665H200.173V70.9033Z" fill="#F1CA50"/>
<g opacity="0.3">
<g opacity="0.3">
<g opacity="0.3">
<g opacity="0.3">
<path opacity="0.3" d="M172.917 70.9014C181.581 72.6003 191.114 72.6669 199.744 70.9014H172.917Z" fill="#163459"/>
</g>
</g>
</g>
</g>
<path d="M200.174 70.8989C200.174 70.9655 193.986 71.0321 186.359 71.0321C178.732 71.0321 172.544 70.9655 172.544 70.8989C172.544 70.8323 178.732 70.7656 186.359 70.7656C193.986 70.7989 200.174 70.8323 200.174 70.8989Z" fill="#163459"/>
<path d="M201.757 76.167H174.06V81.5302H201.757V76.167Z" fill="#F1CA50"/>
<g opacity="0.3">
<g opacity="0.3">
<g opacity="0.3">
<g opacity="0.3">
<path opacity="0.3" d="M174.492 76.1689C183.156 77.668 192.689 77.7013 201.32 76.1689H174.492Z" fill="#163459"/>
</g>
</g>
</g>
</g>
<path d="M201.752 76.1957C201.752 76.2624 195.564 76.329 187.937 76.329C180.31 76.329 174.122 76.2624 174.122 76.1957C174.122 76.1291 180.31 76.0625 187.937 76.0625C195.564 76.0625 201.752 76.1291 201.752 76.1957Z" fill="#163459"/>
<path d="M22.0108 103.159H49.708V97.5961H22.0108V103.159Z" fill="#F1CA50"/>
<g opacity="0.3">
<g opacity="0.3">
<g opacity="0.3">
<g opacity="0.3">
<path opacity="0.3" d="M49.2875 97.5859C40.6237 98.7518 31.0903 98.7852 22.46 97.5859H49.2875Z" fill="#163459"/>
</g>
</g>
</g>
</g>
<path d="M22.0234 97.6186C22.0234 97.6852 28.2118 97.7518 35.8386 97.7518C43.4654 97.7518 49.6538 97.6852 49.6538 97.6186C49.6538 97.552 43.4654 97.4854 35.8386 97.4854C28.2118 97.4854 22.0234 97.552 22.0234 97.6186Z" fill="#163459"/>
<path d="M21.4043 108.638H49.1016V103.075H21.4043V108.638Z" fill="#F1CA50"/>
<g opacity="0.3">
<g opacity="0.3">
<g opacity="0.3">
<g opacity="0.3">
<path opacity="0.3" d="M48.6537 103.08C39.9899 104.246 30.4565 104.279 21.8262 103.08H48.6537Z" fill="#163459"/>
</g>
</g>
</g>
</g>
<path d="M21.3906 103.082C21.3906 103.149 27.579 103.216 35.2058 103.216C42.8326 103.216 49.021 103.149 49.021 103.082C49.021 103.016 42.8326 102.949 35.2058 102.949C27.579 102.949 21.3906 103.016 21.3906 103.082Z" fill="#163459"/>
<path d="M24.0225 114.007H51.7197V108.444H24.0225V114.007Z" fill="#F1CA50"/>
<g opacity="0.3">
<g opacity="0.3">
<g opacity="0.3">
<g opacity="0.3">
<path opacity="0.3" d="M51.2924 108.442C42.6286 109.608 33.0951 109.642 24.4648 108.442H51.2924Z" fill="#163459"/>
</g>
</g>
</g>
</g>
<path d="M24.0322 108.479C24.0322 108.546 30.2206 108.612 37.8474 108.612C45.4742 108.612 51.6626 108.546 51.6626 108.479C51.6626 108.412 45.4742 108.346 37.8474 108.346C30.2206 108.346 24.0322 108.412 24.0322 108.479Z" fill="#163459"/>
<path d="M20.7764 119.31H48.4736V113.946H20.7764V119.31Z" fill="#F1CA50"/>
<g opacity="0.3">
<g opacity="0.3">
<g opacity="0.3">
<g opacity="0.3">
<path opacity="0.3" d="M48.0482 113.974C39.3845 115.473 29.851 115.506 21.2207 113.974H48.0482Z" fill="#163459"/>
</g>
</g>
</g>
</g>
<path d="M20.7842 113.972C20.7842 114.039 26.9726 114.105 34.5994 114.105C42.2261 114.105 48.4145 114.039 48.4145 113.972C48.4145 113.905 42.2261 113.839 34.5994 113.839C26.9726 113.872 20.7842 113.905 20.7842 113.972Z" fill="#163459"/>
<path d="M22.5625 124.687H50.2598V119.323H22.5625V124.687Z" fill="#F1CA50"/>
<g opacity="0.3">
<g opacity="0.3">
<g opacity="0.3">
<g opacity="0.3">
<path opacity="0.3" d="M49.8207 119.333C41.1569 121.032 31.6235 121.099 22.9932 119.333H49.8207Z" fill="#163459"/>
</g>
</g>
</g>
</g>
<path d="M22.5586 119.34C22.5586 119.407 28.747 119.474 36.3738 119.474C44.0005 119.474 50.1889 119.407 50.1889 119.34C50.1889 119.274 44.0005 119.207 36.3738 119.207C28.747 119.207 22.5586 119.274 22.5586 119.34Z" fill="#163459"/>
<path d="M20.9717 129.942H48.6689V124.579H20.9717V129.942Z" fill="#F1CA50"/>
<g opacity="0.3">
<g opacity="0.3">
<g opacity="0.3">
<g opacity="0.3">
<path opacity="0.3" d="M48.2455 124.599C39.5817 126.098 30.0483 126.131 21.418 124.599H48.2455Z" fill="#163459"/>
</g>
</g>
</g>
</g>
<path d="M20.9873 124.6C20.9873 124.667 27.1757 124.733 34.8025 124.733C42.4292 124.733 48.6176 124.667 48.6176 124.6C48.6176 124.533 42.4292 124.467 34.8025 124.467C27.1757 124.5 20.9873 124.533 20.9873 124.6Z" fill="#163459"/>
<path d="M48.6858 129.931C48.6858 129.931 48.6858 129.898 48.6858 129.832C48.6858 129.765 48.6858 129.665 48.6858 129.565C48.6858 129.332 48.6858 128.965 48.6858 128.532C48.6858 127.6 48.6858 126.3 48.6524 124.668V124.602H48.7193C49.1876 124.602 49.7228 124.602 50.258 124.602L50.1911 124.668C50.1911 123.103 50.1911 121.304 50.1911 119.305L50.258 119.372C49.6893 119.372 49.0872 119.372 48.4851 119.372H48.3848V119.272C48.3848 117.606 48.3848 115.841 48.3848 113.975V113.875H48.4851C49.0872 113.875 49.6893 113.875 50.3249 113.875C50.7932 113.875 51.2615 113.875 51.7298 113.875L51.6295 113.975C51.6295 112.01 51.6295 110.078 51.6295 108.312L51.7298 108.412C50.8267 108.412 49.9569 108.412 49.0872 108.412H49.0203V108.345C49.0203 106.413 49.0203 104.648 49.0203 103.149V103.082H49.0872C49.3214 103.082 49.5555 103.082 49.7562 103.082L49.6893 103.149C49.6893 101.417 49.6893 100.051 49.6893 99.0849C49.6893 98.6185 49.6893 98.2521 49.6893 97.9856C49.6893 97.8523 49.6893 97.7857 49.6893 97.7191C49.6893 97.6524 49.6893 97.6191 49.6893 97.6191C49.6893 97.6191 49.6893 97.6524 49.6893 97.7191C49.6893 97.7857 49.6893 97.8856 49.6893 97.9856C49.6893 98.2521 49.6893 98.6185 49.7228 99.0849C49.7228 100.051 49.7562 101.45 49.7897 103.149V103.215H49.7228C49.5221 103.215 49.2879 103.215 49.0538 103.215L49.1207 103.149C49.1207 104.648 49.1207 106.413 49.1207 108.345L49.0538 108.279C49.8901 108.279 50.7598 108.279 51.6964 108.279H51.7967V108.379C51.7967 110.178 51.7967 112.076 51.7967 114.042V114.142H51.6964C51.2281 114.142 50.7598 114.142 50.2915 114.142C49.6559 114.142 49.0203 114.142 48.4517 114.142L48.552 114.042C48.552 115.907 48.552 117.706 48.552 119.338L48.4517 119.238C49.0538 119.238 49.6893 119.238 50.2246 119.238H50.2915V119.305C50.2915 121.27 50.2915 123.103 50.2915 124.668V124.735H50.2246C49.6893 124.735 49.1876 124.735 48.6858 124.735L48.7527 124.668C48.7527 126.3 48.7193 127.633 48.7193 128.532C48.7193 128.965 48.7193 129.332 48.7193 129.565C48.7193 129.665 48.7193 129.765 48.7193 129.832C48.6858 129.931 48.6858 129.931 48.6858 129.931Z" fill="#163459"/>
<path d="M175.73 128.001H53.501C50.8249 128.001 48.6172 125.836 48.6172 123.137V45.9543C48.6172 43.2894 50.7915 41.0908 53.501 41.0908H175.73C178.406 41.0908 180.614 43.2561 180.614 45.9543V123.171C180.614 125.836 178.406 128.001 175.73 128.001Z" fill="#1C427B"/>
<path d="M180.714 129.998H49.2526C46.0747 129.998 43.499 127.433 43.499 124.269V122.403H186.468V124.269C186.468 127.433 183.892 129.998 180.714 129.998Z" fill="#1C427B"/>
<path d="M101.602 121.574L103.374 124.372H128.362L130.001 121.574H101.602Z" fill="#163459"/>
<path d="M179.481 121.573C179.481 121.606 150.178 121.673 114.051 121.673C77.924 121.673 48.6211 121.639 48.6211 121.573C48.6211 121.539 77.8905 121.473 114.051 121.473C150.178 121.473 179.481 121.539 179.481 121.573Z" fill="#163459"/>
<path d="M174.263 117.799H54.6094L54.7432 47.0117H174.263V117.799Z" fill="white"/>
<path d="M174.259 117.802C174.259 117.269 174.226 90.4201 174.192 47.015L174.259 47.0816C142.046 47.0816 100.266 47.0816 54.7398 47.1149L54.8401 47.015C54.8401 47.0483 54.8401 47.0483 54.8401 47.0816C54.8067 72.132 54.7398 96.0497 54.7063 117.802L54.6394 117.736C124.786 117.769 173.523 117.802 174.259 117.802C173.523 117.802 124.786 117.836 54.606 117.869H54.5391V117.802C54.5725 96.0497 54.606 72.132 54.6729 47.0816C54.6729 47.0483 54.6729 47.0483 54.6729 47.015V46.915H54.7732C100.3 46.915 142.08 46.915 174.293 46.9483H174.36V47.015C174.293 90.4201 174.259 117.269 174.259 117.802Z" fill="#163459"/>
<path d="M117.392 104.081L117.291 104.014L89.6944 88.6907L68.219 103.481L68.0518 103.215L89.6944 88.2909L117.325 103.648L160.978 56.2451L161.212 56.4783L117.392 104.081Z" fill="#163459"/>
<path d="M129 99.6498C129.201 105.013 124.953 109.543 119.567 109.743C114.148 109.943 109.632 105.712 109.432 100.349C109.231 94.9528 113.479 90.4557 118.865 90.2559C124.25 90.056 128.8 94.2533 129 99.6498Z" fill="#EE4D4A"/>
<path d="M126.49 99.584C126.624 103.681 123.413 107.112 119.298 107.246C115.184 107.379 111.738 104.181 111.605 100.084C111.471 95.9863 114.682 92.5552 118.797 92.422C122.878 92.2887 126.323 95.4867 126.49 99.584Z" fill="#EE4D4A"/>
<path d="M126.695 99.8825C126.829 103.913 123.651 107.311 119.603 107.444C115.556 107.578 112.144 104.413 112.01 100.382C111.876 96.3515 115.054 92.9537 119.101 92.8205C123.149 92.6872 126.561 95.8518 126.695 99.8825Z" fill="#F1CA50"/>
<path d="M119.435 103.016L119.469 104.049L118.699 104.082L118.666 103.05C117.763 103.016 116.859 102.75 116.358 102.35L116.759 101.384C117.227 101.751 117.93 101.984 118.632 102.017L118.565 100.152C117.528 99.9517 116.391 99.6519 116.358 98.3528C116.324 97.42 116.993 96.5539 118.432 96.3541L118.398 95.3214L119.168 95.2881L119.201 96.3207C119.903 96.3207 120.606 96.5206 121.108 96.8204L120.773 97.7531C120.271 97.4867 119.736 97.3534 119.234 97.3201L119.301 99.1856C120.338 99.3854 121.476 99.6852 121.509 100.984C121.576 101.984 120.907 102.817 119.435 103.016ZM118.532 99.0856L118.465 97.4533C117.796 97.5866 117.528 97.9197 117.562 98.3194C117.595 98.7525 117.997 98.9524 118.532 99.0856ZM120.338 101.151C120.338 100.685 119.903 100.485 119.335 100.351L119.402 101.984C120.071 101.884 120.372 101.551 120.338 101.151Z" fill="white"/>
<path d="M68.1191 107.312C70.2251 107.312 71.9324 105.612 71.9324 103.514C71.9324 101.417 70.2251 99.7168 68.1191 99.7168C66.013 99.7168 64.3057 101.417 64.3057 103.514C64.3057 105.612 66.013 107.312 68.1191 107.312Z" fill="#EE4D4A"/>
<path d="M89.6962 92.1214C91.8023 92.1214 93.5096 90.4212 93.5096 88.3239C93.5096 86.2266 91.8023 84.5264 89.6962 84.5264C87.5901 84.5264 85.8828 86.2266 85.8828 88.3239C85.8828 90.4212 87.5901 92.1214 89.6962 92.1214Z" fill="#EE4D4A"/>
<path d="M160.511 60.141C162.617 60.141 164.324 58.4407 164.324 56.3434C164.324 54.2461 162.617 52.5459 160.511 52.5459C158.405 52.5459 156.697 54.2461 156.697 56.3434C156.697 58.4407 158.405 60.141 160.511 60.141Z" fill="#EE4D4A"/>
<path d="M111.64 15.6383C112.744 14.9721 113.881 14.4724 115.086 14.1393L115.788 10.7415L121.542 10.6416L122.378 14.0061C123.582 14.3059 124.753 14.7722 125.857 15.3719L128.767 13.4731L132.915 17.4705L131.109 20.4352C131.778 21.5345 132.279 22.6671 132.614 23.8663L136.026 24.5659L136.126 30.2955L132.748 31.1283C132.447 32.3275 131.978 33.4934 131.376 34.5927L133.283 37.4908L129.269 41.6214L126.292 39.8226C125.188 40.4888 124.05 40.9885 122.846 41.3216L122.144 44.7194L116.39 44.8194L115.554 41.4549C114.35 41.1551 113.179 40.6887 112.075 40.0891L109.165 41.9879L105.017 37.9905L106.823 35.0257C106.154 33.9264 105.653 32.7938 105.318 31.5946L101.906 30.8951L101.806 25.1655L105.184 24.3327C105.485 23.1335 105.954 21.9676 106.556 20.8683L104.649 17.9702L108.663 13.8395L111.64 15.6383ZM114.684 23.2667C112.309 25.6985 112.376 29.5959 114.851 31.9611C117.293 34.3262 121.207 34.2596 123.582 31.7945C125.957 29.3627 125.89 25.4653 123.415 23.1002C120.973 20.7683 117.059 20.835 114.684 23.2667Z" fill="#5C9EDC"/>
<path d="M92.9055 12.0375C95.1467 11.5045 97.02 9.60575 97.4548 7.07407C98.0235 3.7429 95.983 0.611605 92.8386 0.0786187C89.7277 -0.454368 86.7171 1.77751 86.115 5.10868C85.6802 7.67368 86.784 10.1054 88.7576 11.338C79.8263 11.1714 78.6221 20.6652 78.6221 20.6652L99.2277 24.2296C99.2277 24.2629 101.335 14.8024 92.9055 12.0375Z" fill="#1C427B"/>
<path d="M159.639 13.4702C161.145 11.9712 161.68 9.57272 160.777 7.34084C159.606 4.44273 156.428 2.97701 153.685 4.0763C150.942 5.17558 149.705 8.40681 150.875 11.3049C151.779 13.5368 153.886 14.9026 156.027 14.9026C148.902 19.1332 152.648 27.2279 152.648 27.2279L170.645 19.9993C170.645 19.9993 167.634 11.5381 159.639 13.4702Z" fill="#EE4D4A"/>
<path d="M88.2891 30.5293L109.43 64.274L114.18 82.9951H121.472V31.0956L88.2891 30.5293Z" fill="#EE4D4A"/>
<path d="M116.487 31.0956V82.9951H123.813L128.53 64.274L149.67 30.5293L116.487 31.0956Z" fill="#EE4D4A"/>
<path d="M148.935 34.427H89.1918C87.352 34.427 85.8467 32.928 85.8467 31.0958C85.8467 29.2637 87.352 27.7646 89.1918 27.7646H148.935C150.775 27.7646 152.28 29.2637 152.28 31.0958C152.28 32.928 150.775 34.427 148.935 34.427Z" fill="#EE4D4A"/>
</svg>
