<svg width="129" height="122" viewBox="0 0 129 122" fill="none" xmlns="http://www.w3.org/2000/svg">
<path d="M85.2163 64.0495C84.8517 64.0495 84.4832 63.9475 84.1548 63.7329L53.0768 43.403C52.179 42.8159 51.9271 41.6123 52.5142 40.7145C53.1013 39.8167 54.3059 39.5648 55.2037 40.1519L86.2817 60.4808C87.1795 61.0689 87.4314 62.2725 86.8443 63.1703C86.4709 63.7407 85.8504 64.0495 85.2163 64.0495Z" fill="#8EC6D8"/>
<path d="M51.8473 95.4443C28.3584 95.4443 9.30076 76.3808 9.30762 52.8919C9.31448 31.5917 24.9789 13.9503 45.4186 10.8521C45.9018 10.7786 46.338 11.1491 46.338 11.6382V21.8296C46.338 22.2108 46.0665 22.5353 45.6931 22.6107C31.5821 25.461 20.9545 37.9243 20.9369 52.8694C20.9183 69.7708 34.6724 83.6671 51.5729 83.8141C58.0172 83.8699 64.0117 81.9509 68.9888 78.6282C69.3064 78.4165 69.7278 78.4528 69.9984 78.7223L77.2033 85.9253C77.5493 86.2713 77.5013 86.8407 77.1092 87.1309C70.0444 92.353 61.3075 95.4443 51.8473 95.4443Z" fill="#EE4D4A"/>
<path d="M94.9115 52.9466C94.9115 62.4872 91.7672 71.2947 86.4628 78.3928C86.104 78.873 85.4032 78.924 84.9798 78.5006L78.0483 71.5701C77.717 71.2388 77.6651 70.7174 77.9297 70.3302C81.3053 65.3776 83.2822 59.3919 83.2822 52.9466C83.2822 37.8183 72.4155 25.2324 58.0644 22.5615C57.6028 22.4763 57.2705 22.0695 57.2705 21.6V11.8056C57.2705 11.2067 57.8017 10.749 58.3937 10.8333C79.0334 13.758 94.9115 31.4964 94.9115 52.9466Z" fill="#F0CA50"/>
<path d="M94.9115 52.9466C94.9115 62.4872 91.7672 71.2947 86.4628 78.3928C86.104 78.873 85.4032 78.924 84.9798 78.5006L78.0483 71.5701C77.717 71.2388 77.6651 70.7174 77.9297 70.3302C81.3053 65.3776 83.2822 59.3919 83.2822 52.9466C83.2822 37.8183 72.4155 25.2324 58.0644 22.5615C57.6028 22.4763 57.2705 22.0695 57.2705 21.6V11.8056C57.2705 11.2067 57.8017 10.749 58.3937 10.8333C79.0334 13.758 94.9115 31.4964 94.9115 52.9466Z" fill="#F0CA50"/>
<path d="M11.0089 91.2447C10.5629 91.2447 10.115 91.0928 9.74943 90.7801C8.93298 90.0842 8.83595 88.8581 9.53184 88.0416L50.5886 39.874C51.2845 39.0576 52.5106 38.9596 53.3271 39.6555C54.1435 40.3513 54.2415 41.5775 53.5456 42.3939L12.4889 90.5625C12.1047 91.0134 11.5588 91.2447 11.0089 91.2447Z" fill="#8EC6D8"/>
<path d="M100.889 74.3025C100.525 74.3025 100.155 74.1996 99.8277 73.9849L88.9101 66.8427C88.0113 66.2556 87.7604 65.052 88.3475 64.1542C88.9346 63.2554 90.1391 63.0045 91.036 63.5916L101.955 70.7338C102.852 71.3209 103.103 72.5245 102.516 73.4223C102.144 73.9928 101.522 74.3025 100.889 74.3025Z" fill="#8EC6D8"/>
<path d="M103.563 73.7012C103.255 73.7012 102.943 73.6277 102.652 73.4728C101.705 72.969 101.346 71.7919 101.851 70.8451L120.731 35.3927C121.236 34.4449 122.412 34.0862 123.359 34.591C124.306 35.0948 124.664 36.2719 124.161 37.2187L105.279 72.6721C104.93 73.3278 104.258 73.7012 103.563 73.7012Z" fill="#8EC6D8"/>
<path d="M114.221 6.47411H103.09C102.018 6.47411 101.148 5.60473 101.148 4.53247C101.148 3.45922 102.018 2.58984 103.09 2.58984H114.221C115.294 2.58984 116.164 3.45922 116.164 4.53247C116.164 5.60473 115.294 6.47411 114.221 6.47411Z" fill="#8EC6D8"/>
<path d="M96.3808 6.47411H93.2551C92.1819 6.47411 91.3125 5.60473 91.3125 4.53247C91.3125 3.45922 92.1819 2.58984 93.2551 2.58984H96.3808C97.453 2.58984 98.3234 3.45922 98.3234 4.53247C98.3234 5.60473 97.453 6.47411 96.3808 6.47411Z" fill="#8EC6D8"/>
<path d="M112.531 21.4966H104.563C103.49 21.4966 102.62 20.6272 102.62 19.5539C102.62 18.4817 103.49 17.6123 104.563 17.6123H112.531C113.603 17.6123 114.474 18.4817 114.474 19.5539C114.474 20.6272 113.603 21.4966 112.531 21.4966Z" fill="#8EC6D8"/>
<path d="M99.7594 21.4966H97.5217C96.4485 21.4966 95.5791 20.6272 95.5791 19.5539C95.5791 18.4817 96.4485 17.6123 97.5217 17.6123H99.7594C100.833 17.6123 101.702 18.4817 101.702 19.5539C101.702 20.6272 100.833 21.4966 99.7594 21.4966Z" fill="#8EC6D8"/>
<path d="M19.7724 120.697H11.8049C10.7317 120.697 9.8623 119.827 9.8623 118.754C9.8623 117.682 10.7317 116.812 11.8049 116.812H19.7724C20.8457 116.812 21.715 117.682 21.715 118.754C21.715 119.827 20.8457 120.697 19.7724 120.697Z" fill="#8EC6D8"/>
<path d="M39.3746 120.697H25.8704C24.7971 120.697 23.9277 119.827 23.9277 118.754C23.9277 117.682 24.7971 116.812 25.8704 116.812H39.3746C40.4479 116.812 41.3172 117.682 41.3172 118.754C41.3172 119.827 40.4479 120.697 39.3746 120.697Z" fill="#8EC6D8"/>
<path d="M123.287 1.80834V7.25788C123.287 8.25761 122.478 9.06524 121.482 9.06524H116.029C115.032 9.06524 114.222 8.25761 114.222 7.25788V1.80834C114.222 0.807629 115.032 0 116.029 0H121.482C122.478 0 123.287 0.807629 123.287 1.80834Z" fill="#1F2122"/>
<path d="M119.02 18.1179V20.9926C119.02 21.9904 118.212 22.801 117.212 22.801H114.338C113.34 22.801 112.532 21.9904 112.532 20.9926V18.1179C112.532 17.1201 113.34 16.3096 114.338 16.3096H117.212C118.212 16.3096 119.02 17.1201 119.02 18.1179Z" fill="#1F2122"/>
<path d="M11.8049 117.318V120.193C11.8049 121.19 10.9963 122 9.99948 122H7.12475C6.12501 122 5.31641 121.19 5.31641 120.193V117.318C5.31641 116.32 6.12501 115.51 7.12475 115.51H9.99948C10.9963 115.51 11.8049 116.32 11.8049 117.318Z" fill="#1F2122"/>
<path d="M33.242 109.042H23.1711C22.0979 109.042 21.2285 108.172 21.2285 107.1C21.2285 106.027 22.0979 105.157 23.1711 105.157H33.242C34.3143 105.157 35.1836 106.027 35.1836 107.1C35.1836 108.172 34.3143 109.042 33.242 109.042Z" fill="#8EC6D8"/>
<path d="M44.0379 109.042H39.8567C38.7844 109.042 37.915 108.172 37.915 107.1C37.915 106.027 38.7844 105.157 39.8567 105.157H44.0379C45.1102 105.157 45.9805 106.027 45.9805 107.1C45.9805 108.172 45.1102 109.042 44.0379 109.042Z" fill="#8EC6D8"/>
<path d="M60.0966 38.7216C60.0966 43.1557 56.5014 46.7509 52.0673 46.7509C47.6322 46.7509 44.0381 43.1557 44.0381 38.7216C44.0381 34.2865 47.6322 30.6924 52.0673 30.6924C56.5014 30.6924 60.0966 34.2865 60.0966 38.7216Z" fill="#1C427B"/>
<path d="M16.3241 91.5595C16.3241 95.9946 12.729 99.5888 8.29487 99.5888C3.86075 99.5888 0.265625 95.9946 0.265625 91.5595C0.265625 87.1254 3.86075 83.5303 8.29487 83.5303C12.729 83.5303 16.3241 87.1254 16.3241 91.5595Z" fill="#1C427B"/>
<path d="M128.733 34.5765C128.733 37.2944 126.53 39.4978 123.812 39.4978C121.094 39.4978 118.891 37.2944 118.891 34.5765C118.891 31.8586 121.094 29.6562 123.812 29.6562C126.53 29.6562 128.733 31.8586 128.733 34.5765Z" fill="#1C427B"/>
<path d="M106.976 73.4291C106.976 76.147 104.773 78.3503 102.055 78.3503C99.3371 78.3503 97.1348 76.147 97.1348 73.4291C97.1348 70.7111 99.3371 68.5078 102.055 68.5078C104.773 68.5078 106.976 70.7111 106.976 73.4291Z" fill="#1C427B"/>
<path d="M25.2727 105.662V108.537C25.2727 109.534 24.465 110.345 23.4672 110.345H20.5925C19.5928 110.345 18.7842 109.534 18.7842 108.537V105.662C18.7842 104.665 19.5928 103.854 20.5925 103.854H23.4672C24.465 103.854 25.2727 104.665 25.2727 105.662Z" fill="#1F2122"/>
</svg>
