<svg width="64" height="64" viewBox="0 0 64 64" fill="none" xmlns="http://www.w3.org/2000/svg">
<path d="M37.625 60.25V64H26.375C26.375 62.6431 26.375 61.6069 26.375 60.25H37.625Z" fill="#5C9EDC"/>
<path d="M9.375 24.498C5.98242 24.498 3.39258 24.498 0 24.498C0 23.1411 0 22.105 0 20.748H9.375V24.498Z" fill="#F7E39E"/>
<path d="M8.66016 14.9268C5.94629 13.5698 3.87451 12.5337 1.16016 11.1768C1.76709 9.96289 2.23096 9.03613 2.83789 7.82227C5.55176 9.1792 7.62354 10.2153 10.3379 11.5723C9.73096 12.7861 9.26709 13.7129 8.66016 14.9268Z" fill="#F7E39E"/>
<path d="M2.83789 37.4268C2.23096 36.2129 1.76709 35.2861 1.16016 34.0723C3.87451 32.7153 5.94629 31.6792 8.66016 30.3223C9.26709 31.5361 9.73096 32.4629 10.3379 33.6768C7.62354 35.0337 5.55176 36.0698 2.83789 37.4268Z" fill="#F7E39E"/>
<path d="M64 24.5C60.6074 24.5 58.0176 24.5 54.625 24.5C54.625 23.1431 54.625 22.1069 54.625 20.75H64V24.5Z" fill="#F7E39E"/>
<path d="M55.3379 14.9268C54.731 13.7129 54.2671 12.7861 53.6602 11.5723C56.3745 10.2153 58.4463 9.1792 61.1602 7.82227C61.7671 9.03613 62.231 9.96289 62.8379 11.1768C60.1235 12.5337 58.0518 13.5698 55.3379 14.9268Z" fill="#F7E39E"/>
<path d="M61.1602 37.4268C58.4463 36.0698 56.3745 35.0337 53.6602 33.6768C54.2671 32.4629 54.731 31.5361 55.3379 30.3223C58.0518 31.6792 60.1235 32.7153 62.8379 34.0723C62.231 35.2861 61.7671 36.2129 61.1602 37.4268Z" fill="#F7E39E"/>
<path d="M41.375 48.875V56.375H22.625C22.625 53.6611 22.625 51.5889 22.625 48.875C24.3213 47.5181 25.6162 46.4819 27.3125 45.125H37.8501C39.1255 46.4819 40.0996 47.5181 41.375 48.875Z" fill="#E4E4E4"/>
<path d="M32 60.25H37.625V64C35.5894 64 34.0356 64 32 64C32 62.6431 32 61.6069 32 60.25Z" fill="#1C427B"/>
<path d="M41.375 48.875V56.375C37.9824 56.375 35.3926 56.375 32 56.375C32 52.3042 32 49.1958 32 45.125H37.8501C39.1255 46.4819 40.0996 47.5181 41.375 48.875Z" fill="#D0D0D0"/>
<path d="M48.1626 22.625C49.8076 24.0742 50.75 26.0845 50.75 28.25C50.75 31.833 48.2207 34.8452 44.8247 35.6001C43.8921 35.7866 43.25 36.6064 43.25 37.5498V37.5874V37.625C43.25 40.061 41.6768 42.1245 39.5 42.9126V47H24.5C24.5 45.521 24.5 44.3916 24.5 42.9126C22.3232 42.1245 20.75 40.061 20.75 37.625C20.75 36.9507 20.8623 36.3501 21.0874 35.75C16.7905 35.9365 13.25 32.5034 13.25 28.25C13.25 26.0845 14.1924 24.0742 15.8374 22.625C14.1963 21.1787 13.25 19.1699 13.25 17C13.25 12.8755 16.6245 9.5 20.75 9.5C20.75 5.37549 24.1245 1.875 28.25 1.875C29.6079 1.875 30.8433 2.26953 32 2.9248C33.1567 2.26953 34.3921 1.875 35.75 1.875C39.8745 1.875 43.25 5.37451 43.25 9.5C47.3745 9.5 50.75 12.8745 50.75 17C50.75 19.1699 49.8037 21.1787 48.1626 22.625Z" fill="#F7E39E"/>
<path d="M48.1626 22.625C49.8076 24.0742 50.75 26.0845 50.75 28.25C50.75 31.833 48.2207 34.8452 44.8247 35.6001C43.8921 35.7866 43.25 36.6064 43.25 37.5498V37.5874V37.625C43.25 40.061 41.6768 42.1245 39.5 42.9126V47C36.7861 47 34.7139 47 32 47C32 31.0962 32 18.8286 32 2.9248C33.1567 2.26953 34.3921 1.875 35.75 1.875C39.8745 1.875 43.25 5.37451 43.25 9.5C47.3745 9.5 50.75 12.8745 50.75 17C50.75 19.1699 49.8037 21.1787 48.1626 22.625Z" fill="#F7E39E"/>
<path d="M52.625 17C52.625 12.4634 49.3633 8.60742 44.9751 7.7749C44.144 3.39453 40.2939 0 35.75 0C34.4253 0 33.1895 0.267578 32 0.824707C30.8105 0.267578 29.5747 0 28.25 0C23.7124 0 19.8569 3.38818 19.0249 7.7749C14.645 8.60596 11.375 12.4551 11.375 17C11.375 18.9644 12.0137 20.9653 13.2876 22.625C12.0894 24.1865 11.375 26.1621 11.375 28.25C11.375 30.8413 12.3901 33.2397 14.2627 35C15.5664 36.2666 17.1362 37.0972 18.875 37.4375V37.625C18.875 40.3535 20.3643 42.7783 22.625 44.1123V48.875H41.375C41.375 47.1519 41.375 45.8359 41.375 44.1123C43.6357 42.7783 45.125 40.3535 45.125 37.625L45.2002 37.4375C49.5078 36.501 52.625 32.6421 52.625 28.25C52.625 26.2896 51.9888 24.2881 50.7124 22.625C51.9131 21.0605 52.625 19.084 52.625 17ZM30.125 45.125C28.7681 45.125 27.7319 45.125 26.375 45.125C26.375 43.8496 26.375 42.8755 26.375 41.6001C24.2095 40.8125 22.625 39.9888 22.625 37.625C22.625 36.751 23.4448 34.6523 23.75 33.7622C23.5615 33.77 20.8823 33.8818 20.6978 33.8818C19.2017 33.8818 17.8848 33.3003 16.8501 32.2998C15.7368 31.2612 15.125 29.8057 15.125 28.25C15.125 26.8164 15.6943 25.5425 16.625 24.5H19.1377C19.9722 27.7637 22.9194 30.125 26.375 30.125V26.375C24.3125 26.375 22.625 24.6875 22.625 22.625C22.625 20.5625 24.3125 18.875 26.375 18.875V15.125C22.9194 15.125 19.9722 17.4863 19.1377 20.75C18.2285 20.75 17.5342 20.75 16.625 20.75C15.6201 19.624 15.125 18.3325 15.125 17C15.125 13.8872 17.6372 11.375 20.75 11.375H22.625C22.625 10.6963 22.625 10.1787 22.625 9.5C22.625 6.38721 25.1372 3.75 28.25 3.75C28.8877 3.75 29.5254 3.8999 30.125 4.125V45.125ZM41.375 22.625C41.375 24.6875 39.6875 26.375 37.625 26.375V30.125C41.0806 30.125 44.0278 27.7637 44.8623 24.5H47.375C48.3057 25.5425 48.875 26.8164 48.875 28.25C48.875 30.8691 47.0039 33.1992 44.4126 33.7622C42.6875 34.1294 41.374 35.6943 41.374 37.5107C41.374 37.5361 41.3745 37.562 41.375 37.5874V37.625C41.375 40.1973 39.6558 40.8618 37.625 41.6001V45.125C36.2681 45.125 35.2319 45.125 33.875 45.125C33.875 30.334 33.875 18.916 33.875 4.125C34.4746 3.8999 35.1123 3.75 35.75 3.75C38.8628 3.75 41.375 6.38721 41.375 9.5V11.375H43.25C46.3628 11.375 48.875 13.8872 48.875 17C48.875 18.3325 48.3799 19.624 47.375 20.75C46.4658 20.75 45.7715 20.75 44.8623 20.75C44.0278 17.4863 41.0806 15.125 37.625 15.125V18.875C39.6875 18.875 41.375 20.5625 41.375 22.625Z" fill="#F0CA50"/>
<path d="M52.625 17C52.625 12.4634 49.3633 8.60742 44.9751 7.7749C44.144 3.39453 40.2939 0 35.75 0C34.4253 0 33.1895 0.267578 32 0.824707V48.875H41.375C41.375 47.1519 41.375 45.8359 41.375 44.1123C43.6357 42.7783 45.125 40.3535 45.125 37.625L45.2002 37.4375C49.5078 36.501 52.625 32.6421 52.625 28.25C52.625 26.2896 51.9888 24.2881 50.7124 22.625C51.9131 21.0605 52.625 19.084 52.625 17ZM41.375 22.625C41.375 24.6875 39.6875 26.375 37.625 26.375V30.125C41.0806 30.125 44.0278 27.7637 44.8623 24.5H47.375C48.3057 25.5425 48.875 26.8164 48.875 28.25C48.875 30.8691 47.0039 33.1992 44.4126 33.7622C42.6875 34.1294 41.374 35.6943 41.374 37.5107C41.374 37.5361 41.3745 37.562 41.375 37.5874V37.625C41.375 40.1973 39.6558 40.8618 37.625 41.6001V45.125C36.2681 45.125 35.2319 45.125 33.875 45.125C33.875 30.334 33.875 18.916 33.875 4.125C34.4746 3.8999 35.1123 3.75 35.75 3.75C38.8628 3.75 41.375 6.38721 41.375 9.5V11.375H43.25C46.3628 11.375 48.875 13.8872 48.875 17C48.875 18.3325 48.3799 19.624 47.375 20.75C46.4658 20.75 45.7715 20.75 44.8623 20.75C44.0278 17.4863 41.0806 15.125 37.625 15.125V18.875C39.6875 18.875 41.375 20.5625 41.375 22.625Z" fill="#F0CA50"/>
</svg>
