<svg width="48" height="49" viewBox="0 0 48 49" fill="none" xmlns="http://www.w3.org/2000/svg">
<g clip-path="url(#clip0_1855_14142)">
<path d="M26.3934 48.8291C29.4922 45.1306 31.8913 40.8323 33.2907 36.1341L36.2895 25.7383L17.7969 40.2326L26.3934 48.8291Z" fill="#EE4D4A"/>
<path d="M0.00390625 22.439C3.70247 19.3402 8.0007 16.9412 12.6989 15.5418L23.0947 12.543L8.60047 31.0356L0.00390625 22.439Z" fill="#EE4D4A"/>
<path d="M17.8982 40.3314C32.2925 29.7356 32.9922 29.7356 40.989 21.4389C48.586 13.8419 47.9863 0.84709 47.9863 0.84709C47.9863 0.84709 34.9914 0.247327 27.3945 7.84435C19.1977 15.8411 19.1977 16.5409 8.50195 30.9352L17.8982 40.3314Z" fill="#E4E4E4"/>
<path d="M44.9868 15.6407C48.3854 8.64345 47.9856 0.846541 47.9856 0.846541C47.9856 0.846541 40.2887 0.446668 33.1914 3.84535L44.9868 15.6407Z" fill="#EE4D4A"/>
<path d="M29.1929 25.6359C32.5053 25.6359 35.1906 22.9506 35.1906 19.6382C35.1906 16.3259 32.5053 13.6406 29.1929 13.6406C25.8805 13.6406 23.1953 16.3259 23.1953 19.6382C23.1953 22.9506 25.8805 25.6359 29.1929 25.6359Z" fill="#163459"/>
<path d="M29.1935 24.1371C31.6778 24.1371 33.6917 22.1231 33.6917 19.6388C33.6917 17.1545 31.6778 15.1406 29.1935 15.1406C26.7092 15.1406 24.6953 17.1545 24.6953 19.6388C24.6953 22.1231 26.7092 24.1371 29.1935 24.1371Z" fill="#ADC9EA"/>
<path d="M33.3915 18.0391H24.9948C24.8948 18.3389 24.7949 18.6388 24.7949 18.8387H33.5915C33.5914 18.6388 33.4914 18.3389 33.3915 18.0391Z" fill="#5C9EDC"/>
<path d="M33.6917 19.7385H24.6953C24.6953 20.2383 24.7953 20.7382 24.9952 21.2379H33.3919C33.5918 20.7381 33.6917 20.2383 33.6917 19.7385Z" fill="#5C9EDC"/>
<path d="M10.9002 33.6328C8.60115 34.1326 6.00212 35.1322 4.00294 37.1314C-0.295385 41.4297 0.00449629 48.8268 0.00449629 48.8268C0.00449629 48.8268 7.40153 49.1266 11.6999 44.8283C13.699 42.8291 14.6987 40.2301 15.1984 37.931L10.9002 33.6328Z" fill="#F0CA50"/>
<path d="M11.0995 33.832C9.99996 34.2319 8.90034 34.8317 8.00069 35.7313C5.10187 38.6301 5.30176 43.4282 5.30176 43.4282C5.30176 43.4282 10.1999 43.6281 12.9987 40.7293C13.8983 39.8297 14.4981 38.7301 14.898 37.6305L11.0995 33.832Z" fill="#E2BE49"/>
</g>
<defs>
<clipPath id="clip0_1855_14142">
<rect width="48" height="48" fill="white" transform="translate(0 0.832031)"/>
</clipPath>
</defs>
</svg>
