<svg width="325" height="316" viewBox="0 0 325 316" fill="none" xmlns="http://www.w3.org/2000/svg">
<path d="M0.999981 158.136C0.999978 71.352 71.352 0.999999 158.136 0.999995C244.919 0.999991 315.271 71.352 315.271 158.136C315.271 244.919 244.919 315.271 158.136 315.271C71.352 315.271 0.999985 244.919 0.999981 158.136Z" stroke="#CDCDCE" stroke-miterlimit="10"/>
<path d="M33.7972 158.135C33.7974 182.929 41.129 207.164 54.8633 227.772C68.5977 248.38 88.1168 264.434 110.949 273.9C133.781 283.365 158.898 285.817 183.119 280.945C207.341 276.073 229.577 264.096 247.01 246.53C264.444 228.965 276.292 206.602 281.053 182.273C285.814 157.945 283.273 132.745 273.754 109.867C264.234 86.9886 248.164 67.4603 227.577 53.7557C206.991 40.051 182.816 32.7866 158.113 32.8823C125.098 33.0103 93.479 46.2629 70.179 69.7386C46.879 93.2142 33.797 125 33.7972 158.135V158.135Z" stroke="#CDCDCE" stroke-miterlimit="10"/>
<path d="M66.5925 158.137C66.5928 176.445 72.0011 194.34 82.132 209.555C92.2629 224.77 106.66 236.62 123.5 243.604C140.339 250.588 158.863 252.39 176.723 248.783C194.583 245.176 210.975 236.322 223.823 223.343C236.67 210.364 245.394 193.844 248.89 175.877C252.385 157.909 250.494 139.304 243.457 122.418C236.42 105.532 224.552 91.1252 209.359 81.024C194.166 70.9229 176.331 65.5819 158.114 65.6777C146.055 65.6775 134.114 68.0726 122.979 72.725C111.843 77.3774 101.733 84.1956 93.2278 92.7876C84.7229 101.38 77.9914 111.576 73.4204 122.791C68.8495 134.006 66.5291 146.018 66.5925 158.137V158.137Z" stroke="#CDCDCE" stroke-miterlimit="10"/>
<path d="M99.3873 158.137C99.3877 169.958 102.873 181.513 109.4 191.335C115.928 201.157 125.204 208.804 136.051 213.306C146.898 217.807 158.828 218.96 170.326 216.618C181.825 214.276 192.374 208.545 200.635 200.152C208.896 191.759 214.497 181.082 216.727 169.477C218.957 157.871 217.715 145.859 213.16 134.965C208.605 124.071 200.941 114.787 191.141 108.289C181.341 101.792 169.846 98.3744 158.115 98.4705C150.362 98.4702 142.686 100.017 135.529 103.021C128.373 106.026 121.877 110.428 116.417 115.975C110.958 121.522 106.642 128.104 103.719 135.34C100.796 142.576 99.3238 150.324 99.3873 158.137Z" stroke="#CDCDCE" stroke-miterlimit="10"/>
<path d="M237.915 184.015C237.915 184.015 245.76 184.023 247.845 179.194C247.845 179.194 247.859 185.33 253.122 188.663C253.122 188.663 247.933 188.341 243.372 193.332C243.372 193.332 244.88 188.913 237.915 184.015Z" fill="#8EC6D8"/>
<path d="M314.459 141.96C314.459 141.96 308.715 131.21 300.599 131.971C300.599 131.971 308.959 127.356 309.645 117.652C309.645 117.652 313.013 124.999 323.168 127.508C323.168 127.508 316.033 128.753 314.459 141.96Z" fill="#EE4D4A"/>
<path d="M282.7 171.018L278.9 166.972L282.945 163.173L286.745 167.218L282.7 171.018Z" fill="#F0CA50"/>
</svg>
