<svg width="64" height="64" viewBox="0 0 64 64" fill="none" xmlns="http://www.w3.org/2000/svg">
<path d="M64 5.75C64 2.64337 61.4816 0.125 58.375 0.125H5.625C2.51837 0.125 0 2.64337 0 5.75V17L1.25 18.25H62.75C63.2381 17.7619 63.5119 17.4881 64 17V5.75Z" fill="#163459"/>
<path d="M54.5 7.625H43.25C42.2145 7.625 41.375 8.4645 41.375 9.5C41.375 10.5355 42.2145 11.375 43.25 11.375H54.5C55.5355 11.375 56.375 10.5355 56.375 9.5C56.375 8.4645 55.5355 7.625 54.5 7.625Z" fill="#8EC6D8"/>
<path d="M24.5 11.375C25.5355 11.375 26.375 10.5355 26.375 9.5C26.375 8.46447 25.5355 7.625 24.5 7.625C23.4645 7.625 22.625 8.46447 22.625 9.5C22.625 10.5355 23.4645 11.375 24.5 11.375Z" fill="#EE4D4A"/>
<path d="M17 11.375C18.0355 11.375 18.875 10.5355 18.875 9.5C18.875 8.46447 18.0355 7.625 17 7.625C15.9645 7.625 15.125 8.46447 15.125 9.5C15.125 10.5355 15.9645 11.375 17 11.375Z" fill="#F0CA50"/>
<path d="M9.5 11.375C10.5355 11.375 11.375 10.5355 11.375 9.5C11.375 8.46447 10.5355 7.625 9.5 7.625C8.46447 7.625 7.625 8.46447 7.625 9.5C7.625 10.5355 8.46447 11.375 9.5 11.375Z" fill="#5C9EDC"/>
<path d="M0 17V58.25C0 61.3516 2.52338 63.875 5.625 63.875H58.375C61.4766 63.875 64 61.3516 64 58.25V17H0Z" fill="#E4E4E4"/>
<path d="M64 17V58.25C64 61.3512 61.4762 63.875 58.375 63.875H32V17H64Z" fill="#E4E4E4"/>
<path d="M38.3641 24.6521C37.4124 24.2442 36.31 24.6851 35.9021 25.6368L24.6521 51.8868C24.2441 52.8386 24.6851 53.9409 25.6369 54.3488C26.589 54.7568 27.6911 54.3156 28.0989 53.3641L39.3489 27.1141C39.7569 26.1622 39.3159 25.0599 38.3641 24.6521Z" fill="#EE4D4A"/>
<path d="M39.3488 27.1133L32 44.2608V34.7383L35.9012 25.6358C36.31 24.6846 37.4113 24.2433 38.3638 24.6508C39.315 25.0596 39.7563 26.1608 39.3488 27.1133Z" fill="#EE4D4A"/>
<path d="M21.9208 45.5358L14.376 39.5L21.9208 33.4641C22.7295 32.8172 22.8605 31.6373 22.2136 30.8287C21.5666 30.0201 20.3865 29.8891 19.5783 30.536L10.2033 38.036C9.26589 38.7856 9.26527 40.214 10.2033 40.9642L19.5783 48.4642C20.3869 49.1112 21.567 48.98 22.2136 48.1715C22.8605 47.3626 22.7295 46.1827 21.9208 45.5358Z" fill="#EE4D4A"/>
<path d="M53.7963 38.0358L44.4213 30.5358C43.6127 29.8888 42.4327 30.0199 41.786 30.8285C41.1391 31.6371 41.2701 32.8171 42.0788 33.4639L49.6236 39.4999L42.0788 45.5358C41.2701 46.1826 41.1391 47.3625 41.786 48.1711C42.4337 48.9806 43.6138 49.1101 44.4213 48.4639L53.7963 40.9639C54.7337 40.2143 54.7343 38.786 53.7963 38.0358Z" fill="#EE4D4A"/>
</svg>
