<svg width="48" height="49" viewBox="0 0 48 49" fill="none" xmlns="http://www.w3.org/2000/svg">
<g clip-path="url(#clip0_1855_14030)">
<path d="M26.9606 32.3307L30.4961 35.8662L35.0922 31.2701L31.5567 27.7346L26.9606 32.3307Z" fill="#163459"/>
<path d="M17.5 33.832C26.0604 33.832 32.9999 26.8924 32.9999 18.332C32.9999 9.7716 26.0604 2.83203 17.5 2.83203C8.93957 2.83203 2 9.7716 2 18.332C2 26.8924 8.93957 33.832 17.5 33.832Z" fill="#8EC6D8"/>
<path d="M29.8999 30.732C23.1 37.5319 11.8999 37.5319 5.09998 30.732C-1.69999 23.932 -1.69999 12.732 5.09998 5.93201C11.8999 -0.867961 23.1 -0.867961 29.8999 5.93201C36.6999 12.732 36.7999 23.932 29.8999 30.732ZM7.99995 8.83198C2.69998 14.1319 2.69998 22.632 7.99995 27.9319C13.2999 33.2319 21.7999 33.2319 27.0999 27.9319C32.3999 22.632 32.3999 14.1319 27.0999 8.83198C21.7999 3.53201 13.2 3.53201 7.99995 8.83198Z" fill="#1C427B"/>
<path d="M35.6996 30.4316C40.9996 34.1317 44.9996 37.0316 46.1996 38.3317C48.5996 40.7317 48.5996 44.6317 46.1996 47.0317C43.7996 49.4317 39.8996 49.4317 37.4996 47.0317C36.2996 45.8317 33.2996 41.8316 29.5996 36.5317L35.6996 30.4316Z" fill="#EE4D4A"/>
<path d="M31.5992 39.3323C30.9992 38.4323 30.2992 37.5323 29.6992 36.6323L35.7993 30.5322C36.7993 31.2323 37.6993 31.8323 38.4993 32.4323L31.5992 39.3323Z" fill="#C43633"/>
<path d="M30.7008 37.6319L36.8008 31.5319C37.4008 30.9319 37.4008 29.9318 36.8008 29.3318C36.2008 28.7318 35.2008 28.7318 34.6008 29.3318L28.5008 35.432C27.9008 36.032 27.9008 37.032 28.5008 37.632C29.1008 38.3319 30.1008 38.3319 30.7008 37.6319Z" fill="#EE4D4A"/>
<path d="M17.5008 12.4323C20.0965 12.4323 22.2007 11.4473 22.2007 10.2323C22.2007 9.01721 20.0965 8.03223 17.5008 8.03223C14.905 8.03223 12.8008 9.01721 12.8008 10.2323C12.8008 11.4473 14.905 12.4323 17.5008 12.4323Z" fill="white"/>
</g>
<defs>
<clipPath id="clip0_1855_14030">
<rect width="48" height="48" fill="white" transform="translate(0 0.832031)"/>
</clipPath>
</defs>
</svg>
