<svg width="87" height="100" viewBox="0 0 87 100" fill="none" xmlns="http://www.w3.org/2000/svg">
<path d="M37.8881 35.5878C38.0825 40.7497 33.9999 45.0966 28.8286 45.2907C23.6574 45.4847 19.3026 41.4095 19.1082 36.2476C18.9138 31.0856 22.9964 26.7387 28.1676 26.5447C33.3389 26.3506 37.6936 30.387 37.8881 35.5878Z" fill="#F7E39E"/>
<path d="M35.4822 35.5118C35.6377 39.4318 32.5272 42.7308 28.6001 42.886C24.6731 43.0412 21.3681 39.9363 21.2126 36.0164C21.0571 32.0964 24.1676 28.7974 28.0947 28.6422C32.0606 28.4869 35.3655 31.5919 35.4822 35.5118Z" fill="#F0CA50"/>
<path d="M28.7167 38.8086L28.7556 39.8177L28.0168 39.8566L27.978 38.8863C27.0837 38.8475 26.2283 38.6146 25.7617 38.2265L26.1505 37.295C26.6171 37.6443 27.2781 37.8772 27.978 37.916L27.9002 36.1306C26.8893 35.9366 25.8395 35.6261 25.8006 34.3841C25.7617 33.4915 26.3838 32.6764 27.7836 32.4824L27.7447 31.4733L28.4834 31.4344L28.5223 32.4047C29.1833 32.4047 29.8443 32.5988 30.3497 32.8705L29.9998 33.8019C29.5332 33.5303 29.0278 33.4138 28.5223 33.375L28.6001 35.1604C29.611 35.3544 30.6997 35.6261 30.7386 36.8681C30.7774 37.8383 30.1165 38.6146 28.7167 38.8086ZM27.8613 35.0439L27.8224 33.4526C27.2003 33.5691 26.9282 33.9184 26.967 34.3065C26.967 34.7334 27.3559 34.8887 27.8613 35.0439ZM29.611 37.0233C29.611 36.5964 29.1833 36.4023 28.639 36.2471L28.6778 37.8383C29.3388 37.7219 29.611 37.4114 29.611 37.0233Z" fill="white"/>
<path d="M46.0701 37.4547C46.8365 37.0014 47.6312 36.6331 48.4827 36.4064L48.9653 34.0264L52.9959 33.9697L53.5636 36.3214C54.4151 36.5197 55.2382 36.8597 56.0046 37.2847L58.0483 35.9531L60.9435 38.758L59.6662 40.8264C60.1204 41.5914 60.4894 42.3847 60.7164 43.2347L63.1007 43.7164L63.1575 47.7397L60.8016 48.3064C60.6029 49.1563 60.2623 49.978 59.8365 50.743L61.1706 52.783L58.3605 55.673L56.2885 54.398C55.5221 54.8513 54.7273 55.2197 53.8758 55.4463L53.3649 57.8263L49.4194 57.9397L48.8517 55.588C48.0002 55.3897 47.1771 55.0497 46.4107 54.6247L44.367 55.9563L41.4718 53.1513L42.7491 51.083C42.2949 50.318 41.9259 49.5247 41.6989 48.6747L39.3146 48.1647L39.2578 44.1414L41.6137 43.5747C41.8124 42.7247 42.153 41.903 42.5788 41.138L41.2447 39.098L44.0548 36.2081L46.0701 37.4547ZM48.2273 42.838C46.581 44.5664 46.6094 47.2864 48.3408 48.958C50.0723 50.6013 52.7972 50.573 54.4719 48.8447C56.1182 47.1164 56.0898 44.3964 54.3583 42.7247C52.6269 41.053 49.902 41.1097 48.2273 42.838Z" fill="#545A5C"/>
<path d="M17.8727 13.0626C19.3007 11.3927 19.6671 8.86444 18.5686 6.63851C17.1287 3.74855 13.7409 2.47614 11.0267 3.83667C8.31248 5.1972 7.25073 8.61887 8.68207 11.5631C9.81199 13.7661 12.0656 15.0027 14.3137 14.8488C7.28694 19.7972 11.7538 27.8783 11.7538 27.8783L29.743 18.9493C29.743 18.9493 25.981 10.4487 17.8727 13.0626Z" fill="#1C427B"/>
<path d="M75.6964 29.5619C77.135 28.1259 77.6405 25.7972 76.7851 23.6626C75.6575 20.8681 72.6248 19.4709 69.9808 20.5188C67.3757 21.5667 66.1704 24.7105 67.298 27.4661C68.1534 29.6007 70.1752 30.9203 72.2359 30.9203C65.3928 34.9955 68.9699 42.7578 68.9699 42.7578L86.2333 35.7718C86.2333 35.8494 83.3561 27.699 75.6964 29.5619Z" fill="#EE4D4A"/>
<path d="M10.3125 49.5057L30.6476 81.991L35.1579 99.9995H42.1954V50.0491L10.3125 49.5057Z" fill="#F0CA50"/>
<path d="M37.418 50.0491V99.9995H44.4167L48.9658 81.991L69.262 49.5057L37.418 50.0491Z" fill="#F0CA50"/>
<path d="M68.5112 53.2697H11.1608C9.37221 53.2697 7.93359 51.8337 7.93359 50.0484C7.93359 48.2631 9.37221 46.827 11.1608 46.827H68.5112C70.2997 46.827 71.7383 48.2631 71.7383 50.0484C71.7383 51.8337 70.2997 53.2697 68.5112 53.2697Z" fill="#F0CA50"/>
<path d="M43.9157 12.9513L43.6465 13.6826L43.8247 22.0173C44.7707 22.9765 46.0654 23.5078 47.4209 23.4788L56.144 23.3C56.144 23.3 57.5386 23.2219 57.4472 21.4114C57.4472 21.4114 57.5284 20.4827 56.7508 20.2899C56.7508 20.2899 58.5014 19.8857 58.5285 18.6017C58.5555 17.3177 57.6232 17.1782 57.6232 17.1782C57.6232 17.1782 59.2305 17.0447 59.2923 15.5961C59.3679 14.1504 58.5346 14.0174 58.5346 14.0174C58.5346 14.0174 60.3871 13.8783 60.2059 12.2208C60.0081 10.5741 58.4145 10.7105 58.4145 10.7105L52.2153 10.8346L46.7792 10.9478C45.4873 10.9473 44.3551 11.7544 43.9157 12.9513Z" fill="#EE4D4A"/>
<path d="M45.7337 11.1157C45.7337 11.1157 47.8607 9.74491 48.8123 8.02561C49.5056 6.78197 49.7084 5.27717 49.7084 5.27717C49.7092 5.20568 49.705 4.54561 49.7022 4.01482C49.6958 3.56924 50.0438 3.21282 50.4793 3.19012C51.4081 3.14262 52.885 3.89869 53.0988 5.60609C53.4114 8.13686 52.5358 9.70024 52.396 10.4302C52.2562 11.1602 52.2562 11.1602 52.2562 11.1602L45.7337 11.1157Z" fill="#EE4D4A"/>
<path d="M44.6664 11.0639L38.5723 11.1914L38.8409 23.556L44.935 23.4285L44.6664 11.0639Z" fill="#EE4D4A"/>
<path d="M42.574 13.9451C42.584 14.5777 42.0884 15.0892 41.4518 15.1125C40.8181 15.122 40.3054 14.6268 40.2817 13.9913C40.2717 13.3586 40.7673 12.8471 41.4039 12.8239C42.0375 12.8144 42.564 13.3124 42.574 13.9451Z" fill="white"/>
<g opacity="0.3">
<g opacity="0.3">
<path opacity="0.3" d="M50.4106 3.79223C50.1972 3.91913 50.1089 4.20141 50.1284 4.44914C50.1478 4.69686 50.2418 4.93165 50.3025 5.18808C50.4319 5.73127 50.3818 6.30823 50.1589 6.82004C50.0829 6.97595 50.0012 7.15931 50.085 7.30599C50.1986 7.51624 50.5212 7.48405 50.7317 7.37087C51.5622 6.97303 52.0977 6.06866 52.0769 5.14716C52.0589 4.75645 51.9389 4.37286 51.6858 4.07581C51.4269 3.8062 51.0002 3.51548 50.4106 3.79223Z" fill="white"/>
</g>
</g>
<g opacity="0.3">
<g opacity="0.3">
<path opacity="0.3" d="M58.8954 10.9995C58.698 10.9148 58.4802 10.9262 58.2625 10.9375C57.0306 10.9927 55.8016 11.0341 54.5697 11.0893C54.1646 11.1041 53.4326 11.0355 53.3349 11.4304C53.2061 11.6325 53.3217 11.9005 53.5105 12.0264C53.6993 12.1522 53.9524 12.177 54.1781 12.196C54.6599 12.2261 55.1503 12.215 55.6408 12.2039C56.6216 12.1817 57.5917 12.1429 58.5603 11.9748C58.7093 11.949 58.8446 11.9202 58.9748 11.8474C59.105 11.7746 59.2027 11.6519 59.2317 11.5147C59.2672 11.2786 59.0929 11.0842 58.8954 10.9995Z" fill="white"/>
</g>
</g>
</svg>
