<svg width="150" height="162" viewBox="0 0 150 162" fill="none" xmlns="http://www.w3.org/2000/svg">
<path d="M35.4515 27.1188C28.0066 27.1188 21.9404 21.0616 21.9404 13.5396C21.9798 6.05718 28.0066 0 35.4515 0C42.8963 0 48.9625 6.05718 48.9625 13.5792C48.9625 21.0616 42.9357 27.1188 35.4515 27.1188Z" fill="#5C9EDC"/>
<path d="M32.1424 10.5303H29.3457V19.5963H32.1424V10.5303Z" fill="white"/>
<path d="M30.7247 9.34309C31.6307 9.34309 32.3791 8.59089 32.3791 7.68033C32.3791 6.76978 31.6307 6.01758 30.7247 6.01758C29.8187 6.01758 29.0703 6.76978 29.0703 7.68033C29.0703 8.59089 29.8187 9.34309 30.7247 9.34309Z" fill="white"/>
<path d="M36.5933 14.8463C36.5933 13.5794 37.1841 12.8272 38.2871 12.8272C39.3112 12.8272 39.8233 13.5398 39.8233 14.8463C39.8233 16.1527 39.8233 19.597 39.8233 19.597H42.6201C42.6201 19.597 42.6201 16.2715 42.6201 13.8565C42.6201 11.4416 41.2414 10.2539 39.3506 10.2539C37.4205 10.2539 36.6327 11.7583 36.6327 11.7583V10.531H33.9541V19.597H36.6327C36.5933 19.597 36.5933 16.2319 36.5933 14.8463Z" fill="white"/>
<path d="M134.402 48.4175C126.445 52.2972 116.873 48.9717 113.012 40.9746C109.152 32.9776 112.461 23.3573 120.418 19.4776C128.375 15.5978 137.947 18.9233 141.807 26.9204C145.667 34.9175 142.319 44.5377 134.402 48.4175Z" fill="#EE4D4A"/>
<path d="M123.451 37.5305C123.727 37.5305 123.884 37.3326 123.805 37.0554C123.766 36.8575 123.648 36.3824 123.608 36.1845C123.569 35.9074 123.49 35.8282 123.215 35.7094C122.584 35.4323 122.033 34.9572 121.639 34.0862C120.418 31.5921 121.206 28.4645 124.199 26.9997C126.838 25.6933 129.084 26.6038 130.108 28.7813C131.487 31.6317 131.408 34.6405 129.517 35.5511C128.493 36.0657 127.311 35.5906 127.035 34.403C126.72 33.0173 126.642 31.3942 126.208 30.4836C125.814 29.6918 125.066 29.2167 124.16 29.6522C123.096 30.1669 122.781 31.6713 123.49 33.1361C123.924 34.0862 124.554 34.5613 124.554 34.5613C124.554 34.5613 125.696 39.6684 125.893 40.5393C126.287 42.3208 127.548 44.1024 127.666 44.3003C127.744 44.4191 127.902 44.3795 127.941 44.2607C127.981 44.1024 128.493 41.925 128.138 40.183C128.06 39.6684 127.508 37.1346 127.508 37.1346C128.178 37.6097 129.438 37.7285 130.502 37.1742C133.653 35.6302 134.401 31.7109 132.511 27.8311C131.093 24.9015 127.311 23.3971 123.569 25.2182C118.921 27.5144 118.173 32.0276 119.551 34.7989C120.418 36.4616 121.796 37.6493 123.451 37.5305Z" fill="white"/>
<path d="M134.991 92.7977C129.279 90.6203 126.443 84.2068 128.61 78.4663C130.776 72.7259 137.158 69.8754 142.869 72.0529C148.581 74.2303 151.417 80.6438 149.251 86.3842C147.084 92.1247 140.703 94.9751 134.991 92.7977Z" fill="#EE4D4A"/>
<path fill-rule="evenodd" clip-rule="evenodd" d="M144.72 84.3257C145.784 81.3169 144.248 77.9518 141.215 76.8037C138.221 75.6556 134.912 77.0808 133.652 79.9709C133.612 80.05 133.573 80.1292 133.573 80.2084C133.179 81.2377 133.1 82.3462 133.297 83.3756L131.17 85.9489L134.636 86.1468C135.267 86.899 136.094 87.4929 137.039 87.8492C140.112 89.0368 143.539 87.4929 144.681 84.4445C144.681 84.4049 144.681 84.3653 144.72 84.3257ZM137.354 86.9782C136.409 86.6219 135.621 85.9885 135.07 85.2363L133.061 85.1175L134.282 83.6131C134.006 82.6234 134.045 81.5544 134.439 80.5251C134.479 80.3668 134.558 80.2084 134.636 80.0896C135.779 77.833 138.457 76.7245 140.899 77.6747C143.342 78.6248 144.642 81.2773 143.933 83.7715C143.893 83.8902 143.854 84.009 143.814 84.1278C142.79 86.7011 139.915 87.9679 137.354 86.9782Z" fill="white"/>
<path fill-rule="evenodd" clip-rule="evenodd" d="M141.215 84.4048C141.097 84.286 140.545 83.6921 140.467 83.613C140.348 83.5338 140.27 83.4546 140.151 83.5734C139.994 83.6921 139.639 83.8901 139.521 83.9297C139.403 84.0089 139.324 83.9693 139.206 83.8505C139.088 83.7317 138.694 83.415 138.379 82.742C138.103 82.2273 138.024 81.6731 137.985 81.5147C137.946 81.3564 138.064 81.3168 138.142 81.2772C138.221 81.2376 138.339 81.1584 138.458 81.1188C138.497 81.1188 138.497 81.0792 138.536 81.0792C138.576 81.0397 138.615 81.0001 138.694 80.9605C138.773 80.8813 138.773 80.8021 138.773 80.7229C138.773 80.6438 138.733 79.852 138.733 79.5353C138.733 79.2185 138.576 79.2185 138.497 79.179C138.418 79.1394 138.339 79.0998 138.261 79.0602C138.182 79.0206 138.024 79.0206 137.827 79.0998C137.67 79.179 137.158 79.3769 136.921 80.0499C136.843 80.2083 136.843 80.3666 136.803 80.525C136.764 81.0397 136.921 81.5543 136.921 81.6335C136.961 81.7523 137.276 83.4942 138.458 84.5631C139.639 85.632 139.718 85.4737 139.954 85.5133C140.23 85.5924 140.9 85.5133 141.136 85.2361C141.373 84.959 141.491 84.6819 141.451 84.6027C141.412 84.6027 141.333 84.5631 141.215 84.4048Z" fill="white"/>
<path d="M13.6653 51.8656C6.13021 51.8656 0 45.6899 0 38.0988C0 30.5078 6.13021 24.332 13.6653 24.332C21.2003 24.332 27.3305 30.5078 27.3305 38.0988C27.2666 45.6899 21.2003 51.8656 13.6653 51.8656Z" fill="#EE4D4A"/>
<path d="M6.35547 42.808C7.70192 43.6584 9.24073 44.1816 10.9719 44.1816C16.5501 44.1816 19.6918 39.4068 19.4994 35.0898C20.0765 34.632 20.5894 34.1087 20.9741 33.52C20.4612 33.7817 19.8841 33.9125 19.243 33.9779C19.8841 33.5854 20.3329 32.9968 20.5894 32.2773C20.0124 32.6043 19.3712 32.8659 18.6659 32.9968C18.0889 32.4081 17.3195 32.0156 16.4859 32.0156C14.5624 32.0156 13.1519 33.8471 13.5366 35.7439C11.036 35.6131 8.85603 34.3703 7.38134 32.5389C6.61194 33.9125 6.99664 35.6785 8.27897 36.5942C7.76604 36.5942 7.31722 36.4634 6.93252 36.2018C6.8684 37.6408 7.89427 38.9489 9.30485 39.2106C8.85603 39.3414 8.40721 39.3414 7.95839 39.276C8.34309 40.5188 9.43308 41.3691 10.7795 41.3691C9.4972 42.5464 7.95839 43.0043 6.35547 42.808Z" fill="white"/>
<path d="M31.6309 143.63C23.8315 145.491 16.0322 140.661 14.1808 132.822C12.3294 124.984 17.1351 117.145 24.9345 115.284C32.7339 113.424 40.5332 118.254 42.3846 126.092C44.236 133.891 39.3909 141.77 31.6309 143.63Z" fill="#5C9EDC"/>
<path d="M26.7466 123.083C28.7949 122.608 29.0706 122.529 29.8978 122.371C30.6463 122.213 31.1189 122.252 31.3947 122.292C31.7886 122.331 32.1037 122.45 32.4188 122.648C32.7734 122.846 32.9703 123.083 33.2067 123.4C33.3642 123.638 33.6006 124.034 33.7975 124.786C34.0339 125.578 34.1126 125.855 34.5853 127.913C35.058 129.972 35.1368 130.249 35.2944 131.081C35.4519 131.833 35.4125 132.308 35.3731 132.585C35.3338 132.981 35.2156 133.298 35.0186 133.614C34.8217 133.971 34.5853 134.169 34.2702 134.406C34.0339 134.564 33.64 134.802 32.8915 135C32.1037 135.237 31.828 135.317 29.7797 135.792C27.7313 136.267 27.4556 136.346 26.6284 136.504C25.88 136.663 25.4073 136.623 25.1315 136.583C24.7376 136.544 24.4225 136.425 24.1074 136.227C23.7529 136.029 23.5559 135.792 23.3196 135.475C23.162 135.237 22.9257 134.842 22.7287 134.089C22.4924 133.298 22.4136 133.02 21.9409 130.962C21.4682 128.903 21.3894 128.626 21.2319 127.795C21.0743 127.042 21.1137 126.567 21.1531 126.29C21.1925 125.894 21.3106 125.578 21.5076 125.261C21.7046 124.905 21.9409 124.707 22.256 124.469C22.4924 124.311 22.8863 124.073 23.6347 123.875C24.4225 123.638 24.6982 123.559 26.7466 123.083ZM26.4314 121.658C24.3437 122.173 24.068 122.252 23.2408 122.45C22.4136 122.688 21.9015 122.965 21.4682 123.242C20.9955 123.559 20.641 123.915 20.3259 124.469C20.0107 125.023 19.8532 125.498 19.7744 126.053C19.6956 126.607 19.6956 127.201 19.8532 128.032C20.0107 128.864 20.0501 129.141 20.5622 131.239C21.0743 133.337 21.1531 133.614 21.35 134.446C21.5864 135.277 21.8621 135.792 22.1378 136.227C22.453 136.702 22.8075 137.059 23.359 137.375C23.9104 137.692 24.3831 137.85 24.9346 137.93C25.4861 138.009 26.0769 138.009 26.9041 137.85C27.7313 137.692 28.0071 137.652 30.0948 137.138C32.1825 136.623 32.4582 136.544 33.2854 136.346C34.1126 136.108 34.6247 135.831 35.058 135.554C35.5307 135.237 35.8852 134.881 36.2003 134.327C36.5155 133.773 36.673 133.298 36.7518 132.743C36.8306 132.189 36.8306 131.595 36.673 130.764C36.5155 129.932 36.4761 129.655 35.964 127.557C35.4519 125.459 35.3731 125.182 35.1762 124.35C34.9398 123.519 34.6641 123.004 34.3884 122.569C34.0732 122.094 33.7187 121.737 33.1673 121.421C32.6158 121.104 32.1431 120.946 31.5916 120.866C31.0402 120.787 30.4493 120.787 29.6221 120.946C28.7949 121.104 28.5192 121.183 26.4314 121.658Z" fill="white"/>
<path d="M27.2983 125.459C25.0924 125.974 23.7532 128.191 24.2652 130.408C24.7773 132.625 26.9832 133.971 29.1891 133.456C31.395 132.942 32.7343 130.725 32.2222 128.508C31.7101 126.291 29.5042 124.944 27.2983 125.459ZM28.874 132.031C27.4559 132.387 26.0378 131.477 25.6833 130.052C25.3288 128.626 26.2348 127.201 27.6528 126.845C29.0709 126.488 30.489 127.399 30.8435 128.824C31.1586 130.249 30.292 131.675 28.874 132.031Z" fill="white"/>
<path d="M32.34 124.073C32.4582 124.588 32.1431 125.103 31.631 125.222C31.1189 125.34 30.6068 125.024 30.4887 124.509C30.3705 123.994 30.6856 123.48 31.1977 123.361C31.7098 123.242 32.2219 123.559 32.34 124.073Z" fill="white"/>
<path d="M133.792 127.423C128 127.423 123.305 122.694 123.305 116.858C123.305 111.023 128 106.293 133.792 106.293C139.584 106.293 144.279 111.023 144.279 116.858C144.279 122.694 139.584 127.423 133.792 127.423Z" fill="#5C9EDC"/>
<path d="M131.548 122.941H134.051V116.8H135.779L135.958 114.753H134.051C134.051 114.753 134.051 113.992 134.051 113.583C134.051 113.115 134.17 112.881 134.647 112.881C135.004 112.881 136.017 112.881 136.017 112.881V110.775C136.017 110.775 134.587 110.775 134.289 110.775C132.442 110.775 131.608 111.594 131.608 113.115C131.608 114.46 131.608 114.753 131.608 114.753H130.297V116.8H131.608V122.941H131.548Z" fill="white"/>
<path d="M108.718 152.532L54.3983 152.495C47.8594 152.495 42.5811 147.466 42.5811 141.318L42.6204 12.5226C42.6204 6.33807 47.9382 1.3457 54.4771 1.3457L108.797 1.38296C115.336 1.38296 120.614 6.41258 120.614 12.5599L120.575 141.355C120.575 147.54 115.257 152.532 108.718 152.532Z" fill="#163459"/>
<path d="M108.706 6.01953H98.1885C96.7705 6.01953 95.6281 7.13723 95.6281 8.55297V10.3413C95.6281 11.7198 94.4858 12.8747 93.0677 12.8747H72.5451C71.1271 12.8747 69.9847 11.757 69.9847 10.3413V8.55297C69.9847 7.17448 68.8424 6.01953 67.4243 6.01953H63.7216H54.5042C49.9348 6.01953 46.2321 9.52164 46.2321 13.8434L46.1533 139.509C46.1533 143.831 49.8561 147.333 54.4254 147.333L108.627 147.371C113.196 147.371 116.899 143.868 116.899 139.547L116.978 13.8434C116.978 9.52164 113.275 6.01953 108.706 6.01953Z" fill="white"/>
<path d="M109.506 16.1351C109.506 16.1726 108.128 16.2102 106.434 16.2102C104.74 16.2102 103.361 16.2102 103.361 16.1726C103.361 16.1351 104.74 16.0976 106.434 16.0976C108.128 16.06 109.506 16.0976 109.506 16.1351Z" fill="#163459"/>
<path d="M109.506 17.5893C109.506 17.6268 108.128 17.6644 106.434 17.6644C104.74 17.6644 103.361 17.6644 103.361 17.6268C103.361 17.5893 104.74 17.5518 106.434 17.5518C108.128 17.5518 109.506 17.5893 109.506 17.5893Z" fill="#163459"/>
<path d="M109.506 19.0795C109.506 19.1171 108.128 19.1546 106.434 19.1546C104.74 19.1546 103.361 19.1546 103.361 19.1171C103.361 19.0795 104.74 19.042 106.434 19.042C108.167 19.042 109.506 19.042 109.506 19.0795Z" fill="#163459"/>
<path d="M51.9167 20.5329C51.9167 20.5329 51.9561 20.5329 52.0742 20.5329C52.1924 20.5329 52.35 20.5329 52.5075 20.5329C52.9408 20.5329 53.4923 20.4957 54.1619 20.4957L54.1225 20.5329C54.1225 20.1976 54.1225 19.825 54.1225 19.4152C54.1225 19.1917 54.1225 19.0054 54.1225 18.7819C54.1619 18.5583 54.3983 18.3348 54.674 18.2975C54.9498 18.2975 55.1861 18.2975 55.4618 18.2975C55.777 18.3348 56.0133 18.5956 56.0133 18.8936C56.0133 19.4152 56.0133 19.9741 56.0527 20.5329L55.9739 20.4584C56.6436 20.4584 57.3526 20.4584 58.0616 20.4211L57.9828 20.4957C57.9828 19.7133 57.9828 18.8936 57.9435 18.0367C57.9435 17.8132 57.9435 17.6269 57.9435 17.4034C57.9435 17.2171 57.8253 17.0681 57.6677 16.9563C57.3526 16.6582 57.0769 16.3974 56.7617 16.0994C56.4466 15.8386 56.1709 15.5405 55.8951 15.2798C55.7376 15.1307 55.6194 15.019 55.4618 14.8699C55.3043 14.7209 55.1861 14.6091 55.0285 14.5719C54.871 14.5346 54.674 14.5719 54.5559 14.6464C54.4377 14.7582 54.2801 14.9072 54.1619 15.019C53.9256 15.2798 53.6499 15.5033 53.4135 15.7268C52.9408 16.1739 52.4681 16.621 52.1136 16.9936C51.9561 17.2171 52.0348 17.4779 51.9955 17.7387C51.9955 17.9995 51.9955 18.223 51.9955 18.4466C51.9955 18.8564 51.9955 19.2289 51.9955 19.5642C51.9955 19.8623 51.9955 20.0858 51.9955 20.2721C51.9167 20.4211 51.9167 20.5329 51.9167 20.5329C51.9167 20.5329 51.9167 20.4584 51.9167 20.3094C51.9167 20.1231 51.9167 19.8996 51.8773 19.6015C51.8773 19.2662 51.8773 18.8936 51.8379 18.4838C51.8379 18.2603 51.8379 18.0367 51.8379 17.7759C51.8379 17.6642 51.8379 17.5151 51.8379 17.4034C51.8379 17.2543 51.8773 17.1053 51.9561 16.9936C52.35 16.5465 52.7833 16.1367 53.256 15.6896C53.4923 15.466 53.7286 15.2052 54.0044 14.9817C54.1226 14.8699 54.2407 14.7209 54.3983 14.6091C54.5559 14.4974 54.7922 14.4601 54.9892 14.4974C55.2255 14.5346 55.3437 14.7209 55.5012 14.8327C55.6588 14.9444 55.777 15.0935 55.9345 15.2425C56.2103 15.5033 56.5254 15.7641 56.8011 16.0621C57.1162 16.3229 57.392 16.621 57.7071 16.919C57.7859 16.9936 57.8647 17.0681 57.9435 17.1426C58.0222 17.2543 58.0616 17.3661 58.0616 17.4779C58.0616 17.7014 58.0616 17.8877 58.0616 18.1112C58.0616 18.9309 58.0616 19.7505 58.101 20.5702V20.6447H58.0222C57.3132 20.6447 56.6042 20.6447 55.9345 20.6447H55.8557V20.5702C55.8557 20.0113 55.8557 19.4525 55.8557 18.9309C55.8557 18.7073 55.6588 18.4838 55.4224 18.4466C55.1861 18.4466 54.9104 18.4466 54.674 18.4466C54.4377 18.4466 54.2801 18.6328 54.2407 18.8191C54.2013 19.0054 54.2407 19.2289 54.2407 19.4525C54.2407 19.8623 54.2407 20.2349 54.2407 20.5702V20.6074H54.2013C53.5317 20.6074 52.9408 20.6074 52.5469 20.6074C52.3894 20.6074 52.2318 20.6074 52.1136 20.6074C51.9561 20.5329 51.8773 20.5329 51.9167 20.5329Z" fill="#163459"/>
<path d="M111.239 131.482L110.097 130.402L108.994 131.445V128.315H111.239V131.482ZM110.058 130.253L111.121 131.259V128.39H109.073V131.184L110.058 130.253Z" fill="#163459"/>
<path d="M80.396 131.072L80.0021 130.886C79.8051 130.998 79.6476 131.035 79.49 131.035C78.8597 131.035 78.3477 130.551 78.3477 129.954C78.3477 129.358 78.8597 128.874 79.49 128.874C80.1202 128.874 80.6323 129.358 80.6323 129.954C80.6323 130.215 80.5535 130.476 80.3566 130.662L80.396 131.072ZM79.4506 128.986C78.8597 128.986 78.387 129.433 78.387 129.992C78.387 130.551 78.8597 130.998 79.4506 130.998C79.6082 130.998 79.7657 130.96 79.9627 130.849L80.2778 130.96L80.199 130.662C80.396 130.476 80.4748 130.215 80.4748 129.992C80.5141 129.396 80.0415 128.949 79.4506 128.986Z" fill="#163459"/>
<path d="M83.0356 130.886L82.5629 129.806L81.6963 129.061H83.8234L83.0356 130.886ZM81.8932 129.135L82.6417 129.768L83.0356 130.7L83.7052 129.135H81.8932Z" fill="#163459"/>
<path d="M83.7689 129.058L82.6133 129.77L82.6562 129.832L83.8119 129.121L83.7689 129.058Z" fill="#163459"/>
<path d="M77.0475 129.284C76.9688 128.986 76.693 128.763 76.3779 128.8C76.0628 128.8 75.787 129.061 75.7476 129.359C75.7082 129.061 75.4325 128.837 75.1174 128.837C74.8023 128.837 74.5265 129.061 74.4477 129.359C74.4084 129.582 74.4871 129.806 74.6053 129.955C74.7235 130.141 74.9204 130.29 75.078 130.402C75.3143 130.588 75.5507 130.775 75.787 130.998C76.0234 130.812 76.2203 130.588 76.4567 130.402C76.6142 130.253 76.8112 130.104 76.9294 129.918C77.0475 129.731 77.1263 129.508 77.0475 129.284Z" fill="#EE4D4A"/>
<path d="M113.602 134.239C113.602 134.239 113.602 134.127 113.602 133.903C113.602 133.68 113.602 133.344 113.602 132.897C113.602 132.003 113.602 130.662 113.602 128.948C113.602 125.521 113.563 120.528 113.563 114.306L113.641 114.381C98.476 114.381 75.8657 114.418 50.6556 114.418L50.7738 114.306C50.7738 121.236 50.7738 127.98 50.7738 134.276L50.6556 134.164C68.7754 134.164 84.5317 134.201 95.7186 134.201C101.312 134.201 105.803 134.239 108.875 134.239C110.411 134.239 111.593 134.239 112.42 134.239C112.814 134.239 113.129 134.239 113.326 134.239C113.484 134.239 113.602 134.239 113.602 134.239C113.602 134.239 113.484 134.239 113.287 134.239C113.09 134.239 112.775 134.239 112.381 134.239C111.593 134.239 110.411 134.239 108.875 134.239C105.803 134.239 101.352 134.239 95.758 134.276C84.5317 134.276 68.7754 134.313 50.6162 134.313H50.498V134.201C50.498 127.905 50.498 121.162 50.498 114.232V114.12H50.6162C75.8263 114.12 98.4366 114.157 113.602 114.157H113.681V114.232C113.681 120.491 113.641 125.483 113.641 128.911C113.641 130.625 113.641 131.929 113.641 132.823C113.641 133.27 113.641 133.605 113.641 133.829C113.602 134.127 113.602 134.239 113.602 134.239Z" fill="#163459"/>
<path d="M53.2277 117.619L53.1484 130.808L70.5985 130.901L70.6778 117.713L53.2277 117.619Z" fill="#5C9EDC"/>
<path d="M70.6663 117.733C70.6663 117.733 70.6269 117.733 70.5875 117.733C70.5087 117.733 70.4299 117.733 70.3512 117.733C70.1148 117.733 69.7997 117.733 69.4058 117.733C68.5786 117.733 67.3575 117.733 65.8212 117.733C62.7487 117.733 58.4157 117.733 53.2555 117.696L53.3343 117.621C53.2949 121.533 53.2949 126.041 53.2555 130.81C53.2949 130.847 53.0586 130.624 53.1374 130.698H53.1768H53.2555H53.4131H53.7282H54.3191C54.713 130.698 55.1069 130.698 55.5008 130.698C56.2886 130.698 57.0765 130.698 57.8643 130.698C59.4005 130.698 60.9367 130.698 62.3942 130.736C65.3091 130.773 68.0665 130.773 70.5481 130.81L70.4693 130.885C70.5087 126.936 70.5481 123.62 70.5875 121.31C70.5875 120.155 70.6269 119.261 70.6269 118.627C70.6269 118.329 70.6269 118.106 70.6269 117.919C70.6663 117.808 70.6663 117.733 70.6663 117.733C70.6663 117.733 70.6663 117.808 70.6663 117.957C70.6663 118.106 70.6663 118.367 70.6663 118.665C70.6663 119.298 70.6663 120.192 70.6663 121.31C70.6663 123.62 70.6663 126.936 70.6663 130.922V130.996H70.5875C68.1059 130.996 65.3485 130.959 62.4336 130.959C60.9761 130.959 59.4399 130.959 57.9037 130.922C57.1158 130.922 56.328 130.922 55.5402 130.922C55.1463 130.922 54.7524 130.922 54.3585 130.922H53.7676H53.4525H53.2949H53.2162H53.1768C53.2555 130.996 53.0586 130.81 53.0586 130.81C53.098 126.041 53.1374 121.533 53.1374 117.621V117.547H53.2162C58.4157 117.584 62.7881 117.621 65.8606 117.659C67.3968 117.659 68.5786 117.696 69.4058 117.696C69.7997 117.696 70.1148 117.696 70.3512 117.696C70.4299 117.696 70.5087 117.696 70.5875 117.696C70.6663 117.733 70.6663 117.733 70.6663 117.733Z" fill="#163459"/>
<path d="M53.8409 118.432L53.7715 129.981L70.0005 130.069L70.0699 118.519L53.8409 118.432Z" fill="#F1CA50"/>
<path d="M53.7676 129.991L59.4792 122.875L62.9456 127.346L65.3485 124.961L69.9572 130.065L53.7676 129.991Z" fill="white"/>
<path d="M64.4813 122.019C64.4813 122.689 63.8904 123.211 63.1814 123.211C62.4724 123.211 61.9209 122.652 61.9209 121.981C61.9209 121.311 62.5118 120.789 63.2208 120.789C63.8904 120.789 64.4813 121.348 64.4813 122.019Z" fill="white"/>
<path d="M108.442 105.067L106.709 103.427L105.055 104.955V100.298H108.403L108.442 105.067ZM106.709 103.241L106.748 103.278L108.245 104.731V100.484H105.173V104.657L106.709 103.241Z" fill="#163459"/>
<path d="M64.7574 104.582L63.9696 104.247C63.5757 104.433 63.2212 104.545 62.9455 104.545C61.7244 104.545 60.7002 103.614 60.7002 102.459C60.7002 101.304 61.685 100.335 62.9061 100.335C64.1272 100.335 65.1513 101.266 65.1513 102.421C65.1513 102.943 64.9544 103.427 64.5999 103.837L64.7574 104.582ZM62.8667 100.447C61.7244 100.447 60.779 101.341 60.8184 102.421C60.8184 103.502 61.7637 104.396 62.9061 104.359C63.1818 104.359 63.5363 104.247 63.8908 104.061H63.9302L64.5211 104.321L64.4029 103.763L64.4423 103.725C64.7968 103.353 64.9938 102.868 64.9938 102.384C64.9544 101.341 64.0484 100.447 62.8667 100.447Z" fill="#163459"/>
<path d="M69.9175 104.247L69.0115 102.123L67.2783 100.633L71.4537 100.596L69.9175 104.247ZM67.6722 100.782L69.1297 102.049L69.9175 103.874L71.2174 100.745L67.6722 100.782Z" fill="#163459"/>
<path d="M71.3905 100.612L69.1123 102.014L69.1982 102.139L71.4764 100.737L71.3905 100.612Z" fill="#163459"/>
<path d="M58.1794 101.08C58.0612 100.521 57.4703 100.074 56.8401 100.112C56.2492 100.149 55.6978 100.596 55.619 101.192C55.5402 100.633 54.9887 100.149 54.3585 100.149C53.7676 100.149 53.1768 100.596 53.0586 101.155C52.9798 101.565 53.1374 102.012 53.3737 102.347C53.6101 102.682 53.9646 102.98 54.2797 103.241C54.7524 103.614 55.1857 103.986 55.6584 104.396C56.1311 103.986 56.525 103.614 56.9583 103.241C57.2734 102.943 57.6279 102.682 57.8643 102.31C58.1006 101.937 58.2582 101.49 58.1794 101.08Z" fill="#EE4D4A"/>
<path d="M57.7854 34.8015C59.3517 34.8015 60.6215 33.6005 60.6215 32.119C60.6215 30.6375 59.3517 29.4365 57.7854 29.4365C56.219 29.4365 54.9492 30.6375 54.9492 32.119C54.9492 33.6005 56.219 34.8015 57.7854 34.8015Z" fill="#5C9EDC"/>
<path d="M79.5288 139.568C79.5288 140.164 79.0167 140.648 78.3865 140.648C77.7562 140.648 77.2441 140.164 77.2441 139.568C77.2441 138.972 77.7562 138.487 78.3865 138.487C79.0167 138.487 79.5288 138.972 79.5288 139.568Z" fill="#163459"/>
<path d="M83.0337 139.605C83.0337 140.201 82.5216 140.685 81.8913 140.685C81.2611 140.685 80.749 140.201 80.749 139.605C80.749 139.009 81.2611 138.524 81.8913 138.524C82.5216 138.524 83.0337 139.009 83.0337 139.605Z" fill="#163459"/>
<path d="M86.5405 139.605C86.5405 140.201 86.0284 140.685 85.3982 140.685C84.7679 140.685 84.2559 140.201 84.2559 139.605C84.2559 139.009 84.7679 138.524 85.3982 138.524C86.0284 138.524 86.5405 139.009 86.5405 139.605Z" fill="#163459"/>
<path d="M113.958 37.4473H50.9717V73.8841H113.958V37.4473Z" fill="#F1CA50"/>
<path d="M56.8018 73.8841L74.8427 51.0459L86.0297 65.3151L93.6321 57.6776L108.522 73.8841H56.8018Z" fill="white"/>
<path d="M90.7952 48.2511C90.7952 50.3747 88.9832 52.0885 86.7379 52.0885C84.4926 52.0885 82.6807 50.3747 82.6807 48.2511C82.6807 46.1275 84.4926 44.4137 86.7379 44.4137C88.9438 44.3764 90.7952 46.1275 90.7952 48.2511Z" fill="white"/>
<path d="M113.8 107.751C113.8 106.968 113.761 74.0708 113.721 25.3393L113.8 25.4138C94.8136 25.4138 73.385 25.4138 50.8141 25.4138L50.9323 25.3021C50.9323 56.1131 50.9323 84.6516 50.9323 107.713L50.8535 107.639C89.0232 107.713 113.13 107.751 113.8 107.751C113.13 107.751 89.0232 107.788 50.8141 107.825H50.7354V107.751C50.7354 84.6888 50.7354 56.1504 50.7354 25.3393V25.2275H50.8535C73.4244 25.2275 94.853 25.2275 113.839 25.2275H113.918V25.3021C113.918 49.705 113.879 70.3078 113.879 84.8379C113.879 92.1029 113.879 97.8031 113.839 101.752C113.839 103.69 113.839 105.217 113.839 106.223C113.839 106.745 113.839 107.117 113.839 107.378C113.8 107.639 113.8 107.751 113.8 107.751Z" fill="#163459"/>
<path d="M84.2166 121.527L85.5953 117.635C85.8316 116.784 86.1468 115.803 86.5801 114.658C86.974 113.644 87.9587 112.564 88.9041 111.779C90.3222 110.569 90.9918 110.569 91.9766 109.947C92.0554 109.914 92.1736 109.849 92.2523 109.783C92.4493 109.685 92.6069 109.587 92.725 109.456C93.5522 108.704 92.7644 107.559 91.0706 107.69C89.8101 107.788 87.7618 108.082 84.4136 110.928C84.3742 110.961 84.3348 110.994 84.2954 111.059C82.5228 112.957 80.9078 107.559 80.5927 105.531C80.3957 104.222 78.7019 103.437 77.1657 103.895L69.0118 107.068C68.3421 106.872 67.5543 106.905 66.6483 107.134C65.4666 107.494 64.797 108.54 65.1121 109.522L68.4209 120.481L58.6914 147.273H79.5685L84.2166 121.527Z" fill="#FDDCCF"/>
<path d="M100.249 95.4893L93.7889 108.198L90.5588 107.287L74.3298 120.549C72.9512 121.698 70.9422 121.5 69.7605 120.154L63.5762 112.948C63.5762 112.948 76.0237 107.564 78.3477 103.09C80.6718 98.6169 77.9932 97.6271 77.9932 97.6271L83.8624 90.9365L100.249 95.4893Z" fill="#EE4D4A"/>
<path d="M91.8981 69.5189C91.8981 69.5189 82.4443 67.4206 69.1302 54.5541C55.8161 41.6875 49.553 24.6244 47.938 24.7036C46.3229 24.7828 39.1932 21.4573 25.6822 51.0306C12.1712 80.6039 17.4889 87.4529 20.1675 87.4133C22.8461 87.3737 41.1234 82.2271 52.5467 83.5335C63.97 84.84 78.6234 90.818 78.6234 90.818L91.8981 69.5189Z" fill="#EE4D4A"/>
<path d="M111.987 85.632L108.757 91.8079L107.3 94.5792C105.33 98.3798 100.721 99.9238 96.8611 98.1422L76.6143 91.0557L88.4315 63.9766L108.678 74.8241C112.539 76.8827 114.035 81.7126 111.987 85.632Z" fill="#EE4D4A"/>
<g opacity="0.4">
<path opacity="0.4" d="M111.987 85.632L108.757 91.8079L107.3 94.5792C105.33 98.3798 100.721 99.9238 96.8611 98.1422L76.6143 91.0557L88.4315 63.9766L108.678 74.8241C112.539 76.8827 114.035 81.7126 111.987 85.632Z" fill="#163459"/>
</g>
<path d="M26.745 51.5853C19.5365 67.619 16.5428 81.8712 20.0486 83.4548C23.5544 85.0384 32.2204 73.3595 39.4289 57.3258C46.6374 41.292 49.6311 27.0398 46.1253 25.4563C42.6195 23.8727 33.9536 35.5516 26.745 51.5853Z" fill="#EE4D4A"/>
<g opacity="0.5">
<path opacity="0.5" d="M26.745 51.5853C19.5365 67.619 16.5428 81.8712 20.0486 83.4548C23.5544 85.0384 32.2204 73.3595 39.4289 57.3258C46.6374 41.292 49.6311 27.0398 46.1253 25.4563C42.6195 23.8727 33.9536 35.5516 26.745 51.5853Z" fill="#163459"/>
</g>
<path d="M113.722 94.5393L108.207 92.7973L111.634 86.3047L115.731 88.878L113.722 94.5393Z" fill="#EE4D4A"/>
<g opacity="0.6">
<path opacity="0.6" d="M111.634 86.3047L108.207 92.7973L109.349 93.1537L112.107 86.6214L111.634 86.3047Z" fill="#163459"/>
</g>
<path d="M41.4385 48.0213C41.4385 48.0213 33.2058 42.9142 28.7153 54.0784C24.2247 65.2427 32.8513 67.0638 32.8513 67.0638C36.3964 61.5213 39.272 55.2265 41.4385 48.0213Z" fill="#F1CA50"/>
<g opacity="0.4">
<path opacity="0.4" d="M65.5459 112.078C66.2943 113.464 67.0428 114.849 68.1851 115.918C69.288 117.027 70.8243 117.779 72.3605 117.62C73.8967 117.462 75.3542 116.156 75.3936 114.612C76.142 115.166 77.2843 114.849 77.8752 114.176C78.5055 113.463 78.7024 112.513 78.7812 111.563C79.8054 112.157 81.184 111.682 81.8537 110.732C82.5233 109.782 82.5627 108.475 82.2476 107.327C81.9325 106.179 81.2628 105.189 80.6326 104.2C81.4204 104.279 82.2476 104.318 82.9172 103.962C83.6263 103.606 84.0989 102.695 83.6656 102.022C83.4293 101.626 82.9566 101.428 82.5233 101.31C81.3022 100.914 80.4356 100.637 79.1751 100.755C78.8994 100.755 79.6872 104.12 71.7303 108.713C67.0821 111.444 65.5459 112.078 65.5459 112.078Z" fill="#163459"/>
</g>
<path d="M66.0576 109.939C67.3181 111.167 68.2241 112.552 69.5634 113.78C70.1543 114.334 71.139 115.403 71.9268 115.561C72.7541 115.72 73.2661 115.601 73.5813 114.809C73.857 114.176 73.3843 113.344 73.0298 112.83C72.1632 111.483 71.3754 110.415 70.7057 109.385C70.3906 108.91 70.7845 108.791 70.9421 109.029C71.5723 109.662 72.4783 110.217 73.0298 110.929C73.7782 111.879 73.9358 113.146 75.9053 112.75C76.181 112.711 76.4174 112.592 76.6537 112.434C77.4022 111.879 77.4416 110.85 77.1264 110.058C76.8901 109.425 76.4568 108.91 76.0235 108.396C76.8507 109.346 77.7961 110.375 79.1354 110.454C79.9232 110.533 80.711 110.137 81.0261 109.425C81.42 108.514 80.8686 107.643 80.2777 106.931C79.2535 105.664 78.1506 104.516 76.9295 103.486C76.4568 103.091 75.9053 102.893 75.3144 102.893C74.6054 102.893 73.7388 103.011 73.3449 103.605C72.5571 104.714 72.7934 105.664 72.7934 105.664C72.7934 105.664 71.0602 104.793 69.6816 105.703C68.3029 106.614 67.9484 108.237 67.9484 108.237L66.0576 109.939Z" fill="#FDDCCF"/>
<path d="M75.3138 102.536C74.7623 101.982 74.6442 100.992 75.0775 100.161C75.3532 99.5671 75.7471 99.0129 76.141 98.8941C77.7954 98.3399 85.0039 99.6067 84.9251 101.19C84.8464 102.853 84.3343 103.566 80.4346 103.011C79.7649 102.893 78.662 102.774 78.662 102.774L77.7166 104.199L75.3138 102.536Z" fill="#FDDCCF"/>
</svg>
