<svg width="105" height="111" viewBox="0 0 105 111" fill="none" xmlns="http://www.w3.org/2000/svg">
<path d="M104.572 51.6777L104.537 51.2533C104.348 48.8766 102.29 47.0941 99.9194 47.2539C98.6817 47.3387 97.5236 47.893 96.6885 48.8117L83.785 62.9372C82.0105 64.8795 79.7737 66.3325 77.2835 67.1564L76.1005 67.5508C74.4254 68.1051 72.6708 68.3647 70.9112 68.3248L51.9734 67.8504L67.6257 61.4742C69.5642 60.6853 70.5036 58.4684 69.7282 56.5161L69.5195 55.9868C68.8634 54.3491 67.1734 53.3754 65.4337 53.63C59.2453 54.5488 45.0544 56.7058 38.9605 57.979C33.1002 59.2024 24.8988 70.2621 21.0466 75.9043C19.64 77.9665 18.8795 80.3781 18.8596 82.8797C18.8397 85.7257 20.2563 88.3871 22.6273 89.9449L23.9693 90.8287C26.4695 92.4764 29.4518 93.2354 32.4342 92.9807L70.2551 89.7951C75.1014 89.3857 79.5451 86.9291 82.4777 83.0345L103.617 54.9882C104.323 54.0395 104.666 52.8611 104.572 51.6777Z" fill="#F7E39E"/>
<path d="M35.7178 97.359L20.3737 110.516C19.5337 111.24 18.2662 111.14 17.5455 110.291L0.481549 90.2188C-0.239181 89.37 -0.13977 88.0968 0.705224 87.3777L1.63969 86.5739L16.0493 74.2159C16.8893 73.4919 18.1568 73.5918 18.8776 74.4406L20.6421 76.5127L34.4851 92.7803L35.3649 93.7939L35.9365 94.4929C36.6622 95.3368 36.5628 96.635 35.7178 97.359Z" fill="#1C427B"/>
<path d="M93.0398 9.75222V35.4518C93.0398 36.9796 92.5129 38.3777 91.653 39.4812C90.4253 41.069 88.4719 42.0676 86.2749 42.0127L69.7875 41.6033L62.625 49.8469C62.0981 50.456 61.1537 50.4461 60.6368 49.8319L53.3599 41.1938L37.4193 40.8044C33.3931 40.7045 30.1523 37.469 30.1523 33.5743V6.66648C30.1523 4.6992 30.9476 2.97158 32.2947 1.76325C33.6119 0.579884 35.4062 -0.0941852 37.3994 0.01067L86.2948 2.65702C90.0227 2.85674 93.0398 6.03236 93.0398 9.75222Z" fill="#EE4D4A"/>
<path d="M78.3363 18.6545C78.0679 13.5616 74.6183 9.28246 70.3288 8.73821C66.914 8.3088 63.877 10.2461 62.2615 13.3818C60.6411 10.0913 57.5743 7.84944 54.0999 7.94431C49.6761 8.06414 46.0874 12.0986 45.804 17.2914C45.6152 20.7217 46.8578 23.8723 48.8908 25.9994L61.3718 36.2153C61.9086 36.6547 62.6145 36.6746 63.1513 36.2652L75.3788 26.9481C77.3323 25.0058 78.5153 22.0199 78.3363 18.6545Z" fill="white"/>
</svg>
