<svg width="112" height="86" viewBox="0 0 112 86" fill="none" xmlns="http://www.w3.org/2000/svg">
<path d="M13.0024 57.8695C15.3665 59.4456 34.279 72.251 57.7227 64.9618C65.1681 62.7238 72.0117 58.8329 77.7427 53.5795C83.4737 48.3261 87.9439 41.846 90.8196 34.6229C92.0392 31.1075 92.8973 27.477 93.3807 23.7876L111.899 24.1816C111.37 31.4432 109.639 38.5664 106.777 45.2612C94.9567 72.842 67.573 81.9043 64.4209 82.8893C50.9423 87.037 36.5282 87.037 23.0497 82.8893C14.6323 80.387 6.79697 76.235 0 70.6749L13.0024 57.8695Z" fill="#8EC6D8"/>
<path d="M73.0821 -6.01115e-05L57.5156 8.06885L65.5573 23.5829L81.1238 15.514L73.0821 -6.01115e-05Z" fill="#EE4D4A"/>
<path d="M37.0369 19.0596L37.8249 29.1069L13.7902 37.3811L12.8052 27.3338L37.0369 19.0596Z" fill="#8EC6D8"/>
</svg>
