<svg width="132" height="111" viewBox="0 0 132 111" fill="none" xmlns="http://www.w3.org/2000/svg">
<path d="M1.79342 111H17.3193C18.3185 111 19.1127 110.206 19.1127 109.207V103.878L20.4449 101.982V63.8333L19.1127 62.3217V56.6596C19.1127 55.6604 18.3185 54.8662 17.3193 54.8662H1.79342C0.794227 54.8662 0 55.6604 0 56.6596V109.207C0 110.206 0.794227 111 1.79342 111Z" fill="#1C427B"/>
<path d="M126.18 10.4402L102.686 0.653316C100.585 -0.217772 98.2023 -0.217772 96.0758 0.653316L72.5565 10.4402C69.5333 11.6956 67.5605 14.5651 67.5605 17.742V59.8873V102.699C67.7399 106.952 71.378 110.333 75.8359 110.333H122.875C127.461 110.333 131.15 106.772 131.15 102.391V17.742C131.176 14.5651 129.228 11.6956 126.18 10.4402ZM98.9709 24.1727C95.8965 24.1727 93.4113 21.6875 93.4113 18.6131C93.4113 15.5387 95.8965 13.0535 98.9709 13.0535C102.045 13.0535 104.531 15.5387 104.531 18.6131C104.531 21.6875 102.045 24.1727 98.9709 24.1727Z" fill="#EE4D4A"/>
<path d="M103.531 74.465L94.5898 71.5699C93.8211 71.3137 93.2831 70.5963 93.2831 69.7765V65.831C93.2831 64.3194 94.5129 63.0896 96.0245 63.0896H100.841C102.353 63.0896 103.582 64.3194 103.582 65.831C103.582 66.9326 104.479 67.8293 105.581 67.8293C106.682 67.8293 107.579 66.9326 107.579 65.831C107.579 62.116 104.556 59.1185 100.867 59.1185H100.431V54.763C100.431 53.6614 99.5345 52.7646 98.4328 52.7646C97.3311 52.7646 96.4344 53.6614 96.4344 54.763V59.1185H95.9989C92.2839 59.1185 89.2864 62.1416 89.2864 65.831V69.7509C89.2864 72.2873 90.9261 74.5418 93.3344 75.3104L102.276 78.2055C103.044 78.4617 103.582 79.1791 103.582 79.9989V82.7403C103.582 84.6106 102.071 86.1222 100.201 86.1222H96.6394C94.7691 86.1222 93.2575 84.6106 93.2575 82.7403C93.2575 81.6386 92.3608 80.7419 91.2591 80.7419C90.1575 80.7419 89.2607 81.6386 89.2607 82.7403C89.2607 86.7371 92.4376 89.9908 96.4088 90.0933V94.4744C96.4088 95.576 97.3055 96.4727 98.4072 96.4727C99.5088 96.4727 100.406 95.576 100.406 94.4744V90.0933C104.377 89.9908 107.554 86.7371 107.554 82.7403V79.9989C107.579 77.4882 105.94 75.2336 103.531 74.465Z" fill="white"/>
<path d="M68.1236 96.1922H71.403C75.0154 96.1922 77.9361 99.1129 77.9361 102.725C77.9361 106.338 75.0154 109.259 71.403 109.259H36.3545C34.5867 109.259 32.8701 108.669 31.4866 107.593C27.7973 104.749 23.8774 104.16 19.1377 103.878V62.3223C30.3081 49.5634 44.4761 48.3593 43.4769 29.2722C43.2976 25.9672 45.9364 23.2002 49.2415 23.2002C51.7779 23.2002 54.0068 24.8399 54.7498 27.2738C57.7474 37.112 58.4904 46.8733 54.5448 56.9933H78.4485C82.061 56.9933 84.9817 59.914 84.9817 63.5264C84.9817 67.1389 82.061 70.0596 78.4485 70.0596H70.3269H76.2452C79.8576 70.0596 82.7783 72.9803 82.7783 76.5927C82.7783 80.2052 79.8576 83.1259 76.2452 83.1259H70.3269H74.0418C77.6543 83.1259 80.575 86.0466 80.575 89.659C80.575 93.2715 77.6543 96.1922 74.0418 96.1922H68.1236Z" fill="#F7E39E"/>
<path d="M68.1236 96.1922H71.403C75.0154 96.1922 77.9361 99.1129 77.9361 102.725C77.9361 106.338 75.0154 109.259 71.403 109.259H36.3545C34.5867 109.259 32.8701 108.669 31.4866 107.593C27.7973 104.749 23.8774 104.16 19.1377 103.878V62.3223C30.3081 49.5634 44.4761 48.3593 43.4769 29.2722C43.2976 25.9672 45.9364 23.2002 49.2415 23.2002C51.7779 23.2002 54.0068 24.8399 54.7498 27.2738C57.7474 37.112 58.4904 46.8733 54.5448 56.9933H78.4485C82.061 56.9933 84.9817 59.914 84.9817 63.5264C84.9817 67.1389 82.061 70.0596 78.4485 70.0596H70.3269H76.2452C79.8576 70.0596 82.7783 72.9803 82.7783 76.5927C82.7783 80.2052 79.8576 83.1259 76.2452 83.1259H70.3269H74.0418C77.6543 83.1259 80.575 86.0466 80.575 89.659C80.575 93.2715 77.6543 96.1922 74.0418 96.1922H68.1236Z" fill="#FDDCCF"/>
</svg>
