<svg width="128" height="129" viewBox="0 0 128 129" fill="none" xmlns="http://www.w3.org/2000/svg">
<g clip-path="url(#clip0_2732_8128)">
<path d="M52.4987 107.827C75.3493 107.827 93.8733 89.1572 93.8733 66.1267C93.8733 43.0962 75.3493 24.4263 52.4987 24.4263C29.6481 24.4263 11.124 43.0962 11.124 66.1267C11.124 89.1572 29.6481 107.827 52.4987 107.827Z" fill="#F0CA50"/>
<path fill-rule="evenodd" clip-rule="evenodd" d="M22.7412 120.417C22.7412 119.208 23.7143 118.227 24.9146 118.227H32.1413C33.3417 118.227 34.3147 119.208 34.3147 120.417C34.3147 121.627 33.3417 122.608 32.1413 122.608H24.9146C23.7143 122.608 22.7412 121.627 22.7412 120.417ZM44.4214 120.417C44.4214 119.208 45.3944 118.227 46.5948 118.227H61.0482C62.2486 118.227 63.2216 119.208 63.2216 120.417C63.2216 121.627 62.2486 122.608 61.0482 122.608H46.5948C45.3944 122.608 44.4214 121.627 44.4214 120.417ZM73.3283 120.417C73.3283 119.208 74.3013 118.227 75.5017 118.227H89.9551C91.1554 118.227 92.1285 119.208 92.1285 120.417C92.1285 121.627 91.1554 122.608 89.9551 122.608H75.5017C74.3013 122.608 73.3283 121.627 73.3283 120.417ZM102.235 120.417C102.235 119.208 103.208 118.227 104.409 118.227H111.635C112.836 118.227 113.809 119.208 113.809 120.417C113.809 121.627 112.836 122.608 111.635 122.608H104.409C103.208 122.608 102.235 121.627 102.235 120.417Z" fill="#EE4D4A"/>
<path fill-rule="evenodd" clip-rule="evenodd" d="M18.7141 23.3878C19.4826 24.3172 19.358 25.6984 18.4359 26.4729C16.8017 27.8454 15.2853 29.3707 13.8116 30.9975C13.0023 31.8909 11.6276 31.9539 10.7412 31.1382C9.85473 30.3225 9.79224 28.9369 10.6016 28.0435C12.1606 26.3226 13.8213 24.6458 15.6531 23.1073C16.5752 22.3328 17.9457 22.4584 18.7141 23.3878Z" fill="#EE4D4A"/>
<path fill-rule="evenodd" clip-rule="evenodd" d="M52.0647 13.881C50.0662 13.881 48.0883 13.9978 46.1391 14.2244C44.9466 14.3629 43.8685 13.501 43.731 12.2992C43.5935 11.0974 44.4487 10.0108 45.6411 9.87219C47.7539 9.62665 49.898 9.5 52.0647 9.5C54.5462 9.5 56.9917 9.66271 59.3907 9.9784C60.5809 10.135 61.4198 11.2345 61.2644 12.4341C61.109 13.6337 60.0182 14.4792 58.8279 14.3226C56.615 14.0313 54.3575 13.881 52.0647 13.881ZM35.91 14.1367C36.3131 15.2762 35.7234 16.5293 34.5927 16.9356C32.7161 17.61 30.8889 18.3879 29.1204 19.2613C28.0426 19.7936 26.7406 19.3445 26.2124 18.2581C25.6843 17.1717 26.1299 15.8595 27.2078 15.3272C29.1227 14.3815 31.1011 13.5392 33.133 12.809C34.2636 12.4028 35.5069 12.9972 35.91 14.1367ZM70.7032 14.9786C71.1631 13.8611 72.4347 13.331 73.5435 13.7945C78.1051 15.7016 82.3634 18.1973 86.2245 21.1875C87.1763 21.9246 87.355 23.2998 86.6237 24.2591C85.8923 25.2184 84.5279 25.3985 83.5761 24.6614C80.0126 21.9018 76.0842 19.5997 71.878 17.8412C70.7693 17.3777 70.2433 16.096 70.7032 14.9786ZM93.5344 31.2229C94.4861 30.4856 95.8506 30.6655 96.5821 31.6247C99.5488 35.5147 102.026 39.8061 103.918 44.4055C104.378 45.523 103.852 46.8046 102.743 47.268C101.635 47.7315 100.363 47.2013 99.9031 46.0838C98.1581 41.8432 95.8736 37.8846 93.1358 34.2946C92.4042 33.3354 92.5827 31.9602 93.5344 31.2229ZM105.267 56.7815C106.457 56.6251 107.548 57.4707 107.703 58.6703C108.016 61.0876 108.177 63.5521 108.177 66.0539C108.177 68.1637 108.062 70.2471 107.839 72.298C107.707 73.5006 106.634 74.3683 105.441 74.2362C104.248 74.1041 103.387 73.0222 103.518 71.8196C103.724 69.9273 103.83 68.0036 103.83 66.0539C103.83 63.7421 103.681 61.4667 103.392 59.2369C103.237 58.0373 104.076 56.9379 105.267 56.7815ZM103.782 81.7002C104.917 82.0942 105.52 83.3409 105.129 84.4847C103.768 88.4671 101.979 92.2469 99.8172 95.7683C99.1858 96.7971 97.8463 97.1152 96.8255 96.4788C95.8047 95.8423 95.4891 94.4923 96.1206 93.4635C98.1146 90.2149 99.7647 86.7291 101.02 83.0578C101.411 81.9139 102.648 81.3061 103.782 81.7002ZM92.1456 102.502C93.0037 103.348 93.0188 104.734 92.1794 105.599C89.2888 108.577 86.0747 111.234 82.595 113.511C81.5883 114.17 80.2422 113.882 79.5885 112.867C78.9348 111.852 79.221 110.496 80.2277 109.837C83.4379 107.736 86.4041 105.284 89.0722 102.536C89.9116 101.671 91.2876 101.656 92.1456 102.502ZM72.8047 116.297C73.22 117.432 72.6438 118.691 71.5176 119.11C69.5863 119.828 67.6053 120.441 65.5814 120.943C64.4159 121.232 63.2384 120.515 62.9515 119.34C62.6646 118.165 63.3769 116.978 64.5424 116.689C66.4077 116.226 68.2334 115.661 70.0135 114.999C71.1397 114.581 72.3893 115.162 72.8047 116.297Z" fill="#EE4D4A"/>
<path fill-rule="evenodd" clip-rule="evenodd" d="M60.6531 119.828C60.7766 121.031 59.9088 122.108 58.7148 122.232C56.5721 122.456 54.3998 122.608 52.137 122.608H51.7759C50.5756 122.608 49.6025 121.627 49.6025 120.417C49.6025 119.208 50.5756 118.227 51.7759 118.227H52.137C54.2065 118.227 56.2222 118.088 58.2676 117.875C59.4615 117.75 60.5295 118.625 60.6531 119.828Z" fill="#EE4D4A"/>
<path fill-rule="evenodd" clip-rule="evenodd" d="M95.6112 33.8229C96.6035 33.1422 97.9554 33.401 98.6308 34.4011C104.72 43.4171 108.25 54.3248 108.25 66.0539C108.25 97.2454 83.1617 122.608 52.1379 122.608H51.7769C50.5766 122.608 49.6035 121.627 49.6035 120.417C49.6035 119.208 50.5766 118.227 51.7769 118.227H52.1379C80.7572 118.227 103.903 94.8296 103.903 66.0539C103.903 55.2226 100.646 45.1709 95.0374 36.8663C94.362 35.8662 94.6189 34.5036 95.6112 33.8229Z" fill="#EE4D4A"/>
<path fill-rule="evenodd" clip-rule="evenodd" d="M50.3975 66.2722C50.3975 65.1835 51.2732 64.3009 52.3534 64.3009H82.7526C83.8328 64.3009 84.7085 65.1835 84.7085 66.2722C84.7085 67.361 83.8328 68.2436 82.7526 68.2436H52.3534C51.2732 68.2436 50.3975 67.361 50.3975 66.2722Z" fill="white"/>
<path fill-rule="evenodd" clip-rule="evenodd" d="M52.3534 33.6624C53.4336 33.6624 54.3094 34.545 54.3094 35.6338V66.2723C54.3094 67.361 53.4336 68.2436 52.3534 68.2436C51.2732 68.2436 50.3975 67.361 50.3975 66.2723V35.6338C50.3975 34.545 51.2732 33.6624 52.3534 33.6624Z" fill="white"/>
<path d="M111.708 113.868V127.404C111.708 128.423 112.863 128.932 113.585 128.204L121.673 121.218C122.178 120.708 122.106 119.908 121.528 119.471L113.441 112.921C112.719 112.412 111.708 112.921 111.708 113.868Z" fill="#EE4D4A"/>
<path d="M18.0556 34.6876L8.09102 25.5907C7.36895 24.9357 6.14143 25.4451 6.21363 26.464L5.9248 37.2348C5.9248 37.9625 6.57467 38.472 7.29674 38.3264L17.5501 36.6526C18.4166 36.4343 18.7055 35.2698 18.0556 34.6876Z" fill="#EE4D4A"/>
</g>
<defs>
<clipPath id="clip0_2732_8128">
<rect width="127" height="128" fill="white" transform="translate(0.963867 0.5)"/>
</clipPath>
</defs>
</svg>
