<svg width="73" height="74" viewBox="0 0 73 74" fill="none" xmlns="http://www.w3.org/2000/svg">
<path d="M0.999008 51.2352C0.998993 37.6598 6.38668 24.6394 15.9789 15.0331C25.5711 5.42685 38.5837 0.0201582 52.1591 0.000340125C56.6584 -0.0164382 61.1385 0.587616 65.4727 1.79543L60.0126 14.8846C57.4295 14.3441 54.7981 14.0685 52.1591 14.0619C42.313 14.0817 32.8771 18.0069 25.9219 24.9761C18.9667 31.9453 15.0605 41.3892 15.0605 51.2352C15.0549 53.953 15.356 56.6628 15.9581 59.3131L2.86889 65.0723C1.63585 60.5631 1.00706 55.91 0.999008 51.2352Z" fill="#163459"/>
<path d="M72.8047 50.7866H72.3559C72.3559 51.5346 72.2811 52.3573 72.2063 53.1053H72.6551C72.7299 52.3573 72.8047 51.6094 72.8047 50.7866ZM72.6551 48.3932C72.5803 47.5704 72.5055 46.8225 72.3559 45.9997L71.8324 46.1493C72.0357 46.9075 72.161 47.6844 72.2063 48.468L72.6551 48.3932ZM72.2811 55.5736L71.8324 55.424C71.6828 56.1719 71.4584 56.9947 71.234 57.7426L71.6828 57.8922C71.9071 57.0695 72.1315 56.3215 72.2811 55.5736ZM71.6828 43.7559C71.4662 42.988 71.1911 42.2379 70.86 41.512L70.4112 41.6616C70.7104 42.4096 71.0096 43.1575 71.234 43.8307L71.6828 43.7559ZM70.86 60.0613L70.4112 59.9117L69.3641 62.0059L69.7381 62.2304L70.86 60.0613ZM69.7381 39.3429C69.3641 38.6698 68.9153 37.9966 68.4666 37.3235L68.0926 37.6227C68.5592 38.2419 68.984 38.8915 69.3641 39.5673L69.7381 39.3429ZM68.4666 64.2498L68.0926 63.9506C67.569 64.549 67.1202 65.2222 66.5967 65.7457L66.8959 66.1197C67.4942 65.5213 67.943 64.8482 68.4666 64.2498ZM66.9707 35.4536C66.4344 34.8675 65.8597 34.3178 65.2503 33.8081L64.9512 34.1073C65.5373 34.6435 66.087 35.2182 66.5967 35.8276L66.9707 35.4536ZM65.2503 67.7652L64.9512 67.3912C64.3614 67.9304 63.7368 68.4301 63.0813 68.8871L63.3805 69.2611L65.2503 67.7652ZM63.3805 32.2374L61.4358 30.9659L61.1366 31.3398C61.8098 31.7886 62.4829 32.1626 63.1561 32.6862L63.3805 32.2374ZM61.361 70.6074L61.1366 70.1587C60.4634 70.6074 59.7155 70.9066 59.0423 71.2806L59.2667 71.6546L61.361 70.6074ZM59.2667 29.8439L57.0229 29.0212L56.8733 29.4699L59.1171 30.2927L59.2667 29.8439ZM57.0229 72.5521L56.8733 72.1033L54.5546 72.7017L54.7042 73.1505L57.0229 72.5521ZM54.7042 28.4228C53.9562 28.1984 53.1335 28.1236 52.3856 27.974V28.4976C53.1685 28.5492 53.9448 28.6744 54.7042 28.8716V28.4228ZM52.3108 73.5245V73.0757H49.9173V73.5992H49.9921L52.3108 73.5245ZM49.9921 28.0488V27.8993H47.6734V28.4228L49.9921 28.2732V28.0488ZM47.5239 73.0757L45.2052 72.7017L45.0556 73.1505L47.4491 73.5245L47.5239 73.0757ZM45.28 28.7968V28.348L42.9613 28.9464L43.1109 29.3952L45.28 28.7968ZM42.8865 72.0286L40.7175 71.2058L40.5679 71.6546L42.7369 72.4773L42.8865 72.0286ZM40.867 30.2927L40.6427 29.8439L38.5484 30.8911L38.7728 31.3398L40.867 30.2927ZM38.6232 70.1587L36.6785 68.8871L36.3793 69.2611L38.3988 70.5326L38.6232 70.1587ZM36.8281 32.6114L36.5289 32.2374C35.8734 32.6944 35.2488 33.1941 34.659 33.7333L34.9582 34.1073C35.5479 33.5681 36.1726 33.0684 36.8281 32.6114ZM34.8834 67.3912C34.2973 66.855 33.7476 66.2803 33.2379 65.6709L32.8639 66.0449C33.4002 66.631 33.9749 67.1807 34.5842 67.6904L34.8834 67.3912ZM33.3127 35.7528L32.9387 35.3788L31.4428 37.2487L31.8168 37.5479C32.2744 36.9164 32.7742 36.3167 33.3127 35.7528ZM31.742 63.8758C31.2754 63.2566 30.8506 62.607 30.4705 61.9312L30.0965 62.1555C30.4705 62.8287 30.9193 63.5019 31.368 64.175L31.742 63.8758ZM30.5453 39.4925L30.1713 39.2681C29.7398 39.9339 29.3646 40.6344 29.0494 41.3624L29.4982 41.5868C29.7973 40.9137 30.1713 40.1657 30.5453 39.4925ZM29.4234 59.8369C29.1242 59.0889 28.825 58.341 28.6006 57.593L28.1518 57.7426C28.3807 58.5064 28.6554 59.2558 28.9746 59.9865L29.4234 59.8369ZM28.6006 43.7559L28.1518 43.6063C27.9274 44.3543 27.7031 45.177 27.5535 45.9249L28.0022 46.0745C28.1575 45.2909 28.3572 44.5168 28.6006 43.7559ZM28.0022 55.3492C27.8527 54.6012 27.7031 53.7785 27.6283 53.0305H27.1795C27.2311 53.8134 27.3563 54.5897 27.5535 55.3492H28.0022ZM27.6283 48.3184H27.1795C27.1047 49.0664 27.0299 49.8891 27.0299 50.7119H27.4787C27.4787 49.8891 27.5535 49.1411 27.6283 48.3184Z" fill="#93CDE0"/>
<path d="M32.9375 34.0321L31.3668 32.3119L31.0676 32.611L32.6383 34.3313L32.9375 34.0321ZM29.7961 30.5915L28.2254 28.8713L27.8514 29.1704L29.4221 30.8907L29.7961 30.5915ZM26.5799 27.151L25.0092 25.4307L24.6352 25.7298L26.2807 27.4501L26.5799 27.151Z" fill="#93CDE0"/>
<path d="M40.2695 60.3602L40.2695 41.8857L58.7814 41.8857V60.3602H40.2695Z" fill="#F0CA50"/>
<path d="M49.0941 47.7197H50.0664V54.3092H49.0941V47.7197Z" fill="#FDFDFD"/>
<path d="M46.3243 50.5625H52.9062V51.4974H46.3243V50.5625Z" fill="#FDFDFD"/>
</svg>
