<svg width="104" height="226" viewBox="0 0 104 226" fill="none" xmlns="http://www.w3.org/2000/svg">
<g opacity="0.2">
<path d="M0.999732 112.764C0.999736 174.489 51.0381 224.528 112.764 224.528C174.489 224.528 224.527 174.489 224.527 112.764C224.527 51.0383 174.489 0.999972 112.764 0.999976C51.0381 0.99998 0.999728 51.0383 0.999732 112.764Z" stroke="#545A5C" stroke-miterlimit="10"/>
<path d="M24.3253 112.763C24.3254 95.1289 29.54 77.8912 39.3087 63.2336C49.0774 48.5759 62.9605 37.1577 79.1998 30.4251C95.4391 23.6926 113.304 21.9485 130.532 25.414C147.759 28.8794 163.575 37.3983 175.975 49.8918C188.375 62.3853 196.801 78.2912 200.188 95.595C203.574 112.899 201.767 130.822 194.996 147.094C188.225 163.367 176.795 177.256 162.153 187.004C147.511 196.752 130.316 201.918 112.746 201.85C89.2637 201.759 66.7744 192.333 50.2021 175.636C33.6298 158.939 24.3251 136.331 24.3253 112.763V112.763Z" stroke="#545A5C" stroke-miterlimit="10"/>
<path d="M47.6512 112.763C47.6514 99.7414 51.4981 87.0133 58.7038 76.1914C65.9095 65.3695 76.1497 56.9409 88.1269 51.9738C100.104 47.0066 113.279 45.7246 125.982 48.2901C138.685 50.8556 150.344 57.1531 159.482 66.3846C168.62 75.6162 174.825 87.3661 177.311 100.145C179.798 112.925 178.453 126.158 173.447 138.168C168.442 150.179 160.001 160.425 149.195 167.61C138.389 174.794 125.703 178.593 112.747 178.525C104.169 178.525 95.6765 176.822 87.7563 173.513C79.8362 170.204 72.6449 165.354 66.5957 159.243C60.5466 153.132 55.7587 145.88 52.5076 137.903C49.2565 129.926 47.6061 121.382 47.6512 112.763V112.763Z" stroke="#545A5C" stroke-miterlimit="10"/>
<path d="M70.9728 112.765C70.9731 104.357 73.4518 96.1381 78.0946 89.152C82.7374 82.1658 89.3349 76.7269 97.05 73.5252C104.765 70.3236 113.25 69.5036 121.429 71.1693C129.607 72.8349 137.11 76.9111 142.986 82.8807C148.862 88.8503 152.845 96.4442 154.431 104.699C156.017 112.954 155.134 121.497 151.894 129.245C148.654 136.994 143.203 143.597 136.233 148.219C129.263 152.84 121.087 155.271 112.744 155.202C107.229 155.203 101.769 154.103 96.6791 151.966C91.5888 149.829 86.9688 146.697 83.0855 142.752C79.2022 138.807 76.1326 134.126 74.0536 128.979C71.9747 123.832 70.9276 118.321 70.9728 112.765Z" stroke="#545A5C" stroke-miterlimit="10"/>
</g>
<path d="M82.2245 187.549C82.2245 187.549 77.5854 194.842 71.8642 193.92C71.8642 193.92 77.557 197.567 77.5363 204.432C77.5363 204.432 80.3107 199.42 87.6493 198.138C87.6493 198.138 82.6506 196.921 82.2245 187.549Z" fill="white"/>
<path d="M33.023 109.337C33.023 109.337 27.788 95.8362 34.7774 89.1429C34.7774 89.1429 24.1222 93.0628 14.8366 86.1439C14.8366 86.1439 18.8482 94.8701 13.2251 105.931C13.2251 105.931 19.889 100.495 33.023 109.337Z" fill="#EE4D4A"/>
<path d="M60.3064 212.659L61.0508 205.832L54.2239 205.088L53.4796 211.915L60.3064 212.659Z" fill="#F0CA50"/>
</svg>
