<svg width="99" height="179" viewBox="0 0 99 179" fill="none" xmlns="http://www.w3.org/2000/svg">
<path opacity="0.64" d="M98.8516 38.3173C98.8516 36.3315 97.2418 34.7216 95.2559 34.7216C93.27 34.7216 91.6602 36.3315 91.6602 38.3173C91.6602 40.3032 93.27 41.9131 95.2559 41.9131C97.2418 41.9131 98.8516 40.3032 98.8516 38.3173Z" fill="#78B8CC"/>
<path opacity="0.64" d="M85.5937 38.3173C85.5937 36.3315 83.9839 34.7216 81.9981 34.7216C80.0122 34.7216 78.4023 36.3315 78.4023 38.3173C78.4023 40.3032 80.0122 41.9131 81.9981 41.9131C83.9839 41.9131 85.5937 40.3032 85.5937 38.3173Z" fill="#78B8CC"/>
<path opacity="0.64" d="M72.332 38.3173C72.332 36.3315 70.7222 34.7216 68.7363 34.7216C66.7504 34.7216 65.1406 36.3315 65.1406 38.3173C65.1406 40.3032 66.7504 41.9131 68.7363 41.9131C70.7222 41.9131 72.332 40.3032 72.332 38.3173Z" fill="#78B8CC"/>
<path opacity="0.64" d="M58.961 38.3173C58.961 36.3315 57.3511 34.7216 55.3653 34.7216C53.3794 34.7216 51.7695 36.3315 51.7695 38.3173C51.7695 40.3032 53.3794 41.9131 55.3653 41.9131C57.3511 41.9131 58.961 40.3032 58.961 38.3173Z" fill="#78B8CC"/>
<path opacity="0.64" d="M98.8516 26.7441C98.8516 24.7583 97.2418 23.1484 95.2559 23.1484C93.27 23.1484 91.6602 24.7583 91.6602 26.7441C91.6602 28.73 93.27 30.3398 95.2559 30.3398C97.2418 30.3398 98.8516 28.73 98.8516 26.7441Z" fill="#78B8CC"/>
<path opacity="0.64" d="M85.5937 26.7441C85.5937 24.7583 83.9839 23.1484 81.9981 23.1484C80.0122 23.1484 78.4023 24.7583 78.4023 26.7441C78.4023 28.73 80.0122 30.3398 81.9981 30.3398C83.9839 30.3398 85.5937 28.73 85.5937 26.7441Z" fill="#78B8CC"/>
<path opacity="0.64" d="M72.332 26.7441C72.332 24.7583 70.7222 23.1484 68.7363 23.1484C66.7504 23.1484 65.1406 24.7583 65.1406 26.7441C65.1406 28.73 66.7504 30.3398 68.7363 30.3398C70.7222 30.3398 72.332 28.73 72.332 26.7441Z" fill="#78B8CC"/>
<path opacity="0.64" d="M58.961 26.7441C58.961 24.7583 57.3511 23.1484 55.3653 23.1484C53.3794 23.1484 51.7695 24.7583 51.7695 26.7441C51.7695 28.73 53.3794 30.3398 55.3653 30.3398C57.3511 30.3398 58.961 28.73 58.961 26.7441Z" fill="#78B8CC"/>
<path opacity="0.64" d="M98.8516 15.1699C98.8516 13.184 97.2418 11.5742 95.2559 11.5742C93.27 11.5742 91.6602 13.184 91.6602 15.1699C91.6602 17.1557 93.27 18.7656 95.2559 18.7656C97.2418 18.7656 98.8516 17.1557 98.8516 15.1699Z" fill="#78B8CC"/>
<path opacity="0.64" d="M85.5937 15.1699C85.5937 13.184 83.9839 11.5742 81.9981 11.5742C80.0122 11.5742 78.4023 13.184 78.4023 15.1699C78.4023 17.1558 80.0122 18.7656 81.9981 18.7656C83.9839 18.7656 85.5937 17.1558 85.5937 15.1699Z" fill="#78B8CC"/>
<path opacity="0.64" d="M72.332 15.1699C72.332 13.184 70.7222 11.5742 68.7363 11.5742C66.7504 11.5742 65.1406 13.184 65.1406 15.1699C65.1406 17.1558 66.7504 18.7656 68.7363 18.7656C70.7222 18.7656 72.332 17.1558 72.332 15.1699Z" fill="#78B8CC"/>
<path opacity="0.64" d="M58.961 15.1699C58.961 13.184 57.3511 11.5742 55.3653 11.5742C53.3794 11.5742 51.7695 13.184 51.7695 15.1699C51.7695 17.1558 53.3794 18.7656 55.3653 18.7656C57.3511 18.7656 58.961 17.1558 58.961 15.1699Z" fill="#78B8CC"/>
<path opacity="0.64" d="M98.8516 3.59566C98.8516 1.6098 97.2418 -7.41537e-05 95.2559 -7.40669e-05C93.27 -7.39801e-05 91.6602 1.6098 91.6602 3.59566C91.6602 5.58153 93.27 7.1914 95.2559 7.1914C97.2418 7.1914 98.8516 5.58152 98.8516 3.59566Z" fill="#78B8CC"/>
<path opacity="0.64" d="M85.5937 3.59567C85.5937 1.60981 83.9839 -6.65243e-05 81.9981 -6.64375e-05C80.0122 -6.63507e-05 78.4023 1.60981 78.4023 3.59567C78.4023 5.58153 80.0122 7.19141 81.9981 7.19141C83.9839 7.19141 85.5937 5.58153 85.5937 3.59567Z" fill="#78B8CC"/>
<path opacity="0.64" d="M72.332 3.59567C72.332 1.60981 70.7222 -6.65243e-05 68.7363 -6.64375e-05C66.7504 -6.63507e-05 65.1406 1.60981 65.1406 3.59567C65.1406 5.58153 66.7504 7.19141 68.7363 7.19141C70.7222 7.19141 72.332 5.58153 72.332 3.59567Z" fill="#78B8CC"/>
<path opacity="0.64" d="M58.961 3.59567C58.961 1.60981 57.3511 -6.65243e-05 55.3653 -6.64375e-05C53.3794 -6.63507e-05 51.7695 1.60981 51.7695 3.59567C51.7695 5.58153 53.3794 7.19141 55.3653 7.19141C57.3511 7.19141 58.961 5.58153 58.961 3.59567Z" fill="#78B8CC"/>
<path opacity="0.64" d="M98.8516 84.1631C98.8516 82.1772 97.2418 80.5674 95.2559 80.5674C93.27 80.5674 91.6602 82.1772 91.6602 84.1631C91.6602 86.1489 93.27 87.7588 95.2559 87.7588C97.2418 87.7588 98.8516 86.1489 98.8516 84.1631Z" fill="#78B8CC"/>
<path opacity="0.64" d="M85.5937 84.1631C85.5937 82.1772 83.9839 80.5674 81.9981 80.5674C80.0122 80.5674 78.4023 82.1772 78.4023 84.1631C78.4023 86.1489 80.0122 87.7588 81.9981 87.7588C83.9839 87.7588 85.5937 86.1489 85.5937 84.1631Z" fill="#78B8CC"/>
<path opacity="0.64" d="M72.332 84.1631C72.332 82.1772 70.7222 80.5674 68.7363 80.5674C66.7504 80.5674 65.1406 82.1772 65.1406 84.1631C65.1406 86.1489 66.7504 87.7588 68.7363 87.7588C70.7222 87.7588 72.332 86.1489 72.332 84.1631Z" fill="#78B8CC"/>
<path opacity="0.64" d="M58.961 84.1631C58.961 82.1772 57.3511 80.5674 55.3653 80.5674C53.3794 80.5674 51.7695 82.1772 51.7695 84.1631C51.7695 86.1489 53.3794 87.7588 55.3653 87.7588C57.3511 87.7588 58.961 86.1489 58.961 84.1631Z" fill="#78B8CC"/>
<path opacity="0.64" d="M98.8516 72.5888C98.8516 70.603 97.2418 68.9931 95.2559 68.9931C93.27 68.9931 91.6602 70.603 91.6602 72.5888C91.6602 74.5747 93.27 76.1846 95.2559 76.1846C97.2418 76.1846 98.8516 74.5747 98.8516 72.5888Z" fill="#78B8CC"/>
<path opacity="0.64" d="M85.5937 72.5888C85.5937 70.603 83.9839 68.9931 81.9981 68.9931C80.0122 68.9931 78.4023 70.603 78.4023 72.5888C78.4023 74.5747 80.0122 76.1846 81.9981 76.1846C83.9839 76.1846 85.5937 74.5747 85.5937 72.5888Z" fill="#78B8CC"/>
<path opacity="0.64" d="M72.332 72.5888C72.332 70.603 70.7222 68.9931 68.7363 68.9931C66.7504 68.9931 65.1406 70.603 65.1406 72.5888C65.1406 74.5747 66.7504 76.1846 68.7363 76.1846C70.7222 76.1846 72.332 74.5747 72.332 72.5888Z" fill="#78B8CC"/>
<path opacity="0.64" d="M58.961 72.5888C58.961 70.603 57.3511 68.9931 55.3653 68.9931C53.3794 68.9931 51.7695 70.603 51.7695 72.5888C51.7695 74.5747 53.3794 76.1846 55.3653 76.1846C57.3511 76.1846 58.961 74.5747 58.961 72.5888Z" fill="#78B8CC"/>
<path opacity="0.64" d="M98.8516 61.1279C98.8516 59.1421 97.2418 57.5322 95.2559 57.5322C93.27 57.5322 91.6602 59.1421 91.6602 61.1279C91.6602 63.1138 93.27 64.7236 95.2559 64.7236C97.2418 64.7236 98.8516 63.1138 98.8516 61.1279Z" fill="#78B8CC"/>
<path opacity="0.64" d="M85.5937 61.1279C85.5937 59.1421 83.9839 57.5322 81.9981 57.5322C80.0122 57.5322 78.4023 59.1421 78.4023 61.1279C78.4023 63.1138 80.0122 64.7236 81.9981 64.7236C83.9839 64.7236 85.5937 63.1138 85.5937 61.1279Z" fill="#78B8CC"/>
<path opacity="0.64" d="M72.332 61.1279C72.332 59.1421 70.7222 57.5322 68.7363 57.5322C66.7504 57.5322 65.1406 59.1421 65.1406 61.1279C65.1406 63.1138 66.7504 64.7236 68.7363 64.7236C70.7222 64.7236 72.332 63.1138 72.332 61.1279Z" fill="#78B8CC"/>
<path opacity="0.64" d="M58.961 61.1279C58.961 59.1421 57.3511 57.5322 55.3653 57.5322C53.3794 57.5322 51.7695 59.1421 51.7695 61.1279C51.7695 63.1138 53.3794 64.7236 55.3653 64.7236C57.3511 64.7236 58.961 63.1138 58.961 61.1279Z" fill="#78B8CC"/>
<path opacity="0.64" d="M98.8516 49.5537C98.8516 47.5678 97.2418 45.958 95.2559 45.958C93.27 45.958 91.6602 47.5678 91.6602 49.5537C91.6602 51.5395 93.27 53.1494 95.2559 53.1494C97.2418 53.1494 98.8516 51.5395 98.8516 49.5537Z" fill="#78B8CC"/>
<path opacity="0.64" d="M85.5937 49.5537C85.5937 47.5678 83.9839 45.958 81.9981 45.958C80.0122 45.958 78.4023 47.5678 78.4023 49.5537C78.4023 51.5395 80.0122 53.1494 81.9981 53.1494C83.9839 53.1494 85.5937 51.5395 85.5937 49.5537Z" fill="#78B8CC"/>
<path opacity="0.64" d="M72.332 49.5537C72.332 47.5678 70.7222 45.958 68.7363 45.958C66.7504 45.958 65.1406 47.5678 65.1406 49.5537C65.1406 51.5395 66.7504 53.1494 68.7363 53.1494C70.7222 53.1494 72.332 51.5395 72.332 49.5537Z" fill="#78B8CC"/>
<path opacity="0.64" d="M58.961 49.5537C58.961 47.5678 57.3511 45.958 55.3653 45.958C53.3794 45.958 51.7695 47.5678 51.7695 49.5537C51.7695 51.5395 53.3794 53.1494 55.3653 53.1494C57.3511 53.1494 58.961 51.5395 58.961 49.5537Z" fill="#78B8CC"/>
<path opacity="0.64" d="M47.3867 38.3173C47.3867 36.3315 45.7769 34.7216 43.791 34.7216C41.8052 34.7216 40.1953 36.3315 40.1953 38.3173C40.1953 40.3032 41.8052 41.9131 43.791 41.9131C45.7769 41.9131 47.3867 40.3032 47.3867 38.3173Z" fill="#78B8CC"/>
<path opacity="0.64" d="M34.125 38.3173C34.125 36.3315 32.5151 34.7216 30.5293 34.7216C28.5434 34.7216 26.9336 36.3315 26.9336 38.3173C26.9336 40.3032 28.5434 41.9131 30.5293 41.9131C32.5151 41.9131 34.125 40.3032 34.125 38.3173Z" fill="#78B8CC"/>
<path opacity="0.64" d="M20.754 38.3173C20.754 36.3315 19.1441 34.7216 17.1582 34.7216C15.1724 34.7216 13.5625 36.3315 13.5625 38.3173C13.5625 40.3032 15.1724 41.9131 17.1582 41.9131C19.1441 41.9131 20.754 40.3032 20.754 38.3173Z" fill="#78B8CC"/>
<path opacity="0.64" d="M7.49609 38.3162C7.49609 36.3303 5.88629 34.7205 3.90042 34.7205C1.91456 34.7205 0.304687 36.3303 0.304687 38.3162C0.304687 40.3021 1.91456 41.9119 3.90042 41.9119C5.88629 41.9119 7.49609 40.3021 7.49609 38.3162Z" fill="#78B8CC"/>
<path opacity="0.64" d="M47.3867 26.7441C47.3867 24.7583 45.7769 23.1484 43.791 23.1484C41.8052 23.1484 40.1953 24.7583 40.1953 26.7441C40.1953 28.73 41.8052 30.3398 43.791 30.3398C45.7769 30.3398 47.3867 28.73 47.3867 26.7441Z" fill="#78B8CC"/>
<path opacity="0.64" d="M34.125 26.7443C34.125 24.7585 32.5151 23.1486 30.5293 23.1486C28.5434 23.1486 26.9336 24.7585 26.9336 26.7443C26.9336 28.7302 28.5434 30.34 30.5293 30.34C32.5151 30.34 34.125 28.7302 34.125 26.7443Z" fill="#78B8CC"/>
<path opacity="0.64" d="M20.754 26.7441C20.754 24.7583 19.1441 23.1484 17.1582 23.1484C15.1724 23.1484 13.5625 24.7583 13.5625 26.7441C13.5625 28.73 15.1724 30.3398 17.1582 30.3398C19.1441 30.3398 20.754 28.73 20.754 26.7441Z" fill="#78B8CC"/>
<path opacity="0.64" d="M7.49609 26.7443C7.49609 24.7585 5.88629 23.1486 3.90042 23.1486C1.91456 23.1486 0.304687 24.7585 0.304687 26.7443C0.304687 28.7302 1.91456 30.34 3.90042 30.34C5.88629 30.34 7.49609 28.7302 7.49609 26.7443Z" fill="#78B8CC"/>
<path opacity="0.64" d="M47.3867 15.1699C47.3867 13.184 45.7769 11.5742 43.791 11.5742C41.8052 11.5742 40.1953 13.184 40.1953 15.1699C40.1953 17.1558 41.8052 18.7656 43.791 18.7656C45.7769 18.7656 47.3867 17.1558 47.3867 15.1699Z" fill="#78B8CC"/>
<path opacity="0.64" d="M34.125 15.1697C34.125 13.1838 32.5151 11.574 30.5293 11.574C28.5434 11.574 26.9336 13.1838 26.9336 15.1697C26.9336 17.1555 28.5434 18.7654 30.5293 18.7654C32.5151 18.7654 34.125 17.1555 34.125 15.1697Z" fill="#78B8CC"/>
<path opacity="0.64" d="M20.754 15.1699C20.754 13.184 19.1441 11.5742 17.1582 11.5742C15.1724 11.5742 13.5625 13.184 13.5625 15.1699C13.5625 17.1558 15.1724 18.7656 17.1582 18.7656C19.1441 18.7656 20.754 17.1558 20.754 15.1699Z" fill="#78B8CC"/>
<path opacity="0.64" d="M7.49609 15.1697C7.49609 13.1838 5.88629 11.574 3.90042 11.574C1.91456 11.574 0.304687 13.1838 0.304687 15.1697C0.304687 17.1555 1.91456 18.7654 3.90042 18.7654C5.88629 18.7654 7.49609 17.1555 7.49609 15.1697Z" fill="#78B8CC"/>
<path opacity="0.64" d="M47.3867 3.59567C47.3867 1.60981 45.7769 -6.65243e-05 43.791 -6.64375e-05C41.8052 -6.63507e-05 40.1953 1.60981 40.1953 3.59567C40.1953 5.58153 41.8052 7.19141 43.791 7.19141C45.7769 7.19141 47.3867 5.58153 47.3867 3.59567Z" fill="#78B8CC"/>
<path opacity="0.64" d="M34.125 3.59567C34.125 1.60981 32.5151 -6.65243e-05 30.5293 -6.64375e-05C28.5434 -6.63507e-05 26.9336 1.60981 26.9336 3.59567C26.9336 5.58153 28.5434 7.19141 30.5293 7.19141C32.5151 7.19141 34.125 5.58153 34.125 3.59567Z" fill="#78B8CC"/>
<path opacity="0.64" d="M20.754 3.59567C20.754 1.60981 19.1441 -6.65243e-05 17.1582 -6.64375e-05C15.1724 -6.63507e-05 13.5625 1.60981 13.5625 3.59567C13.5625 5.58153 15.1724 7.19141 17.1582 7.19141C19.1441 7.19141 20.754 5.58153 20.754 3.59567Z" fill="#78B8CC"/>
<path opacity="0.64" d="M7.49609 3.59567C7.49609 1.60981 5.88629 -6.65243e-05 3.90042 -6.64375e-05C1.91456 -6.63507e-05 0.304687 1.60981 0.304687 3.59567C0.304687 5.58153 1.91456 7.19141 3.90042 7.19141C5.88629 7.19141 7.49609 5.58153 7.49609 3.59567Z" fill="#78B8CC"/>
<path opacity="0.64" d="M47.3867 84.1631C47.3867 82.1772 45.7769 80.5674 43.791 80.5674C41.8052 80.5674 40.1953 82.1772 40.1953 84.1631C40.1953 86.1489 41.8052 87.7588 43.791 87.7588C45.7769 87.7588 47.3867 86.1489 47.3867 84.1631Z" fill="#78B8CC"/>
<path opacity="0.64" d="M34.125 84.1631C34.125 82.1772 32.5151 80.5674 30.5293 80.5674C28.5434 80.5674 26.9336 82.1772 26.9336 84.1631C26.9336 86.1489 28.5434 87.7588 30.5293 87.7588C32.5151 87.7588 34.125 86.1489 34.125 84.1631Z" fill="#78B8CC"/>
<path opacity="0.64" d="M20.754 84.1631C20.754 82.1772 19.1441 80.5674 17.1582 80.5674C15.1724 80.5674 13.5625 82.1772 13.5625 84.1631C13.5625 86.1489 15.1724 87.7588 17.1582 87.7588C19.1441 87.7588 20.754 86.1489 20.754 84.1631Z" fill="#78B8CC"/>
<path opacity="0.64" d="M7.49609 84.1631C7.49609 82.1772 5.88629 80.5674 3.90042 80.5674C1.91456 80.5674 0.304687 82.1772 0.304687 84.1631C0.304687 86.1489 1.91456 87.7588 3.90042 87.7588C5.88629 87.7588 7.49609 86.1489 7.49609 84.1631Z" fill="#78B8CC"/>
<path opacity="0.64" d="M47.3867 72.5888C47.3867 70.603 45.7769 68.9931 43.791 68.9931C41.8052 68.9931 40.1953 70.603 40.1953 72.5888C40.1953 74.5747 41.8052 76.1846 43.791 76.1846C45.7769 76.1846 47.3867 74.5747 47.3867 72.5888Z" fill="#78B8CC"/>
<path opacity="0.64" d="M34.125 72.5889C34.125 70.603 32.5151 68.9932 30.5293 68.9932C28.5434 68.9932 26.9336 70.603 26.9336 72.5889C26.9336 74.5747 28.5434 76.1846 30.5293 76.1846C32.5151 76.1846 34.125 74.5747 34.125 72.5889Z" fill="#78B8CC"/>
<path opacity="0.64" d="M20.754 72.5888C20.754 70.603 19.1441 68.9931 17.1582 68.9931C15.1724 68.9931 13.5625 70.603 13.5625 72.5888C13.5625 74.5747 15.1724 76.1846 17.1582 76.1846C19.1441 76.1846 20.754 74.5747 20.754 72.5888Z" fill="#78B8CC"/>
<path opacity="0.64" d="M7.49609 72.5889C7.49609 70.603 5.88629 68.9932 3.90042 68.9932C1.91456 68.9932 0.304687 70.603 0.304687 72.5889C0.304687 74.5747 1.91456 76.1846 3.90042 76.1846C5.88629 76.1846 7.49609 74.5747 7.49609 72.5889Z" fill="#78B8CC"/>
<path opacity="0.64" d="M47.3867 61.1279C47.3867 59.1421 45.7769 57.5322 43.791 57.5322C41.8052 57.5322 40.1953 59.1421 40.1953 61.1279C40.1953 63.1138 41.8052 64.7236 43.791 64.7236C45.7769 64.7236 47.3867 63.1138 47.3867 61.1279Z" fill="#78B8CC"/>
<path opacity="0.64" d="M34.125 61.1278C34.125 59.1419 32.5151 57.532 30.5293 57.532C28.5434 57.532 26.9336 59.1419 26.9336 61.1278C26.9336 63.1136 28.5434 64.7235 30.5293 64.7235C32.5151 64.7235 34.125 63.1136 34.125 61.1278Z" fill="#78B8CC"/>
<path opacity="0.64" d="M20.754 61.1279C20.754 59.1421 19.1441 57.5322 17.1582 57.5322C15.1724 57.5322 13.5625 59.1421 13.5625 61.1279C13.5625 63.1138 15.1724 64.7236 17.1582 64.7236C19.1441 64.7236 20.754 63.1138 20.754 61.1279Z" fill="#78B8CC"/>
<path opacity="0.64" d="M7.49609 61.1269C7.49609 59.141 5.88629 57.5311 3.90042 57.5311C1.91456 57.5311 0.304687 59.141 0.304687 61.1269C0.304687 63.1127 1.91456 64.7226 3.90042 64.7226C5.88629 64.7226 7.49609 63.1127 7.49609 61.1269Z" fill="#78B8CC"/>
<path opacity="0.64" d="M47.3867 49.5537C47.3867 47.5678 45.7769 45.958 43.791 45.958C41.8052 45.958 40.1953 47.5678 40.1953 49.5537C40.1953 51.5395 41.8052 53.1494 43.791 53.1494C45.7769 53.1494 47.3867 51.5395 47.3867 49.5537Z" fill="#78B8CC"/>
<path opacity="0.64" d="M34.125 49.5537C34.125 47.5678 32.5151 45.958 30.5293 45.958C28.5434 45.958 26.9336 47.5678 26.9336 49.5537C26.9336 51.5395 28.5434 53.1494 30.5293 53.1494C32.5151 53.1494 34.125 51.5395 34.125 49.5537Z" fill="#78B8CC"/>
<path opacity="0.64" d="M20.754 49.5537C20.754 47.5678 19.1441 45.958 17.1582 45.958C15.1724 45.958 13.5625 47.5678 13.5625 49.5537C13.5625 51.5395 15.1724 53.1494 17.1582 53.1494C19.1441 53.1494 20.754 51.5395 20.754 49.5537Z" fill="#78B8CC"/>
<path opacity="0.64" d="M7.49609 49.5537C7.49609 47.5678 5.88629 45.958 3.90042 45.958C1.91456 45.958 0.304687 47.5678 0.304687 49.5537C0.304687 51.5395 1.91456 53.1494 3.90042 53.1494C5.88629 53.1494 7.49609 51.5395 7.49609 49.5537Z" fill="#78B8CC"/>
<path opacity="0.64" d="M98.8516 129.446C98.8516 127.46 97.2418 125.851 95.2559 125.851C93.27 125.851 91.6602 127.46 91.6602 129.446C91.6602 131.432 93.27 133.042 95.2559 133.042C97.2418 133.042 98.8516 131.432 98.8516 129.446Z" fill="#78B8CC"/>
<path opacity="0.64" d="M85.5937 129.446C85.5937 127.46 83.9839 125.851 81.9981 125.851C80.0122 125.851 78.4023 127.46 78.4023 129.446C78.4023 131.432 80.0122 133.042 81.9981 133.042C83.9839 133.042 85.5937 131.432 85.5937 129.446Z" fill="#78B8CC"/>
<path opacity="0.64" d="M72.332 129.446C72.332 127.46 70.7222 125.851 68.7363 125.851C66.7504 125.851 65.1406 127.46 65.1406 129.446C65.1406 131.432 66.7504 133.042 68.7363 133.042C70.7222 133.042 72.332 131.432 72.332 129.446Z" fill="#78B8CC"/>
<path opacity="0.64" d="M58.961 129.447C58.961 127.461 57.3511 125.851 55.3653 125.851C53.3794 125.851 51.7695 127.461 51.7695 129.447C51.7695 131.433 53.3794 133.043 55.3653 133.043C57.3511 133.043 58.961 131.433 58.961 129.447Z" fill="#78B8CC"/>
<path opacity="0.64" d="M98.8516 117.985C98.8516 115.999 97.2418 114.39 95.2559 114.39C93.27 114.39 91.6602 115.999 91.6602 117.985C91.6602 119.971 93.27 121.581 95.2559 121.581C97.2418 121.581 98.8516 119.971 98.8516 117.985Z" fill="#78B8CC"/>
<path opacity="0.64" d="M85.5937 117.985C85.5937 115.999 83.9839 114.39 81.9981 114.39C80.0122 114.39 78.4023 115.999 78.4023 117.985C78.4023 119.971 80.0122 121.581 81.9981 121.581C83.9839 121.581 85.5937 119.971 85.5937 117.985Z" fill="#78B8CC"/>
<path opacity="0.64" d="M72.332 117.985C72.332 115.999 70.7222 114.39 68.7363 114.39C66.7504 114.39 65.1406 115.999 65.1406 117.985C65.1406 119.971 66.7504 121.581 68.7363 121.581C70.7222 121.581 72.332 119.971 72.332 117.985Z" fill="#78B8CC"/>
<path opacity="0.64" d="M58.961 117.985C58.961 115.999 57.3511 114.39 55.3653 114.39C53.3794 114.39 51.7695 115.999 51.7695 117.985C51.7695 119.971 53.3794 121.581 55.3653 121.581C57.3511 121.581 58.961 119.971 58.961 117.985Z" fill="#78B8CC"/>
<path opacity="0.64" d="M98.8516 106.411C98.8516 104.425 97.2418 102.815 95.2559 102.815C93.27 102.815 91.6602 104.425 91.6602 106.411C91.6602 108.397 93.27 110.007 95.2559 110.007C97.2418 110.007 98.8516 108.397 98.8516 106.411Z" fill="#78B8CC"/>
<path opacity="0.64" d="M85.5937 106.411C85.5937 104.425 83.9839 102.815 81.9981 102.815C80.0122 102.815 78.4023 104.425 78.4023 106.411C78.4023 108.397 80.0122 110.007 81.9981 110.007C83.9839 110.007 85.5937 108.397 85.5937 106.411Z" fill="#78B8CC"/>
<path opacity="0.64" d="M72.332 106.411C72.332 104.425 70.7222 102.815 68.7363 102.815C66.7504 102.815 65.1406 104.425 65.1406 106.411C65.1406 108.397 66.7504 110.007 68.7363 110.007C70.7222 110.007 72.332 108.397 72.332 106.411Z" fill="#78B8CC"/>
<path opacity="0.64" d="M58.961 106.411C58.961 104.425 57.3511 102.815 55.3653 102.815C53.3794 102.815 51.7695 104.425 51.7695 106.411C51.7695 108.397 53.3794 110.007 55.3653 110.007C57.3511 110.007 58.961 108.397 58.961 106.411Z" fill="#78B8CC"/>
<path opacity="0.64" d="M98.8516 94.8379C98.8516 92.852 97.2418 91.2422 95.2559 91.2422C93.27 91.2422 91.6602 92.852 91.6602 94.8379C91.6602 96.8238 93.27 98.4336 95.2559 98.4336C97.2418 98.4336 98.8516 96.8238 98.8516 94.8379Z" fill="#78B8CC"/>
<path opacity="0.64" d="M85.5937 94.8379C85.5937 92.852 83.9839 91.2422 81.9981 91.2422C80.0122 91.2422 78.4023 92.852 78.4023 94.8379C78.4023 96.8238 80.0122 98.4336 81.9981 98.4336C83.9839 98.4336 85.5937 96.8238 85.5937 94.8379Z" fill="#78B8CC"/>
<path opacity="0.64" d="M72.332 94.8379C72.332 92.852 70.7222 91.2422 68.7363 91.2422C66.7504 91.2422 65.1406 92.852 65.1406 94.8379C65.1406 96.8238 66.7504 98.4336 68.7363 98.4336C70.7222 98.4336 72.332 96.8238 72.332 94.8379Z" fill="#78B8CC"/>
<path opacity="0.64" d="M58.961 94.8379C58.961 92.852 57.3511 91.2422 55.3653 91.2422C53.3794 91.2422 51.7695 92.852 51.7695 94.8379C51.7695 96.8238 53.3794 98.4336 55.3653 98.4336C57.3511 98.4336 58.961 96.8238 58.961 94.8379Z" fill="#78B8CC"/>
<path opacity="0.64" d="M98.8516 175.404C98.8516 173.418 97.2418 171.809 95.2559 171.809C93.27 171.809 91.6602 173.418 91.6602 175.404C91.6602 177.39 93.27 179 95.2559 179C97.2418 179 98.8516 177.39 98.8516 175.404Z" fill="#78B8CC"/>
<path opacity="0.64" d="M85.5937 175.404C85.5937 173.418 83.9839 171.809 81.9981 171.809C80.0122 171.809 78.4023 173.418 78.4023 175.404C78.4023 177.39 80.0122 179 81.9981 179C83.9839 179 85.5937 177.39 85.5937 175.404Z" fill="#78B8CC"/>
<path opacity="0.64" d="M72.332 175.404C72.332 173.418 70.7222 171.809 68.7363 171.809C66.7504 171.809 65.1406 173.418 65.1406 175.404C65.1406 177.39 66.7504 179 68.7363 179C70.7222 179 72.332 177.39 72.332 175.404Z" fill="#78B8CC"/>
<path opacity="0.64" d="M58.961 175.404C58.961 173.418 57.3511 171.809 55.3653 171.809C53.3794 171.809 51.7695 173.418 51.7695 175.404C51.7695 177.39 53.3794 179 55.3653 179C57.3511 179 58.961 177.39 58.961 175.404Z" fill="#78B8CC"/>
<path opacity="0.64" d="M98.8516 163.831C98.8516 161.845 97.2418 160.235 95.2559 160.235C93.27 160.235 91.6602 161.845 91.6602 163.831C91.6602 165.817 93.27 167.427 95.2559 167.427C97.2418 167.427 98.8516 165.817 98.8516 163.831Z" fill="#78B8CC"/>
<path opacity="0.64" d="M85.5937 163.831C85.5937 161.845 83.9839 160.235 81.9981 160.235C80.0122 160.235 78.4023 161.845 78.4023 163.831C78.4023 165.817 80.0122 167.427 81.9981 167.427C83.9839 167.427 85.5937 165.817 85.5937 163.831Z" fill="#78B8CC"/>
<path opacity="0.64" d="M72.332 163.831C72.332 161.845 70.7222 160.235 68.7363 160.235C66.7504 160.235 65.1406 161.845 65.1406 163.831C65.1406 165.817 66.7504 167.427 68.7363 167.427C70.7222 167.427 72.332 165.817 72.332 163.831Z" fill="#78B8CC"/>
<path opacity="0.64" d="M58.961 163.831C58.961 161.845 57.3511 160.235 55.3653 160.235C53.3794 160.235 51.7695 161.845 51.7695 163.831C51.7695 165.817 53.3794 167.427 55.3653 167.427C57.3511 167.427 58.961 165.817 58.961 163.831Z" fill="#78B8CC"/>
<path opacity="0.64" d="M98.8516 152.257C98.8516 150.271 97.2418 148.661 95.2559 148.661C93.27 148.661 91.6602 150.271 91.6602 152.257C91.6602 154.243 93.27 155.853 95.2559 155.853C97.2418 155.853 98.8516 154.243 98.8516 152.257Z" fill="#78B8CC"/>
<path opacity="0.64" d="M85.5937 152.257C85.5937 150.271 83.9839 148.661 81.9981 148.661C80.0122 148.661 78.4023 150.271 78.4023 152.257C78.4023 154.243 80.0122 155.853 81.9981 155.853C83.9839 155.853 85.5937 154.243 85.5937 152.257Z" fill="#78B8CC"/>
<path opacity="0.64" d="M72.332 152.257C72.332 150.271 70.7222 148.661 68.7363 148.661C66.7504 148.661 65.1406 150.271 65.1406 152.257C65.1406 154.243 66.7504 155.853 68.7363 155.853C70.7222 155.853 72.332 154.243 72.332 152.257Z" fill="#78B8CC"/>
<path opacity="0.64" d="M58.961 152.257C58.961 150.271 57.3511 148.661 55.3653 148.661C53.3794 148.661 51.7695 150.271 51.7695 152.257C51.7695 154.243 53.3794 155.853 55.3653 155.853C57.3511 155.853 58.961 154.243 58.961 152.257Z" fill="#78B8CC"/>
<path opacity="0.64" d="M98.8516 140.684C98.8516 138.698 97.2418 137.088 95.2559 137.088C93.27 137.088 91.6602 138.698 91.6602 140.684C91.6602 142.669 93.27 144.279 95.2559 144.279C97.2418 144.279 98.8516 142.669 98.8516 140.684Z" fill="#78B8CC"/>
<path opacity="0.64" d="M85.5937 140.684C85.5937 138.698 83.9839 137.088 81.9981 137.088C80.0122 137.088 78.4023 138.698 78.4023 140.684C78.4023 142.669 80.0122 144.279 81.9981 144.279C83.9839 144.279 85.5937 142.669 85.5937 140.684Z" fill="#78B8CC"/>
<path opacity="0.64" d="M72.332 140.684C72.332 138.698 70.7222 137.088 68.7363 137.088C66.7504 137.088 65.1406 138.698 65.1406 140.684C65.1406 142.669 66.7504 144.279 68.7363 144.279C70.7222 144.279 72.332 142.669 72.332 140.684Z" fill="#78B8CC"/>
<path opacity="0.64" d="M58.961 140.684C58.961 138.698 57.3511 137.088 55.3653 137.088C53.3794 137.088 51.7695 138.698 51.7695 140.684C51.7695 142.669 53.3794 144.279 55.3653 144.279C57.3511 144.279 58.961 142.669 58.961 140.684Z" fill="#78B8CC"/>
<path opacity="0.64" d="M47.3867 129.447C47.3867 127.461 45.7769 125.851 43.791 125.851C41.8052 125.851 40.1953 127.461 40.1953 129.447C40.1953 131.433 41.8052 133.043 43.791 133.043C45.7769 133.043 47.3867 131.433 47.3867 129.447Z" fill="#78B8CC"/>
<path opacity="0.64" d="M34.125 129.447C34.125 127.461 32.5151 125.851 30.5293 125.851C28.5434 125.851 26.9336 127.461 26.9336 129.447C26.9336 131.433 28.5434 133.043 30.5293 133.043C32.5151 133.043 34.125 131.433 34.125 129.447Z" fill="#78B8CC"/>
<path opacity="0.64" d="M20.754 129.447C20.754 127.461 19.1441 125.851 17.1582 125.851C15.1724 125.851 13.5625 127.461 13.5625 129.447C13.5625 131.433 15.1724 133.043 17.1582 133.043C19.1441 133.043 20.754 131.433 20.754 129.447Z" fill="#78B8CC"/>
<path opacity="0.64" d="M7.49609 129.446C7.49609 127.46 5.88629 125.85 3.90042 125.85C1.91456 125.85 0.304687 127.46 0.304687 129.446C0.304687 131.432 1.91456 133.042 3.90042 133.042C5.88629 133.042 7.49609 131.432 7.49609 129.446Z" fill="#78B8CC"/>
<path opacity="0.64" d="M47.3867 117.985C47.3867 115.999 45.7769 114.39 43.791 114.39C41.8052 114.39 40.1953 115.999 40.1953 117.985C40.1953 119.971 41.8052 121.581 43.791 121.581C45.7769 121.581 47.3867 119.971 47.3867 117.985Z" fill="#78B8CC"/>
<path opacity="0.64" d="M34.125 117.985C34.125 115.999 32.5151 114.39 30.5293 114.39C28.5434 114.39 26.9336 115.999 26.9336 117.985C26.9336 119.971 28.5434 121.581 30.5293 121.581C32.5151 121.581 34.125 119.971 34.125 117.985Z" fill="#78B8CC"/>
<path opacity="0.64" d="M20.754 117.985C20.754 115.999 19.1441 114.39 17.1582 114.39C15.1724 114.39 13.5625 115.999 13.5625 117.985C13.5625 119.971 15.1724 121.581 17.1582 121.581C19.1441 121.581 20.754 119.971 20.754 117.985Z" fill="#78B8CC"/>
<path opacity="0.64" d="M7.49609 117.985C7.49609 115.999 5.88629 114.39 3.90042 114.39C1.91456 114.39 0.304687 115.999 0.304687 117.985C0.304687 119.971 1.91456 121.581 3.90042 121.581C5.88629 121.581 7.49609 119.971 7.49609 117.985Z" fill="#78B8CC"/>
<path opacity="0.64" d="M47.3867 106.411C47.3867 104.425 45.7769 102.815 43.791 102.815C41.8052 102.815 40.1953 104.425 40.1953 106.411C40.1953 108.397 41.8052 110.007 43.791 110.007C45.7769 110.007 47.3867 108.397 47.3867 106.411Z" fill="#78B8CC"/>
<path opacity="0.64" d="M34.125 106.411C34.125 104.425 32.5151 102.816 30.5293 102.816C28.5434 102.816 26.9336 104.425 26.9336 106.411C26.9336 108.397 28.5434 110.007 30.5293 110.007C32.5151 110.007 34.125 108.397 34.125 106.411Z" fill="#78B8CC"/>
<path opacity="0.64" d="M20.754 106.411C20.754 104.425 19.1441 102.815 17.1582 102.815C15.1724 102.815 13.5625 104.425 13.5625 106.411C13.5625 108.397 15.1724 110.007 17.1582 110.007C19.1441 110.007 20.754 108.397 20.754 106.411Z" fill="#78B8CC"/>
<path opacity="0.64" d="M7.49609 106.411C7.49609 104.425 5.88629 102.816 3.90042 102.816C1.91456 102.816 0.304687 104.425 0.304687 106.411C0.304687 108.397 1.91456 110.007 3.90042 110.007C5.88629 110.007 7.49609 108.397 7.49609 106.411Z" fill="#78B8CC"/>
<path opacity="0.64" d="M47.3867 94.8379C47.3867 92.852 45.7769 91.2422 43.791 91.2422C41.8052 91.2422 40.1953 92.852 40.1953 94.8379C40.1953 96.8238 41.8052 98.4336 43.791 98.4336C45.7769 98.4336 47.3867 96.8238 47.3867 94.8379Z" fill="#78B8CC"/>
<path opacity="0.64" d="M34.125 94.8379C34.125 92.852 32.5151 91.2422 30.5293 91.2422C28.5434 91.2422 26.9336 92.852 26.9336 94.8379C26.9336 96.8238 28.5434 98.4336 30.5293 98.4336C32.5151 98.4336 34.125 96.8238 34.125 94.8379Z" fill="#78B8CC"/>
<path opacity="0.64" d="M20.754 94.8379C20.754 92.852 19.1441 91.2422 17.1582 91.2422C15.1724 91.2422 13.5625 92.852 13.5625 94.8379C13.5625 96.8238 15.1724 98.4336 17.1582 98.4336C19.1441 98.4336 20.754 96.8238 20.754 94.8379Z" fill="#78B8CC"/>
<path opacity="0.64" d="M7.49609 94.8379C7.49609 92.852 5.88629 91.2422 3.90042 91.2422C1.91456 91.2422 0.304687 92.852 0.304687 94.8379C0.304687 96.8238 1.91456 98.4336 3.90042 98.4336C5.88629 98.4336 7.49609 96.8238 7.49609 94.8379Z" fill="#78B8CC"/>
<path opacity="0.64" d="M47.3867 175.404C47.3867 173.418 45.7769 171.809 43.791 171.809C41.8052 171.809 40.1953 173.418 40.1953 175.404C40.1953 177.39 41.8052 179 43.791 179C45.7769 179 47.3867 177.39 47.3867 175.404Z" fill="#78B8CC"/>
<path opacity="0.64" d="M34.125 175.404C34.125 173.418 32.5151 171.809 30.5293 171.809C28.5434 171.809 26.9336 173.418 26.9336 175.404C26.9336 177.39 28.5434 179 30.5293 179C32.5151 179 34.125 177.39 34.125 175.404Z" fill="#78B8CC"/>
<path opacity="0.64" d="M20.754 175.404C20.754 173.418 19.1441 171.809 17.1582 171.809C15.1724 171.809 13.5625 173.418 13.5625 175.404C13.5625 177.39 15.1724 179 17.1582 179C19.1441 179 20.754 177.39 20.754 175.404Z" fill="#78B8CC"/>
<path opacity="0.64" d="M7.49609 175.404C7.49609 173.418 5.88629 171.809 3.90042 171.809C1.91456 171.809 0.304687 173.418 0.304687 175.404C0.304687 177.39 1.91456 179 3.90042 179C5.88629 179 7.49609 177.39 7.49609 175.404Z" fill="#78B8CC"/>
<path opacity="0.64" d="M47.3867 163.831C47.3867 161.845 45.7769 160.235 43.791 160.235C41.8052 160.235 40.1953 161.845 40.1953 163.831C40.1953 165.817 41.8052 167.427 43.791 167.427C45.7769 167.427 47.3867 165.817 47.3867 163.831Z" fill="#78B8CC"/>
<path opacity="0.64" d="M34.125 163.831C34.125 161.845 32.5151 160.235 30.5293 160.235C28.5434 160.235 26.9336 161.845 26.9336 163.831C26.9336 165.817 28.5434 167.427 30.5293 167.427C32.5151 167.427 34.125 165.817 34.125 163.831Z" fill="#78B8CC"/>
<path opacity="0.64" d="M20.754 163.831C20.754 161.845 19.1441 160.235 17.1582 160.235C15.1724 160.235 13.5625 161.845 13.5625 163.831C13.5625 165.817 15.1724 167.427 17.1582 167.427C19.1441 167.427 20.754 165.817 20.754 163.831Z" fill="#78B8CC"/>
<path opacity="0.64" d="M7.49609 163.831C7.49609 161.845 5.88629 160.235 3.90042 160.235C1.91456 160.235 0.304687 161.845 0.304687 163.831C0.304687 165.817 1.91456 167.427 3.90042 167.427C5.88629 167.427 7.49609 165.817 7.49609 163.831Z" fill="#78B8CC"/>
<path opacity="0.64" d="M47.3867 152.257C47.3867 150.271 45.7769 148.661 43.791 148.661C41.8052 148.661 40.1953 150.271 40.1953 152.257C40.1953 154.243 41.8052 155.853 43.791 155.853C45.7769 155.853 47.3867 154.243 47.3867 152.257Z" fill="#78B8CC"/>
<path opacity="0.64" d="M34.125 152.257C34.125 150.271 32.5151 148.661 30.5293 148.661C28.5434 148.661 26.9336 150.271 26.9336 152.257C26.9336 154.243 28.5434 155.853 30.5293 155.853C32.5151 155.853 34.125 154.243 34.125 152.257Z" fill="#78B8CC"/>
<path opacity="0.64" d="M20.754 152.257C20.754 150.271 19.1441 148.661 17.1582 148.661C15.1724 148.661 13.5625 150.271 13.5625 152.257C13.5625 154.243 15.1724 155.853 17.1582 155.853C19.1441 155.853 20.754 154.243 20.754 152.257Z" fill="#78B8CC"/>
<path opacity="0.64" d="M7.49609 152.257C7.49609 150.271 5.88629 148.661 3.90042 148.661C1.91456 148.661 0.304687 150.271 0.304687 152.257C0.304687 154.243 1.91456 155.853 3.90042 155.853C5.88629 155.853 7.49609 154.243 7.49609 152.257Z" fill="#78B8CC"/>
<path opacity="0.64" d="M47.3867 140.684C47.3867 138.698 45.7769 137.088 43.791 137.088C41.8052 137.088 40.1953 138.698 40.1953 140.684C40.1953 142.669 41.8052 144.279 43.791 144.279C45.7769 144.279 47.3867 142.669 47.3867 140.684Z" fill="#78B8CC"/>
<path opacity="0.64" d="M34.125 140.684C34.125 138.698 32.5151 137.088 30.5293 137.088C28.5434 137.088 26.9336 138.698 26.9336 140.684C26.9336 142.669 28.5434 144.279 30.5293 144.279C32.5151 144.279 34.125 142.669 34.125 140.684Z" fill="#78B8CC"/>
<path opacity="0.64" d="M20.754 140.684C20.754 138.698 19.1441 137.088 17.1582 137.088C15.1724 137.088 13.5625 138.698 13.5625 140.684C13.5625 142.669 15.1724 144.279 17.1582 144.279C19.1441 144.279 20.754 142.669 20.754 140.684Z" fill="#78B8CC"/>
<path opacity="0.64" d="M7.49609 140.684C7.49609 138.698 5.88629 137.088 3.90042 137.088C1.91456 137.088 0.304687 138.698 0.304687 140.684C0.304687 142.669 1.91456 144.279 3.90042 144.279C5.88629 144.279 7.49609 142.669 7.49609 140.684Z" fill="#78B8CC"/>
</svg>
