<svg width="96" height="52" viewBox="0 0 96 52" fill="none" xmlns="http://www.w3.org/2000/svg">
<path d="M83.9987 27.1719C83.9987 27.1719 80.4125 38.8959 72.1367 39.8614C72.1367 39.8614 81.3781 42.6201 83.9987 51.9993C83.9987 51.9993 85.7918 44.1373 95.309 39.5856C95.309 39.5856 88.1366 39.8615 83.9987 27.1719Z" fill="#F0CA50"/>
<path d="M8.5517 7.03418C8.5517 7.03418 3.72412 11.1721 0 9.24107C0.924917 10.4109 1.55754 11.7844 1.8454 13.2477C2.13325 14.711 2.06806 16.2218 1.65518 17.6548C2.81668 16.7566 4.15179 16.1091 5.57623 15.7529C7.00066 15.3968 8.48347 15.34 9.931 15.5859C9.931 15.5859 6.7586 13.6548 8.5517 7.03418Z" fill="#F0CA50"/>
<path d="M57.2418 0L19.0351 37.3791C16.2765 40.8274 16.8283 45.3791 19.1731 47.448C21.5179 49.517 27.3109 48.9653 29.9316 44.5515L57.2418 0Z" fill="#8EC6D8"/>
<path d="M23.7243 46.4818C26.162 46.4818 28.1381 44.5057 28.1381 42.068C28.1381 39.6304 26.162 37.6543 23.7243 37.6543C21.2867 37.6543 19.3105 39.6304 19.3105 42.068C19.3105 44.5057 21.2867 46.4818 23.7243 46.4818Z" fill="white"/>
</svg>
