<svg width="102" height="98" viewBox="0 0 102 98" fill="none" xmlns="http://www.w3.org/2000/svg">
<path d="M68.2872 74.1128L50.0687 67.4951L37.0179 71.8454L23.9671 67.4951L5.74862 74.1128C2.29476 75.352 0.0273438 78.6477 0.0273438 82.2861V95.7851C0.0273438 96.9979 1.00286 97.9734 2.21567 97.9734H71.8992C73.112 97.9734 74.0876 96.9979 74.0876 95.7851V82.2861C74.0348 78.6477 71.741 75.3784 68.2872 74.1128Z" fill="#F0CA50"/>
<path d="M34.7245 76.1953L32.668 97.9731H41.3685L39.312 76.1953H34.7245Z" fill="#1F2122"/>
<path d="M39.3091 79.2016H34.7479C33.9042 79.2016 33.2188 78.5161 33.2188 77.6724V71.8457H40.8383V77.6724C40.8383 78.5161 40.1528 79.2016 39.3091 79.2016Z" fill="#1F2122"/>
<path d="M71.6877 76.3809C73.1642 77.9628 74.0342 80.072 74.0342 82.3131V95.8121C74.0342 97.0249 73.0587 98.0004 71.8459 98.0004H60.957V90.6972C60.957 88.3771 61.8798 86.1624 63.5145 84.5277L71.6877 76.3809Z" fill="#1C427B"/>
<path d="M60.9566 22.5951V4.35028C60.9566 1.95103 59.0056 0 56.6063 0H30.4783C20.8549 0 13.0508 7.80414 13.0508 17.4275V22.5951C13.0508 24.9416 13.4199 27.2617 14.1581 29.4764L14.87 31.6384C15.0809 32.2975 15.2127 33.0094 15.2127 33.6949V34.8022H58.7683V33.6949C58.7683 32.983 58.8737 32.2975 59.111 31.6384L59.8229 29.4764C60.5875 27.2617 60.9566 24.9416 60.9566 22.5951Z" fill="#1F2122"/>
<path d="M50.0655 52.2559H23.9375V71.8453H50.0655V52.2559Z" fill="#E6AF78"/>
<path d="M23.9639 59.6118C27.8132 61.8528 32.2689 63.1447 37.0147 63.1447C41.7605 63.1447 46.2426 61.8528 50.0655 59.6118V52.2559H23.9375L23.9639 59.6118Z" fill="#D29B6E"/>
<path d="M37.0144 71.8465L30.0803 78.7806C29.1575 79.7034 27.602 79.5979 26.811 78.5697L19.6133 69.0782L21.4852 65.097C22.0389 63.9369 23.489 63.4887 24.5963 64.1742L37.0144 71.8465Z" fill="#EE4D4A"/>
<path d="M37.0156 71.8465L43.9497 78.7806C44.8725 79.7034 46.4281 79.5979 47.219 78.5697L54.4167 69.0782L52.5448 65.097C51.9911 63.9369 50.541 63.4887 49.4337 64.1742L37.0156 71.8465Z" fill="#EE4D4A"/>
<path d="M37.0199 58.7941C24.9974 58.7941 15.2422 49.0389 15.2422 37.0163V34.4589C15.2422 33.2988 15.6904 32.1915 16.5077 31.3742L18.3006 29.5813C19.1179 28.764 19.5661 27.6567 19.5661 26.4966V21.2762C19.5661 20.2744 20.2516 19.4043 21.2271 19.167C26.3684 17.9542 42.3985 15.0804 53.3137 23.0955C54.0256 23.6228 54.4211 24.4665 54.4211 25.3629V26.5229C54.4211 27.683 54.8693 28.7904 55.6866 29.6077L57.4794 31.4005C58.2968 32.2179 58.745 33.3252 58.745 34.4853V37.0427C58.7977 49.0389 49.0425 58.7941 37.0199 58.7941Z" fill="#F0C087"/>
<path d="M2.34651 76.3809C0.870056 77.9628 0 80.072 0 82.3131V95.8121C0 97.0249 0.975518 98.0004 2.18832 98.0004H13.0772V90.6972C13.0772 88.3771 12.1544 86.1624 10.5198 84.5277L2.34651 76.3809Z" fill="#EE4D4A"/>
<path d="M76.5743 87.623V97.9252H33.3686C27.6695 97.9252 23.0664 93.3221 23.0664 87.623H76.5743Z" fill="#545A5C"/>
<path d="M101.27 59.0066V90.595C101.27 94.638 97.9817 97.9259 93.9388 97.9259H47.7617V59.0066C47.7617 54.9637 51.0496 51.6758 55.0926 51.6758H93.9388C97.9817 51.6758 101.27 54.9637 101.27 59.0066Z" fill="#1C427B"/>
<path opacity="0.18" d="M101.249 59.0066V90.595C101.249 94.638 97.9851 97.9259 93.9178 97.9259H84.1758C88.2187 97.9259 91.5066 94.638 91.5066 90.595V59.0066C91.5066 54.9393 88.2187 51.6758 84.1758 51.6758H93.9178C97.9851 51.6758 101.249 54.9393 101.249 59.0066Z" fill="black"/>
<path d="M80.1562 74.8126C80.1562 77.9301 77.6233 80.463 74.5058 80.463C71.3884 80.463 68.8555 77.9301 68.8555 74.8126C68.8555 71.6952 71.3884 69.1623 74.5058 69.1623C77.6233 69.1379 80.1562 71.6708 80.1562 74.8126Z" fill="#F4F4F4"/>
</svg>
