<svg width="127" height="129" viewBox="0 0 127 129" fill="none" xmlns="http://www.w3.org/2000/svg">
<path d="M97.9722 95.0723L63.9332 50.7924C60.2674 48.8141 46.0118 45.1484 35.4218 55.7965L22.5045 68.7139C16.104 75.1144 16.104 85.5297 22.5045 91.9302L31.3488 100.774L71.1483 122.478C73.6503 124.98 77.6651 124.98 80.109 122.478L80.1672 122.42C82.6692 119.918 82.6692 115.903 80.1672 113.459L79.818 113.11L79.9926 113.226C82.4946 115.728 86.5095 115.728 88.9533 113.226L89.0115 113.168C91.4553 110.724 91.5135 106.709 89.0697 104.266C91.5717 106.651 95.5284 106.651 97.9722 104.208L98.0304 104.149C100.474 101.589 100.474 97.5743 97.9722 95.0723Z" fill="#EEB098"/>
<path d="M102.513 67.7828C100.069 65.2808 92.854 58.2985 91.1085 56.3784C80.4604 45.7303 66.1465 49.396 62.539 51.4325L46.2468 58.5313C42.4065 60.3932 40.8355 64.9899 42.6974 68.772C44.5594 72.6123 49.1561 74.1834 52.9382 72.3214L62.248 68.1901C62.3062 68.2483 67.6012 71.0412 74.118 71.0994L98.0326 95.0141C98.6727 95.6541 99.1382 96.3523 99.4291 97.1669L102.513 94.083C109.786 86.8679 109.786 75.0561 102.513 67.7828Z" fill="#FDDCCF"/>
<path d="M29.5466 105.488C26.9864 102.927 26.9864 98.9126 29.4884 96.4687L33.2706 92.6866C35.7726 90.1846 39.7874 90.1846 42.2313 92.6866L42.2894 92.7449C44.7915 95.2469 44.7915 99.2617 42.2894 101.706L38.5073 105.488C36.0053 107.99 31.9905 107.99 29.5466 105.488Z" fill="#FDDCCF"/>
<path d="M39.324 113.81C36.7638 111.25 36.7638 107.235 39.2658 104.791L46.8882 97.1686C49.3902 94.6665 53.4051 94.6665 55.8489 97.1686L55.9071 97.2268C58.4091 99.7288 58.4091 103.744 55.9071 106.187L48.2847 113.81C45.7827 116.312 41.7678 116.312 39.324 113.81Z" fill="#FDDCCF"/>
<path d="M50.4939 120.673C47.9337 118.113 47.9337 114.098 50.4357 111.655L54.2178 107.872C56.7198 105.37 60.7347 105.37 63.1785 107.872L63.2367 107.931C65.7387 110.433 65.7387 114.448 63.2367 116.891L59.4546 120.673C57.0108 123.175 52.9959 123.175 50.4939 120.673Z" fill="#FDDCCF"/>
<path d="M62.5964 126.667C60.0362 124.107 60.0362 120.092 62.5382 117.648L62.771 117.415C65.273 114.913 69.2879 114.913 71.7317 117.415L71.7899 117.474C74.2919 119.976 74.2919 123.99 71.7899 126.434L71.5571 126.667C69.1133 129.111 65.0984 129.111 62.5964 126.667Z" fill="#FDDCCF"/>
<path d="M44.1506 52.0147L18.374 77.7911C15.3484 80.8168 10.4025 80.8168 7.37682 77.7911L3.76927 74.1836C0.743577 71.1579 0.743577 66.2121 3.76927 63.1864L29.5458 37.4098C32.5715 34.3841 37.5174 34.3841 40.543 37.4098L44.1506 41.0174C47.1763 44.043 47.1763 48.989 44.1506 52.0147Z" fill="#EE4D4A"/>
<path d="M109.611 76.9761L84.0085 51.3741C80.9828 48.3484 80.9828 43.4026 84.0085 40.3769L87.6161 36.7693C90.6418 33.7436 95.5876 33.7436 98.6133 36.7693L124.215 62.3713C127.241 65.397 127.241 70.3429 124.215 73.3686L120.608 76.9761C117.582 80.06 112.694 80.06 109.611 76.9761Z" fill="#F0CA50"/>
</svg>
