<svg width="48" height="49" viewBox="0 0 48 49" fill="none" xmlns="http://www.w3.org/2000/svg">
<g clip-path="url(#clip0_1855_14038)">
<path d="M44.5715 12.4676C46.5387 16.196 48 20.3093 48 24.832C48 38.0869 37.2548 48.832 24 48.832C10.7452 48.832 0 38.0869 0 24.832C0 11.5772 10.7452 0.832031 24 0.832031C28.6048 0.832031 33.0935 2.24119 36.7472 4.48959C36.7472 4.48959 42.4125 8.37572 44.5715 12.4676Z" fill="#FD6966"/>
<path d="M48 24.832C48 20.3093 46.5387 16.196 44.5716 12.4676C42.4125 8.37572 36.7472 4.48959 36.7472 4.48959C33.0935 2.24119 28.6048 0.832031 24 0.832031V48.832C37.2548 48.832 48 38.0869 48 24.832Z" fill="#EE4D4A"/>
<path d="M37.9359 17.9149C38.9598 20.0986 39.5537 22.2532 39.5537 24.8316C39.5537 33.4219 32.5899 40.3858 23.9995 40.3858C15.4091 40.3858 8.44531 33.4219 8.44531 24.8316C8.44531 16.2413 15.4093 9.27734 23.9996 9.27734C26.713 9.27734 29.0497 9.85569 31.2703 11.0771C31.2703 11.0772 35.9953 13.7764 37.9359 17.9149Z" fill="white"/>
<path d="M39.5542 24.8316C39.5542 22.2531 38.9603 20.0986 37.9364 17.9149C35.9959 13.7765 31.2709 11.0772 31.2709 11.0772C29.0501 9.85578 26.7134 9.27734 24 9.27734V40.3857C32.5903 40.3858 39.5542 33.4219 39.5542 24.8316Z" fill="#EEEEEE"/>
<path d="M23.9994 32.1541C28.0431 32.1541 31.3211 28.8761 31.3211 24.8324C31.3211 20.7888 28.0431 17.5107 23.9994 17.5107C19.9558 17.5107 16.6777 20.7888 16.6777 24.8324C16.6777 28.8761 19.9558 32.1541 23.9994 32.1541Z" fill="#FD6966"/>
<path d="M31.3217 24.8324C31.3217 20.7888 28.0436 17.5107 24 17.5107V32.1541C28.0436 32.1541 31.3217 28.8761 31.3217 24.8324Z" fill="#EE4D4A"/>
<path d="M23.7041 26.7803C23.3237 26.7803 22.9437 26.6346 22.6545 26.3435C22.0786 25.7638 22.0817 24.8271 22.6613 24.2512L40.9201 6.11243C41.4998 5.53662 42.4366 5.53981 43.0124 6.11928C43.5882 6.69893 43.5851 7.63578 43.0055 8.21159L24.7468 26.3503C24.4581 26.637 24.0811 26.7803 23.7041 26.7803Z" fill="#1C427B"/>
<path d="M42.973 5.38652L41.6251 1.4942C41.4021 0.850423 40.5824 0.661985 40.1007 1.14367L32.4499 8.79442C32.2279 9.01642 32.1341 9.33602 32.2007 9.64277L33.3241 14.8131C33.3974 15.1506 33.653 15.4189 33.9866 15.5083L39.2989 16.9339C39.6174 17.0194 39.9573 16.9284 40.1906 16.6952L47.7302 9.15555C48.1904 8.69542 48.0425 7.91645 47.4458 7.65695L43.4769 5.93074C43.2402 5.8278 43.0574 5.63045 42.973 5.38652Z" fill="#7EBFFB"/>
<path d="M43.0124 6.11977C43.0011 6.10842 42.9889 6.09877 42.9773 6.08789L22.6895 26.3759C22.9741 26.6447 23.3386 26.7808 23.704 26.7808C24.081 26.7808 24.4581 26.6375 24.7467 26.3509L43.0055 8.21217C43.5852 7.63627 43.5883 6.69952 43.0124 6.11977Z" fill="#1F2122"/>
<path d="M47.4418 7.66015L43.4729 5.93393C43.3957 5.90037 43.3249 5.85574 43.2607 5.80371L33.6914 15.3729C33.7787 15.4345 33.8761 15.4829 33.9827 15.5115L39.295 16.9371C39.6135 17.0226 39.9534 16.9316 40.1867 16.6984L47.7263 9.15874C48.1864 8.69862 48.0385 7.91965 47.4418 7.66015Z" fill="#5C9EDC"/>
</g>
<defs>
<clipPath id="clip0_1855_14038">
<rect width="48" height="48" fill="white" transform="translate(0 0.832031)"/>
</clipPath>
</defs>
</svg>
