<svg width="86" height="28" viewBox="0 0 86 28" fill="none" xmlns="http://www.w3.org/2000/svg">
<path d="M36.8029 14.7352C36.8029 18.7636 33.6166 21.7321 29.7064 21.7321C25.7961 21.7321 22.6099 18.7636 22.6099 14.7352C22.6099 10.6784 25.7961 7.73828 29.7064 7.73828C33.6166 7.73828 36.8029 10.6784 36.8029 14.7352ZM33.6964 14.7352C33.6964 12.2178 31.8497 10.4954 29.7064 10.4954C27.5631 10.4954 25.7164 12.2178 25.7164 14.7352C25.7164 17.2273 27.5631 18.9749 29.7064 18.9749C31.8497 18.9749 33.6964 17.2241 33.6964 14.7352Z" fill="#EA4335"/>
<path d="M52.1124 14.7352C52.1124 18.7636 48.9262 21.7321 45.0159 21.7321C41.1057 21.7321 37.9194 18.7636 37.9194 14.7352C37.9194 10.6815 41.1057 7.73828 45.0159 7.73828C48.9262 7.73828 52.1124 10.6784 52.1124 14.7352ZM49.0059 14.7352C49.0059 12.2178 47.1592 10.4954 45.0159 10.4954C42.8726 10.4954 41.026 12.2178 41.026 14.7352C41.026 17.2273 42.8726 18.9749 45.0159 18.9749C47.1592 18.9749 49.0059 17.2241 49.0059 14.7352Z" fill="#FBBC05"/>
<path d="M66.7837 8.161V20.7226C66.7837 25.8898 63.7027 28.0002 60.0603 28.0002C56.6317 28.0002 54.5681 25.7321 53.7899 23.8772L56.4945 22.7636C56.9761 23.9024 58.1562 25.2463 60.0571 25.2463C62.3886 25.2463 63.8334 23.8236 63.8334 21.1453V20.139H63.725C63.0297 20.9876 61.6901 21.7289 59.9997 21.7289C56.4626 21.7289 53.2222 18.6816 53.2222 14.7604C53.2222 10.8109 56.4626 7.73828 59.9997 7.73828C61.6869 7.73828 63.0265 8.47961 63.725 9.30296H63.8334V8.16415H66.7837V8.161ZM64.0535 14.7604C64.0535 12.2967 62.3918 10.4954 60.2772 10.4954C58.1339 10.4954 56.3383 12.2967 56.3383 14.7604C56.3383 17.1989 58.1339 18.9749 60.2772 18.9749C62.3918 18.9749 64.0535 17.1989 64.0535 14.7604Z" fill="#4285F4"/>
<path d="M71.6476 0.797852V21.3027H68.6177V0.797852H71.6476Z" fill="#34A853"/>
<path d="M83.455 17.0373L85.8662 18.6272C85.088 19.766 83.2126 21.7282 79.9721 21.7282C75.9534 21.7282 72.9521 18.6556 72.9521 14.7313C72.9521 10.5704 75.9789 7.73438 79.6245 7.73438C83.2955 7.73438 85.0912 10.624 85.678 12.1855L86.0002 12.9805L76.5435 16.8543C77.2675 18.2581 78.3933 18.9742 79.9721 18.9742C81.5541 18.9742 82.6512 18.2045 83.455 17.0373ZM76.0331 14.5199L82.3546 11.9237C82.007 11.0499 80.9608 10.441 79.7297 10.441C78.1509 10.441 75.9534 11.8196 76.0331 14.5199V14.5199Z" fill="#EA4335"/>
<path d="M11.1407 12.9149V9.94643H21.2544C21.3533 10.4638 21.4043 11.0758 21.4043 11.7382C21.4043 13.9654 20.7888 16.7193 18.8049 18.6815C16.8753 20.6689 14.4099 21.7288 11.1439 21.7288C5.09035 21.7288 0 16.8518 0 10.8644C0 4.877 5.09035 0 11.1439 0C14.4928 0 16.8785 1.29969 18.671 2.99371L16.5532 5.08836C15.2679 3.89592 13.5264 2.96847 11.1407 2.96847C6.72015 2.96847 3.2628 6.49215 3.2628 10.8644C3.2628 15.2367 6.72015 18.7604 11.1407 18.7604C14.008 18.7604 15.641 17.6216 16.6872 16.5869C17.5355 15.7477 18.0937 14.549 18.3138 12.9118L11.1407 12.9149Z" fill="#4285F4"/>
</svg>
