<svg width="132" height="140" viewBox="0 0 132 140" fill="none" xmlns="http://www.w3.org/2000/svg">
<circle cx="66.6669" cy="76.9696" r="50.9091" fill="#F0CA50"/>
<path d="M32.442 105.455H41.9751C47.1971 105.455 51.3868 109.147 51.3868 113.63L55.1515 127.659L51.4475 140.001H25.7627C24.2447 140.001 23.0303 138.946 23.0303 137.627V113.63C23.0303 109.094 27.2807 105.455 32.442 105.455Z" fill="#5C9EDC"/>
<path d="M79.1517 101.212L82.9093 122.848L79.1517 140H53.5154C52.0002 140 50.7881 138.788 50.7881 137.273V101.212C50.7881 95.9998 55.0305 91.818 60.182 91.818H69.6972C74.9093 91.7574 79.1517 95.9998 79.1517 101.212Z" fill="#1C427B"/>
<path d="M44.0369 0.365843C22.73 5.70094 5.75845 22.4458 0.365635 43.9975C-1.3791 50.8644 3.3264 57.5729 10.0939 58.6294C11.8915 58.8935 12.1029 58.735 32.0352 58.7878H46.8919C53.4479 58.7878 58.7878 53.4527 58.7878 46.9027C58.7878 40.4055 58.7878 18.4312 58.7878 11.934C58.7878 4.22191 51.5445 -1.53578 44.0369 0.365843Z" fill="#EE4D4A"/>
<path d="M84.727 77.5762H94.2421C99.4543 77.5762 103.636 81.8186 103.636 86.9701L107.394 118.849L103.636 139.94H75.2725V86.9701C75.3331 81.8186 79.5149 77.5762 84.727 77.5762Z" fill="#163459"/>
<path d="M131.879 140H103.516C103.516 131.515 103.516 70.1214 103.516 67.1517C103.516 61.9396 107.758 57.7578 112.91 57.7578H122.425C127.637 57.7578 131.819 62.0002 131.819 67.1517V140H131.879Z" fill="#EE4D4A"/>
<path d="M36.0719 91.5152C35.5144 91.5152 34.9569 91.2951 34.5666 90.91C33.7304 90.0848 33.7304 88.7644 34.5666 87.9392L50.5671 72.1497C50.9574 71.7645 51.5149 71.5445 52.0724 71.5445C52.6299 71.5445 53.1874 71.7645 53.5777 72.1497L60.6023 79.0816L81.7876 58.1757H76.2125C75.0417 58.1757 74.094 57.2404 74.094 56.0301C74.094 54.8747 75.0417 53.9395 76.2125 53.9395C78.554 53.9395 80.4496 53.9395 81.8991 53.9395H84.3521C87.3069 53.9395 87.4184 53.9945 87.7529 54.1045C88.4777 54.3796 88.9794 55.0398 89.0909 55.755V55.865C89.0909 56.0301 89.0909 57.0753 89.0909 60.2663V66.6481C89.0909 67.8034 88.1432 68.7387 86.9724 68.7387C85.8016 68.7387 84.8539 67.8034 84.8539 66.6481V61.1465L62.1075 83.5929C61.7173 83.978 61.1598 84.1981 60.6023 84.1981C60.0448 84.1981 59.4873 83.978 59.097 83.5929L52.0724 76.6609L37.5772 90.965C37.1869 91.2951 36.6852 91.5152 36.0719 91.5152Z" fill="white"/>
</svg>
