<svg width="109" height="221" viewBox="0 0 109 221" fill="none" xmlns="http://www.w3.org/2000/svg">
<g opacity="0.2">
<path d="M0.999995 110.5C0.999993 170.975 50.0248 220 110.5 220C170.975 220 220 170.975 220 110.5C220 50.0248 170.975 0.999998 110.5 0.999995C50.0248 0.999993 0.999998 50.0248 0.999995 110.5Z" stroke="#545A5C" stroke-miterlimit="10"/>
<path d="M23.8508 110.5C23.8509 93.2226 28.96 76.3341 38.5307 61.9733C48.1015 47.6126 61.7035 36.4256 77.6139 29.8294C93.5242 23.2332 111.027 21.5245 127.906 24.9197C144.785 28.315 160.28 36.6614 172.429 48.9018C184.577 61.1422 192.833 76.726 196.151 93.6793C199.468 110.633 197.698 128.193 191.065 144.136C184.431 160.078 173.232 173.687 158.887 183.237C144.541 192.787 127.694 197.849 110.48 197.782C87.4738 197.693 65.4401 188.458 49.2035 172.099C32.9669 155.74 23.8506 133.59 23.8508 110.5V110.5Z" stroke="#545A5C" stroke-miterlimit="10"/>
<path d="M46.7045 110.5C46.7047 97.7424 50.4735 85.2722 57.5332 74.6694C64.5929 64.0667 74.6258 55.8088 86.3604 50.9423C98.095 46.0758 111.003 44.8197 123.449 47.3333C135.894 49.8468 147.318 56.0168 156.27 65.0613C165.223 74.1059 171.303 85.6178 173.738 98.1382C176.174 110.659 174.857 123.624 169.953 135.391C165.048 147.158 156.779 157.197 146.191 164.236C135.604 171.275 123.176 174.997 110.481 174.93C102.078 174.93 93.757 173.261 85.9972 170.019C78.2375 166.777 71.1919 162.026 65.2653 156.039C59.3386 150.051 54.6478 142.946 51.4625 135.131C48.2772 127.316 46.6603 118.945 46.7045 110.5V110.5Z" stroke="#545A5C" stroke-miterlimit="10"/>
<path d="M69.5578 110.499C69.558 102.261 71.9865 94.209 76.5353 87.3644C81.084 80.5198 87.5479 75.1909 95.1068 72.0542C102.666 68.9174 110.979 68.114 118.992 69.7459C127.004 71.3778 134.355 75.3714 140.112 81.2201C145.869 87.0688 149.772 94.5089 151.326 102.596C152.88 110.684 152.015 119.054 148.84 126.646C145.666 134.237 140.325 140.707 133.496 145.235C126.667 149.763 118.657 152.144 110.482 152.077C105.08 152.077 99.7306 150.999 94.7433 148.906C89.7561 146.812 85.2297 143.744 81.4251 139.879C77.6205 136.013 74.613 131.427 72.5762 126.385C70.5393 121.342 69.5135 115.943 69.5578 110.499Z" stroke="#545A5C" stroke-miterlimit="10"/>
</g>
<path d="M80.5787 183.77C80.5787 183.77 76.0335 190.917 70.4282 190.013C70.4282 190.013 76.0057 193.586 75.9854 200.312C75.9854 200.312 78.7036 195.401 85.8935 194.145C85.8935 194.145 80.9961 192.953 80.5787 183.77Z" fill="#8EC6D8"/>
<path d="M31.8577 82.8877C31.8577 82.8877 20.6104 92.5073 11.7891 88.0331C11.7891 88.0331 19.177 96.9816 15.6484 108.279C15.6484 108.279 22.7055 101.456 35.276 103.134C35.276 103.134 27.7778 98.5475 31.8577 82.8877Z" fill="#EE4D4A"/>
<path d="M59.1106 208.374L59.8398 201.686L53.1513 200.956L52.422 207.645L59.1106 208.374Z" fill="#F0CA50"/>
</svg>
