<svg width="148" height="139" viewBox="0 0 148 139" fill="none" xmlns="http://www.w3.org/2000/svg">
<path d="M107.62 104.25C126.789 85.0581 126.789 53.9419 107.62 34.75C88.4522 15.5581 57.3744 15.5581 38.2062 34.75C19.0379 53.9419 19.0379 85.0581 38.2062 104.25C57.3744 123.442 88.4522 123.442 107.62 104.25Z" fill="#1F2122"/>
<path d="M72.9155 111.441C96.0508 111.441 114.806 92.6634 114.806 69.4995C114.806 46.3356 96.0508 27.5576 72.9155 27.5576C49.7802 27.5576 31.0254 46.3356 31.0254 69.4995C31.0254 92.6634 49.7802 111.441 72.9155 111.441Z" fill="#EE4D4A"/>
<path d="M72.9159 112.331C61.487 112.331 50.7465 107.875 42.6648 99.7831C34.5831 91.6967 30.1377 80.943 30.1377 69.5C30.1377 58.057 34.5884 47.3032 42.6648 39.2115C50.7465 31.1251 61.487 26.6689 72.9159 26.6689C84.3448 26.6689 95.0853 31.1251 103.167 39.2115C111.249 47.3032 115.694 58.057 115.694 69.5C115.694 80.943 111.243 91.6967 103.167 99.7884C95.0853 107.88 84.3395 112.331 72.9159 112.331ZM72.9159 28.4472C50.3051 28.4472 31.9085 46.8665 31.9085 69.5052C31.9085 92.1439 50.3051 110.563 72.9159 110.563C95.5267 110.563 113.923 92.1439 113.923 69.5052C113.923 46.8665 95.5267 28.4472 72.9159 28.4472Z" fill="white"/>
<path d="M72.9146 95.07C87.0187 95.07 98.4523 83.6223 98.4523 69.5008C98.4523 55.3794 87.0187 43.9316 72.9146 43.9316C58.8105 43.9316 47.377 55.3794 47.377 69.5008C47.377 83.6223 58.8105 95.07 72.9146 95.07Z" fill="#EE4D4A"/>
<path d="M72.9149 95.9596C58.3438 95.9596 46.4893 84.0905 46.4893 69.5013C46.4893 54.9121 58.3438 43.043 72.9149 43.043C87.4861 43.043 99.3406 54.9121 99.3406 69.5013C99.3406 84.0905 87.4861 95.9596 72.9149 95.9596ZM72.9149 44.8212C59.3211 44.8212 48.2653 55.896 48.2653 69.5065C48.2653 83.1171 59.3264 94.1919 72.9149 94.1919C86.5035 94.1919 97.5698 83.1171 97.5698 69.5065C97.5646 55.8907 86.5088 44.8212 72.9149 44.8212Z" fill="white"/>
<path d="M72.916 79.4072C78.3806 79.4072 82.8105 74.9718 82.8105 69.5005C82.8105 64.0292 78.3806 59.5938 72.916 59.5938C67.4514 59.5938 63.0215 64.0292 63.0215 69.5005C63.0215 74.9718 67.4514 79.4072 72.916 79.4072Z" fill="#EE4D4A"/>
<path d="M72.9173 80.2968C66.9743 80.2968 62.1348 75.4566 62.1348 69.501C62.1348 63.5506 66.9691 58.7051 72.9173 58.7051C78.8603 58.7051 83.6999 63.5453 83.6999 69.501C83.6999 75.4566 78.8603 80.2968 72.9173 80.2968ZM72.9173 60.4833C67.9517 60.4833 63.9108 64.5292 63.9108 69.501C63.9108 74.4727 67.9517 78.5186 72.9173 78.5186C77.883 78.5186 81.9238 74.4727 81.9238 69.501C81.9238 64.5292 77.883 60.4833 72.9173 60.4833Z" fill="white"/>
<path d="M93.916 121.769L121.356 70.0838H115.733C114.698 70.0838 114.125 68.9001 114.782 68.1109L144.03 33.0664C145.296 31.5459 147.803 32.5087 147.682 34.4711L145.627 68.7422C145.512 70.7046 143.741 72.1672 141.754 71.941L137.834 71.4991L110.61 129.472C109.901 130.982 108.366 131.944 106.674 131.944H97.237L93.916 121.769Z" fill="#F7E39E"/>
<path d="M71.2266 85.5202L90.6005 127.83C91.746 130.335 94.284 131.95 97.0795 131.95H107.069C108.393 131.95 109.612 131.245 110.258 130.103L110.616 129.472C109.544 129.472 108.561 128.883 108.072 127.941L82.2614 78.2178L71.2266 85.5202Z" fill="#F0CA50"/>
<path d="M84.8631 83.2422C82.9189 81.7322 80.0813 82.1794 78.7099 84.2049L50.2296 126.278C47.9491 129.645 44.1027 131.671 39.9883 131.671H35.979L32.7158 122.432C32.7158 122.432 59.1941 82.5161 66.0199 76.4763C66.0199 76.4763 72.8141 70.4523 79.5191 75.0085C81.2899 76.2133 82.6351 77.9284 83.4548 79.8855L84.8631 83.2422Z" fill="#F7E39E"/>
<path d="M0 95.0898C0 95.0898 6.50527 91.7279 15.743 90.8125C15.743 90.8125 20.1306 92.2804 28.8744 107.685C37.6181 123.084 43.4193 130.108 50.2293 126.273L49.6671 127.193C47.8069 130.224 44.4702 132.081 40.8708 132.081H37.1032C32.9572 132.081 29.0635 130.119 26.6411 126.809C19.8363 117.513 4.17745 96.5366 0 95.0898Z" fill="#F0CA50"/>
</svg>
