<svg width="48" height="49" viewBox="0 0 48 49" fill="none" xmlns="http://www.w3.org/2000/svg">
<g clip-path="url(#clip0_1855_14101)">
<path d="M44.5 0.832031H3.5C1.57 0.832031 0 2.40203 0 4.33203V9.33203C0 11.262 1.57 12.832 3.5 12.832H44.5C46.43 12.832 48 11.262 48 9.33203V4.33203C48 2.40203 46.43 0.832031 44.5 0.832031Z" fill="#1C427B"/>
<path d="M28.5 16.832H3.5C1.58 16.832 0 18.412 0 20.332V45.332C0 47.252 1.58 48.832 3.5 48.832H28.5C30.42 48.832 32 47.252 32 45.332V20.332C32 18.412 30.42 16.832 28.5 16.832Z" fill="#E4E4E4"/>
<path d="M16 30.832C17.6569 30.832 19 29.4889 19 27.832C19 26.1752 17.6569 24.832 16 24.832C14.3431 24.832 13 26.1752 13 27.832C13 29.4889 14.3431 30.832 16 30.832Z" fill="#EE4D4A"/>
<path d="M22 37.332C22 38.152 21.32 38.832 20.5 38.832H11.5C10.68 38.832 10 38.152 10 37.332V36.592C10 34.512 11.88 32.832 14.2 32.832H17.8C20.12 32.832 22 34.512 22 36.592V37.332Z" fill="#EE4D4A"/>
<path d="M42 28.832C45.3137 28.832 48 26.1457 48 22.832C48 19.5183 45.3137 16.832 42 16.832C38.6863 16.832 36 19.5183 36 22.832C36 26.1457 38.6863 28.832 42 28.832Z" fill="#8EC6D8"/>
<path d="M46.5 38.832H37.5C36.672 38.832 36 39.504 36 40.332C36 41.16 36.672 41.832 37.5 41.832H46.5C47.328 41.832 48 41.16 48 40.332C48 39.504 47.328 38.832 46.5 38.832Z" fill="#F0CA50"/>
<path d="M46.5 44.832H37.5C36.672 44.832 36 45.504 36 46.332C36 47.16 36.672 47.832 37.5 47.832H46.5C47.328 47.832 48 47.16 48 46.332C48 45.504 47.328 44.832 46.5 44.832Z" fill="#F0CA50"/>
<path d="M46.5 32.832H37.5C36.672 32.832 36 33.504 36 34.332C36 35.16 36.672 35.832 37.5 35.832H46.5C47.328 35.832 48 35.16 48 34.332C48 33.504 47.328 32.832 46.5 32.832Z" fill="#F0CA50"/>
</g>
<defs>
<clipPath id="clip0_1855_14101">
<rect width="48" height="48" fill="white" transform="translate(0 0.832031)"/>
</clipPath>
</defs>
</svg>
