<svg width="95" height="110" viewBox="0 0 95 110" fill="none" xmlns="http://www.w3.org/2000/svg">
<path d="M94.1814 82.5501V80.1501C94.1814 77.6501 92.1754 75.6001 89.6679 75.6001H66.4485C63.9411 75.6001 61.9351 77.6501 61.9351 80.1501V82.5501C61.9351 85.0501 63.9411 87.0501 66.4485 87.0501C63.9411 87.0501 61.9351 89.0501 61.9351 91.5501V94.0001C61.9351 96.5001 63.9411 98.5001 66.4485 98.5001L71.4134 98.9001C69.8086 99.6001 68.7053 101.2 68.7053 103.05V105.5C68.7053 108 70.7113 110 73.2188 110H89.6177C92.1252 110 94.1312 108 94.1312 105.5V103.05C94.1312 100.55 92.1252 98.5501 89.6177 98.5501C92.1252 98.5501 94.1312 96.5501 94.1312 94.0501V91.6001C94.1312 89.1001 92.1252 87.1001 89.6177 87.1001C92.1252 87.1001 94.1814 85.0501 94.1814 82.5501ZM81.8445 99.2501C81.7944 99.0501 81.7944 98.8001 81.7442 98.6001C81.7944 98.8001 81.8445 99.0001 81.8445 99.2501ZM81.5938 87.7001C81.5938 87.5501 81.6439 87.3501 81.6439 87.2001C81.6439 87.3501 81.5938 87.5001 81.5938 87.7001Z" fill="#F0CA50"/>
<path d="M73.2187 0H44.3324H6.21858C4.51348 0 2.90869 0.699989 1.80539 1.79999C0.702097 2.89999 0 4.49999 0 6.19999C0 9.65 2.80839 12.4 6.21858 12.4H44.2823H73.1686C74.8737 12.4 76.4784 11.7 77.5817 10.6C78.685 9.50002 79.3871 7.89999 79.3871 6.19999C79.4373 2.74999 76.679 0 73.2187 0Z" fill="#EE4D4A"/>
<path d="M54.663 57.3501C63.389 61.4001 69.4572 70.2501 69.4572 80.5001V97.6001L47.0903 98.7501L39.618 99.1501L9.97949 97.6001V80.5001C9.97949 70.2501 16.0476 61.4501 24.7737 57.3501C26.7797 56.4001 26.7797 53.6001 24.7737 52.6501C16.0476 48.6001 9.97949 39.7501 9.97949 29.5001V12.4001L41.0724 10.8L47.1906 11.1501L69.5073 12.4001V29.5001C69.5073 39.7501 63.4392 48.6001 54.7131 52.6501C52.657 53.6001 52.657 56.4001 54.663 57.3501Z" fill="#5C9EDC"/>
<path d="M53.5097 42.3C51.3032 44.5999 48.4948 46.2499 45.3353 46.9499V57.6499C45.3353 60.8999 42.8278 63.5499 39.7186 63.5499H39.6684C36.6093 63.5499 34.1018 60.8999 34.1018 57.6499V46.9499C30.9423 46.2499 28.134 44.5999 25.9274 42.3C24.2724 40.6 25.5262 37.8 27.8832 37.8H51.5539C53.9109 37.75 55.1647 40.6 53.5097 42.3Z" fill="#F0CA50"/>
<path d="M53.3591 83.9999C53.3591 89.2499 50.4003 93.7999 46.0373 96.0499C44.1316 97.0499 41.9751 97.5999 39.7184 97.5999C32.1959 97.5999 26.0776 91.4999 26.0776 83.9999C26.0776 76.4999 32.1959 70.3999 39.7184 70.3999C39.919 70.3999 40.1196 70.3999 40.27 70.3999C47.5919 70.6999 53.3591 76.6499 53.3591 83.9999Z" fill="#F0CA50"/>
<path d="M73.2187 97.6H42.3264H6.21858C4.51348 97.6 2.90869 98.3 1.80539 99.4C0.702097 100.55 0 102.1 0 103.8C0 107.25 2.80839 110 6.21858 110H42.3264H73.2187C74.9238 110 76.5286 109.3 77.6319 108.2C78.7352 107.05 79.4373 105.5 79.4373 103.8C79.4373 100.35 76.6791 97.6 73.2187 97.6Z" fill="#EE4D4A"/>
</svg>
