<svg width="81" height="110" viewBox="0 0 81 110" fill="none" xmlns="http://www.w3.org/2000/svg">
<path opacity="0.3" d="M80.2677 7.78762V102.212C80.2677 106.516 76.7733 110 72.4568 110H7.81094C3.49437 110 0 106.516 0 102.212V7.78762C0 3.48394 3.49437 0 7.81094 0H72.4568C76.7733 0 80.2677 3.48394 80.2677 7.78762Z" fill="#F0CA50"/>
<path d="M41.9836 57.6384C41.9836 66.9118 34.481 74.392 25.1798 74.392C21.6854 74.392 18.191 73.3161 15.2619 71.1642C11.0995 68.1414 8.37598 63.2229 8.37598 57.6384H25.1798V40.8848C34.481 40.8848 41.9836 48.365 41.9836 57.6384Z" fill="#EE4D4A"/>
<path d="M25.1798 40.8848V57.6383H8.37598C8.37598 48.2625 15.9814 40.8848 25.1798 40.8848Z" fill="#F0CA50"/>
<path d="M66.8552 82.2823V102.776C66.8552 104.006 65.8275 105.03 64.5941 105.03H60.7401C59.5068 105.03 58.479 104.006 58.479 102.776V82.2823C58.479 81.0527 59.5068 80.028 60.7401 80.028H64.5941C65.8788 80.028 66.8552 81.0527 66.8552 82.2823Z" fill="#EE4D4A"/>
<path d="M51.8503 73.9311V102.776C51.8503 104.006 50.8226 105.03 49.5893 105.03H45.7352C44.5019 105.03 43.4741 104.006 43.4741 102.776V73.9311C43.4741 72.7015 44.5019 71.6768 45.7352 71.6768H49.5893C50.8226 71.728 51.8503 72.7015 51.8503 73.9311Z" fill="#5C9EDC"/>
<path d="M36.7937 80.5917V102.776C36.7937 104.006 35.7659 105.03 34.5326 105.03H30.6785C29.4452 105.03 28.4175 104.006 28.4175 102.776V80.5917C28.4175 79.3621 29.4452 78.3374 30.6785 78.3374H34.5326C35.7659 78.3886 36.7937 79.3621 36.7937 80.5917Z" fill="#5C9EDC"/>
<path d="M21.737 88.9427V102.776C21.737 104.006 20.7093 105.03 19.476 105.03H15.6219C14.3886 105.03 13.3608 104.006 13.3608 102.776V88.9427C13.3608 87.7131 14.3886 86.6884 15.6219 86.6884H19.476C20.7607 86.6884 21.737 87.7131 21.737 88.9427Z" fill="#EE4D4A"/>
</svg>
