<svg width="130" height="110" viewBox="0 0 130 110" fill="none" xmlns="http://www.w3.org/2000/svg">
<path d="M124.088 0H5.47534C2.4401 0 0 2.43281 0 5.45899V82.3001C0 85.3263 2.4401 87.7591 5.47534 87.7591H124.088C127.123 87.7591 129.563 85.3263 129.563 82.3001V5.45899C129.563 2.43281 127.123 0 124.088 0ZM118.077 67.7626C113.256 67.7626 109.388 71.6195 109.388 76.4258H16.9617C16.9617 73.3996 14.5216 70.9668 11.4863 70.9668V16.7923C14.5216 16.7923 16.9617 14.3595 16.9617 11.3333H112.602C112.602 14.3595 115.042 16.7923 118.077 16.7923V67.7626Z" fill="#F0CA50"/>
<path d="M118.077 16.7925V67.7628C113.256 67.7628 109.388 71.6197 109.388 76.426H16.9617C16.9617 73.3998 14.5216 70.967 11.4863 70.967V16.7925C14.5216 16.7925 16.9617 14.3597 16.9617 11.3335H112.602C112.602 14.3597 115.042 16.7925 118.077 16.7925Z" fill="white"/>
<path d="M99.5084 104.136L105.757 109.714C106.531 110.367 107.721 109.832 107.721 108.824V84.1396H89.748V108.824C89.748 109.832 90.9383 110.367 91.712 109.714L97.9611 104.136C98.3777 103.78 99.0918 103.78 99.5084 104.136Z" fill="#5C9EDC"/>
<path d="M120.1 67.1099L111.53 75.4171L113.554 87.1657C113.97 89.5392 111.471 91.3787 109.328 90.2513L98.8536 84.7329L98.7346 84.6736L88.141 90.1919C85.9985 91.3193 83.4989 89.4799 83.9155 87.1064L85.939 75.3577L77.3689 67.0506C75.643 65.3891 76.5952 62.4223 78.9758 62.0663L90.8192 60.3455L96.116 49.6649C97.0087 47.7661 99.5083 47.5288 100.818 48.8935C101.056 49.1309 101.234 49.3682 101.353 49.6649L106.65 60.3455L118.493 62.0663C120.874 62.4816 121.826 65.3891 120.1 67.1099Z" fill="#EE4D4A"/>
<path d="M61.3596 60.5829H29.6383C28.567 60.5829 27.6743 61.4729 27.6743 62.541C27.6743 63.6091 28.567 64.4991 29.6383 64.4991H61.3596C62.4308 64.4991 63.3235 63.6091 63.3235 62.541C63.3235 61.4729 62.4308 60.5829 61.3596 60.5829Z" fill="#163459"/>
<path d="M29.6383 50.7923H82.0111C83.0824 50.7923 83.9751 49.9023 83.9751 48.8342C83.9751 47.7662 83.0824 46.8761 82.0111 46.8761H29.6383C28.567 46.8761 27.6743 47.7662 27.6743 48.8342C27.6743 49.9023 28.567 50.7923 29.6383 50.7923Z" fill="#163459"/>
</svg>
