<svg width="122" height="110" viewBox="0 0 122 110" fill="none" xmlns="http://www.w3.org/2000/svg">
<path d="M61.6014 20.9867H36.8505H20.1104C19.9447 20.9867 19.8342 20.9867 19.6685 20.9316V31.9482C19.6685 33.5456 20.9944 34.8675 22.5966 34.8675H40.8836H59.1153C60.7175 34.8675 62.0434 33.5456 62.0434 31.9482V20.9316C61.8777 20.9867 61.7119 20.9867 61.6014 20.9867Z" fill="#5C9EDC"/>
<path d="M61.6012 2.86432H41.2701H20.1103C18.5081 2.86432 17.1821 4.18631 17.1821 5.78371V19.0586C17.1821 20.656 18.5081 21.978 20.1103 21.978H36.9608H61.6012C63.2034 21.978 64.5294 20.656 64.5294 19.0586V5.78371C64.5294 4.13123 63.2034 2.86432 61.6012 2.86432Z" fill="#5C9EDC"/>
<path opacity="0.6" d="M115.192 90.3357C118.64 90.3357 121.435 87.5489 121.435 84.1113C121.435 80.6737 118.64 77.887 115.192 77.887C111.744 77.887 108.949 80.6737 108.949 84.1113C108.949 87.5489 111.744 90.3357 115.192 90.3357Z" fill="#EEB098"/>
<path d="M113.865 84.111C113.865 96.78 104.694 107.356 92.5951 109.559C91.0481 109.835 89.5012 110 87.899 110C73.5899 110 61.9326 98.4325 61.9326 84.111C61.9326 69.8446 73.5346 58.2222 87.899 58.2222C89.5012 58.2222 91.1034 58.3874 92.5951 58.6628C104.75 60.8661 113.865 71.442 113.865 84.111Z" fill="#EEB098"/>
<path d="M119.832 78.4378C119.832 78.9336 119.832 79.3742 119.777 79.87C118.451 79.87 115.744 79.7598 114.528 79.4844C113.865 79.3191 113.313 78.8785 113.092 78.2175C110.606 70.8364 105.633 67.4213 100.495 65.9341C90.2193 74.0863 80.9377 72.9846 74.0317 72.7643C68.728 72.5991 64.7501 72.9296 62.8165 78.2726C62.5955 78.8785 62.0982 79.3742 61.4353 79.4844C60.1646 79.7598 58.8939 79.87 57.5679 79.87C57.5127 79.3742 57.5127 78.9336 57.5127 78.4378C57.5127 61.6927 71.1589 48.0873 87.9542 48.0873C90.7165 48.0873 93.3684 48.4729 95.9651 49.1338C108.838 52.6591 119.832 64.4468 119.832 78.4378Z" fill="#163459"/>
<path opacity="0.6" d="M60.7723 90.3357C64.2202 90.3357 67.0153 87.5489 67.0153 84.1113C67.0153 80.6737 64.2202 77.887 60.7723 77.887C57.3244 77.887 54.5293 80.6737 54.5293 84.1113C54.5293 87.5489 57.3244 90.3357 60.7723 90.3357Z" fill="#EEB098"/>
<path opacity="0.6" d="M6.24299 90.3357C9.69089 90.3357 12.486 87.5489 12.486 84.1113C12.486 80.6737 9.69089 77.887 6.24299 77.887C2.79508 77.887 0 80.6737 0 84.1113C0 87.5489 2.79508 90.3357 6.24299 90.3357Z" fill="#EEB098"/>
<path d="M59.4464 84.1113C59.4464 96.6702 50.4963 107.136 38.618 109.449C36.9606 109.78 35.2479 109.945 33.5352 109.945C19.2261 109.945 7.56885 98.3777 7.56885 84.0563C7.56885 69.7899 19.1709 58.1674 33.5352 58.1674C35.3032 58.1674 36.9606 58.3327 38.618 58.6632C50.4963 61.1419 59.4464 71.6076 59.4464 84.1113Z" fill="#EEB098"/>
<path d="M65.4129 78.4378C65.4129 78.9336 65.4129 79.3742 65.3577 79.87C64.0318 79.87 61.3246 79.7598 60.1092 79.4844C59.4462 79.3192 58.8937 78.8785 58.6727 78.2726C55.0264 68.0823 44.2531 61.5826 33.5351 65.6036C31.3804 64.7223 29.2257 64.3367 27.1263 64.2816C18.5077 64.1714 10.994 70.6161 8.39737 78.2726C8.17638 78.9336 7.67915 79.3742 7.01618 79.5395C5.74548 79.8149 3.03835 79.87 1.7124 79.87C1.7124 79.3742 1.7124 78.9336 1.7124 78.4378C1.7124 72.1584 5.08251 66.3197 8.34212 61.4724C6.07697 60.2055 4.69578 58.3877 5.02726 56.6251C5.414 54.532 8.01063 53.21 11.2702 53.1549C10.2205 51.3372 10.0548 49.4644 10.994 48.2525C12.5409 46.1043 16.7398 46.545 20.3309 49.1889C20.8833 49.5745 21.3806 50.0152 21.8225 50.4559C25.4136 48.9686 29.3915 48.1424 33.5351 48.1424C37.1261 48.1424 40.5515 48.7483 43.8111 49.905C55.5236 54.0913 65.4129 65.2731 65.4129 78.4378Z" fill="#F0CA50"/>
<path d="M48.7838 18.673V23.4652C48.7838 25.0626 47.4579 26.3846 45.8557 26.3846H35.8559C34.2537 26.3846 32.9277 25.0626 32.9277 23.4652V18.673C32.9277 17.0756 34.2537 15.7537 35.8559 15.7537H45.8557C47.4579 15.7537 48.7838 17.0756 48.7838 18.673Z" fill="#F0CA50"/>
<path d="M101.545 10.5208H95.6885V4.68202C95.6885 2.09314 93.5891 0 90.9925 0C88.3958 0 86.2964 2.09314 86.2964 4.68202V10.5208H80.4402C77.8436 10.5208 75.7441 12.6139 75.7441 15.2028C75.7441 17.7917 77.8436 19.8848 80.4402 19.8848H86.2964V25.7236C86.2964 28.3125 88.3958 30.4056 90.9925 30.4056C93.5891 30.4056 95.6885 28.3125 95.6885 25.7236V19.8848H101.545C104.141 19.8848 106.241 17.7917 106.241 15.2028C106.241 12.6139 104.141 10.5208 101.545 10.5208Z" fill="#5C9EDC"/>
</svg>
