<svg width="127" height="123" viewBox="0 0 127 123" fill="none" xmlns="http://www.w3.org/2000/svg">
<circle cx="61.6669" cy="59.9696" r="50.9091" fill="#F0CA50"/>
<path d="M27.442 88.4551H36.9751C42.1971 88.4551 46.3868 92.147 46.3868 96.63L50.1515 110.659L46.4475 123.001H20.7627C19.2447 123.001 18.0303 121.946 18.0303 120.627V96.63C18.0303 92.0942 22.2807 88.4551 27.442 88.4551Z" fill="#5C9EDC"/>
<path d="M74.1517 84.212L77.9093 105.848L74.1517 123H48.5154C47.0002 123 45.7881 121.788 45.7881 120.273V84.212C45.7881 78.9998 50.0305 74.818 55.182 74.818H64.6972C69.9093 74.7574 74.1517 78.9998 74.1517 84.212Z" fill="#1C427B"/>
<path d="M79.727 60.5762H89.2421C94.4543 60.5762 98.6361 64.8186 98.6361 69.9701L102.394 101.849L98.6361 122.94H70.2725V69.9701C70.3331 64.8186 74.5149 60.5762 79.727 60.5762Z" fill="#163459"/>
<path d="M126.879 123H98.5156C98.5156 114.515 98.5156 53.1214 98.5156 50.1517C98.5156 44.9396 102.758 40.7578 107.91 40.7578H117.425C122.637 40.7578 126.819 45.0002 126.819 50.1517V123H126.879Z" fill="#EE4D4A"/>
<path d="M81.9584 36.9399C82.5159 36.9399 83.0734 37.16 83.4636 37.5451C84.2999 38.3703 84.2999 39.6907 83.4636 40.5159L67.4631 56.3054C67.0729 56.6905 66.5154 56.9106 65.9579 56.9106C65.4004 56.9106 64.8429 56.6905 64.4526 56.3054L57.428 49.3734L36.2427 70.2794L41.8178 70.2794C42.9885 70.2794 43.9363 71.2147 43.9363 72.425C43.9363 73.5804 42.9885 74.5156 41.8178 74.5156C39.4762 74.5156 37.5807 74.5156 36.1312 74.5156L33.6782 74.5156C30.7234 74.5156 30.6119 74.4606 30.2774 74.3506C29.5526 74.0755 29.0508 73.4153 28.9393 72.7001L28.9393 72.5901C28.9393 72.425 28.9393 71.3797 28.9393 68.1888L28.9393 61.807C28.9393 60.6517 29.8871 59.7164 31.0579 59.7164C32.2286 59.7164 33.1764 60.6517 33.1764 61.807L33.1764 67.3086L55.9227 44.8621C56.313 44.477 56.8705 44.257 57.428 44.257C57.9855 44.257 58.543 44.477 58.9333 44.8621L65.9579 51.7941L80.4531 37.49C80.8433 37.16 81.3451 36.9399 81.9584 36.9399Z" fill="white"/>
<path d="M23.5298 0C10.5571 0 0 10.5273 0 23.5C0 36.4727 10.5273 47 23.5298 47C36.5025 47 47.0298 36.4727 47.0298 23.5C47.0298 10.5273 36.5025 0 23.5298 0ZM23.5298 40.111C14.3744 40.111 6.91878 32.6853 6.91878 23.5C6.91878 14.3147 14.3445 6.88895 23.5298 6.88895C32.7151 6.88895 40.1111 14.3147 40.1111 23.5C40.1111 32.6853 32.6853 40.111 23.5298 40.111Z" fill="#EE4D4A"/>
<path d="M23.5889 42.7657C34.2124 42.7657 42.8243 34.1538 42.8243 23.5304C42.8243 12.9069 34.2124 4.29492 23.5889 4.29492C12.9655 4.29492 4.35352 12.9069 4.35352 23.5304C4.35352 34.1538 12.9655 42.7657 23.5889 42.7657Z" fill="white"/>
<path d="M24.3369 32.4747C22.2285 32.4747 20.5175 32.053 19.2038 31.2097C17.8901 30.3582 17.1359 29.0486 16.9413 27.2808L20.6391 27.2078C20.8338 28.0106 21.2514 28.6228 21.892 29.0445C22.5408 29.4581 23.3517 29.6649 24.3248 29.6649C24.9087 29.6649 25.4236 29.5716 25.8696 29.3851C26.3237 29.1905 26.6805 28.931 26.94 28.6066C27.1995 28.2741 27.3293 27.8971 27.3293 27.4754C27.3293 26.8266 27.1225 26.3441 26.7089 26.0279C26.2953 25.7035 25.6588 25.444 24.7992 25.2494L21.9163 24.629C20.5783 24.3614 19.5038 23.8303 18.6929 23.0356C17.8901 22.2327 17.4806 21.1583 17.4644 19.8121C17.4563 18.7093 17.7522 17.7564 18.3523 16.9536C18.9605 16.1427 19.7836 15.5183 20.8216 15.0804C21.8677 14.6425 23.0395 14.4235 24.3369 14.4235C25.6669 14.4235 26.8143 14.6628 27.7793 15.1412C28.7524 15.6115 29.4985 16.2481 30.0175 17.0509C30.5446 17.8456 30.8 18.7255 30.7838 19.6905L27.1955 19.7513C27.0819 18.9728 26.8224 18.3606 26.417 17.9146C26.0115 17.4686 25.3384 17.2456 24.3978 17.2456C23.9112 17.2456 23.4774 17.2983 23.0962 17.4037C22.7151 17.5091 22.3867 17.6591 22.111 17.8538C21.8352 18.0403 21.6244 18.2633 21.4784 18.5228C21.3406 18.7823 21.2717 19.0742 21.2717 19.3986C21.2717 19.9094 21.4419 20.3149 21.7825 20.6149C22.1312 20.9069 22.784 21.1785 23.7409 21.4299L26.5751 22.1233C28.1726 22.5044 29.3241 23.1572 30.0296 24.0817C30.7433 25.0061 31.1001 26.1292 31.1001 27.451C31.1001 28.4647 30.8203 29.3486 30.2608 30.1028C29.7093 30.8569 28.9268 31.4408 27.9131 31.8544C26.8995 32.2679 25.7074 32.4747 24.3369 32.4747ZM22.8165 12.1246H25.8939V15.2872H22.8165V12.1246ZM22.7556 31.3921H25.8209V34.5547H22.7556V31.3921Z" fill="#EE4D4A"/>
</svg>
