<svg width="128" height="129" viewBox="0 0 128 129" fill="none" xmlns="http://www.w3.org/2000/svg">
<g clip-path="url(#clip0_2732_8145)">
<path d="M72.2143 23.0542C69.3451 23.0542 66.5338 23.2969 63.7892 23.7438C64.993 24.2006 66.4957 24.4467 68.5449 24.348C75.5954 24.0098 79.9639 25.3637 74.9229 27.3973C69.8816 29.4307 70.8198 31.5895 73.1728 31.7586C75.5258 31.9277 81.0102 29.3972 82.8302 31.623C84.708 33.9207 80.7228 37.6896 83.0992 41.7613C86.6343 47.8212 74.5427 49.2086 71.4874 53.7522C68.5401 58.1352 66.8779 62.8295 70.2389 69.1221C73.5996 75.4146 74.3901 71.6139 80.2996 72.3035C91.9496 73.6623 88.4626 82.8553 102.816 85.7338C108.307 86.8351 104.533 98.8576 94.8967 104.651C85.6097 110.235 88.5422 116.639 75.3448 120.91C72.1733 121.936 69.7605 121.347 72.2148 117.791C76.9753 110.894 76.5621 103.207 72.2148 99.7665C67.8678 96.3258 62.9943 95.5759 64.1698 90.2774C65.3454 84.9789 69.8951 83.1247 70.2188 78.3618C70.5312 73.7679 63.2998 58.132 54.2617 61.2278C49.0993 62.9969 39.1148 56.378 39.6429 47.7107C40.2556 37.6409 47.9087 36.0978 46.1901 30.1085C46.185 30.0917 46.1915 30.0701 46.1901 30.0516C30.4898 39.1488 19.9092 56.2106 19.9092 75.7727C19.9092 104.888 43.3267 128.489 72.2141 128.489C101.101 128.489 124.519 104.888 124.519 75.7727C124.519 46.6579 101.101 23.0542 72.2143 23.0542Z" fill="#F0CA50"/>
<path d="M39.7522 47.483C28.0671 47.483 18.5605 57.0644 18.5605 68.8414C18.5605 80.6185 28.0671 90.1999 39.7522 90.1999C51.4372 90.1999 60.9438 80.6185 60.9438 68.8414C60.9438 57.0644 51.4372 47.483 39.7522 47.483Z" fill="#EE4D4A"/>
<path d="M66.1223 104.153C60.3205 98.2155 52.6292 94.9457 44.4651 94.9457H35.0466C26.8827 94.9457 19.1912 98.2155 13.3894 104.153C7.61605 110.061 4.43652 117.86 4.43652 126.113C4.43652 127.424 5.49077 128.486 6.79115 128.486H72.7206C74.021 128.486 75.0752 127.424 75.0752 126.113C75.0752 117.86 71.8957 110.061 66.1223 104.153Z" fill="#EE4D4A"/>
</g>
<defs>
<clipPath id="clip0_2732_8145">
<rect width="127" height="128" fill="white" transform="translate(0.963867 0.0541992)"/>
</clipPath>
</defs>
</svg>
