<svg width="128" height="129" viewBox="0 0 128 129" fill="none" xmlns="http://www.w3.org/2000/svg">
<path d="M118.993 41.9122V116.599H8.01758V41.9122C8.01758 38.0764 11.1047 34.965 14.9131 34.965H112.098C115.906 34.965 118.993 38.0764 118.993 41.9122V41.9122Z" fill="#1C427B"/>
<path d="M8.01758 105.506H118.993V116.598H8.01758V105.506Z" fill="#1F2122"/>
<path d="M110.465 43.5597V101.328H16.546V43.5597H110.465Z" fill="#F0CA50"/>
<path d="M124.054 109.923H2.95703V114.005C2.95703 119.585 7.44502 124.108 12.9813 124.108H114.03C119.566 124.108 124.054 119.585 124.054 114.005V109.923Z" fill="#1C427B"/>
<path d="M70.0727 117.016H56.9384C53.1659 117.016 50.1074 113.933 50.1074 110.131V109.923H76.9034V110.131C76.9034 113.933 73.8452 117.016 70.0727 117.016Z" fill="#1F2122"/>
<path d="M23.9362 124.108H12.9815C7.44331 124.108 2.95508 119.585 2.95508 114.005V109.924H13.9098V114.005C13.9098 119.585 18.398 124.108 23.9362 124.108Z" fill="#1F2122"/>
<path d="M90.4418 41.9739V52.3493C90.4418 58.5451 86.7698 64.1712 81.0902 66.5484C69.8479 71.2586 57.1633 71.2586 45.9209 66.5484C40.2413 64.1712 36.5693 58.5451 36.5693 52.3493V41.9739H90.4418Z" fill="#5C9EDC"/>
<path d="M90.4413 41.9739V46.1339L68.3931 57.9067C65.3351 59.5373 61.6754 59.5373 58.6176 57.9067L36.5693 46.1339V41.9739H90.4413Z" fill="#1C427B"/>
<path d="M103.73 24.9119L68.393 6.04481C65.3362 4.41259 61.6758 4.41259 58.6188 6.04481L23.2818 24.9119C19.3136 27.0304 19.3136 32.76 23.2818 34.8785L58.6188 53.7459C61.6756 55.3781 65.336 55.3781 68.393 53.7459L103.73 34.8785C107.698 32.76 107.698 27.0307 103.73 24.9119V24.9119Z" fill="#5C9EDC"/>
<path d="M79.2254 73.9178C78.4182 73.9178 77.7635 73.258 77.7635 72.4444V48.5166L62.4066 30.8667C61.8744 30.2547 61.935 29.3238 62.5419 28.7872C63.1486 28.2506 64.0727 28.3119 64.6051 28.9236L80.3248 46.9905C80.5584 47.2594 80.6876 47.6045 80.6876 47.9619V72.4441C80.6873 73.2582 80.0329 73.9178 79.2254 73.9178V73.9178Z" fill="#EE4D4A"/>
<path d="M77.1472 72.78L74.2188 77.8919C72.4123 81.0455 74.6704 84.9874 78.2835 84.9874H80.1662C83.779 84.9874 86.0371 81.0455 84.2308 77.8919L81.3024 72.78C80.379 71.1681 78.0706 71.1681 77.1472 72.78Z" fill="#EE4D4A"/>
<path d="M62.2306 94.5758H25.6467C24.6375 94.5758 23.8193 93.7512 23.8193 92.734C23.8193 91.7169 24.6375 90.8923 25.6467 90.8923H62.2304C63.2396 90.8923 64.0578 91.7169 64.0578 92.734C64.0578 93.7512 63.2399 94.5758 62.2306 94.5758V94.5758Z" fill="#5C9EDC"/>
<path d="M50.1073 86.8295H25.6467C24.6375 86.8295 23.8193 86.0049 23.8193 84.9877C23.8193 83.9705 24.6375 83.146 25.6467 83.146H50.1073C51.1165 83.146 51.9346 83.9705 51.9346 84.9877C51.9346 86.0049 51.1165 86.8295 50.1073 86.8295Z" fill="#5C9EDC"/>
</svg>
