<svg width="124" height="131" viewBox="0 0 124 131" fill="none" xmlns="http://www.w3.org/2000/svg">
<path d="M14.047 64.7354C15.9437 63.2536 18.6701 63.3128 20.5667 64.8539L47.8903 87.258C49.6091 88.6212 50.5575 90.6957 50.5575 92.8887V121.042H17.9589V101.009L2.37081 81.983C0.829782 80.0863 0 77.7748 0 75.3447V41.4421C0 39.664 0.711241 38.0638 1.89664 36.9376C3.02278 35.8115 4.62307 35.041 6.40118 35.041C9.77958 35.041 12.5653 37.7081 12.8024 41.0865L14.047 64.7354Z" fill="#FDDCCF"/>
<path d="M50.5585 92.8884V92.9477H34.2592L25.9021 85.0055L13.5147 72.618C12.5071 71.6104 11.9736 70.2472 11.9736 68.884C11.9736 67.5208 12.5071 66.2168 13.5147 65.15C13.6925 64.9722 13.8703 64.7944 14.0481 64.6759C15.9447 63.1941 18.6712 63.2533 20.5678 64.7944L47.8914 87.1985C49.6102 88.621 50.5585 90.6954 50.5585 92.8884Z" fill="#F0BCA8"/>
<path d="M54.2922 129.222V115.589C54.2922 113.1 52.277 111.085 49.7877 111.085H18.7301C16.2408 111.085 14.2256 113.1 14.2256 115.589V129.222C14.2256 130.17 14.9961 131 16.0037 131H52.5734C53.5217 131 54.2922 130.17 54.2922 129.222Z" fill="#EE4D4A"/>
<path d="M109.472 64.7354L110.776 41.0865C110.895 39.3677 111.606 37.886 112.732 36.8191C113.858 35.7523 115.399 35.041 117.118 35.041C120.615 35.041 123.519 37.8859 123.519 41.4421V75.3447C123.519 77.7748 122.69 80.0863 121.149 81.983L105.561 101.009L105.916 125.191H72.9619V92.8887C72.9619 90.6957 73.9695 88.6212 75.6291 87.258L102.953 64.8539C103.901 64.0834 105.086 63.6685 106.272 63.6685C107.457 63.6685 108.583 64.0241 109.472 64.7354Z" fill="#FDDCCF"/>
<path d="M110.007 65.21C112.081 67.2844 112.081 70.6035 110.007 72.6187L97.6195 85.0062L86.9509 94.6673L75.5117 87.3178L75.571 87.2585L102.895 64.8543C103.843 64.0838 105.028 63.6689 106.214 63.6689C107.34 63.6689 108.466 64.0246 109.414 64.7358C109.651 64.8544 109.888 65.0321 110.007 65.21Z" fill="#F0BCA8"/>
<path d="M98.7448 38.1233C98.5077 34.7449 95.7813 31.9593 92.4029 31.7815C91.0397 31.7222 89.7358 32.0185 88.6689 32.6112C87.6613 33.2039 86.4759 33.5003 85.2905 33.6188L84.9349 33.6781C84.4014 33.7373 83.868 33.2632 83.868 32.7298V20.4608C83.868 17.7936 81.7343 15.6599 79.0671 15.6599H64.0125C63.1827 15.6599 62.4715 14.9487 62.5307 14.0597L62.59 13.5262C62.7086 12.3408 63.0049 11.2147 63.5383 10.2071C64.0718 9.19951 64.4274 8.07334 64.4274 6.82866C64.4274 2.91683 61.1083 -0.224488 57.1964 0.0125929C53.818 0.249674 51.0323 2.97615 50.8545 6.35454C50.7953 7.71776 51.0916 9.02166 51.6843 10.0885C52.277 11.0961 52.5734 12.2816 52.6919 13.467L52.7512 14.0004C52.8104 14.8302 52.1585 15.6007 51.2694 15.6007H37.3409C34.6738 15.6007 32.54 17.7344 32.54 20.4015V59.4606C32.54 62.1278 34.6738 64.2615 37.3409 64.2615H52.0399C52.5734 64.2615 52.9882 63.8466 52.929 63.3132L52.7512 61.298C52.6326 60.1126 52.3363 58.9865 51.7436 57.9196C51.1509 56.8527 50.7952 55.5488 50.9138 54.1855C51.1509 50.8071 53.8773 48.0215 57.2557 47.8437C61.2268 47.6066 64.4867 50.7479 64.4867 54.6597C64.4867 55.9044 64.1903 57.0305 63.5976 58.0381C63.0049 59.0457 62.7086 60.1718 62.6493 61.3572L62.4715 63.3724C62.4122 63.9058 62.8271 64.3207 63.3605 64.3207H79.1264C81.7935 64.3207 83.9273 62.187 83.9273 59.5199V44.5245C83.9273 43.9318 84.4014 43.5169 84.9941 43.5762L85.3498 43.6355C86.5352 43.754 87.6613 44.0504 88.6689 44.5838C89.6765 45.1172 90.8026 45.4729 92.0473 45.4729C95.8406 45.4136 98.9819 42.0944 98.7448 38.1233Z" fill="#F0CA50"/>
<path d="M109.295 129.399V115.589C109.295 113.1 107.28 111.085 104.791 111.085H73.7331C71.2437 111.085 69.2285 113.1 69.2285 115.589V129.399C69.2285 130.289 69.9398 131 70.8288 131H107.754C108.584 131 109.295 130.289 109.295 129.399Z" fill="#EE4D4A"/>
</svg>
