<svg width="229" height="162" viewBox="0 0 229 162" fill="none" xmlns="http://www.w3.org/2000/svg">
<g clip-path="url(#clip0_1377_12245)">
<path d="M172.791 158.92H38.6943V162H172.791V158.92Z" fill="#163459"/>
<path d="M159.394 71.4414H52.0449V138.76H159.394V71.4414Z" fill="#163459"/>
<path fill-rule="evenodd" clip-rule="evenodd" d="M172.745 158.919H38.6943L52.0904 138.76H159.349L172.745 158.919Z" fill="#163459"/>
<path d="M155.185 76.2891H56.2988V134.23H155.185V76.2891Z" fill="white"/>
<path fill-rule="evenodd" clip-rule="evenodd" d="M48.8775 102.02L58.7887 109.767L58.4267 98.8943C58.4267 98.7584 58.4267 98.6678 58.4267 98.5319V36.3775C58.4267 34.4748 56.8879 32.9346 54.9872 32.9346H3.43953C1.53874 32.9346 0 34.4748 0 36.3775V98.5772C0 100.48 1.53874 102.02 3.43953 102.02H48.8775Z" fill="#1C427B"/>
<path fill-rule="evenodd" clip-rule="evenodd" d="M56.1184 37.465C56.1184 36.3777 55.2133 35.4717 54.1271 35.4717H4.254C3.16783 35.4717 2.2627 36.3777 2.2627 37.465V97.7166C2.2627 98.8039 3.16783 99.7099 4.254 99.7099H54.1271C55.2133 99.7099 56.1184 98.8039 56.1184 97.7166V37.465Z" fill="white"/>
<path fill-rule="evenodd" clip-rule="evenodd" d="M28.9643 39.6846C32.7206 39.6846 35.7529 42.7198 35.7529 46.4799C35.7529 50.2399 32.7206 53.2752 28.9643 53.2752C25.208 53.2752 22.1758 50.2399 22.1758 46.4799C22.1758 42.7198 25.208 39.6846 28.9643 39.6846Z" fill="#F0CA50"/>
<path fill-rule="evenodd" clip-rule="evenodd" d="M14.6631 67.4999C15.2967 60.161 21.4516 54.3623 28.9643 54.3623C36.4769 54.3623 42.6319 60.1157 43.2655 67.4999C38.966 68.4965 34.1236 69.0402 28.9643 69.0402C23.8502 69.0402 18.9625 68.4965 14.6631 67.4999Z" fill="#F0CA50"/>
<path fill-rule="evenodd" clip-rule="evenodd" d="M16.8805 80.7734C21.1799 80.7734 24.6195 84.2617 24.6195 88.5201C24.6195 92.8238 21.1347 96.2667 16.8805 96.2667C12.5811 96.2667 9.1416 92.7785 9.1416 88.5201C9.1416 84.2617 12.5811 80.7734 16.8805 80.7734Z" fill="#90DBBC"/>
<path fill-rule="evenodd" clip-rule="evenodd" d="M13.7125 87.2965C13.6673 87.1153 13.1242 84.8502 13.8483 84.5784C15.3871 83.9895 16.609 84.5784 16.7448 85.3938C17.0163 87.07 16.1564 87.2965 15.3418 87.2512C15.6586 87.9761 16.2469 89.018 17.3331 89.7428C17.6046 88.9727 18.1025 88.2932 19.5507 89.1086C20.3201 89.5163 20.4106 90.8754 19.3697 92.1438C19.0076 92.5969 17.8309 92.0079 17.1973 91.6002C16.4732 91.2831 14.3009 89.8787 13.7125 87.2965Z" fill="white"/>
<path d="M40.6403 96.2667C44.9144 96.2667 48.3792 92.7984 48.3792 88.5201C48.3792 84.2417 44.9144 80.7734 40.6403 80.7734C36.3662 80.7734 32.9014 84.2417 32.9014 88.5201C32.9014 92.7984 36.3662 96.2667 40.6403 96.2667Z" fill="#EE4D4A"/>
<path fill-rule="evenodd" clip-rule="evenodd" d="M40.6407 87.7043L38.0611 85.1221L37.2012 85.9375L39.7808 88.5197L37.2012 91.1472L38.0611 91.9627L40.6407 89.3805L43.2203 91.9627L44.0802 91.1472L41.5006 88.5197L44.0802 85.9375L43.2203 85.1221L40.6407 87.7043Z" fill="white"/>
<path fill-rule="evenodd" clip-rule="evenodd" d="M73 43.1081C73 41.3814 71.6667 40 70 40C68.3333 40 67 41.3814 67 43.1081V59.8919C67 61.6186 68.3333 63 70 63C71.6667 63 73 61.6186 73 59.8919V43.1081Z" fill="#F0CA50"/>
<path fill-rule="evenodd" clip-rule="evenodd" d="M67.1803 28C64.1639 29.1942 62 32.3554 62 36.0083V36.4298C62 41.1364 65.6066 45 70 45C74.3934 45 78 41.1364 78 36.4298V36.0083C78 32.3554 75.8361 29.1942 72.8197 28V35.7273C72.8197 37.4132 71.5738 38.7479 70 38.7479C68.4262 38.7479 67.1803 37.4132 67.1803 35.7273V28Z" fill="#F0CA50"/>
<path fill-rule="evenodd" clip-rule="evenodd" d="M226.602 59.4813C231.987 49.6961 228.095 37.1927 217.867 31.5752C207.684 25.9578 195.012 29.3101 189.627 39.0501C186.73 44.3051 186.414 50.6927 188.812 56.3554L184.105 63.8756L193.157 62.9695C194.696 64.5551 196.415 65.9142 198.361 66.9561C208.544 72.6189 221.216 69.2665 226.602 59.4813Z" fill="#5C9EDC"/>
<path fill-rule="evenodd" clip-rule="evenodd" d="M207.956 53.0486C205.738 53.0486 203.973 51.2818 203.973 49.062C203.973 46.8422 205.738 45.0754 207.956 45.0754C210.173 45.0754 211.938 46.8422 211.938 49.062C211.938 51.2818 210.173 53.0486 207.956 53.0486ZM206.281 59.2549C207.413 59.4361 208.544 59.4361 209.675 59.2549L209.947 56.5368C210.897 56.3103 211.757 55.8573 212.527 55.2684L214.835 56.7633C215.695 55.9932 216.419 55.0872 216.962 54.0905L215.016 52.1878C215.423 51.2818 215.604 50.3304 215.649 49.3791L218.229 48.5184C218.184 47.3858 217.912 46.2533 217.46 45.2113L214.744 45.5737C214.292 44.713 213.703 43.9429 212.934 43.3086L213.884 40.7264C212.934 40.0469 211.938 39.5486 210.807 39.2314L209.359 41.5872C208.408 41.4059 207.413 41.4059 206.462 41.5872L205.014 39.2314C203.928 39.5486 202.887 40.0469 201.936 40.7264L202.887 43.3086C202.163 43.9429 201.529 44.713 201.077 45.5737L198.361 45.2113C197.909 46.2533 197.682 47.3858 197.592 48.5184L200.171 49.3791C200.217 50.3304 200.443 51.2818 200.805 52.1878L198.859 54.0905C199.402 55.0872 200.126 55.9932 200.986 56.7633L203.294 55.2684C204.064 55.8573 204.969 56.265 205.874 56.5368L206.281 59.2549Z" fill="white"/>
<path fill-rule="evenodd" clip-rule="evenodd" d="M206.869 94.9075C206.869 91.3739 204.018 88.4746 200.443 88.4746H172.791C169.261 88.4746 166.364 91.3286 166.364 94.9075V113.617C166.364 117.151 169.215 120.005 172.791 120.005H175.008L173.334 126.891L184.377 120.005H200.488C204.018 120.005 206.914 117.151 206.914 113.617V94.9075H206.869Z" fill="#1C427B"/>
<path fill-rule="evenodd" clip-rule="evenodd" d="M183.924 97.3987C186.368 97.3987 188.314 99.392 188.314 101.793C188.314 104.239 186.323 106.187 183.924 106.187C181.481 106.187 179.534 104.194 179.534 101.793C179.534 99.392 181.481 97.3987 183.924 97.3987ZM183.924 94.4541C187.952 94.4541 191.256 97.7611 191.256 101.793C191.256 105.825 187.952 109.132 183.924 109.132C179.897 109.132 176.593 105.825 176.593 101.793C176.593 97.7611 179.897 94.4541 183.924 94.4541Z" fill="white"/>
<path fill-rule="evenodd" clip-rule="evenodd" d="M190.033 105.554C189.4 104.92 188.359 104.92 187.725 105.554C187.092 106.188 187.092 107.23 187.725 107.864L193.337 113.482C193.971 114.116 195.012 114.116 195.645 113.482C196.279 112.847 196.279 111.805 195.645 111.171L190.033 105.554Z" fill="white"/>
<path fill-rule="evenodd" clip-rule="evenodd" d="M185.916 28.6309C185.916 12.8205 172.52 0 156.001 0C139.482 0 126.086 12.8205 126.086 28.6309C126.086 37.1476 130.069 45.2567 136.902 50.693L136.178 63.1963L146.768 55.9027C149.755 56.8087 152.833 57.307 155.956 57.307C172.52 57.2617 185.916 44.4413 185.916 28.6309Z" fill="#F7E39E"/>
<path d="M174 18H135V43H174V18Z" fill="#5C9EDC"/>
<path fill-rule="evenodd" clip-rule="evenodd" d="M154.522 31.4619L135 43.0001H174L154.522 31.4619Z" fill="#1C427B"/>
<path fill-rule="evenodd" clip-rule="evenodd" d="M154.522 33.2133L174 18H135L154.522 33.2133Z" fill="#ADC9EA"/>
<path fill-rule="evenodd" clip-rule="evenodd" d="M86.0332 45.0299C86.0332 42.6742 87.934 40.7715 90.2874 40.7715H118.075C120.428 40.7715 122.329 42.6742 122.329 45.0299V57.4426C122.329 59.7983 120.428 61.701 118.075 61.701L121.017 66.0953L111.422 61.701H90.2874C87.934 61.701 86.0332 59.7983 86.0332 57.4426V45.0299Z" fill="#5C9EDC"/>
</g>
<defs>
<clipPath id="clip0_1377_12245">
<rect width="229" height="162" fill="white"/>
</clipPath>
</defs>
</svg>
