<svg width="110" height="128" viewBox="0 0 110 128" fill="none" xmlns="http://www.w3.org/2000/svg">
<path d="M69.8277 29.5837C67.567 29.5473 65.3427 29.3649 63.1184 29.0001C62.8996 28.9636 62.7173 28.9271 62.4985 28.8906C61.5869 28.7447 60.6753 28.5623 59.8002 28.38C58.6698 28.1246 57.5395 27.8328 56.4456 27.468L38.1408 21.8868L37.521 21.7044C36.5364 21.3396 35.5155 21.1572 34.458 21.1572C29.6084 21.1572 25.6703 24.878 25.415 29.6202H69.8277H70.8487C70.5205 29.6202 70.1559 29.6202 69.8277 29.5837Z" fill="#EEB098"/>
<path d="M84.6319 27.6865C76.9016 29.3645 73.8751 29.6199 70.8486 29.6199H84.6319V27.6865Z" fill="#EEB098"/>
<path d="M21.1486 33.852C18.4503 33.852 16.0437 35.1287 14.4757 37.0985L14.0746 35.9312C13.8558 35.2381 13.6371 34.5451 13.4912 33.852H15.1685C16.1895 33.852 17.0646 33.1224 17.247 32.174L18.9243 23.7474C22.753 21.5587 25.3419 17.4002 25.3419 12.6945C25.3419 10.1045 24.5761 7.73342 23.2635 5.72711C27.8943 2.15223 33.692 0 40.0002 0C41.5317 0 43.0632 0.0729568 44.5947 0.21887L79.3445 3.86671C81.4229 4.08558 83.5378 4.19502 85.6527 4.19502C90.5752 4.19502 95.4978 3.57488 100.275 2.40757L101.551 2.07927V15.5033C101.551 22.9084 98.7431 29.9853 93.6747 35.3476C92.289 34.3991 90.6117 33.852 88.8615 33.852H84.6317V29.6205V27.6871V27.6506C76.9014 29.3286 73.8749 29.6205 70.8484 29.6205C65.9623 29.6205 61.0762 28.8909 56.4089 27.4682L38.0677 21.887L37.4478 21.7047C36.4633 21.3399 35.4423 21.1575 34.3848 21.1575C29.6081 21.1575 25.6701 24.8783 25.4148 29.6205C25.3783 29.8029 25.3783 29.9488 25.3783 30.1676V33.8884L21.1486 33.852Z" fill="#163459"/>
<path d="M93.6748 35.3837C95.8626 36.9157 97.3212 39.4692 97.3212 42.351C97.3212 44.6856 96.3731 46.8014 94.8416 48.3335C93.3102 49.8656 91.1953 50.814 88.8616 50.814H84.6318V33.8516H88.8616C90.6483 33.8516 92.3257 34.4352 93.6748 35.3837Z" fill="#EEB098"/>
<path d="M84.6319 55.0459V59.2774C84.6319 68.9807 78.1049 77.1883 69.1714 79.6689C68.6973 79.8148 68.1868 79.9242 67.6763 80.0337C66.3272 80.3255 64.9416 80.4714 63.483 80.4714H55.0235H46.5639C45.1418 80.4714 43.7198 80.3255 42.3706 80.0337C41.8601 79.9242 41.3496 79.8148 40.8756 79.6689C31.942 77.1883 25.415 69.0172 25.415 59.2774V55.0459H50.7937C50.7937 53.8786 51.2677 52.8208 52.0335 52.0547C52.7992 51.2887 53.8566 50.8145 55.0235 50.8145C56.1903 50.8145 57.2478 51.2887 58.0135 52.0547C58.7792 52.8208 59.2533 53.8786 59.2533 55.0459H84.6319Z" fill="#EEB098"/>
<path d="M25.3788 33.8516V50.7775H21.149C18.8153 50.7775 16.7004 49.8291 15.169 48.297C13.6375 46.7649 12.6895 44.6492 12.6895 42.3146C12.6895 40.3447 13.3823 38.5573 14.4762 37.0981C16.0076 35.0918 18.4507 33.8516 21.149 33.8516H25.3788Z" fill="#EEB098"/>
<path d="M84.6322 55.0456H59.2536C59.2536 53.8783 58.7796 52.8204 58.0138 52.0543C57.2481 51.2883 56.1906 50.8141 55.0238 50.8141C53.857 50.8141 52.7995 51.2883 52.0338 52.0543C51.2681 52.8204 50.794 53.8783 50.794 55.0456H25.3789V50.8141V33.8516V30.1673C25.3789 29.9849 25.3789 29.8025 25.4154 29.6201H70.849H84.6322V33.8516V50.7776V55.0456Z" fill="#5C9EDC"/>
<path d="M18.9621 23.748L17.2848 32.1746C17.1024 33.1595 16.2273 33.8526 15.2063 33.8526H13.529H10.2108C9.18985 33.8526 8.31472 33.123 8.1324 32.1746L6.45508 23.748C8.27826 24.8059 10.4296 25.3896 12.7268 25.3896C15.024 25.3896 17.1024 24.8059 18.9621 23.748Z" fill="#1C427B"/>
<path d="M12.6893 25.389C10.3921 25.389 8.27724 24.8053 6.41759 23.7474C2.58891 21.5587 0 17.4002 0 12.6945C0 5.69063 5.68832 0 12.6893 0C17.1014 0 21.0395 2.29814 23.3002 5.72711C24.6494 7.73342 25.3787 10.141 25.3787 12.6945C25.3787 17.4002 22.7897 21.5587 18.9611 23.7474C17.1014 24.8053 14.9865 25.389 12.6893 25.389Z" fill="#F0CA50"/>
<path d="M12.6897 16.9259C15.0258 16.9259 16.9195 15.0314 16.9195 12.6944C16.9195 10.3574 15.0258 8.46289 12.6897 8.46289C10.3537 8.46289 8.45996 10.3574 8.45996 12.6944C8.45996 15.0314 10.3537 16.9259 12.6897 16.9259Z" fill="#F0CA50"/>
<path d="M57.1388 88.8984L60.7852 98.0545V98.091C59.436 99.7325 57.9775 101.265 56.3366 102.651L55.0239 103.745L53.7113 102.651C52.0704 101.265 50.5754 99.769 49.2627 98.091V98.0545L52.9091 88.8984H57.1388Z" fill="#163459"/>
<path d="M59.5459 84.0469L57.1393 88.8985H52.9095L50.5029 84.0469L55.0244 80.4355L59.5459 84.0469Z" fill="#163459"/>
<path d="M57.1387 88.8985L59.5453 84.0469L65.817 89.0809C64.6502 92.3275 62.9729 95.3552 60.785 98.0546L57.1387 88.8985Z" fill="#F0CA50"/>
<path d="M44.2305 89.0809L50.5022 84.0469L52.9088 88.8985L49.2624 98.0546C47.0746 95.3552 45.3973 92.3275 44.2305 89.0809Z" fill="#F0CA50"/>
<path d="M59.5449 84.0471L55.0234 80.4358H63.483C64.9051 80.4358 66.3272 80.2899 67.6763 79.998C67.494 83.1352 66.8741 86.1629 65.8167 89.0447L59.5449 84.0471Z" fill="#EE4D4A"/>
<path d="M46.5634 80.4345H55.023L50.5015 84.0458L44.2298 89.0799C43.1723 86.1981 42.5524 83.1703 42.3701 80.0332C43.7193 80.2886 45.1049 80.4345 46.5634 80.4345Z" fill="#EE4D4A"/>
<path d="M76.1716 118.554V101.628V93.165H83.8655L69.1706 79.668C68.6966 79.8139 68.1861 79.9233 67.6756 80.0328C67.4933 83.1699 66.8734 86.1976 65.816 89.0794C64.6492 92.326 62.9718 95.3537 60.784 98.0531V98.0896C59.4349 99.7311 57.9763 101.263 56.3354 102.649L55.0228 103.744L53.7101 102.649C52.0692 101.263 50.5742 99.7676 49.2615 98.0896V98.0531C47.1102 95.3537 45.3964 92.326 44.2295 89.0794C43.1721 86.1976 42.5522 83.1699 42.3699 80.0328C41.8594 79.9233 41.3489 79.8139 40.8749 79.668L21.4033 97.5424L29.2065 104.072C32.1601 106.553 33.8739 110.2 33.8739 114.031V114.322V127.017H55.0228H80.4014V122.785C78.0678 122.785 76.1716 120.852 76.1716 118.554Z" fill="#FDDCCF"/>
<path d="M101.506 93.1289H109.965V101.592H101.506V93.1289Z" fill="#5C9EDC"/>
<path d="M88.9697 93.1289H97.4293V101.592H88.9697V93.1289Z" fill="#5C9EDC"/>
<path d="M84.6314 93.1289V101.592H76.1719V93.1289H83.8657H84.6314Z" fill="#5C9EDC"/>
<path d="M33.8378 114.031C33.8378 114.104 33.8378 114.214 33.8013 114.323C28.186 114.287 28.1859 110.092 22.5341 110.092C16.8822 110.092 16.8822 114.323 11.2304 114.323C5.7973 114.323 5.61498 110.42 0.583008 110.128C1.31228 107.794 2.6979 105.714 4.63047 104.109L12.6525 97.4337V84.7393H21.112V97.4337L21.3308 97.6161L29.134 104.146C32.124 106.553 33.8378 110.165 33.8378 114.031Z" fill="#5C9EDC"/>
<path d="M110.001 101.594V118.556C110.001 120.891 108.104 122.788 105.771 122.788C103.437 122.788 101.541 120.891 101.541 118.556V101.63H110.001V101.594Z" fill="#163459"/>
<path d="M97.4293 101.594V118.556C97.4293 120.891 95.5332 122.788 93.1995 122.788C90.8658 122.788 88.9697 120.891 88.9697 118.556V101.63H97.4293V101.594Z" fill="#163459"/>
<path d="M84.6314 101.594V118.556C84.6314 120.891 82.7353 122.788 80.4017 122.788C78.068 122.788 76.1719 120.891 76.1719 118.556V101.63H84.6314V101.594Z" fill="#163459"/>
<path d="M33.8382 114.287C33.7288 121.327 27.9676 126.981 20.8936 126.981H12.981C9.40761 126.981 6.16235 125.558 3.79221 123.187C1.45854 120.853 0 117.57 0 113.995C0 112.645 0.218781 111.295 0.619881 110.055H0.656345C5.68832 110.383 5.87064 114.25 11.3037 114.25C16.9556 114.25 16.9556 110.019 22.6074 110.019C28.2228 110.055 28.2228 114.287 33.8382 114.287Z" fill="#163459"/>
</svg>
