<svg width="42" height="109" viewBox="0 0 42 109" fill="none" xmlns="http://www.w3.org/2000/svg">
<path d="M48.8058 67.2265C32.0841 68.2461 18.2853 57.7101 12.0317 45.8826C6.45779 35.2786 7.61336 24.9465 8.02121 21.6838C9.02252 13.7603 12.1724 6.2617 17.1298 0L24.471 7.74906C22.6357 10.1282 17.8095 16.9256 17.7415 26.51C17.6735 27.5296 17.8095 42.28 29.8409 50.9807C34.0895 54.131 39.152 55.9975 44.4288 56.3589C49.7055 56.7203 54.9753 55.5615 59.6137 53.0199C71.0333 46.8343 74.0922 34.4629 74.636 32.0838H84.9001C84.3092 37.7604 82.4758 43.2374 79.5301 48.1258C78.5105 49.8251 68.3144 66.003 48.8058 67.2265Z" fill="#5C9EDC"/>
<path d="M25.2184 31.948H0.135936L0 21.208H25.2184V31.948Z" fill="#5C9EDC"/>
<path d="M33.5177 83.0009C33.5177 83.0009 37.3775 91.1966 33.3288 95.8345C33.3288 95.8345 39.7551 92.7549 45.8466 96.5854C45.8466 96.5854 42.9236 91.3932 45.8707 84.1767C45.8707 84.1767 42.0833 87.8893 33.5177 83.0009Z" fill="#F0CA50"/>
<path d="M10.7002 74.4087C10.7002 74.4087 7.81599 78.1173 4.83462 77.2691C5.67698 77.9795 6.33779 78.8805 6.76224 79.8974C7.18669 80.9143 7.36255 82.0178 7.2752 83.1163C7.98352 82.2945 8.85453 81.6285 9.83324 81.1604C10.812 80.6922 11.8771 80.4321 12.9614 80.3965C12.9614 80.3965 10.3795 79.4668 10.7002 74.4087Z" fill="#EE4D4A"/>
</svg>
