<svg width="184" height="185" viewBox="0 0 184 185" fill="none" xmlns="http://www.w3.org/2000/svg">
<g opacity="0.2">
<path d="M183.472 92.3347C183.472 142.777 142.58 183.669 92.1374 183.669C41.6947 183.669 0.802738 142.777 0.802737 92.3347C0.802736 41.8919 41.6947 0.999999 92.1374 0.999997C142.58 0.999996 183.472 41.8919 183.472 92.3347Z" stroke="#545A5C" stroke-miterlimit="10"/>
<path d="M164.413 92.3347C164.412 77.9237 160.151 63.8369 152.168 51.8585C144.185 39.8801 132.839 30.549 119.568 25.047C106.297 19.5451 91.6981 18.1199 77.6194 20.9519C63.5408 23.7838 50.6162 30.7456 40.4828 40.9554C30.3494 51.1653 23.463 64.1638 20.6958 78.3047C17.9286 92.4455 19.4051 107.093 24.9383 120.391C30.4715 133.689 39.8125 145.039 51.7782 153.005C63.7438 160.971 77.7958 165.193 92.1543 165.138C111.344 165.063 129.723 157.36 143.266 143.715C156.809 130.07 164.413 111.595 164.413 92.3347V92.3347Z" stroke="#545A5C" stroke-miterlimit="10"/>
<path d="M145.352 92.3329C145.352 81.6918 142.208 71.2903 136.32 62.4465C130.431 53.6027 122.063 46.7148 112.275 42.6556C102.487 38.5964 91.7201 37.5487 81.339 39.6452C70.958 41.7418 61.4299 46.8882 53.9623 54.4323C46.4948 61.9764 41.4238 71.5786 39.3921 82.022C37.3604 92.4653 38.4594 103.28 42.5499 113.095C46.6404 122.91 53.5382 131.284 62.3692 137.155C71.2001 143.026 81.5668 146.131 92.1552 146.075C99.1647 146.075 106.105 144.683 112.578 141.979C119.05 139.274 124.927 135.311 129.87 130.317C134.814 125.323 138.726 119.396 141.383 112.878C144.04 106.359 145.389 99.3771 145.352 92.3329V92.3329Z" stroke="#545A5C" stroke-miterlimit="10"/>
<path d="M126.29 92.3348C126.29 85.4637 124.264 78.7475 120.47 73.0383C116.676 67.3291 111.284 62.8843 104.979 60.2679C98.6743 57.6515 91.7402 56.9814 85.0567 58.3426C78.3733 59.7038 72.2416 63.0349 67.4399 67.9133C62.6381 72.7918 59.3827 78.9976 58.0865 85.7435C56.7904 92.4893 57.5119 99.4712 60.1597 105.803C62.8075 112.135 67.2621 117.532 72.9583 121.308C78.6546 125.085 85.3358 127.071 92.1542 127.016C96.6606 127.016 101.122 126.117 105.282 124.37C109.442 122.624 113.218 120.065 116.391 116.841C119.565 113.617 122.073 109.791 123.772 105.585C125.471 101.379 126.327 96.8758 126.29 92.3348Z" stroke="#545A5C" stroke-miterlimit="10"/>
</g>
<path d="M117.092 153.45C117.092 153.45 120.883 159.411 125.558 158.657C125.558 158.657 120.906 161.638 120.923 167.247C120.923 167.247 118.656 163.152 112.659 162.104C112.659 162.104 116.744 161.109 117.092 153.45Z" fill="#8EC6D8"/>
<path d="M160.343 85.5567C160.343 85.5567 162.857 79.075 159.501 75.8616C159.501 75.8616 164.617 77.7435 169.075 74.4218C169.075 74.4218 167.149 78.6112 169.848 83.9214C169.848 83.9214 166.649 81.3118 160.343 85.5567Z" fill="#EE4D4A"/>
<path d="M135.005 173.972L134.396 168.393L139.975 167.784L140.584 173.363L135.005 173.972Z" fill="#F0CA50"/>
</svg>
