<svg width="145" height="115" viewBox="0 0 145 115" fill="none" xmlns="http://www.w3.org/2000/svg">
<path d="M16.2832 12.1279V61.263C16.2832 63.7078 18.2642 65.6732 20.7284 65.6732H81.9946C84.4588 65.6732 86.4398 63.7078 86.4398 61.263V12.1279C86.4398 9.68318 84.4588 7.71777 81.9946 7.71777H20.7284C18.2642 7.71777 16.2832 9.68318 16.2832 12.1279ZM82.0913 63.4202H20.6801C19.762 63.4202 19.0373 62.7011 19.0373 61.7903V11.6006C19.0373 10.6898 19.762 9.9708 20.6801 9.9708H82.0913C83.0093 9.9708 83.7341 10.6898 83.7341 11.6006V61.7424C83.7341 62.7011 82.961 63.4202 82.0913 63.4202Z" fill="#F7E39E"/>
<path d="M128.91 35.3772V99.133C128.91 100.763 127.557 102.105 125.915 102.105H27.9274C26.2846 102.105 24.9317 100.763 24.9317 99.133V35.3772C24.9317 31.5902 28.024 28.5223 31.8411 28.5223H122.001C125.818 28.5223 128.91 31.5902 128.91 35.3772Z" fill="#5C9EDC"/>
<path d="M128.91 35.3772V35.6649H24.9317V35.3772C24.9317 31.5902 28.024 28.5223 31.8411 28.5223H122.001C125.818 28.5223 128.91 31.5902 128.91 35.3772Z" fill="#163459"/>
<path d="M57.62 41.082H45.1541C44.3328 41.082 43.6563 40.4109 43.6563 39.596C43.6563 38.7811 44.3328 38.1099 45.1541 38.1099H57.62C58.4414 38.1099 59.1178 38.7811 59.1178 39.596C59.1178 40.4109 58.4414 41.082 57.62 41.082Z" fill="#F0CA50"/>
<path d="M89.2422 40.7461H83.734C83.2509 40.7461 82.8643 40.3626 82.8643 39.8832C82.8643 39.4038 83.2509 39.0203 83.734 39.0203H89.2422C89.7254 39.0203 90.1119 39.4038 90.1119 39.8832C90.1119 40.3626 89.7254 40.7461 89.2422 40.7461Z" fill="white"/>
<path d="M99.6309 40.7461H94.1227C93.6395 40.7461 93.253 40.3626 93.253 39.8832C93.253 39.4038 93.6395 39.0203 94.1227 39.0203H99.6309C100.114 39.0203 100.501 39.4038 100.501 39.8832C100.501 40.3626 100.114 40.7461 99.6309 40.7461Z" fill="white"/>
<path d="M110.163 40.7461H104.655C104.172 40.7461 103.785 40.3626 103.785 39.8832C103.785 39.4038 104.172 39.0203 104.655 39.0203H110.163C110.646 39.0203 111.033 39.4038 111.033 39.8832C111.081 40.3626 110.646 40.7461 110.163 40.7461Z" fill="white"/>
<path d="M120.6 40.7461H115.091C114.608 40.7461 114.222 40.3626 114.222 39.8832C114.222 39.4038 114.608 39.0203 115.091 39.0203H120.6C121.083 39.0203 121.469 39.4038 121.469 39.8832C121.469 40.3626 121.083 40.7461 120.6 40.7461Z" fill="white"/>
<path d="M75.8583 83.7491H35.1752C34.5954 83.7491 34.1122 83.2698 34.1122 82.6945V57.0005C34.1122 56.4253 34.5954 55.9459 35.1752 55.9459H75.8583C76.4381 55.9459 76.9212 56.4253 76.9212 57.0005V82.6945C76.9212 83.2698 76.4381 83.7491 75.8583 83.7491Z" fill="white"/>
<path d="M109.584 60.3561H86.4884C86.0536 60.3561 85.6671 59.9726 85.6671 59.5411V56.7608C85.6671 56.3294 86.0536 55.9459 86.4884 55.9459H109.584C110.019 55.9459 110.405 56.3294 110.405 56.7608V59.5411C110.405 59.9726 110.067 60.3561 109.584 60.3561Z" fill="white"/>
<path d="M103.012 70.4575H86.4879C86.053 70.4575 85.7148 69.4508 85.7148 68.2524C85.7148 67.006 86.053 66.0473 86.4879 66.0473H103.012C103.447 66.0473 103.785 67.054 103.785 68.2524C103.785 69.4987 103.447 70.4575 103.012 70.4575Z" fill="white"/>
<path d="M119.585 78.6071H86.4879C86.053 78.6071 85.7148 77.7921 85.7148 76.8334C85.7148 75.8267 86.053 75.0598 86.4879 75.0598H119.585C120.02 75.0598 120.358 75.8747 120.358 76.8334C120.358 77.8401 119.972 78.6071 119.585 78.6071Z" fill="white"/>
<path d="M42.3259 22.4823V52.1071C42.3259 52.7782 41.7461 53.3535 41.0696 53.3535H1.25625C0.579807 53.3535 0 52.8262 0 52.1071V22.4823C0 21.8112 0.579807 21.2359 1.25625 21.2359H41.0696C41.7944 21.2359 42.3259 21.7632 42.3259 22.4823Z" fill="#8EC6D8"/>
<path d="M42.3259 41.3693V52.1071C42.3259 52.7782 41.7461 53.3535 41.0696 53.3535H1.25625C0.579807 53.3535 0 52.8262 0 52.1071V41.7528C0 41.7528 6.81273 30.1042 11.6445 30.1042C17.6358 30.1042 21.0663 43.6703 24.062 43.6703C27.0576 43.6703 30.923 34.3226 34.885 34.3226C37.2526 34.3706 40.2966 38.2534 42.3259 41.3693Z" fill="white"/>
<path d="M36.9144 27.8512C36.9144 29.3852 35.6581 30.5836 34.1603 30.5836C32.6141 30.5836 31.4062 29.3372 31.4062 27.8512C31.4062 26.3172 32.6624 25.1188 34.1603 25.1188C35.6581 25.1188 36.9144 26.3652 36.9144 27.8512Z" fill="white"/>
<path d="M144.178 80.4378H121.131C120.696 80.4378 120.31 80.1022 120.31 79.6228V48.5119C120.31 48.0805 120.648 47.697 121.131 47.697H144.178C144.613 47.697 145 48.0326 145 48.5119V79.6228C145 80.1022 144.613 80.4378 144.178 80.4378Z" fill="#EE4D4A"/>
<path d="M139.7 51.2923H125.61C125.058 51.2923 124.61 51.74 124.61 52.2923V52.4494C124.61 53.0017 125.058 53.4494 125.61 53.4494H139.7C140.252 53.4494 140.7 53.0017 140.7 52.4494V52.2923C140.7 51.74 140.252 51.2923 139.7 51.2923Z" fill="white"/>
<path d="M139.934 60.6082H125.12C124.905 60.6082 124.731 60.7821 124.731 60.9967C124.731 61.2112 124.905 61.3852 125.12 61.3852H139.934C140.149 61.3852 140.323 61.2112 140.323 60.9967C140.323 60.7821 140.149 60.6082 139.934 60.6082Z" fill="white"/>
<path d="M136.036 62.9395H125.12C124.905 62.9395 124.731 63.1134 124.731 63.328C124.731 63.5425 124.905 63.7165 125.12 63.7165H136.036C136.251 63.7165 136.425 63.5425 136.425 63.328C136.425 63.1134 136.251 62.9395 136.036 62.9395Z" fill="white"/>
<path d="M136.816 65.2705H125.12C124.905 65.2705 124.731 65.4445 124.731 65.659C124.731 65.8736 124.905 66.0475 125.12 66.0475H136.816C137.031 66.0475 137.205 65.8736 137.205 65.659C137.205 65.4445 137.031 65.2705 136.816 65.2705Z" fill="white"/>
<path d="M136.013 76.9863H129.297C128.62 76.9863 128.089 76.459 128.089 75.7879C128.089 75.1168 128.62 74.5895 129.297 74.5895H136.013C136.689 74.5895 137.221 75.1168 137.221 75.7879C137.221 76.459 136.689 76.9863 136.013 76.9863Z" fill="white"/>
<path d="M103.882 1.91747V22.2426C103.882 23.2972 103.012 24.1601 101.949 24.1601H71.9923C70.9293 24.1601 70.0596 23.2972 70.0596 22.2426V1.91747C70.0596 0.86286 70.9293 0 71.9923 0H101.949C103.012 0 103.882 0.86286 103.882 1.91747Z" fill="#5C9EDC"/>
<path d="M103.882 19.5102V22.2426C103.882 23.2972 103.012 24.1601 101.949 24.1601H71.9923C70.9293 24.1601 70.0596 23.2972 70.0596 22.2426V19.5102H103.882Z" fill="#1C427B"/>
<path d="M92.8466 11.443C93.6172 8.22302 91.6108 4.99299 88.3652 4.22854C85.1197 3.46408 81.864 5.45468 81.0935 8.67466C80.3229 11.8946 82.3293 15.1247 85.5749 15.8891C88.8204 16.6536 92.0761 14.663 92.8466 11.443Z" fill="white"/>
<path d="M85.3761 11.8883V8.19717C85.3761 7.81367 85.811 7.52605 86.1975 7.76574L89.0482 9.58733C89.3381 9.77907 89.3381 10.2584 89.0482 10.4502L86.1975 12.2718C85.811 12.5594 85.3761 12.3197 85.3761 11.8883Z" fill="#5C9EDC"/>
<path d="M27.7824 107.474H4.78339C3.43051 107.474 2.31921 106.371 2.31921 105.029V86.8133C2.31921 85.471 3.43051 84.3685 4.78339 84.3685H27.7824C29.1353 84.3685 30.2466 85.471 30.2466 86.8133V105.029C30.2466 106.371 29.1353 107.474 27.7824 107.474Z" fill="#EE4D4A"/>
<path d="M14.2059 103.831H13.1429C12.9496 103.831 12.8047 103.639 12.853 103.447L14.0126 98.366C14.0609 98.2222 14.1576 98.1263 14.3025 98.1263H16.0902C16.2835 98.1263 16.4285 98.3181 16.3802 98.5098L15.3655 102.872C15.2689 103.447 14.7857 103.831 14.2059 103.831Z" fill="white"/>
<path d="M23.5311 96.6402H22.5165V93.1888H23.5311C24.4975 93.1888 25.2706 93.9558 25.2706 94.9145C25.2706 95.8733 24.4975 96.6402 23.5311 96.6402Z" fill="#F0CA50"/>
<path d="M11.2099 98.7015H13.9639V91.2234H11.2099C10.0986 91.2234 9.18054 92.1342 9.18054 93.2367V96.7361C9.18054 97.8386 10.0986 98.7015 11.2099 98.7015Z" fill="#F0CA50"/>
<path d="M13.9642 91.2234L23.1445 89.7373C23.5793 89.6415 24.0142 90.025 24.0142 90.4564V99.3726C24.0142 99.852 23.5793 100.188 23.1445 100.092L13.9159 98.7015V91.2234H13.9642Z" fill="white"/>
<path d="M12.7077 92.997H10.8717C10.775 92.997 10.6784 92.9012 10.6784 92.8053C10.6784 92.7094 10.775 92.6135 10.8717 92.6135H12.7077C12.8044 92.6135 12.901 92.7094 12.901 92.8053C12.901 92.9012 12.8044 92.997 12.7077 92.997Z" fill="white"/>
<path d="M12.7077 93.764H10.8717C10.775 93.764 10.6784 93.6681 10.6784 93.5723C10.6784 93.4764 10.775 93.3805 10.8717 93.3805H12.7077C12.8044 93.3805 12.901 93.4764 12.901 93.5723C12.901 93.6681 12.8044 93.764 12.7077 93.764Z" fill="white"/>
<path d="M84.5548 86.3818H101.659L106.104 90.8399V114.281C106.104 114.664 105.814 114.952 105.428 114.952H84.4098C84.0233 114.952 83.7334 114.664 83.7334 114.281V87.2447C83.7334 86.7653 84.1199 86.3818 84.5548 86.3818Z" fill="#F0CA50"/>
<path d="M101.659 86.3818V90.073C101.659 90.5044 101.997 90.84 102.432 90.84H106.104L101.659 86.3818Z" fill="white"/>
<path d="M86.4877 99.2767C86.7293 98.8453 87.0676 98.5577 87.4541 98.318C87.8889 98.0783 88.3238 97.9824 88.8553 97.9824C89.4351 97.9824 89.9666 98.1262 90.4498 98.4618C90.8846 98.7494 91.2228 99.1808 91.4161 99.7081H90.1599C90.0149 99.4685 89.87 99.2767 89.6284 99.1329C89.3868 98.9891 89.1452 98.9412 88.8553 98.9412C88.5654 98.9412 88.2755 99.037 88.0339 99.1808C87.7923 99.3246 87.599 99.5164 87.4541 99.804C87.3091 100.092 87.2608 100.379 87.2608 100.715C87.2608 101.05 87.3091 101.386 87.4541 101.626C87.599 101.913 87.7923 102.105 88.0339 102.249C88.2755 102.393 88.5654 102.488 88.8553 102.488C89.1452 102.488 89.3868 102.441 89.6284 102.297C89.87 102.153 90.0149 101.961 90.1599 101.721H91.4161C91.2228 102.249 90.9329 102.68 90.4981 102.968C90.0632 103.255 89.5317 103.399 88.9036 103.399C88.3721 103.399 87.9373 103.303 87.5024 103.064C87.0676 102.824 86.7777 102.488 86.5361 102.105C86.2945 101.674 86.1978 101.242 86.1978 100.715C86.1495 100.188 86.2945 99.7081 86.4877 99.2767Z" fill="white"/>
<path d="M98.5183 98.0784V103.399H97.4553V99.9479L96.0058 103.399H95.1844L93.7349 99.9479V103.399H92.6719V98.0784H93.8798L95.5709 102.009L97.262 98.0784H98.5183Z" fill="white"/>
<path d="M100.79 103.208C100.5 103.064 100.258 102.92 100.065 102.68C99.8716 102.441 99.8233 102.153 99.775 101.817H100.935C100.935 102.057 101.031 102.201 101.176 102.345C101.321 102.488 101.514 102.536 101.756 102.536C101.998 102.536 102.191 102.488 102.336 102.345C102.481 102.249 102.529 102.057 102.529 101.865C102.529 101.721 102.481 101.578 102.384 101.482C102.287 101.386 102.143 101.29 101.998 101.242C101.853 101.194 101.659 101.098 101.418 101.05C101.08 100.954 100.79 100.859 100.548 100.763C100.355 100.667 100.162 100.523 99.9683 100.331C99.8233 100.14 99.7267 99.852 99.7267 99.5164C99.7267 99.1808 99.8233 98.9412 99.9683 98.7015C100.113 98.4618 100.355 98.27 100.645 98.1742C100.935 98.0304 101.273 97.9824 101.611 97.9824C102.143 97.9824 102.626 98.1262 102.964 98.3659C103.302 98.6535 103.495 98.9891 103.544 99.4685H102.384C102.384 99.2767 102.287 99.1329 102.143 99.037C101.998 98.9412 101.804 98.8453 101.563 98.8453C101.369 98.8453 101.176 98.8932 101.08 98.9891C100.935 99.085 100.886 99.2288 100.886 99.4685C100.886 99.6123 100.935 99.7081 101.031 99.804C101.128 99.8999 101.225 99.9958 101.369 100.044C101.514 100.092 101.708 100.188 101.949 100.235C102.288 100.331 102.577 100.427 102.819 100.523C103.061 100.619 103.206 100.763 103.399 101.002C103.544 101.194 103.64 101.482 103.64 101.817C103.64 102.105 103.544 102.345 103.399 102.632C103.254 102.872 103.012 103.064 102.771 103.208C102.481 103.351 102.143 103.447 101.756 103.447C101.418 103.399 101.128 103.351 100.79 103.208Z" fill="white"/>
</svg>
