<svg width="120" height="99" viewBox="0 0 120 99" fill="none" xmlns="http://www.w3.org/2000/svg">
<path d="M78.8053 82.388C86.9527 82.388 94.9171 79.972 101.691 75.4455C108.466 70.9191 113.746 64.4855 116.864 56.9583C119.981 49.431 120.797 41.1483 119.208 33.1575C117.618 25.1666 113.695 17.8266 107.934 12.0655C102.173 6.30439 94.8327 2.38103 86.8419 0.791549C78.851 -0.79793 70.5683 0.0178501 63.0411 3.13572C55.5138 6.2536 49.0802 11.5335 44.5538 18.3078C40.0273 25.0822 37.6113 33.0466 37.6113 41.194C37.6113 52.1193 41.9514 62.5972 49.6768 70.3225C57.4021 78.0479 67.88 82.388 78.8053 82.388Z" fill="#1C437C"/>
<path d="M115.972 40.7363C115.972 31.0249 112.114 21.7112 105.247 14.8442C98.3802 7.97722 89.0666 4.11938 79.3552 4.11938C69.6438 4.11938 60.3301 7.97722 53.4631 14.8442C46.5961 21.7112 42.7383 31.0249 42.7383 40.7363H115.972Z" fill="#8EC6D8"/>
<path d="M42.7383 42.4755C42.7383 52.1869 46.5961 61.5005 53.4631 68.3675C60.3301 75.2345 69.6438 79.0923 79.3552 79.0923C89.0666 79.0923 98.3802 75.2345 105.247 68.3675C112.114 61.5005 115.972 52.1869 115.972 42.4755H42.7383Z" fill="#1C437C"/>
<path d="M98.1209 39.8209C97.7164 32.8234 94.6516 26.2453 89.5544 21.4342C84.4571 16.6231 77.7132 13.9431 70.704 13.9431C63.6948 13.9431 56.9509 16.6231 51.8536 21.4342C46.7564 26.2453 43.6916 32.8234 43.2871 39.8209H98.1209Z" fill="white"/>
<path d="M43.0127 40.7363H115.972" stroke="#F0CA50" stroke-width="4"/>
<path d="M43.2871 41.1024C43.2871 48.3859 46.1805 55.3711 51.3307 60.5214C56.481 65.6716 63.4662 68.565 70.7498 68.565C78.0333 68.565 85.0186 65.6716 90.1688 60.5214C95.319 55.3711 98.2124 48.3859 98.2124 41.1024H43.2871Z" fill="#EE4D4A"/>
<path d="M43.3789 39.7292H98.1211" stroke="black" stroke-width="4"/>
<path d="M23.9995 84.7761C23.9995 84.7761 17.9099 89.9104 13.1338 87.5223C13.1338 87.5223 17.1338 92.2985 15.2233 98.3283C15.2233 98.3283 19.0442 94.6865 25.8502 95.582C25.8502 95.582 21.7905 93.1343 23.9995 84.7761Z" fill="#F0CA50"/>
<path d="M7.75008 58.0525L6.1123 51.9402L3.99273e-05 53.578L1.63782 59.6903L7.75008 58.0525Z" fill="#EE4D4A"/>
</svg>
