<svg width="115" height="47" viewBox="0 0 115 47" fill="none" xmlns="http://www.w3.org/2000/svg">
<path d="M42.9964 19.8241C42.8358 18.9308 41.4241 11.7342 34.4867 8.03441C29.7922 5.53223 24.323 5.56604 20.1131 7.46805C18.7606 8.07948 17.7349 8.79242 17.0559 9.32776C15.7005 7.89919 14.3451 6.47055 12.9897 5.04193C14.2577 3.94017 16.2274 2.48337 18.9156 1.41824C27.8255 -2.11808 36.0591 2.00998 37.0397 2.52282C42.6526 5.45051 45.4113 9.99563 46.4003 11.8525C48.091 15.0253 48.6687 17.9672 48.8913 19.8579C46.9244 19.8466 44.9604 19.8353 42.9964 19.8241Z" fill="#8EC6D8"/>
<path d="M27.5494 46.0968C18.1267 46.6688 10.3214 40.7092 6.79071 34.0395C3.62634 28.0629 4.26879 22.2245 4.49703 20.3704C5.26629 14.1487 8.2419 9.90225 9.64797 8.12988L13.807 12.5115C12.7531 13.8471 10.0452 17.6624 9.99454 23.1036C9.98891 23.67 10.0509 32.0163 16.8671 36.9418C18.1662 37.8801 21.649 40.0949 26.4814 39.9991C27.3437 39.9821 30.4094 39.8498 33.6668 38.0773C40.1308 34.5607 41.8694 27.5698 42.1766 26.2257L47.9756 26.2877C47.7361 28.3813 47.0654 31.7965 44.9183 35.3328C44.3491 36.2711 38.5726 45.4262 27.5494 46.0968Z" fill="#8EC6D8"/>
<path d="M14.2186 26.167H0.0507203L0 20.0918L14.2186 20.1171V26.167Z" fill="#8EC6D8"/>
<path d="M30.79 26.7836C32.9991 26.7921 35.2082 26.8005 37.4174 26.8061C37.1215 27.9981 36.6622 29.0971 36.0339 30.0974C35.4055 31.0976 34.6447 31.9684 33.7542 32.7067C32.8638 33.4449 31.8523 34.0198 30.7251 34.4311C29.598 34.8426 28.378 35.0482 27.0705 35.0482C25.4925 35.0482 24.0385 34.7439 22.7057 34.1325C21.3729 33.521 20.2204 32.6926 19.2539 31.6415C18.2846 30.5905 17.5294 29.362 16.9856 27.9559C16.4418 26.5498 16.1685 25.045 16.1685 23.4417C16.1685 21.8384 16.4389 20.328 16.9772 18.9163C17.5154 17.5046 18.2677 16.2676 19.237 15.211C20.2035 14.1543 21.356 13.3202 22.6888 12.7088C24.0217 12.0973 25.484 11.793 27.0733 11.793C28.3807 11.793 29.5952 11.9987 30.7167 12.4101C31.8382 12.8215 32.8441 13.3935 33.7345 14.1233C34.2531 14.5488 35.2167 15.349 36.0142 16.7325C36.8116 18.1189 37.0624 19.4348 37.1497 20.283C35.0138 20.2661 32.878 20.252 30.7421 20.2351C30.7364 20.2323 30.728 20.2294 30.7223 20.2267C30.6152 20.0097 30.4574 19.7448 30.2236 19.4799C29.7671 18.9643 29.2486 18.705 28.9359 18.5783C28.6794 18.4739 27.9299 18.1527 26.9098 18.1809C25.8503 18.2091 25.0867 18.5895 24.8416 18.722C23.7032 19.3306 23.1622 20.2435 22.9508 20.6127C22.8382 20.8071 22.4493 21.5172 22.3056 22.5344C22.283 22.6979 22.1957 23.3628 22.3281 24.2279C22.4042 24.7323 22.562 25.6903 23.2495 26.6624C23.4553 26.9527 23.9652 27.6543 24.9036 28.1587C25.2164 28.3278 26.8619 29.1647 28.7048 28.4546C29.8713 28.0066 30.5251 27.1669 30.79 26.7836Z" fill="#EE4D4A"/>
<path d="M63.6244 13.9273C61.9145 13.9273 60.6094 13.4518 59.709 12.5008C58.8186 11.5498 58.3735 10.1991 58.3735 8.44878C58.3735 7.57871 58.51 6.80474 58.7832 6.12687C59.0563 5.43889 59.4307 4.8622 59.9062 4.3968C60.3817 3.92129 60.9483 3.56212 61.606 3.3193C62.2636 3.07648 62.9768 2.95508 63.7458 2.95508C64.191 2.95508 64.5956 2.99048 64.9599 3.06131C65.3241 3.12201 65.6428 3.1979 65.916 3.28895C66.1891 3.36989 66.4167 3.45588 66.5988 3.54694C66.781 3.638 66.9125 3.70882 66.9934 3.7594L66.3105 5.67159C65.9868 5.49959 65.6074 5.35289 65.1723 5.23149C64.7474 5.11007 64.2618 5.04937 63.7154 5.04937C63.3512 5.04937 62.992 5.11007 62.6379 5.23149C62.294 5.35289 61.9854 5.55019 61.7122 5.82335C61.4491 6.0864 61.2367 6.4304 61.0748 6.85532C60.9129 7.28025 60.832 7.79623 60.832 8.4033C60.832 8.88891 60.8826 9.34421 60.9837 9.76911C61.095 10.184 61.267 10.5431 61.4997 10.8466C61.7426 11.1502 62.0562 11.393 62.4406 11.5751C62.8251 11.747 63.2905 11.8331 63.8368 11.8331C64.1808 11.8331 64.4894 11.8128 64.7626 11.7724C65.0358 11.7319 65.2786 11.6864 65.491 11.6358C65.7035 11.5751 65.8906 11.5093 66.0526 11.4385C66.2144 11.3677 66.3611 11.3019 66.4926 11.2412L67.1452 13.1382C66.8113 13.3406 66.3409 13.5227 65.7338 13.6845C65.1268 13.8464 64.4237 13.9273 63.6244 13.9273Z" fill="white"/>
<path d="M71.7047 13.8669C71.0471 13.8567 70.5108 13.7859 70.096 13.6544C69.6913 13.5229 69.3675 13.3408 69.1247 13.1081C68.892 12.8653 68.7302 12.5769 68.6391 12.243C68.5582 11.899 68.5177 11.5146 68.5177 11.0896V2.3027L70.7789 1.93848V10.6343C70.7789 10.8367 70.7941 11.0188 70.8245 11.1807C70.8548 11.3426 70.9105 11.4792 70.9914 11.5905C71.0825 11.7018 71.209 11.7928 71.3708 11.8636C71.5327 11.9345 71.7502 11.9799 72.0234 12.0002L71.7047 13.8669Z" fill="white"/>
<path d="M75.5807 13.7152H73.3194V5.73259H75.5807V13.7152ZM75.7932 3.42583C75.7932 3.84064 75.6566 4.16945 75.3834 4.41227C75.1203 4.64497 74.8067 4.76132 74.4425 4.76132C74.0783 4.76132 73.7596 4.64497 73.4864 4.41227C73.2233 4.16945 73.0918 3.84064 73.0918 3.42583C73.0918 3.01102 73.2233 2.68726 73.4864 2.45456C73.7596 2.21174 74.0783 2.09033 74.4425 2.09033C74.8067 2.09033 75.1203 2.21174 75.3834 2.45456C75.6566 2.68726 75.7932 3.01102 75.7932 3.42583Z" fill="white"/>
<path d="M77.3271 9.7243C77.3271 9.14756 77.4182 8.60627 77.6003 8.10044C77.7926 7.58445 78.0657 7.13928 78.4198 6.76494C78.7739 6.38048 79.2039 6.07696 79.7098 5.85438C80.2157 5.6318 80.7923 5.52051 81.4398 5.52051C81.865 5.52051 82.2546 5.56098 82.6083 5.64191C82.9629 5.71273 83.3068 5.81897 83.6402 5.96061L83.1699 7.76659C82.9572 7.68563 82.7249 7.6148 82.4722 7.5541C82.2187 7.49339 81.9359 7.46304 81.6221 7.46304C80.9542 7.46304 80.4534 7.67045 80.1195 8.08528C79.7958 8.50007 79.6339 9.04641 79.6339 9.7243C79.6339 10.4426 79.7856 10.9991 80.0892 11.3936C80.4028 11.7882 80.9441 11.9855 81.7134 11.9855C81.9864 11.9855 82.2798 11.9602 82.5936 11.9097C82.9066 11.8591 83.1952 11.7781 83.4584 11.6668L83.7771 13.5183C83.5139 13.6295 83.1854 13.7257 82.7909 13.8067C82.3956 13.8876 81.9611 13.928 81.4854 13.928C80.757 13.928 80.1297 13.8218 79.6036 13.6093C79.0774 13.3867 78.6424 13.0883 78.2984 12.714C77.9645 12.3396 77.7167 11.8995 77.5548 11.3936C77.403 10.8776 77.3271 10.3212 77.3271 9.7243Z" fill="white"/>
<path d="M87.5554 8.61598C87.7779 8.37309 88.0054 8.12017 88.2385 7.85715C88.4814 7.59409 88.7136 7.33609 88.9362 7.08316C89.1587 6.82012 89.3665 6.57224 89.5589 6.33953C89.761 6.10684 89.933 5.90449 90.0748 5.73249H92.7605C92.225 6.34966 91.6984 6.94152 91.1825 7.50809C90.6763 8.06459 90.1205 8.64125 89.5132 9.23812C89.8164 9.51134 90.1302 9.84013 90.4538 10.2246C90.7782 10.599 91.0912 10.9885 91.3952 11.3932C91.6984 11.7978 91.9764 12.2025 92.2299 12.6072C92.4825 13.012 92.6953 13.3812 92.8672 13.7151H90.2721C90.1099 13.452 89.9232 13.1637 89.7105 12.8501C89.5083 12.5263 89.2907 12.2076 89.0576 11.8939C88.8253 11.5702 88.5775 11.2616 88.3143 10.9683C88.0616 10.6748 87.8081 10.427 87.5554 10.2246V13.7151H85.2944V2.3027L87.5554 1.93848V8.61598Z" fill="white"/>
<path d="M66.629 18.9062V20.9247H63.4572V29.4233H61.0897V20.9247H57.918V18.9062H66.629Z" fill="white"/>
<path d="M67.999 29.4231V18.0107L70.2602 17.6465V21.4709C70.412 21.4203 70.6042 21.3748 70.8369 21.3343C71.0798 21.2836 71.3125 21.2584 71.535 21.2584C72.1826 21.2584 72.7187 21.3494 73.1437 21.5316C73.5787 21.7036 73.9228 21.9514 74.1757 22.2752C74.4387 22.5989 74.6209 22.9834 74.722 23.4286C74.8333 23.8738 74.8889 24.3695 74.8889 24.9158V29.4231H72.6277V25.189C72.6277 24.4605 72.5316 23.9445 72.3394 23.6411C72.1572 23.3375 71.8133 23.1858 71.3074 23.1858C71.1051 23.1858 70.9128 23.206 70.7307 23.2464C70.5587 23.2768 70.4019 23.3122 70.2602 23.3527V29.4231H67.999Z" fill="white"/>
<path d="M76.5562 25.492C76.5562 24.7838 76.6624 24.1666 76.8748 23.6406C77.0974 23.1043 77.3857 22.6591 77.7399 22.3051C78.0939 21.9509 78.4986 21.6828 78.9539 21.5007C79.4193 21.3186 79.8948 21.2275 80.3805 21.2275C81.5133 21.2275 82.4091 21.5766 83.0668 22.2747C83.7246 22.9627 84.0531 23.9795 84.0531 25.3251C84.0531 25.4566 84.0482 25.6033 84.0376 25.7652C84.0278 25.917 84.018 26.0535 84.0074 26.1749H78.878C78.9287 26.6403 79.1462 27.0096 79.5307 27.2828C79.9151 27.5559 80.4311 27.6925 81.0786 27.6925C81.4934 27.6925 81.898 27.6571 82.2925 27.5863C82.6976 27.5054 83.0261 27.4093 83.2788 27.2979L83.5828 29.1343C83.4613 29.1949 83.2991 29.2556 83.097 29.3164C82.8949 29.3771 82.6666 29.4276 82.414 29.4681C82.1711 29.5188 81.9078 29.5592 81.625 29.5895C81.3417 29.6199 81.0584 29.6351 80.7751 29.6351C80.0567 29.6351 79.4294 29.5289 78.8933 29.3164C78.3672 29.1039 77.927 28.8156 77.5729 28.4513C77.2289 28.077 76.9709 27.6368 76.799 27.131C76.6371 26.6252 76.5562 26.0788 76.5562 25.492ZM81.8679 24.6269C81.8573 24.4348 81.8222 24.2475 81.7619 24.0654C81.7106 23.8834 81.625 23.7215 81.5035 23.5798C81.3922 23.4382 81.2456 23.3218 81.0634 23.2307C80.8914 23.1397 80.6739 23.0942 80.4109 23.0942C80.1579 23.0942 79.9404 23.1397 79.7583 23.2307C79.5761 23.3117 79.4244 23.423 79.303 23.5647C79.1816 23.7062 79.0855 23.8733 79.0146 24.0654C78.9539 24.2475 78.9084 24.4348 78.878 24.6269H81.8679Z" fill="white"/>
<path d="M85.7983 21.7141C86.183 21.6028 86.6786 21.5016 87.2858 21.4106C87.8922 21.3094 88.5296 21.2588 89.1979 21.2588C89.8753 21.2588 90.4368 21.3498 90.8819 21.532C91.3375 21.704 91.6969 21.9518 91.9594 22.2756C92.2227 22.5993 92.4101 22.9838 92.521 23.429C92.6326 23.8742 92.6881 24.3699 92.6881 24.9162V29.4235H90.4271V25.1894C90.4271 24.461 90.3309 23.9449 90.1385 23.6415C89.9462 23.3379 89.5875 23.1862 89.061 23.1862C88.8996 23.1862 88.7276 23.1963 88.5451 23.2165C88.3633 23.2266 88.2011 23.2418 88.0593 23.2621V29.4235H85.7983V21.7141Z" fill="white"/>
<path d="M63.6244 44.32C61.9145 44.32 60.6094 43.8444 59.709 42.8933C58.8186 41.9423 58.3735 40.5917 58.3735 38.8414C58.3735 37.9713 58.51 37.1973 58.7832 36.5194C59.0563 35.8314 59.4307 35.2548 59.9062 34.7894C60.3817 34.3138 60.9483 33.9546 61.606 33.7118C62.2636 33.469 62.9768 33.3477 63.7458 33.3477C64.191 33.3477 64.5956 33.383 64.9599 33.4539C65.3241 33.5146 65.6428 33.5905 65.916 33.6815C66.1891 33.7624 66.4167 33.8484 66.5988 33.9395C66.781 34.0305 66.9125 34.1013 66.9934 34.152L66.3105 36.0641C65.9868 35.8921 65.6074 35.7454 65.1723 35.6241C64.7474 35.5026 64.2618 35.4419 63.7154 35.4419C63.3512 35.4419 62.992 35.5026 62.6379 35.6241C62.294 35.7454 61.9854 35.9428 61.7122 36.2159C61.4491 36.479 61.2367 36.8229 61.0748 37.2478C60.9129 37.6728 60.832 38.1888 60.832 38.7958C60.832 39.2814 60.8826 39.7367 60.9837 40.1617C61.095 40.5765 61.267 40.9356 61.4997 41.2392C61.7426 41.5427 62.0562 41.7855 62.4406 41.9677C62.8251 42.1396 63.2905 42.2256 63.8368 42.2256C64.1808 42.2256 64.4894 42.2054 64.7626 42.1649C65.0358 42.1245 65.2786 42.0789 65.491 42.0283C65.7035 41.9677 65.8906 41.9019 66.0526 41.8311C66.2144 41.7602 66.3611 41.6945 66.4926 41.6337L67.1452 43.5308C66.8113 43.7331 66.3409 43.9152 65.7338 44.0771C65.1268 44.239 64.4237 44.32 63.6244 44.32Z" fill="white"/>
<path d="M75.8065 40.1008C75.8065 40.728 75.7154 41.3047 75.5333 41.8308C75.3512 42.3468 75.0881 42.7919 74.7442 43.1663C74.4002 43.5306 73.9853 43.8138 73.4997 44.0162C73.0242 44.2185 72.488 44.3197 71.8911 44.3197C71.3043 44.3197 70.768 44.2185 70.2824 44.0162C69.8069 43.8138 69.3972 43.5306 69.0531 43.1663C68.7092 42.7919 68.4411 42.3468 68.2488 41.8308C68.0566 41.3047 67.9605 40.728 67.9605 40.1008C67.9605 39.4735 68.0566 38.9018 68.2488 38.3858C68.4512 37.8698 68.7243 37.4298 69.0684 37.0655C69.4224 36.7013 69.8372 36.418 70.3128 36.2156C70.7984 36.0133 71.3245 35.9121 71.8911 35.9121C72.4678 35.9121 72.9939 36.0133 73.4694 36.2156C73.955 36.418 74.3698 36.7013 74.7139 37.0655C75.0578 37.4298 75.3259 37.8698 75.5182 38.3858C75.7104 38.9018 75.8065 39.4735 75.8065 40.1008ZM73.4997 40.1008C73.4997 39.4026 73.3581 38.8563 73.0748 38.4617C72.8016 38.057 72.407 37.8547 71.8911 37.8547C71.3751 37.8547 70.9755 38.057 70.6921 38.4617C70.4089 38.8563 70.2672 39.4026 70.2672 40.1008C70.2672 40.7989 70.4089 41.3553 70.6921 41.7701C70.9755 42.1748 71.3751 42.3772 71.8911 42.3772C72.407 42.3772 72.8016 42.1748 73.0748 41.7701C73.3581 41.3553 73.4997 40.7989 73.4997 40.1008Z" fill="white"/>
<path d="M77.558 36.3987C77.9425 36.2873 78.4383 36.1862 79.0453 36.0951C79.6524 35.9939 80.2897 35.9434 80.9575 35.9434C81.6357 35.9434 82.1973 36.0344 82.6423 36.2165C83.0971 36.3885 83.4565 36.6364 83.7198 36.9602C83.9823 37.2839 84.1697 37.6684 84.2814 38.1135C84.3922 38.5587 84.4477 39.0544 84.4477 39.6007V44.1081H82.1867V39.8739C82.1867 39.1455 82.0905 38.6295 81.8981 38.326C81.7066 38.0224 81.3471 37.8707 80.8209 37.8707C80.6591 37.8707 80.4871 37.8808 80.3049 37.9011C80.1228 37.9112 79.961 37.9263 79.8193 37.9466V44.1081H77.558V36.3987Z" fill="white"/>
<path d="M88.4276 44.1076C87.9117 43.0959 87.386 41.9122 86.8497 40.5565C86.3231 39.2007 85.8227 37.7235 85.3467 36.125H87.7446C87.8457 36.5196 87.9622 36.9496 88.0943 37.415C88.2353 37.8702 88.3771 38.3356 88.5189 38.8111C88.6705 39.2765 88.8172 39.7318 88.9591 40.177C89.1107 40.6221 89.2574 41.0269 89.3992 41.3911C89.5304 41.0269 89.6723 40.6221 89.8239 40.177C89.9755 39.7318 90.1222 39.2765 90.264 38.8111C90.4156 38.3356 90.5574 37.8702 90.6886 37.415C90.8305 36.9496 90.9519 36.5196 91.053 36.125H93.3906C92.9146 37.7235 92.4093 39.2007 91.8729 40.5565C91.3464 41.9122 90.8256 43.0959 90.3096 44.1076H88.4276Z" fill="white"/>
<path d="M94.0151 40.1766C94.0151 39.4684 94.1211 38.8512 94.3338 38.3251C94.5563 37.7889 94.8441 37.3438 95.1986 36.9896C95.5524 36.6356 95.9574 36.3674 96.4123 36.1853C96.8777 36.0032 97.3537 35.9121 97.8394 35.9121C98.9724 35.9121 99.8673 36.2612 100.525 36.9593C101.183 37.6473 101.512 38.664 101.512 40.0097C101.512 40.1412 101.506 40.2879 101.497 40.4498C101.487 40.6015 101.476 40.7381 101.467 40.8596H96.3365C96.387 41.3249 96.6046 41.6942 96.9893 41.9674C97.374 42.2406 97.89 42.3772 98.5371 42.3772C98.952 42.3772 99.3571 42.3417 99.7516 42.2709C100.156 42.1899 100.485 42.0938 100.738 41.9826L101.041 43.8189C100.92 43.8796 100.758 43.9403 100.556 44.001C100.353 44.0617 100.126 44.1123 99.873 44.1527C99.6301 44.2033 99.3669 44.2438 99.0832 44.2742C98.8004 44.3045 98.5168 44.3197 98.2339 44.3197C97.515 44.3197 96.8883 44.2134 96.3519 44.001C95.8262 43.7885 95.3861 43.5002 95.0315 43.136C94.6876 42.7616 94.43 42.3215 94.258 41.8157C94.0958 41.3097 94.0151 40.7634 94.0151 40.1766ZM99.3261 39.3116C99.3163 39.1193 99.2813 38.9322 99.2202 38.7501C99.1696 38.5679 99.0832 38.4061 98.9626 38.2644C98.8509 38.1228 98.7042 38.0064 98.5225 37.9154C98.3505 37.8243 98.1329 37.7788 97.8696 37.7788C97.6169 37.7788 97.3993 37.8243 97.2167 37.9154C97.035 37.9963 96.8834 38.1076 96.7619 38.2492C96.6405 38.3909 96.5443 38.5578 96.4734 38.7501C96.4123 38.9322 96.3674 39.1193 96.3365 39.3116H99.3261Z" fill="white"/>
<path d="M108.068 38.1282C107.866 38.0776 107.628 38.027 107.355 37.9764C107.082 37.9157 106.788 37.8854 106.474 37.8854C106.333 37.8854 106.161 37.9006 105.958 37.9309C105.766 37.9511 105.619 37.9764 105.518 38.0068V44.1076H103.257V36.5498C103.662 36.4083 104.137 36.2767 104.684 36.1553C105.24 36.0238 105.857 35.958 106.535 35.958C106.656 35.958 106.803 35.9681 106.975 35.9883C107.147 35.9984 107.319 36.0187 107.491 36.049C107.663 36.0693 107.835 36.0997 108.007 36.1401C108.179 36.1705 108.325 36.2109 108.447 36.2615L108.068 38.1282Z" fill="white"/>
<path d="M109.583 34.1367L111.845 33.7725V36.1248H114.561V38.0066H111.845V40.8142C111.845 41.2897 111.926 41.6691 112.088 41.9523C112.26 42.2357 112.598 42.3773 113.104 42.3773C113.347 42.3773 113.595 42.3571 113.847 42.3166C114.111 42.266 114.349 42.2003 114.561 42.1193L114.88 43.8797C114.606 43.991 114.303 44.0872 113.969 44.1681C113.636 44.249 113.226 44.2895 112.74 44.2895C112.123 44.2895 111.612 44.2085 111.207 44.0467C110.802 43.8747 110.479 43.642 110.236 43.3485C109.993 43.045 109.821 42.6808 109.72 42.2559C109.629 41.831 109.583 41.3605 109.583 40.8445V34.1367Z" fill="white"/>
</svg>
