<svg width="115" height="49" viewBox="0 0 115 49" fill="none" xmlns="http://www.w3.org/2000/svg">
<g clip-path="url(#clip0_1437_297)">
<path d="M45.2775 20.8813C45.111 19.9416 43.6182 12.3587 36.3148 8.46313C33.9994 7.23088 31.4356 6.5374 28.8147 6.43442C26.1939 6.33144 23.5836 6.82162 21.1786 7.86839C20.0297 8.38572 18.949 9.04291 17.9611 9.82508L13.679 5.311C15.5279 3.69491 17.6374 2.40388 19.9178 1.49277C29.2968 -2.2303 37.9681 2.08751 39.003 2.68225C42.4122 4.47952 45.3316 7.08128 47.508 10.2619C49.6844 13.4426 51.0521 17.1061 51.4925 20.9348L45.2775 20.8813Z" fill="#5C9EDC"/>
<path d="M29.0114 48.5488C19.0911 49.1436 10.8658 42.875 7.14872 35.8511C4.88778 31.4123 4.04488 26.3861 4.73408 21.4525C5.33139 16.7418 7.20723 12.2846 10.1581 8.56445L14.5413 13.1796C12.0137 16.3548 10.6009 20.2734 10.5209 24.331C10.5209 24.9258 10.5804 33.716 17.7589 38.9021C20.2855 40.7718 23.2953 41.8776 26.4314 42.0885C29.5675 42.2993 32.6983 41.6063 35.4524 40.0916C42.2622 36.3864 44.088 29.0295 44.4151 27.6021L50.5231 27.6675C50.1467 31.0346 49.0471 34.2806 47.2996 37.1833C46.7049 38.2003 40.6207 47.8411 29.0114 48.5488Z" fill="#5C9EDC"/>
<path d="M14.9756 27.56H0.0535266L0 21.1606L14.9756 21.1844V27.56Z" fill="#5C9EDC"/>
<path d="M32.4253 28.2084H39.4016C39.1028 29.4342 38.611 30.6046 37.9445 31.6758C37.3029 32.7126 36.4998 33.6402 35.5655 34.4235C34.613 35.1965 33.5347 35.8 32.3777 36.2077C31.1436 36.6509 29.8409 36.8724 28.5297 36.8619C26.9431 36.8954 25.3682 36.5829 23.9146 35.946C22.5393 35.3248 21.3034 34.4328 20.2807 33.3232C19.2519 32.191 18.4449 30.8756 17.9017 29.4455C16.7629 26.3758 16.7629 22.9994 17.9017 19.9297C18.4385 18.4875 19.2459 17.1612 20.2807 16.0222C21.3012 14.9071 22.5375 14.0108 23.9146 13.3875C26.5912 12.2197 29.6109 12.1092 32.3658 13.0783C33.5198 13.4885 34.5958 14.0918 35.5477 14.8625C36.5073 15.6197 37.3146 16.5521 37.9266 17.6102C38.5788 18.7609 38.9839 20.035 39.1161 21.3511L32.3658 21.2976C32.2268 21.0107 32.0486 20.7445 31.8365 20.5066C31.4648 20.0895 31.0003 19.7656 30.4805 19.5609C29.8086 19.2718 29.0826 19.1299 28.3513 19.1446C27.5903 19.1648 26.8439 19.358 26.1686 19.7096C25.3295 20.172 24.6387 20.8629 24.1762 21.702C23.827 22.3303 23.5971 23.018 23.4982 23.73C23.4147 24.3219 23.4147 24.9225 23.4982 25.5143C23.6101 26.4343 23.9427 27.3138 24.4677 28.0776C24.9179 28.7315 25.5146 29.2712 26.2103 29.6537C26.8194 29.9832 27.4911 30.181 28.1817 30.2343C28.8722 30.2876 29.5663 30.1951 30.2188 29.9629C31.1146 29.6144 31.8839 29.0027 32.4253 28.2084Z" fill="#EE4D4A"/>
</g>
<g clip-path="url(#clip1_1437_297)">
<path d="M65.8855 16.0637C65.1676 16.0744 64.4545 15.9451 63.786 15.6831C63.1671 15.4433 62.6101 15.0673 62.1564 14.5828C61.6861 14.0671 61.3277 13.4596 61.1037 12.7986C60.8467 12.0118 60.7221 11.1877 60.735 10.3601C60.7197 9.52647 60.8609 8.69734 61.1513 7.91575C61.4058 7.25186 61.7899 6.64532 62.2813 6.13153C62.7501 5.64971 63.3156 5.27269 63.9407 5.02531C64.5837 4.76885 65.2705 4.63959 65.9628 4.64468C66.3731 4.64325 66.7828 4.67508 67.1879 4.73984C67.5073 4.79406 67.8231 4.86754 68.1336 4.95989C68.3572 5.03032 68.5757 5.11576 68.7878 5.21563C68.9083 5.27237 69.0254 5.33591 69.1387 5.40594L68.6986 6.66679C68.5664 6.58656 68.427 6.51886 68.2823 6.46458C68.1038 6.38726 67.9016 6.3159 67.6875 6.23858C67.444 6.1625 67.1956 6.10289 66.9441 6.06016C66.6771 6.01256 66.4064 5.98867 66.1352 5.98879C65.5991 5.98118 65.067 6.08234 64.5711 6.28616C64.1131 6.48313 63.7063 6.78217 63.3816 7.16042C63.0441 7.56698 62.7895 8.03575 62.6322 8.54023C62.4512 9.13168 62.363 9.74759 62.3705 10.3661C62.3637 10.9688 62.4418 11.5694 62.6025 12.1503C62.7373 12.652 62.9719 13.1213 63.2924 13.5301C63.5949 13.9159 63.9868 14.2221 64.4343 14.4222C64.9399 14.6439 65.4882 14.7516 66.0401 14.7374C66.6307 14.7536 67.2204 14.6794 67.7886 14.5174C68.1458 14.4097 68.4955 14.2786 68.8354 14.1248L69.2279 15.3857C69.1049 15.4657 68.9732 15.5316 68.8354 15.5819C68.6042 15.6786 68.3655 15.7562 68.1217 15.8139C67.7942 15.8948 67.4627 15.9583 67.1285 16.0042C66.716 16.0531 66.3007 16.073 65.8855 16.0637Z" fill="#4E565C"/>
<path d="M73.1175 15.9865C72.424 16.031 71.7384 15.8194 71.1906 15.3918C70.9847 15.1574 70.8285 14.8837 70.7314 14.5873C70.6343 14.2909 70.5983 13.9778 70.6255 13.667V3.82409L72.0946 3.56836V13.441C72.0893 13.641 72.1093 13.8408 72.154 14.0358C72.1877 14.1791 72.2597 14.3107 72.3622 14.4164C72.4675 14.5176 72.5962 14.5911 72.7369 14.6305C72.9323 14.6831 73.131 14.7229 73.3316 14.7495L73.1175 15.9865Z" fill="#4E565C"/>
<path d="M75.4727 6.1315C75.223 6.13583 74.9816 6.04184 74.8006 5.86981C74.6251 5.67706 74.5278 5.42574 74.5278 5.16504C74.5278 4.90435 74.6251 4.65303 74.8006 4.46028C74.9858 4.29558 75.2249 4.20459 75.4727 4.20459C75.7205 4.20459 75.9596 4.29558 76.1447 4.46028C76.3203 4.65303 76.4176 4.90435 76.4176 5.16504C76.4176 5.42574 76.3203 5.67706 76.1447 5.86981C75.9637 6.04184 75.7224 6.13583 75.4727 6.1315ZM76.2161 15.8258H74.7471V7.6124H76.2161V15.8258Z" fill="#4E565C"/>
<path d="M82.0922 16.0165C81.4942 16.0281 80.8999 15.921 80.3436 15.7012C79.8616 15.5053 79.4304 15.2022 79.0828 14.8151C78.731 14.4268 78.4691 13.9659 78.3156 13.465C78.1406 12.905 78.0543 12.321 78.0598 11.7343C78.0545 11.1438 78.149 10.5567 78.3393 9.99769C78.5104 9.49843 78.7748 9.03624 79.1185 8.63574C79.461 8.2464 79.8855 7.93768 80.3615 7.73173C80.8783 7.51194 81.4354 7.40255 81.997 7.41057C82.3678 7.40975 82.738 7.4416 83.1032 7.50573C83.4661 7.56482 83.8213 7.66457 84.1619 7.8031L83.8288 9.05206C83.5838 8.93758 83.3263 8.85176 83.0616 8.79631C82.7556 8.741 82.4447 8.71709 82.1338 8.72495C81.7804 8.70598 81.4273 8.76608 81.1001 8.90086C80.773 9.03564 80.48 9.24171 80.2425 9.50405C79.7644 10.1542 79.5326 10.953 79.5883 11.7581C79.5831 12.1694 79.6331 12.5794 79.737 12.9773C79.8272 13.3225 79.9894 13.6448 80.2128 13.923C80.4352 14.1862 80.7192 14.3905 81.0395 14.5177C81.4347 14.6655 81.8547 14.7362 82.2765 14.7259C82.6323 14.729 82.9873 14.6931 83.3352 14.6188C83.5878 14.5626 83.8348 14.483 84.0727 14.3809L84.2808 15.612C84.1666 15.6767 84.0447 15.7266 83.918 15.7607C83.7574 15.8083 83.579 15.8499 83.3828 15.8916L82.7404 15.9867C82.525 16.0078 82.3086 16.0177 82.0922 16.0165Z" fill="#4E565C"/>
<path d="M88.6163 11.3119C88.9706 11.5867 89.3045 11.8869 89.6154 12.2099C89.9723 12.5668 90.3172 12.9534 90.6622 13.3697C91.0071 13.786 91.3283 14.2083 91.6316 14.6365C91.9091 15.0198 92.1671 15.4168 92.4048 15.826H90.686C90.46 15.4572 90.2102 15.0825 89.9188 14.6959C89.6273 14.3094 89.324 13.9466 89.0088 13.5957C88.7058 13.2532 88.3841 12.9275 88.0453 12.6203C87.7504 12.3526 87.4385 12.1043 87.1116 11.8769V15.826H85.6426V3.82409L87.1116 3.56836V11.0561L87.9502 10.2175C88.2535 9.91423 88.5449 9.62281 88.8542 9.28976L89.6868 8.37981C89.9545 8.08838 90.1805 7.83265 90.3708 7.61259H92.0896C91.8457 7.87428 91.584 8.1657 91.2986 8.48091C91.0131 8.79612 90.7038 9.11728 90.4124 9.43844L89.4905 10.4019L88.6163 11.3119Z" fill="#4E565C"/>
<path d="M68.4904 19.3232V20.6495H65.0468V30.2665H63.5124V20.6495H60.0688V19.3232H68.4904Z" fill="#4E565C"/>
<path d="M69.7869 30.2662V18.2406L71.2559 17.9849V22.1897C71.5391 22.0799 71.8317 21.9963 72.1301 21.9399C72.4364 21.8856 72.7469 21.8578 73.0579 21.8566C73.612 21.8388 74.164 21.9318 74.6816 22.1302C75.0871 22.2949 75.4435 22.5611 75.7164 22.9034C75.9823 23.2559 76.1689 23.6616 76.2636 24.0928C76.3699 24.5973 76.4217 25.1117 76.4182 25.6273V30.2365H74.9492V25.9722C74.9571 25.5378 74.9232 25.1036 74.8481 24.6757C74.796 24.366 74.6806 24.0704 74.5091 23.8074C74.3509 23.5883 74.1316 23.4207 73.8787 23.3256C73.5631 23.2179 73.2307 23.1676 72.8974 23.1769C72.735 23.1653 72.572 23.1653 72.4097 23.1769L71.9279 23.2483C71.7893 23.2686 71.6521 23.2984 71.5176 23.3375C71.4283 23.356 71.3408 23.3819 71.2559 23.4148V30.2365L69.7869 30.2662Z" fill="#4E565C"/>
<path d="M78.125 26.1743C78.1126 25.5259 78.2194 24.8808 78.4402 24.2711C78.6284 23.7704 78.9133 23.3116 79.2788 22.921C79.6145 22.5728 80.0198 22.2993 80.4683 22.1181C80.911 21.9415 81.3833 21.8507 81.86 21.8505C82.3339 21.8206 82.8084 21.8981 83.2482 22.0773C83.6879 22.2565 84.0815 22.5327 84.3995 22.8853C85.0571 23.7965 85.3711 24.9111 85.2857 26.0315V26.2813C85.292 26.3724 85.292 26.4638 85.2857 26.5549H79.6654C79.6707 27.2716 79.9347 27.9622 80.4088 28.4997C80.6843 28.7398 81.0053 28.9219 81.3527 29.0353C81.7001 29.1487 82.0668 29.1911 82.4309 29.1599C82.8687 29.1686 83.3061 29.1247 83.7334 29.029C84.0062 28.9654 84.2729 28.8778 84.5303 28.7673L84.7326 29.9984C84.432 30.1353 84.1167 30.237 83.7929 30.3018C83.2927 30.4097 82.782 30.4615 82.2703 30.4564C81.6368 30.4708 81.0066 30.3617 80.4147 30.1352C79.9248 29.9385 79.4856 29.6335 79.1301 29.2431C78.7863 28.8512 78.5289 28.3911 78.3748 27.8931C78.2061 27.3358 78.1219 26.7565 78.125 26.1743ZM83.7631 25.3714C83.798 24.7849 83.623 24.2051 83.2695 23.7358C83.1006 23.5251 82.8844 23.3571 82.6385 23.2455C82.3926 23.1339 82.1238 23.0818 81.854 23.0935C81.5445 23.0857 81.2378 23.1552 80.9619 23.2957C80.7112 23.4198 80.4886 23.5939 80.3077 23.8072C80.125 24.0221 79.9821 24.2678 79.8854 24.5328C79.7851 24.803 79.7192 25.0847 79.6892 25.3714H83.7631Z" fill="#4E565C"/>
<path d="M87.1948 22.2906C87.5279 22.2074 87.9799 22.1182 88.533 22.023C89.1702 21.9218 89.8148 21.8741 90.4599 21.8803C91.016 21.8617 91.5701 21.9547 92.0895 22.1538C92.4951 22.3185 92.8515 22.5848 93.1244 22.927C93.3902 23.2795 93.5768 23.6852 93.6715 24.1165C93.7778 24.621 93.8297 25.1354 93.8262 25.6509V30.2602H92.3572V25.9721C92.3621 25.5377 92.3282 25.1039 92.2561 24.6755C92.2039 24.3659 92.0886 24.0703 91.9171 23.8072C91.7589 23.5881 91.5396 23.4206 91.2866 23.3255C90.971 23.2178 90.6387 23.1674 90.3053 23.1768H89.8176L89.3359 23.2184L88.9255 23.272L88.6638 23.3195V30.2542H87.1948V22.2906Z" fill="#4E565C"/>
<path d="M65.8855 44.8435C65.1676 44.8542 64.4545 44.7249 63.786 44.4628C63.1671 44.2231 62.6101 43.8471 62.1564 43.3626C61.6861 42.8469 61.3277 42.2394 61.1037 41.5783C60.8467 40.7916 60.7221 39.9675 60.735 39.1399C60.7197 38.3063 60.8609 37.4771 61.1513 36.6955C61.4058 36.0316 61.7899 35.4251 62.2813 34.9113C62.7501 34.4295 63.3156 34.0525 63.9407 33.8051C64.5837 33.5486 65.2705 33.4194 65.9628 33.4245C66.3731 33.423 66.7828 33.4549 67.1879 33.5196C67.5073 33.5738 67.8231 33.6473 68.1336 33.7397C68.3572 33.8101 68.5757 33.8955 68.7878 33.9954C68.9083 34.0522 69.0254 34.1157 69.1387 34.1857L68.6986 35.4466C68.5664 35.3663 68.427 35.2986 68.2823 35.2444C68.0878 35.1612 67.8893 35.0877 67.6875 35.0243C67.445 34.9434 67.1964 34.8817 66.9441 34.8399C66.6771 34.7923 66.4064 34.7685 66.1352 34.7686C65.5991 34.761 65.067 34.8621 64.5711 35.0659C64.1131 35.2629 63.7063 35.562 63.3816 35.9402C63.0441 36.3468 62.7895 36.8155 62.6322 37.32C62.4512 37.9115 62.363 38.5274 62.3705 39.1459C62.3637 39.7485 62.4418 40.3492 62.6025 40.9301C62.7373 41.4317 62.9719 41.9011 63.2924 42.3099C63.5949 42.6956 63.9868 43.0019 64.4343 43.202C64.9399 43.4237 65.4882 43.5313 66.0401 43.5172C66.6307 43.5334 67.2204 43.4592 67.7886 43.2971C68.1458 43.1895 68.4955 43.0584 68.8354 42.9046L69.2279 44.1655C69.1041 44.2457 68.9726 44.3134 68.8354 44.3677C68.603 44.4594 68.3645 44.535 68.1217 44.5937C67.7942 44.6745 67.4627 44.7381 67.1285 44.784C66.716 44.8329 66.3007 44.8528 65.8855 44.8435Z" fill="#4E565C"/>
<path d="M77.6673 40.5019C77.6782 41.1088 77.5815 41.7129 77.3818 42.2861C77.2089 42.7884 76.938 43.2513 76.5849 43.6481C76.2453 44.0256 75.8271 44.324 75.3597 44.5224C74.8698 44.7265 74.3442 44.8316 73.8134 44.8316C73.2826 44.8316 72.757 44.7265 72.2671 44.5224C71.7997 44.324 71.3815 44.0256 71.0419 43.6481C70.6846 43.2466 70.4116 42.7773 70.239 42.2683C69.8585 41.1235 69.8585 39.8863 70.239 38.7415C70.4106 38.2369 70.6816 37.7718 71.036 37.3736C71.3753 36.9944 71.7935 36.694 72.2611 36.4934C73.2523 36.0888 74.3626 36.0888 75.3538 36.4934C75.8214 36.694 76.2396 36.9944 76.5789 37.3736C76.9333 37.7718 77.2043 38.2369 77.3759 38.7415C77.5741 39.307 77.6727 39.9027 77.6673 40.5019ZM76.1388 40.5019C76.1878 39.7211 75.9789 38.9459 75.5441 38.2954C75.3401 38.0412 75.0817 37.8359 74.7878 37.6949C74.4939 37.5539 74.1721 37.4807 73.8461 37.4807C73.5201 37.4807 73.1983 37.5539 72.9044 37.6949C72.6106 37.8359 72.3521 38.0412 72.1481 38.2954C71.7397 38.9579 71.5235 39.7208 71.5235 40.499C71.5235 41.2771 71.7397 42.04 72.1481 42.7025C72.3521 42.9567 72.6106 43.162 72.9044 43.303C73.1983 43.444 73.5201 43.5172 73.8461 43.5172C74.1721 43.5172 74.4939 43.444 74.7878 43.303C75.0817 43.162 75.3401 42.9567 75.5441 42.7025C75.9776 42.0537 76.1865 41.2807 76.1388 40.5019Z" fill="#4E565C"/>
<path d="M79.5168 36.6297C79.8558 36.5465 80.3019 36.4573 80.8609 36.3621C81.4981 36.2607 82.1427 36.213 82.7879 36.2194C83.3418 36.2042 83.8932 36.2971 84.4115 36.493C84.8186 36.6579 85.1754 36.9265 85.4464 37.2721C85.7163 37.6221 85.9034 38.0288 85.9936 38.4615C86.1028 38.9656 86.1547 39.4803 86.1482 39.996V44.6052H84.6792V40.3112C84.6871 39.8768 84.6532 39.4426 84.5781 39.0146C84.5314 38.7035 84.4155 38.4068 84.2391 38.1463C84.0809 37.9272 83.8616 37.7597 83.6087 37.6646C83.2933 37.5559 82.9607 37.5055 82.6273 37.5159H82.1397L81.6579 37.5575L81.2475 37.6111L80.9859 37.6586V44.5933H79.5168V36.6297Z" fill="#4E565C"/>
<path d="M94.5222 36.3921C94.1255 37.9013 93.643 39.3866 93.077 40.8407C92.5239 42.2503 91.9886 43.5171 91.4771 44.6292H90.1449C89.6334 43.5171 89.0982 42.2503 88.5451 40.8407C87.9799 39.3944 87.4974 37.917 87.0999 36.4159H88.6759C88.8068 36.9333 88.9554 37.4805 89.1279 38.0693C89.3004 38.658 89.4848 39.229 89.681 39.8059C89.8773 40.3828 90.0736 40.9359 90.2758 41.4712C90.478 42.0064 90.6624 42.4882 90.8408 42.9104C91.0192 42.4882 91.2095 42.0064 91.4355 41.4712C91.6615 40.9359 91.834 40.3768 92.0303 39.8059C92.2265 39.2349 92.4109 38.6521 92.5834 38.0693C92.7558 37.4864 92.9105 36.9333 93.0353 36.4159L94.5222 36.3921Z" fill="#4E565C"/>
<path d="M95.1405 40.5136C95.1258 39.8651 95.2327 39.2196 95.4557 38.6105C95.6393 38.1075 95.9248 37.6479 96.2943 37.2604C96.6285 36.9104 97.0342 36.6365 97.4838 36.4575C97.9267 36.2814 98.3989 36.1906 98.8755 36.1899C99.3503 36.1599 99.8257 36.2374 100.266 36.4166C100.707 36.5957 101.102 36.872 101.421 37.2247C102.08 38.1375 102.394 39.2544 102.307 40.3769V40.6207C102.314 40.7118 102.314 40.8032 102.307 40.8943H96.6809C96.6915 41.61 96.9548 42.2988 97.4243 42.8391C97.7 43.0788 98.0211 43.2608 98.3684 43.3742C98.7158 43.4876 99.0823 43.5301 99.4464 43.4992C99.8843 43.5087 100.322 43.4647 100.749 43.3684C101.022 43.3057 101.289 43.2181 101.546 43.1067L101.754 44.3378C101.453 44.4737 101.138 44.5754 100.814 44.6411C100.314 44.7487 99.8035 44.8006 99.2918 44.7958C98.6563 44.8106 98.024 44.7015 97.4303 44.4746C96.9408 44.277 96.5018 43.9721 96.1456 43.5825C95.8015 43.1917 95.5459 42.7312 95.3962 42.2324C95.2227 41.6762 95.1364 41.0963 95.1405 40.5136ZM100.779 39.7107C100.814 39.1232 100.637 38.5425 100.279 38.0752C100.11 37.8648 99.8939 37.6975 99.6478 37.5869C99.4018 37.4762 99.133 37.4255 98.8636 37.4388C98.5549 37.4334 98.2493 37.5006 97.9715 37.6351C97.722 37.7611 97.4997 37.9349 97.3173 38.1466C97.1367 38.362 96.9958 38.6076 96.9009 38.8722C96.8006 39.1424 96.7347 39.4241 96.7047 39.7107H100.779Z" fill="#4E565C"/>
<path d="M107.238 36.2198C107.382 36.2119 107.527 36.2119 107.672 36.2198C107.838 36.2198 107.999 36.2555 108.153 36.2852C108.308 36.315 108.457 36.3328 108.588 36.3626C108.687 36.3778 108.784 36.4017 108.879 36.4339L108.629 37.7126C108.435 37.6495 108.236 37.5998 108.034 37.5639C107.694 37.4977 107.347 37.4678 107 37.4747C106.726 37.4747 106.452 37.5046 106.185 37.5639C105.917 37.6175 105.739 37.6591 105.656 37.6829V44.5819H104.187V36.7432C104.609 36.5918 105.043 36.4725 105.483 36.3863C106.06 36.2677 106.648 36.2118 107.238 36.2198Z" fill="#4E565C"/>
<path d="M111.454 36.3921H114.571V37.6232H111.454V41.4355C111.449 41.7769 111.481 42.1179 111.549 42.4525C111.596 42.6814 111.694 42.8969 111.835 43.0829C111.959 43.2354 112.124 43.3489 112.311 43.41C112.525 43.475 112.747 43.5071 112.971 43.5052C113.333 43.5151 113.695 43.4648 114.041 43.3565L114.6 43.1424L114.886 44.3319C114.635 44.4441 114.377 44.5375 114.113 44.6114C113.7 44.7264 113.274 44.7824 112.846 44.7779C112.377 44.7924 111.909 44.7198 111.466 44.5638C111.12 44.4343 110.815 44.2121 110.586 43.9215C110.355 43.6115 110.197 43.2539 110.122 42.8747C110.026 42.3991 109.98 41.9147 109.985 41.4295V34.1023L111.454 33.8525V36.3921Z" fill="#4E565C"/>
</g>
<defs>
<clipPath id="clip0_1437_297">
<rect width="51.4866" height="48.5903" fill="white"/>
</clipPath>
<clipPath id="clip1_1437_297">
<rect width="54.8112" height="41.275" fill="white" transform="translate(60.0688 3.56836)"/>
</clipPath>
</defs>
</svg>
