<svg width="48" height="49" viewBox="0 0 48 49" fill="none" xmlns="http://www.w3.org/2000/svg">
<g clip-path="url(#clip0_1855_14051)">
<path d="M41.9029 0.832031H6.02673C5.33899 0.832031 4.78125 1.38977 4.78125 2.07751V47.5865C4.78125 48.2742 5.33899 48.8319 6.02673 48.8319H41.9029C42.5906 48.8319 43.1484 48.2746 43.1484 47.5865V2.07751C43.1484 1.38977 42.5906 0.832031 41.9029 0.832031V0.832031Z" fill="#E4E4E4"/>
<path d="M8.6444 47.5865V2.07751C8.6444 1.38977 9.20214 0.832031 9.88988 0.832031H6.02673C5.33899 0.832031 4.78125 1.38977 4.78125 2.07751V47.5865C4.78125 48.2746 5.33899 48.8319 6.02673 48.8319H9.88988C9.20214 48.8319 8.6444 48.2742 8.6444 47.5865Z" fill="#D0D0D0"/>
<path d="M41.903 0.832031H6.02673C5.33899 0.832031 4.78125 1.38977 4.78125 2.07751V8.55835H43.1484V2.07751C43.1484 1.38977 42.5907 0.832031 41.903 0.832031Z" fill="#163459"/>
<path d="M9.88989 0.832031H6.02673C5.33899 0.832031 4.78125 1.38977 4.78125 2.07751V8.55835H8.64441V2.07751C8.64441 1.38977 9.20215 0.832031 9.88989 0.832031Z" fill="#040B15"/>
<path d="M39.2854 25.9852V13.2008C39.2854 12.7705 38.9368 12.4219 38.5068 12.4219H9.42346C8.99316 12.4219 8.64453 12.7705 8.64453 13.2008V25.9852C8.64453 26.4155 8.99316 26.7642 9.42346 26.7642H38.5068C38.9368 26.7642 39.2854 26.4155 39.2854 25.9852Z" fill="#EE4D4A"/>
<path d="M12.5077 25.9852V13.2008C12.5077 12.7705 12.8563 12.4219 13.2866 12.4219H9.42346C8.99316 12.4219 8.64453 12.7705 8.64453 13.2008V25.9852C8.64453 26.4155 8.99316 26.7642 9.42346 26.7642H13.2866C12.8563 26.7642 12.5077 26.4155 12.5077 25.9852Z" fill="#D93E3B"/>
<path d="M25.8965 31.4059V44.1903C25.8965 44.6206 26.2451 44.9692 26.675 44.9692H38.5066C38.9365 44.9692 39.2852 44.6206 39.2852 44.1903V31.4059C39.2852 30.9756 38.9365 30.627 38.5066 30.627H26.675C26.2451 30.6273 25.8965 30.976 25.8965 31.4059Z" fill="#F0CA50"/>
<path d="M29.76 44.1903V31.4059C29.76 30.9756 30.1086 30.627 30.5386 30.627H26.6754C26.2455 30.627 25.8965 30.9756 25.8965 31.4059V44.1903C25.8965 44.6206 26.2455 44.9692 26.6754 44.9692H30.5386C30.1086 44.9692 29.76 44.6206 29.76 44.1903Z" fill="#E2BE49"/>
<path d="M21.2546 30.627H9.42346C8.99316 30.627 8.64453 30.9756 8.64453 31.4055V44.1903C8.64453 44.6202 8.99316 44.9689 9.42346 44.9689H21.2546C21.6849 44.9689 22.0336 44.6202 22.0336 44.1903V31.4055C22.0336 30.9756 21.6846 30.627 21.2546 30.627Z" fill="#8EC6D8"/>
<path d="M12.5077 44.1903V31.4059C12.5077 30.9756 12.8563 30.627 13.2866 30.627H9.42346C8.99316 30.627 8.64453 30.9756 8.64453 31.4059V44.1903C8.64453 44.6206 8.99316 44.9692 9.42346 44.9692H13.2866C12.8563 44.9692 12.5077 44.6206 12.5077 44.1903Z" fill="#79B0C1"/>
<path d="M34.0879 4.69507C34.0879 5.52197 33.4177 6.19214 32.5908 6.19214C31.7639 6.19214 31.0938 5.52197 31.0938 4.69507C31.0938 3.86816 31.7639 3.198 32.5908 3.198C33.4177 3.198 34.0879 3.86816 34.0879 4.69507Z" fill="#F0CA50"/>
<path d="M39.2848 4.69531C39.2848 5.52222 38.6146 6.19238 37.7877 6.19238C36.9612 6.19238 36.291 5.52222 36.291 4.69531C36.291 3.86841 36.9612 3.19824 37.7877 3.19824C38.6146 3.19824 39.2848 3.86841 39.2848 4.69531Z" fill="#EE4D4A"/>
<path d="M25.6235 19.593L39.2854 13.1982C39.2839 12.7694 38.936 12.4219 38.5068 12.4219H37.6265L23.965 18.8167L10.3035 12.4219H9.4231C8.9939 12.4219 8.646 12.7694 8.64453 13.1982L22.3064 19.593L8.64453 25.9874C8.646 26.4166 8.9939 26.7638 9.4231 26.7638H10.3031L23.965 20.3694L37.6268 26.7642H38.5068C38.936 26.7642 39.2839 26.4166 39.2854 25.9874L25.6235 19.593Z" fill="#D93E3B"/>
<path d="M9.60657 30.627H9.42346C8.99316 30.627 8.64453 30.9756 8.64453 31.4055V31.6571L21.0715 44.9689H21.2546C21.6849 44.9689 22.0336 44.6202 22.0336 44.1899V43.9384L9.60657 30.627Z" fill="#79B0C1"/>
<path d="M26.8585 30.627H26.6754C26.2455 30.627 25.8965 30.9756 25.8965 31.4055V31.6571L38.3235 44.9689H38.5066C38.9369 44.9689 39.2855 44.6202 39.2855 44.1899V43.9384L26.8585 30.627Z" fill="#E2BE49"/>
</g>
<defs>
<clipPath id="clip0_1855_14051">
<rect width="48" height="48" fill="white" transform="translate(0 0.832031)"/>
</clipPath>
</defs>
</svg>
