<svg width="121" height="120" viewBox="0 0 121 120" fill="none" xmlns="http://www.w3.org/2000/svg">
<path d="M53.1991 66.472H50.3472V50.3477L33.1809 49.0315V51.8286C33.1809 55.3935 31.6452 58.5744 28.903 60.11C27.8061 60.7133 26.4899 61.0972 25.0091 61.0423C20.0731 60.9327 17.1115 56.929 17.1115 51.993V48.9766L0 50.2929V94.9911C0 98.0624 2.52284 100.585 5.59413 100.585H37.9524H48.318C49.4149 100.585 50.2375 99.7077 50.2375 98.6657V84.5158H53.3088C58.2448 84.5158 62.2485 80.567 62.3581 75.631C62.5227 70.5853 58.2448 66.472 53.1991 66.472Z" fill="#F0CA50"/>
<path d="M39.5429 25.3928C39.4332 20.3471 43.711 16.9468 48.7567 16.9468H51.5538L50.2924 0.0546875H37.8975H5.59413C2.52284 0.0546875 0 2.57751 0 5.64879V50.347H14.1499C15.2468 50.347 16.0694 51.2245 16.0694 52.2666V53.1441C16.0694 58.1898 20.2376 62.4677 25.2833 62.358C26.5996 62.358 27.861 62.0289 28.9579 61.4805C32.0292 60.0545 34.1681 56.9284 34.1681 53.3087V52.2666C34.1681 51.1697 35.0456 50.347 36.0877 50.347H50.2375L51.4441 33.3452H48.4277C43.5465 33.3452 39.6525 30.274 39.5429 25.3928Z" fill="#1C427B"/>
<path d="M118.575 69.7626H104.425V66.9655C104.425 61.9198 100.257 57.6419 95.2111 57.7516C90.2751 57.8613 86.3263 61.8649 86.3263 66.8009V69.8174H72.1764C71.0795 69.8174 70.2568 70.6949 70.2568 71.7369V83.9672C70.2568 85.0641 71.1343 85.8868 72.1764 85.8868H73.0539C77.9899 85.8868 82.1581 89.7808 82.2678 94.7168C82.3226 97.2945 81.3354 99.6528 79.6352 101.298C77.9899 102.943 75.7413 103.931 73.2184 103.931H72.1764C71.0795 103.931 70.2568 104.808 70.2568 105.85V118.08C70.2568 119.177 71.1343 120 72.1764 120H114.955C118.026 120 120.549 117.477 120.549 114.406V71.6272C120.549 70.5852 119.672 69.7626 118.575 69.7626Z" fill="#EE4D4A"/>
<path d="M50.2928 0.0547641V14.2047C50.2928 15.3015 49.4153 16.1242 48.3732 16.1242H47.4957C42.45 16.1242 38.1722 20.2924 38.2818 25.3381C38.3915 30.2741 42.3952 34.2229 47.3312 34.2229H48.3732C49.4701 34.2229 50.2928 35.1004 50.2928 36.1424V50.2923H64.4426C65.5395 50.2923 66.3622 49.4148 66.3622 48.3728V47.4952C66.3622 42.5592 70.2562 38.391 75.1922 38.2813C77.7699 38.2265 80.1282 39.2137 81.7735 40.9139C83.4188 42.5592 84.406 44.8078 84.406 47.3307V48.3728C84.406 49.4697 85.2835 50.2923 86.3256 50.2923H98.5559C99.6528 50.2923 100.475 49.4148 100.475 48.3728V5.59411C100.475 2.52282 97.9526 0 94.8813 0L50.2928 0.0547641Z" fill="#5C9EDC"/>
</svg>
