<svg width="120" height="120" viewBox="0 0 120 120" fill="none" xmlns="http://www.w3.org/2000/svg">
<path d="M119.696 46.2304C119.696 71.1113 100.059 91.3906 75.4453 92.5142C74.7497 92.5677 74.0541 92.5676 73.3585 92.5676C47.782 92.5676 27.0747 71.8603 27.0747 46.2838C27.0747 23.4897 43.555 4.54818 65.2254 0.695659C67.9008 0.214093 70.6296 0.000103463 73.412 0.000103463C98.935 -0.0534038 119.696 20.6539 119.696 46.2304Z" fill="#5C9EDC"/>
<path d="M104.339 46.0694C104.339 63.3653 90.3335 77.3711 73.0376 77.3711C71.1106 77.3711 69.2306 77.1832 67.3976 76.8542C52.8278 74.2222 41.7358 61.4383 41.7358 46.0694C41.7358 33.4735 49.2088 22.5696 59.9247 17.6346C63.9197 15.8016 68.3376 14.7676 72.9906 14.7676C90.3335 14.8146 104.339 28.8205 104.339 46.0694Z" fill="#F0CA50"/>
<path d="M73.3051 62.3895C82.1705 62.3895 89.3573 55.2027 89.3573 46.3373C89.3573 37.472 82.1705 30.2852 73.3051 30.2852C64.4397 30.2852 57.2529 37.472 57.2529 46.3373C57.2529 55.2027 64.4397 62.3895 73.3051 62.3895Z" fill="white"/>
<path d="M42.7225 80.7955V107.549C42.7225 108.459 42.348 109.368 41.7059 110.01L33.0912 118.893C32.7701 119.214 32.4491 119.428 32.0746 119.642L23.8879 111.455L8.53134 96.0985L0.344727 87.912C0.505248 87.5375 0.772785 87.2164 1.09383 86.8953L9.97604 78.2807C10.6181 77.6386 11.5278 77.264 12.4374 77.264H39.191C41.1708 77.2105 42.7225 78.8158 42.7225 80.7955Z" fill="#1C427B"/>
<path d="M32.0746 87.9116V119.641C30.7369 120.283 29.1317 120.069 28.0081 118.946L1.04038 91.9781C-0.0297646 90.908 -0.297301 89.2493 0.344786 87.9116H32.0746Z" fill="#EE4D4A"/>
<path d="M75.7372 49.6008L56.7956 68.5424L42.7767 82.5614L15.2205 110.118C13.7223 111.616 11.368 111.616 9.86975 110.118C8.37154 108.619 8.37154 106.265 9.86975 104.767L41.225 73.4116L70.3865 44.2501C71.8847 42.7519 74.239 42.7519 75.7372 44.2501C77.1819 45.7483 77.1819 48.1026 75.7372 49.6008Z" fill="#1C427B"/>
</svg>
