<svg width="160" height="120" viewBox="0 0 160 120" fill="none" xmlns="http://www.w3.org/2000/svg">
<path d="M123.156 77.3254L79.7022 20.798C75.0225 18.2725 56.8239 13.5929 43.3049 27.1862L26.8146 43.6764C18.6438 51.8472 18.6438 65.1433 26.8146 73.3141L38.1052 84.6047L88.913 112.311C92.107 115.505 97.2323 115.505 100.352 112.311L100.426 112.237C103.62 109.043 103.62 103.918 100.426 100.798L99.9807 100.352L100.204 100.501C103.398 103.695 108.523 103.695 111.643 100.501L111.717 100.426C114.837 97.3067 114.911 92.1813 111.791 89.0615C114.985 92.107 120.036 92.1071 123.156 88.9874L123.23 88.913C126.35 85.6447 126.35 80.5194 123.156 77.3254Z" fill="#EEB098"/>
<path d="M128.951 42.4875C125.831 39.2935 116.62 30.38 114.392 27.9287C100.798 14.3354 82.5255 19.0151 77.9202 21.6149L57.1217 30.6771C52.2192 33.054 50.2136 38.9221 52.5906 43.7503C54.9675 48.6528 60.8357 50.6584 65.6639 48.2814L77.5488 43.0075C77.623 43.0818 84.3825 46.6472 92.7019 46.7215L123.231 77.2507C124.048 78.0678 124.642 78.9592 125.014 79.9991L128.951 76.0622C138.236 66.8514 138.236 51.7726 128.951 42.4875Z" fill="#AE7761"/>
<path d="M35.8029 90.6212C32.5346 87.3529 32.5346 82.2276 35.7286 79.1078L40.5568 74.2796C43.7509 71.0855 48.8762 71.0855 51.996 74.2796L52.0703 74.3539C55.2643 77.548 55.2643 82.6732 52.0703 85.793L47.2421 90.6212C44.048 93.8153 38.9227 93.8153 35.8029 90.6212Z" fill="#AE7761"/>
<path d="M48.2824 101.243C45.0141 97.975 45.0141 92.8496 48.2081 89.7298L57.9388 79.9991C61.1329 76.805 66.2582 76.805 69.378 79.9991L69.4523 80.0734C72.6463 83.2675 72.6463 88.3927 69.4523 91.5125L59.7216 101.243C56.5275 104.437 51.4022 104.437 48.2824 101.243Z" fill="#AE7761"/>
<path d="M62.5436 110.008C59.2753 106.74 59.2753 101.614 62.4693 98.4945L67.2976 93.6663C70.4916 90.4722 75.617 90.4722 78.7367 93.6663L78.811 93.7405C82.0051 96.9345 82.0051 102.06 78.811 105.18L73.9828 110.008C70.863 113.202 65.7377 113.202 62.5436 110.008Z" fill="#AE7761"/>
<path d="M77.9948 117.659C74.7265 114.391 74.7265 109.265 77.9205 106.146L78.2176 105.849C81.4117 102.655 86.537 102.655 89.6568 105.849L89.7311 105.923C92.9251 109.117 92.9251 114.242 89.7311 117.362L89.434 117.659C86.3142 120.779 81.1888 120.779 77.9948 117.659Z" fill="#AE7761"/>
<path d="M54.4474 22.3582L21.5413 55.2643C17.6787 59.1268 11.3649 59.1268 7.50231 55.2643L2.89693 50.6589C-0.965644 46.7963 -0.965644 40.4826 2.89693 36.62L35.8031 3.71383C39.6657 -0.148749 45.9795 -0.148749 49.8421 3.71383L54.4474 8.31917C58.31 12.1817 58.31 18.4957 54.4474 22.3582Z" fill="#EE4D4A"/>
<path d="M138.013 54.2247L105.33 21.5414C101.467 17.6788 101.467 11.365 105.33 7.50245L109.935 2.89693C113.797 -0.965644 120.111 -0.965644 123.974 2.89693L156.657 35.5803C160.52 39.4428 160.52 45.7568 156.657 49.6193L152.052 54.2247C148.189 58.1615 141.95 58.1615 138.013 54.2247Z" fill="#5C9EDC"/>
</svg>
