<svg width="106" height="120" viewBox="0 0 106 120" fill="none" xmlns="http://www.w3.org/2000/svg">
<path d="M99.0235 21.4011L86.2366 38.6872H54.3877L53.4405 37.9768C51.0133 36.2008 50.4806 32.7673 52.2565 30.3402L72.9761 2.22077C74.752 -0.206381 78.1855 -0.739184 80.6127 1.09598L81.9743 2.10236L97.7803 13.7645C100.326 15.5405 100.799 18.974 99.0235 21.4011Z" fill="#EE4D4A"/>
<path d="M49.786 29.0663H16.3388L13.0236 16.753C12.2541 13.8522 13.9708 10.8331 16.8716 10.0044L33.5656 5.50523L37.4727 4.43966C40.3734 3.67008 43.3926 5.38684 44.2214 8.28758L49.786 29.0663Z" fill="#F1CA50"/>
<path d="M94.8368 42.5049V57.0678C94.8368 59.7909 93.7713 62.4549 91.8177 64.3492L65.4743 90.3966C63.5207 92.3502 62.4552 94.9549 62.4552 97.6781V108.926C62.4552 110.583 61.5672 112.063 60.0872 112.892L53.9897 116.148L47.3003 119.7C45.5835 120.588 43.5116 119.404 43.5116 117.45V97.6781C43.5116 94.9549 42.446 92.3502 40.4924 90.3966L14.149 64.3492C12.1955 62.4549 11.1299 59.7909 11.1299 57.0678V42.5049H94.8368Z" fill="#5C9EDC"/>
<path d="M105.966 35.6964C105.966 37.8276 105.078 39.7811 103.716 41.2019C102.295 42.6227 100.342 43.4515 98.2107 43.4515H7.75503C3.43352 43.4515 0 39.9587 0 35.6964C0 33.5653 0.88798 31.6117 2.24955 30.1909C3.67032 28.7702 5.62388 27.9414 7.75503 27.9414H98.2107C102.473 27.9414 105.966 31.4341 105.966 35.6964Z" fill="#1C427B"/>
<path d="M86.8871 23.6513C87.4791 23.6513 88.0711 23.3553 88.4854 22.8817C89.1366 21.9937 88.959 20.8098 88.0711 20.1586L77.5929 12.3444C76.7049 11.6932 75.5209 11.8708 74.8697 12.7588C74.2186 13.6467 74.3962 14.8307 75.2841 15.4819L85.7623 23.2369C86.0583 23.4737 86.4727 23.6513 86.8871 23.6513Z" fill="white"/>
<path d="M36.2885 16.0425L23.7384 19.4761C22.6728 19.7721 22.0808 20.8376 22.3768 21.9032C22.6728 22.9688 23.7384 23.5608 24.804 23.2648L37.3541 19.8312C38.4197 19.5353 39.0117 18.4697 38.7157 17.4041C38.4197 16.3977 37.2949 15.7465 36.2885 16.0425Z" fill="white"/>
</svg>
