<svg width="121" height="120" viewBox="0 0 121 120" fill="none" xmlns="http://www.w3.org/2000/svg">
<circle cx="73.5232" cy="47.261" r="34.7176" fill="#C4C4C4"/>
<path d="M4.19971 95.5292C-1.3999 101.129 -1.3999 110.2 4.19971 115.8C9.79932 121.399 18.8707 121.399 24.4703 115.8L61.4277 78.8424C67.0273 73.2428 67.0273 64.1714 61.4277 58.5718C55.8281 52.9722 46.7567 52.9722 41.1571 58.5718L4.19971 95.5292Z" fill="#1C427B"/>
<path d="M62.8279 86.3465L33.7099 57.2285L25.8705 65.068C21.8387 69.0997 21.8387 75.6512 25.8705 79.6829L40.3735 94.1859C44.4052 98.2177 50.9567 98.2177 54.9884 94.1859L62.8279 86.3465Z" fill="#EE4D4A"/>
<path d="M73.9712 0C48.5489 0 27.9424 20.6066 27.9424 46.0848C27.9424 71.507 48.5489 92.1136 73.9712 92.1136C99.3934 92.1136 120.056 71.507 120.056 46.0848C120 20.6626 99.3934 0 73.9712 0ZM73.9712 75.9307C57.4523 75.9307 44.1253 62.5477 44.1253 46.0848C44.1253 29.566 57.5083 16.1829 73.9712 16.1829C90.49 16.1829 103.817 29.566 103.817 46.0848C103.817 62.5477 90.434 75.9307 73.9712 75.9307Z" fill="#5C9EDC"/>
<path d="M73.9714 75.9306C90.4549 75.9306 103.817 62.5682 103.817 46.0847C103.817 29.6013 90.4549 16.2388 73.9714 16.2388C57.488 16.2388 44.1255 29.6013 44.1255 46.0847C44.1255 62.5682 57.488 75.9306 73.9714 75.9306Z" fill="white"/>
</svg>
