<svg width="80" height="80" viewBox="0 0 80 80" fill="none" xmlns="http://www.w3.org/2000/svg">
<path opacity="0.3" d="M61.8101 69.5783C61.7359 70.283 61.5133 70.9877 61.2165 71.6181C60.8454 72.3228 60.3631 72.9162 59.7695 73.3984H5.37966C4.82315 72.9162 4.34084 72.3599 3.96983 71.7294C3.07941 70.0975 2.96811 68.0577 4.00693 66.2404L20.8136 36.7185L32.5746 28.6704L44.3356 36.7185L61.0681 66.2033C61.6988 67.316 61.9214 68.4657 61.8101 69.5783Z" fill="#5C9EDC"/>
<path opacity="0.6" d="M74.8695 73.3984H59.7323C60.3259 72.9162 60.8453 72.2857 61.1793 71.6181C61.5132 70.9876 61.7358 70.283 61.81 69.5783C61.9213 68.4657 61.6987 67.316 61.1051 66.2404L50.791 48.0674L54.7979 44.544L56.3561 43.1718L67.8574 52.1099L76.1309 66.6484C77.4294 69.0591 76.7245 71.8407 74.8695 73.3984Z" fill="#5C9EDC"/>
<path d="M67.8203 52.1101C65.4088 51.8876 65.2604 49.922 62.552 49.922C61.6245 49.922 60.9938 50.1816 60.4373 50.4783C59.8437 50.8492 59.3984 51.2942 58.8048 51.628C58.3225 51.9247 57.6918 52.1101 56.8385 52.1101C54.2414 52.1101 54.0188 50.2557 51.8299 49.959L48.8247 44.6555L51.5331 39.8711C51.6444 39.6857 51.7186 39.5374 51.8299 39.389C52.1638 38.9439 52.5348 38.536 52.98 38.2393C55.4287 36.3849 59.2129 36.9412 60.8825 39.9082L67.8203 52.1101Z" fill="#163459"/>
<path d="M44.3354 36.7184C42.6659 37.2005 42.0352 38.3132 39.401 38.3132C35.9877 38.3132 35.9877 36.4959 32.5745 36.4959C29.1612 36.4959 29.1612 38.3132 25.7479 38.3132C23.1137 38.3132 22.5201 37.2376 20.8135 36.7184L27.6771 24.6648C29.829 20.8448 35.357 20.8448 37.5089 24.6648L44.3354 36.7184Z" fill="#163459"/>
<path d="M33.7243 1.67044C38.362 3.56192 43.0367 -1.96417 47.6743 0.780333C47.934 0.928685 48.0824 1.1883 48.0824 1.485V11.5358C48.0824 12.1292 47.4888 12.5372 46.9323 12.3147C42.2946 10.4232 37.6199 15.9493 32.9823 13.2048C32.7226 13.0564 32.5742 12.7968 32.5742 12.5001V2.44929C32.5742 1.85588 33.1678 1.44791 33.7243 1.67044Z" fill="#F1CA50"/>
<path d="M75.9826 80.0001H3.33908C1.48403 80.0001 0 78.5166 0 76.6993C0 74.882 1.48403 73.3984 3.33908 73.3984H75.9826C77.8376 73.3984 79.3216 74.882 79.3216 76.6993C79.3216 78.5166 77.8376 80.0001 75.9826 80.0001Z" fill="#5C9EDC"/>
<path d="M33.7617 21.9578V16.172C34.4666 16.3946 35.1344 16.4688 35.8393 16.4688C37.5459 16.4688 39.1784 15.9124 40.7366 15.3561C43.1853 14.5031 45.3371 13.7613 47.4148 15.2078C47.7858 15.4674 48.2681 15.5045 48.6762 15.2819C49.0843 15.0594 49.3069 14.6514 49.3069 14.2064V2.30119C49.3069 1.89322 49.1214 1.52234 48.7875 1.29982C45.7081 -0.851279 42.6288 0.224269 39.9575 1.15147C37.5088 2.00449 35.357 2.74624 33.2793 1.29982C33.0567 1.18855 32.8341 1.11438 32.5744 1.11438C31.9066 1.11438 31.3501 1.6707 31.3501 2.33828V21.9948L33.7617 21.9578ZM46.8954 12.3149C44.4467 11.5361 42.0722 12.352 39.9575 13.0938C37.6943 13.8726 35.728 14.5773 33.7988 13.5759V4.22976C36.2474 5.0086 38.5848 4.19267 40.7366 3.45091C42.9998 2.67207 44.9661 1.9674 46.8954 2.96877V12.3149Z" fill="#163459"/>
</svg>
