<svg width="92" height="100" viewBox="0 0 92 100" fill="none" xmlns="http://www.w3.org/2000/svg">
<g clip-path="url(#clip0_1855_17950)">
<path d="M49.8864 39.6519C52.2448 39.8864 54.6233 40.1209 56.9817 39.8762C59.2998 39.6315 61.5372 38.9381 63.825 38.5303C66.899 37.9797 70.0636 37.939 73.1477 38.4284C75.9193 38.8668 78.6506 39.713 81.4524 39.6417C84.2542 39.5703 87.2778 38.2958 88.3965 35.6959C88.5376 35.3798 88.6384 35.0332 88.6081 34.6763C88.5073 33.6771 87.3685 33.1877 86.4009 32.9227C75.2541 29.8639 63.6235 28.8036 52.0936 29.3745C46.6714 29.6396 41.2491 30.3839 35.8672 30.8835C33.6499 31.0874 26.5345 35.1861 30.4853 37.6739C31.4831 38.306 34.0027 38.0715 35.1718 38.1837C36.8045 38.3468 38.4372 38.5099 40.07 38.6731C43.3556 38.9993 46.621 39.3256 49.8864 39.6519Z" fill="#545A5C"/>
<path d="M36.3512 23.95C39.6798 23.95 42.3781 21.2202 42.3781 17.8529C42.3781 14.4856 39.6798 11.7559 36.3512 11.7559C33.0226 11.7559 30.3242 14.4856 30.3242 17.8529C30.3242 21.2202 33.0226 23.95 36.3512 23.95Z" fill="#F0CA50"/>
<path d="M36.3511 23.7559C39.5739 23.7559 42.1866 21.1129 42.1866 17.8526C42.1866 14.5922 39.5739 11.9492 36.3511 11.9492C33.1283 11.9492 30.5156 14.5922 30.5156 17.8526C30.5156 21.1129 33.1283 23.7559 36.3511 23.7559Z" fill="#F0CA50"/>
<path opacity="0.78" d="M39.9643 21.5188C41.8928 19.5677 41.8928 16.4045 39.9643 14.4535C38.0357 12.5025 34.9089 12.5025 32.9803 14.4535C31.0517 16.4045 31.0517 19.5678 32.9803 21.5188C34.9089 23.4698 38.0357 23.4698 39.9643 21.5188Z" fill="white"/>
<path d="M35.989 21.6966V21.1562C35.4246 21.1358 34.8803 21.0033 34.4873 20.8299C34.3462 20.7688 34.2756 20.6056 34.3159 20.4629L34.457 19.9531C34.5074 19.7696 34.709 19.6676 34.8803 19.7492C35.2734 19.9123 35.7471 20.0449 36.2712 20.0449C36.8053 20.0449 37.2085 19.8613 37.2085 19.4841C37.2085 19.1374 36.896 18.9437 36.1502 18.7398C35.0819 18.4441 34.3159 17.9751 34.3159 17.0167C34.3159 16.1603 34.9408 15.4975 36.0192 15.3242V14.7838C36.0192 14.6105 36.1603 14.4678 36.3316 14.4678H36.6441C36.8154 14.4678 36.9565 14.6105 36.9565 14.7838V15.2732C37.4705 15.2936 37.8535 15.3854 38.1458 15.4873C38.297 15.5383 38.3877 15.7117 38.3373 15.8646L38.2163 16.3336C38.1659 16.5171 37.9744 16.6089 37.8031 16.5477C37.531 16.4458 37.1379 16.3336 36.634 16.3336C35.9991 16.3336 35.8076 16.5987 35.8076 16.8434C35.8076 17.1391 36.1905 17.343 37.0271 17.5979C38.2163 17.9547 38.7102 18.4543 38.7102 19.3515C38.7102 20.1774 38.1055 20.9115 36.9364 21.095V21.7068C36.9364 21.8801 36.7953 22.0228 36.6239 22.0228H36.3115C36.1301 22.0126 35.989 21.8699 35.989 21.6966Z" fill="#F0CA50"/>
<path d="M53.5174 21.248C59.3174 21.248 64.0193 16.4914 64.0193 10.624C64.0193 4.75652 59.3174 0 53.5174 0C47.7175 0 43.0156 4.75652 43.0156 10.624C43.0156 16.4914 47.7175 21.248 53.5174 21.248Z" fill="#F0CA50"/>
<path d="M53.5163 20.8907C59.1214 20.8907 63.6653 16.294 63.6653 10.6236C63.6653 4.9532 59.1214 0.356445 53.5163 0.356445C47.9111 0.356445 43.3672 4.9532 43.3672 10.6236C43.3672 16.294 47.9111 20.8907 53.5163 20.8907Z" fill="#F0CA50"/>
<path opacity="0.78" d="M54.0204 19.5291C58.76 19.3695 62.4743 15.3532 62.3164 10.5585C62.1586 5.76379 58.1885 2.00634 53.4489 2.166C48.7094 2.32565 44.9951 6.34195 45.1529 11.1367C45.3108 15.9314 49.2809 19.6888 54.0204 19.5291Z" fill="white"/>
<path d="M52.891 17.3023V16.3541C51.9134 16.3133 50.956 16.0788 50.2706 15.7831C50.0287 15.671 49.8977 15.3957 49.9683 15.1408L50.2101 14.2639C50.3008 13.9377 50.6435 13.7745 50.9459 13.9071C51.6211 14.1926 52.4677 14.4271 53.3647 14.4271C54.302 14.4271 55.0075 14.1008 55.0075 13.4483C55.0075 12.8569 54.4633 12.5001 53.1631 12.1432C51.2986 11.6232 49.9683 10.8076 49.9683 9.14567C49.9683 7.64689 51.0467 6.50497 52.9313 6.19909V5.25089C52.9313 4.94502 53.1732 4.70032 53.4756 4.70032H54.0198C54.3222 4.70032 54.5641 4.94502 54.5641 5.25089V6.09714C55.4611 6.13792 56.1262 6.29086 56.6402 6.47438C56.9023 6.56614 57.0535 6.86182 56.9829 7.1371L56.7612 7.95276C56.6806 8.26883 56.348 8.44216 56.0456 8.31981C55.5618 8.13629 54.8866 7.94257 54.0097 7.94257C52.9011 7.94257 52.5786 8.41157 52.5786 8.8296C52.5786 9.34958 53.2438 9.69624 54.6951 10.1449C56.7612 10.777 57.6179 11.6436 57.6179 13.2036C57.6179 14.631 56.5697 15.9258 54.5338 16.2419V17.3023C54.5338 17.6081 54.2919 17.8528 53.9896 17.8528H53.4453C53.1329 17.8528 52.891 17.6081 52.891 17.3023Z" fill="#F0CA50"/>
<path d="M39.5304 39.3788C44.4142 39.3788 48.3733 35.3737 48.3733 30.4331C48.3733 25.4925 44.4142 21.4873 39.5304 21.4873C34.6466 21.4873 30.6875 25.4925 30.6875 30.4331C30.6875 35.3737 34.6466 39.3788 39.5304 39.3788Z" fill="#F0CA50"/>
<path d="M39.5302 39.0777C44.25 39.0777 48.0761 35.207 48.0761 30.4324C48.0761 25.6577 44.25 21.7871 39.5302 21.7871C34.8105 21.7871 30.9844 25.6577 30.9844 30.4324C30.9844 35.207 34.8105 39.0777 39.5302 39.0777Z" fill="#F0CA50"/>
<path opacity="0.78" d="M39.9535 37.9316C43.9443 37.7972 47.0719 34.4153 46.939 30.378C46.8061 26.3407 43.4631 23.1768 39.4722 23.3113C35.4813 23.4457 32.3538 26.8276 32.4867 30.8649C32.6196 34.9022 35.9626 38.0661 39.9535 37.9316Z" fill="white"/>
<path d="M39.0044 36.0566V35.2582C38.1813 35.2238 37.375 35.0264 36.798 34.7774C36.5943 34.683 36.484 34.4512 36.5434 34.2365L36.7471 33.4982C36.8234 33.2235 37.112 33.0861 37.3666 33.1977C37.9352 33.4381 38.648 33.6356 39.4033 33.6356C40.1926 33.6356 40.7866 33.3608 40.7866 32.8114C40.7866 32.3135 40.3283 32.013 39.2336 31.7125C37.6636 31.2747 36.5434 30.5878 36.5434 29.1885C36.5434 27.9264 37.4514 26.9649 39.0384 26.7073V25.9089C39.0384 25.6514 39.2421 25.4453 39.4967 25.4453H39.9549C40.2095 25.4453 40.4132 25.6514 40.4132 25.9089V26.6215C41.1685 26.6558 41.7286 26.7846 42.1614 26.9391C42.3821 27.0164 42.5094 27.2654 42.45 27.4972L42.2633 28.184C42.1954 28.4501 41.9153 28.5961 41.6607 28.4931C41.2534 28.3385 40.6848 28.1754 39.9464 28.1754C39.0129 28.1754 38.7414 28.5703 38.7414 28.9223C38.7414 29.3602 39.3015 29.6521 40.5235 30.0298C42.2633 30.5621 42.9846 31.2918 42.9846 32.6054C42.9846 33.8073 42.102 34.8976 40.3877 35.1637V36.0566C40.3877 36.3142 40.1841 36.5202 39.9295 36.5202H39.4712C39.2081 36.5202 39.0044 36.3142 39.0044 36.0566Z" fill="#F0CA50"/>
<path d="M58.605 49.0111C64.5719 49.0111 69.4091 44.1176 69.4091 38.0812C69.4091 32.0448 64.5719 27.1514 58.605 27.1514C52.638 27.1514 47.8008 32.0448 47.8008 38.0812C47.8008 44.1176 52.638 49.0111 58.605 49.0111Z" fill="#F0CA50"/>
<path d="M58.6054 48.6442C64.372 48.6442 69.0468 43.915 69.0468 38.0814C69.0468 32.2477 64.372 27.5186 58.6054 27.5186C52.8388 27.5186 48.1641 32.2477 48.1641 38.0814C48.1641 43.915 52.8388 48.6442 58.6054 48.6442Z" fill="#F0CA50"/>
<path opacity="0.78" d="M67.4383 40.3626C68.56 35.5566 65.6182 30.7406 60.8675 29.6058C56.1167 28.471 51.3561 31.447 50.2343 36.253C49.1125 41.059 52.0544 45.875 56.8051 47.0099C61.5559 48.1447 66.3165 45.1686 67.4383 40.3626Z" fill="white"/>
<path d="M57.97 44.9534V43.9848C56.9722 43.944 55.9744 43.7095 55.2689 43.3934C55.017 43.2813 54.8859 42.9958 54.9565 42.7307L55.1984 41.8233C55.2891 41.4868 55.6418 41.3237 55.9643 41.4562C56.6597 41.7519 57.5265 41.9864 58.4537 41.9864C59.4213 41.9864 60.1368 41.6601 60.1368 40.977C60.1368 40.3653 59.5825 39.9982 58.2421 39.6312C56.3272 39.101 54.9565 38.2548 54.9565 36.5521C54.9565 35.0125 56.0651 33.84 58.0002 33.5239V32.5553C58.0002 32.2393 58.2522 31.9844 58.5646 31.9844H59.129C59.4414 31.9844 59.6934 32.2393 59.6934 32.5553V33.4322C60.6206 33.473 61.2959 33.6259 61.83 33.8196C62.1022 33.9216 62.2533 34.2172 62.1828 34.5027L61.9611 35.3388C61.8703 35.665 61.5378 35.8384 61.2253 35.716C60.7315 35.5223 60.0361 35.3286 59.129 35.3286C57.98 35.3286 57.6575 35.8078 57.6575 36.236C57.6575 36.7662 58.3429 37.1332 59.8345 37.592C61.9611 38.2344 62.848 39.1316 62.848 40.7425C62.848 42.2209 61.7696 43.5362 59.6732 43.8726V44.9636C59.6732 45.2796 59.4213 45.5345 59.1088 45.5345H58.5444C58.2118 45.5243 57.97 45.2694 57.97 44.9534Z" fill="#F0CA50"/>
<path d="M73.6503 17.5576C77.4353 17.5576 80.5037 14.4536 80.5037 10.6245C80.5037 6.79547 77.4353 3.69141 73.6503 3.69141C69.8652 3.69141 66.7969 6.79547 66.7969 10.6245C66.7969 14.4536 69.8652 17.5576 73.6503 17.5576Z" fill="#F0CA50"/>
<path d="M73.6512 17.3327C77.3138 17.3327 80.2829 14.329 80.2829 10.6238C80.2829 6.91868 77.3138 3.91504 73.6512 3.91504C69.9886 3.91504 67.0195 6.91868 67.0195 10.6238C67.0195 14.329 69.9886 17.3327 73.6512 17.3327Z" fill="#F0CA50"/>
<path opacity="0.78" d="M76.6076 15.6813C79.2891 14.1071 80.2014 10.6319 78.6454 7.91919C77.0893 5.20648 73.654 4.28352 70.9725 5.8577C68.291 7.43188 67.3786 10.9071 68.9347 13.6198C70.4908 16.3325 73.9261 17.2555 76.6076 15.6813Z" fill="white"/>
<path d="M73.2479 14.9882V14.3662C72.6129 14.3356 71.978 14.1929 71.5345 13.989C71.3733 13.9176 71.2926 13.7341 71.343 13.571L71.4942 13C71.5547 12.7859 71.7764 12.6839 71.978 12.7655C72.4214 12.949 72.9657 13.102 73.5603 13.102C74.1751 13.102 74.6286 12.8878 74.6286 12.4596C74.6286 12.0722 74.2759 11.8377 73.4192 11.6134C72.1997 11.2769 71.333 10.7365 71.333 9.65579C71.333 8.677 72.0385 7.93271 73.268 7.72879V7.10685C73.268 6.91313 73.4293 6.75 73.6208 6.75H73.9836C74.1751 6.75 74.3364 6.91313 74.3364 7.10685V7.65742C74.9209 7.67781 75.3543 7.77977 75.697 7.90212C75.8683 7.9633 75.9691 8.15701 75.9187 8.33034L75.7776 8.86052C75.7272 9.06444 75.5055 9.17659 75.314 9.10522C75.0015 8.98287 74.5581 8.86052 73.9836 8.86052C73.258 8.86052 73.0463 9.16639 73.0463 9.44168C73.0463 9.77814 73.4797 10.0126 74.4271 10.2981C75.7776 10.706 76.342 11.2769 76.342 12.2965C76.342 13.2345 75.6566 14.0706 74.3263 14.2847V14.978C74.3263 15.1717 74.165 15.3348 73.9735 15.3348H73.6107C73.3991 15.345 73.2479 15.1819 73.2479 14.9882Z" fill="#F0CA50"/>
<path d="M89.758 91.3336C92.9025 87.1534 89.9596 61.3785 88.4377 56.6476C87.1275 52.5693 84.4769 50.4078 85.6359 45.9217C86.3313 43.2198 86.9663 40.4976 87.7322 37.8161C87.9439 37.0514 88.5688 36.2969 88.7199 35.5526C88.8409 34.9409 88.2866 34.1762 88.3672 33.7684C87.7423 36.8679 83.3985 37.4898 80.8889 37.5612C77.5126 37.653 74.2069 36.7659 70.891 36.2459C67.4341 35.7056 63.8865 35.7463 60.4396 36.3479C58.7263 36.6436 57.0331 37.0922 55.2996 37.2859C52.0442 37.6632 48.2547 37.3165 44.9892 37.0412C42.1773 36.8169 39.4057 36.2663 36.5938 36.0828C34.8905 35.9707 33.157 36.1848 31.4739 35.9095C30.9801 35.8279 29.8009 35.2264 29.3574 35.5832C28.7225 36.093 29.5792 37.1534 30.0226 37.4694C31.3631 38.4482 32.6632 38.3667 33.792 39.7941C34.7494 40.9972 35.1223 42.5775 34.8603 44.0967C34.5176 46.0747 33.4191 47.553 32.4314 49.2353C31.5646 50.7239 31.1413 52.1921 30.6979 53.8846C29.7505 57.5245 29.045 61.2255 28.5612 64.947C27.5231 72.8079 27.382 80.8116 28.1178 88.7031C25.9207 102.763 80.4052 103.772 89.758 91.3336Z" fill="#EE4D4A"/>
<path d="M34.3134 40.6094C43.4546 47.3488 58.129 50.642 85.6232 45.9214C87.1148 46.5739 86.4395 47.5629 85.3611 48.6029C53.8758 51.8553 40.9753 47.8484 34.898 42.5874C34.5049 42.047 33.6986 41.8838 34.3134 40.6094Z" fill="white"/>
<path d="M59.9309 84.7846L59.8624 82.7115C57.7854 82.6972 55.7152 82.2611 54.2346 81.6535C53.7068 81.4319 53.4188 80.8385 53.5491 80.2595L53.9878 78.3079C54.1523 77.593 54.8789 77.1998 55.537 77.4572C57.0039 78.0362 58.8067 78.4723 60.7261 78.4008C62.7209 78.3293 64.1878 77.5715 64.1398 76.1203C64.0987 74.8121 62.9196 74.0758 60.116 73.4038C56.1197 72.4173 53.2132 70.723 53.0898 67.0843C52.9801 63.803 55.2011 61.208 59.17 60.3931L59.1015 58.32C59.0809 57.6551 59.5813 57.0904 60.2188 57.0689L61.391 57.026C62.0285 57.0046 62.57 57.5264 62.5906 58.1913L62.6523 60.0571C64.5717 60.0642 65.9838 60.3573 67.1079 60.7219C67.6837 60.9078 68.0128 61.5369 67.8757 62.1445L67.4712 63.946C67.3136 64.6395 66.6212 65.0469 65.97 64.8182C64.935 64.4536 63.4817 64.089 61.6035 64.1533C59.2317 64.2391 58.5874 65.29 58.6217 66.205C58.6559 67.3345 60.1092 68.0637 63.2213 68.9359C67.67 70.1511 69.562 71.9955 69.6716 75.4198C69.7745 78.5652 67.6358 81.4676 63.3241 82.3326L63.3995 84.656C63.42 85.3208 62.9196 85.8855 62.2821 85.907L61.11 85.9499C60.4862 85.9785 59.9515 85.4566 59.9309 84.7846Z" fill="white"/>
<path d="M80.363 40.5991C86.369 40.5991 91.2377 35.6737 91.2377 29.5979C91.2377 23.5221 86.369 18.5967 80.363 18.5967C74.3571 18.5967 69.4883 23.5221 69.4883 29.5979C69.4883 35.6737 74.3571 40.5991 80.363 40.5991Z" fill="#F0CA50"/>
<path d="M80.3635 40.2322C86.169 40.2322 90.8754 35.4711 90.8754 29.598C90.8754 23.7249 86.169 18.9639 80.3635 18.9639C74.5579 18.9639 69.8516 23.7249 69.8516 29.598C69.8516 35.4711 74.5579 40.2322 80.3635 40.2322Z" fill="#F0CA50"/>
<path opacity="0.78" d="M89.2429 31.9558C90.4018 27.1238 87.4693 22.2563 82.693 21.0839C77.9166 19.9115 73.1051 22.8781 71.9461 27.71C70.7872 32.5419 73.7197 37.4094 78.496 38.5819C83.2724 39.7543 88.0839 36.7877 89.2429 31.9558Z" fill="white"/>
<path d="M79.6482 36.521L79.6583 35.5422C78.6504 35.4913 77.6527 35.2364 76.9472 34.9203C76.6952 34.8081 76.5642 34.5125 76.6448 34.2474L76.8968 33.3399C76.9875 33.0035 77.3503 32.8404 77.6627 32.9729C78.3581 33.2788 79.2249 33.5235 80.1622 33.5337C81.1297 33.5439 81.8655 33.2176 81.8655 32.5345C81.8756 31.9227 81.3112 31.5455 79.9707 31.1581C78.0457 30.6075 76.675 29.7408 76.6952 28.0178C76.7153 26.468 77.8441 25.2955 79.7893 24.9998L79.7994 24.021C79.7994 23.705 80.0614 23.4501 80.3739 23.4603L80.9382 23.4705C81.2507 23.4705 81.5026 23.7355 81.4926 24.0516L81.4825 24.9284C82.4198 24.9794 83.0951 25.1426 83.6292 25.3465C83.9013 25.4484 84.0525 25.7543 83.9719 26.0398L83.7401 26.886C83.6494 27.2123 83.3067 27.3856 82.9943 27.2633C82.5004 27.0696 81.7949 26.8656 80.8879 26.8554C79.7389 26.8452 79.3962 27.3244 79.3962 27.7527C79.3862 28.2829 80.0816 28.6601 81.5732 29.1393C83.7098 29.8122 84.5867 30.7196 84.5665 32.3408C84.5464 33.8293 83.4478 35.1446 81.3313 35.4607L81.3212 36.5618C81.3212 36.8779 81.0592 37.1328 80.7468 37.1226L80.1824 37.1124C79.8901 37.092 79.6381 36.8371 79.6482 36.521Z" fill="#F0CA50"/>
<path d="M40.2407 65.4265C34.7479 55.3429 22.2102 51.6724 12.2426 57.2291C2.26482 62.796 -1.36345 75.4795 4.13942 85.5631C9.63222 95.6467 22.1699 99.3172 32.1376 93.7605C42.1052 88.1936 45.7335 75.5203 40.2407 65.4265Z" fill="white"/>
<path d="M31.3442 94.1782C31.0923 94.3311 30.8302 94.484 30.5682 94.637C30.4775 94.6879 30.3868 94.7389 30.3061 94.7797C30.1046 94.8919 29.903 94.9938 29.6914 95.0958C19.8749 99.9693 7.90159 96.2275 2.57005 86.4396C-2.52968 77.1003 0.211674 65.5281 8.56677 59.4616C9.23195 58.9722 9.93745 58.5236 10.6732 58.1158C10.9352 57.973 11.2073 57.8303 11.4694 57.6977C11.7314 57.5652 11.9935 57.4428 12.2555 57.3205C13.0618 56.9534 13.8782 56.6476 14.7147 56.4029C15.9443 56.0256 17.194 55.7707 18.4437 55.6382C22.324 55.2202 26.2344 55.9441 29.7014 57.6569C33.3801 59.4718 36.5548 62.4184 38.6814 66.3131C44.023 76.1317 40.7173 88.4074 31.3442 94.1782Z" fill="#F0CA50"/>
<path d="M20.7605 95.5961C19.0068 95.5961 17.2431 95.3412 15.5196 94.8416C10.7021 93.4346 6.71099 90.2026 4.29215 85.7674C1.8733 81.3221 1.30891 76.1936 2.69974 71.32C4.09058 66.4464 7.28547 62.4089 11.6696 59.9619C16.0639 57.515 21.1334 56.944 25.9509 58.351C30.7684 59.758 34.7595 62.9901 37.1784 67.4252C39.5972 71.8706 40.1616 76.999 38.7708 81.8726C37.3799 86.7462 34.185 90.7837 29.8009 93.2307C26.9789 94.8008 23.8848 95.5961 20.7605 95.5961ZM5.26976 85.2168C7.54751 89.3971 11.2967 92.4252 15.8321 93.7507C20.3674 95.0761 25.1345 94.5357 29.2667 92.2315C33.3989 89.9273 36.3922 86.1344 37.7024 81.5464C39.0127 76.9583 38.4785 72.1357 36.2008 67.9554C33.923 63.7751 30.1738 60.747 25.6385 59.4216C21.1031 58.0961 16.336 58.6365 12.2038 60.9407C8.07159 63.245 5.07827 67.0378 3.76807 71.6259C2.45786 76.214 2.99202 81.0366 5.26976 85.2168Z" fill="#FFA412"/>
<path d="M29.8142 78.4056C29.7739 78.3037 29.7336 78.2017 29.6832 78.11C29.3506 77.3657 28.9273 76.7641 28.4334 76.3053C27.869 75.7853 27.2139 75.3979 26.4681 75.1328C25.7223 74.8677 24.8858 74.7148 23.9687 74.6536C23.0515 74.5924 22.0437 74.5822 20.9653 74.6128C20.3001 74.6332 19.7256 74.623 19.2519 74.5822C18.7782 74.5414 18.3751 74.4497 18.0425 74.3171C17.7099 74.1846 17.4479 74.0011 17.2362 73.7666C17.0346 73.5321 16.8633 73.2466 16.7222 72.9101C16.5912 72.5737 16.5106 72.2372 16.4904 71.9109C16.4702 71.5847 16.5206 71.2686 16.6416 70.9729C16.7625 70.6773 16.954 70.402 17.216 70.1471C17.4781 69.8922 17.8308 69.6781 18.2642 69.5047C19.0705 69.1785 19.8163 69.1785 20.5117 69.5251C21.2071 69.8718 21.7715 70.5855 22.215 71.6764L26.4177 69.9534C26.0549 69.0459 25.5913 68.2711 25.0471 67.6491C24.4927 67.0272 23.878 66.5378 23.1825 66.1911C22.4972 65.8445 21.7413 65.6507 20.9249 65.5896C20.1086 65.5284 19.262 65.6202 18.3952 65.8547L17.206 62.8877L14.8778 63.8461L16.0469 66.7723C15.2104 67.2107 14.4948 67.7205 13.9103 68.3118C13.3257 68.893 12.8823 69.5251 12.5698 70.2082C12.2574 70.8914 12.0962 71.6051 12.076 72.3494C12.0558 73.0936 12.207 73.8583 12.5195 74.6332C12.8823 75.5304 13.3358 76.2339 13.9002 76.7539C14.4646 77.2739 15.1197 77.6614 15.8655 77.9162C16.6113 78.1711 17.4479 78.3241 18.365 78.3751C19.2922 78.426 20.29 78.426 21.3785 78.3751C22.0033 78.3343 22.5577 78.3445 23.0213 78.3852C23.4849 78.426 23.888 78.5178 24.2206 78.6503C24.5532 78.7931 24.8354 78.9766 25.0571 79.2315C25.2789 79.4762 25.4704 79.7923 25.6215 80.1797C25.7526 80.5162 25.8231 80.8526 25.8231 81.1891C25.8231 81.5255 25.7526 81.8416 25.6014 82.1475C25.4502 82.4534 25.2285 82.7388 24.9362 82.9937C24.6439 83.2486 24.2609 83.4729 23.8074 83.6666C23.4143 83.8298 23.0011 83.9419 22.5778 83.9929C22.1545 84.0439 21.7413 84.0031 21.3382 83.8706C20.935 83.738 20.552 83.4831 20.1993 83.1263C19.8465 82.7694 19.5442 82.2698 19.2821 81.6173L15.0794 83.3404C15.5128 84.4313 16.0671 85.298 16.7323 85.9403C17.3975 86.5826 18.1231 87.0415 18.9092 87.3167C19.6954 87.592 20.5218 87.7144 21.3785 87.6736C22.2352 87.643 23.0918 87.5003 23.9283 87.2454L25.0168 89.9472L27.3248 88.999L26.2363 86.2564C27.0728 85.818 27.7985 85.3082 28.3931 84.7372C28.9475 84.207 29.3808 83.6361 29.6933 83.0141C29.7235 82.9631 29.7437 82.9122 29.7638 82.8612C30.0762 82.1883 30.2476 81.4848 30.2677 80.7303C30.2879 79.986 30.1367 79.2009 29.8142 78.4056Z" fill="white"/>
</g>
<defs>
<clipPath id="clip0_1855_17950">
<rect width="91.2409" height="100" fill="white"/>
</clipPath>
</defs>
</svg>
