<svg width="101" height="100" viewBox="0 0 101 100" fill="none" xmlns="http://www.w3.org/2000/svg">
<rect width="100" height="100" transform="translate(0.635742)" fill="white"/>
<path d="M14.7026 63.7849H8.38802C7.58594 63.7849 6.92969 64.4412 6.92969 65.2432V89.2474C6.92969 90.0495 7.58594 90.7058 8.38802 90.7058H14.688C15.4901 90.7058 16.1464 90.0495 16.1464 89.2474V65.2432C16.1609 64.4412 15.5047 63.7849 14.7026 63.7849Z" fill="#163459"/>
<path d="M63.6882 65.5349H54.1361C51.9195 65.5349 49.6591 64.8349 47.6028 63.5224C45.4882 62.1661 42.382 61.3932 39.1007 61.3932C35.0903 61.3932 31.3716 62.5599 29.432 64.4411C27.3757 66.4099 24.5611 67.5036 21.4841 67.5036H16.1611V87.2057C21.0466 85.8494 26.1799 85.4119 30.8028 85.4119C39.2903 85.4119 46.0861 86.914 46.5382 87.0161C46.9757 87.0744 47.4716 87.1474 47.9674 87.2057C56.3674 88.2411 65.1757 86.3453 72.7736 81.8974L92.2278 70.4932C93.2632 69.8807 93.9778 68.9036 94.2403 67.7224C94.5028 66.5411 94.2549 65.3453 93.5695 64.3682C92.3007 62.5599 89.8945 62.0057 87.9695 63.0849L67.8736 74.3432C66.7653 75.3349 65.2924 75.9474 63.6882 75.9474H47.5445C46.9466 75.9474 46.4507 75.4515 46.4507 74.8536C46.4507 74.2557 46.9466 73.7599 47.5445 73.7599H63.6736C64.7236 73.7599 65.6716 73.3661 66.4007 72.7244C66.4445 72.6807 66.4882 72.6369 66.532 72.6078C67.2903 71.864 67.7716 70.8286 67.7716 69.6765C67.7716 67.3724 65.9341 65.5349 63.6882 65.5349Z" fill="#EEB098"/>
<path d="M19.0778 67.489H16.1611V87.1911C17.1236 86.9286 18.1007 86.6953 19.0778 86.5057V67.489Z" fill="#5C9EDC"/>
<path d="M52.8338 11.5451L57.3268 20.649C57.9148 21.8405 59.0517 22.6665 60.3669 22.8579L70.4134 24.3178C73.725 24.7991 75.0473 28.8686 72.6512 31.2046L65.3813 38.291C64.4297 39.2185 63.9955 40.5551 64.2203 41.8647L65.9366 51.8705C66.5025 55.169 63.0405 57.6839 60.0785 56.1269L51.0927 51.4028C49.9166 50.7843 48.5112 50.7843 47.3352 51.4028L38.3493 56.1269C35.3874 57.6842 31.9254 55.169 32.4912 51.8705L34.2076 41.8647C34.432 40.5547 33.9982 39.2185 33.0466 38.291L25.7755 31.2042C23.3791 28.8683 24.7014 24.7987 28.0134 24.3174L38.0598 22.8575C39.375 22.6665 40.5116 21.8405 41.1 20.6487L45.5929 11.5448C47.0739 8.5441 51.3529 8.5441 52.8338 11.5451Z" fill="#F9D335"/>
<path d="M52.4462 10.9177C52.1315 11.3343 52.4552 10.7432 47.5638 20.6483C46.9776 21.8421 45.8399 22.6651 44.5255 22.8591L34.476 24.3156C31.1663 24.7984 29.8432 28.8664 32.2393 31.202L39.5092 38.291C40.4616 39.2174 40.8969 40.5533 40.6729 41.8636L38.9535 51.8698C38.7249 53.2102 39.1603 54.4208 39.9577 55.2829L38.3504 56.1277C35.3855 57.6835 31.925 55.1667 32.4897 51.8702L34.2091 41.8639C34.4331 40.554 33.9978 39.2178 33.0454 38.2914L25.7752 31.2024C23.3791 28.8668 24.7021 24.7987 28.0118 24.316L38.0613 22.8591C39.3757 22.6651 40.5134 21.8421 41.0996 20.6483L45.5944 11.5471C46.9645 8.7716 50.7223 8.56068 52.4462 10.9177Z" fill="#F9E27D"/>
<path d="M65.3822 38.291C64.4299 39.2174 63.9945 40.5532 64.2186 41.8635L65.9379 51.8698C66.5022 55.1663 63.0421 57.6831 60.0772 56.1273L58.4699 55.2825C59.2673 54.4208 59.7023 53.2097 59.4741 51.8694L57.7548 41.8631C57.5307 40.5532 57.9661 39.217 58.9184 38.2906L66.1883 31.2016C68.5844 28.866 67.2613 24.7979 63.9516 24.3152L53.9021 22.8586C52.5877 22.6646 51.45 21.8416 50.8639 20.6479C45.963 10.7236 46.2928 11.3293 45.9814 10.9173C47.7053 8.55988 51.4628 8.77118 52.8332 11.5463L57.328 20.6475C57.9142 21.8413 59.0519 22.6643 60.3663 22.8583L70.4158 24.3148C73.7255 24.7976 75.0486 28.8656 72.6525 31.2012L65.3822 38.291Z" fill="#F9C81C"/>
<path d="M45.9315 39.7613C46.4999 40.4035 47.4891 40.4411 48.1046 39.8448L57.4416 30.795C58.0379 30.2172 58.053 29.2648 57.4747 28.6685C56.8968 28.0722 55.9449 28.0568 55.3482 28.6354L47.1414 36.5896L44.8802 34.0337C44.3298 33.4115 43.3793 33.3536 42.7575 33.9036C42.1352 34.454 42.0773 35.4045 42.6274 36.0264L45.9315 39.7613Z" fill="white"/>
<line x1="63.2861" y1="17.468" x2="68.7679" y2="11.9863" stroke="#F9C81C" stroke-width="3" stroke-linecap="round"/>
<line x1="1.5" y1="-1.5" x2="9.25233" y2="-1.5" transform="matrix(-0.707107 -0.707107 -0.707107 0.707107 33.9648 19.5894)" stroke="#F9C81C" stroke-width="3" stroke-linecap="round"/>
<line x1="70.0237" y1="48.8298" x2="73.8764" y2="52.6825" stroke="#F9C81C" stroke-width="3" stroke-linecap="round"/>
<line x1="1.5" y1="-1.5" x2="6.94852" y2="-1.5" transform="matrix(-0.707107 0.707107 0.707107 0.707107 31.7959 48.8298)" stroke="#F9C81C" stroke-width="3" stroke-linecap="round"/>
</svg>
