<svg width="123" height="247" viewBox="0 0 123 247" fill="none" xmlns="http://www.w3.org/2000/svg">
<g opacity="0.2">
<path d="M122 123.5C122 191.155 67.1549 246 -0.499989 246C-68.1549 246 -123 191.155 -123 123.5C-123 55.8451 -68.1549 0.999998 -0.5 0.999995C67.1549 0.999992 122 55.8451 122 123.5Z" stroke="#545A5C" stroke-miterlimit="10"/>
<path d="M96.4352 123.5C96.435 104.171 90.7195 85.2777 80.0124 69.212C69.3054 53.1463 54.0886 40.6312 36.2893 33.2519C18.49 25.8726 -1.09095 23.9611 -19.9735 27.7594C-38.8561 31.5577 -56.1908 40.895 -69.7819 54.5886C-83.3731 68.2822 -92.6092 85.7161 -96.3207 104.682C-100.032 123.648 -98.0518 143.293 -90.6305 161.129C-83.2092 178.964 -70.6809 194.188 -54.6323 204.872C-38.5837 215.556 -19.7369 221.219 -0.47899 221.144C25.2587 221.045 49.9084 210.713 68.0726 192.412C86.2368 174.111 96.4354 149.331 96.4352 123.5V123.5Z" stroke="#545A5C" stroke-miterlimit="10"/>
<path d="M70.8702 123.5C70.87 109.228 66.6537 95.2768 58.7559 83.4153C50.858 71.5539 39.634 62.3156 26.5063 56.8713C13.3785 51.4271 -1.06205 50.0219 -14.9853 52.8338C-28.9086 55.6457 -41.6878 62.5482 -51.7035 72.6665C-61.7192 82.7849 -68.5205 95.6635 -71.2454 109.67C-73.9703 123.677 -72.4963 138.182 -67.01 151.346C-61.5238 164.51 -52.2723 175.741 -40.4281 183.616C-28.5838 191.49 -14.6799 195.654 -0.478416 195.579C8.92289 195.579 18.2315 193.712 26.9125 190.085C35.5935 186.458 43.4755 181.143 50.1058 174.445C56.7361 167.747 61.9838 159.798 65.5473 151.055C69.1107 142.312 70.9196 132.947 70.8702 123.5V123.5Z" stroke="#545A5C" stroke-miterlimit="10"/>
<path d="M45.3017 123.498C45.3014 114.283 42.5846 105.275 37.4958 97.6174C32.407 89.9601 25.1757 83.9987 16.7195 80.4895C8.26318 76.9803 -1.03693 76.0816 -10.0009 77.9072C-18.9649 79.7329 -27.1888 84.2006 -33.629 90.7437C-40.0693 97.2867 -44.4355 105.61 -46.1739 114.658C-47.9124 123.706 -46.9447 133.07 -43.3934 141.562C-39.8421 150.055 -33.8675 157.293 -26.2276 162.358C-18.5876 167.423 -9.62659 170.088 -0.481652 170.013C5.56242 170.013 11.5467 168.807 17.126 166.465C22.7053 164.123 27.7691 160.691 32.0254 156.366C36.2818 152.042 39.6463 146.911 41.9249 141.27C44.2036 135.629 45.3512 129.589 45.3017 123.498Z" stroke="#545A5C" stroke-miterlimit="10"/>
</g>
<path d="M32.9719 205.469C32.9719 205.469 38.0567 213.463 44.3274 212.452C44.3274 212.452 38.0878 216.45 38.1105 223.974C38.1105 223.974 35.0696 218.481 27.0261 217.075C27.0261 217.075 32.5049 215.742 32.9719 205.469Z" fill="#8EC6D8"/>
<path d="M87.4784 92.6094C87.4784 92.6094 100.061 103.371 109.93 98.3656C109.93 98.3656 101.665 108.376 105.612 121.015C105.612 121.015 97.7172 113.382 83.6543 115.259C83.6543 115.259 92.0427 110.128 87.4784 92.6094Z" fill="#EE4D4A"/>
<path d="M56.9916 232.993L56.1758 225.511L63.6584 224.695L64.4743 232.178L56.9916 232.993Z" fill="#F0CA50"/>
</svg>
