<svg width="80" height="72" viewBox="0 0 80 72" fill="none" xmlns="http://www.w3.org/2000/svg">
<path d="M45.4643 1.5336C40.0002 -1.61882 33.0298 0.237606 29.8774 5.73682L1.54071 54.8444C-1.6117 60.3086 0.244721 67.314 5.7089 70.4664C11.1731 73.6188 18.1434 71.7624 21.2958 66.2632L49.5975 17.1556C52.785 11.6914 50.9285 4.68601 45.4643 1.5336Z" fill="#F1CA50"/>
<path d="M11.4187 71.9722C17.7251 71.9722 22.8375 66.8599 22.8375 60.5535C22.8375 54.2471 17.7251 49.1348 11.4187 49.1348C5.11235 49.1348 0 54.2471 0 60.5535C0 66.8599 5.11235 71.9722 11.4187 71.9722Z" fill="#EE4D4A"/>
<path d="M77.9344 54.8446L49.6328 5.737C46.4803 0.272819 39.51 -1.61863 34.0458 1.53378C28.5816 4.6862 26.7252 11.6916 29.8776 17.1558L58.1793 66.2634C61.3317 71.7276 68.302 73.619 73.7662 70.4666C79.2304 67.3142 81.0868 60.3088 77.9344 54.8446Z" fill="#5C9EDC"/>
</svg>
