<svg width="211" height="346" viewBox="0 0 211 346" fill="none" xmlns="http://www.w3.org/2000/svg">
<path d="M10.8078 321.238C10.8078 321.238 9.72205 332.241 2.65911 334.484C2.65911 334.484 11.2623 335.369 15.2005 343.22C15.2005 343.22 15.4749 335.899 23.1117 330.206C23.1117 330.206 16.7035 331.696 10.8078 321.238Z" fill="#F0CA50"/>
<g opacity="0.05">
<path opacity="0.64" d="M56.0719 220.849C56.0719 223.966 58.5991 226.493 61.7166 226.493C64.8341 226.493 67.3613 223.966 67.3613 220.849C67.3613 217.731 64.8341 215.204 61.7166 215.204C58.5991 215.204 56.0719 217.731 56.0719 220.849Z" fill="black"/>
<path opacity="0.64" d="M76.8865 220.849C76.8865 223.966 79.4136 226.493 82.5311 226.493C85.6485 226.493 88.1758 223.966 88.1758 220.849C88.1758 217.731 85.6485 215.204 82.5311 215.204C79.4136 215.204 76.8865 217.731 76.8865 220.849Z" fill="black"/>
<path opacity="0.64" d="M97.7009 220.849C97.7009 223.966 100.228 226.493 103.346 226.493C106.463 226.493 108.99 223.966 108.99 220.849C108.99 217.731 106.463 215.204 103.346 215.204C100.228 215.204 97.7009 217.731 97.7009 220.849Z" fill="black"/>
<path opacity="0.64" d="M118.692 220.849C118.692 223.966 121.219 226.493 124.337 226.493C127.454 226.493 129.981 223.966 129.981 220.849C129.981 217.731 127.454 215.204 124.337 215.204C121.219 215.204 118.692 217.731 118.692 220.849Z" fill="black"/>
<path opacity="0.64" d="M56.0719 239.018C56.0719 242.135 58.5991 244.662 61.7166 244.662C64.8341 244.662 67.3613 242.135 67.3613 239.018C67.3613 235.9 64.8341 233.373 61.7166 233.373C58.5991 233.373 56.0719 235.9 56.0719 239.018Z" fill="black"/>
<path opacity="0.64" d="M76.8865 239.018C76.8865 242.135 79.4136 244.662 82.5311 244.662C85.6485 244.662 88.1758 242.135 88.1758 239.018C88.1758 235.9 85.6485 233.373 82.5311 233.373C79.4136 233.373 76.8865 235.9 76.8865 239.018Z" fill="black"/>
<path opacity="0.64" d="M97.7009 239.018C97.7009 242.135 100.228 244.662 103.346 244.662C106.463 244.662 108.99 242.135 108.99 239.018C108.99 235.9 106.463 233.373 103.346 233.373C100.228 233.373 97.7009 235.9 97.7009 239.018Z" fill="black"/>
<path opacity="0.64" d="M118.692 239.018C118.692 242.135 121.219 244.662 124.337 244.662C127.454 244.662 129.981 242.135 129.981 239.018C129.981 235.9 127.454 233.373 124.337 233.373C121.219 233.373 118.692 235.9 118.692 239.018Z" fill="black"/>
<path opacity="0.64" d="M56.0709 257.187C56.0709 260.304 58.5982 262.831 61.7156 262.831C64.8331 262.831 67.3604 260.304 67.3604 257.187C67.3604 254.069 64.8331 251.542 61.7156 251.542C58.5982 251.542 56.0709 254.069 56.0709 257.187Z" fill="black"/>
<path opacity="0.64" d="M76.8865 257.187C76.8865 260.304 79.4136 262.831 82.5311 262.831C85.6485 262.831 88.1758 260.304 88.1758 257.187C88.1758 254.069 85.6485 251.542 82.5311 251.542C79.4136 251.542 76.8865 254.069 76.8865 257.187Z" fill="black"/>
<path opacity="0.64" d="M97.7009 257.187C97.7009 260.304 100.228 262.831 103.346 262.831C106.463 262.831 108.99 260.304 108.99 257.187C108.99 254.069 106.463 251.542 103.346 251.542C100.228 251.542 97.7009 254.069 97.7009 257.187Z" fill="black"/>
<path opacity="0.64" d="M118.692 257.187C118.692 260.304 121.219 262.831 124.337 262.831C127.454 262.831 129.981 260.304 129.981 257.187C129.981 254.069 127.454 251.542 124.337 251.542C121.219 251.542 118.692 254.069 118.692 257.187Z" fill="black"/>
<path opacity="0.64" d="M56.0709 275.356C56.0709 278.473 58.5982 281 61.7156 281C64.8331 281 67.3604 278.473 67.3604 275.356C67.3604 272.238 64.8331 269.711 61.7156 269.711C58.5982 269.711 56.0709 272.238 56.0709 275.356Z" fill="black"/>
<path opacity="0.64" d="M76.8865 275.356C76.8865 278.473 79.4136 281 82.5311 281C85.6485 281 88.1758 278.473 88.1758 275.356C88.1758 272.238 85.6485 269.711 82.5311 269.711C79.4136 269.711 76.8865 272.238 76.8865 275.356Z" fill="black"/>
<path opacity="0.64" d="M97.7009 275.356C97.7009 278.473 100.228 281 103.346 281C106.463 281 108.99 278.473 108.99 275.356C108.99 272.238 106.463 269.711 103.346 269.711C100.228 269.711 97.7009 272.238 97.7009 275.356Z" fill="black"/>
<path opacity="0.64" d="M118.692 275.356C118.692 278.473 121.219 281 124.337 281C127.454 281 129.981 278.473 129.981 275.356C129.981 272.238 127.454 269.711 124.337 269.711C121.219 269.711 118.692 272.238 118.692 275.356Z" fill="black"/>
<path opacity="0.64" d="M56.0709 148.879C56.0709 151.997 58.5982 154.524 61.7156 154.524C64.8331 154.524 67.3604 151.997 67.3604 148.879C67.3604 145.762 64.8331 143.234 61.7156 143.234C58.5982 143.234 56.0709 145.762 56.0709 148.879Z" fill="black"/>
<path opacity="0.64" d="M76.8865 148.879C76.8865 151.997 79.4136 154.524 82.5311 154.524C85.6485 154.524 88.1758 151.997 88.1758 148.879C88.1758 145.762 85.6485 143.234 82.5311 143.234C79.4136 143.234 76.8865 145.762 76.8865 148.879Z" fill="black"/>
<path opacity="0.64" d="M97.7019 148.879C97.7019 151.997 100.229 154.524 103.347 154.524C106.464 154.524 108.991 151.997 108.991 148.879C108.991 145.762 106.464 143.234 103.347 143.234C100.229 143.234 97.7019 145.762 97.7019 148.879Z" fill="black"/>
<path opacity="0.64" d="M118.693 148.879C118.693 151.997 121.22 154.524 124.338 154.524C127.455 154.524 129.982 151.997 129.982 148.879C129.982 145.762 127.455 143.234 124.338 143.234C121.22 143.234 118.693 145.762 118.693 148.879Z" fill="black"/>
<path opacity="0.64" d="M56.0709 167.048C56.0709 170.166 58.5982 172.693 61.7156 172.693C64.8331 172.693 67.3604 170.166 67.3604 167.048C67.3604 163.931 64.8331 161.403 61.7156 161.403C58.5982 161.403 56.0709 163.931 56.0709 167.048Z" fill="black"/>
<path opacity="0.64" d="M76.8865 167.048C76.8865 170.166 79.4136 172.693 82.5311 172.693C85.6485 172.693 88.1758 170.166 88.1758 167.048C88.1758 163.931 85.6485 161.403 82.5311 161.403C79.4136 161.403 76.8865 163.931 76.8865 167.048Z" fill="black"/>
<path opacity="0.64" d="M97.7019 167.048C97.7019 170.166 100.229 172.693 103.347 172.693C106.464 172.693 108.991 170.166 108.991 167.048C108.991 163.931 106.464 161.403 103.347 161.403C100.229 161.403 97.7019 163.931 97.7019 167.048Z" fill="black"/>
<path opacity="0.64" d="M118.693 167.048C118.693 170.166 121.22 172.693 124.338 172.693C127.455 172.693 129.982 170.166 129.982 167.048C129.982 163.931 127.455 161.403 124.338 161.403C121.22 161.403 118.693 163.931 118.693 167.048Z" fill="black"/>
<path opacity="0.64" d="M56.0719 185.04C56.0719 188.158 58.5991 190.685 61.7166 190.685C64.8341 190.685 67.3613 188.158 67.3613 185.04C67.3613 181.923 64.8341 179.396 61.7166 179.396C58.5991 179.396 56.0719 181.923 56.0719 185.04Z" fill="black"/>
<path opacity="0.64" d="M76.8865 185.04C76.8865 188.158 79.4136 190.685 82.5311 190.685C85.6485 190.685 88.1758 188.158 88.1758 185.04C88.1758 181.923 85.6485 179.396 82.5311 179.396C79.4136 179.396 76.8865 181.923 76.8865 185.04Z" fill="black"/>
<path opacity="0.64" d="M97.7009 185.04C97.7009 188.158 100.228 190.685 103.346 190.685C106.463 190.685 108.99 188.158 108.99 185.04C108.99 181.923 106.463 179.396 103.346 179.396C100.228 179.396 97.7009 181.923 97.7009 185.04Z" fill="black"/>
<path opacity="0.64" d="M118.692 185.04C118.692 188.158 121.219 190.685 124.337 190.685C127.454 190.685 129.981 188.158 129.981 185.04C129.981 181.923 127.454 179.396 124.337 179.396C121.219 179.396 118.692 181.923 118.692 185.04Z" fill="black"/>
<path opacity="0.64" d="M56.0719 203.209C56.0719 206.327 58.5991 208.854 61.7166 208.854C64.8341 208.854 67.3613 206.327 67.3613 203.209C67.3613 200.092 64.8341 197.564 61.7166 197.564C58.5991 197.564 56.0719 200.092 56.0719 203.209Z" fill="black"/>
<path opacity="0.64" d="M76.8865 203.209C76.8865 206.327 79.4136 208.854 82.5311 208.854C85.6485 208.854 88.1758 206.327 88.1758 203.209C88.1758 200.092 85.6485 197.564 82.5311 197.564C79.4136 197.564 76.8865 200.092 76.8865 203.209Z" fill="black"/>
<path opacity="0.64" d="M97.7009 203.209C97.7009 206.327 100.228 208.854 103.346 208.854C106.463 208.854 108.99 206.327 108.99 203.209C108.99 200.092 106.463 197.564 103.346 197.564C100.228 197.564 97.7009 200.092 97.7009 203.209Z" fill="black"/>
<path opacity="0.64" d="M118.692 203.209C118.692 206.327 121.219 208.854 124.337 208.854C127.454 208.854 129.981 206.327 129.981 203.209C129.981 200.092 127.454 197.564 124.337 197.564C121.219 197.564 118.692 200.092 118.692 203.209Z" fill="black"/>
<path opacity="0.64" d="M136.861 220.849C136.861 223.966 139.388 226.493 142.506 226.493C145.623 226.493 148.15 223.966 148.15 220.849C148.15 217.731 145.623 215.204 142.506 215.204C139.388 215.204 136.861 217.731 136.861 220.849Z" fill="black"/>
<path opacity="0.64" d="M157.676 220.849C157.676 223.966 160.203 226.493 163.32 226.493C166.438 226.493 168.965 223.966 168.965 220.849C168.965 217.731 166.438 215.204 163.32 215.204C160.203 215.204 157.676 217.731 157.676 220.849Z" fill="black"/>
<path opacity="0.64" d="M178.668 220.849C178.668 223.966 181.195 226.493 184.312 226.493C187.43 226.493 189.957 223.966 189.957 220.849C189.957 217.731 187.43 215.204 184.312 215.204C181.195 215.204 178.668 217.731 178.668 220.849Z" fill="black"/>
<path opacity="0.64" d="M199.482 220.85C199.482 223.967 202.009 226.494 205.127 226.494C208.244 226.494 210.771 223.967 210.771 220.85C210.771 217.732 208.244 215.205 205.127 215.205C202.009 215.205 199.482 217.732 199.482 220.85Z" fill="black"/>
<path opacity="0.64" d="M136.862 239.018C136.862 242.135 139.389 244.662 142.507 244.662C145.624 244.662 148.151 242.135 148.151 239.018C148.151 235.9 145.624 233.373 142.507 233.373C139.389 233.373 136.862 235.9 136.862 239.018Z" fill="black"/>
<path opacity="0.64" d="M157.676 239.018C157.676 242.135 160.204 244.662 163.321 244.662C166.439 244.662 168.966 242.135 168.966 239.018C168.966 235.9 166.439 233.373 163.321 233.373C160.204 233.373 157.676 235.9 157.676 239.018Z" fill="black"/>
<path opacity="0.64" d="M178.667 239.018C178.667 242.135 181.194 244.662 184.311 244.662C187.429 244.662 189.956 242.135 189.956 239.018C189.956 235.9 187.429 233.373 184.311 233.373C181.194 233.373 178.667 235.9 178.667 239.018Z" fill="black"/>
<path opacity="0.64" d="M199.482 239.018C199.482 242.135 202.009 244.662 205.127 244.662C208.244 244.662 210.771 242.135 210.771 239.018C210.771 235.9 208.244 233.373 205.127 233.373C202.009 233.373 199.482 235.9 199.482 239.018Z" fill="black"/>
<path opacity="0.64" d="M136.861 257.187C136.861 260.304 139.388 262.831 142.506 262.831C145.623 262.831 148.15 260.304 148.15 257.187C148.15 254.069 145.623 251.542 142.506 251.542C139.388 251.542 136.861 254.069 136.861 257.187Z" fill="black"/>
<path opacity="0.64" d="M157.676 257.187C157.676 260.304 160.204 262.831 163.321 262.831C166.439 262.831 168.966 260.304 168.966 257.187C168.966 254.069 166.439 251.542 163.321 251.542C160.204 251.542 157.676 254.069 157.676 257.187Z" fill="black"/>
<path opacity="0.64" d="M178.668 257.187C178.668 260.304 181.195 262.831 184.312 262.831C187.43 262.831 189.957 260.304 189.957 257.187C189.957 254.069 187.43 251.542 184.312 251.542C181.195 251.542 178.668 254.069 178.668 257.187Z" fill="black"/>
<path opacity="0.64" d="M199.482 257.187C199.482 260.304 202.009 262.831 205.127 262.831C208.244 262.831 210.771 260.304 210.771 257.187C210.771 254.069 208.244 251.542 205.127 251.542C202.009 251.542 199.482 254.069 199.482 257.187Z" fill="black"/>
<path opacity="0.64" d="M136.861 275.356C136.861 278.473 139.388 281 142.506 281C145.623 281 148.15 278.473 148.15 275.356C148.15 272.238 145.623 269.711 142.506 269.711C139.388 269.711 136.861 272.238 136.861 275.356Z" fill="black"/>
<path opacity="0.64" d="M157.676 275.356C157.676 278.473 160.203 281 163.32 281C166.438 281 168.965 278.473 168.965 275.356C168.965 272.238 166.438 269.711 163.32 269.711C160.203 269.711 157.676 272.238 157.676 275.356Z" fill="black"/>
<path opacity="0.64" d="M178.668 275.356C178.668 278.473 181.195 281 184.312 281C187.43 281 189.957 278.473 189.957 275.356C189.957 272.238 187.43 269.711 184.312 269.711C181.195 269.711 178.668 272.238 178.668 275.356Z" fill="black"/>
<path opacity="0.64" d="M199.482 275.356C199.482 278.473 202.009 281 205.127 281C208.244 281 210.771 278.473 210.771 275.356C210.771 272.238 208.244 269.711 205.127 269.711C202.009 269.711 199.482 272.238 199.482 275.356Z" fill="black"/>
<path opacity="0.64" d="M136.862 148.879C136.862 151.997 139.389 154.524 142.507 154.524C145.624 154.524 148.151 151.997 148.151 148.879C148.151 145.762 145.624 143.234 142.507 143.234C139.389 143.234 136.862 145.762 136.862 148.879Z" fill="black"/>
<path opacity="0.64" d="M157.676 148.879C157.676 151.997 160.204 154.524 163.321 154.524C166.439 154.524 168.966 151.997 168.966 148.879C168.966 145.762 166.439 143.234 163.321 143.234C160.204 143.234 157.676 145.762 157.676 148.879Z" fill="black"/>
<path opacity="0.64" d="M178.667 148.879C178.667 151.997 181.194 154.524 184.311 154.524C187.429 154.524 189.956 151.997 189.956 148.879C189.956 145.762 187.429 143.234 184.311 143.234C181.194 143.234 178.667 145.762 178.667 148.879Z" fill="black"/>
<path opacity="0.64" d="M199.482 148.879C199.482 151.997 202.009 154.524 205.127 154.524C208.244 154.524 210.771 151.997 210.771 148.879C210.771 145.762 208.244 143.234 205.127 143.234C202.009 143.234 199.482 145.762 199.482 148.879Z" fill="black"/>
<path opacity="0.64" d="M136.862 167.048C136.862 170.166 139.389 172.693 142.507 172.693C145.624 172.693 148.151 170.166 148.151 167.048C148.151 163.931 145.624 161.403 142.507 161.403C139.389 161.403 136.862 163.931 136.862 167.048Z" fill="black"/>
<path opacity="0.64" d="M157.676 167.048C157.676 170.166 160.204 172.693 163.321 172.693C166.439 172.693 168.966 170.166 168.966 167.048C168.966 163.931 166.439 161.403 163.321 161.403C160.204 161.403 157.676 163.931 157.676 167.048Z" fill="black"/>
<path opacity="0.64" d="M178.668 167.048C178.668 170.166 181.195 172.693 184.312 172.693C187.43 172.693 189.957 170.166 189.957 167.048C189.957 163.931 187.43 161.403 184.312 161.403C181.195 161.403 178.668 163.931 178.668 167.048Z" fill="black"/>
<path opacity="0.64" d="M199.482 167.048C199.482 170.166 202.009 172.693 205.127 172.693C208.244 172.693 210.771 170.166 210.771 167.048C210.771 163.931 208.244 161.403 205.127 161.403C202.009 161.403 199.482 163.931 199.482 167.048Z" fill="black"/>
<path opacity="0.64" d="M136.861 185.04C136.861 188.158 139.388 190.685 142.506 190.685C145.623 190.685 148.15 188.158 148.15 185.04C148.15 181.923 145.623 179.396 142.506 179.396C139.388 179.396 136.861 181.923 136.861 185.04Z" fill="black"/>
<path opacity="0.64" d="M157.676 185.04C157.676 188.158 160.203 190.685 163.32 190.685C166.438 190.685 168.965 188.158 168.965 185.04C168.965 181.923 166.438 179.396 163.32 179.396C160.203 179.396 157.676 181.923 157.676 185.04Z" fill="black"/>
<path opacity="0.64" d="M178.667 185.04C178.667 188.158 181.194 190.685 184.311 190.685C187.429 190.685 189.956 188.158 189.956 185.04C189.956 181.923 187.429 179.396 184.311 179.396C181.194 179.396 178.667 181.923 178.667 185.04Z" fill="black"/>
<path opacity="0.64" d="M199.482 185.041C199.482 188.159 202.009 190.686 205.127 190.686C208.244 190.686 210.771 188.159 210.771 185.041C210.771 181.924 208.244 179.396 205.127 179.396C202.009 179.396 199.482 181.924 199.482 185.041Z" fill="black"/>
<path opacity="0.64" d="M136.861 203.209C136.861 206.327 139.388 208.854 142.506 208.854C145.623 208.854 148.15 206.327 148.15 203.209C148.15 200.092 145.623 197.564 142.506 197.564C139.388 197.564 136.861 200.092 136.861 203.209Z" fill="black"/>
<path opacity="0.64" d="M157.676 203.209C157.676 206.327 160.203 208.854 163.32 208.854C166.438 208.854 168.965 206.327 168.965 203.209C168.965 200.092 166.438 197.564 163.32 197.564C160.203 197.564 157.676 200.092 157.676 203.209Z" fill="black"/>
<path opacity="0.64" d="M178.668 203.209C178.668 206.327 181.195 208.854 184.312 208.854C187.43 208.854 189.957 206.327 189.957 203.209C189.957 200.092 187.43 197.564 184.312 197.564C181.195 197.564 178.668 200.092 178.668 203.209Z" fill="black"/>
<path opacity="0.64" d="M199.482 203.209C199.482 206.327 202.009 208.854 205.127 208.854C208.244 208.854 210.771 206.327 210.771 203.209C210.771 200.092 208.244 197.564 205.127 197.564C202.009 197.564 199.482 200.092 199.482 203.209Z" fill="black"/>
<path opacity="0.64" d="M56.0709 77.7912C56.0709 80.9087 58.5982 83.4359 61.7156 83.4359C64.8331 83.4359 67.3604 80.9087 67.3604 77.7912C67.3604 74.6737 64.8331 72.1465 61.7156 72.1465C58.5982 72.1465 56.0709 74.6737 56.0709 77.7912Z" fill="black"/>
<path opacity="0.64" d="M76.8865 77.7912C76.8865 80.9087 79.4136 83.4359 82.5311 83.4359C85.6485 83.4359 88.1758 80.9087 88.1758 77.7912C88.1758 74.6737 85.6485 72.1465 82.5311 72.1465C79.4136 72.1465 76.8865 74.6737 76.8865 77.7912Z" fill="black"/>
<path opacity="0.64" d="M97.7009 77.7912C97.7009 80.9087 100.228 83.4359 103.346 83.4359C106.463 83.4359 108.99 80.9087 108.99 77.7912C108.99 74.6737 106.463 72.1465 103.346 72.1465C100.228 72.1465 97.7009 74.6737 97.7009 77.7912Z" fill="black"/>
<path opacity="0.64" d="M118.692 77.7902C118.692 80.9077 121.219 83.4349 124.337 83.4349C127.454 83.4349 129.981 80.9077 129.981 77.7902C129.981 74.6727 127.454 72.1455 124.337 72.1455C121.219 72.1455 118.692 74.6727 118.692 77.7902Z" fill="black"/>
<path opacity="0.64" d="M56.0709 95.7834C56.0709 98.9009 58.5982 101.428 61.7156 101.428C64.8331 101.428 67.3604 98.9009 67.3604 95.7834C67.3604 92.6659 64.8331 90.1387 61.7156 90.1387C58.5982 90.1387 56.0709 92.6659 56.0709 95.7834Z" fill="black"/>
<path opacity="0.64" d="M76.8865 95.7834C76.8865 98.9009 79.4136 101.428 82.5311 101.428C85.6485 101.428 88.1758 98.9009 88.1758 95.7834C88.1758 92.6659 85.6485 90.1387 82.5311 90.1387C79.4136 90.1387 76.8865 92.6659 76.8865 95.7834Z" fill="black"/>
<path opacity="0.64" d="M97.7019 95.7834C97.7019 98.9009 100.229 101.428 103.347 101.428C106.464 101.428 108.991 98.9009 108.991 95.7834C108.991 92.6659 106.464 90.1387 103.347 90.1387C100.229 90.1387 97.7019 92.6659 97.7019 95.7834Z" fill="black"/>
<path opacity="0.64" d="M118.693 95.7834C118.693 98.9009 121.22 101.428 124.338 101.428C127.455 101.428 129.982 98.9009 129.982 95.7834C129.982 92.6659 127.455 90.1387 124.338 90.1387C121.22 90.1387 118.693 92.6659 118.693 95.7834Z" fill="black"/>
<path opacity="0.64" d="M56.0709 113.952C56.0709 117.07 58.5982 119.597 61.7156 119.597C64.8331 119.597 67.3604 117.07 67.3604 113.952C67.3604 110.835 64.8331 108.308 61.7156 108.308C58.5982 108.308 56.0709 110.835 56.0709 113.952Z" fill="black"/>
<path opacity="0.64" d="M76.8865 113.952C76.8865 117.07 79.4136 119.597 82.5311 119.597C85.6485 119.597 88.1758 117.07 88.1758 113.952C88.1758 110.835 85.6485 108.308 82.5311 108.308C79.4136 108.308 76.8865 110.835 76.8865 113.952Z" fill="black"/>
<path opacity="0.64" d="M97.7019 113.952C97.7019 117.07 100.229 119.597 103.347 119.597C106.464 119.597 108.991 117.07 108.991 113.952C108.991 110.835 106.464 108.308 103.347 108.308C100.229 108.308 97.7019 110.835 97.7019 113.952Z" fill="black"/>
<path opacity="0.64" d="M118.693 113.952C118.693 117.07 121.22 119.597 124.338 119.597C127.455 119.597 129.982 117.07 129.982 113.952C129.982 110.835 127.455 108.308 124.338 108.308C121.22 108.308 118.693 110.835 118.693 113.952Z" fill="black"/>
<path opacity="0.64" d="M56.0709 132.121C56.0709 135.239 58.5982 137.766 61.7156 137.766C64.8331 137.766 67.3604 135.239 67.3604 132.121C67.3604 129.004 64.8331 126.477 61.7156 126.477C58.5982 126.477 56.0709 129.004 56.0709 132.121Z" fill="black"/>
<path opacity="0.64" d="M76.8865 132.121C76.8865 135.239 79.4136 137.766 82.5311 137.766C85.6485 137.766 88.1758 135.239 88.1758 132.121C88.1758 129.004 85.6485 126.477 82.5311 126.477C79.4136 126.477 76.8865 129.004 76.8865 132.121Z" fill="black"/>
<path opacity="0.64" d="M97.7019 132.121C97.7019 135.239 100.229 137.766 103.347 137.766C106.464 137.766 108.991 135.239 108.991 132.121C108.991 129.004 106.464 126.477 103.347 126.477C100.229 126.477 97.7019 129.004 97.7019 132.121Z" fill="black"/>
<path opacity="0.64" d="M118.693 132.121C118.693 135.239 121.22 137.766 124.338 137.766C127.455 137.766 129.982 135.239 129.982 132.121C129.982 129.004 127.455 126.477 124.338 126.477C121.22 126.477 118.693 129.004 118.693 132.121Z" fill="black"/>
<path opacity="0.64" d="M56.0719 5.64472C56.0719 8.7622 58.5991 11.2894 61.7166 11.2894C64.8341 11.2894 67.3613 8.7622 67.3613 5.64472C67.3613 2.52724 64.8341 -1.10469e-07 61.7166 -2.46738e-07C58.5991 -3.83008e-07 56.0719 2.52724 56.0719 5.64472Z" fill="black"/>
<path opacity="0.64" d="M76.8865 5.64472C76.8865 8.7622 79.4136 11.2894 82.5311 11.2894C85.6485 11.2894 88.1758 8.7622 88.1758 5.64472C88.1758 2.52724 85.6485 -1.10469e-07 82.5311 -2.46738e-07C79.4136 -3.83008e-07 76.8865 2.52724 76.8865 5.64472Z" fill="black"/>
<path opacity="0.64" d="M97.7009 5.64472C97.7009 8.7622 100.228 11.2894 103.346 11.2894C106.463 11.2894 108.99 8.7622 108.99 5.64472C108.99 2.52724 106.463 -1.10464e-07 103.346 -2.46734e-07C100.228 -3.83003e-07 97.7009 2.52724 97.7009 5.64472Z" fill="black"/>
<path opacity="0.64" d="M118.692 5.64472C118.692 8.7622 121.219 11.2894 124.337 11.2894C127.454 11.2894 129.981 8.7622 129.981 5.64472C129.981 2.52724 127.454 -1.10469e-07 124.337 -2.46738e-07C121.219 -3.83008e-07 118.692 2.52724 118.692 5.64472Z" fill="black"/>
<path opacity="0.64" d="M56.0709 23.8136C56.0709 26.9311 58.5982 29.4584 61.7156 29.4584C64.8331 29.4584 67.3604 26.9311 67.3604 23.8136C67.3604 20.6962 64.8331 18.1689 61.7156 18.1689C58.5982 18.1689 56.0709 20.6962 56.0709 23.8136Z" fill="black"/>
<path opacity="0.64" d="M76.8865 23.8136C76.8865 26.9311 79.4136 29.4584 82.5311 29.4584C85.6485 29.4584 88.1758 26.9311 88.1758 23.8136C88.1758 20.6962 85.6485 18.1689 82.5311 18.1689C79.4136 18.1689 76.8865 20.6962 76.8865 23.8136Z" fill="black"/>
<path opacity="0.64" d="M97.7009 23.8136C97.7009 26.9311 100.228 29.4584 103.346 29.4584C106.463 29.4584 108.99 26.9311 108.99 23.8136C108.99 20.6962 106.463 18.1689 103.346 18.1689C100.228 18.1689 97.7009 20.6962 97.7009 23.8136Z" fill="black"/>
<path opacity="0.64" d="M118.692 23.8136C118.692 26.9311 121.219 29.4584 124.337 29.4584C127.454 29.4584 129.981 26.9311 129.981 23.8136C129.981 20.6962 127.454 18.1689 124.337 18.1689C121.219 18.1689 118.692 20.6962 118.692 23.8136Z" fill="black"/>
<path opacity="0.64" d="M56.0709 41.9826C56.0709 45.1001 58.5982 47.6273 61.7156 47.6273C64.8331 47.6273 67.3604 45.1001 67.3604 41.9826C67.3604 38.8651 64.8331 36.3379 61.7156 36.3379C58.5982 36.3379 56.0709 38.8651 56.0709 41.9826Z" fill="black"/>
<path opacity="0.64" d="M76.8865 41.9826C76.8865 45.1001 79.4136 47.6273 82.5311 47.6273C85.6485 47.6273 88.1758 45.1001 88.1758 41.9826C88.1758 38.8651 85.6485 36.3379 82.5311 36.3379C79.4136 36.3379 76.8865 38.8651 76.8865 41.9826Z" fill="black"/>
<path opacity="0.64" d="M97.7009 41.9826C97.7009 45.1001 100.228 47.6273 103.346 47.6273C106.463 47.6273 108.99 45.1001 108.99 41.9826C108.99 38.8651 106.463 36.3379 103.346 36.3379C100.228 36.3379 97.7009 38.8651 97.7009 41.9826Z" fill="black"/>
<path opacity="0.64" d="M118.692 41.9826C118.692 45.1001 121.219 47.6273 124.337 47.6273C127.454 47.6273 129.981 45.1001 129.981 41.9826C129.981 38.8651 127.454 36.3379 124.337 36.3379C121.219 36.3379 118.692 38.8651 118.692 41.9826Z" fill="black"/>
<path opacity="0.64" d="M56.0709 60.1516C56.0709 63.269 58.5982 65.7963 61.7156 65.7963C64.8331 65.7963 67.3604 63.269 67.3604 60.1516C67.3604 57.0341 64.8331 54.5068 61.7156 54.5068C58.5982 54.5068 56.0709 57.0341 56.0709 60.1516Z" fill="black"/>
<path opacity="0.64" d="M76.8865 60.1516C76.8865 63.269 79.4136 65.7963 82.5311 65.7963C85.6485 65.7963 88.1758 63.269 88.1758 60.1516C88.1758 57.0341 85.6485 54.5068 82.5311 54.5068C79.4136 54.5068 76.8865 57.0341 76.8865 60.1516Z" fill="black"/>
<path opacity="0.64" d="M97.7009 60.1506C97.7009 63.2681 100.228 65.7953 103.346 65.7953C106.463 65.7953 108.99 63.2681 108.99 60.1506C108.99 57.0331 106.463 54.5059 103.346 54.5059C100.228 54.5059 97.7009 57.0331 97.7009 60.1506Z" fill="black"/>
<path opacity="0.64" d="M118.692 60.1516C118.692 63.269 121.219 65.7963 124.337 65.7963C127.454 65.7963 129.981 63.269 129.981 60.1516C129.981 57.0341 127.454 54.5068 124.337 54.5068C121.219 54.5068 118.692 57.0341 118.692 60.1516Z" fill="black"/>
<path opacity="0.64" d="M136.862 77.7902C136.862 80.9077 139.389 83.4349 142.507 83.4349C145.624 83.4349 148.151 80.9077 148.151 77.7902C148.151 74.6727 145.624 72.1455 142.507 72.1455C139.389 72.1455 136.862 74.6727 136.862 77.7902Z" fill="black"/>
<path opacity="0.64" d="M157.676 77.7902C157.676 80.9077 160.204 83.4349 163.321 83.4349C166.439 83.4349 168.966 80.9077 168.966 77.7902C168.966 74.6727 166.439 72.1455 163.321 72.1455C160.204 72.1455 157.676 74.6727 157.676 77.7902Z" fill="black"/>
<path opacity="0.64" d="M178.668 77.7902C178.668 80.9077 181.195 83.4349 184.312 83.4349C187.43 83.4349 189.957 80.9077 189.957 77.7902C189.957 74.6727 187.43 72.1455 184.312 72.1455C181.195 72.1455 178.668 74.6727 178.668 77.7902Z" fill="black"/>
<path opacity="0.64" d="M199.482 77.7902C199.482 80.9077 202.009 83.4349 205.127 83.4349C208.244 83.4349 210.771 80.9077 210.771 77.7902C210.771 74.6727 208.244 72.1455 205.127 72.1455C202.009 72.1455 199.482 74.6727 199.482 77.7902Z" fill="black"/>
<path opacity="0.64" d="M136.861 95.7834C136.861 98.9009 139.388 101.428 142.506 101.428C145.623 101.428 148.15 98.9009 148.15 95.7834C148.15 92.6659 145.623 90.1387 142.506 90.1387C139.388 90.1387 136.861 92.6659 136.861 95.7834Z" fill="black"/>
<path opacity="0.64" d="M157.676 95.7834C157.676 98.9009 160.203 101.428 163.32 101.428C166.438 101.428 168.965 98.9009 168.965 95.7834C168.965 92.6659 166.438 90.1387 163.32 90.1387C160.203 90.1387 157.676 92.6659 157.676 95.7834Z" fill="black"/>
<path opacity="0.64" d="M178.667 95.7834C178.667 98.9009 181.194 101.428 184.311 101.428C187.429 101.428 189.956 98.9009 189.956 95.7834C189.956 92.6659 187.429 90.1387 184.311 90.1387C181.194 90.1387 178.667 92.6659 178.667 95.7834Z" fill="black"/>
<path opacity="0.64" d="M199.482 95.7834C199.482 98.9009 202.009 101.428 205.127 101.428C208.244 101.428 210.771 98.9009 210.771 95.7834C210.771 92.6659 208.244 90.1387 205.127 90.1387C202.009 90.1387 199.482 92.6659 199.482 95.7834Z" fill="black"/>
<path opacity="0.64" d="M136.861 113.952C136.861 117.07 139.388 119.597 142.506 119.597C145.623 119.597 148.15 117.07 148.15 113.952C148.15 110.835 145.623 108.308 142.506 108.308C139.388 108.308 136.861 110.835 136.861 113.952Z" fill="black"/>
<path opacity="0.64" d="M157.676 113.952C157.676 117.07 160.203 119.597 163.32 119.597C166.438 119.597 168.965 117.07 168.965 113.952C168.965 110.835 166.438 108.308 163.32 108.308C160.203 108.308 157.676 110.835 157.676 113.952Z" fill="black"/>
<path opacity="0.64" d="M178.667 113.952C178.667 117.07 181.194 119.597 184.311 119.597C187.429 119.597 189.956 117.07 189.956 113.952C189.956 110.835 187.429 108.308 184.311 108.308C181.194 108.308 178.667 110.835 178.667 113.952Z" fill="black"/>
<path opacity="0.64" d="M199.482 113.952C199.482 117.07 202.009 119.597 205.127 119.597C208.244 119.597 210.771 117.07 210.771 113.952C210.771 110.835 208.244 108.308 205.127 108.308C202.009 108.308 199.482 110.835 199.482 113.952Z" fill="black"/>
<path opacity="0.64" d="M136.861 132.121C136.861 135.239 139.388 137.766 142.506 137.766C145.623 137.766 148.15 135.239 148.15 132.121C148.15 129.004 145.623 126.477 142.506 126.477C139.388 126.477 136.861 129.004 136.861 132.121Z" fill="black"/>
<path opacity="0.64" d="M157.676 132.121C157.676 135.239 160.203 137.766 163.32 137.766C166.438 137.766 168.965 135.239 168.965 132.121C168.965 129.004 166.438 126.477 163.32 126.477C160.203 126.477 157.676 129.004 157.676 132.121Z" fill="black"/>
<path opacity="0.64" d="M178.668 132.121C178.668 135.239 181.195 137.766 184.312 137.766C187.43 137.766 189.957 135.239 189.957 132.121C189.957 129.004 187.43 126.477 184.312 126.477C181.195 126.477 178.668 129.004 178.668 132.121Z" fill="black"/>
<path opacity="0.64" d="M199.482 132.121C199.482 135.239 202.009 137.766 205.127 137.766C208.244 137.766 210.771 135.239 210.771 132.121C210.771 129.004 208.244 126.477 205.127 126.477C202.009 126.477 199.482 129.004 199.482 132.121Z" fill="black"/>
<path opacity="0.64" d="M136.861 5.64472C136.861 8.7622 139.388 11.2894 142.506 11.2894C145.623 11.2894 148.15 8.7622 148.15 5.64472C148.15 2.52724 145.623 -1.10469e-07 142.506 -2.46738e-07C139.388 -3.83008e-07 136.861 2.52724 136.861 5.64472Z" fill="black"/>
<path opacity="0.64" d="M157.676 5.64472C157.676 8.7622 160.203 11.2894 163.32 11.2894C166.438 11.2894 168.965 8.7622 168.965 5.64472C168.965 2.52724 166.438 -1.10464e-07 163.32 -2.46734e-07C160.203 -3.83003e-07 157.676 2.52724 157.676 5.64472Z" fill="black"/>
<path opacity="0.64" d="M178.668 5.64472C178.668 8.7622 181.195 11.2894 184.312 11.2894C187.43 11.2894 189.957 8.7622 189.957 5.64472C189.957 2.52724 187.43 -1.10469e-07 184.312 -2.46738e-07C181.195 -3.83008e-07 178.668 2.52724 178.668 5.64472Z" fill="black"/>
<path opacity="0.64" d="M199.482 5.64472C199.482 8.7622 202.009 11.2894 205.127 11.2894C208.244 11.2894 210.771 8.7622 210.771 5.64472C210.771 2.52724 208.244 -1.10469e-07 205.127 -2.46738e-07C202.009 -3.83008e-07 199.482 2.52724 199.482 5.64472Z" fill="black"/>
<path opacity="0.64" d="M136.861 23.8136C136.861 26.9311 139.388 29.4584 142.506 29.4584C145.623 29.4584 148.15 26.9311 148.15 23.8136C148.15 20.6962 145.623 18.1689 142.506 18.1689C139.388 18.1689 136.861 20.6962 136.861 23.8136Z" fill="black"/>
<path opacity="0.64" d="M157.676 23.8136C157.676 26.9311 160.203 29.4584 163.32 29.4584C166.438 29.4584 168.965 26.9311 168.965 23.8136C168.965 20.6962 166.438 18.1689 163.32 18.1689C160.203 18.1689 157.676 20.6962 157.676 23.8136Z" fill="black"/>
<path opacity="0.64" d="M178.668 23.8136C178.668 26.9311 181.195 29.4584 184.312 29.4584C187.43 29.4584 189.957 26.9311 189.957 23.8136C189.957 20.6962 187.43 18.1689 184.312 18.1689C181.195 18.1689 178.668 20.6962 178.668 23.8136Z" fill="black"/>
<path opacity="0.64" d="M199.482 23.8136C199.482 26.9311 202.009 29.4584 205.127 29.4584C208.244 29.4584 210.771 26.9311 210.771 23.8136C210.771 20.6962 208.244 18.1689 205.127 18.1689C202.009 18.1689 199.482 20.6962 199.482 23.8136Z" fill="black"/>
<path opacity="0.64" d="M136.861 41.9826C136.861 45.1001 139.388 47.6273 142.506 47.6273C145.623 47.6273 148.15 45.1001 148.15 41.9826C148.15 38.8651 145.623 36.3379 142.506 36.3379C139.388 36.3379 136.861 38.8651 136.861 41.9826Z" fill="black"/>
<path opacity="0.64" d="M157.676 41.9826C157.676 45.1001 160.203 47.6273 163.32 47.6273C166.438 47.6273 168.965 45.1001 168.965 41.9826C168.965 38.8651 166.438 36.3379 163.32 36.3379C160.203 36.3379 157.676 38.8651 157.676 41.9826Z" fill="black"/>
<path opacity="0.64" d="M178.668 41.9826C178.668 45.1001 181.195 47.6273 184.312 47.6273C187.43 47.6273 189.957 45.1001 189.957 41.9826C189.957 38.8651 187.43 36.3379 184.312 36.3379C181.195 36.3379 178.668 38.8651 178.668 41.9826Z" fill="black"/>
<path opacity="0.64" d="M199.482 41.9826C199.482 45.1001 202.009 47.6273 205.127 47.6273C208.244 47.6273 210.771 45.1001 210.771 41.9826C210.771 38.8651 208.244 36.3379 205.127 36.3379C202.009 36.3379 199.482 38.8651 199.482 41.9826Z" fill="black"/>
<path opacity="0.64" d="M136.862 60.1516C136.862 63.269 139.389 65.7963 142.507 65.7963C145.624 65.7963 148.151 63.269 148.151 60.1516C148.151 57.0341 145.624 54.5068 142.507 54.5068C139.389 54.5068 136.862 57.0341 136.862 60.1516Z" fill="black"/>
<path opacity="0.64" d="M157.676 60.1506C157.676 63.2681 160.204 65.7953 163.321 65.7953C166.439 65.7953 168.966 63.2681 168.966 60.1506C168.966 57.0331 166.439 54.5059 163.321 54.5059C160.204 54.5059 157.676 57.0331 157.676 60.1506Z" fill="black"/>
<path opacity="0.64" d="M178.668 60.1506C178.668 63.2681 181.195 65.7953 184.312 65.7953C187.43 65.7953 189.957 63.2681 189.957 60.1506C189.957 57.0331 187.43 54.5059 184.312 54.5059C181.195 54.5059 178.668 57.0331 178.668 60.1506Z" fill="black"/>
<path opacity="0.64" d="M199.482 60.1516C199.482 63.269 202.009 65.7963 205.127 65.7963C208.244 65.7963 210.771 63.269 210.771 60.1516C210.771 57.0341 208.244 54.5068 205.127 54.5068C202.009 54.5068 199.482 57.0341 199.482 60.1516Z" fill="black"/>
</g>
<path d="M130.102 310V245H65.0717V310H130.102Z" fill="#8EC6D8"/>
<path d="M87.0669 269.88C90.7806 269.88 93.791 266.869 93.791 263.156C93.791 259.442 90.7806 256.432 87.0669 256.432C83.3533 256.432 80.3428 259.442 80.3428 263.156C80.3428 266.869 83.3533 269.88 87.0669 269.88Z" fill="#23335D"/>
<path d="M105.222 286.914L112.17 298.943" stroke="#EE4D4A" stroke-width="7" stroke-miterlimit="10"/>
<path d="M115.084 289.155L102.98 296.104" stroke="#EE4D4A" stroke-width="7" stroke-miterlimit="10"/>
<path d="M87.739 273.615H84.5264V276.835H87.739V273.615Z" fill="white"/>
<path d="M87.739 278.471H84.5264V281.691H87.739V278.471Z" fill="white"/>
<path d="M87.739 283.477H84.5264V286.697H87.739V283.477Z" fill="white"/>
<path d="M87.739 288.408H84.5264V291.628H87.739V288.408Z" fill="white"/>
<path d="M92.7449 288.408H89.5322V291.628H92.7449V288.408Z" fill="white"/>
<path d="M97.8259 288.408H94.6133V291.628H97.8259V288.408Z" fill="white"/>
</svg>
