<svg width="79" height="80" viewBox="0 0 79 80" fill="none" xmlns="http://www.w3.org/2000/svg">
<path d="M69.3423 77.9336C74.5073 77.9336 78.6943 73.7466 78.6943 68.5817C78.6943 63.4167 74.5073 59.2295 69.3423 59.2295C64.1773 59.2295 59.9902 63.4167 59.9902 68.5817C59.9902 73.7466 64.1773 77.9336 69.3423 77.9336Z" fill="#5C9EDC"/>
<path d="M73.4742 64.4497C71.2269 62.1661 67.5658 62.1661 65.2821 64.4134C63.506 66.1896 63.0347 68.9083 64.1947 71.1557L63.5785 74.1279C63.5785 74.2004 63.5785 74.2367 63.6147 74.3092C63.651 74.3816 63.7597 74.418 63.8685 74.418L66.8046 73.7291C69.6682 75.1428 73.148 73.983 74.5617 71.1194C75.6491 68.872 75.2142 66.2259 73.4742 64.4497ZM72.568 71.7355C71.1906 73.1129 69.0882 73.4393 67.3483 72.5693L66.9496 72.3518L65.1734 72.7868V72.7505L65.5359 70.9381L65.3184 70.5394C64.4122 68.7994 64.7747 66.6608 66.1521 65.2834C67.9283 63.5072 70.7919 63.5072 72.568 65.2834C72.568 65.2834 72.568 65.2834 72.6043 65.3197C74.3442 67.1321 74.308 69.9593 72.568 71.7355Z" fill="white"/>
<path d="M72.3867 70.3945C72.1693 70.757 71.8068 71.1557 71.3718 71.2645C70.6106 71.4457 69.4506 71.2644 67.9645 69.9232C66.6958 68.727 66.3333 67.7484 66.442 66.951C66.4783 66.516 66.8408 66.1172 67.167 65.8272C67.3482 65.6822 67.602 65.6823 67.747 65.8635C67.7832 65.8998 67.7832 65.9359 67.8195 65.9722L68.2907 67.0234C68.3632 67.1683 68.3269 67.3134 68.2544 67.4584L68.0007 67.7846C67.892 67.9296 67.892 68.1109 67.9645 68.2559C68.1094 68.4734 68.4357 68.8359 68.7619 69.1621C69.1606 69.5246 69.5956 69.8508 69.8856 69.9595C70.0306 70.032 70.2118 69.9958 70.3206 69.8508L70.6106 69.5607C70.7193 69.452 70.8643 69.4158 71.0093 69.4521L72.133 69.7783C72.3505 69.8508 72.4955 70.0682 72.423 70.322C72.423 70.3582 72.423 70.3945 72.3867 70.3945Z" fill="white"/>
<path d="M20.6978 33.7835V47.0504C20.6978 49.0803 19.0303 50.7476 17.0004 50.7476H8.91707V42.4831H11.7807L12.0707 39.4744H8.91707V37.4807C8.91707 36.8282 9.35205 36.6833 9.67829 36.6833C9.96827 36.6833 12.0707 36.6833 12.0707 36.6833V33.7472H8.95332C6.05346 33.7472 5.40099 35.922 5.40099 37.2995V39.4744H3.04485V42.4468H5.40099V50.7113H3.69732C1.66742 50.7113 0 49.044 0 47.0141V33.7472C0 31.7173 1.66742 30.0498 3.69732 30.0498H16.9642C19.0303 30.0861 20.6978 31.7536 20.6978 33.7835Z" fill="#5C9EDC"/>
<path d="M58.7225 80H22.1843C19.8644 80 17.9795 78.1151 17.9795 75.7952V4.20483C17.9795 1.88495 19.8644 0 22.1843 0H58.7225C61.0424 0 62.9273 1.88495 62.9273 4.20483V75.7952C62.9273 78.1151 61.0424 80 58.7225 80Z" fill="#5C9EDC"/>
<path d="M17.9795 9.93164H62.9273V70.0677H17.9795V9.93164Z" fill="#F0F0F0"/>
<path d="M23.38 19.2118H11.998L18.0153 9.75098H27.0048L23.38 19.2118Z" fill="#EE4D4A"/>
<path d="M34.7618 19.3925H23.3799L26.9685 9.93164H35.958L34.7618 19.3925Z" fill="#1C427B"/>
<path d="M46.1447 19.2118H34.7627L35.9589 9.75098H44.9485L46.1447 19.2118Z" fill="#EE4D4A"/>
<path d="M57.5616 19.3925H46.1796L44.9834 9.93164H53.973L57.5616 19.3925Z" fill="#1C427B"/>
<path d="M68.9442 19.3925H57.5622L53.9736 9.93164H62.9632L68.9442 19.3925Z" fill="#EE4D4A"/>
<path d="M17.689 29.434C14.5354 29.434 11.998 26.8965 11.998 23.7429V19.2119H23.38V23.7429C23.38 26.8965 20.8426 29.434 17.689 29.434Z" fill="#1C427B"/>
<path d="M29.0709 29.3979C25.9173 29.3979 23.3799 26.8604 23.3799 23.7068V19.1758H34.7618V23.7068C34.7618 26.8604 32.2245 29.3979 29.0709 29.3979Z" fill="#EE4D4A"/>
<path d="M40.4537 29.3979C37.3001 29.3979 34.7627 26.8604 34.7627 23.7068V19.1758H46.1447V23.7068C46.1447 26.8604 43.6073 29.3979 40.4537 29.3979Z" fill="#1C427B"/>
<path d="M51.8716 29.3979C48.718 29.3979 46.1807 26.8604 46.1807 23.7068V19.1758H57.5626V23.7068C57.5626 26.8604 54.989 29.3979 51.8716 29.3979Z" fill="#EE4D4A"/>
<path d="M63.0718 29.434C59.9182 29.434 57.3809 26.8965 57.3809 23.7429V19.2119H68.7628V23.7429C68.7628 26.8965 66.2254 29.434 63.0718 29.434Z" fill="#1C427B"/>
<path d="M40.4536 31.7168C35.2701 31.7168 31.1016 35.9217 31.1016 41.069C31.1016 46.2525 35.3064 50.4209 40.4536 50.4209C45.6371 50.4209 49.8057 46.2162 49.8057 41.069C49.8419 35.9217 45.6371 31.7168 40.4536 31.7168ZM40.4536 47.4848C36.9013 47.4848 34.0377 44.6213 34.0377 41.069C34.0377 37.5166 36.9013 34.6529 40.4536 34.6529C44.0059 34.6529 46.8696 37.5166 46.8696 41.069C46.8696 44.6213 44.0059 47.4848 40.4536 47.4848Z" fill="#F1CA50"/>
<path d="M41.3956 44.6939H38.7858C38.4233 44.6939 38.097 44.4037 38.097 44.005C38.097 43.6425 38.387 43.3163 38.7858 43.3163H41.3956C41.8306 43.3163 42.1568 42.9538 42.1568 42.5551C42.1568 42.1563 41.7944 41.794 41.3956 41.794H39.5107C38.3145 41.794 37.3721 40.8152 37.3721 39.6552C37.3721 38.4953 38.3508 37.5166 39.5107 37.5166H42.1206C42.4831 37.5166 42.8093 37.8066 42.8093 38.2053C42.8093 38.604 42.5193 38.8941 42.1206 38.8941H39.5107C39.0757 38.8941 38.7495 39.2565 38.7495 39.6552C38.7495 40.0539 39.112 40.4165 39.5107 40.4165H41.3956C42.5918 40.4165 43.5343 41.3951 43.5343 42.5551C43.5343 43.715 42.5918 44.6939 41.3956 44.6939Z" fill="#F1CA50"/>
<path d="M40.4534 45.781C40.0909 45.781 39.7646 45.4909 39.7646 45.0922V37.0814C39.7646 36.719 40.0546 36.3926 40.4534 36.3926C40.8158 36.3926 41.1421 36.6827 41.1421 37.0814V45.0922C41.1421 45.4909 40.8521 45.781 40.4534 45.781Z" fill="#F1CA50"/>
</svg>
