<svg width="76" height="83" viewBox="0 0 76 83" fill="none" xmlns="http://www.w3.org/2000/svg">
<path d="M62.3277 11.1039V50.9515C62.3277 57.079 57.3514 62.0553 51.2239 62.0553H27.0479V37.2852H35.6265L36.5178 28.261H27.0479V22.2819C27.0479 20.3137 28.3477 19.831 29.3133 19.831C30.2045 19.831 36.4806 19.831 36.4806 19.831V11.0667H27.0479C18.3951 11.0667 16.4269 17.5656 16.4269 21.7621V28.3352H9.37092V37.2852H16.4269V62.0553H11.3763C5.24876 62.0553 0.272461 57.079 0.272461 50.9515V11.1039C0.272461 4.97636 5.24876 0 11.3763 0H51.2239C57.3514 0 62.3277 4.97636 62.3277 11.1039Z" fill="#5C9EDC"/>
<path d="M75.7345 47.3863V61.2011C75.7345 63.7635 73.6549 65.8803 71.0553 65.8803H42.9058C40.3433 65.8803 38.2266 63.8006 38.2266 61.2011V47.3863C38.2266 44.8239 40.3062 42.707 42.9058 42.707H71.0553C73.6177 42.707 75.7345 44.8239 75.7345 47.3863Z" fill="#F1CA50"/>
<path d="M47.2121 49.1313C46.915 49.9112 44.2412 56.5958 43.2756 58.9725C43.0899 59.4924 43.3127 60.0495 43.8327 60.2352C44.3526 60.4209 44.9096 60.1981 45.0953 59.6782L46.4322 56.3729H49.8116L51.1486 59.6782C51.2971 60.0495 51.6685 60.3095 52.0398 60.3095C52.7454 60.3095 53.1911 59.6038 52.9311 58.9725L48.9946 49.1313C48.6976 48.3143 47.5463 48.3143 47.2121 49.1313ZM47.2121 54.4047L48.1405 52.1394L49.0689 54.4047H47.2121Z" fill="white"/>
<path d="M55.9782 48.5C55.4212 48.5 55.0127 48.9457 55.0127 49.4656V59.3068C55.0127 59.8638 55.4583 60.2723 55.9782 60.2723H56.0154C59.2463 60.2723 61.883 57.6356 61.883 54.4047V54.3676C61.883 51.1367 59.2463 48.5 55.9782 48.5ZM56.9809 50.5797C58.6892 51.0253 59.9519 52.5479 59.9519 54.3676V54.4047C59.9519 56.2244 58.6892 57.7842 56.9809 58.1927V50.5797Z" fill="white"/>
<path d="M67.2672 50.4682H69.7182C70.2752 50.4682 70.6837 50.0225 70.6837 49.5026C70.6837 48.9456 70.2381 48.5371 69.7182 48.5371H67.2672C65.3732 48.5371 63.8506 50.0596 63.8506 51.9907C63.8506 53.8847 65.3732 55.4074 67.2672 55.4074C68.0842 55.4074 68.7526 56.0758 68.7526 56.8928C68.7526 57.7098 68.0842 58.3783 67.2672 58.3783H64.8161C64.2591 58.3783 63.8506 58.8239 63.8506 59.3438C63.8506 59.9009 64.2962 60.3094 64.8161 60.3094H67.2672C69.1611 60.3094 70.7209 58.7868 70.7209 56.8557C70.7209 54.9617 69.1983 53.4019 67.2672 53.4019C66.4501 53.4019 65.7817 52.7335 65.7817 51.9165C65.8188 51.1366 66.4873 50.4682 67.2672 50.4682Z" fill="white"/>
<path d="M58.6143 83H55.3091C54.9006 83 54.6035 82.6658 54.6035 82.2944V65.6572H59.3199V82.2944C59.3199 82.6658 59.0228 83 58.6143 83Z" fill="#F1CA50"/>
</svg>
