<svg width="78" height="80" viewBox="0 0 78 80" fill="none" xmlns="http://www.w3.org/2000/svg">
<path opacity="0.45" d="M38.6529 74.2883C19.7216 74.2883 4.34668 58.9133 4.34668 39.982C4.34668 21.0507 19.7216 5.67578 38.6529 5.67578C57.5842 5.67578 72.9592 21.0507 72.9592 39.982C72.9592 58.9133 57.5483 74.2883 38.6529 74.2883Z" fill="#F1CA50"/>
<path d="M41.4912 11.3516L35.8154 5.67591L41.4912 0V11.3516Z" fill="#F1CA50"/>
<path d="M35.8145 68.6484L41.4903 74.3242L35.8145 80.0001V68.6484Z" fill="#F1CA50"/>
<path d="M4.34666 44.3651C6.74725 44.3651 8.69331 42.419 8.69331 40.0184C8.69331 37.6178 6.74725 35.6719 4.34666 35.6719C1.94606 35.6719 0 37.6178 0 40.0184C0 42.419 1.94606 44.3651 4.34666 44.3651Z" fill="#EE4D4A"/>
<path d="M72.959 44.3651C75.3596 44.3651 77.3056 42.419 77.3056 40.0184C77.3056 37.6178 75.3596 35.6719 72.959 35.6719C70.5584 35.6719 68.6123 37.6178 68.6123 40.0184C68.6123 42.419 70.5584 44.3651 72.959 44.3651Z" fill="#EE4D4A"/>
<path d="M72.959 44.3651C75.3596 44.3651 77.3056 42.419 77.3056 40.0184C77.3056 37.6178 75.3596 35.6719 72.959 35.6719C70.5584 35.6719 68.6123 37.6178 68.6123 40.0184C68.6123 42.419 70.5584 44.3651 72.959 44.3651Z" fill="#EE4D4A"/>
<path d="M38.653 66.6369C53.3541 66.6369 65.2717 54.7192 65.2717 40.0181C65.2717 25.3169 53.3541 13.3994 38.653 13.3994C23.9518 13.3994 12.0342 25.3169 12.0342 40.0181C12.0342 54.7192 23.9518 66.6369 38.653 66.6369Z" fill="#F1CA50"/>
<path d="M49.0708 53.2014L37.2881 47.0226V35.7069L49.0708 29.5283V53.2014Z" fill="#EE4D4A"/>
<path d="M49.0703 29.4932H54.4228V53.2022H49.0703V29.4932Z" fill="white"/>
<path d="M27.373 35.6719H37.2877V47.0233H27.373V35.6719Z" fill="white"/>
<path d="M21.5889 38.5098H27.3724V44.1855H21.5889V38.5098Z" fill="#EE4D4A"/>
<path d="M28.918 47.0225H34.9889V54.6022H28.918V47.0225Z" fill="#EE4D4A"/>
</svg>
