<svg width="74" height="80" viewBox="0 0 74 80" fill="none" xmlns="http://www.w3.org/2000/svg">
<path d="M50.6169 75.5667V75.6047C50.6169 78.0294 48.6467 79.9996 46.2219 79.9996H27.2025C24.7778 79.9996 22.8076 78.0294 22.8076 75.6047V75.5667C22.8076 73.142 24.7778 71.1719 27.2025 71.1719H46.2219C48.6467 71.1719 50.6169 73.142 50.6169 75.5667Z" fill="#EE4D4A"/>
<path d="M43.0401 66.3607V71.286H30.3857V66.3607L36.7129 65.2998L43.0401 66.3607Z" fill="#EE4D4A"/>
<path d="M73.3876 20.1381V51.774L37.5463 53.441L6.32717 51.774L3.48563 53.441L0 51.774V20.1381C0 16.6904 2.80366 13.8867 6.2514 13.8867H67.1741C70.584 13.9246 73.3876 16.6904 73.3876 20.1381Z" fill="#5C9EDC"/>
<path d="M73.3876 51.7734V60.7148C73.3876 64.1625 70.584 66.9662 67.1362 66.9662H6.2514C2.80366 66.9662 0 64.1625 0 60.7148V51.7734H73.3876Z" fill="#F1CA50"/>
<path d="M61.4148 30.2166C60.0887 27.7539 57.0199 26.8446 54.5572 28.2085L51.9809 29.6104L46.1841 21.1236L43.0395 13.2052L41.0693 11.9929V9.56803L43.6457 8.16622C46.1083 6.84017 47.0176 3.77126 45.6537 1.30859L49.4424 4.98373L50.0486 9.34076L55.3149 16.6909L61.4148 30.2166Z" fill="#EE4D4A"/>
<path d="M34.4024 33.4367L32.1292 34.649C29.174 36.2403 25.4989 35.2553 23.7182 32.4517C23.6425 32.338 23.6046 32.2243 23.5288 32.1106C21.8618 29.0417 22.9984 25.2152 26.0672 23.5102L28.3405 22.2979L29.515 24.95C29.7802 27.8294 29.7802 27.6399 29.7802 27.6778L32.9248 29.6859L34.4024 33.4367Z" fill="#EE4D4A"/>
<path d="M56.5657 40.7486C56.5657 42.0367 55.9217 43.3249 54.6335 44.0069C53.3074 44.7268 51.7162 44.5752 50.5417 43.6659C48.6852 42.2262 47.0181 40.5592 45.5027 38.7785L45.8058 38.6648C45.6921 38.7027 45.6163 38.7406 45.5027 38.7785C43.2294 36.0885 42.4717 34.5351 42.4717 34.5351L44.8586 31.542L49.1398 31.1631C49.5945 31.8829 50.2386 33.5121 51.9814 35.3307C52.8149 36.2021 53.7621 36.9598 54.785 37.6039C55.9595 38.3238 56.5657 39.5362 56.5657 40.7486Z" fill="#EE4D4A"/>
<path d="M45.7679 38.665L45.4648 38.7787C45.5785 38.7408 45.6922 38.7029 45.7679 38.665Z" fill="#5C9EDC"/>
<path d="M45.7679 38.665L45.4648 38.7787C45.5785 38.7408 45.6922 38.7029 45.7679 38.665Z" fill="#5C9EDC"/>
<path d="M62.4762 29.6478L61.4154 30.2161L50.0492 9.37808L45.6543 1.34601L46.7151 0.777697C48.9126 -0.434695 51.5268 -0.169484 53.4212 1.15657C54.2168 1.68699 54.8609 2.44472 55.3534 3.31612C55.3534 3.35401 64.9768 20.9716 64.9768 21.0095C66.7196 24.0783 65.583 27.9807 62.4762 29.6478Z" fill="#F1CA50"/>
<path d="M51.9811 29.6098C48.2682 31.6178 48.3439 31.5799 44.5552 33.6637C44.5552 33.6637 44.5552 33.6637 44.5173 33.6637C39.5162 36.3537 33.53 34.4214 30.9537 29.6476L29.855 27.6017L29.6276 27.2229C27.0513 22.5249 28.6804 16.6144 33.2648 13.8487C33.53 13.6971 33.3027 13.8108 41.1454 9.56738L43.1155 13.1667L51.9811 29.6098Z" fill="#F1CA50"/>
<path d="M7.54003 38.8542C7.27482 39.4983 5.15313 44.8783 4.3575 46.7726C4.20595 47.1894 4.39539 47.6441 4.81215 47.7957C5.22891 47.9472 5.68356 47.7577 5.83511 47.3409L6.89595 44.651H9.62383L10.6847 47.3409C10.7983 47.644 11.1014 47.8335 11.4045 47.8335C11.9728 47.8335 12.3517 47.2652 12.1244 46.7348L8.94186 38.8163C8.75242 38.1722 7.80524 38.1723 7.54003 38.8542ZM7.54003 43.0976L8.25989 41.2411L8.97975 43.0976H7.54003Z" fill="white"/>
<path d="M14.6247 38.3613C14.208 38.3613 13.8291 38.7024 13.8291 39.157V47.0754C13.8291 47.4922 14.1701 47.8711 14.6247 47.8711C17.239 47.8711 19.3606 45.7494 19.3606 43.1352V43.0972C19.3606 40.483 17.239 38.3613 14.6247 38.3613ZM15.4204 40.0284C16.7843 40.3694 17.8073 41.6196 17.8073 43.0972V43.1352C17.8073 44.6128 16.7843 45.863 15.4204 46.204V40.0284Z" fill="white"/>
<path d="M23.7179 39.9155H25.6881C26.1048 39.9155 26.4837 39.5744 26.4837 39.1198C26.4837 38.6651 26.1427 38.3242 25.6881 38.3242H23.7179C22.2024 38.3242 20.9521 39.5744 20.9521 41.0899C20.9521 42.6054 22.2024 43.8557 23.7179 43.8557C24.362 43.8557 24.8924 44.3862 24.8924 45.0302C24.8924 45.6743 24.362 46.2047 23.7179 46.2047H21.7478C21.331 46.2047 20.9521 46.5457 20.9521 47.0004C20.9521 47.455 21.2931 47.796 21.7478 47.796H23.7179C25.2334 47.796 26.4837 46.5457 26.4837 45.0302C26.4837 43.5148 25.2334 42.2645 23.7179 42.2645C23.0738 42.2645 22.5434 41.734 22.5434 41.0899C22.5434 40.4458 23.0738 39.9155 23.7179 39.9155Z" fill="white"/>
</svg>
