<svg width="82" height="80" viewBox="0 0 82 80" fill="none" xmlns="http://www.w3.org/2000/svg">
<path d="M40.0183 80C37.2094 80 34.9111 77.7017 34.9111 74.8928C34.9111 74.7833 34.9111 74.6374 34.9111 74.528L36.5527 51.1445H43.4839L45.1255 74.528C45.3079 77.3369 43.192 79.7811 40.3831 80C40.2737 80 40.1277 80 40.0183 80Z" fill="#F1CA50"/>
<path d="M40.0182 46.6214C37.6835 46.6214 35.3488 46.2566 33.087 45.5635C32.9411 45.8553 32.8682 46.1472 32.8682 46.4755V49.0291C32.8682 50.1964 33.8166 51.1084 34.984 51.1449H45.0524C46.2198 51.1449 47.1317 50.1964 47.1682 49.0291V46.4755C47.1682 46.1472 47.0953 45.8553 46.9493 45.5635C44.6876 46.2566 42.3529 46.6214 40.0182 46.6214Z" fill="#F1CA50"/>
<path opacity="0.3" d="M40.0176 46.621C52.8917 46.621 63.3281 36.1846 63.3281 23.3105C63.3281 10.4365 52.8917 0 40.0176 0C27.1435 0 16.707 10.4365 16.707 23.3105C16.707 36.1846 27.1435 46.621 40.0176 46.621Z" fill="#F1CA50"/>
<path d="M40.0183 41.6596C50.1523 41.6596 58.3676 33.4443 58.3676 23.3103C58.3676 13.1762 50.1523 4.96094 40.0183 4.96094C29.8842 4.96094 21.6689 13.1762 21.6689 23.3103C21.6689 33.4443 29.8842 41.6596 40.0183 41.6596Z" fill="#F1CA50"/>
<path d="M46.476 32.3576C45.2357 33.525 43.6306 34.2546 41.9161 34.4735V36.4068C41.9161 36.8446 41.7701 37.2459 41.4783 37.5377C40.8582 38.1214 39.8732 38.1214 39.2166 37.5377C38.9247 37.2459 38.7788 36.8081 38.7788 36.4068V34.5464C37.6115 34.437 36.4806 34.2181 35.3862 33.8168C34.3648 33.4885 33.4163 32.9413 32.5408 32.2847C32.3219 32.1388 32.103 31.9198 31.9936 31.6645C31.8841 31.4091 31.8477 31.1173 31.8477 30.8255C31.8477 30.4242 31.9936 30.0229 32.2125 29.6946C32.3949 29.4028 32.7232 29.2203 33.088 29.2203C33.2704 29.2203 33.4892 29.2568 33.6352 29.3298C33.854 29.4392 34.1094 29.5487 34.3283 29.6946C35.1673 30.2783 36.1158 30.716 37.1007 31.0443C38.0127 31.3362 38.9977 31.4821 39.9462 31.4821C41.0406 31.555 42.1714 31.2632 43.0834 30.6795C43.813 30.1688 44.2508 29.2933 44.1778 28.3813C44.2143 27.8341 43.9589 27.3234 43.5577 26.9586C43.1199 26.5573 42.6092 26.2655 42.0255 26.0831C41.4053 25.8643 40.5663 25.6089 39.4719 25.3535C38.1951 25.0617 36.9548 24.6604 35.751 24.1861C34.8025 23.7848 33.9635 23.1647 33.2704 22.3621C32.5408 21.4137 32.176 20.2463 32.2489 19.079C32.2125 17.5103 32.8691 15.9782 34 14.8838C35.2768 13.6799 36.8819 12.9139 38.6329 12.7315V10.7981C38.6329 10.3603 38.7788 9.95909 39.0706 9.66725C39.6908 9.08357 40.6758 9.08357 41.3324 9.66725C41.6242 9.95909 41.7701 10.3968 41.7701 10.7981V12.695C43.7036 12.9139 45.564 13.68 47.0962 14.9203C47.5704 15.2486 47.8258 15.7958 47.8258 16.343C47.8258 16.7442 47.6799 17.1456 47.461 17.4739C47.2421 17.7657 46.9138 17.9481 46.549 17.9481C46.3666 17.9481 46.1842 17.9116 46.0018 17.8387C45.7464 17.7292 45.5276 17.6198 45.3087 17.4739C44.5791 16.9267 43.7765 16.4889 42.9375 16.1606C42.0985 15.8323 41.1865 15.6864 40.311 15.7228C39.253 15.6499 38.1951 15.9782 37.2831 16.5619C36.5535 17.1091 36.1158 17.9481 36.1523 18.8601C36.1158 19.4803 36.3711 20.064 36.8089 20.5017C37.2831 20.9395 37.8303 21.2677 38.414 21.4501C39.0706 21.669 39.9462 21.9244 41.077 22.2162C42.3173 22.5081 43.5212 22.8729 44.6885 23.3472C45.6005 23.7119 46.4396 24.332 47.0962 25.0981C47.7893 26.0101 48.1541 27.141 48.0811 28.2719C48.1906 29.7676 47.5704 31.2632 46.476 32.3576Z" fill="white"/>
<path d="M5.43548 60.0088H75.7319C78.7233 60.0088 81.1674 62.4529 81.1674 65.4442C81.1674 68.4356 78.7233 70.8797 75.7319 70.8797H5.43548C2.44414 70.8797 0 68.4356 0 65.4442C0 62.4164 2.44414 60.0088 5.43548 60.0088Z" fill="#5C9EDC"/>
<path d="M75.7315 70.8433H66.7939V60.0088H75.7315C78.7228 60.0088 81.167 62.4529 81.167 65.4442C81.167 68.3991 78.7593 70.8433 75.7315 70.8433Z" fill="#EE4D4A"/>
<path d="M74.602 65.9558C74.7844 65.6275 74.8573 65.2627 74.8573 64.8979C74.8573 63.5847 73.7629 62.4902 72.4497 62.4902C71.1364 62.4902 70.042 63.5847 70.042 64.8979C70.042 66.2112 71.1364 67.3056 72.4497 67.3056C72.8509 67.3056 73.2157 67.1962 73.544 67.0138L74.7479 67.9987C74.8938 68.1082 75.0397 68.1811 75.2221 68.1811C75.441 68.1811 75.6599 68.0717 75.8058 67.9258C76.0612 67.5975 76.0247 67.1597 75.6964 66.9043L74.602 65.9558ZM72.4497 65.8464C71.9389 65.8464 71.5012 65.4451 71.5012 64.8979C71.5012 64.3872 71.9025 63.9494 72.4497 63.9494V63.7306V63.9494C72.9604 63.9494 73.3981 64.3507 73.3981 64.8979C73.3981 65.4086 72.9604 65.8464 72.4497 65.8464Z" fill="white"/>
<path d="M5.72852 63.4755V67.3788C5.72852 67.8165 6.09331 68.1813 6.53107 68.1813C6.96883 68.1813 7.33362 67.8165 7.33362 67.3788V63.4755C7.33362 63.0377 6.96883 62.6729 6.53107 62.6729C6.09331 62.6729 5.72852 63.0377 5.72852 63.4755Z" fill="white"/>
</svg>
