<svg width="74" height="74" viewBox="0 0 74 74" fill="none" xmlns="http://www.w3.org/2000/svg">
<path d="M37.447 73.8105C44.6737 73.8105 51.7381 71.6676 57.7469 67.6526C63.7557 63.6377 68.4389 57.9311 71.2045 51.2545C73.97 44.5779 74.6936 37.2312 73.2837 30.1434C71.8739 23.0555 68.3939 16.545 63.2839 11.4349C58.1738 6.32487 51.6632 2.84487 44.5754 1.43501C37.4875 0.0251513 30.1408 0.748743 23.4642 3.51428C16.7876 6.27981 11.081 10.9631 7.0661 16.9719C3.05117 22.9806 0.908203 30.045 0.908203 37.2717C0.908203 46.9624 4.75781 56.2562 11.6102 63.1086C18.4625 69.9609 27.7563 73.8105 37.447 73.8105Z" fill="#1C437C"/>
<path d="M70.413 36.8657C70.413 28.2517 66.9911 19.9906 60.9001 13.8996C54.8091 7.8086 46.548 4.38672 37.934 4.38672C29.3201 4.38672 21.0589 7.8086 14.9679 13.8996C8.87696 19.9906 5.45508 28.2517 5.45508 36.8657H70.413Z" fill="#8EC6D8"/>
<path d="M5.45508 38.4087C5.45508 47.0226 8.87696 55.2838 14.9679 61.3748C21.0589 67.4658 29.3201 70.8876 37.934 70.8876C46.548 70.8876 54.8091 67.4658 60.9001 61.3748C66.9911 55.2838 70.413 47.0226 70.413 38.4087H5.45508Z" fill="#1C437C"/>
<path d="M54.5796 36.054C54.2208 29.8473 51.5024 24.0126 46.9811 19.7452C42.4599 15.4778 36.4781 13.1006 30.261 13.1006C24.0439 13.1006 18.0621 15.4778 13.5408 19.7452C9.01961 24.0126 6.30118 29.8473 5.94238 36.054H54.5796Z" fill="white"/>
<path d="M5.69922 36.8657H70.4135" stroke="#F0CA50" stroke-width="4"/>
<path d="M5.94238 37.1904C5.94238 43.6509 8.5088 49.8467 13.077 54.415C17.6453 58.9832 23.8411 61.5496 30.3016 61.5496C36.7621 61.5496 42.9579 58.9832 47.5262 54.415C52.0944 49.8467 54.6608 43.6509 54.6608 37.1904H5.94238Z" fill="#EE4D4A"/>
<path d="M6.02441 35.9727H54.5804" stroke="black" stroke-width="4"/>
</svg>
