<svg width="100" height="97" viewBox="0 0 100 97" fill="none" xmlns="http://www.w3.org/2000/svg">
<path d="M67.2557 96.5002C29.5557 95.4002 -0.244328 63.8002 0.855672 26.1002C1.05567 19.9002 2.05567 14.0002 3.75567 8.40022L21.0557 16.2002C20.2557 19.5002 19.7557 23.0002 19.6557 26.6002C18.8557 54.0002 40.4557 76.9002 67.8557 77.7002C71.5557 77.8002 75.1557 77.5002 78.6557 76.8002L85.8557 94.5002C79.9557 96.0002 73.6557 96.7002 67.2557 96.5002Z" fill="#163459"/>
<path d="M69.4551 0.500099V1.1001C70.4551 1.1001 71.5551 1.2001 72.5551 1.4001L72.6551 0.800095C71.6551 0.600094 70.5551 0.500099 69.4551 0.500099ZM66.2551 0.500099C65.1551 0.600098 64.1551 0.7001 63.0551 0.900101L63.1551 1.5001C64.1551 1.3001 65.2551 1.2001 66.2551 1.1001V0.500099ZM75.8551 1.30009L75.7551 1.9001C76.7551 2.1001 77.7551 2.40009 78.7551 2.80009L78.9551 2.2001C77.8551 1.9001 76.8551 1.60009 75.8551 1.30009ZM59.9551 1.7001C58.9551 2.0001 57.9551 2.40009 56.9551 2.80009L57.1551 3.4001C58.1551 3.0001 59.1551 2.7001 60.1551 2.4001L59.9551 1.7001ZM81.8551 3.5001L81.5551 4.1001C82.4551 4.6001 83.4551 5.1001 84.2551 5.6001L84.5551 5.1001C83.7551 4.5001 82.8551 3.9001 81.8551 3.5001ZM54.0551 4.1001C53.1551 4.6001 52.1551 5.2001 51.3551 5.80009L51.7551 6.30009C52.6551 5.7001 53.5551 5.2001 54.4551 4.7001L54.0551 4.1001ZM87.2551 6.80009L86.8551 7.30009C87.6551 7.90009 88.4551 8.60009 89.2551 9.30009L89.6551 8.80009C88.9551 8.2001 88.1551 7.5001 87.2551 6.80009ZM48.8551 7.7001C48.0551 8.4001 47.2551 9.1001 46.5551 9.9001L47.0551 10.3001C47.7551 9.5001 48.5551 8.80009 49.3551 8.2001L48.8551 7.7001ZM91.9551 11.3001L91.4551 11.7001C92.1551 12.5001 92.7551 13.3001 93.3551 14.2001L93.8551 13.8001C93.2551 12.9001 92.5551 12.1001 91.9551 11.3001ZM44.3551 12.3001C43.6551 13.1001 43.0551 14.0001 42.5551 14.9001L43.0551 15.2001C43.5551 14.3001 44.2551 13.4001 44.8551 12.6001L44.3551 12.3001ZM95.5551 16.5001L94.9551 16.8001C95.4551 17.7001 95.8551 18.7001 96.2551 19.6001L96.8551 19.4001C96.4551 18.4001 96.0551 17.5001 95.5551 16.5001ZM41.0551 17.8001C40.5551 18.8001 40.1551 19.8001 39.8551 20.8001L40.4551 21.0001C40.8551 20.0001 41.2551 19.0001 41.6551 18.1001L41.0551 17.8001ZM97.9551 22.4001L97.3551 22.6001C97.6551 23.6001 97.8551 24.6001 98.0551 25.7001L98.6551 25.6001C98.4551 24.5001 98.2551 23.5001 97.9551 22.4001ZM38.8551 23.8001C38.5551 24.8001 38.3551 25.9001 38.2551 26.9001L38.8551 27.0001C38.9551 26.0001 39.1551 24.9001 39.4551 23.9001L38.8551 23.8001ZM99.0551 28.7001H98.4551C98.5551 29.7001 98.5551 30.8001 98.5551 31.8001V31.9001H99.1551V31.8001C99.1551 30.9001 99.1551 29.8001 99.0551 28.7001ZM38.1551 30.1001H37.9551C37.9551 31.2001 37.9551 32.2001 38.0551 33.2001H38.6551C38.5551 32.2001 38.5551 31.2001 38.5551 30.1001H38.1551ZM98.2551 35.2001C98.1551 36.2001 97.9551 37.3001 97.6551 38.3001L98.2551 38.4001C98.5551 37.4001 98.7551 36.3001 98.8551 35.3001L98.2551 35.2001ZM39.0551 36.4001L38.4551 36.5001C38.6551 37.5001 38.8551 38.6001 39.1551 39.6001L39.7551 39.4001C39.5551 38.4001 39.2551 37.4001 39.0551 36.4001ZM96.7551 41.2001C96.3551 42.2001 95.9551 43.1001 95.5551 44.1001L96.1551 44.4001C96.6551 43.4001 97.0551 42.4001 97.3551 41.5001L96.7551 41.2001ZM40.8551 42.4001L40.2551 42.6001C40.6551 43.6001 41.1551 44.6001 41.6551 45.5001L42.2551 45.2001C41.6551 44.3001 41.2551 43.3001 40.8551 42.4001ZM94.0551 46.9001C93.4551 47.8001 92.8551 48.6001 92.2551 49.5001L92.7551 49.9001C93.4551 49.1001 94.0551 48.2001 94.5551 47.3001L94.0551 46.9001ZM43.7551 47.9001L43.2551 48.3001C43.8551 49.2001 44.5551 50.0001 45.1551 50.8001L45.6551 50.4001C45.0551 49.6001 44.3551 48.8001 43.7551 47.9001ZM90.1551 51.8001C89.4551 52.6001 88.6551 53.3001 87.8551 53.9001L88.2551 54.4001C89.0551 53.7001 89.8551 53.0001 90.5551 52.2001L90.1551 51.8001ZM47.8551 52.7001L47.4551 53.2001C48.2551 53.9001 49.0551 54.6001 49.8551 55.3001L50.2551 54.8001C49.3551 54.1001 48.5551 53.4001 47.8551 52.7001ZM85.3551 55.9001C84.4551 56.5001 83.5551 57.0001 82.6551 57.5001L82.9551 58.1001C83.8551 57.6001 84.8551 57.0001 85.6551 56.4001L85.3551 55.9001ZM52.7551 56.5001L52.4551 57.0001C53.3551 57.6001 54.2551 58.1001 55.2551 58.5001L55.5551 57.9001C54.5551 57.6001 53.6551 57.1001 52.7551 56.5001ZM79.8551 58.8001C78.8551 59.2001 77.8551 59.5001 76.8551 59.8001L77.0551 60.4001C78.0551 60.1001 79.0551 59.8001 80.0551 59.3001L79.8551 58.8001ZM58.4551 59.3001L58.2551 59.9001C59.2551 60.3001 60.2551 60.6001 61.3551 60.8001L61.4551 60.2001C60.4551 59.9001 59.3551 59.6001 58.4551 59.3001ZM73.8551 60.6001C72.8551 60.8001 71.7551 60.9001 70.7551 61.0001V61.6001C71.8551 61.5001 72.8551 61.4001 73.9551 61.2001L73.8551 60.6001ZM64.4551 60.7001L64.3551 61.3001C65.3551 61.4001 66.4551 61.5001 67.5551 61.6001V61.0001C66.5551 61.0001 65.5551 60.9001 64.4551 60.7001Z" fill="#93CDE0"/>
<path d="M45.5563 53.1001L43.1562 55.2001L43.5563 55.7001L45.9562 53.6001L45.5563 53.1001ZM40.8563 57.2001L38.4562 59.3001L38.8563 59.8001L41.2563 57.7001L40.8563 57.2001ZM36.0563 61.3001L33.6562 63.4001L34.0563 63.9001L36.4562 61.8001L36.0563 61.3001Z" fill="#93CDE0"/>
<path d="M81.0026 44.2509L56.3125 43.5378L57.0256 18.8477L81.7157 19.5608L81.0026 44.2509Z" fill="#F0CA50"/>
<path d="M73.3453 32.2265L64.5488 31.9724L64.5864 30.6729L73.3828 30.927L73.3453 32.2265Z" fill="#FDFDFD"/>
<path d="M69.5377 35.9181L68.2383 35.8806L68.4923 27.0841L69.7918 27.1217L69.5377 35.9181Z" fill="#FDFDFD"/>
</svg>
