<svg width="63" height="74" viewBox="0 0 63 74" fill="none" xmlns="http://www.w3.org/2000/svg">
<path d="M62.5647 11.9062H0.901367V73.5696H62.5647V11.9062Z" fill="white"/>
<path fill-rule="evenodd" clip-rule="evenodd" d="M0.901367 12.1133V73.7766H1.03962C1.67311 66.0808 5.17769 58.9047 10.8574 53.6733C16.5372 48.4418 23.9766 45.5378 31.6985 45.5378C39.4204 45.5378 46.8598 48.4418 52.5395 53.6733C58.2193 58.9047 61.7239 66.0808 62.3574 73.7766H62.5647V12.1133H0.901367Z" fill="#93CDE0"/>
<path fill-rule="evenodd" clip-rule="evenodd" d="M0.901367 12.1133V73.7766H1.03962C1.76331 66.143 5.31179 59.0548 10.9896 53.9013C16.6674 48.7478 24.0652 45.9005 31.733 45.9175C32.3552 43.8436 32.3552 12.1133 32.3552 12.1133H0.901367Z" fill="#799ED3"/>
<path d="M32.2871 21.8608L27.3097 30.1564L24.752 36.378H39.8222L37.057 29.7416L32.2871 21.8608Z" fill="#DE9A96"/>
<path d="M36.917 10.3164H27.4463V29.2164H36.917V10.3164Z" fill="#D35F5C"/>
<path d="M32.3551 0.223145L25.373 12.3899H39.3372L32.3551 0.223145Z" fill="#DE9A96"/>
</svg>
