<svg width="264" height="347" viewBox="0 0 264 347" fill="none" xmlns="http://www.w3.org/2000/svg">
<g opacity="0.2">
<path d="M173.5 346C78.2309 346 1 268.769 1 173.5C1 78.2309 78.2309 1 173.5 1C268.769 1 346 78.2309 346 173.5C346 268.769 268.769 346 173.5 346Z" stroke="#545A5C" stroke-miterlimit="10"/>
<path d="M173.501 310C200.718 310 227.324 301.951 249.947 286.874C272.57 271.797 290.193 250.369 300.584 225.305C310.976 200.24 313.667 172.667 308.319 146.078C302.97 119.488 289.822 95.0777 270.539 75.9392C251.256 56.8006 226.706 43.7946 199.999 38.5683C173.292 33.342 145.629 36.1306 120.513 46.581C95.3977 57.0313 73.96 74.6733 58.9154 97.2723C43.8707 119.871 35.896 146.411 36.001 173.529C36.1415 209.772 50.69 244.483 76.461 270.061C102.232 295.639 137.126 310 173.501 310V310Z" stroke="#545A5C" stroke-miterlimit="10"/>
<path d="M173.501 273.999C193.599 273.998 213.244 268.061 229.947 256.94C246.649 245.818 259.658 230.013 267.325 211.527C274.991 193.041 276.97 172.706 273.01 153.1C269.051 133.494 259.331 115.499 245.083 101.395C230.834 87.2912 212.699 77.7138 192.975 73.8767C173.251 70.0395 152.827 72.1152 134.289 79.8408C115.752 87.5663 99.937 100.594 88.8482 117.273C77.7594 133.951 71.8962 153.53 72.0014 173.528C72.0012 186.767 74.6304 199.875 79.7378 212.099C84.8451 224.323 92.3299 235.423 101.762 244.759C111.194 254.095 122.388 261.485 134.699 266.503C147.011 271.521 160.197 274.068 173.501 273.999V273.999Z" stroke="#545A5C" stroke-miterlimit="10"/>
<path d="M173.502 237.998C186.479 237.997 199.164 234.172 209.947 227.006C220.729 219.84 229.124 209.657 234.066 197.749C239.007 185.842 240.273 172.746 237.702 160.123C235.131 147.5 228.84 135.919 219.626 126.85C210.412 117.782 198.692 111.633 185.951 109.185C173.21 106.737 160.024 108.1 148.065 113.101C136.106 118.101 125.914 126.515 118.781 137.273C111.648 148.031 107.897 160.65 108.002 173.527C108.002 182.038 109.7 190.465 112.998 198.322C116.296 206.178 121.129 213.309 127.219 219.303C133.308 225.296 140.533 230.034 148.477 233.243C156.42 236.452 164.926 238.068 173.502 237.998Z" stroke="#545A5C" stroke-miterlimit="10"/>
</g>
<path d="M58.0716 220.634C58.0716 220.634 46.814 227.794 48.2376 236.624C48.2376 236.624 42.6083 227.838 32.0135 227.87C32.0135 227.87 39.7488 223.588 41.7279 212.261C41.7279 212.261 43.6058 219.976 58.0716 220.634Z" fill="#8EC6D8"/>
<path d="M186.301 302.32C186.301 302.32 198.543 307.066 204.612 300.729C204.612 300.729 201.057 310.39 207.331 318.81C207.331 318.81 199.419 315.172 189.39 320.271C189.39 320.271 194.318 314.229 186.301 302.32Z" fill="#EE4D4A"/>
<path d="M19.3148 254.463L29.8516 253.314L31.0004 263.851L20.4636 265L19.3148 254.463Z" fill="#F0CA50"/>
</svg>
