<svg width="132" height="238" viewBox="0 0 132 238" fill="none" xmlns="http://www.w3.org/2000/svg">
<path d="M110.93 53.5312V5.74828" stroke="#5C9EDC" stroke-width="6" stroke-linecap="round" stroke-linejoin="round"/>
<path d="M92.918 23.4414L110.929 3.3111" stroke="#5C9EDC" stroke-width="6" stroke-linecap="round" stroke-linejoin="round"/>
<path d="M128.305 23.4414L110.93 3.3111" stroke="#5C9EDC" stroke-width="6" stroke-linecap="round" stroke-linejoin="round"/>
<path opacity="0.64" d="M-0.000487476 201.681C-0.000487558 203.554 1.51744 205.072 3.38989 205.072C5.26234 205.072 6.78027 203.554 6.78027 201.681C6.78027 199.809 5.26234 198.291 3.38989 198.291C1.51744 198.291 -0.000487394 199.809 -0.000487476 201.681Z" fill="#8EC6D8"/>
<path opacity="0.64" d="M12.5015 201.681C12.5015 203.554 14.0194 205.072 15.8918 205.072C17.7643 205.072 19.2822 203.554 19.2822 201.681C19.2822 199.809 17.7643 198.291 15.8918 198.291C14.0194 198.291 12.5015 199.809 12.5015 201.681Z" fill="#8EC6D8"/>
<path opacity="0.64" d="M25.0035 201.681C25.0035 203.554 26.5214 205.072 28.3939 205.072C30.2663 205.072 31.7842 203.554 31.7842 201.681C31.7842 199.809 30.2663 198.291 28.3939 198.291C26.5214 198.291 25.0035 199.809 25.0035 201.681Z" fill="#8EC6D8"/>
<path opacity="0.64" d="M37.6118 201.681C37.6118 203.554 39.1297 205.072 41.0022 205.072C42.8746 205.072 44.3926 203.554 44.3926 201.681C44.3926 199.809 42.8746 198.291 41.0022 198.291C39.1297 198.291 37.6118 199.809 37.6118 201.681Z" fill="#8EC6D8"/>
<path opacity="0.64" d="M-0.000487476 212.595C-0.000487558 214.468 1.51744 215.986 3.38989 215.986C5.26234 215.986 6.78027 214.468 6.78027 212.595C6.78027 210.723 5.26234 209.205 3.38989 209.205C1.51744 209.205 -0.000487394 210.723 -0.000487476 212.595Z" fill="#8EC6D8"/>
<path opacity="0.64" d="M12.5015 212.595C12.5015 214.468 14.0194 215.986 15.8918 215.986C17.7643 215.986 19.2822 214.468 19.2822 212.595C19.2822 210.723 17.7643 209.205 15.8918 209.205C14.0194 209.205 12.5015 210.723 12.5015 212.595Z" fill="#8EC6D8"/>
<path opacity="0.64" d="M25.0035 212.595C25.0035 214.468 26.5214 215.986 28.3939 215.986C30.2663 215.986 31.7842 214.468 31.7842 212.595C31.7842 210.723 30.2663 209.205 28.3939 209.205C26.5214 209.205 25.0035 210.723 25.0035 212.595Z" fill="#8EC6D8"/>
<path opacity="0.64" d="M37.6118 212.595C37.6118 214.468 39.1297 215.986 41.0022 215.986C42.8746 215.986 44.3926 214.468 44.3926 212.595C44.3926 210.723 42.8746 209.205 41.0022 209.205C39.1297 209.205 37.6118 210.723 37.6118 212.595Z" fill="#8EC6D8"/>
<path opacity="0.64" d="M-0.000487476 223.508C-0.000487558 225.38 1.51744 226.898 3.38989 226.898C5.26234 226.898 6.78027 225.38 6.78027 223.508C6.78027 221.635 5.26234 220.117 3.38989 220.117C1.51744 220.117 -0.000487394 221.635 -0.000487476 223.508Z" fill="#8EC6D8"/>
<path opacity="0.64" d="M12.5015 223.508C12.5015 225.38 14.0194 226.898 15.8918 226.898C17.7643 226.898 19.2822 225.38 19.2822 223.508C19.2822 221.635 17.7643 220.117 15.8918 220.117C14.0194 220.117 12.5015 221.635 12.5015 223.508Z" fill="#8EC6D8"/>
<path opacity="0.64" d="M25.0035 223.508C25.0035 225.38 26.5214 226.898 28.3939 226.898C30.2663 226.898 31.7842 225.38 31.7842 223.508C31.7842 221.635 30.2663 220.117 28.3939 220.117C26.5214 220.117 25.0035 221.635 25.0035 223.508Z" fill="#8EC6D8"/>
<path opacity="0.64" d="M37.6118 223.508C37.6118 225.38 39.1297 226.898 41.0022 226.898C42.8746 226.898 44.3926 225.38 44.3926 223.508C44.3926 221.635 42.8746 220.117 41.0022 220.117C39.1297 220.117 37.6118 221.635 37.6118 223.508Z" fill="#8EC6D8"/>
<path opacity="0.64" d="M-0.000487476 234.42C-0.000487558 236.293 1.51744 237.811 3.38989 237.811C5.26234 237.811 6.78027 236.293 6.78027 234.42C6.78027 232.548 5.26234 231.03 3.38989 231.03C1.51744 231.03 -0.000487394 232.548 -0.000487476 234.42Z" fill="#8EC6D8"/>
<path opacity="0.64" d="M12.5015 234.42C12.5015 236.293 14.0194 237.811 15.8918 237.811C17.7643 237.811 19.2822 236.293 19.2822 234.42C19.2822 232.548 17.7643 231.03 15.8918 231.03C14.0194 231.03 12.5015 232.548 12.5015 234.42Z" fill="#8EC6D8"/>
<path opacity="0.64" d="M25.0035 234.42C25.0035 236.293 26.5214 237.811 28.3939 237.811C30.2663 237.811 31.7842 236.293 31.7842 234.42C31.7842 232.548 30.2663 231.03 28.3939 231.03C26.5214 231.03 25.0035 232.548 25.0035 234.42Z" fill="#8EC6D8"/>
<path opacity="0.64" d="M37.6118 234.42C37.6118 236.293 39.1297 237.811 41.0022 237.811C42.8746 237.811 44.3926 236.293 44.3926 234.42C44.3926 232.548 42.8746 231.03 41.0022 231.03C39.1297 231.03 37.6118 232.548 37.6118 234.42Z" fill="#8EC6D8"/>
<path opacity="0.64" d="M-0.000487476 158.455C-0.000487558 160.328 1.51744 161.846 3.38989 161.846C5.26234 161.846 6.78027 160.328 6.78027 158.455C6.78027 156.583 5.26234 155.065 3.38989 155.065C1.51744 155.065 -0.000487394 156.583 -0.000487476 158.455Z" fill="#8EC6D8"/>
<path opacity="0.64" d="M12.5015 158.455C12.5015 160.328 14.0194 161.846 15.8918 161.846C17.7643 161.846 19.2822 160.328 19.2822 158.455C19.2822 156.583 17.7643 155.065 15.8918 155.065C14.0194 155.065 12.5015 156.583 12.5015 158.455Z" fill="#8EC6D8"/>
<path opacity="0.64" d="M25.0035 158.455C25.0035 160.328 26.5214 161.846 28.3939 161.846C30.2663 161.846 31.7842 160.328 31.7842 158.455C31.7842 156.583 30.2663 155.065 28.3939 155.065C26.5214 155.065 25.0035 156.583 25.0035 158.455Z" fill="#8EC6D8"/>
<path opacity="0.64" d="M37.6118 158.455C37.6118 160.328 39.1297 161.846 41.0022 161.846C42.8746 161.846 44.3926 160.328 44.3926 158.455C44.3926 156.583 42.8746 155.065 41.0022 155.065C39.1297 155.065 37.6118 156.583 37.6118 158.455Z" fill="#8EC6D8"/>
<path opacity="0.64" d="M-0.000487476 169.368C-0.000487558 171.24 1.51744 172.758 3.38989 172.758C5.26234 172.758 6.78027 171.24 6.78027 169.368C6.78027 167.495 5.26234 165.978 3.38989 165.978C1.51744 165.978 -0.000487394 167.495 -0.000487476 169.368Z" fill="#8EC6D8"/>
<path opacity="0.64" d="M12.5015 169.368C12.5015 171.24 14.0194 172.758 15.8918 172.758C17.7643 172.758 19.2822 171.24 19.2822 169.368C19.2822 167.495 17.7643 165.978 15.8918 165.978C14.0194 165.978 12.5015 167.495 12.5015 169.368Z" fill="#8EC6D8"/>
<path opacity="0.64" d="M25.0035 169.368C25.0035 171.24 26.5214 172.758 28.3939 172.758C30.2663 172.758 31.7842 171.24 31.7842 169.368C31.7842 167.495 30.2663 165.978 28.3939 165.978C26.5214 165.978 25.0035 167.495 25.0035 169.368Z" fill="#8EC6D8"/>
<path opacity="0.64" d="M37.6118 169.368C37.6118 171.24 39.1297 172.758 41.0022 172.758C42.8746 172.758 44.3926 171.24 44.3926 169.368C44.3926 167.495 42.8746 165.978 41.0022 165.978C39.1297 165.978 37.6118 167.495 37.6118 169.368Z" fill="#8EC6D8"/>
<path opacity="0.64" d="M-0.000487476 180.175C-0.000487558 182.047 1.51744 183.565 3.38989 183.565C5.26234 183.565 6.78027 182.047 6.78027 180.175C6.78027 178.302 5.26234 176.784 3.38989 176.784C1.51744 176.784 -0.000487394 178.302 -0.000487476 180.175Z" fill="#8EC6D8"/>
<path opacity="0.64" d="M12.5015 180.175C12.5015 182.047 14.0194 183.565 15.8918 183.565C17.7643 183.565 19.2822 182.047 19.2822 180.175C19.2822 178.302 17.7643 176.784 15.8918 176.784C14.0194 176.784 12.5015 178.302 12.5015 180.175Z" fill="#8EC6D8"/>
<path opacity="0.64" d="M25.0035 180.175C25.0035 182.047 26.5214 183.565 28.3939 183.565C30.2663 183.565 31.7842 182.047 31.7842 180.175C31.7842 178.302 30.2663 176.784 28.3939 176.784C26.5214 176.784 25.0035 178.302 25.0035 180.175Z" fill="#8EC6D8"/>
<path opacity="0.64" d="M37.6118 180.175C37.6118 182.047 39.1297 183.565 41.0022 183.565C42.8746 183.565 44.3926 182.047 44.3926 180.175C44.3926 178.302 42.8746 176.784 41.0022 176.784C39.1297 176.784 37.6118 178.302 37.6118 180.175Z" fill="#8EC6D8"/>
<path opacity="0.64" d="M-0.000487476 191.087C-0.000487558 192.96 1.51744 194.478 3.38989 194.478C5.26234 194.478 6.78027 192.96 6.78027 191.087C6.78027 189.215 5.26234 187.697 3.38989 187.697C1.51744 187.697 -0.000487394 189.215 -0.000487476 191.087Z" fill="#8EC6D8"/>
<path opacity="0.64" d="M12.5015 191.087C12.5015 192.96 14.0194 194.478 15.8918 194.478C17.7643 194.478 19.2822 192.96 19.2822 191.087C19.2822 189.215 17.7643 187.697 15.8918 187.697C14.0194 187.697 12.5015 189.215 12.5015 191.087Z" fill="#8EC6D8"/>
<path opacity="0.64" d="M25.0035 191.087C25.0035 192.96 26.5214 194.478 28.3939 194.478C30.2663 194.478 31.7842 192.96 31.7842 191.087C31.7842 189.215 30.2663 187.697 28.3939 187.697C26.5214 187.697 25.0035 189.215 25.0035 191.087Z" fill="#8EC6D8"/>
<path opacity="0.64" d="M37.6118 191.087C37.6118 192.96 39.1297 194.478 41.0022 194.478C42.8746 194.478 44.3926 192.96 44.3926 191.087C44.3926 189.215 42.8746 187.697 41.0022 187.697C39.1297 187.697 37.6118 189.215 37.6118 191.087Z" fill="#8EC6D8"/>
<path opacity="0.64" d="M48.524 201.681C48.524 203.554 50.0419 205.072 51.9143 205.072C53.7868 205.072 55.3047 203.554 55.3047 201.681C55.3047 199.809 53.7868 198.291 51.9143 198.291C50.0419 198.291 48.524 199.809 48.524 201.681Z" fill="#8EC6D8"/>
<path opacity="0.64" d="M61.0269 201.681C61.0269 203.554 62.5449 205.072 64.4173 205.072C66.2897 205.072 67.8076 203.554 67.8076 201.681C67.8076 199.809 66.2897 198.291 64.4173 198.291C62.5449 198.291 61.0269 199.809 61.0269 201.681Z" fill="#8EC6D8"/>
<path opacity="0.64" d="M73.6343 201.681C73.6343 203.554 75.1522 205.072 77.0247 205.072C78.8971 205.072 80.415 203.554 80.415 201.681C80.415 199.809 78.8971 198.291 77.0247 198.291C75.1522 198.291 73.6343 199.809 73.6343 201.681Z" fill="#8EC6D8"/>
<path opacity="0.64" d="M86.1363 201.681C86.1363 203.554 87.6542 205.072 89.5266 205.072C91.3991 205.072 92.917 203.554 92.917 201.681C92.917 199.809 91.3991 198.291 89.5266 198.291C87.6542 198.291 86.1363 199.809 86.1363 201.681Z" fill="#8EC6D8"/>
<path opacity="0.64" d="M48.524 212.595C48.524 214.468 50.0419 215.986 51.9143 215.986C53.7868 215.986 55.3047 214.468 55.3047 212.595C55.3047 210.723 53.7868 209.205 51.9143 209.205C50.0419 209.205 48.524 210.723 48.524 212.595Z" fill="#8EC6D8"/>
<path opacity="0.64" d="M61.0269 212.595C61.0269 214.468 62.5449 215.986 64.4173 215.986C66.2897 215.986 67.8076 214.468 67.8076 212.595C67.8076 210.723 66.2897 209.205 64.4173 209.205C62.5449 209.205 61.0269 210.723 61.0269 212.595Z" fill="#8EC6D8"/>
<path opacity="0.64" d="M73.6343 212.595C73.6343 214.468 75.1522 215.986 77.0247 215.986C78.8971 215.986 80.415 214.468 80.415 212.595C80.415 210.723 78.8971 209.205 77.0247 209.205C75.1522 209.205 73.6343 210.723 73.6343 212.595Z" fill="#8EC6D8"/>
<path opacity="0.64" d="M86.1363 212.595C86.1363 214.468 87.6542 215.986 89.5266 215.986C91.3991 215.986 92.917 214.468 92.917 212.595C92.917 210.723 91.3991 209.205 89.5266 209.205C87.6542 209.205 86.1363 210.723 86.1363 212.595Z" fill="#8EC6D8"/>
<path opacity="0.64" d="M48.524 223.508C48.524 225.38 50.0419 226.898 51.9143 226.898C53.7868 226.898 55.3047 225.38 55.3047 223.508C55.3047 221.635 53.7868 220.117 51.9143 220.117C50.0419 220.117 48.524 221.635 48.524 223.508Z" fill="#8EC6D8"/>
<path opacity="0.64" d="M61.0269 223.508C61.0269 225.38 62.5449 226.898 64.4173 226.898C66.2897 226.898 67.8076 225.38 67.8076 223.508C67.8076 221.635 66.2897 220.117 64.4173 220.117C62.5449 220.117 61.0269 221.635 61.0269 223.508Z" fill="#8EC6D8"/>
<path opacity="0.64" d="M73.6343 223.508C73.6343 225.38 75.1522 226.898 77.0247 226.898C78.8971 226.898 80.415 225.38 80.415 223.508C80.415 221.635 78.8971 220.117 77.0247 220.117C75.1522 220.117 73.6343 221.635 73.6343 223.508Z" fill="#8EC6D8"/>
<path opacity="0.64" d="M86.1363 223.508C86.1363 225.38 87.6542 226.898 89.5266 226.898C91.3991 226.898 92.917 225.38 92.917 223.508C92.917 221.635 91.3991 220.117 89.5266 220.117C87.6542 220.117 86.1363 221.635 86.1363 223.508Z" fill="#8EC6D8"/>
<path opacity="0.64" d="M48.524 234.42C48.524 236.293 50.0419 237.811 51.9143 237.811C53.7868 237.811 55.3047 236.293 55.3047 234.42C55.3047 232.548 53.7868 231.03 51.9143 231.03C50.0419 231.03 48.524 232.548 48.524 234.42Z" fill="#8EC6D8"/>
<path opacity="0.64" d="M61.0269 234.42C61.0269 236.293 62.5449 237.811 64.4173 237.811C66.2897 237.811 67.8076 236.293 67.8076 234.42C67.8076 232.548 66.2897 231.03 64.4173 231.03C62.5449 231.03 61.0269 232.548 61.0269 234.42Z" fill="#8EC6D8"/>
<path opacity="0.64" d="M73.6343 234.42C73.6343 236.293 75.1522 237.811 77.0247 237.811C78.8971 237.811 80.415 236.293 80.415 234.42C80.415 232.548 78.8971 231.03 77.0247 231.03C75.1522 231.03 73.6343 232.548 73.6343 234.42Z" fill="#8EC6D8"/>
<path opacity="0.64" d="M86.1363 234.42C86.1363 236.293 87.6542 237.811 89.5266 237.811C91.3991 237.811 92.917 236.293 92.917 234.42C92.917 232.548 91.3991 231.03 89.5266 231.03C87.6542 231.03 86.1363 232.548 86.1363 234.42Z" fill="#8EC6D8"/>
<path opacity="0.64" d="M48.524 158.455C48.524 160.328 50.0419 161.846 51.9143 161.846C53.7868 161.846 55.3047 160.328 55.3047 158.455C55.3047 156.583 53.7868 155.065 51.9143 155.065C50.0419 155.065 48.524 156.583 48.524 158.455Z" fill="#8EC6D8"/>
<path opacity="0.64" d="M61.0269 158.455C61.0269 160.328 62.5449 161.846 64.4173 161.846C66.2897 161.846 67.8076 160.328 67.8076 158.455C67.8076 156.583 66.2897 155.065 64.4173 155.065C62.5449 155.065 61.0269 156.583 61.0269 158.455Z" fill="#8EC6D8"/>
<path opacity="0.64" d="M73.6343 158.455C73.6343 160.328 75.1522 161.846 77.0247 161.846C78.8971 161.846 80.415 160.328 80.415 158.455C80.415 156.583 78.8971 155.065 77.0247 155.065C75.1522 155.065 73.6343 156.583 73.6343 158.455Z" fill="#8EC6D8"/>
<path opacity="0.64" d="M86.1363 158.455C86.1363 160.328 87.6542 161.846 89.5266 161.846C91.3991 161.846 92.917 160.328 92.917 158.455C92.917 156.583 91.3991 155.065 89.5266 155.065C87.6542 155.065 86.1363 156.583 86.1363 158.455Z" fill="#8EC6D8"/>
<path opacity="0.64" d="M48.524 169.368C48.524 171.24 50.0419 172.758 51.9143 172.758C53.7868 172.758 55.3047 171.24 55.3047 169.368C55.3047 167.495 53.7868 165.978 51.9143 165.978C50.0419 165.978 48.524 167.495 48.524 169.368Z" fill="#8EC6D8"/>
<path opacity="0.64" d="M61.0269 169.368C61.0269 171.24 62.5449 172.758 64.4173 172.758C66.2897 172.758 67.8076 171.24 67.8076 169.368C67.8076 167.495 66.2897 165.978 64.4173 165.978C62.5449 165.978 61.0269 167.495 61.0269 169.368Z" fill="#8EC6D8"/>
<path opacity="0.64" d="M73.6343 169.368C73.6343 171.24 75.1522 172.758 77.0247 172.758C78.8971 172.758 80.415 171.24 80.415 169.368C80.415 167.495 78.8971 165.978 77.0247 165.978C75.1522 165.978 73.6343 167.495 73.6343 169.368Z" fill="#8EC6D8"/>
<path opacity="0.64" d="M86.1363 169.368C86.1363 171.24 87.6542 172.758 89.5266 172.758C91.3991 172.758 92.917 171.24 92.917 169.368C92.917 167.495 91.3991 165.978 89.5266 165.978C87.6542 165.978 86.1363 167.495 86.1363 169.368Z" fill="#8EC6D8"/>
<path opacity="0.64" d="M48.524 180.175C48.524 182.047 50.0419 183.565 51.9143 183.565C53.7868 183.565 55.3047 182.047 55.3047 180.175C55.3047 178.302 53.7868 176.784 51.9143 176.784C50.0419 176.784 48.524 178.302 48.524 180.175Z" fill="#8EC6D8"/>
<path opacity="0.64" d="M61.0269 180.175C61.0269 182.047 62.5449 183.565 64.4173 183.565C66.2897 183.565 67.8076 182.047 67.8076 180.175C67.8076 178.302 66.2897 176.784 64.4173 176.784C62.5449 176.784 61.0269 178.302 61.0269 180.175Z" fill="#8EC6D8"/>
<path opacity="0.64" d="M73.6343 180.175C73.6343 182.047 75.1522 183.565 77.0247 183.565C78.8971 183.565 80.415 182.047 80.415 180.175C80.415 178.302 78.8971 176.784 77.0247 176.784C75.1522 176.784 73.6343 178.302 73.6343 180.175Z" fill="#8EC6D8"/>
<path opacity="0.64" d="M86.1363 180.175C86.1363 182.047 87.6542 183.565 89.5266 183.565C91.3991 183.565 92.917 182.047 92.917 180.175C92.917 178.302 91.3991 176.784 89.5266 176.784C87.6542 176.784 86.1363 178.302 86.1363 180.175Z" fill="#8EC6D8"/>
<path opacity="0.64" d="M48.524 191.087C48.524 192.96 50.0419 194.478 51.9143 194.478C53.7868 194.478 55.3047 192.96 55.3047 191.087C55.3047 189.215 53.7868 187.697 51.9143 187.697C50.0419 187.697 48.524 189.215 48.524 191.087Z" fill="#8EC6D8"/>
<path opacity="0.64" d="M61.0269 191.087C61.0269 192.96 62.5449 194.478 64.4173 194.478C66.2897 194.478 67.8076 192.96 67.8076 191.087C67.8076 189.215 66.2897 187.697 64.4173 187.697C62.5449 187.697 61.0269 189.215 61.0269 191.087Z" fill="#8EC6D8"/>
<path opacity="0.64" d="M73.6343 191.087C73.6343 192.96 75.1522 194.478 77.0247 194.478C78.8971 194.478 80.415 192.96 80.415 191.087C80.415 189.215 78.8971 187.697 77.0247 187.697C75.1522 187.697 73.6343 189.215 73.6343 191.087Z" fill="#8EC6D8"/>
<path opacity="0.64" d="M86.1363 191.087C86.1363 192.96 87.6542 194.478 89.5266 194.478C91.3991 194.478 92.917 192.96 92.917 191.087C92.917 189.215 91.3991 187.697 89.5266 187.697C87.6542 187.697 86.1363 189.215 86.1363 191.087Z" fill="#8EC6D8"/>
<path opacity="0.64" d="M-0.000487476 115.757C-0.000487558 117.63 1.51744 119.147 3.38989 119.147C5.26234 119.147 6.78027 117.63 6.78027 115.757C6.78027 113.885 5.26234 112.367 3.38989 112.367C1.51744 112.367 -0.000487394 113.885 -0.000487476 115.757Z" fill="#8EC6D8"/>
<path opacity="0.64" d="M12.5015 115.757C12.5015 117.63 14.0194 119.147 15.8918 119.147C17.7643 119.147 19.2822 117.63 19.2822 115.757C19.2822 113.885 17.7643 112.367 15.8918 112.367C14.0194 112.367 12.5015 113.885 12.5015 115.757Z" fill="#8EC6D8"/>
<path opacity="0.64" d="M25.0035 115.757C25.0035 117.63 26.5214 119.147 28.3939 119.147C30.2663 119.147 31.7842 117.63 31.7842 115.757C31.7842 113.885 30.2663 112.367 28.3939 112.367C26.5214 112.367 25.0035 113.885 25.0035 115.757Z" fill="#8EC6D8"/>
<path opacity="0.64" d="M37.6118 115.757C37.6118 117.63 39.1297 119.147 41.0022 119.147C42.8746 119.147 44.3926 117.63 44.3926 115.757C44.3926 113.885 42.8746 112.367 41.0022 112.367C39.1297 112.367 37.6118 113.885 37.6118 115.757Z" fill="#8EC6D8"/>
<path opacity="0.64" d="M-0.000487476 126.564C-0.000487558 128.436 1.51744 129.954 3.38989 129.954C5.26234 129.954 6.78027 128.436 6.78027 126.564C6.78027 124.691 5.26234 123.173 3.38989 123.173C1.51744 123.173 -0.000487394 124.691 -0.000487476 126.564Z" fill="#8EC6D8"/>
<path opacity="0.64" d="M12.5015 126.564C12.5015 128.436 14.0194 129.954 15.8918 129.954C17.7643 129.954 19.2822 128.436 19.2822 126.564C19.2822 124.691 17.7643 123.173 15.8918 123.173C14.0194 123.173 12.5015 124.691 12.5015 126.564Z" fill="#8EC6D8"/>
<path opacity="0.64" d="M25.0035 126.564C25.0035 128.436 26.5214 129.954 28.3939 129.954C30.2663 129.954 31.7842 128.436 31.7842 126.564C31.7842 124.691 30.2663 123.173 28.3939 123.173C26.5214 123.173 25.0035 124.691 25.0035 126.564Z" fill="#8EC6D8"/>
<path opacity="0.64" d="M37.6118 126.564C37.6118 128.436 39.1297 129.954 41.0022 129.954C42.8746 129.954 44.3926 128.436 44.3926 126.564C44.3926 124.691 42.8746 123.173 41.0022 123.173C39.1297 123.173 37.6118 124.691 37.6118 126.564Z" fill="#8EC6D8"/>
<path opacity="0.64" d="M-0.000487476 137.476C-0.000487558 139.349 1.51744 140.867 3.38989 140.867C5.26234 140.867 6.78027 139.349 6.78027 137.476C6.78027 135.604 5.26234 134.086 3.38989 134.086C1.51744 134.086 -0.000487394 135.604 -0.000487476 137.476Z" fill="#8EC6D8"/>
<path opacity="0.64" d="M12.5015 137.476C12.5015 139.349 14.0194 140.867 15.8918 140.867C17.7643 140.867 19.2822 139.349 19.2822 137.476C19.2822 135.604 17.7643 134.086 15.8918 134.086C14.0194 134.086 12.5015 135.604 12.5015 137.476Z" fill="#8EC6D8"/>
<path opacity="0.64" d="M25.0035 137.476C25.0035 139.349 26.5214 140.867 28.3939 140.867C30.2663 140.867 31.7842 139.349 31.7842 137.476C31.7842 135.604 30.2663 134.086 28.3939 134.086C26.5214 134.086 25.0035 135.604 25.0035 137.476Z" fill="#8EC6D8"/>
<path opacity="0.64" d="M37.6118 137.476C37.6118 139.349 39.1297 140.867 41.0022 140.867C42.8746 140.867 44.3926 139.349 44.3926 137.476C44.3926 135.604 42.8746 134.086 41.0022 134.086C39.1297 134.086 37.6118 135.604 37.6118 137.476Z" fill="#8EC6D8"/>
<path opacity="0.64" d="M-0.000487476 148.388C-0.000487558 150.261 1.51744 151.779 3.38989 151.779C5.26234 151.779 6.78027 150.261 6.78027 148.388C6.78027 146.516 5.26234 144.998 3.38989 144.998C1.51744 144.998 -0.000487394 146.516 -0.000487476 148.388Z" fill="#8EC6D8"/>
<path opacity="0.64" d="M12.5015 148.388C12.5015 150.261 14.0194 151.779 15.8918 151.779C17.7643 151.779 19.2822 150.261 19.2822 148.388C19.2822 146.516 17.7643 144.998 15.8918 144.998C14.0194 144.998 12.5015 146.516 12.5015 148.388Z" fill="#8EC6D8"/>
<path opacity="0.64" d="M25.0035 148.388C25.0035 150.261 26.5214 151.779 28.3939 151.779C30.2663 151.779 31.7842 150.261 31.7842 148.388C31.7842 146.516 30.2663 144.998 28.3939 144.998C26.5214 144.998 25.0035 146.516 25.0035 148.388Z" fill="#8EC6D8"/>
<path opacity="0.64" d="M37.6118 148.388C37.6118 150.261 39.1297 151.779 41.0022 151.779C42.8746 151.779 44.3926 150.261 44.3926 148.388C44.3926 146.516 42.8746 144.998 41.0022 144.998C39.1297 144.998 37.6118 146.516 37.6118 148.388Z" fill="#8EC6D8"/>
<path opacity="0.64" d="M-0.000487476 72.4241C-0.000487558 74.2965 1.51744 75.8144 3.38989 75.8144C5.26234 75.8144 6.78027 74.2965 6.78027 72.4241C6.78027 70.5516 5.26234 69.0337 3.38989 69.0337C1.51744 69.0337 -0.000487394 70.5516 -0.000487476 72.4241Z" fill="#8EC6D8"/>
<path opacity="0.64" d="M12.5015 72.4241C12.5015 74.2965 14.0194 75.8144 15.8918 75.8144C17.7643 75.8144 19.2822 74.2965 19.2822 72.4241C19.2822 70.5516 17.7643 69.0337 15.8918 69.0337C14.0194 69.0337 12.5015 70.5516 12.5015 72.4241Z" fill="#8EC6D8"/>
<path opacity="0.64" d="M25.0035 72.4241C25.0035 74.2965 26.5214 75.8144 28.3939 75.8144C30.2663 75.8144 31.7842 74.2965 31.7842 72.4241C31.7842 70.5516 30.2663 69.0337 28.3939 69.0337C26.5214 69.0337 25.0035 70.5516 25.0035 72.4241Z" fill="#8EC6D8"/>
<path opacity="0.64" d="M37.6118 72.4241C37.6118 74.2965 39.1297 75.8144 41.0022 75.8144C42.8746 75.8144 44.3926 74.2965 44.3926 72.4241C44.3926 70.5516 42.8746 69.0337 41.0022 69.0337C39.1297 69.0337 37.6118 70.5516 37.6118 72.4241Z" fill="#8EC6D8"/>
<path opacity="0.64" d="M-0.000487476 83.3381C-0.000487558 85.2106 1.51744 86.7285 3.38989 86.7285C5.26234 86.7285 6.78027 85.2106 6.78027 83.3381C6.78027 81.4657 5.26234 79.9478 3.38989 79.9478C1.51744 79.9478 -0.000487394 81.4657 -0.000487476 83.3381Z" fill="#8EC6D8"/>
<path opacity="0.64" d="M12.5015 83.3381C12.5015 85.2106 14.0194 86.7285 15.8918 86.7285C17.7643 86.7285 19.2822 85.2106 19.2822 83.3381C19.2822 81.4657 17.7643 79.9478 15.8918 79.9478C14.0194 79.9478 12.5015 81.4657 12.5015 83.3381Z" fill="#8EC6D8"/>
<path opacity="0.64" d="M25.0035 83.3381C25.0035 85.2106 26.5214 86.7285 28.3939 86.7285C30.2663 86.7285 31.7842 85.2106 31.7842 83.3381C31.7842 81.4657 30.2663 79.9478 28.3939 79.9478C26.5214 79.9478 25.0035 81.4657 25.0035 83.3381Z" fill="#8EC6D8"/>
<path opacity="0.64" d="M37.6118 83.3381C37.6118 85.2106 39.1297 86.7285 41.0022 86.7285C42.8746 86.7285 44.3926 85.2106 44.3926 83.3381C44.3926 81.4657 42.8746 79.9478 41.0022 79.9478C39.1297 79.9478 37.6118 81.4657 37.6118 83.3381Z" fill="#8EC6D8"/>
<path opacity="0.64" d="M-0.000487476 94.2488C-0.000487558 96.1212 1.51744 97.6391 3.38989 97.6391C5.26234 97.6391 6.78027 96.1212 6.78027 94.2488C6.78027 92.3763 5.26234 90.8584 3.38989 90.8584C1.51744 90.8584 -0.000487394 92.3763 -0.000487476 94.2488Z" fill="#8EC6D8"/>
<path opacity="0.64" d="M12.5015 94.2488C12.5015 96.1212 14.0194 97.6391 15.8918 97.6391C17.7643 97.6391 19.2822 96.1212 19.2822 94.2488C19.2822 92.3763 17.7643 90.8584 15.8918 90.8584C14.0194 90.8584 12.5015 92.3763 12.5015 94.2488Z" fill="#8EC6D8"/>
<path opacity="0.64" d="M25.0035 94.2488C25.0035 96.1212 26.5214 97.6391 28.3939 97.6391C30.2663 97.6391 31.7842 96.1212 31.7842 94.2488C31.7842 92.3763 30.2663 90.8584 28.3939 90.8584C26.5214 90.8584 25.0035 92.3763 25.0035 94.2488Z" fill="#8EC6D8"/>
<path opacity="0.64" d="M37.6118 94.2488C37.6118 96.1212 39.1297 97.6391 41.0022 97.6391C42.8746 97.6391 44.3926 96.1212 44.3926 94.2488C44.3926 92.3763 42.8746 90.8584 41.0022 90.8584C39.1297 90.8584 37.6118 92.3763 37.6118 94.2488Z" fill="#8EC6D8"/>
<path opacity="0.64" d="M-0.000487476 105.163C-0.000487558 107.035 1.51744 108.553 3.38989 108.553C5.26234 108.553 6.78027 107.035 6.78027 105.163C6.78027 103.29 5.26234 101.772 3.38989 101.772C1.51744 101.772 -0.000487394 103.29 -0.000487476 105.163Z" fill="#8EC6D8"/>
<path opacity="0.64" d="M12.5015 105.163C12.5015 107.035 14.0194 108.553 15.8918 108.553C17.7643 108.553 19.2822 107.035 19.2822 105.163C19.2822 103.29 17.7643 101.772 15.8918 101.772C14.0194 101.772 12.5015 103.29 12.5015 105.163Z" fill="#8EC6D8"/>
<path opacity="0.64" d="M25.0035 105.163C25.0035 107.035 26.5214 108.553 28.3939 108.553C30.2663 108.553 31.7842 107.035 31.7842 105.163C31.7842 103.29 30.2663 101.772 28.3939 101.772C26.5214 101.772 25.0035 103.29 25.0035 105.163Z" fill="#8EC6D8"/>
<path opacity="0.64" d="M37.6118 105.163C37.6118 107.035 39.1297 108.553 41.0022 108.553C42.8746 108.553 44.3926 107.035 44.3926 105.163C44.3926 103.29 42.8746 101.772 41.0022 101.772C39.1297 101.772 37.6118 103.29 37.6118 105.163Z" fill="#8EC6D8"/>
<path opacity="0.64" d="M48.524 115.757C48.524 117.63 50.0419 119.147 51.9143 119.147C53.7868 119.147 55.3047 117.63 55.3047 115.757C55.3047 113.885 53.7868 112.367 51.9143 112.367C50.0419 112.367 48.524 113.885 48.524 115.757Z" fill="#8EC6D8"/>
<path opacity="0.64" d="M61.0269 115.757C61.0269 117.63 62.5449 119.147 64.4173 119.147C66.2897 119.147 67.8076 117.63 67.8076 115.757C67.8076 113.885 66.2897 112.367 64.4173 112.367C62.5449 112.367 61.0269 113.885 61.0269 115.757Z" fill="#8EC6D8"/>
<path opacity="0.64" d="M73.6343 115.757C73.6343 117.63 75.1522 119.147 77.0247 119.147C78.8971 119.147 80.415 117.63 80.415 115.757C80.415 113.885 78.8971 112.367 77.0247 112.367C75.1522 112.367 73.6343 113.885 73.6343 115.757Z" fill="#8EC6D8"/>
<path opacity="0.64" d="M86.1363 115.757C86.1363 117.63 87.6542 119.147 89.5266 119.147C91.3991 119.147 92.917 117.63 92.917 115.757C92.917 113.885 91.3991 112.367 89.5266 112.367C87.6542 112.367 86.1363 113.885 86.1363 115.757Z" fill="#8EC6D8"/>
<path opacity="0.64" d="M48.524 126.564C48.524 128.436 50.0419 129.954 51.9143 129.954C53.7868 129.954 55.3047 128.436 55.3047 126.564C55.3047 124.691 53.7868 123.173 51.9143 123.173C50.0419 123.173 48.524 124.691 48.524 126.564Z" fill="#8EC6D8"/>
<path opacity="0.64" d="M61.0269 126.564C61.0269 128.436 62.5449 129.954 64.4173 129.954C66.2897 129.954 67.8076 128.436 67.8076 126.564C67.8076 124.691 66.2897 123.173 64.4173 123.173C62.5449 123.173 61.0269 124.691 61.0269 126.564Z" fill="#8EC6D8"/>
<path opacity="0.64" d="M73.6343 126.564C73.6343 128.436 75.1522 129.954 77.0247 129.954C78.8971 129.954 80.415 128.436 80.415 126.564C80.415 124.691 78.8971 123.173 77.0247 123.173C75.1522 123.173 73.6343 124.691 73.6343 126.564Z" fill="#8EC6D8"/>
<path opacity="0.64" d="M86.1363 126.564C86.1363 128.436 87.6542 129.954 89.5266 129.954C91.3991 129.954 92.917 128.436 92.917 126.564C92.917 124.691 91.3991 123.173 89.5266 123.173C87.6542 123.173 86.1363 124.691 86.1363 126.564Z" fill="#8EC6D8"/>
<path opacity="0.64" d="M48.524 137.476C48.524 139.349 50.0419 140.867 51.9143 140.867C53.7868 140.867 55.3047 139.349 55.3047 137.476C55.3047 135.604 53.7868 134.086 51.9143 134.086C50.0419 134.086 48.524 135.604 48.524 137.476Z" fill="#8EC6D8"/>
<path opacity="0.64" d="M61.0269 137.476C61.0269 139.349 62.5449 140.867 64.4173 140.867C66.2897 140.867 67.8076 139.349 67.8076 137.476C67.8076 135.604 66.2897 134.086 64.4173 134.086C62.5449 134.086 61.0269 135.604 61.0269 137.476Z" fill="#8EC6D8"/>
<path opacity="0.64" d="M73.6343 137.476C73.6343 139.349 75.1522 140.867 77.0247 140.867C78.8971 140.867 80.415 139.349 80.415 137.476C80.415 135.604 78.8971 134.086 77.0247 134.086C75.1522 134.086 73.6343 135.604 73.6343 137.476Z" fill="#8EC6D8"/>
<path opacity="0.64" d="M86.1363 137.476C86.1363 139.349 87.6542 140.867 89.5266 140.867C91.3991 140.867 92.917 139.349 92.917 137.476C92.917 135.604 91.3991 134.086 89.5266 134.086C87.6542 134.086 86.1363 135.604 86.1363 137.476Z" fill="#8EC6D8"/>
<path opacity="0.64" d="M48.524 148.388C48.524 150.261 50.0419 151.779 51.9143 151.779C53.7868 151.779 55.3047 150.261 55.3047 148.388C55.3047 146.516 53.7868 144.998 51.9143 144.998C50.0419 144.998 48.524 146.516 48.524 148.388Z" fill="#8EC6D8"/>
<path opacity="0.64" d="M61.0269 148.388C61.0269 150.261 62.5449 151.779 64.4173 151.779C66.2897 151.779 67.8076 150.261 67.8076 148.388C67.8076 146.516 66.2897 144.998 64.4173 144.998C62.5449 144.998 61.0269 146.516 61.0269 148.388Z" fill="#8EC6D8"/>
<path opacity="0.64" d="M73.6343 148.388C73.6343 150.261 75.1522 151.779 77.0247 151.779C78.8971 151.779 80.415 150.261 80.415 148.388C80.415 146.516 78.8971 144.998 77.0247 144.998C75.1522 144.998 73.6343 146.516 73.6343 148.388Z" fill="#8EC6D8"/>
<path opacity="0.64" d="M86.1363 148.388C86.1363 150.261 87.6542 151.779 89.5266 151.779C91.3991 151.779 92.917 150.261 92.917 148.388C92.917 146.516 91.3991 144.998 89.5266 144.998C87.6542 144.998 86.1363 146.516 86.1363 148.388Z" fill="#8EC6D8"/>
<path opacity="0.64" d="M48.524 72.4241C48.524 74.2965 50.0419 75.8144 51.9143 75.8144C53.7868 75.8144 55.3047 74.2965 55.3047 72.4241C55.3047 70.5516 53.7868 69.0337 51.9143 69.0337C50.0419 69.0337 48.524 70.5516 48.524 72.4241Z" fill="#8EC6D8"/>
<path opacity="0.64" d="M61.0269 72.4241C61.0269 74.2965 62.5449 75.8144 64.4173 75.8144C66.2897 75.8144 67.8076 74.2965 67.8076 72.4241C67.8076 70.5516 66.2897 69.0337 64.4173 69.0337C62.5449 69.0337 61.0269 70.5516 61.0269 72.4241Z" fill="#8EC6D8"/>
<path opacity="0.64" d="M73.6343 72.4241C73.6343 74.2965 75.1522 75.8144 77.0247 75.8144C78.8971 75.8144 80.415 74.2965 80.415 72.4241C80.415 70.5516 78.8971 69.0337 77.0247 69.0337C75.1522 69.0337 73.6343 70.5516 73.6343 72.4241Z" fill="#8EC6D8"/>
<path opacity="0.64" d="M86.1363 72.4241C86.1363 74.2965 87.6542 75.8144 89.5266 75.8144C91.3991 75.8144 92.917 74.2965 92.917 72.4241C92.917 70.5516 91.3991 69.0337 89.5266 69.0337C87.6542 69.0337 86.1363 70.5516 86.1363 72.4241Z" fill="#8EC6D8"/>
<path opacity="0.64" d="M48.524 83.3381C48.524 85.2106 50.0419 86.7285 51.9143 86.7285C53.7868 86.7285 55.3047 85.2106 55.3047 83.3381C55.3047 81.4657 53.7868 79.9478 51.9143 79.9478C50.0419 79.9478 48.524 81.4657 48.524 83.3381Z" fill="#8EC6D8"/>
<path opacity="0.64" d="M61.0269 83.3381C61.0269 85.2106 62.5449 86.7285 64.4173 86.7285C66.2897 86.7285 67.8076 85.2106 67.8076 83.3381C67.8076 81.4657 66.2897 79.9478 64.4173 79.9478C62.5449 79.9478 61.0269 81.4657 61.0269 83.3381Z" fill="#8EC6D8"/>
<path opacity="0.64" d="M73.6343 83.3381C73.6343 85.2106 75.1522 86.7285 77.0247 86.7285C78.8971 86.7285 80.415 85.2106 80.415 83.3381C80.415 81.4657 78.8971 79.9478 77.0247 79.9478C75.1522 79.9478 73.6343 81.4657 73.6343 83.3381Z" fill="#8EC6D8"/>
<path opacity="0.64" d="M86.1363 83.3381C86.1363 85.2106 87.6542 86.7285 89.5266 86.7285C91.3991 86.7285 92.917 85.2106 92.917 83.3381C92.917 81.4657 91.3991 79.9478 89.5266 79.9478C87.6542 79.9478 86.1363 81.4657 86.1363 83.3381Z" fill="#8EC6D8"/>
<path opacity="0.64" d="M48.524 94.2488C48.524 96.1212 50.0419 97.6391 51.9143 97.6391C53.7868 97.6391 55.3047 96.1212 55.3047 94.2488C55.3047 92.3763 53.7868 90.8584 51.9143 90.8584C50.0419 90.8584 48.524 92.3763 48.524 94.2488Z" fill="#8EC6D8"/>
<path opacity="0.64" d="M61.0269 94.2488C61.0269 96.1212 62.5449 97.6391 64.4173 97.6391C66.2897 97.6391 67.8076 96.1212 67.8076 94.2488C67.8076 92.3763 66.2897 90.8584 64.4173 90.8584C62.5449 90.8584 61.0269 92.3763 61.0269 94.2488Z" fill="#8EC6D8"/>
<path opacity="0.64" d="M73.6343 94.2488C73.6343 96.1212 75.1522 97.6391 77.0247 97.6391C78.8971 97.6391 80.415 96.1212 80.415 94.2488C80.415 92.3763 78.8971 90.8584 77.0247 90.8584C75.1522 90.8584 73.6343 92.3763 73.6343 94.2488Z" fill="#8EC6D8"/>
<path opacity="0.64" d="M86.1363 94.2488C86.1363 96.1212 87.6542 97.6391 89.5266 97.6391C91.3991 97.6391 92.917 96.1212 92.917 94.2488C92.917 92.3763 91.3991 90.8584 89.5266 90.8584C87.6542 90.8584 86.1363 92.3763 86.1363 94.2488Z" fill="#8EC6D8"/>
<path opacity="0.64" d="M48.524 105.163C48.524 107.035 50.0419 108.553 51.9143 108.553C53.7868 108.553 55.3047 107.035 55.3047 105.163C55.3047 103.29 53.7868 101.772 51.9143 101.772C50.0419 101.772 48.524 103.29 48.524 105.163Z" fill="#8EC6D8"/>
<path opacity="0.64" d="M61.0269 105.163C61.0269 107.035 62.5449 108.553 64.4173 108.553C66.2897 108.553 67.8076 107.035 67.8076 105.163C67.8076 103.29 66.2897 101.772 64.4173 101.772C62.5449 101.772 61.0269 103.29 61.0269 105.163Z" fill="#8EC6D8"/>
<path opacity="0.64" d="M73.6343 105.163C73.6343 107.035 75.1522 108.553 77.0247 108.553C78.8971 108.553 80.415 107.035 80.415 105.163C80.415 103.29 78.8971 101.772 77.0247 101.772C75.1522 101.772 73.6343 103.29 73.6343 105.163Z" fill="#8EC6D8"/>
<path opacity="0.64" d="M86.1363 105.163C86.1363 107.035 87.6542 108.553 89.5266 108.553C91.3991 108.553 92.917 107.035 92.917 105.163C92.917 103.29 91.3991 101.772 89.5266 101.772C87.6542 101.772 86.1363 103.29 86.1363 105.163Z" fill="#8EC6D8"/>
</svg>
