<svg width="225" height="487" viewBox="0 0 225 487" fill="none" xmlns="http://www.w3.org/2000/svg">
<g opacity="0.2">
<path d="M112.382 130.867C50.3145 203.143 58.5903 312.05 130.866 374.118C203.142 436.185 312.049 427.91 374.117 355.634C436.184 283.357 427.909 174.45 355.633 112.383C283.356 50.3156 174.449 58.5912 112.382 130.867Z" stroke="#545A5C" stroke-miterlimit="10"/>
<path d="M139.694 154.32C157.426 133.672 180.865 118.731 207.042 111.391C233.22 104.051 260.957 104.641 286.742 113.087C312.527 121.533 335.199 137.455 351.887 158.835C368.575 180.216 378.528 206.094 380.484 233.192C382.441 260.29 376.314 287.388 362.879 311.054C349.445 334.721 329.307 353.891 305.016 366.136C280.725 378.382 253.374 383.152 226.428 379.842C199.482 376.533 174.152 365.293 153.647 347.545C126.243 323.827 109.388 290.176 106.773 253.96C104.157 217.745 115.995 181.917 139.694 154.32V154.32Z" stroke="#545A5C" stroke-miterlimit="10"/>
<path d="M167.008 177.775C180.102 162.528 197.405 151.493 216.724 146.066C236.043 140.64 256.509 141.068 275.528 147.296C294.547 153.523 311.263 165.27 323.558 181.047C335.853 196.825 343.172 215.922 344.589 235.92C346.006 255.918 341.457 275.916 331.518 293.38C321.579 310.843 306.698 324.986 288.76 334.016C270.822 343.046 250.635 346.557 230.758 344.104C210.88 341.65 192.206 333.343 177.103 320.234C167.06 311.609 158.828 301.075 152.882 289.236C146.935 277.397 143.391 264.488 142.453 251.25C141.515 238.011 143.201 224.705 147.415 212.096C151.629 199.486 158.288 187.823 167.008 177.775V177.775Z" stroke="#545A5C" stroke-miterlimit="10"/>
<path d="M194.321 201.229C202.776 191.384 213.942 184.253 226.403 180.741C238.864 177.229 252.059 177.495 264.312 181.504C276.565 185.513 287.325 193.085 295.226 203.259C303.128 213.433 307.815 225.75 308.692 238.649C309.57 251.547 306.598 264.445 300.155 275.705C293.712 286.966 284.087 296.082 272.502 301.896C260.917 307.711 247.894 309.962 235.085 308.365C222.276 306.767 210.259 301.392 200.558 292.923C194.101 287.378 188.814 280.6 185.002 272.979C181.191 265.358 178.93 257.046 178.35 248.522C177.77 239.997 178.883 231.429 181.624 223.312C184.365 215.195 188.68 207.69 194.321 201.229Z" stroke="#545A5C" stroke-miterlimit="10"/>
</g>
<path d="M132.291 300.112C132.291 300.112 119.524 303.988 113.753 297.155C113.753 297.155 116.751 307.15 109.824 315.167C109.824 315.167 118.112 312.089 127.995 317.966C127.995 317.966 123.365 311.515 132.291 300.112Z" fill="#8EC6D8"/>
<path d="M153.861 149.614C153.861 149.614 158.235 137.234 166.997 136.759C166.997 136.759 157.352 133.161 155.051 122.916C155.051 122.916 152.656 131.289 142.254 135.575C142.254 135.575 150.049 135.773 153.861 149.614Z" fill="#EE4D4A"/>
<path d="M81.3751 307.476L89.1113 300.231L81.8661 292.495L74.1298 299.74L81.3751 307.476Z" fill="#F0CA50"/>
</svg>
