<svg width="188" height="115" viewBox="0 0 188 115" fill="none" xmlns="http://www.w3.org/2000/svg">
<path d="M159.656 4.72783L179.394 1.9873L177.588 21.613L159.656 4.72783Z" fill="#5C9EDC"/>
<path d="M174.512 15.2896L166.341 7.59668L135.115 40.4892L143.287 48.1821L174.512 15.2896Z" fill="#5C9EDC"/>
<path d="M175.044 35.0203L187.117 33.3701L186.022 45.3636L175.044 35.0203Z" fill="#5C9EDC"/>
<path d="M184.131 41.5226L179.121 36.8057L160.012 56.9352L165.022 61.6522L184.131 41.5226Z" fill="#5C9EDC"/>
<path d="M33.9229 29.3035L45.996 27.6533L44.9011 39.6468L33.9229 29.3035Z" fill="#5C9EDC"/>
<path d="M43.0065 35.8068L37.9961 31.0898L18.8868 51.2194L23.8972 55.9363L43.0065 35.8068Z" fill="#5C9EDC"/>
<path d="M56.468 63.4155L46.5332 54.0625L-3.33927e-05 103.08L9.93474 112.433L56.468 63.4155Z" fill="#5C9EDC"/>
<path d="M182.947 86.293H158.445V91.2141H182.947V86.293Z" fill="#F1CA50"/>
<g opacity="0.3">
<g opacity="0.3">
<g opacity="0.3">
<g opacity="0.3">
<path opacity="0.3" d="M158.858 86.293C166.522 87.3243 174.956 87.3538 182.59 86.293H158.858Z" fill="#163459"/>
</g>
</g>
</g>
</g>
<path d="M182.977 86.2956C182.977 86.3545 177.503 86.4135 170.756 86.4135C164.01 86.4135 158.535 86.3545 158.535 86.2956C158.535 86.2367 164.01 86.1777 170.756 86.1777C177.503 86.2072 182.977 86.2367 182.977 86.2956Z" fill="#163459"/>
<path d="M183.508 91.1279H159.007V96.0491H183.508V91.1279Z" fill="#F1CA50"/>
<g opacity="0.3">
<g opacity="0.3">
<g opacity="0.3">
<g opacity="0.3">
<path opacity="0.3" d="M159.392 91.1279C167.056 92.1593 175.489 92.1888 183.124 91.1279H159.392Z" fill="#163459"/>
</g>
</g>
</g>
</g>
<path d="M183.505 91.1579C183.505 91.2168 178.03 91.2758 171.284 91.2758C164.537 91.2758 159.062 91.2168 159.062 91.1579C159.062 91.099 164.537 91.04 171.284 91.04C178.03 91.04 183.505 91.099 183.505 91.1579Z" fill="#163459"/>
<path d="M181.171 95.9004H156.67V100.822H181.171V95.9004Z" fill="#F1CA50"/>
<g opacity="0.3">
<g opacity="0.3">
<g opacity="0.3">
<g opacity="0.3">
<path opacity="0.3" d="M157.083 95.9004C164.747 96.9318 173.181 96.9613 180.815 95.9004H157.083Z" fill="#163459"/>
</g>
</g>
</g>
</g>
<path d="M181.195 95.8991C181.195 95.9581 175.721 96.017 168.974 96.017C162.227 96.017 156.753 95.9581 156.753 95.8991C156.753 95.8402 162.227 95.7812 168.974 95.7812C175.721 95.8107 181.195 95.8402 181.195 95.8991Z" fill="#163459"/>
<path d="M184.038 100.764H159.536V105.508H184.038V100.764Z" fill="#F1CA50"/>
<g opacity="0.3">
<g opacity="0.3">
<g opacity="0.3">
<g opacity="0.3">
<path opacity="0.3" d="M159.952 100.79C167.616 102.116 176.05 102.146 183.684 100.79H159.952Z" fill="#163459"/>
</g>
</g>
</g>
</g>
<path d="M184.065 100.795C184.065 100.854 178.591 100.912 171.844 100.912C165.097 100.912 159.623 100.854 159.623 100.795C159.623 100.736 165.097 100.677 171.844 100.677C178.591 100.677 184.065 100.736 184.065 100.795Z" fill="#163459"/>
<path d="M182.467 105.508H157.966V110.252H182.467V105.508Z" fill="#F1CA50"/>
<g opacity="0.3">
<g opacity="0.3">
<g opacity="0.3">
<g opacity="0.3">
<path opacity="0.3" d="M158.349 105.508C166.013 107.011 174.446 107.07 182.081 105.508H158.349Z" fill="#163459"/>
</g>
</g>
</g>
</g>
<path d="M182.469 105.538C182.469 105.597 176.994 105.656 170.248 105.656C163.501 105.656 158.026 105.597 158.026 105.538C158.026 105.479 163.501 105.42 170.248 105.42C176.994 105.42 182.469 105.479 182.469 105.538Z" fill="#163459"/>
<path d="M183.86 110.192H159.358V114.937H183.86V110.192Z" fill="#F1CA50"/>
<g opacity="0.3">
<g opacity="0.3">
<g opacity="0.3">
<g opacity="0.3">
<path opacity="0.3" d="M159.775 110.191C167.439 111.517 175.873 111.547 183.507 110.191H159.775Z" fill="#163459"/>
</g>
</g>
</g>
</g>
<path d="M183.889 110.191C183.889 110.25 178.415 110.309 171.668 110.309C164.922 110.309 159.447 110.25 159.447 110.191C159.447 110.132 164.922 110.073 171.668 110.073C178.415 110.073 183.889 110.132 183.889 110.191Z" fill="#163459"/>
<path d="M159.36 114.907C159.36 114.907 159.36 114.878 159.36 114.819C159.36 114.76 159.36 114.671 159.36 114.583C159.36 114.377 159.36 114.053 159.36 113.67C159.36 112.844 159.36 111.695 159.39 110.251V110.192H159.331C158.917 110.192 158.443 110.192 157.97 110.192L158.029 110.251C158.029 108.866 158.029 107.275 158.029 105.507L157.97 105.566C158.473 105.566 159.005 105.566 159.538 105.566H159.627V105.477C159.627 104.004 159.627 102.442 159.627 100.792V100.704H159.538C159.005 100.704 158.473 100.704 157.91 100.704C157.496 100.704 157.082 100.704 156.668 100.704L156.756 100.792C156.756 99.0534 156.756 97.3443 156.756 95.7825L156.668 95.8709C157.467 95.8709 158.236 95.8709 159.005 95.8709H159.064V95.8119C159.064 94.1028 159.064 92.541 159.064 91.2149V91.156H159.005C158.798 91.156 158.591 91.156 158.413 91.156L158.473 91.2149C158.473 89.6826 158.473 88.4744 158.473 87.6198C158.473 87.2073 158.473 86.8831 158.473 86.6474C158.473 86.5295 158.473 86.4706 158.473 86.4117C158.473 86.3527 158.473 86.3232 158.473 86.3232C158.473 86.3232 158.473 86.3527 158.473 86.4117C158.473 86.4706 158.473 86.559 158.473 86.6474C158.473 86.8831 158.473 87.2073 158.443 87.6198C158.443 88.4744 158.413 89.7121 158.384 91.2149V91.2739H158.443C158.621 91.2739 158.828 91.2739 159.035 91.2739L158.976 91.2149C158.976 92.541 158.976 94.1028 158.976 95.8119L159.035 95.753C158.295 95.753 157.526 95.753 156.697 95.753H156.608V95.8414C156.608 97.4327 156.608 99.1124 156.608 100.851V100.939H156.697C157.111 100.939 157.526 100.939 157.94 100.939C158.502 100.939 159.064 100.939 159.568 100.939L159.479 100.851C159.479 102.501 159.479 104.092 159.479 105.536L159.568 105.448C159.035 105.448 158.473 105.448 157.999 105.448H157.94V105.507C157.94 107.246 157.94 108.866 157.94 110.251V110.31H157.999C158.473 110.31 158.917 110.31 159.36 110.31L159.301 110.251C159.301 111.695 159.331 112.874 159.331 113.67C159.331 114.053 159.331 114.377 159.331 114.583C159.331 114.671 159.331 114.76 159.331 114.819C159.36 114.878 159.36 114.907 159.36 114.907Z" fill="#163459"/>
<path d="M180.929 72.0615H156.428V76.8059H180.929V72.0615Z" fill="#F1CA50"/>
<g opacity="0.3">
<g opacity="0.3">
<g opacity="0.3">
<g opacity="0.3">
<path opacity="0.3" d="M156.842 72.0615C164.506 73.3876 172.939 73.4171 180.574 72.0615H156.842Z" fill="#163459"/>
</g>
</g>
</g>
</g>
<path d="M180.962 72.0905C180.962 72.1495 175.487 72.2084 168.741 72.2084C161.994 72.2084 156.52 72.1495 156.52 72.0905C156.52 72.0316 161.994 71.9727 168.741 71.9727C175.487 71.9727 180.962 72.0316 180.962 72.0905Z" fill="#163459"/>
<path d="M179.363 76.8057H154.861V81.55H179.363V76.8057Z" fill="#F1CA50"/>
<g opacity="0.3">
<g opacity="0.3">
<g opacity="0.3">
<g opacity="0.3">
<path opacity="0.3" d="M155.271 76.8057C162.936 78.3085 171.369 78.3675 179.004 76.8057H155.271Z" fill="#163459"/>
</g>
</g>
</g>
</g>
<path d="M179.39 76.8044C179.39 76.8633 173.915 76.9223 167.168 76.9223C160.422 76.9223 154.947 76.8633 154.947 76.8044C154.947 76.7455 160.422 76.6865 167.168 76.6865C173.886 76.716 179.39 76.7455 179.39 76.8044Z" fill="#163459"/>
<path d="M180.784 81.4629H156.282V86.2072H180.784V81.4629Z" fill="#F1CA50"/>
<g opacity="0.3">
<g opacity="0.3">
<g opacity="0.3">
<g opacity="0.3">
<path opacity="0.3" d="M156.67 81.4629C164.334 82.789 172.767 82.8184 180.402 81.4629H156.67Z" fill="#163459"/>
</g>
</g>
</g>
</g>
<path d="M180.785 81.4929C180.785 81.5518 175.311 81.6107 168.564 81.6107C161.817 81.6107 156.343 81.5518 156.343 81.4929C156.343 81.4339 161.817 81.375 168.564 81.375C175.311 81.375 180.785 81.4339 180.785 81.4929Z" fill="#163459"/>
<path d="M177.077 62.7217H152.575V67.466H177.077V62.7217Z" fill="#F1CA50"/>
<g opacity="0.3">
<g opacity="0.3">
<g opacity="0.3">
<g opacity="0.3">
<path opacity="0.3" d="M152.963 62.7227C160.627 64.2255 169.06 64.2845 176.695 62.7227H152.963Z" fill="#163459"/>
</g>
</g>
</g>
</g>
<path d="M177.078 62.7204C177.078 62.7794 171.604 62.8383 164.857 62.8383C158.11 62.8383 152.636 62.7794 152.636 62.7204C152.636 62.6615 158.11 62.6025 164.857 62.6025C171.604 62.632 177.078 62.6615 177.078 62.7204Z" fill="#163459"/>
<path d="M178.475 67.3779H153.974V72.1223H178.475V67.3779Z" fill="#F1CA50"/>
<g opacity="0.3">
<g opacity="0.3">
<g opacity="0.3">
<g opacity="0.3">
<path opacity="0.3" d="M154.358 67.3789C162.022 68.705 170.456 68.7344 178.09 67.3789H154.358Z" fill="#163459"/>
</g>
</g>
</g>
</g>
<path d="M178.472 67.404C178.472 67.4629 172.998 67.5219 166.251 67.5219C159.505 67.5219 154.03 67.4629 154.03 67.404C154.03 67.3451 159.505 67.2861 166.251 67.2861C172.998 67.2861 178.472 67.3451 178.472 67.404Z" fill="#163459"/>
<path d="M19.4722 91.2578H43.9736V86.3366H19.4722V91.2578Z" fill="#F1CA50"/>
<g opacity="0.3">
<g opacity="0.3">
<g opacity="0.3">
<g opacity="0.3">
<path opacity="0.3" d="M43.5992 86.3262C35.9351 87.3575 27.5017 87.387 19.8672 86.3262H43.5992Z" fill="#163459"/>
</g>
</g>
</g>
</g>
<path d="M19.4824 86.3571C19.4824 86.4161 24.9568 86.475 31.7035 86.475C38.4503 86.475 43.9246 86.4161 43.9246 86.3571C43.9246 86.2982 38.4503 86.2393 31.7035 86.2393C24.9568 86.2393 19.4824 86.2982 19.4824 86.3571Z" fill="#163459"/>
<path d="M18.9341 96.1025H43.4355V91.1814H18.9341V96.1025Z" fill="#F1CA50"/>
<g opacity="0.3">
<g opacity="0.3">
<g opacity="0.3">
<g opacity="0.3">
<path opacity="0.3" d="M43.0377 91.1855C35.3736 92.2169 26.9402 92.2464 19.3057 91.1855H43.0377Z" fill="#163459"/>
</g>
</g>
</g>
</g>
<path d="M18.9219 91.1882C18.9219 91.2471 24.3962 91.306 31.143 91.306C37.8897 91.306 43.3641 91.2471 43.3641 91.1882C43.3641 91.1292 37.8897 91.0703 31.143 91.0703C24.3962 91.0703 18.9219 91.1292 18.9219 91.1882Z" fill="#163459"/>
<path d="M21.2505 100.853H45.752V95.9314H21.2505V100.853Z" fill="#F1CA50"/>
<g opacity="0.3">
<g opacity="0.3">
<g opacity="0.3">
<g opacity="0.3">
<path opacity="0.3" d="M45.3756 95.9297C37.7115 96.9611 29.278 96.9905 21.6436 95.9297H45.3756Z" fill="#163459"/>
</g>
</g>
</g>
</g>
<path d="M21.2588 95.9606C21.2588 96.0196 26.7331 96.0785 33.4799 96.0785C40.2267 96.0785 45.701 96.0196 45.701 95.9606C45.701 95.9017 40.2267 95.8428 33.4799 95.8428C26.7331 95.8428 21.2588 95.9017 21.2588 95.9606Z" fill="#163459"/>
<path d="M18.3775 105.543H42.8789V100.799H18.3775V105.543Z" fill="#F1CA50"/>
<g opacity="0.3">
<g opacity="0.3">
<g opacity="0.3">
<g opacity="0.3">
<path opacity="0.3" d="M42.5035 100.824C34.8394 102.15 26.406 102.18 18.7715 100.824H42.5035Z" fill="#163459"/>
</g>
</g>
</g>
</g>
<path d="M18.3867 100.823C18.3867 100.882 23.8611 100.941 30.6078 100.941C37.3546 100.941 42.8289 100.882 42.8289 100.823C42.8289 100.764 37.3546 100.705 30.6078 100.705C23.8611 100.735 18.3867 100.764 18.3867 100.823Z" fill="#163459"/>
<path d="M19.9595 110.298H44.4609V105.553H19.9595V110.298Z" fill="#F1CA50"/>
<g opacity="0.3">
<g opacity="0.3">
<g opacity="0.3">
<g opacity="0.3">
<path opacity="0.3" d="M44.0709 105.564C36.4068 107.067 27.9734 107.126 20.3389 105.564H44.0709Z" fill="#163459"/>
</g>
</g>
</g>
</g>
<path d="M19.9551 105.568C19.9551 105.627 25.4294 105.686 32.1762 105.686C38.923 105.686 44.3973 105.627 44.3973 105.568C44.3973 105.509 38.923 105.45 32.1762 105.45C25.4294 105.45 19.9551 105.509 19.9551 105.568Z" fill="#163459"/>
<path d="M18.5504 114.948H43.0518V110.204H18.5504V114.948Z" fill="#F1CA50"/>
<g opacity="0.3">
<g opacity="0.3">
<g opacity="0.3">
<g opacity="0.3">
<path opacity="0.3" d="M42.6803 110.223C35.0162 111.549 26.5827 111.578 18.9482 110.223H42.6803Z" fill="#163459"/>
</g>
</g>
</g>
</g>
<path d="M18.5645 110.225C18.5645 110.284 24.0388 110.343 30.7856 110.343C37.5323 110.343 43.0067 110.284 43.0067 110.225C43.0067 110.166 37.5323 110.107 30.7856 110.107C24.0388 110.137 18.5645 110.166 18.5645 110.225Z" fill="#163459"/>
<path d="M43.0671 114.939C43.0671 114.939 43.0671 114.91 43.0671 114.851C43.0671 114.792 43.0671 114.704 43.0671 114.615C43.0671 114.409 43.0671 114.085 43.0671 113.702C43.0671 112.877 43.0671 111.727 43.0375 110.283V110.225H43.0967C43.511 110.225 43.9844 110.225 44.4579 110.225L44.3987 110.283C44.3987 108.898 44.3987 107.307 44.3987 105.539L44.4579 105.598C43.9548 105.598 43.4222 105.598 42.8896 105.598H42.8008V105.51C42.8008 104.036 42.8008 102.474 42.8008 100.824V100.736H42.8896C43.4222 100.736 43.9548 100.736 44.5171 100.736C44.9313 100.736 45.3456 100.736 45.7599 100.736L45.6711 100.824C45.6711 99.0856 45.6711 97.3765 45.6711 95.8147L45.7599 95.9031C44.9609 95.9031 44.1916 95.9031 43.4222 95.9031H43.363V95.8442C43.363 94.135 43.363 92.5732 43.363 91.2472V91.1882H43.4222C43.6293 91.1882 43.8365 91.1882 44.014 91.1882L43.9548 91.2472C43.9548 89.7148 43.9548 88.5066 43.9548 87.6521C43.9548 87.2395 43.9548 86.9154 43.9548 86.6796C43.9548 86.5617 43.9548 86.5028 43.9548 86.4439C43.9548 86.3849 43.9548 86.3555 43.9548 86.3555C43.9548 86.3555 43.9548 86.3849 43.9548 86.4439C43.9548 86.5028 43.9548 86.5912 43.9548 86.6796C43.9548 86.9154 43.9548 87.2395 43.9844 87.6521C43.9844 88.5066 44.014 89.7443 44.0436 91.2472V91.3061H43.9844C43.8069 91.3061 43.5997 91.3061 43.3926 91.3061L43.4518 91.2472C43.4518 92.5732 43.4518 94.135 43.4518 95.8442L43.3926 95.7852C44.1324 95.7852 44.9017 95.7852 45.7303 95.7852H45.8191V95.8736C45.8191 97.4649 45.8191 99.1446 45.8191 100.883V100.972H45.7303C45.316 100.972 44.9017 100.972 44.4875 100.972C43.9252 100.972 43.363 100.972 42.86 100.972L42.9487 100.883C42.9487 102.533 42.9487 104.125 42.9487 105.569L42.86 105.48C43.3926 105.48 43.9548 105.48 44.4283 105.48H44.4875V105.539C44.4875 107.278 44.4875 108.898 44.4875 110.283V110.342H44.4283C43.9548 110.342 43.511 110.342 43.0671 110.342L43.1263 110.283C43.1263 111.727 43.0967 112.906 43.0967 113.702C43.0967 114.085 43.0967 114.409 43.0967 114.615C43.0967 114.704 43.0967 114.792 43.0967 114.851C43.0671 114.939 43.0671 114.939 43.0671 114.939Z" fill="#163459"/>
<path d="M155.453 113.232H47.3271C44.9598 113.232 43.0068 111.316 43.0068 108.929V40.6519C43.0068 38.2945 44.9303 36.3496 47.3271 36.3496H155.453C157.82 36.3496 159.773 38.265 159.773 40.6519V108.959C159.773 111.316 157.82 113.232 155.453 113.232Z" fill="#1C427B"/>
<path d="M159.861 115H43.5682C40.757 115 38.4785 112.731 38.4785 109.931V108.281H164.951V109.931C164.951 112.731 162.672 115 159.861 115Z" fill="#1C427B"/>
<path d="M89.877 107.545L91.4453 110.02H113.55L115 107.545H89.877Z" fill="#163459"/>
<path d="M158.769 107.543C158.769 107.573 132.847 107.632 100.889 107.632C68.9306 107.632 43.0088 107.602 43.0088 107.543C43.0088 107.514 68.901 107.455 100.889 107.455C132.847 107.455 158.769 107.514 158.769 107.543Z" fill="#163459"/>
<path d="M154.151 104.207H48.3037L48.4221 41.5879H154.151V104.207Z" fill="white"/>
<path d="M154.15 104.209C154.15 103.737 154.12 79.9862 154.09 41.5894L154.15 41.6483C125.653 41.6483 88.6942 41.6483 48.4207 41.6778L48.5095 41.5894C48.5095 41.6188 48.5095 41.6188 48.5095 41.6483C48.4799 63.8083 48.4207 84.9663 48.3911 104.209L48.3319 104.15C110.384 104.179 153.499 104.209 154.15 104.209C153.499 104.209 110.384 104.238 48.3023 104.268H48.2432V104.209C48.2728 84.9663 48.3023 63.8083 48.3615 41.6483C48.3615 41.6188 48.3615 41.6188 48.3615 41.5894V41.501H48.4503C88.7237 41.501 125.683 41.501 154.179 41.5304H154.238V41.5894C154.179 79.9862 154.15 103.737 154.15 104.209Z" fill="#163459"/>
<path d="M103.846 92.0719L103.757 92.013L79.3446 78.4577L60.3472 91.5415L60.1992 91.3057L79.3446 78.1041L103.787 91.6888L142.403 49.7559L142.61 49.9621L103.846 92.0719Z" fill="#163459"/>
<path d="M114.115 88.151C114.292 92.8953 110.534 96.903 105.77 97.0798C100.976 97.2566 96.9814 93.5142 96.8039 88.7698C96.6263 83.996 100.384 80.0178 105.149 79.841C109.913 79.6642 113.937 83.3772 114.115 88.151Z" fill="#EE4D4A"/>
<path d="M111.895 88.0921C112.014 91.7167 109.173 94.7519 105.533 94.8697C101.893 94.9876 98.8456 92.1587 98.7272 88.5341C98.6088 84.9096 101.45 81.8744 105.089 81.7565C108.699 81.6386 111.747 84.4675 111.895 88.0921Z" fill="#EE4D4A"/>
<path d="M112.074 88.3582C112.193 91.9238 109.381 94.9296 105.801 95.0474C102.22 95.1653 99.202 92.3659 99.0837 88.8002C98.9653 85.2346 101.776 82.2289 105.357 82.111C108.938 81.9931 111.956 84.7926 112.074 88.3582Z" fill="#F1CA50"/>
<path d="M105.652 91.1286L105.682 92.0421L105.001 92.0715L104.972 91.158C104.173 91.1286 103.374 90.8928 102.93 90.5392L103.285 89.6846C103.699 90.0088 104.321 90.2151 104.942 90.2445L104.883 88.5943C103.965 88.4175 102.959 88.1523 102.93 87.0031C102.9 86.1779 103.492 85.4118 104.764 85.235L104.735 84.3215L105.415 84.292L105.445 85.2055C106.066 85.2055 106.688 85.3823 107.132 85.6475L106.836 86.4726C106.392 86.2369 105.918 86.119 105.475 86.0895L105.534 87.7398C106.451 87.9166 107.457 88.1818 107.487 89.331C107.546 90.2151 106.954 90.9518 105.652 91.1286ZM104.853 87.6513L104.794 86.2074C104.202 86.3253 103.965 86.62 103.995 86.9736C104.025 87.3567 104.38 87.5335 104.853 87.6513ZM106.451 89.4784C106.451 89.0658 106.066 88.889 105.563 88.7711L105.623 90.2151C106.214 90.1267 106.481 89.832 106.451 89.4784Z" fill="white"/>
<path d="M60.2591 94.9296C62.1222 94.9296 63.6325 93.4256 63.6325 91.5703C63.6325 89.715 62.1222 88.2109 60.2591 88.2109C58.3961 88.2109 56.8857 89.715 56.8857 91.5703C56.8857 93.4256 58.3961 94.9296 60.2591 94.9296Z" fill="#EE4D4A"/>
<path d="M79.346 81.4921C81.2091 81.4921 82.7194 79.9881 82.7194 78.1328C82.7194 76.2775 81.2091 74.7734 79.346 74.7734C77.483 74.7734 75.9727 76.2775 75.9727 78.1328C75.9727 79.9881 77.483 81.4921 79.346 81.4921Z" fill="#EE4D4A"/>
<path d="M141.99 53.2021C143.853 53.2021 145.363 51.6981 145.363 49.8428C145.363 47.9874 143.853 46.4834 141.99 46.4834C140.127 46.4834 138.616 47.9874 138.616 49.8428C138.616 51.6981 140.127 53.2021 141.99 53.2021Z" fill="#EE4D4A"/>
<path d="M98.7574 13.8333C99.7339 13.2439 100.74 12.8019 101.805 12.5072L102.427 9.50149L107.516 9.41309L108.256 12.3894C109.321 12.6546 110.357 13.0671 111.334 13.5975L113.908 11.9179L117.577 15.454L115.979 18.0767C116.571 19.0491 117.015 20.051 117.311 21.1119L120.329 21.7307L120.418 26.7992L117.429 27.5359C117.163 28.5967 116.749 29.6281 116.216 30.6006L117.903 33.1643L114.352 36.8183L111.718 35.227C110.742 35.8164 109.736 36.2584 108.67 36.5531L108.049 39.5588L102.959 39.6472L102.22 36.671C101.154 36.4058 100.119 35.9932 99.1421 35.4628L96.5676 37.1425L92.8984 33.6063L94.4963 30.9837C93.9045 30.0112 93.4606 29.0093 93.1647 27.9485L90.1464 27.3296L90.0576 22.2611L93.0463 21.5244C93.3126 20.4636 93.7269 19.4322 94.2596 18.4598L92.5729 15.896L96.1238 12.242L98.7574 13.8333ZM101.45 20.5815C99.3492 22.7326 99.4084 26.1804 101.598 28.2726C103.758 30.3648 107.22 30.3059 109.321 28.1253C111.422 25.9741 111.363 22.5263 109.173 20.4341C107.013 18.3714 103.551 18.4303 101.45 20.5815Z" fill="#5C9EDC"/>
<path d="M82.1852 10.6486C84.1678 10.1771 85.8249 8.49739 86.2096 6.25783C86.7126 3.31103 84.9076 0.541035 82.126 0.0695473C79.374 -0.401941 76.7108 1.57242 76.1782 4.51922C75.7935 6.78825 76.77 8.93941 78.5159 10.0297C70.6151 9.88239 69.5498 18.2808 69.5498 18.2808L87.7779 21.4338C87.7779 21.4633 89.6421 13.0944 82.1852 10.6486Z" fill="#1C427B"/>
<path d="M141.219 11.9174C142.551 10.5913 143.024 8.4696 142.225 6.49525C141.189 3.93153 138.378 2.63494 135.952 3.60738C133.525 4.57983 132.43 7.43822 133.466 10.0019C134.265 11.9763 136.129 13.1845 138.023 13.1845C131.72 16.9269 135.034 24.0876 135.034 24.0876L150.954 17.6931C150.954 17.6931 148.291 10.2082 141.219 11.9174Z" fill="#EE4D4A"/>
<path d="M78.1025 27.0068L96.8041 56.8579L101.006 73.4189H107.457V27.5078L78.1025 27.0068Z" fill="#EE4D4A"/>
<path d="M103.047 27.5078V73.4189H109.527L113.7 56.8579L132.401 27.0068L103.047 27.5078Z" fill="#EE4D4A"/>
<path d="M131.75 30.4541H78.9005C77.273 30.4541 75.9414 29.1281 75.9414 27.5073C75.9414 25.8866 77.273 24.5605 78.9005 24.5605H131.75C133.378 24.5605 134.709 25.8866 134.709 27.5073C134.709 29.1281 133.378 30.4541 131.75 30.4541Z" fill="#EE4D4A"/>
</svg>
