<svg width="99" height="138" viewBox="0 0 99 138" fill="none" xmlns="http://www.w3.org/2000/svg">
<path d="M80.2 115C80.2 115 70 123.6 62 119.6C62 119.6 68.7 127.6 65.5 137.7C65.5 137.7 71.9 131.6 83.3 133.1C83.3 133.1 76.5 129 80.2 115Z" fill="#EE4D4A"/>
<path d="M0.00238323 57.8693C2.36645 59.4453 21.279 72.2507 44.7227 64.9615C52.1681 62.7236 59.0117 58.8327 64.7427 53.5793C70.4737 48.3259 74.9439 41.8457 77.8196 34.6227C79.0392 31.1073 79.8973 27.4767 80.3807 23.7874L98.8992 24.1814C98.3698 31.4429 96.6389 38.5662 93.7771 45.261C81.9567 72.8417 54.573 81.904 51.4209 82.889C37.9423 87.0368 23.5282 87.0368 10.0497 82.889C1.63233 80.3868 -6.20303 76.2347 -13 70.6747L0.00238323 57.8693Z" fill="#8EC6D8"/>
<path d="M60.0821 -6.01115e-05L44.5156 8.06885L52.5573 23.5829L68.1238 15.514L60.0821 -6.01115e-05Z" fill="#F0CA50"/>
<path d="M24.0364 19.0596L24.8244 29.1069L0.789716 37.3811L-0.195312 27.3338L24.0364 19.0596Z" fill="#8EC6D8"/>
</svg>
