<svg width="143" height="120" viewBox="0 0 143 120" fill="none" xmlns="http://www.w3.org/2000/svg">
<g clip-path="url(#clip0_1400_14110)">
<path d="M126.627 118.209H16.1172C13.6997 118.209 11.7217 116.235 11.7217 113.821V43.8397C11.7217 41.4266 13.6997 39.4521 16.1172 39.4521H126.627C129.045 39.4521 131.023 41.4266 131.023 43.8397V113.821C131.023 116.235 129.045 118.209 126.627 118.209Z" fill="#545A5C"/>
<path d="M132.671 120.001H10.6595C8.64488 120.001 7.0332 118.392 7.0332 116.381V113.127H136.334V116.381C136.334 118.392 134.686 120.001 132.671 120.001Z" fill="#545A5C"/>
<path d="M59.5957 112.359L61.2074 114.919H83.7709L85.2727 112.359H59.5957Z" fill="#1F2122"/>
<path d="M129.998 112.359C129.998 112.396 103.515 112.432 70.8415 112.432C38.1684 112.432 11.6855 112.396 11.6855 112.359C11.6855 112.323 38.1684 112.286 70.8415 112.286C103.515 112.286 129.998 112.323 129.998 112.359Z" fill="#1F2122"/>
<path d="M125.309 108.958H17.1064L17.2163 44.79H125.309V108.958Z" fill="white"/>
<path d="M125.309 108.959C125.309 108.483 125.272 84.1323 125.236 44.7905L125.309 44.8636C96.1887 44.8636 58.3875 44.8636 17.253 44.8636L17.3262 44.7905V44.827C17.253 67.5693 17.2163 89.2146 17.1797 108.959L17.1065 108.886C80.5481 108.922 124.613 108.959 125.309 108.959C124.649 108.959 80.5847 108.995 17.1065 109.032H17.0332V108.959C17.0698 89.2146 17.1065 67.5693 17.1431 44.8636V44.827V44.7539H17.2163C58.3875 44.7539 96.1521 44.7539 125.272 44.7539H125.345V44.827C125.309 84.1323 125.309 108.447 125.309 108.959Z" fill="#1F2122"/>
<path d="M73.8813 96.4903L73.7715 96.4538L48.827 82.5598L29.4136 95.9784L29.2305 95.7225L48.827 82.2307L73.8081 96.1247L113.294 53.1631L113.514 53.3459L73.8813 96.4903Z" fill="#1F2122"/>
<path d="M84.3573 92.505C84.5405 97.3679 80.6944 101.463 75.8227 101.646C70.9511 101.829 66.8486 97.9895 66.6655 93.1266C66.4823 88.2637 70.3284 84.1686 75.2 83.9858C80.0717 83.803 84.1742 87.6056 84.3573 92.505Z" fill="#F7E39E"/>
<path d="M82.0858 92.432C82.2324 96.1249 79.302 99.2327 75.6025 99.379C71.9029 99.5252 68.7895 96.6002 68.643 92.9073C68.4964 89.2144 71.4268 86.1066 75.1263 85.9603C78.8625 85.8141 81.976 88.7391 82.0858 92.432Z" fill="#F0CA50"/>
<path d="M75.7125 95.5398L75.7492 96.4904L75.0532 96.527L75.0166 95.6129C74.1741 95.5763 73.3683 95.3569 72.9287 94.9913L73.295 94.1138C73.7346 94.4429 74.3572 94.6622 75.0166 94.6988L74.9433 93.0169C73.991 92.8341 73.002 92.5416 72.9653 91.3716C72.9287 90.5306 73.5148 89.7628 74.8334 89.58L74.7968 88.6293L75.4927 88.5928L75.5294 89.5069C76.1521 89.5069 76.7748 89.6897 77.2509 89.9456L76.9213 90.8231C76.4817 90.5672 76.0056 90.4575 75.5294 90.4209L75.6026 92.1028C76.555 92.2856 77.5806 92.5416 77.6172 93.7116C77.6539 94.6257 77.0312 95.3569 75.7125 95.5398ZM74.9067 91.9931L74.87 90.4941C74.284 90.6037 74.0276 90.9328 74.0642 91.2984C74.0642 91.7006 74.4305 91.8469 74.9067 91.9931ZM76.555 93.8579C76.555 93.4557 76.1521 93.2728 75.6393 93.1266L75.6759 94.6257C76.2986 94.516 76.555 94.2235 76.555 93.8579Z" fill="white"/>
<path d="M29.3406 99.452C31.2422 99.452 32.7837 97.9132 32.7837 96.0151C32.7837 94.1169 31.2422 92.5781 29.3406 92.5781C27.439 92.5781 25.8975 94.1169 25.8975 96.0151C25.8975 97.9132 27.439 99.452 29.3406 99.452Z" fill="#F0CA50"/>
<path d="M48.8269 85.6678C50.7285 85.6678 52.2701 84.129 52.2701 82.2309C52.2701 80.3327 50.7285 78.7939 48.8269 78.7939C46.9253 78.7939 45.3838 80.3327 45.3838 82.2309C45.3838 84.129 46.9253 85.6678 48.8269 85.6678Z" fill="#F0CA50"/>
<path d="M112.854 56.7098C114.756 56.7098 116.297 55.171 116.297 53.2729C116.297 51.3747 114.756 49.8359 112.854 49.8359C110.953 49.8359 109.411 51.3747 109.411 53.2729C109.411 55.171 110.953 56.7098 112.854 56.7098Z" fill="#EE4D4A"/>
<path d="M29.8164 14.1496C30.8054 13.5646 31.831 13.0893 32.9298 12.7968L33.5525 9.72547L38.7539 9.65234L39.4865 12.6871C40.5853 12.943 41.6476 13.3818 42.6366 13.9302L45.2739 12.2118L49.01 15.8315L47.3617 18.5006C47.9478 19.4878 48.424 20.5116 48.717 21.6085L51.7938 22.23L51.8671 27.422L48.8269 28.1533C48.5705 29.2501 48.1309 30.3105 47.5815 31.2977L49.3031 33.9302L45.6768 37.6597L43.0028 36.0143C42.0139 36.5993 40.9882 37.0746 39.8894 37.3671L39.2301 40.4384L34.1386 40.5847L33.406 37.55C32.3072 37.294 31.2449 36.8553 30.2559 36.3068L27.6186 38.0253L23.8825 34.4055L25.5308 31.7364C24.9447 30.7492 24.4685 29.7255 24.1755 28.6286L21.0986 27.9704L21.0254 22.7785L24.0656 22.0472C24.322 20.9503 24.7616 19.89 25.311 18.9028L23.5894 16.2703L27.2157 12.5408L29.8164 14.1496ZM32.6002 21.0966C30.4757 23.3269 30.5123 26.837 32.7467 28.9942C34.9811 31.1149 38.4975 31.0783 40.6586 28.848C42.7831 26.6176 42.7464 23.1076 40.5121 20.9503C38.2777 18.7931 34.7613 18.8662 32.6002 21.0966Z" fill="#E0E0E0"/>
<path d="M12.8934 10.8961C14.908 10.4207 16.593 8.70228 16.9959 6.3988C17.5087 3.40063 15.6406 0.548713 12.8202 0.0733932C9.99974 -0.401927 7.28919 1.60904 6.73975 4.64378C6.37346 6.94725 7.39908 9.14104 9.1939 10.2745C1.09887 10.1282 0 18.7571 0 18.7571L18.6442 21.9747C18.6442 21.9747 20.5123 13.4189 12.8934 10.8961Z" fill="#545A5C"/>
<path d="M73.2586 12.1761C74.6139 10.8232 75.0901 8.62945 74.2842 6.61848C73.222 3.98594 70.3649 2.66967 67.8741 3.65687C65.42 4.64407 64.2845 7.60568 65.3467 10.2017C66.1526 12.2126 68.0573 13.4558 69.9986 13.4558C63.5519 17.2949 66.9218 24.6075 66.9218 24.6075L83.1851 18.0262C83.1851 18.0993 80.4745 10.421 73.2586 12.1761Z" fill="#EE4D4A"/>
<path d="M8.71777 27.6416L27.8748 58.2449L32.1238 75.2102H38.7536V28.1535L8.71777 27.6416Z" fill="#EE4D4A"/>
<path d="M34.248 28.1535V75.2102H40.8413L45.1269 58.2449L64.2473 27.6416L34.248 28.1535Z" fill="#EE4D4A"/>
<path d="M63.5515 31.1886H9.52361C7.83867 31.1886 6.4834 29.8358 6.4834 28.1539C6.4834 26.472 7.83867 25.1191 9.52361 25.1191H63.5515C65.2365 25.1191 66.5918 26.472 66.5918 28.1539C66.5918 29.8358 65.2365 31.1886 63.5515 31.1886Z" fill="#EE4D4A"/>
<path d="M101.609 43.0712L101.316 45.0821L106.261 66.2522C109.192 68.19 112.781 68.8481 116.224 68.0438L138.385 62.8884C138.385 62.8884 141.901 61.9377 140.693 57.3673C140.693 57.3673 140.4 54.9542 138.312 54.881C138.312 54.881 142.561 52.9066 141.938 49.616C141.315 46.3253 138.861 46.4715 138.861 46.4715C138.861 46.4715 142.89 45.265 142.268 41.5355C141.682 37.8061 139.484 37.9158 139.484 37.9158C139.484 37.9158 144.136 36.5629 142.781 32.4313C141.389 28.3363 137.396 29.5428 137.396 29.5428L121.646 33.1991L107.836 36.4167C104.54 37.1114 102.086 39.7805 101.609 43.0712Z" fill="#EE4D4A"/>
<path d="M105.272 37.4039C105.272 37.4039 109.961 32.7603 111.463 27.8609C112.562 24.3143 112.269 20.3655 112.269 20.3655C112.232 20.1827 111.866 18.5008 111.573 17.1479C111.316 16.0145 112.012 14.9176 113.111 14.6251C115.455 14.0035 119.631 15.137 121.096 19.3783C123.257 25.6671 121.865 30.1278 121.902 32.0657C121.939 34.0035 121.939 34.0035 121.939 34.0035L105.272 37.4039Z" fill="#EE4D4A"/>
<path d="M102.49 37.8534L87.0098 41.4619L94.3563 72.8656L109.837 69.2572L102.49 37.8534Z" fill="#EE4D4A"/>
<path d="M98.7156 46.3249C99.0819 47.9337 98.0929 49.5059 96.4812 49.9081C94.8696 50.2737 93.2945 49.2865 92.8916 47.6778C92.5253 46.069 93.5143 44.4968 95.126 44.0946C96.7377 43.7289 98.3493 44.7162 98.7156 46.3249Z" fill="white"/>
<g opacity="0.3">
<g opacity="0.3">
<path opacity="0.3" d="M113.257 16.1977C112.781 16.6365 112.708 17.4043 112.891 18.0259C113.074 18.6474 113.441 19.1959 113.734 19.8175C114.356 21.1337 114.539 22.6328 114.246 24.0588C114.137 24.4975 114.027 25.0094 114.32 25.3385C114.723 25.8138 115.528 25.5579 116.005 25.1557C117.909 23.6932 118.788 21.0972 118.239 18.7571C117.983 17.7699 117.47 16.8559 116.664 16.2343C115.858 15.6858 114.613 15.174 113.257 16.1977Z" fill="white"/>
</g>
</g>
<g opacity="0.3">
<g opacity="0.3">
<path opacity="0.3" d="M138.788 30.0178C138.238 29.9081 137.689 30.0544 137.14 30.2006C134.026 31.005 130.913 31.7728 127.799 32.5772C126.774 32.8331 124.869 33.0525 124.832 34.1129C124.612 34.6979 125.052 35.3194 125.601 35.5388C126.151 35.7582 126.81 35.6851 127.396 35.6119C128.642 35.4291 129.887 35.1366 131.132 34.8441C133.623 34.2591 136.077 33.6375 138.458 32.6869C138.825 32.5406 139.154 32.3944 139.447 32.1384C139.74 31.8825 139.923 31.5169 139.923 31.1512C139.887 30.5297 139.337 30.1275 138.788 30.0178Z" fill="white"/>
</g>
</g>
</g>
<defs>
<clipPath id="clip0_1400_14110">
<rect width="143" height="120" fill="white"/>
</clipPath>
</defs>
</svg>
