<svg width="79" height="80" viewBox="0 0 79 80" fill="none" xmlns="http://www.w3.org/2000/svg">
<path d="M41.2011 34.735L45.3354 23.9929L33.3213 34.6643L35.9715 38.6572L41.2011 34.735Z" fill="#5C9EDC"/>
<path d="M12.0141 10.6714H25.3357C25.3357 6.9965 22.3322 3.99296 18.6572 4.0283C17.8445 4.0283 17.0671 4.16964 16.2898 4.45233C12.8622 0.600738 6.96113 0.282717 3.10954 3.71028C1.13074 5.47706 0 8.02123 0 10.6714H12.0141Z" fill="white"/>
<path d="M49.364 24.0283C53.0524 24.0283 56.0424 21.0382 56.0424 17.3498C56.0424 13.6614 53.0524 10.6714 49.364 10.6714C45.6756 10.6714 42.6855 13.6614 42.6855 17.3498C42.6855 21.0382 45.6756 24.0283 49.364 24.0283Z" fill="#5C9EDC"/>
<path d="M57.7736 36.9611L52.0139 36.0071L53.3567 29.3286H66.6782V23.9929H45.3354L41.2012 34.735C40.1411 37.4912 41.5192 40.5654 44.2754 41.6254C44.7347 41.8021 45.2294 41.9081 45.7241 41.9434L53.3567 42.6502V50.636H60.0351V39.576C59.9998 38.3039 59.081 37.1731 57.7736 36.9611Z" fill="#5C9EDC"/>
<path d="M66.6787 1.34277V12.0142L77.3501 6.67846L66.6787 1.34277Z" fill="#EE4D4A"/>
<path d="M16.0075 37.3498C19.696 37.3498 22.686 34.3598 22.686 30.6714C22.686 26.983 19.696 23.9929 16.0075 23.9929C12.3191 23.9929 9.3291 26.983 9.3291 30.6714C9.3291 34.3598 12.3191 37.3498 16.0075 37.3498Z" fill="#5C9EDC"/>
<path d="M24.4523 50.3181L18.6926 49.364L20.0354 44.0283H26.7138L36.0424 38.6926L33.3922 34.6997L25.4064 38.6926L17.4205 37.3499H12.0142L7.87988 48.0919C6.81981 50.8481 8.1979 53.9223 10.9541 54.9824C11.4134 55.1591 11.9081 55.2651 12.4028 55.3004L20.0354 56.0071V63.993H26.7138V52.8976C26.6785 51.6255 25.7244 50.5301 24.4523 50.3181Z" fill="#5C9EDC"/>
<path d="M0 80V78.6573L17.3498 74.6643V63.9929H38.6926L50.7067 50.6714H78.7279V80H0Z" fill="#F1CA50"/>
<path d="M43.1099 40.4595L39.1169 47.1379L33.7812 52.4736L37.7742 56.4665L44.4526 49.7881L49.7883 41.8022L43.1099 40.4595Z" fill="#5C9EDC"/>
<path d="M9.64618 53.9578L5.65325 60.6362L0.282227 65.9366L4.27516 69.9295L10.9536 63.2864L16.2893 55.3005L9.64618 53.9578Z" fill="#5C9EDC"/>
<path d="M65.3359 25.3357V28.0213V25.3357ZM78.5515 6.04246C78.4101 5.79511 78.2335 5.58309 77.9861 5.47708L67.2794 0.141394C66.608 -0.176627 65.8306 0.0707231 65.4773 0.742101C65.3713 0.91878 65.3359 1.13079 65.3359 1.34281V38.6926H67.9861V12.8269L77.9154 7.84458C78.6221 7.52655 78.8695 6.71383 78.5515 6.04246ZM68.0214 9.82337V3.46295L74.3819 6.64316L68.0214 9.82337Z" fill="#EE4D4A"/>
</svg>
