<svg width="101" height="100" viewBox="0 0 101 100" fill="none" xmlns="http://www.w3.org/2000/svg">
<rect width="100" height="100" transform="translate(0.727539)" fill="white"/>
<path d="M46.7854 4.29705C53.6572 8.62224 59.544 14.3425 64.0645 21.0873C68.5851 27.8322 71.6387 35.4513 73.0275 43.4513C73.0275 43.4513 76.0074 41.982 78.0103 35.1341C78.0868 34.8754 78.2352 34.6438 78.4382 34.4662C78.6411 34.2885 78.8903 34.1722 79.1568 34.1305C79.4233 34.0889 79.6961 34.1238 79.9436 34.2311C80.191 34.3384 80.4029 34.5137 80.5547 34.7366C85.468 42.2215 88.131 50.9587 88.2275 59.9116C88.2275 79.7967 71.2146 95.9166 50.2275 95.9166C29.2405 95.9166 12.2275 79.7967 12.2275 59.9116C12.2939 52.3421 13.8436 44.8591 16.7891 37.8859C16.8962 37.6313 17.0801 37.4166 17.3151 37.2715C17.5501 37.1264 17.8245 37.0583 18.1 37.0766C18.3756 37.0949 18.6385 37.1987 18.8523 37.3736C19.066 37.5485 19.2199 37.7857 19.2924 38.0521C20.0809 40.8008 21.6848 44.1812 24.8942 45.25C24.8942 45.2389 24.9116 35.7326 34.3942 26.25C40.7275 19.9166 44.0035 17.0904 44.4769 5.58272C44.485 5.31658 44.562 5.0571 44.7003 4.82962C44.8387 4.60214 45.0337 4.41446 45.2664 4.28491C45.499 4.15536 45.7612 4.08838 46.0275 4.0905C46.2937 4.09263 46.5549 4.1638 46.7854 4.29705Z" fill="#F0CA50"/>
<path d="M70.1192 74.6905C65.1712 80.8205 58.5623 85.3955 51.0828 87.8686C50.5264 88.0443 49.9293 88.0443 49.3728 87.8686C41.8933 85.3955 35.2844 80.8205 30.3364 74.6905C25.626 68.4902 24.7741 57.6744 30.3364 52.3053C37.6593 45.2151 47.3176 48.6367 50.2278 56.0293C53.138 48.6367 62.7963 45.2151 70.1192 52.3053C75.6815 57.6744 74.8296 68.4902 70.1192 74.6905Z" fill="#EE4D4A"/>
</svg>
