<svg width="105" height="119" viewBox="0 0 105 119" fill="none" xmlns="http://www.w3.org/2000/svg">
<path d="M72.8205 81.5756L20.0148 93.3592C18.7208 93.6345 17.4543 92.8361 17.179 91.5696L0.0542966 14.6736C-0.22102 13.3796 0.577398 12.1132 1.84386 11.8379L54.6496 0.0542966C55.9436 -0.22102 57.2101 0.577398 57.4854 1.84386L74.6376 78.7398C74.9129 80.0338 74.1145 81.3003 72.8205 81.5756Z" fill="#F7E39E"/>
<path d="M2.8125 15.1186L19.4967 90.0047L71.8069 78.3588L68.8335 64.9509L55.1227 3.47266L2.8125 15.1186Z" fill="white"/>
<path d="M44.0124 8.37068L17.527 14.2625L16.2055 8.28809C15.9852 7.35201 16.5909 6.41593 17.527 6.19568L40.5985 1.04726C41.5346 0.827002 42.4707 1.4327 42.6909 2.36878L44.0124 8.37068Z" fill="#1F2122"/>
<path d="M31.7999 0L25.0547 1.51424L27.1196 7.10317L32.2129 5.97437L31.7999 0Z" fill="#1F2122"/>
<path d="M23.0826 55.2595C23.0826 55.2595 23.0826 55.232 23.0551 55.1769C23.0276 55.1219 23.0276 55.0393 23 54.9291C22.945 54.7089 22.8624 54.406 22.7798 54.0206C22.5871 53.2222 22.3393 52.0934 22.0364 50.7719L22.0915 50.7994C20.77 51.1022 19.2282 51.4326 17.5763 51.8181C17.5763 51.8456 17.6589 51.6804 17.6314 51.763V51.7905V51.8181L17.6589 51.9007L17.6864 52.0659C17.714 52.176 17.7415 52.2586 17.7415 52.3687C17.7966 52.5614 17.8241 52.7817 17.8792 52.9744C17.9618 53.3598 18.0443 53.7728 18.1269 54.1307C18.2921 54.9016 18.4573 55.6174 18.595 56.2507L18.5399 56.2231C19.889 55.9478 21.0178 55.7 21.8162 55.5348C22.2016 55.4522 22.5045 55.3972 22.7523 55.3421C22.8624 55.3146 22.945 55.3146 23 55.2871C23.0551 55.2595 23.0826 55.2595 23.0826 55.2595C23.0826 55.2595 23.0551 55.2595 23 55.2871C22.945 55.3146 22.8624 55.3146 22.7523 55.3421C22.532 55.3972 22.2292 55.4798 21.8437 55.5624C21.0453 55.7551 19.9165 56.0029 18.5674 56.3333H18.5124V56.2782C18.3747 55.6174 18.2095 54.9016 18.0443 54.1583C17.9618 53.7728 17.8792 53.3874 17.769 53.0019C17.714 52.8092 17.6864 52.589 17.6314 52.3962C17.6038 52.2861 17.5763 52.2035 17.5763 52.0934L17.5488 51.9282L17.5212 51.8456V51.8181V51.7905C17.4937 51.8456 17.5763 51.7079 17.5763 51.7079C19.2282 51.35 20.77 50.9921 22.0915 50.7168H22.1466V50.7719C22.4494 52.1209 22.6697 53.2497 22.8624 54.0757C22.945 54.4611 23 54.764 23.0551 54.9842C23.0826 55.0943 23.0826 55.1494 23.1102 55.232C23.0826 55.232 23.0826 55.2595 23.0826 55.2595Z" fill="#1F2122"/>
<path d="M24.8092 63.0796C24.8092 63.0796 24.8092 63.0521 24.7817 62.997C24.7541 62.9419 24.7541 62.8593 24.7266 62.7492C24.6715 62.529 24.589 62.2261 24.5064 61.8407C24.3136 61.0422 24.0659 59.9134 23.763 58.5919L23.8181 58.6195C22.4965 58.9223 20.9548 59.2527 19.3029 59.6381C19.3029 59.6657 19.3855 59.5005 19.3579 59.5831V59.6106V59.6381L19.3855 59.7207L19.413 59.8859C19.4405 59.996 19.4681 60.0786 19.4681 60.1888C19.5231 60.3815 19.5507 60.6017 19.6057 60.7945C19.6883 61.1799 19.7709 61.5929 19.8535 61.9508C20.0187 62.7217 20.1839 63.4375 20.3215 64.0707L20.2665 64.0432C21.6155 63.7679 22.7443 63.5201 23.5427 63.3549C23.9282 63.2723 24.231 63.2172 24.4788 63.1622C24.589 63.1347 24.6715 63.1347 24.7266 63.1071C24.7817 63.0796 24.8092 63.0796 24.8092 63.0796C24.8092 63.0796 24.7817 63.0796 24.7266 63.1071C24.6715 63.1347 24.589 63.1347 24.4788 63.1622C24.2586 63.2172 23.9557 63.2998 23.5703 63.3824C22.7719 63.5752 21.6431 63.8229 20.294 64.1533H20.2389V64.0983C20.1013 63.4375 19.9361 62.7217 19.7709 61.9783C19.6883 61.5929 19.6057 61.2074 19.4956 60.822C19.4405 60.6293 19.413 60.409 19.3579 60.2163C19.3304 60.1062 19.3029 60.0236 19.3029 59.9134L19.2753 59.7483L19.2478 59.6657V59.6381V59.6106C19.2203 59.6657 19.3029 59.528 19.3029 59.528C20.9548 59.1701 22.4965 58.8122 23.8181 58.5369H23.8731V58.5919C24.176 59.941 24.3962 61.0698 24.589 61.8957C24.6715 62.2812 24.7266 62.584 24.7817 62.8043C24.8092 62.9144 24.8092 62.9695 24.8367 63.0521C24.8092 63.0521 24.8092 63.0796 24.8092 63.0796Z" fill="#1F2122"/>
<path d="M26.5553 70.9236C26.5553 70.9236 26.5553 70.896 26.5278 70.841C26.5002 70.7859 26.5002 70.7033 26.4727 70.5932C26.4176 70.3729 26.335 70.0701 26.2525 69.6847C26.0597 68.8862 25.8119 67.7574 25.5091 66.4359L25.5642 66.4635C24.2426 66.7663 22.7009 67.0967 21.049 67.4821C21.049 67.5097 21.1316 67.3445 21.104 67.4271V67.4546V67.4821L21.1316 67.5647L21.1591 67.7299C21.1866 67.84 21.2142 67.9226 21.2142 68.0328C21.2692 68.2255 21.2967 68.4457 21.3518 68.6385C21.4344 69.0239 21.517 69.4369 21.5996 69.7948C21.7648 70.5657 21.93 71.2815 22.0676 71.9147L22.0126 71.8597C23.3616 71.5843 24.4904 71.3366 25.2888 71.1714C25.6743 71.0888 25.9771 71.0337 26.2249 70.9786C26.335 70.9511 26.4176 70.9511 26.4727 70.9236C26.5002 70.9236 26.5278 70.9236 26.5553 70.9236C26.5553 70.9236 26.5278 70.9236 26.4727 70.9511C26.4176 70.9787 26.335 70.9786 26.2249 71.0062C26.0047 71.0612 25.7018 71.1438 25.3164 71.2264C24.518 71.4192 23.3892 71.6669 22.0401 71.9973H21.985V71.9423C21.8474 71.2815 21.6822 70.5657 21.517 69.8223C21.4344 69.4369 21.3518 69.0514 21.2417 68.666C21.1866 68.4733 21.1591 68.253 21.104 68.0603C21.0765 67.9502 21.049 67.8676 21.049 67.7574L21.0214 67.5923L20.9939 67.5097V67.4821V67.4546C20.9664 67.5097 21.049 67.372 21.049 67.372C22.7009 67.0141 24.2426 66.6562 25.5642 66.3809H25.6192V66.4359C25.9221 67.785 26.1423 68.9138 26.335 69.7397C26.4176 70.1252 26.4727 70.428 26.5278 70.6483C26.5553 70.7584 26.5553 70.8135 26.5828 70.8961C26.5278 70.8961 26.5553 70.9236 26.5553 70.9236Z" fill="#1F2122"/>
<path d="M18.7148 53.6356L19.1829 52.8923L20.587 53.6631L22.4041 50.9375L23.1199 51.4331L20.7797 54.8745L18.7148 53.6356Z" fill="#EE4D4A"/>
<path d="M20.375 61.2088L20.8706 60.4655L22.2747 61.2364L24.0642 58.5107L24.7801 59.0063L22.4399 62.4478L20.375 61.2088Z" fill="#EE4D4A"/>
<path d="M22.1484 68.9667L22.6165 68.2233L24.0481 68.9942L25.8377 66.2686L26.5535 66.7641L24.2133 70.2056L22.1484 68.9667Z" fill="#EE4D4A"/>
<path d="M42.7039 14.4073L21.3125 19.1738L22.2047 23.178L43.5962 18.4114L42.7039 14.4073Z" fill="#F7E39E"/>
<path d="M62.9141 79.6314L69.8245 116.111L76.1293 104.465L88.1056 111.486L75.4134 75.9421L62.9141 79.6314Z" fill="#EE4D4A"/>
<g opacity="0.3">
<g opacity="0.3">
<path opacity="0.3" d="M65.2285 91.8774C66.4949 92.1527 68.0092 91.6847 68.8902 90.7486C69.5234 90.0878 69.9364 89.2068 70.7348 88.7663C71.4506 88.3809 72.3317 88.4359 73.1025 88.6562C73.8734 88.8764 74.6168 89.2343 75.4152 89.4271C76.957 89.84 78.6639 89.5647 80.013 88.7388L78.0307 83.2049L68.7801 82.0486L64.375 87.3347L65.2285 91.8774Z" fill="#1F2122"/>
</g>
</g>
<path d="M63.9063 81.522L56.9959 118.001L50.6911 106.328L38.7148 113.376L51.4069 77.8328L63.9063 81.522Z" fill="#EE4D4A"/>
<g opacity="0.3">
<path opacity="0.3" d="M47.6211 88.4623C47.6211 88.4623 49.5758 90.0866 51.9436 89.3433C54.2838 88.5999 55.7429 88.4347 57.0094 89.3433C58.2759 90.2518 61.7173 93.1977 61.7173 93.1977L62.5157 88.9854L57.9179 82.6531L53.0999 83.6167L49.6584 83.9471L48.392 86.3699L47.6211 88.4623Z" fill="#1F2122"/>
</g>
<path d="M104.42 48.5679C104.42 51.1834 101.061 53.441 100.593 55.9189C100.097 58.4793 102.3 61.8382 101.336 64.1784C100.345 66.5737 96.3803 67.3721 94.9762 69.492C93.5445 71.6395 94.3154 75.604 92.4983 77.3936C90.6812 79.2107 86.7167 78.4398 84.5967 79.8715C82.4768 81.3031 81.6784 85.2401 79.2831 86.2313C76.9429 87.1949 73.5841 84.9923 71.0236 85.4879C68.5458 85.9835 66.2882 89.3148 63.6727 89.3148C61.0572 89.3148 58.7996 85.956 56.3217 85.4879C53.7613 84.9923 50.4024 87.1949 48.0622 86.2313C45.667 85.2401 44.8685 81.2756 42.7486 79.8715C40.6011 78.4398 36.6366 79.2107 34.847 77.3936C33.0299 75.5765 33.8008 71.6119 32.3691 69.492C30.9375 67.3721 27.0005 66.5737 26.0093 64.1784C25.0457 61.8382 27.2483 58.4793 26.7527 55.9189C26.2571 53.441 22.9258 51.1834 22.9258 48.5679C22.9258 45.9524 26.2846 43.6948 26.7527 41.217C27.2483 38.6565 25.0457 35.2977 26.0093 32.9575C27.0005 30.5622 30.965 29.7638 32.3691 27.6439C33.8008 25.4964 33.0299 21.5318 34.847 19.7423C36.6641 17.9252 40.6287 18.6961 42.7486 17.2644C44.8685 15.8328 45.667 11.8957 48.0622 10.9046C50.4024 9.94098 53.7613 12.1435 56.3217 11.6479C58.7996 11.1524 61.0572 7.82104 63.6727 7.82104C66.2882 7.82104 68.5458 11.1799 71.0236 11.6479C73.5841 12.1435 76.9429 9.94098 79.2831 10.9046C81.6784 11.8957 82.4768 15.8603 84.5967 17.2644C86.7442 18.6961 90.7088 17.9252 92.4983 19.7423C94.3154 21.5594 93.5445 25.5239 94.9762 27.6439C96.4078 29.7638 100.345 30.5622 101.336 32.9575C102.3 35.2977 100.097 38.6565 100.593 41.217C101.061 43.6948 104.42 45.9524 104.42 48.5679Z" fill="#EE4D4A"/>
<g opacity="0.2">
<g opacity="0.2">
<path opacity="0.2" d="M79.9936 63.3542L76.3594 66.3827C76.6347 66.658 81.4527 74.8625 84.4262 79.9558C84.4537 79.9283 84.5088 79.9008 84.5363 79.8733C86.491 78.5517 89.9876 79.0748 91.9423 77.7808L79.9936 63.3542Z" fill="#1F2122"/>
</g>
<g opacity="0.2">
<path opacity="0.2" d="M73.3337 69.1082L67.9375 70.9528L70.4979 85.6272C70.6631 85.5721 70.8283 85.517 70.9935 85.4895C73.554 84.9939 76.9128 87.1965 79.253 86.2329C79.5834 86.0952 79.8587 85.9025 80.134 85.6822L73.3337 69.1082Z" fill="#1F2122"/>
</g>
<g opacity="0.2">
<path opacity="0.2" d="M63.4482 89.3175L64.3017 70.128L59.6213 68.9441L56.1523 85.4631C56.2074 85.4631 56.2349 85.4631 56.29 85.4906C58.7128 85.9862 60.9153 89.1799 63.4482 89.3175Z" fill="#1F2122"/>
</g>
<g opacity="0.2">
<path opacity="0.2" d="M51.6971 66.905C51.6971 66.905 45.53 75.1921 42.2812 79.6247C42.4189 79.7073 42.5841 79.7899 42.7218 79.8725C44.8417 81.3041 45.6401 85.2411 48.0354 86.2323C48.1455 86.2873 48.2556 86.3149 48.3657 86.3424L56.9832 70.0161L51.6971 66.905Z" fill="#1F2122"/>
</g>
<g opacity="0.2">
<path opacity="0.2" d="M45.3556 60.2429L32.168 69.3008C32.223 69.3559 32.2781 69.4385 32.3056 69.4936C33.7373 71.641 32.9664 75.6056 34.7835 77.3952C34.9487 77.5603 35.1414 77.698 35.3341 77.8357C39.987 72.5771 48.3566 63.1613 48.6594 62.8309L45.3556 60.2429Z" fill="#1F2122"/>
</g>
<g opacity="0.2">
<path opacity="0.2" d="M42.3295 53.7722L26.7466 56.2776C26.9944 58.783 25.0121 61.9216 25.9482 64.1792C26.0033 64.3169 26.0859 64.4545 26.1409 64.5646C31.5922 61.839 42.9903 56.195 43.4583 56.1675L42.3295 53.7722Z" fill="#1F2122"/>
</g>
<g opacity="0.2">
<path opacity="0.2" d="M41.4747 45.1012L26.7452 40.8613C26.7452 40.999 26.7177 41.1091 26.6902 41.2468C26.1946 43.7246 22.8633 45.9822 22.8633 48.5977C22.8633 48.7629 22.8908 48.9556 22.9183 49.1208H40.8965L41.4747 45.1012Z" fill="#1F2122"/>
</g>
<g opacity="0.2">
<path opacity="0.2" d="M26.0312 32.8497C31.5376 35.7955 42.3025 41.7699 42.3025 41.7699L44.9455 36.7316L32.5012 27.3708C32.4461 27.481 32.3911 27.5636 32.336 27.6462C30.9319 29.7386 27.105 30.537 26.0312 32.8497Z" fill="#1F2122"/>
</g>
</g>
<path d="M88.6421 48.5705C88.6421 54.5999 86.4946 60.1338 82.943 64.4562C79.0886 69.1366 73.5272 72.4129 67.25 73.3214C66.0661 73.4866 64.8822 73.5692 63.6708 73.5692C62.4594 73.5692 61.248 73.4866 60.0642 73.3214C53.787 72.4129 48.2806 69.1917 44.3987 64.5388C40.8195 60.2164 38.6445 54.655 38.6445 48.598C38.6445 43.4496 40.1863 38.6866 42.8569 34.722C44.0132 32.9875 45.3898 31.3907 46.9316 30.0141C47.1243 29.8489 47.2895 29.6837 47.4822 29.5461L47.5097 29.5185C48.0328 29.078 48.5835 28.6375 49.1341 28.2521C49.2167 28.197 49.2993 28.142 49.3819 28.0869C51.5569 26.5727 53.9797 25.3888 56.5952 24.6454C58.8253 23.9847 61.193 23.6543 63.6158 23.6543C65.8734 23.6543 68.0484 23.9571 70.1408 24.5078C72.8389 25.2236 75.3443 26.4075 77.6019 27.9217C78.0974 28.2521 78.5655 28.61 79.0335 28.9679C79.2262 29.1056 79.3914 29.2432 79.5841 29.4084C81.236 30.785 82.6952 32.3543 83.9617 34.0888C86.9076 38.1084 88.6421 43.1192 88.6421 48.5705Z" fill="white"/>
<path d="M48.0116 15.6982C48.0116 15.6982 44.4325 27.8397 46.6075 29.0511C48.7825 30.2625 49.1679 29.0511 49.1679 29.0511L52.1413 16.7169L48.0116 15.6982Z" fill="#F0CA50"/>
<path d="M80.9114 27.9767C80.9114 27.9767 82.6459 13.3299 79.0668 13.4125C75.4877 13.4951 74.1937 28.7201 80.9114 27.9767Z" fill="#F0CA50"/>
<path d="M82.9467 64.4564C79.0923 69.1368 73.5309 72.4131 67.2536 73.3216H60.0679C53.7906 72.4131 48.2843 69.1919 44.4023 64.539C47.9815 60.9048 52.7169 57.9314 58.8565 56.8302C60.4808 56.5273 62.2429 56.3896 64.0875 56.3896C66.0973 56.3896 67.9695 56.5824 69.704 56.9403C75.4581 58.0415 79.753 60.9324 82.9467 64.4564Z" fill="#1F2122"/>
<path d="M46.3044 36.2368C48.8133 36.2368 50.8472 34.203 50.8472 31.6941C50.8472 29.1852 48.8133 27.1514 46.3044 27.1514C43.7956 27.1514 41.7617 29.1852 41.7617 31.6941C41.7617 34.203 43.7956 36.2368 46.3044 36.2368Z" fill="#CD8081"/>
<path d="M80.031 36.2368C82.5399 36.2368 84.5737 34.203 84.5737 31.6941C84.5737 29.1852 82.5399 27.1514 80.031 27.1514C77.5221 27.1514 75.4883 29.1852 75.4883 31.6941C75.4883 34.203 77.5221 36.2368 80.031 36.2368Z" fill="#CD8081"/>
<path d="M69.0483 48.2125L68.2774 38.1084L60.4034 39.1821L59.1094 53.9391C61.6974 53.6363 65.9372 52.4524 69.0483 48.2125Z" fill="#E5AB9A"/>
<path d="M47.5717 27.371C47.434 29.7938 47.5442 30.5096 47.7919 32.9324C48.315 37.6954 50.6002 41.8527 54.9226 44.1653C59.2727 46.478 65.1644 47.3039 69.7898 45.4043C73.3689 43.9175 76.122 41.302 77.5537 37.778C79.1781 33.7584 79.1781 28.5824 78.9578 24.2324C78.1594 8.09883 65.0268 8.34661 65.0268 8.34661C65.0268 8.34661 47.5166 6.97003 47.5717 27.371Z" fill="#EBC0B2"/>
<path d="M59.1055 53.9387L58.5273 60.4362C58.5273 60.4362 58.7476 63.6849 64.0061 64.2906C69.2647 64.8963 69.8704 59.4175 69.8704 59.4175L69.0169 48.1846C65.9334 52.452 61.6935 53.6358 59.1055 53.9387Z" fill="#EBC0B2"/>
<path d="M53.2145 36.0716C56.6661 36.0716 59.4642 33.2736 59.4642 29.822C59.4642 26.3703 56.6661 23.5723 53.2145 23.5723C49.7629 23.5723 46.9648 26.3703 46.9648 29.822C46.9648 33.2736 49.7629 36.0716 53.2145 36.0716Z" stroke="white" stroke-width="2.1104" stroke-miterlimit="10"/>
<path d="M73.3708 36.0716C76.8224 36.0716 79.6205 33.2736 79.6205 29.822C79.6205 26.3703 76.8224 23.5723 73.3708 23.5723C69.9192 23.5723 67.1211 26.3703 67.1211 29.822C67.1211 33.2736 69.9192 36.0716 73.3708 36.0716Z" stroke="white" stroke-width="2.1104" stroke-miterlimit="10"/>
<path d="M59.3828 29.4913C59.3828 29.4913 63.9255 25.8571 67.0917 29.8217" stroke="white" stroke-width="2.1104" stroke-miterlimit="10"/>
<path d="M77.9394 18.2308C78.0771 16.9919 78.1321 15.753 78.1597 14.5141C78.1872 12.6694 78.1872 10.6872 77.6641 8.89759C76.8381 6.17196 74.6081 5.18082 71.9375 4.87797C69.4046 4.60265 66.8166 4.9881 64.3938 5.64886C62.7144 6.08936 61.09 6.69506 59.4932 7.38335C52.39 10.4944 46.4982 10.3292 45.9201 8.2919C45.3419 11.3754 46.9387 12.7796 48.8109 12.9998C45.7824 12.8897 44.7913 11.0451 44.7913 11.0451C44.7913 11.0451 44.2682 17.2122 49.6368 16.9919C55.033 16.7717 68.3859 11.9811 71.5245 14.1837C74.6356 16.3862 74.6081 19.69 77.9394 18.2308Z" fill="#F0CA50"/>
<path d="M77.914 14.0751C77.8039 14.0201 78.8777 9.50488 80.034 9.50488C81.1903 9.50488 78.9602 12.9188 78.9602 12.9188C78.9602 12.9188 80.6122 10.7989 81.4932 11.3495C82.4017 11.8726 79.3182 14.7359 77.914 14.0751Z" fill="#F0CA50"/>
</svg>
