<svg width="85" height="80" viewBox="0 0 85 80" fill="none" xmlns="http://www.w3.org/2000/svg">
<path d="M14.5279 79.9999H0V55.26H14.4509L14.5279 79.9999Z" fill="#1C427B"/>
<path d="M78.535 62.5435H55.2595C55.2595 59.345 52.6391 56.7246 49.4406 56.7246H34.4888C34.4503 56.7246 34.4117 56.6861 34.3732 56.6861C28.747 52.1388 20.5004 53.0637 15.9532 58.6899C15.4137 59.3835 14.9127 60.1157 14.5273 60.8864V80.0001H39.2672L84.3539 69.8267V68.3623C84.3539 65.1639 81.772 62.5435 78.535 62.5435Z" fill="#EEB098"/>
<path opacity="0.6" d="M46.5504 50.9055C56.1914 50.9055 64.007 43.0899 64.007 33.4489C64.007 23.8078 56.1914 15.9922 46.5504 15.9922C36.9094 15.9922 29.0938 23.8078 29.0938 33.4489C29.0938 43.0899 36.9094 50.9055 46.5504 50.9055Z" fill="#F1CA50"/>
<path d="M46.5498 52.3699C56.993 52.3699 65.4323 43.8921 65.4708 33.449V5.81892H62.5421V23.3912C61.0392 21.0405 59.0739 19.0366 56.7232 17.5337V0H53.7945V15.9923C51.9448 15.2216 49.9795 14.7592 47.9756 14.605V5.81892H45.0469V14.605C43.0431 14.7592 41.0778 15.2216 39.2281 15.9923V2.89017H36.2993V17.4952C33.9487 18.9981 31.9834 21.002 30.4805 23.3526V5.78035H27.5518V33.4104C27.6288 43.8921 36.1067 52.3699 46.5498 52.3699ZM46.5498 17.4567C55.3745 17.4567 62.5421 24.6243 62.5421 33.449C62.5421 42.2736 55.3745 49.4412 46.5498 49.4412C37.7252 49.4412 30.519 42.3122 30.519 33.449C30.5575 24.6243 37.7252 17.4567 46.5498 17.4567Z" fill="#F1CA50"/>
<path d="M43.0052 39.345H45.3558V41.6957H47.7065V39.345H48.9011C50.2113 39.345 51.2518 38.3045 51.2518 36.9943V34.6437C51.2518 33.3335 50.2113 32.293 48.9011 32.293H44.1998V29.9423H48.9011V31.1369H51.2518V28.7863C51.2518 28.1312 50.7123 27.5917 50.0572 27.5917H47.7065V25.241H45.3558V27.5917H44.1612C42.851 27.5917 41.8105 28.6321 41.8105 29.9423V32.293C41.8105 33.6032 42.851 34.6437 44.1612 34.6437H48.8626V36.9943H44.1612V35.7997H41.8105V38.1504C41.8491 38.8055 42.35 39.345 43.0052 39.345Z" fill="white"/>
</svg>
