<svg width="94" height="147" viewBox="0 0 94 147" fill="none" xmlns="http://www.w3.org/2000/svg">
<path d="M66.0513 90.9816C43.4208 92.3615 24.7461 78.1026 16.2827 62.0957C8.73925 47.7447 10.3031 33.7616 10.8551 29.3459C12.2102 18.6226 16.4732 8.47434 23.1822 0L33.1176 10.4873C30.6337 13.707 24.1022 22.9064 24.0102 35.8775C23.9182 37.2574 24.1022 57.22 40.3851 68.9952C46.1348 73.2587 52.9863 75.7847 60.1276 76.2738C67.269 76.763 74.4008 75.1947 80.6782 71.755C96.1332 63.3836 100.273 46.6407 101.009 43.421H114.9C114.1 51.1035 111.619 58.5157 107.632 65.1314C106.252 67.4313 92.4534 89.3258 66.0513 90.9816Z" fill="#5C9EDC"/>
<path d="M34.1296 43.2372H0.18397L0 28.7021H34.1296V43.2372Z" fill="#5C9EDC"/>
<path d="M45.3605 112.33C45.3605 112.33 50.5841 123.422 45.1047 129.698C45.1047 129.698 53.8019 125.53 62.0459 130.715C62.0459 130.715 58.09 123.688 62.0785 113.921C62.0785 113.921 56.9527 118.946 45.3605 112.33Z" fill="#F0CA50"/>
<path d="M14.4803 100.701C14.4803 100.701 10.5769 105.721 6.54204 104.573C7.68206 105.534 8.57637 106.753 9.1508 108.13C9.72523 109.506 9.96324 110.999 9.84502 112.486C10.8036 111.374 11.9824 110.472 13.307 109.839C14.6315 109.205 16.0731 108.853 17.5405 108.805C17.5405 108.805 14.0463 107.547 14.4803 100.701Z" fill="#EE4D4A"/>
</svg>
