<svg width="243" height="504" viewBox="0 0 243 504" fill="none" xmlns="http://www.w3.org/2000/svg">
<g opacity="0.2">
<path d="M-260 252C-260 113.377 -147.623 1.00002 -9.00002 1.00001C129.623 1 242 113.377 242 252C242 390.624 129.623 503 -9 503C-147.623 503 -260 390.624 -260 252Z" stroke="white" stroke-miterlimit="10"/>
<path d="M-207.618 252.001C-207.617 291.605 -195.906 330.317 -173.968 363.235C-152.029 396.154 -120.85 421.797 -84.3799 436.917C-47.9095 452.037 -7.78854 455.954 30.9015 448.171C69.5914 440.388 105.11 421.256 132.958 393.198C160.806 365.14 179.731 329.419 187.335 290.558C194.94 251.697 190.882 211.445 175.676 174.9C160.47 138.355 134.8 107.162 101.917 85.2708C69.0334 63.3798 30.4167 51.776 -9.04242 51.9289C-61.7785 52.1332 -112.285 73.3023 -149.503 110.801C-186.721 148.3 -207.618 199.072 -207.618 252.001V252.001Z" stroke="white" stroke-miterlimit="10"/>
<path d="M-155.233 252.002C-155.233 281.245 -146.594 309.83 -130.411 334.133C-114.229 358.437 -91.2309 377.366 -64.3324 388.522C-37.4339 399.677 -7.84553 402.556 20.683 396.794C49.2114 391.033 75.3958 376.89 95.9177 356.158C116.44 335.425 130.375 309.037 135.959 280.337C141.542 251.638 138.522 221.918 127.281 194.945C116.039 167.972 97.0833 144.96 72.8146 128.825C48.546 112.69 20.0571 104.159 -9.04138 104.312C-28.3045 104.311 -47.3777 108.137 -65.1649 115.569C-82.952 123 -99.1022 133.891 -112.687 147.616C-126.273 161.34 -137.025 177.627 -144.327 195.542C-151.628 213.456 -155.335 232.643 -155.233 252.002V252.002Z" stroke="white" stroke-miterlimit="10"/>
<path d="M-102.85 252.005C-102.849 270.887 -97.2823 289.344 -86.8556 305.034C-76.4288 320.724 -61.612 332.938 -44.2853 340.129C-26.9585 347.319 -7.90277 349.16 10.4643 345.42C28.8313 341.679 45.6819 332.525 58.8778 319.118C72.0737 305.711 81.02 288.657 84.582 270.119C88.1441 251.58 86.1612 232.393 78.8848 214.992C71.6083 197.591 59.3664 182.76 43.7123 172.381C28.0582 162.003 9.69727 156.544 -9.04052 156.697C-21.4247 156.697 -33.6864 159.167 -45.1183 163.967C-56.5502 168.766 -66.9258 175.798 -75.6469 184.659C-84.368 193.519 -91.2619 204.032 -95.9307 215.59C-100.6 227.149 -102.951 239.525 -102.85 252.005Z" stroke="white" stroke-miterlimit="10"/>
</g>
</svg>
