<svg width="190" height="347" viewBox="0 0 190 347" fill="none" xmlns="http://www.w3.org/2000/svg">
<g opacity="0.2">
<path d="M0.999991 173.5C0.999987 78.2309 78.2309 1.00001 173.5 1.00001C268.769 1 346 78.2309 346 173.5C346 268.769 268.769 346 173.5 346C78.2309 346 0.999996 268.769 0.999991 173.5Z" stroke="white" stroke-miterlimit="10"/>
<path d="M37 173.501C37.0002 200.719 45.0486 227.324 60.1259 249.947C75.2032 272.57 96.6309 290.193 121.695 300.584C146.76 310.976 174.333 313.667 200.922 308.319C227.512 302.97 251.922 289.822 271.061 270.539C290.199 251.256 303.205 226.706 308.432 199.999C313.658 173.292 310.869 145.629 300.419 120.513C289.969 95.3977 272.327 73.96 249.728 58.9154C227.129 43.8707 200.589 35.896 173.471 36.001C137.228 36.1415 102.517 50.69 76.9391 76.461C51.3609 102.232 36.9997 137.126 37 173.501V173.501Z" stroke="white" stroke-miterlimit="10"/>
<path d="M73.0014 173.501C73.0017 193.599 78.9388 213.244 90.0603 229.947C101.182 246.65 116.987 259.658 135.473 267.325C153.959 274.991 174.294 276.97 193.9 273.01C213.506 269.051 231.501 259.331 245.605 245.083C259.709 230.834 269.286 212.699 273.123 192.975C276.96 173.251 274.885 152.827 267.159 134.289C259.434 115.752 246.406 99.937 229.727 88.8482C213.049 77.7594 193.47 71.8962 173.472 72.0014C160.233 72.0012 147.125 74.6304 134.901 79.7378C122.677 84.8451 111.577 92.3299 102.241 101.762C92.9045 111.194 85.5148 122.388 80.4969 134.699C75.479 147.011 72.9317 160.197 73.0014 173.501V173.501Z" stroke="white" stroke-miterlimit="10"/>
<path d="M109.002 173.502C109.003 186.479 112.828 199.164 119.994 209.947C127.16 220.729 137.343 229.124 149.251 234.066C161.158 239.007 174.254 240.273 186.877 237.702C199.5 235.131 211.081 228.84 220.15 219.626C229.218 210.412 235.367 198.692 237.815 185.951C240.263 173.21 238.9 160.024 233.899 148.065C228.899 136.106 220.485 125.914 209.727 118.781C198.969 111.648 186.35 107.897 173.473 108.002C164.962 108.002 156.535 109.7 148.678 112.998C140.822 116.296 133.691 121.129 127.697 127.219C121.704 133.308 116.966 140.533 113.757 148.477C110.548 156.42 108.932 164.926 109.002 173.502Z" stroke="white" stroke-miterlimit="10"/>
</g>
<path d="M126.367 58.0735C126.367 58.0735 119.206 46.816 110.376 48.2396C110.376 48.2396 119.163 42.6103 119.131 32.0155C119.131 32.0155 123.413 39.7507 134.739 41.7298C134.739 41.7298 127.024 43.6078 126.367 58.0735Z" fill="#8EC6D8"/>
<path d="M49.615 217C49.615 217 31.8967 201.846 18 208.894C18 208.894 29.6385 194.797 24.0798 177C24.0798 177 35.1972 187.749 55 185.106C55 185.106 43.1878 192.33 49.615 217Z" fill="white"/>
<path d="M92.5367 19.3148L93.6855 29.8516L83.1488 31.0004L81.9999 20.4636L92.5367 19.3148Z" fill="#F7E39E"/>
</svg>
