<svg width="71" height="61" viewBox="0 0 71 61" fill="none" xmlns="http://www.w3.org/2000/svg">
<path opacity="0.05" fill-rule="evenodd" clip-rule="evenodd" d="M70.6886 9.37484C60.1011 14.5809 54.8074 20.698 54.8074 27.7262C59.3201 28.2469 63.0517 30.0907 66.0024 33.2577C68.953 36.4247 70.4283 40.0907 70.4283 44.2555C70.4283 48.6807 68.9964 52.4117 66.1325 55.4486C63.2687 58.4855 59.6672 60.0039 55.3281 60.0039C50.4682 60.0039 46.2593 58.03 42.7011 54.082C39.143 50.134 37.364 45.3402 37.364 39.7002C37.364 22.7804 46.8232 9.54842 65.742 0.00390625L70.6886 9.37484ZM33.3246 9.37484C22.6503 14.5809 17.3132 20.698 17.3132 27.7262C21.9127 28.2469 25.6877 30.0907 28.6384 33.2577C31.589 36.4247 33.0643 40.0907 33.0643 44.2555C33.0643 48.6807 31.6107 52.4117 28.7034 55.4486C25.7962 58.4855 22.1731 60.0039 17.8339 60.0039C12.974 60.0039 8.78679 58.03 5.27206 54.082C1.75734 50.134 0 45.3402 0 39.7002C0 22.7804 9.41585 9.54842 28.2478 0.00390625L33.3246 9.37484Z" fill="#545A5C"/>
</svg>
