<svg width="128" height="129" viewBox="0 0 128 129" fill="none" xmlns="http://www.w3.org/2000/svg">
<g clip-path="url(#clip0_2732_8112)">
<path fill-rule="evenodd" clip-rule="evenodd" d="M106.583 54.3187L110.608 62.3354L117.533 64.6206V41.9852L113.824 38.2029L106.583 41.9852V54.3187Z" fill="#5C9EDC"/>
<path fill-rule="evenodd" clip-rule="evenodd" d="M106.583 41.986H117.533H119.316C120.279 41.986 121.064 41.1948 121.064 40.23V35.7323C121.064 34.7675 120.279 33.9761 119.316 33.9761H104.8C103.838 33.9761 103.053 34.7673 103.053 35.7323V40.2298C103.053 41.1946 103.838 41.9858 104.8 41.9858H106.583V41.986Z" fill="#1C427B"/>
<path fill-rule="evenodd" clip-rule="evenodd" d="M116.115 123.058C117.609 123.058 118.835 121.822 118.835 120.316V76.633H125.662C127.01 76.6484 127.946 76.1175 127.967 75.27V75.2138C127.957 74.734 127.653 74.152 126.974 73.5139L117.533 64.6211L86.1962 35.1245C85.0819 34.073 84.3222 33.5522 83.5675 33.5522C82.8078 33.5522 82.0531 34.073 80.9389 35.1245L40.1557 73.5139C39.477 74.152 39.1731 74.734 39.1631 75.2138V75.27C39.1834 76.1175 40.1204 76.6484 41.4677 76.633H48.3004V120.316C48.3004 121.822 49.5211 123.058 51.0152 123.058H116.115Z" fill="#F0CA50"/>
<path fill-rule="evenodd" clip-rule="evenodd" d="M11.3818 84.0542H16.3428V100.054H11.3818C9.73793 100.054 8.40527 98.7111 8.40527 97.0542V87.0542C8.40527 85.3973 9.73793 84.0542 11.3818 84.0542ZM19.3193 81.0542V103.054H11.3818C8.09402 103.054 5.42871 100.368 5.42871 97.0542V87.0542C5.42871 83.7405 8.09402 81.0542 11.3818 81.0542H19.3193Z" fill="#5C9EDC"/>
<path d="M39.2001 66.5864C39.2001 66.5864 29.2617 65.851 33.8163 57.4059C37.4736 50.6264 36.6388 46.6486 31.9593 43.0542C31.9593 43.0542 47.2871 46.9891 38.3482 59.1659C35.0685 64.4716 39.2001 66.5864 39.2001 66.5864Z" fill="#EE4D4A"/>
<path d="M32.502 65.9114C32.502 65.9114 24.5399 64.2201 28.873 57.7668C30.4461 54.968 28.2767 53.9692 28.2767 53.9692C28.2767 53.9692 33.4021 54.1324 31.2384 58.5709C29.5062 62.1396 30.0202 64.1657 32.502 65.9114Z" fill="#EE4D4A"/>
<path d="M54.0459 70.0542H14.3584V111.054C14.3584 117.682 19.731 123.054 26.3584 123.054H42.0459C48.6733 123.054 54.0459 117.682 54.0459 111.054V70.0542Z" fill="#5C9EDC"/>
</g>
<defs>
<clipPath id="clip0_2732_8112">
<rect width="127" height="128" fill="white" transform="translate(0.963867 0.0541992)"/>
</clipPath>
</defs>
</svg>
