<svg width="80" height="80" viewBox="0 0 80 80" fill="none" xmlns="http://www.w3.org/2000/svg">
<path d="M79.2926 30.7789L71.3197 2.60048C70.5187 -0.202792 66.9145 -0.930902 65.0942 1.36269L61.1259 6.38673C54.8277 2.38205 47.51 0.270502 39.8647 0.270502C29.2341 0.270502 19.2225 4.4208 11.6864 11.9569C4.1503 19.4929 0 29.5047 0 40.1353C0 50.7659 4.1503 60.7775 11.6864 68.3136C19.2225 75.8497 29.2341 80 39.8647 80C48.311 80 56.3567 77.3423 63.0191 72.5731C68.9897 68.3136 68.8076 59.3941 62.6914 55.3166L62.473 55.171C58.8688 52.7682 54.136 52.9138 50.6046 55.3894C47.51 57.5738 43.7602 58.8116 39.8283 58.8116C29.5982 58.8116 21.2976 50.5838 21.152 40.3901C21.0064 30.0507 29.489 21.4589 39.8283 21.4589C42.6316 21.4589 45.3257 22.0778 47.8013 23.2428L43.7602 28.376C41.9763 30.6696 43.5054 34.019 46.4179 34.1282L75.6884 35.3296C78.164 35.4024 79.9479 33.1089 79.2926 30.7789Z" fill="#F1CA50"/>
</svg>
