<svg width="93" height="96" viewBox="0 0 93 96" fill="none" xmlns="http://www.w3.org/2000/svg">
<g clip-path="url(#clip0_1855_17506)">
<path d="M61.2305 4.64848C61.2305 3.51014 62.0722 2.56152 63.1322 2.56152C64.1923 2.56152 65.034 3.47852 65.034 4.64848C65.034 5.78682 64.1923 6.73544 63.1322 6.73544C62.1034 6.73544 61.2305 5.78682 61.2305 4.64848Z" fill="white"/>
<path d="M67.2461 4.64848C67.2461 3.51014 68.0879 2.56152 69.1479 2.56152C70.2079 2.56152 71.0496 3.47852 71.0496 4.64848C71.0496 5.78682 70.2079 6.73544 69.1479 6.73544C68.0879 6.73544 67.2461 5.78682 67.2461 4.64848Z" fill="white"/>
<path d="M75.0715 8.88574V92.7751C75.0715 94.5774 73.7621 96.0004 72.1409 96.0004H15.3994C13.7782 96.0004 12.4688 94.5458 12.4688 92.7751V8.88574H75.0715Z" fill="#F7E39E"/>
<path d="M72.1096 0H15.3681C13.7469 0 12.4375 1.45455 12.4375 3.2253V8.85375H75.0714V3.2253C75.0714 1.45455 73.7308 0 72.1096 0Z" fill="#163459"/>
<path d="M64.6584 5.12211C64.6584 6.26045 63.7543 7.20907 62.632 7.20907C61.5096 7.20907 60.6055 6.26045 60.6055 5.12211C60.6055 3.98377 61.5096 3.03516 62.632 3.03516C63.7543 3.03516 64.6584 3.95215 64.6584 5.12211Z" fill="#F0CA50"/>
<path d="M71.0178 5.12211C71.0178 6.26045 70.1137 7.20907 68.9913 7.20907C67.869 7.20907 66.9648 6.26045 66.9648 5.12211C66.9648 3.98377 67.869 3.03516 68.9913 3.03516C70.1137 3.03516 71.0178 3.95215 71.0178 5.12211Z" fill="#EE4D4A"/>
<path d="M72.1113 18.5615H49.6641V21.2493H72.1113V18.5615Z" fill="white"/>
<path d="M72.1423 23.9375H54.5898V26.5936H72.1423V23.9375Z" fill="white"/>
<path d="M72.1079 74.3398H49.8789V77.0276H72.1079V74.3398Z" fill="white"/>
<path d="M72.1079 79.7158H49.8789V82.4036H72.1079V79.7158Z" fill="white"/>
<path d="M37.9723 38.5773H16.2422V41.2651H37.9723V38.5773Z" fill="white"/>
<path d="M34.6676 43.9533H16.2422V46.5462H34.6676V43.9533Z" fill="white"/>
<path d="M37.9723 49.6133H16.2422V52.301H37.9723V49.6133Z" fill="white"/>
<path d="M37.9723 54.9893H16.2422V57.677H37.9723V54.9893Z" fill="white"/>
<path d="M49.3842 37.0594H91.9715C92.5638 37.0594 93.0315 37.5337 93.0315 38.1345V53.8499C93.0315 54.4507 92.5638 54.925 91.9715 54.925H56.1807C55.8689 54.925 55.5571 55.0831 55.3701 55.3044L51.13 60.6167C50.8806 60.9329 50.413 60.7432 50.413 60.3637V55.9685C50.413 55.3677 49.9453 54.8934 49.353 54.8934C48.7606 54.8934 48.293 54.419 48.293 53.8183V38.1028C48.3241 37.5337 48.7918 37.0594 49.3842 37.0594Z" fill="#5C9EDC"/>
<path d="M66.7182 45.2174L67.3105 46.5139L68.6511 46.7352L67.6847 47.7787L67.9029 49.2333L66.7182 48.5376L65.5335 49.2333L65.7829 47.7787L64.8164 46.7352L66.1258 46.5139L66.7182 45.2174Z" fill="#F0CA50"/>
<path d="M72.1126 45.2176L72.705 46.514L74.0144 46.7353L73.0479 47.7788L73.2974 49.2334L72.1126 48.5377L70.9279 49.2334L71.1462 47.7788L70.1797 46.7353L71.5203 46.514L72.1126 45.2176Z" fill="#F0CA50"/>
<path d="M77.4759 45.2176L78.0683 46.514L79.3777 46.7353L78.4424 47.7788L78.6606 49.2334L77.4759 48.5377L76.2912 49.2334L76.5094 47.7788L75.543 46.7353L76.8836 46.514L77.4759 45.2176Z" fill="#F0CA50"/>
<path d="M82.8353 45.2176L83.4277 46.514L84.7682 46.7353L83.8018 47.7788L84.02 49.2334L82.8353 48.5377L81.6506 49.2334L81.8688 47.7788L80.9023 46.7353L82.2429 46.514L82.8353 45.2176Z" fill="#F0CA50"/>
<path d="M88.1987 45.2174L88.791 46.5139L90.1316 46.7352L89.1651 47.7787L89.3834 49.2333L88.1987 48.5376L87.0139 49.2333L87.2322 47.7787L86.2969 46.7352L87.6063 46.5139L88.1987 45.2174Z" fill="white"/>
<path d="M78.4099 41.3282H65.5339C65.2533 41.3282 65.0039 41.0752 65.0039 40.7906V40.095C65.0039 39.8104 65.2533 39.5574 65.5339 39.5574H78.4099C78.6905 39.5574 78.9399 39.8104 78.9399 40.095V40.7906C78.9399 41.0752 78.6905 41.3282 78.4099 41.3282Z" fill="white"/>
<path d="M63.1699 47.8232C63.9678 44.4255 61.899 41.0151 58.5489 40.2058C55.1989 39.3966 51.8364 41.4949 51.0385 44.8926C50.2406 48.2903 52.3095 51.7007 55.6595 52.51C59.0095 53.3193 62.372 51.2209 63.1699 47.8232Z" fill="white"/>
<path d="M43.8348 13.1541H1.24751C0.65515 13.1541 0.1875 13.6285 0.1875 14.2292V29.9447C0.218677 30.5138 0.686327 30.9881 1.24751 30.9881H37.0071C37.3189 30.9881 37.6307 31.1462 37.8177 31.3676L42.0889 36.6798C42.3384 36.996 42.806 36.8063 42.806 36.4269V32.0316C42.806 31.4308 43.2737 30.9565 43.866 30.9565C44.4584 30.9565 44.926 30.4822 44.926 29.8814V14.2292C44.8948 13.6285 44.4272 13.1541 43.8348 13.1541Z" fill="#5C9EDC"/>
<path d="M18.3665 21.1854L18.9589 22.5135L20.2683 22.7348L19.3018 23.7467L19.5513 25.2012L18.3665 24.5372L17.1818 25.2012L17.4001 23.7467L16.4336 22.7348L17.7742 22.5135L18.3665 21.1854Z" fill="#F0CA50"/>
<path d="M23.7298 21.1854L24.3222 22.5135L25.6316 22.7348L24.6963 23.7467L24.9145 25.2012L23.7298 24.5372L22.5451 25.2012L22.7634 23.7467L21.7969 22.7348L23.1375 22.5135L23.7298 21.1854Z" fill="#F0CA50"/>
<path d="M29.0931 21.1854L29.6855 22.5135L31.0261 22.7348L30.0596 23.7467L30.2778 25.2012L29.0931 24.5372L27.9084 25.2012L28.1266 23.7467L27.1602 22.7348L28.5008 22.5135L29.0931 21.1854Z" fill="#F0CA50"/>
<path d="M34.4526 21.1854L35.0449 22.5135L36.3855 22.7348L35.419 23.7467L35.6373 25.2012L34.4526 24.5372L33.2678 25.2012L33.4861 23.7467L32.5508 22.7348L33.8602 22.5135L34.4526 21.1854Z" fill="#F0CA50"/>
<path d="M39.8158 21.1854L40.4082 22.5135L41.7488 22.7348L40.7823 23.7467L41.0006 25.2012L39.8158 24.5372L38.6311 25.2012L38.8805 23.7467L37.9141 22.7348L39.2235 22.5135L39.8158 21.1854Z" fill="white"/>
<path d="M30.0271 17.4229H17.1511C16.8705 17.4229 16.6211 17.17 16.6211 16.8854V16.1897C16.6211 15.9052 16.8705 15.6522 17.1511 15.6522H30.0271C30.3077 15.6522 30.5571 15.9052 30.5571 16.1897V16.8854C30.5571 17.17 30.3077 17.4229 30.0271 17.4229Z" fill="white"/>
<path d="M8.95018 28.5846C12.3939 28.5846 15.1855 25.7532 15.1855 22.2605C15.1855 18.7678 12.3939 15.9364 8.95018 15.9364C5.5065 15.9364 2.71484 18.7678 2.71484 22.2605C2.71484 25.7532 5.5065 28.5846 8.95018 28.5846Z" fill="white"/>
<path d="M43.6162 63.1151H1.06001C0.46765 63.1151 0 63.5894 0 64.1902V79.9056C0 80.5064 0.46765 80.9807 1.06001 80.9807H36.8196C37.1314 80.9807 37.4432 81.1388 37.6302 81.3601L41.8703 86.6724C42.1197 86.9886 42.5873 86.7989 42.5873 86.4194V82.0242C42.5873 81.4234 43.055 80.9491 43.6473 80.9491C44.2397 80.9491 44.7073 80.4748 44.7073 79.874V64.1902C44.6762 63.5894 44.2085 63.1151 43.6162 63.1151Z" fill="#5C9EDC"/>
<path d="M8.76268 78.2614C12.2064 78.2614 14.998 75.4299 14.998 71.9372C14.998 68.4445 12.2064 65.6131 8.76268 65.6131C5.319 65.6131 2.52734 68.4445 2.52734 71.9372C2.52734 75.4299 5.319 78.2614 8.76268 78.2614Z" fill="white"/>
<path d="M18.4565 71.779L19.0488 73.1071L20.3894 73.3284L19.4229 74.3403L19.6412 75.7948L18.4565 75.1308L17.2718 75.7948L17.49 74.3403L16.5547 73.3284L17.8641 73.1071L18.4565 71.779Z" fill="#F0CA50"/>
<path d="M23.8197 71.7791L24.4121 73.1072L25.7527 73.3285L24.7862 74.3404L25.0045 75.795L23.8197 75.1309L22.635 75.795L22.8844 74.3404L21.918 73.3285L23.2274 73.1072L23.8197 71.7791Z" fill="#F0CA50"/>
<path d="M29.183 71.7791L29.8066 73.1072L31.116 73.3285L30.1495 74.3404L30.3989 75.795L29.183 75.1309L27.9983 75.795L28.2477 74.3404L27.2812 73.3285L28.5907 73.1072L29.183 71.7791Z" fill="#F0CA50"/>
<path d="M34.5736 71.7791L35.1659 73.1072L36.4754 73.3285L35.5089 74.3404L35.7583 75.795L34.5736 75.1309L33.3889 75.795L33.6071 74.3404L32.6406 73.3285L33.9812 73.1072L34.5736 71.7791Z" fill="#F0CA50"/>
<path d="M39.9369 71.7791L40.5292 73.1072L41.8386 73.3285L40.9033 74.3404L41.1216 75.795L39.9369 75.1309L38.7521 75.795L38.9704 74.3404L38.0039 73.3285L39.3445 73.1072L39.9369 71.7791Z" fill="white"/>
<path d="M30.1169 67.2257H17.2409C16.9604 67.2257 16.7109 66.9727 16.7109 66.6881V65.9925C16.7109 65.7079 16.9604 65.4549 17.2409 65.4549H30.1169C30.3975 65.4549 30.6469 65.7079 30.6469 65.9925V66.6881C30.6469 67.0043 30.4287 67.2257 30.1169 67.2257Z" fill="white"/>
</g>
<defs>
<clipPath id="clip0_1855_17506">
<rect width="93" height="96" fill="white"/>
</clipPath>
</defs>
</svg>
