<svg width="115" height="166" viewBox="0 0 115 166" fill="none" xmlns="http://www.w3.org/2000/svg">
<path d="M22.6592 89.9033L22.6592 143.966" stroke="#EE4D4A" stroke-width="6" stroke-linecap="round" stroke-linejoin="round"/>
<path d="M43.0381 123.947L22.6596 146.723" stroke="#EE4D4A" stroke-width="6" stroke-linecap="round" stroke-linejoin="round"/>
<path d="M2.99995 123.946L22.6592 146.722" stroke="#EE4D4A" stroke-width="6" stroke-linecap="round" stroke-linejoin="round"/>
<g opacity="0.05">
<path opacity="0.64" d="M114.2 130.466C114.2 132.308 112.707 133.801 110.865 133.801C109.023 133.801 107.53 132.308 107.53 130.466C107.53 128.625 109.023 127.132 110.865 127.132C112.707 127.132 114.2 128.625 114.2 130.466Z" fill="black"/>
<path opacity="0.64" d="M101.899 130.466C101.899 132.308 100.406 133.801 98.5641 133.801C96.7225 133.801 95.2295 132.308 95.2295 130.466C95.2295 128.625 96.7225 127.132 98.5641 127.132C100.406 127.132 101.899 128.625 101.899 130.466Z" fill="black"/>
<path opacity="0.64" d="M89.6057 130.466C89.6057 132.308 88.1127 133.801 86.2711 133.801C84.4294 133.801 82.9365 132.308 82.9365 130.466C82.9365 128.625 84.4294 127.132 86.2711 127.132C88.1127 127.132 89.6057 128.625 89.6057 130.466Z" fill="black"/>
<path opacity="0.64" d="M77.2034 130.466C77.2034 132.308 75.7104 133.801 73.8688 133.801C72.0271 133.801 70.5342 132.308 70.5342 130.466C70.5342 128.625 72.0271 127.132 73.8688 127.132C75.7104 127.132 77.2034 128.625 77.2034 130.466Z" fill="black"/>
<path opacity="0.64" d="M114.196 141.201C114.196 143.042 112.703 144.535 110.861 144.535C109.019 144.535 107.526 143.042 107.526 141.201C107.526 139.359 109.019 137.866 110.861 137.866C112.703 137.866 114.196 139.359 114.196 141.201Z" fill="black"/>
<path opacity="0.64" d="M101.899 141.201C101.899 143.042 100.406 144.535 98.5641 144.535C96.7225 144.535 95.2295 143.042 95.2295 141.201C95.2295 139.359 96.7225 137.866 98.5641 137.866C100.406 137.866 101.899 139.359 101.899 141.201Z" fill="black"/>
<path opacity="0.64" d="M89.6018 141.201C89.6018 143.042 88.1088 144.535 86.2672 144.535C84.4255 144.535 82.9326 143.042 82.9326 141.201C82.9326 139.359 84.4255 137.866 86.2672 137.866C88.1088 137.866 89.6018 139.359 89.6018 141.201Z" fill="black"/>
<path opacity="0.64" d="M77.1995 141.201C77.1995 143.042 75.7065 144.535 73.8649 144.535C72.0232 144.535 70.5303 143.042 70.5303 141.201C70.5303 139.359 72.0232 137.866 73.8649 137.866C75.7065 137.866 77.1995 139.359 77.1995 141.201Z" fill="black"/>
<path opacity="0.64" d="M114.196 151.932C114.196 153.774 112.703 155.267 110.861 155.267C109.019 155.267 107.526 153.774 107.526 151.932C107.526 150.091 109.019 148.598 110.861 148.598C112.703 148.598 114.196 150.091 114.196 151.932Z" fill="black"/>
<path opacity="0.64" d="M101.899 151.932C101.899 153.774 100.406 155.267 98.5641 155.267C96.7225 155.267 95.2295 153.774 95.2295 151.932C95.2295 150.091 96.7225 148.598 98.5641 148.598C100.406 148.598 101.899 150.091 101.899 151.932Z" fill="black"/>
<path opacity="0.64" d="M89.6018 151.932C89.6018 153.774 88.1088 155.267 86.2672 155.267C84.4255 155.267 82.9326 153.774 82.9326 151.932C82.9326 150.091 84.4255 148.598 86.2672 148.598C88.1088 148.598 89.6018 150.091 89.6018 151.932Z" fill="black"/>
<path opacity="0.64" d="M77.1995 151.932C77.1995 153.774 75.7065 155.267 73.8649 155.267C72.0232 155.267 70.5303 153.774 70.5303 151.932C70.5303 150.091 72.0232 148.598 73.8649 148.598C75.7065 148.598 77.1995 150.091 77.1995 151.932Z" fill="black"/>
<path opacity="0.64" d="M114.196 162.665C114.196 164.506 112.703 165.999 110.861 165.999C109.019 165.999 107.526 164.506 107.526 162.665C107.526 160.823 109.019 159.33 110.861 159.33C112.703 159.33 114.196 160.823 114.196 162.665Z" fill="black"/>
<path opacity="0.64" d="M101.899 162.665C101.899 164.506 100.406 165.999 98.5641 165.999C96.7225 165.999 95.2295 164.506 95.2295 162.665C95.2295 160.823 96.7225 159.33 98.5641 159.33C100.406 159.33 101.899 160.823 101.899 162.665Z" fill="black"/>
<path opacity="0.64" d="M89.6018 162.665C89.6018 164.506 88.1088 165.999 86.2672 165.999C84.4255 165.999 82.9326 164.506 82.9326 162.665C82.9326 160.823 84.4255 159.33 86.2672 159.33C88.1088 159.33 89.6018 160.823 89.6018 162.665Z" fill="black"/>
<path opacity="0.64" d="M77.1995 162.665C77.1995 164.506 75.7065 165.999 73.8649 165.999C72.0232 165.999 70.5303 164.506 70.5303 162.665C70.5303 160.823 72.0232 159.33 73.8649 159.33C75.7065 159.33 77.1995 160.823 77.1995 162.665Z" fill="black"/>
<path opacity="0.64" d="M114.2 87.9508C114.2 89.7924 112.707 91.2854 110.865 91.2854C109.023 91.2854 107.53 89.7924 107.53 87.9508C107.53 86.1091 109.023 84.6162 110.865 84.6162C112.707 84.6162 114.2 86.1091 114.2 87.9508Z" fill="black"/>
<path opacity="0.64" d="M101.903 87.9508C101.903 89.7924 100.41 91.2854 98.568 91.2854C96.7264 91.2854 95.2334 89.7924 95.2334 87.9508C95.2334 86.1091 96.7264 84.6162 98.568 84.6162C100.41 84.6162 101.903 86.1091 101.903 87.9508Z" fill="black"/>
<path opacity="0.64" d="M89.6018 87.9498C89.6018 89.7915 88.1088 91.2844 86.2672 91.2844C84.4255 91.2844 82.9326 89.7915 82.9326 87.9498C82.9326 86.1082 84.4255 84.6152 86.2672 84.6152C88.1088 84.6152 89.6018 86.1082 89.6018 87.9498Z" fill="black"/>
<path opacity="0.64" d="M77.1995 87.9498C77.1995 89.7915 75.7065 91.2844 73.8649 91.2844C72.0232 91.2844 70.5303 89.7915 70.5303 87.9498C70.5303 86.1082 72.0232 84.6152 73.8649 84.6152C75.7065 84.6152 77.1995 86.1082 77.1995 87.9498Z" fill="black"/>
<path opacity="0.64" d="M114.196 98.6823C114.196 100.524 112.703 102.017 110.861 102.017C109.019 102.017 107.526 100.524 107.526 98.6823C107.526 96.8406 109.019 95.3477 110.861 95.3477C112.703 95.3477 114.196 96.8406 114.196 98.6823Z" fill="black"/>
<path opacity="0.64" d="M101.899 98.6823C101.899 100.524 100.406 102.017 98.5641 102.017C96.7225 102.017 95.2295 100.524 95.2295 98.6823C95.2295 96.8406 96.7225 95.3477 98.5641 95.3477C100.406 95.3477 101.899 96.8406 101.899 98.6823Z" fill="black"/>
<path opacity="0.64" d="M89.6057 98.6823C89.6057 100.524 88.1127 102.017 86.2711 102.017C84.4294 102.017 82.9365 100.524 82.9365 98.6823C82.9365 96.8406 84.4294 95.3477 86.2711 95.3477C88.1127 95.3477 89.6057 96.8406 89.6057 98.6823Z" fill="black"/>
<path opacity="0.64" d="M77.2034 98.6823C77.2034 100.524 75.7104 102.017 73.8688 102.017C72.0271 102.017 70.5342 100.524 70.5342 98.6823C70.5342 96.8406 72.0271 95.3477 73.8688 95.3477C75.7104 95.3477 77.2034 96.8406 77.2034 98.6823Z" fill="black"/>
<path opacity="0.64" d="M114.196 109.312C114.196 111.154 112.703 112.647 110.861 112.647C109.019 112.647 107.526 111.154 107.526 109.312C107.526 107.47 109.019 105.978 110.861 105.978C112.703 105.978 114.196 107.47 114.196 109.312Z" fill="black"/>
<path opacity="0.64" d="M101.899 109.312C101.899 111.154 100.406 112.647 98.5641 112.647C96.7225 112.647 95.2295 111.154 95.2295 109.312C95.2295 107.47 96.7225 105.978 98.5641 105.978C100.406 105.978 101.899 107.47 101.899 109.312Z" fill="black"/>
<path opacity="0.64" d="M89.6057 109.312C89.6057 111.154 88.1127 112.647 86.2711 112.647C84.4294 112.647 82.9365 111.154 82.9365 109.312C82.9365 107.47 84.4294 105.978 86.2711 105.978C88.1127 105.978 89.6057 107.47 89.6057 109.312Z" fill="black"/>
<path opacity="0.64" d="M77.2034 109.312C77.2034 111.154 75.7104 112.647 73.8688 112.647C72.0271 112.647 70.5342 111.154 70.5342 109.312C70.5342 107.47 72.0271 105.978 73.8688 105.978C75.7104 105.978 77.2034 107.47 77.2034 109.312Z" fill="black"/>
<path opacity="0.64" d="M114.196 120.046C114.196 121.887 112.703 123.38 110.861 123.38C109.019 123.38 107.526 121.887 107.526 120.046C107.526 118.204 109.019 116.711 110.861 116.711C112.703 116.711 114.196 118.204 114.196 120.046Z" fill="black"/>
<path opacity="0.64" d="M101.899 120.046C101.899 121.887 100.406 123.38 98.5641 123.38C96.7225 123.38 95.2295 121.887 95.2295 120.046C95.2295 118.204 96.7225 116.711 98.5641 116.711C100.406 116.711 101.899 118.204 101.899 120.046Z" fill="black"/>
<path opacity="0.64" d="M89.6057 120.046C89.6057 121.887 88.1127 123.38 86.2711 123.38C84.4294 123.38 82.9365 121.887 82.9365 120.046C82.9365 118.204 84.4294 116.711 86.2711 116.711C88.1127 116.711 89.6057 118.204 89.6057 120.046Z" fill="black"/>
<path opacity="0.64" d="M77.2034 120.046C77.2034 121.887 75.7104 123.38 73.8688 123.38C72.0271 123.38 70.5342 121.887 70.5342 120.046C70.5342 118.204 72.0271 116.711 73.8688 116.711C75.7104 116.711 77.2034 118.204 77.2034 120.046Z" fill="black"/>
<path opacity="0.64" d="M66.4729 130.466C66.4729 132.308 64.98 133.801 63.1383 133.801C61.2967 133.801 59.8037 132.308 59.8037 130.466C59.8037 128.625 61.2967 127.132 63.1383 127.132C64.98 127.132 66.4729 128.625 66.4729 130.466Z" fill="black"/>
<path opacity="0.64" d="M54.1721 130.466C54.1721 132.308 52.6791 133.801 50.8375 133.801C48.9958 133.801 47.5029 132.308 47.5029 130.466C47.5029 128.625 48.9958 127.132 50.8375 127.132C52.6791 127.132 54.1721 128.625 54.1721 130.466Z" fill="black"/>
<path opacity="0.64" d="M41.7737 130.466C41.7737 132.308 40.2808 133.801 38.4391 133.801C36.5975 133.801 35.1045 132.308 35.1045 130.466C35.1045 128.625 36.5975 127.132 38.4391 127.132C40.2808 127.132 41.7737 128.625 41.7737 130.466Z" fill="black"/>
<path opacity="0.64" d="M29.4768 130.467C29.4768 132.308 27.9839 133.801 26.1422 133.801C24.3006 133.801 22.8076 132.308 22.8076 130.467C22.8076 128.625 24.3006 127.132 26.1422 127.132C27.9839 127.132 29.4768 128.625 29.4768 130.467Z" fill="black"/>
<path opacity="0.64" d="M66.469 141.201C66.469 143.042 64.9761 144.535 63.1344 144.535C61.2928 144.535 59.7998 143.042 59.7998 141.201C59.7998 139.359 61.2928 137.866 63.1344 137.866C64.9761 137.866 66.469 139.359 66.469 141.201Z" fill="black"/>
<path opacity="0.64" d="M54.1721 141.201C54.1721 143.042 52.6791 144.535 50.8375 144.535C48.9958 144.535 47.5029 143.042 47.5029 141.201C47.5029 139.359 48.9958 137.866 50.8375 137.866C52.6791 137.866 54.1721 139.359 54.1721 141.201Z" fill="black"/>
<path opacity="0.64" d="M41.7737 141.201C41.7737 143.042 40.2808 144.535 38.4391 144.535C36.5975 144.535 35.1045 143.042 35.1045 141.201C35.1045 139.359 36.5975 137.866 38.4391 137.866C40.2808 137.866 41.7737 139.359 41.7737 141.201Z" fill="black"/>
<path opacity="0.64" d="M29.4768 141.201C29.4768 143.042 27.9839 144.535 26.1422 144.535C24.3006 144.535 22.8076 143.042 22.8076 141.201C22.8076 139.359 24.3006 137.866 26.1422 137.866C27.9839 137.866 29.4768 139.359 29.4768 141.201Z" fill="black"/>
<path opacity="0.64" d="M66.469 151.932C66.469 153.774 64.9761 155.267 63.1344 155.267C61.2928 155.267 59.7998 153.774 59.7998 151.932C59.7998 150.091 61.2928 148.598 63.1344 148.598C64.9761 148.598 66.469 150.091 66.469 151.932Z" fill="black"/>
<path opacity="0.64" d="M54.1721 151.932C54.1721 153.774 52.6791 155.267 50.8375 155.267C48.9958 155.267 47.5029 153.774 47.5029 151.932C47.5029 150.091 48.9958 148.598 50.8375 148.598C52.6791 148.598 54.1721 150.091 54.1721 151.932Z" fill="black"/>
<path opacity="0.64" d="M41.7737 151.932C41.7737 153.774 40.2808 155.267 38.4391 155.267C36.5975 155.267 35.1045 153.774 35.1045 151.932C35.1045 150.091 36.5975 148.598 38.4391 148.598C40.2808 148.598 41.7737 150.091 41.7737 151.932Z" fill="black"/>
<path opacity="0.64" d="M29.4768 151.933C29.4768 153.775 27.9839 155.268 26.1422 155.268C24.3006 155.268 22.8076 153.775 22.8076 151.933C22.8076 150.092 24.3006 148.599 26.1422 148.599C27.9839 148.599 29.4768 150.092 29.4768 151.933Z" fill="black"/>
<path opacity="0.64" d="M66.469 162.665C66.469 164.506 64.9761 165.999 63.1344 165.999C61.2928 165.999 59.7998 164.506 59.7998 162.665C59.7998 160.823 61.2928 159.33 63.1344 159.33C64.9761 159.33 66.469 160.823 66.469 162.665Z" fill="black"/>
<path opacity="0.64" d="M54.1721 162.665C54.1721 164.506 52.6791 165.999 50.8375 165.999C48.9958 165.999 47.5029 164.506 47.5029 162.665C47.5029 160.823 48.9958 159.33 50.8375 159.33C52.6791 159.33 54.1721 160.823 54.1721 162.665Z" fill="black"/>
<path opacity="0.64" d="M41.7737 162.665C41.7737 164.506 40.2808 165.999 38.4391 165.999C36.5975 165.999 35.1045 164.506 35.1045 162.665C35.1045 160.823 36.5975 159.33 38.4391 159.33C40.2808 159.33 41.7737 160.823 41.7737 162.665Z" fill="black"/>
<path opacity="0.64" d="M29.4768 162.665C29.4768 164.506 27.9839 165.999 26.1422 165.999C24.3006 165.999 22.8076 164.506 22.8076 162.665C22.8076 160.823 24.3006 159.33 26.1422 159.33C27.9839 159.33 29.4768 160.823 29.4768 162.665Z" fill="black"/>
<path opacity="0.64" d="M66.469 87.9498C66.469 89.7915 64.9761 91.2844 63.1344 91.2844C61.2928 91.2844 59.7998 89.7915 59.7998 87.9498C59.7998 86.1082 61.2928 84.6152 63.1344 84.6152C64.9761 84.6152 66.469 86.1082 66.469 87.9498Z" fill="black"/>
<path opacity="0.64" d="M54.1721 87.9498C54.1721 89.7915 52.6791 91.2844 50.8375 91.2844C48.9958 91.2844 47.5029 89.7915 47.5029 87.9498C47.5029 86.1082 48.9958 84.6152 50.8375 84.6152C52.6791 84.6152 54.1721 86.1082 54.1721 87.9498Z" fill="black"/>
<path opacity="0.64" d="M41.7737 87.9498C41.7737 89.7915 40.2808 91.2844 38.4391 91.2844C36.5975 91.2844 35.1045 89.7915 35.1045 87.9498C35.1045 86.1082 36.5975 84.6152 38.4391 84.6152C40.2808 84.6152 41.7737 86.1082 41.7737 87.9498Z" fill="black"/>
<path opacity="0.64" d="M29.4768 87.9508C29.4768 89.7924 27.9839 91.2854 26.1422 91.2854C24.3006 91.2854 22.8076 89.7924 22.8076 87.9508C22.8076 86.1091 24.3006 84.6162 26.1422 84.6162C27.9839 84.6162 29.4768 86.1091 29.4768 87.9508Z" fill="black"/>
<path opacity="0.64" d="M66.4729 98.6823C66.4729 100.524 64.98 102.017 63.1383 102.017C61.2967 102.017 59.8037 100.524 59.8037 98.6823C59.8037 96.8406 61.2967 95.3477 63.1383 95.3477C64.98 95.3477 66.4729 96.8406 66.4729 98.6823Z" fill="black"/>
<path opacity="0.64" d="M54.1721 98.6823C54.1721 100.524 52.6791 102.017 50.8375 102.017C48.9958 102.017 47.5029 100.524 47.5029 98.6823C47.5029 96.8406 48.9958 95.3477 50.8375 95.3477C52.6791 95.3477 54.1721 96.8406 54.1721 98.6823Z" fill="black"/>
<path opacity="0.64" d="M41.7737 98.6823C41.7737 100.524 40.2808 102.017 38.4391 102.017C36.5975 102.017 35.1045 100.524 35.1045 98.6823C35.1045 96.8406 36.5975 95.3477 38.4391 95.3477C40.2808 95.3477 41.7737 96.8406 41.7737 98.6823Z" fill="black"/>
<path opacity="0.64" d="M29.4768 98.6842C29.4768 100.526 27.9839 102.019 26.1422 102.019C24.3006 102.019 22.8076 100.526 22.8076 98.6842C22.8076 96.8426 24.3006 95.3496 26.1422 95.3496C27.9839 95.3496 29.4768 96.8426 29.4768 98.6842Z" fill="black"/>
<path opacity="0.64" d="M66.4729 109.312C66.4729 111.154 64.98 112.647 63.1383 112.647C61.2967 112.647 59.8037 111.154 59.8037 109.312C59.8037 107.47 61.2967 105.978 63.1383 105.978C64.98 105.978 66.4729 107.47 66.4729 109.312Z" fill="black"/>
<path opacity="0.64" d="M54.1721 109.312C54.1721 111.154 52.6791 112.647 50.8375 112.647C48.9958 112.647 47.5029 111.154 47.5029 109.312C47.5029 107.47 48.9958 105.978 50.8375 105.978C52.6791 105.978 54.1721 107.47 54.1721 109.312Z" fill="black"/>
<path opacity="0.64" d="M41.7737 109.312C41.7737 111.154 40.2808 112.647 38.4391 112.647C36.5975 112.647 35.1045 111.154 35.1045 109.312C35.1045 107.47 36.5975 105.978 38.4391 105.978C40.2808 105.978 41.7737 107.47 41.7737 109.312Z" fill="black"/>
<path opacity="0.64" d="M29.4768 109.313C29.4768 111.155 27.9839 112.648 26.1422 112.648C24.3006 112.648 22.8076 111.155 22.8076 109.313C22.8076 107.471 24.3006 105.979 26.1422 105.979C27.9839 105.979 29.4768 107.471 29.4768 109.313Z" fill="black"/>
<path opacity="0.64" d="M66.4729 120.046C66.4729 121.887 64.98 123.38 63.1383 123.38C61.2967 123.38 59.8037 121.887 59.8037 120.046C59.8037 118.204 61.2967 116.711 63.1383 116.711C64.98 116.711 66.4729 118.204 66.4729 120.046Z" fill="black"/>
<path opacity="0.64" d="M54.1721 120.046C54.1721 121.887 52.6791 123.38 50.8375 123.38C48.9958 123.38 47.5029 121.887 47.5029 120.046C47.5029 118.204 48.9958 116.711 50.8375 116.711C52.6791 116.711 54.1721 118.204 54.1721 120.046Z" fill="black"/>
<path opacity="0.64" d="M41.7737 120.046C41.7737 121.887 40.2808 123.38 38.4391 123.38C36.5975 123.38 35.1045 121.887 35.1045 120.046C35.1045 118.204 36.5975 116.711 38.4391 116.711C40.2808 116.711 41.7737 118.204 41.7737 120.046Z" fill="black"/>
<path opacity="0.64" d="M29.4768 120.046C29.4768 121.887 27.9839 123.38 26.1422 123.38C24.3006 123.38 22.8076 121.887 22.8076 120.046C22.8076 118.204 24.3006 116.711 26.1422 116.711C27.9839 116.711 29.4768 118.204 29.4768 120.046Z" fill="black"/>
<path opacity="0.64" d="M114.2 45.9557C114.2 47.7974 112.707 49.2903 110.865 49.2903C109.023 49.2903 107.53 47.7974 107.53 45.9557C107.53 44.1141 109.023 42.6211 110.865 42.6211C112.707 42.6211 114.2 44.1141 114.2 45.9557Z" fill="black"/>
<path opacity="0.64" d="M101.903 45.9557C101.903 47.7974 100.41 49.2903 98.568 49.2903C96.7264 49.2903 95.2334 47.7974 95.2334 45.9557C95.2334 44.1141 96.7264 42.6211 98.568 42.6211C100.41 42.6211 101.903 44.1141 101.903 45.9557Z" fill="black"/>
<path opacity="0.64" d="M89.6057 45.9557C89.6057 47.7974 88.1127 49.2903 86.2711 49.2903C84.4294 49.2903 82.9365 47.7974 82.9365 45.9557C82.9365 44.1141 84.4294 42.6211 86.2711 42.6211C88.1127 42.6211 89.6057 44.1141 89.6057 45.9557Z" fill="black"/>
<path opacity="0.64" d="M77.2034 45.9557C77.2034 47.7974 75.7104 49.2903 73.8688 49.2903C72.0271 49.2903 70.5342 47.7974 70.5342 45.9557C70.5342 44.1141 72.0271 42.6211 73.8688 42.6211C75.7104 42.6211 77.2034 44.1141 77.2034 45.9557Z" fill="black"/>
<path opacity="0.64" d="M114.2 56.5856C114.2 58.4272 112.707 59.9202 110.865 59.9202C109.023 59.9202 107.53 58.4272 107.53 56.5856C107.53 54.7439 109.023 53.251 110.865 53.251C112.707 53.251 114.2 54.7439 114.2 56.5856Z" fill="black"/>
<path opacity="0.64" d="M101.903 56.5856C101.903 58.4272 100.41 59.9202 98.568 59.9202C96.7264 59.9202 95.2334 58.4272 95.2334 56.5856C95.2334 54.7439 96.7264 53.251 98.568 53.251C100.41 53.251 101.903 54.7439 101.903 56.5856Z" fill="black"/>
<path opacity="0.64" d="M89.6018 56.5856C89.6018 58.4272 88.1088 59.9202 86.2672 59.9202C84.4255 59.9202 82.9326 58.4272 82.9326 56.5856C82.9326 54.7439 84.4255 53.251 86.2672 53.251C88.1088 53.251 89.6018 54.7439 89.6018 56.5856Z" fill="black"/>
<path opacity="0.64" d="M77.1995 56.5836C77.1995 58.4253 75.7065 59.9182 73.8649 59.9182C72.0232 59.9182 70.5303 58.4253 70.5303 56.5836C70.5303 54.742 72.0232 53.249 73.8649 53.249C75.7065 53.249 77.1995 54.742 77.1995 56.5836Z" fill="black"/>
<path opacity="0.64" d="M114.2 67.317C114.2 69.1587 112.707 70.6517 110.865 70.6517C109.023 70.6517 107.53 69.1587 107.53 67.317C107.53 65.4754 109.023 63.9824 110.865 63.9824C112.707 63.9824 114.2 65.4754 114.2 67.317Z" fill="black"/>
<path opacity="0.64" d="M101.903 67.317C101.903 69.1587 100.41 70.6517 98.568 70.6517C96.7264 70.6517 95.2334 69.1587 95.2334 67.317C95.2334 65.4754 96.7264 63.9824 98.568 63.9824C100.41 63.9824 101.903 65.4754 101.903 67.317Z" fill="black"/>
<path opacity="0.64" d="M89.6018 67.317C89.6018 69.1587 88.1088 70.6517 86.2672 70.6517C84.4255 70.6517 82.9326 69.1587 82.9326 67.317C82.9326 65.4754 84.4255 63.9824 86.2672 63.9824C88.1088 63.9824 89.6018 65.4754 89.6018 67.317Z" fill="black"/>
<path opacity="0.64" d="M77.1995 67.317C77.1995 69.1587 75.7065 70.6517 73.8649 70.6517C72.0232 70.6517 70.5303 69.1587 70.5303 67.317C70.5303 65.4754 72.0232 63.9824 73.8649 63.9824C75.7065 63.9824 77.1995 65.4754 77.1995 67.317Z" fill="black"/>
<path opacity="0.64" d="M114.2 78.0504C114.2 79.8921 112.707 81.385 110.865 81.385C109.023 81.385 107.53 79.8921 107.53 78.0504C107.53 76.2088 109.023 74.7158 110.865 74.7158C112.707 74.7158 114.2 76.2088 114.2 78.0504Z" fill="black"/>
<path opacity="0.64" d="M101.903 78.0504C101.903 79.8921 100.41 81.385 98.568 81.385C96.7264 81.385 95.2334 79.8921 95.2334 78.0504C95.2334 76.2088 96.7264 74.7158 98.568 74.7158C100.41 74.7158 101.903 76.2088 101.903 78.0504Z" fill="black"/>
<path opacity="0.64" d="M89.6018 78.0494C89.6018 79.8911 88.1088 81.384 86.2672 81.384C84.4255 81.384 82.9326 79.8911 82.9326 78.0494C82.9326 76.2078 84.4255 74.7148 86.2672 74.7148C88.1088 74.7148 89.6018 76.2078 89.6018 78.0494Z" fill="black"/>
<path opacity="0.64" d="M77.1995 78.0494C77.1995 79.8911 75.7065 81.384 73.8649 81.384C72.0232 81.384 70.5303 79.8911 70.5303 78.0494C70.5303 76.2078 72.0232 74.7148 73.8649 74.7148C75.7065 74.7148 77.1995 76.2078 77.1995 78.0494Z" fill="black"/>
<path opacity="0.64" d="M114.2 3.33462C114.2 5.17627 112.707 6.66922 110.865 6.66922C109.023 6.66922 107.53 5.17627 107.53 3.33462C107.53 1.49297 109.023 -6.52596e-08 110.865 -1.45761e-07C112.707 -2.26262e-07 114.2 1.49297 114.2 3.33462Z" fill="black"/>
<path opacity="0.64" d="M101.903 3.33462C101.903 5.17627 100.41 6.66922 98.568 6.66922C96.7264 6.66922 95.2334 5.17627 95.2334 3.33462C95.2334 1.49297 96.7264 -6.52596e-08 98.568 -1.45761e-07C100.41 -2.26262e-07 101.903 1.49297 101.903 3.33462Z" fill="black"/>
<path opacity="0.64" d="M89.6057 3.33462C89.6057 5.17627 88.1127 6.66922 86.2711 6.66922C84.4294 6.66922 82.9365 5.17627 82.9365 3.33462C82.9365 1.49297 84.4294 -6.52568e-08 86.2711 -1.45758e-07C88.1127 -2.26259e-07 89.6057 1.49297 89.6057 3.33462Z" fill="black"/>
<path opacity="0.64" d="M77.1995 3.33462C77.1995 5.17627 75.7065 6.66922 73.8649 6.66922C72.0232 6.66922 70.5303 5.17627 70.5303 3.33462C70.5303 1.49297 72.0232 -6.52596e-08 73.8649 -1.45761e-07C75.7065 -2.26262e-07 77.1995 1.49297 77.1995 3.33462Z" fill="black"/>
<path opacity="0.64" d="M114.2 14.067C114.2 15.9087 112.707 17.4016 110.865 17.4016C109.023 17.4016 107.53 15.9087 107.53 14.067C107.53 12.2254 109.023 10.7324 110.865 10.7324C112.707 10.7324 114.2 12.2254 114.2 14.067Z" fill="black"/>
<path opacity="0.64" d="M101.903 14.069C101.903 15.9106 100.41 17.4036 98.568 17.4036C96.7264 17.4036 95.2334 15.9106 95.2334 14.069C95.2334 12.2273 96.7264 10.7344 98.568 10.7344C100.41 10.7344 101.903 12.2273 101.903 14.069Z" fill="black"/>
<path opacity="0.64" d="M89.6057 14.069C89.6057 15.9106 88.1127 17.4036 86.2711 17.4036C84.4294 17.4036 82.9365 15.9106 82.9365 14.069C82.9365 12.2273 84.4294 10.7344 86.2711 10.7344C88.1127 10.7344 89.6057 12.2273 89.6057 14.069Z" fill="black"/>
<path opacity="0.64" d="M77.2034 14.067C77.2034 15.9087 75.7104 17.4016 73.8688 17.4016C72.0271 17.4016 70.5342 15.9087 70.5342 14.067C70.5342 12.2254 72.0271 10.7324 73.8688 10.7324C75.7104 10.7324 77.2034 12.2254 77.2034 14.067Z" fill="black"/>
<path opacity="0.64" d="M114.2 24.8014C114.2 26.6431 112.707 28.136 110.865 28.136C109.023 28.136 107.53 26.6431 107.53 24.8014C107.53 22.9598 109.023 21.4668 110.865 21.4668C112.707 21.4668 114.2 22.9598 114.2 24.8014Z" fill="black"/>
<path opacity="0.64" d="M101.903 24.8004C101.903 26.6421 100.41 28.135 98.568 28.135C96.7264 28.135 95.2334 26.6421 95.2334 24.8004C95.2334 22.9588 96.7264 21.4658 98.568 21.4658C100.41 21.4658 101.903 22.9588 101.903 24.8004Z" fill="black"/>
<path opacity="0.64" d="M89.6057 24.8014C89.6057 26.6431 88.1127 28.136 86.2711 28.136C84.4294 28.136 82.9365 26.6431 82.9365 24.8014C82.9365 22.9598 84.4294 21.4668 86.2711 21.4668C88.1127 21.4668 89.6057 22.9598 89.6057 24.8014Z" fill="black"/>
<path opacity="0.64" d="M77.2034 24.8014C77.2034 26.6431 75.7104 28.136 73.8688 28.136C72.0271 28.136 70.5342 26.6431 70.5342 24.8014C70.5342 22.9598 72.0271 21.4668 73.8688 21.4668C75.7104 21.4668 77.2034 22.9598 77.2034 24.8014Z" fill="black"/>
<path opacity="0.64" d="M114.2 35.5338C114.2 37.3755 112.707 38.8685 110.865 38.8685C109.023 38.8685 107.53 37.3755 107.53 35.5338C107.53 33.6922 109.023 32.1992 110.865 32.1992C112.707 32.1992 114.2 33.6922 114.2 35.5338Z" fill="black"/>
<path opacity="0.64" d="M101.903 35.5338C101.903 37.3755 100.41 38.8685 98.568 38.8685C96.7264 38.8685 95.2334 37.3755 95.2334 35.5338C95.2334 33.6922 96.7264 32.1992 98.568 32.1992C100.41 32.1992 101.903 33.6922 101.903 35.5338Z" fill="black"/>
<path opacity="0.64" d="M89.6057 35.5338C89.6057 37.3755 88.1127 38.8685 86.2711 38.8685C84.4294 38.8685 82.9365 37.3755 82.9365 35.5338C82.9365 33.6922 84.4294 32.1992 86.2711 32.1992C88.1127 32.1992 89.6057 33.6922 89.6057 35.5338Z" fill="black"/>
<path opacity="0.64" d="M77.2034 35.5338C77.2034 37.3755 75.7104 38.8685 73.8688 38.8685C72.0271 38.8685 70.5342 37.3755 70.5342 35.5338C70.5342 33.6922 72.0271 32.1992 73.8688 32.1992C75.7104 32.1992 77.2034 33.6922 77.2034 35.5338Z" fill="black"/>
<path opacity="0.64" d="M66.4729 45.9557C66.4729 47.7974 64.98 49.2903 63.1383 49.2903C61.2967 49.2903 59.8037 47.7974 59.8037 45.9557C59.8037 44.1141 61.2967 42.6211 63.1383 42.6211C64.98 42.6211 66.4729 44.1141 66.4729 45.9557Z" fill="black"/>
<path opacity="0.64" d="M54.1721 45.9557C54.1721 47.7974 52.6791 49.2903 50.8375 49.2903C48.9958 49.2903 47.5029 47.7974 47.5029 45.9557C47.5029 44.1141 48.9958 42.6211 50.8375 42.6211C52.6791 42.6211 54.1721 44.1141 54.1721 45.9557Z" fill="black"/>
<path opacity="0.64" d="M41.7737 45.9557C41.7737 47.7974 40.2808 49.2903 38.4391 49.2903C36.5975 49.2903 35.1045 47.7974 35.1045 45.9557C35.1045 44.1141 36.5975 42.6211 38.4391 42.6211C40.2808 42.6211 41.7737 44.1141 41.7737 45.9557Z" fill="black"/>
<path opacity="0.64" d="M29.4768 45.9555C29.4768 47.7971 27.9839 49.2901 26.1422 49.2901C24.3006 49.2901 22.8076 47.7971 22.8076 45.9555C22.8076 44.1138 24.3006 42.6208 26.1422 42.6208C27.9839 42.6208 29.4768 44.1138 29.4768 45.9555Z" fill="black"/>
<path opacity="0.64" d="M66.469 56.5856C66.469 58.4272 64.9761 59.9202 63.1344 59.9202C61.2928 59.9202 59.7998 58.4272 59.7998 56.5856C59.7998 54.7439 61.2928 53.251 63.1344 53.251C64.9761 53.251 66.469 54.7439 66.469 56.5856Z" fill="black"/>
<path opacity="0.64" d="M54.1721 56.5856C54.1721 58.4272 52.6791 59.9202 50.8375 59.9202C48.9958 59.9202 47.5029 58.4272 47.5029 56.5856C47.5029 54.7439 48.9958 53.251 50.8375 53.251C52.6791 53.251 54.1721 54.7439 54.1721 56.5856Z" fill="black"/>
<path opacity="0.64" d="M41.7737 56.5856C41.7737 58.4272 40.2808 59.9202 38.4391 59.9202C36.5975 59.9202 35.1045 58.4272 35.1045 56.5856C35.1045 54.7439 36.5975 53.251 38.4391 53.251C40.2808 53.251 41.7737 54.7439 41.7737 56.5856Z" fill="black"/>
<path opacity="0.64" d="M29.4768 56.5856C29.4768 58.4272 27.9839 59.9202 26.1422 59.9202C24.3006 59.9202 22.8076 58.4272 22.8076 56.5856C22.8076 54.7439 24.3006 53.251 26.1422 53.251C27.9839 53.251 29.4768 54.7439 29.4768 56.5856Z" fill="black"/>
<path opacity="0.64" d="M66.469 67.317C66.469 69.1587 64.9761 70.6517 63.1344 70.6517C61.2928 70.6517 59.7998 69.1587 59.7998 67.317C59.7998 65.4754 61.2928 63.9824 63.1344 63.9824C64.9761 63.9824 66.469 65.4754 66.469 67.317Z" fill="black"/>
<path opacity="0.64" d="M54.1721 67.317C54.1721 69.1587 52.6791 70.6517 50.8375 70.6517C48.9958 70.6517 47.5029 69.1587 47.5029 67.317C47.5029 65.4754 48.9958 63.9824 50.8375 63.9824C52.6791 63.9824 54.1721 65.4754 54.1721 67.317Z" fill="black"/>
<path opacity="0.64" d="M41.7737 67.317C41.7737 69.1587 40.2808 70.6517 38.4391 70.6517C36.5975 70.6517 35.1045 69.1587 35.1045 67.317C35.1045 65.4754 36.5975 63.9824 38.4391 63.9824C40.2808 63.9824 41.7737 65.4754 41.7737 67.317Z" fill="black"/>
<path opacity="0.64" d="M29.4768 67.3169C29.4768 69.1586 27.9839 70.6515 26.1422 70.6515C24.3006 70.6515 22.8076 69.1586 22.8076 67.3169C22.8076 65.4753 24.3006 63.9823 26.1422 63.9823C27.9839 63.9823 29.4768 65.4753 29.4768 67.3169Z" fill="black"/>
<path opacity="0.64" d="M66.469 78.0494C66.469 79.8911 64.9761 81.384 63.1344 81.384C61.2928 81.384 59.7998 79.8911 59.7998 78.0494C59.7998 76.2078 61.2928 74.7148 63.1344 74.7148C64.9761 74.7148 66.469 76.2078 66.469 78.0494Z" fill="black"/>
<path opacity="0.64" d="M54.1721 78.0494C54.1721 79.8911 52.6791 81.384 50.8375 81.384C48.9958 81.384 47.5029 79.8911 47.5029 78.0494C47.5029 76.2078 48.9958 74.7148 50.8375 74.7148C52.6791 74.7148 54.1721 76.2078 54.1721 78.0494Z" fill="black"/>
<path opacity="0.64" d="M41.7737 78.0494C41.7737 79.8911 40.2808 81.384 38.4391 81.384C36.5975 81.384 35.1045 79.8911 35.1045 78.0494C35.1045 76.2078 36.5975 74.7148 38.4391 74.7148C40.2808 74.7148 41.7737 76.2078 41.7737 78.0494Z" fill="black"/>
<path opacity="0.64" d="M29.4768 78.0497C29.4768 79.8913 27.9839 81.3843 26.1422 81.3843C24.3006 81.3843 22.8076 79.8913 22.8076 78.0497C22.8076 76.208 24.3006 74.7151 26.1422 74.7151C27.9839 74.7151 29.4768 76.208 29.4768 78.0497Z" fill="black"/>
<path opacity="0.64" d="M66.4729 3.33462C66.4729 5.17627 64.98 6.66922 63.1383 6.66922C61.2967 6.66922 59.8037 5.17627 59.8037 3.33462C59.8037 1.49297 61.2967 -6.52596e-08 63.1383 -1.45761e-07C64.98 -2.26262e-07 66.4729 1.49297 66.4729 3.33462Z" fill="black"/>
<path opacity="0.64" d="M54.1721 3.33462C54.1721 5.17627 52.6791 6.66922 50.8375 6.66922C48.9958 6.66922 47.5029 5.17627 47.5029 3.33462C47.5029 1.49297 48.9958 -6.52568e-08 50.8375 -1.45758e-07C52.6791 -2.26259e-07 54.1721 1.49297 54.1721 3.33462Z" fill="black"/>
<path opacity="0.64" d="M41.7737 3.33462C41.7737 5.17627 40.2808 6.66922 38.4391 6.66922C36.5975 6.66922 35.1045 5.17627 35.1045 3.33462C35.1045 1.49297 36.5975 -6.52596e-08 38.4391 -1.45761e-07C40.2808 -2.26262e-07 41.7737 1.49297 41.7737 3.33462Z" fill="black"/>
<path opacity="0.64" d="M29.4768 3.33462C29.4768 5.17627 27.9839 6.66922 26.1422 6.66922C24.3006 6.66922 22.8076 5.17627 22.8076 3.33462C22.8076 1.49297 24.3006 -6.52596e-08 26.1422 -1.45761e-07C27.9839 -2.26262e-07 29.4768 1.49297 29.4768 3.33462Z" fill="black"/>
<path opacity="0.64" d="M66.4729 14.067C66.4729 15.9087 64.98 17.4016 63.1383 17.4016C61.2967 17.4016 59.8037 15.9087 59.8037 14.067C59.8037 12.2254 61.2967 10.7324 63.1383 10.7324C64.98 10.7324 66.4729 12.2254 66.4729 14.067Z" fill="black"/>
<path opacity="0.64" d="M54.1721 14.069C54.1721 15.9106 52.6791 17.4036 50.8375 17.4036C48.9958 17.4036 47.5029 15.9106 47.5029 14.069C47.5029 12.2273 48.9958 10.7344 50.8375 10.7344C52.6791 10.7344 54.1721 12.2273 54.1721 14.069Z" fill="black"/>
<path opacity="0.64" d="M41.7737 14.069C41.7737 15.9106 40.2808 17.4036 38.4391 17.4036C36.5975 17.4036 35.1045 15.9106 35.1045 14.069C35.1045 12.2273 36.5975 10.7344 38.4391 10.7344C40.2808 10.7344 41.7737 12.2273 41.7737 14.069Z" fill="black"/>
<path opacity="0.64" d="M29.4768 14.067C29.4768 15.9087 27.9839 17.4016 26.1422 17.4016C24.3006 17.4016 22.8076 15.9087 22.8076 14.067C22.8076 12.2254 24.3006 10.7324 26.1422 10.7324C27.9839 10.7324 29.4768 12.2254 29.4768 14.067Z" fill="black"/>
<path opacity="0.64" d="M66.4729 24.8004C66.4729 26.6421 64.98 28.135 63.1383 28.135C61.2967 28.135 59.8037 26.6421 59.8037 24.8004C59.8037 22.9588 61.2967 21.4658 63.1383 21.4658C64.98 21.4658 66.4729 22.9588 66.4729 24.8004Z" fill="black"/>
<path opacity="0.64" d="M54.1721 24.8014C54.1721 26.6431 52.6791 28.136 50.8375 28.136C48.9958 28.136 47.5029 26.6431 47.5029 24.8014C47.5029 22.9598 48.9958 21.4668 50.8375 21.4668C52.6791 21.4668 54.1721 22.9598 54.1721 24.8014Z" fill="black"/>
<path opacity="0.64" d="M41.7737 24.8014C41.7737 26.6431 40.2808 28.136 38.4391 28.136C36.5975 28.136 35.1045 26.6431 35.1045 24.8014C35.1045 22.9598 36.5975 21.4668 38.4391 21.4668C40.2808 21.4668 41.7737 22.9598 41.7737 24.8014Z" fill="black"/>
<path opacity="0.64" d="M29.4768 24.8002C29.4768 26.6418 27.9839 28.1348 26.1422 28.1348C24.3006 28.1348 22.8076 26.6418 22.8076 24.8002C22.8076 22.9585 24.3006 21.4656 26.1422 21.4656C27.9839 21.4656 29.4768 22.9585 29.4768 24.8002Z" fill="black"/>
<path opacity="0.64" d="M66.4729 35.5338C66.4729 37.3755 64.98 38.8685 63.1383 38.8685C61.2967 38.8685 59.8037 37.3755 59.8037 35.5338C59.8037 33.6922 61.2967 32.1992 63.1383 32.1992C64.98 32.1992 66.4729 33.6922 66.4729 35.5338Z" fill="black"/>
<path opacity="0.64" d="M54.1721 35.5338C54.1721 37.3755 52.6791 38.8685 50.8375 38.8685C48.9958 38.8685 47.5029 37.3755 47.5029 35.5338C47.5029 33.6922 48.9958 32.1992 50.8375 32.1992C52.6791 32.1992 54.1721 33.6922 54.1721 35.5338Z" fill="black"/>
<path opacity="0.64" d="M41.7737 35.5338C41.7737 37.3755 40.2808 38.8685 38.4391 38.8685C36.5975 38.8685 35.1045 37.3755 35.1045 35.5338C35.1045 33.6922 36.5975 32.1992 38.4391 32.1992C40.2808 32.1992 41.7737 33.6922 41.7737 35.5338Z" fill="black"/>
<path opacity="0.64" d="M29.4768 35.5338C29.4768 37.3755 27.9839 38.8685 26.1422 38.8685C24.3006 38.8685 22.8076 37.3755 22.8076 35.5338C22.8076 33.6922 24.3006 32.1992 26.1422 32.1992C27.9839 32.1992 29.4768 33.6922 29.4768 35.5338Z" fill="black"/>
</g>
</svg>
