<svg width="76" height="58" viewBox="0 0 76 58" fill="none" xmlns="http://www.w3.org/2000/svg">
<path d="M8.74371 38.9155C10.3335 39.9754 23.0516 48.5866 38.8167 43.6848C43.8236 42.1799 48.4257 39.5634 52.2796 36.0306C56.1335 32.4979 59.1396 28.1402 61.0734 23.2829C61.8935 20.9189 62.4706 18.4775 62.7957 15.9965L75.2488 16.2614C74.8928 21.1446 73.7288 25.9348 71.8043 30.4368C63.8555 48.984 45.4408 55.0781 43.3211 55.7405C34.2572 58.5298 24.5641 58.5298 15.5002 55.7405C9.8398 54.0579 4.57076 51.2657 0 47.5267L8.74371 38.9155Z" fill="#8EC6D8"/>
<path d="M49.1438 5.28964e-05L38.6758 5.42615L44.0836 15.8589L54.5516 10.4328L49.1438 5.28964e-05Z" fill="#EE4D4A"/>
<path d="M24.9045 12.8177L25.4344 19.5743L9.27178 25.1384L8.60938 18.3819L24.9045 12.8177Z" fill="#8EC6D8"/>
</svg>
