<svg width="180" height="300" viewBox="0 0 180 300" fill="none" xmlns="http://www.w3.org/2000/svg">
<g opacity="0.05">
<path opacity="0.64" d="M25.2999 78.7513C25.2999 75.6338 27.8272 73.1066 30.9446 73.1066C34.0621 73.1066 36.5894 75.6338 36.5894 78.7513C36.5894 81.8688 34.0621 84.396 30.9446 84.396C27.8272 84.396 25.2999 81.8688 25.2999 78.7513Z" fill="black"/>
<path opacity="0.64" d="M46.115 78.7513C46.115 75.6338 48.6421 73.1066 51.7596 73.1066C54.8771 73.1066 57.4043 75.6338 57.4043 78.7513C57.4043 81.8688 54.8771 84.396 51.7596 84.396C48.6421 84.396 46.115 81.8688 46.115 78.7513Z" fill="black"/>
<path opacity="0.64" d="M66.9299 78.7513C66.9299 75.6338 69.4571 73.1066 72.5746 73.1066C75.6921 73.1066 78.2192 75.6338 78.2192 78.7513C78.2192 81.8688 75.6921 84.396 72.5746 84.396C69.4571 84.396 66.9299 81.8688 66.9299 78.7513Z" fill="black"/>
<path opacity="0.64" d="M87.9205 78.7513C87.9205 75.6338 90.4478 73.1066 93.5652 73.1066C96.6827 73.1066 99.21 75.6338 99.21 78.7513C99.21 81.8688 96.6827 84.396 93.5652 84.396C90.4478 84.396 87.9205 81.8688 87.9205 78.7513Z" fill="black"/>
<path opacity="0.64" d="M25.2999 60.5824C25.2999 57.4649 27.8272 54.9377 30.9446 54.9377C34.0621 54.9377 36.5894 57.4649 36.5894 60.5824C36.5894 63.6999 34.0621 66.2271 30.9446 66.2271C27.8272 66.2271 25.2999 63.6999 25.2999 60.5824Z" fill="black"/>
<path opacity="0.64" d="M46.115 60.5824C46.115 57.4649 48.6421 54.9377 51.7596 54.9377C54.8771 54.9377 57.4043 57.4649 57.4043 60.5824C57.4043 63.6999 54.8771 66.2271 51.7596 66.2271C48.6421 66.2271 46.115 63.6999 46.115 60.5824Z" fill="black"/>
<path opacity="0.64" d="M66.9299 60.5824C66.9299 57.4649 69.4571 54.9377 72.5746 54.9377C75.6921 54.9377 78.2192 57.4649 78.2192 60.5824C78.2192 63.6999 75.6921 66.2271 72.5746 66.2271C69.4571 66.2271 66.9299 63.6999 66.9299 60.5824Z" fill="black"/>
<path opacity="0.64" d="M87.9205 60.5824C87.9205 57.4649 90.4478 54.9377 93.5652 54.9377C96.6827 54.9377 99.21 57.4649 99.21 60.5824C99.21 63.6999 96.6827 66.2271 93.5652 66.2271C90.4478 66.2271 87.9205 63.6999 87.9205 60.5824Z" fill="black"/>
<path opacity="0.64" d="M25.2999 42.4134C25.2999 39.2959 27.8272 36.7687 30.9446 36.7687C34.0621 36.7687 36.5894 39.2959 36.5894 42.4134C36.5894 45.5309 34.0621 48.0581 30.9446 48.0581C27.8272 48.0581 25.2999 45.5309 25.2999 42.4134Z" fill="black"/>
<path opacity="0.64" d="M46.115 42.4134C46.115 39.2959 48.6421 36.7687 51.7596 36.7687C54.8771 36.7687 57.4043 39.2959 57.4043 42.4134C57.4043 45.5309 54.8771 48.0581 51.7596 48.0581C48.6421 48.0581 46.115 45.5309 46.115 42.4134Z" fill="black"/>
<path opacity="0.64" d="M66.9299 42.4134C66.9299 39.2959 69.4571 36.7687 72.5746 36.7687C75.6921 36.7687 78.2192 39.2959 78.2192 42.4134C78.2192 45.5309 75.6921 48.0581 72.5746 48.0581C69.4571 48.0581 66.9299 45.5309 66.9299 42.4134Z" fill="black"/>
<path opacity="0.64" d="M87.9205 42.4134C87.9205 39.2959 90.4478 36.7687 93.5652 36.7687C96.6827 36.7687 99.21 39.2959 99.21 42.4134C99.21 45.5309 96.6827 48.0581 93.5652 48.0581C90.4478 48.0581 87.9205 45.5309 87.9205 42.4134Z" fill="black"/>
<path opacity="0.64" d="M25.2999 24.2444C25.2999 21.127 27.8272 18.5997 30.9446 18.5997C34.0621 18.5997 36.5894 21.127 36.5894 24.2444C36.5894 27.3619 34.0621 29.8892 30.9446 29.8892C27.8272 29.8892 25.2999 27.3619 25.2999 24.2444Z" fill="black"/>
<path opacity="0.64" d="M46.115 24.2444C46.115 21.127 48.6421 18.5997 51.7596 18.5997C54.8771 18.5997 57.4043 21.127 57.4043 24.2444C57.4043 27.3619 54.8771 29.8892 51.7596 29.8892C48.6421 29.8892 46.115 27.3619 46.115 24.2444Z" fill="black"/>
<path opacity="0.64" d="M66.9299 24.2444C66.9299 21.127 69.4571 18.5997 72.5746 18.5997C75.6921 18.5997 78.2192 21.127 78.2192 24.2444C78.2192 27.3619 75.6921 29.8892 72.5746 29.8892C69.4571 29.8892 66.9299 27.3619 66.9299 24.2444Z" fill="black"/>
<path opacity="0.64" d="M87.9205 24.2444C87.9205 21.127 90.4478 18.5997 93.5652 18.5997C96.6827 18.5997 99.21 21.127 99.21 24.2444C99.21 27.3619 96.6827 29.8892 93.5652 29.8892C90.4478 29.8892 87.9205 27.3619 87.9205 24.2444Z" fill="black"/>
<path opacity="0.64" d="M25.2999 150.721C25.2999 147.604 27.8272 145.076 30.9446 145.076C34.0621 145.076 36.5894 147.604 36.5894 150.721C36.5894 153.839 34.0621 156.366 30.9446 156.366C27.8272 156.366 25.2999 153.839 25.2999 150.721Z" fill="black"/>
<path opacity="0.64" d="M46.115 150.721C46.115 147.604 48.6421 145.076 51.7596 145.076C54.8771 145.076 57.4043 147.604 57.4043 150.721C57.4043 153.839 54.8771 156.366 51.7596 156.366C48.6421 156.366 46.115 153.839 46.115 150.721Z" fill="black"/>
<path opacity="0.64" d="M66.9299 150.721C66.9299 147.604 69.4571 145.076 72.5746 145.076C75.6921 145.076 78.2192 147.604 78.2192 150.721C78.2192 153.839 75.6921 156.366 72.5746 156.366C69.4571 156.366 66.9299 153.839 66.9299 150.721Z" fill="black"/>
<path opacity="0.64" d="M87.921 150.721C87.921 147.604 90.4483 145.076 93.5657 145.076C96.6832 145.076 99.2104 147.604 99.2104 150.721C99.2104 153.839 96.6832 156.366 93.5657 156.366C90.4483 156.366 87.921 153.839 87.921 150.721Z" fill="black"/>
<path opacity="0.64" d="M25.2999 132.552C25.2999 129.435 27.8272 126.907 30.9446 126.907C34.0621 126.907 36.5894 129.435 36.5894 132.552C36.5894 135.67 34.0621 138.197 30.9446 138.197C27.8272 138.197 25.2999 135.67 25.2999 132.552Z" fill="black"/>
<path opacity="0.64" d="M46.115 132.552C46.115 129.435 48.6421 126.907 51.7596 126.907C54.8771 126.907 57.4043 129.435 57.4043 132.552C57.4043 135.67 54.8771 138.197 51.7596 138.197C48.6421 138.197 46.115 135.67 46.115 132.552Z" fill="black"/>
<path opacity="0.64" d="M66.9299 132.552C66.9299 129.435 69.4571 126.907 72.5746 126.907C75.6921 126.907 78.2192 129.435 78.2192 132.552C78.2192 135.67 75.6921 138.197 72.5746 138.197C69.4571 138.197 66.9299 135.67 66.9299 132.552Z" fill="black"/>
<path opacity="0.64" d="M87.921 132.552C87.921 129.435 90.4483 126.907 93.5657 126.907C96.6832 126.907 99.2104 129.435 99.2104 132.552C99.2104 135.67 96.6832 138.197 93.5657 138.197C90.4483 138.197 87.921 135.67 87.921 132.552Z" fill="black"/>
<path opacity="0.64" d="M25.2999 114.56C25.2999 111.442 27.8272 108.915 30.9446 108.915C34.0621 108.915 36.5894 111.442 36.5894 114.56C36.5894 117.677 34.0621 120.205 30.9446 120.205C27.8272 120.205 25.2999 117.677 25.2999 114.56Z" fill="black"/>
<path opacity="0.64" d="M46.115 114.56C46.115 111.442 48.6421 108.915 51.7596 108.915C54.8771 108.915 57.4043 111.442 57.4043 114.56C57.4043 117.677 54.8771 120.205 51.7596 120.205C48.6421 120.205 46.115 117.677 46.115 114.56Z" fill="black"/>
<path opacity="0.64" d="M66.9299 114.56C66.9299 111.442 69.4571 108.915 72.5746 108.915C75.6921 108.915 78.2192 111.442 78.2192 114.56C78.2192 117.677 75.6921 120.205 72.5746 120.205C69.4571 120.205 66.9299 117.677 66.9299 114.56Z" fill="black"/>
<path opacity="0.64" d="M87.9205 114.56C87.9205 111.442 90.4478 108.915 93.5652 108.915C96.6827 108.915 99.21 111.442 99.21 114.56C99.21 117.677 96.6827 120.205 93.5652 120.205C90.4478 120.205 87.9205 117.677 87.9205 114.56Z" fill="black"/>
<path opacity="0.64" d="M25.2999 96.3909C25.2999 93.2734 27.8272 90.7463 30.9446 90.7463C34.0621 90.7463 36.5894 93.2734 36.5894 96.3909C36.5894 99.5084 34.0621 102.036 30.9446 102.036C27.8272 102.036 25.2999 99.5084 25.2999 96.3909Z" fill="black"/>
<path opacity="0.64" d="M46.115 96.3909C46.115 93.2734 48.6421 90.7463 51.7596 90.7463C54.8771 90.7463 57.4043 93.2734 57.4043 96.3909C57.4043 99.5084 54.8771 102.036 51.7596 102.036C48.6421 102.036 46.115 99.5084 46.115 96.3909Z" fill="black"/>
<path opacity="0.64" d="M66.9299 96.3909C66.9299 93.2734 69.4571 90.7463 72.5746 90.7463C75.6921 90.7463 78.2192 93.2734 78.2192 96.3909C78.2192 99.5084 75.6921 102.036 72.5746 102.036C69.4571 102.036 66.9299 99.5084 66.9299 96.3909Z" fill="black"/>
<path opacity="0.64" d="M87.9205 96.3909C87.9205 93.2734 90.4478 90.7463 93.5652 90.7463C96.6827 90.7463 99.21 93.2734 99.21 96.3909C99.21 99.5084 96.6827 102.036 93.5652 102.036C90.4478 102.036 87.9205 99.5084 87.9205 96.3909Z" fill="black"/>
<path opacity="0.64" d="M106.09 78.7513C106.09 75.6338 108.617 73.1066 111.734 73.1066C114.852 73.1066 117.379 75.6338 117.379 78.7513C117.379 81.8688 114.852 84.396 111.734 84.396C108.617 84.396 106.09 81.8688 106.09 78.7513Z" fill="black"/>
<path opacity="0.64" d="M126.905 78.7513C126.905 75.6338 129.432 73.1066 132.549 73.1066C135.667 73.1066 138.194 75.6338 138.194 78.7513C138.194 81.8688 135.667 84.396 132.549 84.396C129.432 84.396 126.905 81.8688 126.905 78.7513Z" fill="black"/>
<path opacity="0.64" d="M147.896 78.7513C147.896 75.6338 150.423 73.1066 153.54 73.1066C156.658 73.1066 159.185 75.6338 159.185 78.7513C159.185 81.8688 156.658 84.396 153.54 84.396C150.423 84.396 147.896 81.8688 147.896 78.7513Z" fill="black"/>
<path opacity="0.64" d="M168.711 78.7513C168.711 75.6338 171.238 73.1066 174.355 73.1066C177.473 73.1066 180 75.6338 180 78.7513C180 81.8688 177.473 84.396 174.355 84.396C171.238 84.396 168.711 81.8688 168.711 78.7513Z" fill="black"/>
<path opacity="0.64" d="M106.09 60.5824C106.09 57.4649 108.617 54.9377 111.735 54.9377C114.852 54.9377 117.379 57.4649 117.379 60.5824C117.379 63.6999 114.852 66.2271 111.735 66.2271C108.617 66.2271 106.09 63.6999 106.09 60.5824Z" fill="black"/>
<path opacity="0.64" d="M126.905 60.5824C126.905 57.4649 129.432 54.9377 132.55 54.9377C135.667 54.9377 138.194 57.4649 138.194 60.5824C138.194 63.6999 135.667 66.2271 132.55 66.2271C129.432 66.2271 126.905 63.6999 126.905 60.5824Z" fill="black"/>
<path opacity="0.64" d="M147.896 60.5824C147.896 57.4649 150.423 54.9377 153.54 54.9377C156.658 54.9377 159.185 57.4649 159.185 60.5824C159.185 63.6999 156.658 66.2271 153.54 66.2271C150.423 66.2271 147.896 63.6999 147.896 60.5824Z" fill="black"/>
<path opacity="0.64" d="M168.711 60.5824C168.711 57.4649 171.238 54.9377 174.355 54.9377C177.473 54.9377 180 57.4649 180 60.5824C180 63.6999 177.473 66.2271 174.355 66.2271C171.238 66.2271 168.711 63.6999 168.711 60.5824Z" fill="black"/>
<path opacity="0.64" d="M106.09 42.4134C106.09 39.2959 108.617 36.7687 111.734 36.7687C114.852 36.7687 117.379 39.2959 117.379 42.4134C117.379 45.5309 114.852 48.0581 111.734 48.0581C108.617 48.0581 106.09 45.5309 106.09 42.4134Z" fill="black"/>
<path opacity="0.64" d="M126.905 42.4134C126.905 39.2959 129.432 36.7687 132.549 36.7687C135.667 36.7687 138.194 39.2959 138.194 42.4134C138.194 45.5309 135.667 48.0581 132.549 48.0581C129.432 48.0581 126.905 45.5309 126.905 42.4134Z" fill="black"/>
<path opacity="0.64" d="M147.896 42.4134C147.896 39.2959 150.423 36.7687 153.54 36.7687C156.658 36.7687 159.185 39.2959 159.185 42.4134C159.185 45.5309 156.658 48.0581 153.54 48.0581C150.423 48.0581 147.896 45.5309 147.896 42.4134Z" fill="black"/>
<path opacity="0.64" d="M168.711 42.4134C168.711 39.2959 171.238 36.7687 174.355 36.7687C177.473 36.7687 180 39.2959 180 42.4134C180 45.5309 177.473 48.0581 174.355 48.0581C171.238 48.0581 168.711 45.5309 168.711 42.4134Z" fill="black"/>
<path opacity="0.64" d="M106.09 24.2444C106.09 21.127 108.617 18.5997 111.734 18.5997C114.852 18.5997 117.379 21.127 117.379 24.2444C117.379 27.3619 114.852 29.8892 111.734 29.8892C108.617 29.8892 106.09 27.3619 106.09 24.2444Z" fill="black"/>
<path opacity="0.64" d="M126.905 24.2444C126.905 21.127 129.432 18.5997 132.549 18.5997C135.667 18.5997 138.194 21.127 138.194 24.2444C138.194 27.3619 135.667 29.8892 132.549 29.8892C129.432 29.8892 126.905 27.3619 126.905 24.2444Z" fill="black"/>
<path opacity="0.64" d="M147.896 24.2444C147.896 21.127 150.423 18.5997 153.54 18.5997C156.658 18.5997 159.185 21.127 159.185 24.2444C159.185 27.3619 156.658 29.8892 153.54 29.8892C150.423 29.8892 147.896 27.3619 147.896 24.2444Z" fill="black"/>
<path opacity="0.64" d="M168.711 24.2444C168.711 21.127 171.238 18.5997 174.355 18.5997C177.473 18.5997 180 21.127 180 24.2444C180 27.3619 177.473 29.8892 174.355 29.8892C171.238 29.8892 168.711 27.3619 168.711 24.2444Z" fill="black"/>
<path opacity="0.64" d="M106.09 150.721C106.09 147.604 108.617 145.076 111.735 145.076C114.852 145.076 117.379 147.604 117.379 150.721C117.379 153.839 114.852 156.366 111.735 156.366C108.617 156.366 106.09 153.839 106.09 150.721Z" fill="black"/>
<path opacity="0.64" d="M126.905 150.721C126.905 147.604 129.432 145.076 132.55 145.076C135.667 145.076 138.194 147.604 138.194 150.721C138.194 153.839 135.667 156.366 132.55 156.366C129.432 156.366 126.905 153.839 126.905 150.721Z" fill="black"/>
<path opacity="0.64" d="M147.896 150.721C147.896 147.604 150.423 145.076 153.54 145.076C156.658 145.076 159.185 147.604 159.185 150.721C159.185 153.839 156.658 156.366 153.54 156.366C150.423 156.366 147.896 153.839 147.896 150.721Z" fill="black"/>
<path opacity="0.64" d="M168.711 150.721C168.711 147.604 171.238 145.076 174.355 145.076C177.473 145.076 180 147.604 180 150.721C180 153.839 177.473 156.366 174.355 156.366C171.238 156.366 168.711 153.839 168.711 150.721Z" fill="black"/>
<path opacity="0.64" d="M106.09 132.552C106.09 129.435 108.617 126.907 111.735 126.907C114.852 126.907 117.379 129.435 117.379 132.552C117.379 135.67 114.852 138.197 111.735 138.197C108.617 138.197 106.09 135.67 106.09 132.552Z" fill="black"/>
<path opacity="0.64" d="M126.905 132.552C126.905 129.435 129.432 126.907 132.55 126.907C135.667 126.907 138.194 129.435 138.194 132.552C138.194 135.67 135.667 138.197 132.55 138.197C129.432 138.197 126.905 135.67 126.905 132.552Z" fill="black"/>
<path opacity="0.64" d="M147.896 132.552C147.896 129.435 150.423 126.907 153.54 126.907C156.658 126.907 159.185 129.435 159.185 132.552C159.185 135.67 156.658 138.197 153.54 138.197C150.423 138.197 147.896 135.67 147.896 132.552Z" fill="black"/>
<path opacity="0.64" d="M168.711 132.552C168.711 129.435 171.238 126.907 174.355 126.907C177.473 126.907 180 129.435 180 132.552C180 135.67 177.473 138.197 174.355 138.197C171.238 138.197 168.711 135.67 168.711 132.552Z" fill="black"/>
<path opacity="0.64" d="M106.09 114.56C106.09 111.442 108.617 108.915 111.734 108.915C114.852 108.915 117.379 111.442 117.379 114.56C117.379 117.677 114.852 120.205 111.734 120.205C108.617 120.205 106.09 117.677 106.09 114.56Z" fill="black"/>
<path opacity="0.64" d="M126.905 114.56C126.905 111.442 129.432 108.915 132.549 108.915C135.667 108.915 138.194 111.442 138.194 114.56C138.194 117.677 135.667 120.205 132.549 120.205C129.432 120.205 126.905 117.677 126.905 114.56Z" fill="black"/>
<path opacity="0.64" d="M147.896 114.56C147.896 111.442 150.423 108.915 153.54 108.915C156.658 108.915 159.185 111.442 159.185 114.56C159.185 117.677 156.658 120.205 153.54 120.205C150.423 120.205 147.896 117.677 147.896 114.56Z" fill="black"/>
<path opacity="0.64" d="M168.711 114.56C168.711 111.442 171.238 108.915 174.355 108.915C177.473 108.915 180 111.442 180 114.56C180 117.677 177.473 120.205 174.355 120.205C171.238 120.205 168.711 117.677 168.711 114.56Z" fill="black"/>
<path opacity="0.64" d="M106.09 96.3909C106.09 93.2734 108.617 90.7463 111.734 90.7463C114.852 90.7463 117.379 93.2734 117.379 96.3909C117.379 99.5084 114.852 102.036 111.734 102.036C108.617 102.036 106.09 99.5084 106.09 96.3909Z" fill="black"/>
<path opacity="0.64" d="M126.905 96.3909C126.905 93.2734 129.432 90.7463 132.549 90.7463C135.667 90.7463 138.194 93.2734 138.194 96.3909C138.194 99.5084 135.667 102.036 132.549 102.036C129.432 102.036 126.905 99.5084 126.905 96.3909Z" fill="black"/>
<path opacity="0.64" d="M147.896 96.3909C147.896 93.2734 150.423 90.7463 153.54 90.7463C156.658 90.7463 159.185 93.2734 159.185 96.3909C159.185 99.5084 156.658 102.036 153.54 102.036C150.423 102.036 147.896 99.5084 147.896 96.3909Z" fill="black"/>
<path opacity="0.64" d="M168.711 96.3909C168.711 93.2734 171.238 90.7463 174.355 90.7463C177.473 90.7463 180 93.2734 180 96.3909C180 99.5084 177.473 102.036 174.355 102.036C171.238 102.036 168.711 99.5084 168.711 96.3909Z" fill="black"/>
<path opacity="0.64" d="M25.2999 221.81C25.2999 218.692 27.8272 216.165 30.9446 216.165C34.0621 216.165 36.5894 218.692 36.5894 221.81C36.5894 224.927 34.0621 227.455 30.9446 227.455C27.8272 227.455 25.2999 224.927 25.2999 221.81Z" fill="black"/>
<path opacity="0.64" d="M46.115 221.81C46.115 218.692 48.6421 216.165 51.7596 216.165C54.8771 216.165 57.4043 218.692 57.4043 221.81C57.4043 224.927 54.8771 227.455 51.7596 227.455C48.6421 227.455 46.115 224.927 46.115 221.81Z" fill="black"/>
<path opacity="0.64" d="M66.9299 221.81C66.9299 218.692 69.4571 216.165 72.5746 216.165C75.6921 216.165 78.2192 218.692 78.2192 221.81C78.2192 224.927 75.6921 227.455 72.5746 227.455C69.4571 227.455 66.9299 224.927 66.9299 221.81Z" fill="black"/>
<path opacity="0.64" d="M87.9205 221.81C87.9205 218.692 90.4478 216.165 93.5652 216.165C96.6827 216.165 99.21 218.692 99.21 221.81C99.21 224.927 96.6827 227.455 93.5652 227.455C90.4478 227.455 87.9205 224.927 87.9205 221.81Z" fill="black"/>
<path opacity="0.64" d="M25.2999 203.817C25.2999 200.699 27.8272 198.172 30.9446 198.172C34.0621 198.172 36.5894 200.699 36.5894 203.817C36.5894 206.934 34.0621 209.461 30.9446 209.461C27.8272 209.461 25.2999 206.934 25.2999 203.817Z" fill="black"/>
<path opacity="0.64" d="M46.115 203.817C46.115 200.699 48.6421 198.172 51.7596 198.172C54.8771 198.172 57.4043 200.699 57.4043 203.817C57.4043 206.934 54.8771 209.461 51.7596 209.461C48.6421 209.461 46.115 206.934 46.115 203.817Z" fill="black"/>
<path opacity="0.64" d="M66.9299 203.817C66.9299 200.699 69.4571 198.172 72.5746 198.172C75.6921 198.172 78.2192 200.699 78.2192 203.817C78.2192 206.934 75.6921 209.461 72.5746 209.461C69.4571 209.461 66.9299 206.934 66.9299 203.817Z" fill="black"/>
<path opacity="0.64" d="M87.921 203.817C87.921 200.699 90.4483 198.172 93.5657 198.172C96.6832 198.172 99.2104 200.699 99.2104 203.817C99.2104 206.934 96.6832 209.461 93.5657 209.461C90.4483 209.461 87.921 206.934 87.921 203.817Z" fill="black"/>
<path opacity="0.64" d="M25.2999 185.648C25.2999 182.53 27.8272 180.003 30.9446 180.003C34.0621 180.003 36.5894 182.53 36.5894 185.648C36.5894 188.765 34.0621 191.292 30.9446 191.292C27.8272 191.292 25.2999 188.765 25.2999 185.648Z" fill="black"/>
<path opacity="0.64" d="M46.115 185.648C46.115 182.53 48.6421 180.003 51.7596 180.003C54.8771 180.003 57.4043 182.53 57.4043 185.648C57.4043 188.765 54.8771 191.292 51.7596 191.292C48.6421 191.292 46.115 188.765 46.115 185.648Z" fill="black"/>
<path opacity="0.64" d="M66.9299 185.648C66.9299 182.53 69.4571 180.003 72.5746 180.003C75.6921 180.003 78.2192 182.53 78.2192 185.648C78.2192 188.765 75.6921 191.292 72.5746 191.292C69.4571 191.292 66.9299 188.765 66.9299 185.648Z" fill="black"/>
<path opacity="0.64" d="M87.921 185.648C87.921 182.53 90.4483 180.003 93.5657 180.003C96.6832 180.003 99.2104 182.53 99.2104 185.648C99.2104 188.765 96.6832 191.292 93.5657 191.292C90.4483 191.292 87.921 188.765 87.921 185.648Z" fill="black"/>
<path opacity="0.64" d="M25.2999 167.479C25.2999 164.361 27.8272 161.834 30.9446 161.834C34.0621 161.834 36.5894 164.361 36.5894 167.479C36.5894 170.596 34.0621 173.124 30.9446 173.124C27.8272 173.124 25.2999 170.596 25.2999 167.479Z" fill="black"/>
<path opacity="0.64" d="M46.115 167.479C46.115 164.361 48.6421 161.834 51.7596 161.834C54.8771 161.834 57.4043 164.361 57.4043 167.479C57.4043 170.596 54.8771 173.124 51.7596 173.124C48.6421 173.124 46.115 170.596 46.115 167.479Z" fill="black"/>
<path opacity="0.64" d="M66.9299 167.479C66.9299 164.361 69.4571 161.834 72.5746 161.834C75.6921 161.834 78.2192 164.361 78.2192 167.479C78.2192 170.596 75.6921 173.124 72.5746 173.124C69.4571 173.124 66.9299 170.596 66.9299 167.479Z" fill="black"/>
<path opacity="0.64" d="M87.921 167.479C87.921 164.361 90.4483 161.834 93.5657 161.834C96.6832 161.834 99.2104 164.361 99.2104 167.479C99.2104 170.596 96.6832 173.124 93.5657 173.124C90.4483 173.124 87.921 170.596 87.921 167.479Z" fill="black"/>
<path opacity="0.64" d="M25.2999 293.955C25.2999 290.838 27.8272 288.311 30.9446 288.311C34.0621 288.311 36.5894 290.838 36.5894 293.955C36.5894 297.073 34.0621 299.6 30.9446 299.6C27.8272 299.6 25.2999 297.073 25.2999 293.955Z" fill="black"/>
<path opacity="0.64" d="M46.115 293.955C46.115 290.838 48.6421 288.311 51.7596 288.311C54.8771 288.311 57.4043 290.838 57.4043 293.955C57.4043 297.073 54.8771 299.6 51.7596 299.6C48.6421 299.6 46.115 297.073 46.115 293.955Z" fill="black"/>
<path opacity="0.64" d="M66.9299 293.955C66.9299 290.838 69.4571 288.311 72.5746 288.311C75.6921 288.311 78.2192 290.838 78.2192 293.955C78.2192 297.073 75.6921 299.6 72.5746 299.6C69.4571 299.6 66.9299 297.073 66.9299 293.955Z" fill="black"/>
<path opacity="0.64" d="M87.9205 293.955C87.9205 290.838 90.4478 288.311 93.5652 288.311C96.6827 288.311 99.21 290.838 99.21 293.955C99.21 297.073 96.6827 299.6 93.5652 299.6C90.4478 299.6 87.9205 297.073 87.9205 293.955Z" fill="black"/>
<path opacity="0.64" d="M25.2999 275.786C25.2999 272.669 27.8272 270.142 30.9446 270.142C34.0621 270.142 36.5894 272.669 36.5894 275.786C36.5894 278.904 34.0621 281.431 30.9446 281.431C27.8272 281.431 25.2999 278.904 25.2999 275.786Z" fill="black"/>
<path opacity="0.64" d="M46.115 275.786C46.115 272.669 48.6421 270.142 51.7596 270.142C54.8771 270.142 57.4043 272.669 57.4043 275.786C57.4043 278.904 54.8771 281.431 51.7596 281.431C48.6421 281.431 46.115 278.904 46.115 275.786Z" fill="black"/>
<path opacity="0.64" d="M66.9299 275.786C66.9299 272.669 69.4571 270.142 72.5746 270.142C75.6921 270.142 78.2192 272.669 78.2192 275.786C78.2192 278.904 75.6921 281.431 72.5746 281.431C69.4571 281.431 66.9299 278.904 66.9299 275.786Z" fill="black"/>
<path opacity="0.64" d="M87.9205 275.786C87.9205 272.669 90.4478 270.142 93.5652 270.142C96.6827 270.142 99.21 272.669 99.21 275.786C99.21 278.904 96.6827 281.431 93.5652 281.431C90.4478 281.431 87.9205 278.904 87.9205 275.786Z" fill="black"/>
<path opacity="0.64" d="M25.2999 257.617C25.2999 254.5 27.8272 251.973 30.9446 251.973C34.0621 251.973 36.5894 254.5 36.5894 257.617C36.5894 260.735 34.0621 263.262 30.9446 263.262C27.8272 263.262 25.2999 260.735 25.2999 257.617Z" fill="black"/>
<path opacity="0.64" d="M46.115 257.617C46.115 254.5 48.6421 251.973 51.7596 251.973C54.8771 251.973 57.4043 254.5 57.4043 257.617C57.4043 260.735 54.8771 263.262 51.7596 263.262C48.6421 263.262 46.115 260.735 46.115 257.617Z" fill="black"/>
<path opacity="0.64" d="M66.9299 257.617C66.9299 254.5 69.4571 251.973 72.5746 251.973C75.6921 251.973 78.2192 254.5 78.2192 257.617C78.2192 260.735 75.6921 263.262 72.5746 263.262C69.4571 263.262 66.9299 260.735 66.9299 257.617Z" fill="black"/>
<path opacity="0.64" d="M87.9205 257.617C87.9205 254.5 90.4478 251.973 93.5652 251.973C96.6827 251.973 99.21 254.5 99.21 257.617C99.21 260.735 96.6827 263.262 93.5652 263.262C90.4478 263.262 87.9205 260.735 87.9205 257.617Z" fill="black"/>
<path opacity="0.64" d="M25.2999 239.45C25.2999 236.332 27.8272 233.805 30.9446 233.805C34.0621 233.805 36.5894 236.332 36.5894 239.45C36.5894 242.567 34.0621 245.094 30.9446 245.094C27.8272 245.094 25.2999 242.567 25.2999 239.45Z" fill="black"/>
<path opacity="0.64" d="M46.115 239.45C46.115 236.332 48.6421 233.805 51.7596 233.805C54.8771 233.805 57.4043 236.332 57.4043 239.45C57.4043 242.567 54.8771 245.094 51.7596 245.094C48.6421 245.094 46.115 242.567 46.115 239.45Z" fill="black"/>
<path opacity="0.64" d="M66.9299 239.45C66.9299 236.332 69.4571 233.805 72.5746 233.805C75.6921 233.805 78.2192 236.332 78.2192 239.45C78.2192 242.567 75.6921 245.094 72.5746 245.094C69.4571 245.094 66.9299 242.567 66.9299 239.45Z" fill="black"/>
<path opacity="0.64" d="M87.9205 239.45C87.9205 236.332 90.4478 233.805 93.5652 233.805C96.6827 233.805 99.21 236.332 99.21 239.45C99.21 242.567 96.6827 245.094 93.5652 245.094C90.4478 245.094 87.9205 242.567 87.9205 239.45Z" fill="black"/>
<path opacity="0.64" d="M106.09 221.81C106.09 218.692 108.617 216.165 111.735 216.165C114.852 216.165 117.379 218.692 117.379 221.81C117.379 224.927 114.852 227.455 111.735 227.455C108.617 227.455 106.09 224.927 106.09 221.81Z" fill="black"/>
<path opacity="0.64" d="M126.905 221.81C126.905 218.692 129.432 216.165 132.549 216.165C135.667 216.165 138.194 218.692 138.194 221.81C138.194 224.927 135.667 227.455 132.549 227.455C129.432 227.455 126.905 224.927 126.905 221.81Z" fill="black"/>
<path opacity="0.64" d="M147.896 221.81C147.896 218.692 150.423 216.165 153.54 216.165C156.658 216.165 159.185 218.692 159.185 221.81C159.185 224.927 156.658 227.455 153.54 227.455C150.423 227.455 147.896 224.927 147.896 221.81Z" fill="black"/>
<path opacity="0.64" d="M168.711 221.81C168.711 218.692 171.238 216.165 174.355 216.165C177.473 216.165 180 218.692 180 221.81C180 224.927 177.473 227.455 174.355 227.455C171.238 227.455 168.711 224.927 168.711 221.81Z" fill="black"/>
<path opacity="0.64" d="M106.09 203.817C106.09 200.699 108.617 198.172 111.734 198.172C114.852 198.172 117.379 200.699 117.379 203.817C117.379 206.934 114.852 209.461 111.734 209.461C108.617 209.461 106.09 206.934 106.09 203.817Z" fill="black"/>
<path opacity="0.64" d="M126.905 203.817C126.905 200.699 129.432 198.172 132.549 198.172C135.667 198.172 138.194 200.699 138.194 203.817C138.194 206.934 135.667 209.461 132.549 209.461C129.432 209.461 126.905 206.934 126.905 203.817Z" fill="black"/>
<path opacity="0.64" d="M147.896 203.817C147.896 200.699 150.423 198.172 153.54 198.172C156.658 198.172 159.185 200.699 159.185 203.817C159.185 206.934 156.658 209.461 153.54 209.461C150.423 209.461 147.896 206.934 147.896 203.817Z" fill="black"/>
<path opacity="0.64" d="M168.711 203.817C168.711 200.699 171.238 198.172 174.355 198.172C177.473 198.172 180 200.699 180 203.817C180 206.934 177.473 209.461 174.355 209.461C171.238 209.461 168.711 206.934 168.711 203.817Z" fill="black"/>
<path opacity="0.64" d="M106.09 185.648C106.09 182.53 108.617 180.003 111.734 180.003C114.852 180.003 117.379 182.53 117.379 185.648C117.379 188.765 114.852 191.292 111.734 191.292C108.617 191.292 106.09 188.765 106.09 185.648Z" fill="black"/>
<path opacity="0.64" d="M126.905 185.648C126.905 182.53 129.432 180.003 132.549 180.003C135.667 180.003 138.194 182.53 138.194 185.648C138.194 188.765 135.667 191.292 132.549 191.292C129.432 191.292 126.905 188.765 126.905 185.648Z" fill="black"/>
<path opacity="0.64" d="M147.896 185.648C147.896 182.53 150.423 180.003 153.54 180.003C156.658 180.003 159.185 182.53 159.185 185.648C159.185 188.765 156.658 191.292 153.54 191.292C150.423 191.292 147.896 188.765 147.896 185.648Z" fill="black"/>
<path opacity="0.64" d="M168.711 185.648C168.711 182.53 171.238 180.003 174.355 180.003C177.473 180.003 180 182.53 180 185.648C180 188.765 177.473 191.292 174.355 191.292C171.238 191.292 168.711 188.765 168.711 185.648Z" fill="black"/>
<path opacity="0.64" d="M106.09 167.479C106.09 164.361 108.617 161.834 111.734 161.834C114.852 161.834 117.379 164.361 117.379 167.479C117.379 170.596 114.852 173.124 111.734 173.124C108.617 173.124 106.09 170.596 106.09 167.479Z" fill="black"/>
<path opacity="0.64" d="M126.905 167.479C126.905 164.361 129.432 161.834 132.549 161.834C135.667 161.834 138.194 164.361 138.194 167.479C138.194 170.596 135.667 173.124 132.549 173.124C129.432 173.124 126.905 170.596 126.905 167.479Z" fill="black"/>
<path opacity="0.64" d="M147.896 167.479C147.896 164.361 150.423 161.834 153.54 161.834C156.658 161.834 159.185 164.361 159.185 167.479C159.185 170.596 156.658 173.124 153.54 173.124C150.423 173.124 147.896 170.596 147.896 167.479Z" fill="black"/>
<path opacity="0.64" d="M168.711 167.479C168.711 164.361 171.238 161.834 174.355 161.834C177.473 161.834 180 164.361 180 167.479C180 170.596 177.473 173.124 174.355 173.124C171.238 173.124 168.711 170.596 168.711 167.479Z" fill="black"/>
<path opacity="0.64" d="M106.09 293.955C106.09 290.838 108.617 288.311 111.735 288.311C114.852 288.311 117.379 290.838 117.379 293.955C117.379 297.073 114.852 299.6 111.735 299.6C108.617 299.6 106.09 297.073 106.09 293.955Z" fill="black"/>
<path opacity="0.64" d="M126.905 293.955C126.905 290.838 129.432 288.311 132.549 288.311C135.667 288.311 138.194 290.838 138.194 293.955C138.194 297.073 135.667 299.6 132.549 299.6C129.432 299.6 126.905 297.073 126.905 293.955Z" fill="black"/>
<path opacity="0.64" d="M147.896 293.955C147.896 290.838 150.423 288.311 153.54 288.311C156.658 288.311 159.185 290.838 159.185 293.955C159.185 297.073 156.658 299.6 153.54 299.6C150.423 299.6 147.896 297.073 147.896 293.955Z" fill="black"/>
<path opacity="0.64" d="M168.711 293.955C168.711 290.838 171.238 288.311 174.355 288.311C177.473 288.311 180 290.838 180 293.955C180 297.073 177.473 299.6 174.355 299.6C171.238 299.6 168.711 297.073 168.711 293.955Z" fill="black"/>
<path opacity="0.64" d="M106.09 275.786C106.09 272.669 108.617 270.142 111.735 270.142C114.852 270.142 117.379 272.669 117.379 275.786C117.379 278.904 114.852 281.431 111.735 281.431C108.617 281.431 106.09 278.904 106.09 275.786Z" fill="black"/>
<path opacity="0.64" d="M126.905 275.786C126.905 272.669 129.432 270.142 132.549 270.142C135.667 270.142 138.194 272.669 138.194 275.786C138.194 278.904 135.667 281.431 132.549 281.431C129.432 281.431 126.905 278.904 126.905 275.786Z" fill="black"/>
<path opacity="0.64" d="M147.896 275.786C147.896 272.669 150.423 270.142 153.54 270.142C156.658 270.142 159.185 272.669 159.185 275.786C159.185 278.904 156.658 281.431 153.54 281.431C150.423 281.431 147.896 278.904 147.896 275.786Z" fill="black"/>
<path opacity="0.64" d="M168.711 275.786C168.711 272.669 171.238 270.142 174.355 270.142C177.473 270.142 180 272.669 180 275.786C180 278.904 177.473 281.431 174.355 281.431C171.238 281.431 168.711 278.904 168.711 275.786Z" fill="black"/>
<path opacity="0.64" d="M106.09 257.617C106.09 254.5 108.617 251.973 111.735 251.973C114.852 251.973 117.379 254.5 117.379 257.617C117.379 260.735 114.852 263.262 111.735 263.262C108.617 263.262 106.09 260.735 106.09 257.617Z" fill="black"/>
<path opacity="0.64" d="M126.905 257.617C126.905 254.5 129.432 251.973 132.549 251.973C135.667 251.973 138.194 254.5 138.194 257.617C138.194 260.735 135.667 263.262 132.549 263.262C129.432 263.262 126.905 260.735 126.905 257.617Z" fill="black"/>
<path opacity="0.64" d="M147.896 257.617C147.896 254.5 150.423 251.973 153.54 251.973C156.658 251.973 159.185 254.5 159.185 257.617C159.185 260.735 156.658 263.262 153.54 263.262C150.423 263.262 147.896 260.735 147.896 257.617Z" fill="black"/>
<path opacity="0.64" d="M168.711 257.617C168.711 254.5 171.238 251.973 174.355 251.973C177.473 251.973 180 254.5 180 257.617C180 260.735 177.473 263.262 174.355 263.262C171.238 263.262 168.711 260.735 168.711 257.617Z" fill="black"/>
<path opacity="0.64" d="M106.09 239.45C106.09 236.332 108.617 233.805 111.735 233.805C114.852 233.805 117.379 236.332 117.379 239.45C117.379 242.567 114.852 245.094 111.735 245.094C108.617 245.094 106.09 242.567 106.09 239.45Z" fill="black"/>
<path opacity="0.64" d="M126.905 239.45C126.905 236.332 129.432 233.805 132.549 233.805C135.667 233.805 138.194 236.332 138.194 239.45C138.194 242.567 135.667 245.094 132.549 245.094C129.432 245.094 126.905 242.567 126.905 239.45Z" fill="black"/>
<path opacity="0.64" d="M147.896 239.45C147.896 236.332 150.423 233.805 153.54 233.805C156.658 233.805 159.185 236.332 159.185 239.45C159.185 242.567 156.658 245.094 153.54 245.094C150.423 245.094 147.896 242.567 147.896 239.45Z" fill="black"/>
<path opacity="0.64" d="M168.711 239.45C168.711 236.332 171.238 233.805 174.355 233.805C177.473 233.805 180 236.332 180 239.45C180 242.567 177.473 245.094 174.355 245.094C171.238 245.094 168.711 242.567 168.711 239.45Z" fill="black"/>
</g>
<path d="M30.6 0.00012207C47.4999 0.00012207 61.2 9.08873 61.2 20.3001C61.2 31.5115 47.4999 40.6001 30.6 40.6001C13.7001 40.6001 0 31.5115 0 20.3001C0 9.08873 13.7001 0.00012207 30.6 0.00012207Z" fill="#23335D"/>
<path d="M30.1999 33.3001V8.40014C28.4712 8.24505 26.7291 8.45163 25.0846 9.00682C23.4401 9.56202 21.9293 10.4536 20.6483 11.6248C19.3673 12.796 18.3443 14.2212 17.6444 15.8095C16.9445 17.3978 16.583 19.1144 16.583 20.8501C16.583 22.5858 16.9445 24.3024 17.6444 25.8907C18.3443 27.479 19.3673 28.9042 20.6483 30.0754C21.9293 31.2466 23.4401 32.1382 25.0846 32.6933C26.7291 33.2485 28.4712 33.4552 30.1999 33.3001Z" fill="#93CDE0"/>
<path d="M33.2002 8.79852V29.4985C35.7697 29.2457 38.1533 28.0461 39.8872 26.1331C41.6212 24.2201 42.5816 21.7305 42.5816 19.1486C42.5816 16.5667 41.6212 14.077 39.8872 12.164C38.1533 10.251 35.7697 9.0514 33.2002 8.79852Z" fill="#FDFDFD"/>
</svg>
