<svg width="182" height="281" viewBox="0 0 182 281" fill="none" xmlns="http://www.w3.org/2000/svg">
<g opacity="0.05">
<path opacity="0.64" d="M0.000116102 220.85C0.000115965 223.967 2.52735 226.494 5.64483 226.494C8.76231 226.494 11.2896 223.967 11.2896 220.85C11.2896 217.732 8.76231 215.205 5.64483 215.205C2.52735 215.205 0.000116238 217.732 0.000116102 220.85Z" fill="black"/>
<path opacity="0.64" d="M20.8152 220.85C20.8152 223.967 23.3423 226.494 26.4598 226.494C29.5773 226.494 32.1045 223.967 32.1045 220.85C32.1045 217.732 29.5773 215.205 26.4598 215.205C23.3423 215.205 20.8152 217.732 20.8152 220.85Z" fill="black"/>
<path opacity="0.64" d="M41.6301 220.85C41.6301 223.967 44.1573 226.494 47.2748 226.494C50.3923 226.494 52.9194 223.967 52.9194 220.85C52.9194 217.732 50.3923 215.205 47.2748 215.205C44.1573 215.205 41.6301 217.732 41.6301 220.85Z" fill="black"/>
<path opacity="0.64" d="M62.621 220.85C62.621 223.967 65.1482 226.494 68.2657 226.494C71.3832 226.494 73.9104 223.967 73.9104 220.85C73.9104 217.732 71.3832 215.205 68.2657 215.205C65.1482 215.205 62.621 217.732 62.621 220.85Z" fill="black"/>
<path opacity="0.64" d="M0.000116102 239.018C0.000115965 242.135 2.52735 244.662 5.64483 244.662C8.76231 244.662 11.2896 242.135 11.2896 239.018C11.2896 235.9 8.76231 233.373 5.64483 233.373C2.52735 233.373 0.000116238 235.9 0.000116102 239.018Z" fill="black"/>
<path opacity="0.64" d="M20.8152 239.019C20.8152 242.136 23.3423 244.663 26.4598 244.663C29.5773 244.663 32.1045 242.136 32.1045 239.019C32.1045 235.901 29.5773 233.374 26.4598 233.374C23.3423 233.374 20.8152 235.901 20.8152 239.019Z" fill="black"/>
<path opacity="0.64" d="M41.6301 239.019C41.6301 242.136 44.1573 244.663 47.2748 244.663C50.3923 244.663 52.9194 242.136 52.9194 239.019C52.9194 235.901 50.3923 233.374 47.2748 233.374C44.1573 233.374 41.6301 235.901 41.6301 239.019Z" fill="black"/>
<path opacity="0.64" d="M62.621 239.019C62.621 242.136 65.1482 244.663 68.2657 244.663C71.3832 244.663 73.9104 242.136 73.9104 239.019C73.9104 235.901 71.3832 233.374 68.2657 233.374C65.1482 233.374 62.621 235.901 62.621 239.019Z" fill="black"/>
<path opacity="0.64" d="M0.000116102 257.187C0.000115965 260.304 2.52735 262.831 5.64483 262.831C8.76231 262.831 11.2896 260.304 11.2896 257.187C11.2896 254.069 8.76231 251.542 5.64483 251.542C2.52735 251.542 0.000116238 254.069 0.000116102 257.187Z" fill="black"/>
<path opacity="0.64" d="M20.8152 257.187C20.8152 260.304 23.3423 262.831 26.4598 262.831C29.5773 262.831 32.1045 260.304 32.1045 257.187C32.1045 254.069 29.5773 251.542 26.4598 251.542C23.3423 251.542 20.8152 254.069 20.8152 257.187Z" fill="black"/>
<path opacity="0.64" d="M41.6301 257.187C41.6301 260.304 44.1573 262.831 47.2748 262.831C50.3923 262.831 52.9194 260.304 52.9194 257.187C52.9194 254.069 50.3923 251.542 47.2748 251.542C44.1573 251.542 41.6301 254.069 41.6301 257.187Z" fill="black"/>
<path opacity="0.64" d="M62.621 257.187C62.621 260.304 65.1482 262.831 68.2657 262.831C71.3832 262.831 73.9104 260.304 73.9104 257.187C73.9104 254.069 71.3832 251.542 68.2657 251.542C65.1482 251.542 62.621 254.069 62.621 257.187Z" fill="black"/>
<path opacity="0.64" d="M0.000116102 275.356C0.000115965 278.473 2.52735 281 5.64483 281C8.76231 281 11.2896 278.473 11.2896 275.356C11.2896 272.238 8.76231 269.711 5.64483 269.711C2.52735 269.711 0.000116238 272.238 0.000116102 275.356Z" fill="black"/>
<path opacity="0.64" d="M20.8152 275.356C20.8152 278.473 23.3423 281 26.4598 281C29.5773 281 32.1045 278.473 32.1045 275.356C32.1045 272.238 29.5773 269.711 26.4598 269.711C23.3423 269.711 20.8152 272.238 20.8152 275.356Z" fill="black"/>
<path opacity="0.64" d="M41.6301 275.356C41.6301 278.473 44.1573 281 47.2748 281C50.3923 281 52.9194 278.473 52.9194 275.356C52.9194 272.238 50.3923 269.711 47.2748 269.711C44.1573 269.711 41.6301 272.238 41.6301 275.356Z" fill="black"/>
<path opacity="0.64" d="M62.621 275.356C62.621 278.473 65.1482 281 68.2657 281C71.3832 281 73.9104 278.473 73.9104 275.356C73.9104 272.238 71.3832 269.711 68.2657 269.711C65.1482 269.711 62.621 272.238 62.621 275.356Z" fill="black"/>
<path opacity="0.64" d="M0.000116102 148.879C0.000115965 151.997 2.52735 154.524 5.64483 154.524C8.76231 154.524 11.2896 151.997 11.2896 148.879C11.2896 145.762 8.76231 143.234 5.64483 143.234C2.52735 143.234 0.000116238 145.762 0.000116102 148.879Z" fill="black"/>
<path opacity="0.64" d="M20.8152 148.879C20.8152 151.997 23.3423 154.524 26.4598 154.524C29.5773 154.524 32.1045 151.997 32.1045 148.879C32.1045 145.762 29.5773 143.234 26.4598 143.234C23.3423 143.234 20.8152 145.762 20.8152 148.879Z" fill="black"/>
<path opacity="0.64" d="M41.6301 148.879C41.6301 151.997 44.1573 154.524 47.2748 154.524C50.3923 154.524 52.9194 151.997 52.9194 148.879C52.9194 145.762 50.3923 143.234 47.2748 143.234C44.1573 143.234 41.6301 145.762 41.6301 148.879Z" fill="black"/>
<path opacity="0.64" d="M62.621 148.879C62.621 151.997 65.1482 154.524 68.2657 154.524C71.3832 154.524 73.9104 151.997 73.9104 148.879C73.9104 145.762 71.3832 143.234 68.2657 143.234C65.1482 143.234 62.621 145.762 62.621 148.879Z" fill="black"/>
<path opacity="0.64" d="M0.000116102 167.048C0.000115965 170.166 2.52735 172.693 5.64483 172.693C8.76231 172.693 11.2896 170.166 11.2896 167.048C11.2896 163.931 8.76231 161.403 5.64483 161.403C2.52735 161.403 0.000116238 163.931 0.000116102 167.048Z" fill="black"/>
<path opacity="0.64" d="M20.8152 167.048C20.8152 170.166 23.3423 172.693 26.4598 172.693C29.5773 172.693 32.1045 170.166 32.1045 167.048C32.1045 163.931 29.5773 161.403 26.4598 161.403C23.3423 161.403 20.8152 163.931 20.8152 167.048Z" fill="black"/>
<path opacity="0.64" d="M41.6301 167.048C41.6301 170.166 44.1573 172.693 47.2748 172.693C50.3923 172.693 52.9194 170.166 52.9194 167.048C52.9194 163.931 50.3923 161.403 47.2748 161.403C44.1573 161.403 41.6301 163.931 41.6301 167.048Z" fill="black"/>
<path opacity="0.64" d="M62.621 167.048C62.621 170.166 65.1482 172.693 68.2657 172.693C71.3832 172.693 73.9104 170.166 73.9104 167.048C73.9104 163.931 71.3832 161.403 68.2657 161.403C65.1482 161.403 62.621 163.931 62.621 167.048Z" fill="black"/>
<path opacity="0.64" d="M0.000116102 185.041C0.000115965 188.159 2.52735 190.686 5.64483 190.686C8.76231 190.686 11.2896 188.159 11.2896 185.041C11.2896 181.924 8.76231 179.396 5.64483 179.396C2.52735 179.396 0.000116238 181.924 0.000116102 185.041Z" fill="black"/>
<path opacity="0.64" d="M20.8152 185.041C20.8152 188.159 23.3423 190.686 26.4598 190.686C29.5773 190.686 32.1045 188.159 32.1045 185.041C32.1045 181.924 29.5773 179.396 26.4598 179.396C23.3423 179.396 20.8152 181.924 20.8152 185.041Z" fill="black"/>
<path opacity="0.64" d="M41.6301 185.041C41.6301 188.159 44.1573 190.686 47.2748 190.686C50.3923 190.686 52.9194 188.159 52.9194 185.041C52.9194 181.924 50.3923 179.396 47.2748 179.396C44.1573 179.396 41.6301 181.924 41.6301 185.041Z" fill="black"/>
<path opacity="0.64" d="M62.621 185.041C62.621 188.159 65.1482 190.686 68.2657 190.686C71.3832 190.686 73.9104 188.159 73.9104 185.041C73.9104 181.924 71.3832 179.396 68.2657 179.396C65.1482 179.396 62.621 181.924 62.621 185.041Z" fill="black"/>
<path opacity="0.64" d="M0.000116102 203.209C0.000115965 206.327 2.52735 208.854 5.64483 208.854C8.76231 208.854 11.2896 206.327 11.2896 203.209C11.2896 200.092 8.76231 197.564 5.64483 197.564C2.52735 197.564 0.000116238 200.092 0.000116102 203.209Z" fill="black"/>
<path opacity="0.64" d="M20.8152 203.21C20.8152 206.328 23.3423 208.855 26.4598 208.855C29.5773 208.855 32.1045 206.328 32.1045 203.21C32.1045 200.093 29.5773 197.565 26.4598 197.565C23.3423 197.565 20.8152 200.093 20.8152 203.21Z" fill="black"/>
<path opacity="0.64" d="M41.6301 203.21C41.6301 206.328 44.1573 208.855 47.2748 208.855C50.3923 208.855 52.9194 206.328 52.9194 203.21C52.9194 200.093 50.3923 197.565 47.2748 197.565C44.1573 197.565 41.6301 200.093 41.6301 203.21Z" fill="black"/>
<path opacity="0.64" d="M62.621 203.21C62.621 206.328 65.1482 208.855 68.2657 208.855C71.3832 208.855 73.9104 206.328 73.9104 203.21C73.9104 200.093 71.3832 197.565 68.2657 197.565C65.1482 197.565 62.621 200.093 62.621 203.21Z" fill="black"/>
<path opacity="0.64" d="M80.7898 220.85C80.7898 223.967 83.3169 226.494 86.4344 226.494C89.5519 226.494 92.0791 223.967 92.0791 220.85C92.0791 217.732 89.5519 215.205 86.4344 215.205C83.3169 215.205 80.7898 217.732 80.7898 220.85Z" fill="black"/>
<path opacity="0.64" d="M101.605 220.85C101.605 223.967 104.132 226.494 107.249 226.494C110.367 226.494 112.894 223.967 112.894 220.85C112.894 217.732 110.367 215.205 107.249 215.205C104.132 215.205 101.605 217.732 101.605 220.85Z" fill="black"/>
<path opacity="0.64" d="M122.596 220.85C122.596 223.967 125.123 226.494 128.241 226.494C131.358 226.494 133.885 223.967 133.885 220.85C133.885 217.732 131.358 215.205 128.241 215.205C125.123 215.205 122.596 217.732 122.596 220.85Z" fill="black"/>
<path opacity="0.64" d="M143.411 220.85C143.411 223.967 145.938 226.494 149.055 226.494C152.173 226.494 154.7 223.967 154.7 220.85C154.7 217.732 152.173 215.205 149.055 215.205C145.938 215.205 143.411 217.732 143.411 220.85Z" fill="black"/>
<path opacity="0.64" d="M80.7898 239.019C80.7898 242.136 83.3169 244.663 86.4344 244.663C89.5519 244.663 92.0791 242.136 92.0791 239.019C92.0791 235.901 89.5519 233.374 86.4344 233.374C83.3169 233.374 80.7898 235.901 80.7898 239.019Z" fill="black"/>
<path opacity="0.64" d="M101.605 239.019C101.605 242.136 104.132 244.663 107.249 244.663C110.367 244.663 112.894 242.136 112.894 239.019C112.894 235.901 110.367 233.374 107.249 233.374C104.132 233.374 101.605 235.901 101.605 239.019Z" fill="black"/>
<path opacity="0.64" d="M122.596 239.019C122.596 242.136 125.123 244.663 128.241 244.663C131.358 244.663 133.885 242.136 133.885 239.019C133.885 235.901 131.358 233.374 128.241 233.374C125.123 233.374 122.596 235.901 122.596 239.019Z" fill="black"/>
<path opacity="0.64" d="M143.411 239.019C143.411 242.136 145.938 244.663 149.055 244.663C152.173 244.663 154.7 242.136 154.7 239.019C154.7 235.901 152.173 233.374 149.055 233.374C145.938 233.374 143.411 235.901 143.411 239.019Z" fill="black"/>
<path opacity="0.64" d="M80.7898 257.187C80.7898 260.304 83.3169 262.831 86.4344 262.831C89.5519 262.831 92.0791 260.304 92.0791 257.187C92.0791 254.069 89.5519 251.542 86.4344 251.542C83.3169 251.542 80.7898 254.069 80.7898 257.187Z" fill="black"/>
<path opacity="0.64" d="M101.605 257.187C101.605 260.304 104.132 262.831 107.249 262.831C110.367 262.831 112.894 260.304 112.894 257.187C112.894 254.069 110.367 251.542 107.249 251.542C104.132 251.542 101.605 254.069 101.605 257.187Z" fill="black"/>
<path opacity="0.64" d="M122.596 257.187C122.596 260.304 125.123 262.831 128.241 262.831C131.358 262.831 133.885 260.304 133.885 257.187C133.885 254.069 131.358 251.542 128.241 251.542C125.123 251.542 122.596 254.069 122.596 257.187Z" fill="black"/>
<path opacity="0.64" d="M143.411 257.187C143.411 260.304 145.938 262.831 149.055 262.831C152.173 262.831 154.7 260.304 154.7 257.187C154.7 254.069 152.173 251.542 149.055 251.542C145.938 251.542 143.411 254.069 143.411 257.187Z" fill="black"/>
<path opacity="0.64" d="M80.7898 275.356C80.7898 278.473 83.3169 281 86.4344 281C89.5519 281 92.0791 278.473 92.0791 275.356C92.0791 272.238 89.5519 269.711 86.4344 269.711C83.3169 269.711 80.7898 272.238 80.7898 275.356Z" fill="black"/>
<path opacity="0.64" d="M101.605 275.356C101.605 278.473 104.132 281 107.249 281C110.367 281 112.894 278.473 112.894 275.356C112.894 272.238 110.367 269.711 107.249 269.711C104.132 269.711 101.605 272.238 101.605 275.356Z" fill="black"/>
<path opacity="0.64" d="M122.596 275.356C122.596 278.473 125.123 281 128.241 281C131.358 281 133.885 278.473 133.885 275.356C133.885 272.238 131.358 269.711 128.241 269.711C125.123 269.711 122.596 272.238 122.596 275.356Z" fill="black"/>
<path opacity="0.64" d="M143.411 275.356C143.411 278.473 145.938 281 149.055 281C152.173 281 154.7 278.473 154.7 275.356C154.7 272.238 152.173 269.711 149.055 269.711C145.938 269.711 143.411 272.238 143.411 275.356Z" fill="black"/>
<path opacity="0.64" d="M80.7903 148.879C80.7903 151.997 83.3174 154.524 86.4349 154.524C89.5524 154.524 92.0796 151.997 92.0796 148.879C92.0796 145.762 89.5524 143.234 86.4349 143.234C83.3174 143.234 80.7903 145.762 80.7903 148.879Z" fill="black"/>
<path opacity="0.64" d="M101.605 148.879C101.605 151.997 104.132 154.524 107.249 154.524C110.367 154.524 112.894 151.997 112.894 148.879C112.894 145.762 110.367 143.234 107.249 143.234C104.132 143.234 101.605 145.762 101.605 148.879Z" fill="black"/>
<path opacity="0.64" d="M122.596 148.879C122.596 151.997 125.123 154.524 128.241 154.524C131.358 154.524 133.885 151.997 133.885 148.879C133.885 145.762 131.358 143.234 128.241 143.234C125.123 143.234 122.596 145.762 122.596 148.879Z" fill="black"/>
<path opacity="0.64" d="M143.411 148.879C143.411 151.997 145.938 154.524 149.055 154.524C152.173 154.524 154.7 151.997 154.7 148.879C154.7 145.762 152.173 143.234 149.055 143.234C145.938 143.234 143.411 145.762 143.411 148.879Z" fill="black"/>
<path opacity="0.64" d="M80.7903 167.048C80.7903 170.166 83.3174 172.693 86.4349 172.693C89.5524 172.693 92.0796 170.166 92.0796 167.048C92.0796 163.931 89.5524 161.403 86.4349 161.403C83.3174 161.403 80.7903 163.931 80.7903 167.048Z" fill="black"/>
<path opacity="0.64" d="M101.605 167.048C101.605 170.166 104.132 172.693 107.249 172.693C110.367 172.693 112.894 170.166 112.894 167.048C112.894 163.931 110.367 161.403 107.249 161.403C104.132 161.403 101.605 163.931 101.605 167.048Z" fill="black"/>
<path opacity="0.64" d="M122.596 167.048C122.596 170.166 125.123 172.693 128.241 172.693C131.358 172.693 133.885 170.166 133.885 167.048C133.885 163.931 131.358 161.403 128.241 161.403C125.123 161.403 122.596 163.931 122.596 167.048Z" fill="black"/>
<path opacity="0.64" d="M143.411 167.048C143.411 170.166 145.938 172.693 149.055 172.693C152.173 172.693 154.7 170.166 154.7 167.048C154.7 163.931 152.173 161.403 149.055 161.403C145.938 161.403 143.411 163.931 143.411 167.048Z" fill="black"/>
<path opacity="0.64" d="M80.7898 185.041C80.7898 188.159 83.3169 190.686 86.4344 190.686C89.5519 190.686 92.0791 188.159 92.0791 185.041C92.0791 181.924 89.5519 179.396 86.4344 179.396C83.3169 179.396 80.7898 181.924 80.7898 185.041Z" fill="black"/>
<path opacity="0.64" d="M101.605 185.041C101.605 188.159 104.132 190.686 107.249 190.686C110.367 190.686 112.894 188.159 112.894 185.041C112.894 181.924 110.367 179.396 107.249 179.396C104.132 179.396 101.605 181.924 101.605 185.041Z" fill="black"/>
<path opacity="0.64" d="M122.596 185.041C122.596 188.159 125.123 190.686 128.241 190.686C131.358 190.686 133.885 188.159 133.885 185.041C133.885 181.924 131.358 179.396 128.241 179.396C125.123 179.396 122.596 181.924 122.596 185.041Z" fill="black"/>
<path opacity="0.64" d="M143.411 185.041C143.411 188.159 145.938 190.686 149.055 190.686C152.173 190.686 154.7 188.159 154.7 185.041C154.7 181.924 152.173 179.396 149.055 179.396C145.938 179.396 143.411 181.924 143.411 185.041Z" fill="black"/>
<path opacity="0.64" d="M80.7898 203.21C80.7898 206.328 83.3169 208.855 86.4344 208.855C89.5519 208.855 92.0791 206.328 92.0791 203.21C92.0791 200.093 89.5519 197.565 86.4344 197.565C83.3169 197.565 80.7898 200.093 80.7898 203.21Z" fill="black"/>
<path opacity="0.64" d="M101.605 203.21C101.605 206.328 104.132 208.855 107.249 208.855C110.367 208.855 112.894 206.328 112.894 203.21C112.894 200.093 110.367 197.565 107.249 197.565C104.132 197.565 101.605 200.093 101.605 203.21Z" fill="black"/>
<path opacity="0.64" d="M122.596 203.21C122.596 206.328 125.123 208.855 128.241 208.855C131.358 208.855 133.885 206.328 133.885 203.21C133.885 200.093 131.358 197.565 128.241 197.565C125.123 197.565 122.596 200.093 122.596 203.21Z" fill="black"/>
<path opacity="0.64" d="M143.411 203.21C143.411 206.328 145.938 208.855 149.055 208.855C152.173 208.855 154.7 206.328 154.7 203.21C154.7 200.093 152.173 197.565 149.055 197.565C145.938 197.565 143.411 200.093 143.411 203.21Z" fill="black"/>
<path opacity="0.64" d="M0.000116102 77.7912C0.000115965 80.9087 2.52735 83.4359 5.64483 83.4359C8.76231 83.4359 11.2896 80.9087 11.2896 77.7912C11.2896 74.6737 8.76231 72.1465 5.64483 72.1465C2.52735 72.1465 0.000116238 74.6737 0.000116102 77.7912Z" fill="black"/>
<path opacity="0.64" d="M20.8152 77.7912C20.8152 80.9087 23.3423 83.4359 26.4598 83.4359C29.5773 83.4359 32.1045 80.9087 32.1045 77.7912C32.1045 74.6737 29.5773 72.1465 26.4598 72.1465C23.3423 72.1465 20.8152 74.6737 20.8152 77.7912Z" fill="black"/>
<path opacity="0.64" d="M41.6301 77.7912C41.6301 80.9087 44.1573 83.4359 47.2748 83.4359C50.3923 83.4359 52.9194 80.9087 52.9194 77.7912C52.9194 74.6737 50.3923 72.1465 47.2748 72.1465C44.1573 72.1465 41.6301 74.6737 41.6301 77.7912Z" fill="black"/>
<path opacity="0.64" d="M62.621 77.7912C62.621 80.9087 65.1482 83.4359 68.2657 83.4359C71.3832 83.4359 73.9104 80.9087 73.9104 77.7912C73.9104 74.6737 71.3832 72.1465 68.2657 72.1465C65.1482 72.1465 62.621 74.6737 62.621 77.7912Z" fill="black"/>
<path opacity="0.64" d="M0.000116102 95.7834C0.000115965 98.9009 2.52735 101.428 5.64483 101.428C8.76231 101.428 11.2896 98.9009 11.2896 95.7834C11.2896 92.6659 8.76231 90.1387 5.64483 90.1387C2.52735 90.1387 0.000116238 92.6659 0.000116102 95.7834Z" fill="black"/>
<path opacity="0.64" d="M20.8152 95.7834C20.8152 98.9009 23.3423 101.428 26.4598 101.428C29.5773 101.428 32.1045 98.9009 32.1045 95.7834C32.1045 92.6659 29.5773 90.1387 26.4598 90.1387C23.3423 90.1387 20.8152 92.6659 20.8152 95.7834Z" fill="black"/>
<path opacity="0.64" d="M41.6301 95.7834C41.6301 98.9009 44.1573 101.428 47.2748 101.428C50.3923 101.428 52.9194 98.9009 52.9194 95.7834C52.9194 92.6659 50.3923 90.1387 47.2748 90.1387C44.1573 90.1387 41.6301 92.6659 41.6301 95.7834Z" fill="black"/>
<path opacity="0.64" d="M62.621 95.7834C62.621 98.9009 65.1482 101.428 68.2657 101.428C71.3832 101.428 73.9104 98.9009 73.9104 95.7834C73.9104 92.6659 71.3832 90.1387 68.2657 90.1387C65.1482 90.1387 62.621 92.6659 62.621 95.7834Z" fill="black"/>
<path opacity="0.64" d="M0.000116102 113.952C0.000115965 117.07 2.52735 119.597 5.64483 119.597C8.76231 119.597 11.2896 117.07 11.2896 113.952C11.2896 110.835 8.76231 108.308 5.64483 108.308C2.52735 108.308 0.000116238 110.835 0.000116102 113.952Z" fill="black"/>
<path opacity="0.64" d="M20.8152 113.952C20.8152 117.07 23.3423 119.597 26.4598 119.597C29.5773 119.597 32.1045 117.07 32.1045 113.952C32.1045 110.835 29.5773 108.308 26.4598 108.308C23.3423 108.308 20.8152 110.835 20.8152 113.952Z" fill="black"/>
<path opacity="0.64" d="M41.6301 113.952C41.6301 117.07 44.1573 119.597 47.2748 119.597C50.3923 119.597 52.9194 117.07 52.9194 113.952C52.9194 110.835 50.3923 108.308 47.2748 108.308C44.1573 108.308 41.6301 110.835 41.6301 113.952Z" fill="black"/>
<path opacity="0.64" d="M62.621 113.952C62.621 117.07 65.1482 119.597 68.2657 119.597C71.3832 119.597 73.9104 117.07 73.9104 113.952C73.9104 110.835 71.3832 108.308 68.2657 108.308C65.1482 108.308 62.621 110.835 62.621 113.952Z" fill="black"/>
<path opacity="0.64" d="M0.000116102 132.121C0.000115965 135.239 2.52735 137.766 5.64483 137.766C8.76231 137.766 11.2896 135.239 11.2896 132.121C11.2896 129.004 8.76231 126.477 5.64483 126.477C2.52735 126.477 0.000116238 129.004 0.000116102 132.121Z" fill="black"/>
<path opacity="0.64" d="M20.8152 132.121C20.8152 135.239 23.3423 137.766 26.4598 137.766C29.5773 137.766 32.1045 135.239 32.1045 132.121C32.1045 129.004 29.5773 126.477 26.4598 126.477C23.3423 126.477 20.8152 129.004 20.8152 132.121Z" fill="black"/>
<path opacity="0.64" d="M41.6301 132.121C41.6301 135.239 44.1573 137.766 47.2748 137.766C50.3923 137.766 52.9194 135.239 52.9194 132.121C52.9194 129.004 50.3923 126.477 47.2748 126.477C44.1573 126.477 41.6301 129.004 41.6301 132.121Z" fill="black"/>
<path opacity="0.64" d="M62.621 132.121C62.621 135.239 65.1482 137.766 68.2657 137.766C71.3832 137.766 73.9104 135.239 73.9104 132.121C73.9104 129.004 71.3832 126.477 68.2657 126.477C65.1482 126.477 62.621 129.004 62.621 132.121Z" fill="black"/>
<path opacity="0.64" d="M0.000116102 5.64472C0.000115965 8.7622 2.52735 11.2894 5.64483 11.2894C8.76231 11.2894 11.2896 8.7622 11.2896 5.64472C11.2896 2.52724 8.76231 -1.10469e-07 5.64483 -2.46738e-07C2.52735 -3.83008e-07 0.000116238 2.52724 0.000116102 5.64472Z" fill="black"/>
<path opacity="0.64" d="M20.8152 5.64472C20.8152 8.7622 23.3423 11.2894 26.4598 11.2894C29.5773 11.2894 32.1045 8.7622 32.1045 5.64472C32.1045 2.52724 29.5773 -1.10469e-07 26.4598 -2.46738e-07C23.3423 -3.83008e-07 20.8152 2.52724 20.8152 5.64472Z" fill="black"/>
<path opacity="0.64" d="M41.6301 5.64472C41.6301 8.7622 44.1573 11.2894 47.2748 11.2894C50.3923 11.2894 52.9194 8.7622 52.9194 5.64472C52.9194 2.52724 50.3923 -1.10464e-07 47.2748 -2.46734e-07C44.1573 -3.83003e-07 41.6301 2.52724 41.6301 5.64472Z" fill="black"/>
<path opacity="0.64" d="M62.621 5.64472C62.621 8.7622 65.1482 11.2894 68.2657 11.2894C71.3832 11.2894 73.9104 8.7622 73.9104 5.64472C73.9104 2.52724 71.3832 -1.10469e-07 68.2657 -2.46738e-07C65.1482 -3.83008e-07 62.621 2.52724 62.621 5.64472Z" fill="black"/>
<path opacity="0.64" d="M0.000116102 23.8136C0.000115965 26.9311 2.52735 29.4584 5.64483 29.4584C8.76231 29.4584 11.2896 26.9311 11.2896 23.8136C11.2896 20.6962 8.76231 18.1689 5.64483 18.1689C2.52735 18.1689 0.000116238 20.6962 0.000116102 23.8136Z" fill="black"/>
<path opacity="0.64" d="M20.8152 23.8136C20.8152 26.9311 23.3423 29.4584 26.4598 29.4584C29.5773 29.4584 32.1045 26.9311 32.1045 23.8136C32.1045 20.6962 29.5773 18.1689 26.4598 18.1689C23.3423 18.1689 20.8152 20.6962 20.8152 23.8136Z" fill="black"/>
<path opacity="0.64" d="M41.6301 23.8136C41.6301 26.9311 44.1573 29.4584 47.2748 29.4584C50.3923 29.4584 52.9194 26.9311 52.9194 23.8136C52.9194 20.6962 50.3923 18.1689 47.2748 18.1689C44.1573 18.1689 41.6301 20.6962 41.6301 23.8136Z" fill="black"/>
<path opacity="0.64" d="M62.621 23.8136C62.621 26.9311 65.1482 29.4584 68.2657 29.4584C71.3832 29.4584 73.9104 26.9311 73.9104 23.8136C73.9104 20.6962 71.3832 18.1689 68.2657 18.1689C65.1482 18.1689 62.621 20.6962 62.621 23.8136Z" fill="black"/>
<path opacity="0.64" d="M0.000116102 41.9826C0.000115965 45.1001 2.52735 47.6273 5.64483 47.6273C8.76231 47.6273 11.2896 45.1001 11.2896 41.9826C11.2896 38.8651 8.76231 36.3379 5.64483 36.3379C2.52735 36.3379 0.000116238 38.8651 0.000116102 41.9826Z" fill="black"/>
<path opacity="0.64" d="M20.8152 41.9826C20.8152 45.1001 23.3423 47.6273 26.4598 47.6273C29.5773 47.6273 32.1045 45.1001 32.1045 41.9826C32.1045 38.8651 29.5773 36.3379 26.4598 36.3379C23.3423 36.3379 20.8152 38.8651 20.8152 41.9826Z" fill="black"/>
<path opacity="0.64" d="M41.6301 41.9826C41.6301 45.1001 44.1573 47.6273 47.2748 47.6273C50.3923 47.6273 52.9194 45.1001 52.9194 41.9826C52.9194 38.8651 50.3923 36.3379 47.2748 36.3379C44.1573 36.3379 41.6301 38.8651 41.6301 41.9826Z" fill="black"/>
<path opacity="0.64" d="M62.621 41.9826C62.621 45.1001 65.1482 47.6273 68.2657 47.6273C71.3832 47.6273 73.9104 45.1001 73.9104 41.9826C73.9104 38.8651 71.3832 36.3379 68.2657 36.3379C65.1482 36.3379 62.621 38.8651 62.621 41.9826Z" fill="black"/>
<path opacity="0.64" d="M0.000116102 60.1516C0.000115965 63.269 2.52735 65.7963 5.64483 65.7963C8.76231 65.7963 11.2896 63.269 11.2896 60.1516C11.2896 57.0341 8.76231 54.5068 5.64483 54.5068C2.52735 54.5068 0.000116238 57.0341 0.000116102 60.1516Z" fill="black"/>
<path opacity="0.64" d="M20.8152 60.1516C20.8152 63.269 23.3423 65.7963 26.4598 65.7963C29.5773 65.7963 32.1045 63.269 32.1045 60.1516C32.1045 57.0341 29.5773 54.5068 26.4598 54.5068C23.3423 54.5068 20.8152 57.0341 20.8152 60.1516Z" fill="black"/>
<path opacity="0.64" d="M41.6301 60.1516C41.6301 63.269 44.1573 65.7963 47.2748 65.7963C50.3923 65.7963 52.9194 63.269 52.9194 60.1516C52.9194 57.0341 50.3923 54.5068 47.2748 54.5068C44.1573 54.5068 41.6301 57.0341 41.6301 60.1516Z" fill="black"/>
<path opacity="0.64" d="M62.621 60.1516C62.621 63.269 65.1482 65.7963 68.2657 65.7963C71.3832 65.7963 73.9104 63.269 73.9104 60.1516C73.9104 57.0341 71.3832 54.5068 68.2657 54.5068C65.1482 54.5068 62.621 57.0341 62.621 60.1516Z" fill="black"/>
<path opacity="0.64" d="M80.7903 77.7912C80.7903 80.9087 83.3174 83.4359 86.4349 83.4359C89.5524 83.4359 92.0796 80.9087 92.0796 77.7912C92.0796 74.6737 89.5524 72.1465 86.4349 72.1465C83.3174 72.1465 80.7903 74.6737 80.7903 77.7912Z" fill="black"/>
<path opacity="0.64" d="M101.605 77.7912C101.605 80.9087 104.132 83.4359 107.249 83.4359C110.367 83.4359 112.894 80.9087 112.894 77.7912C112.894 74.6737 110.367 72.1465 107.249 72.1465C104.132 72.1465 101.605 74.6737 101.605 77.7912Z" fill="black"/>
<path opacity="0.64" d="M122.596 77.7912C122.596 80.9087 125.123 83.4359 128.241 83.4359C131.358 83.4359 133.885 80.9087 133.885 77.7912C133.885 74.6737 131.358 72.1465 128.241 72.1465C125.123 72.1465 122.596 74.6737 122.596 77.7912Z" fill="black"/>
<path opacity="0.64" d="M143.411 77.7912C143.411 80.9087 145.938 83.4359 149.055 83.4359C152.173 83.4359 154.7 80.9087 154.7 77.7912C154.7 74.6737 152.173 72.1465 149.055 72.1465C145.938 72.1465 143.411 74.6737 143.411 77.7912Z" fill="black"/>
<path opacity="0.64" d="M80.7898 95.7834C80.7898 98.9009 83.3169 101.428 86.4344 101.428C89.5519 101.428 92.0791 98.9009 92.0791 95.7834C92.0791 92.6659 89.5519 90.1387 86.4344 90.1387C83.3169 90.1387 80.7898 92.6659 80.7898 95.7834Z" fill="black"/>
<path opacity="0.64" d="M101.605 95.7834C101.605 98.9009 104.132 101.428 107.249 101.428C110.367 101.428 112.894 98.9009 112.894 95.7834C112.894 92.6659 110.367 90.1387 107.249 90.1387C104.132 90.1387 101.605 92.6659 101.605 95.7834Z" fill="black"/>
<path opacity="0.64" d="M122.596 95.7834C122.596 98.9009 125.123 101.428 128.241 101.428C131.358 101.428 133.885 98.9009 133.885 95.7834C133.885 92.6659 131.358 90.1387 128.241 90.1387C125.123 90.1387 122.596 92.6659 122.596 95.7834Z" fill="black"/>
<path opacity="0.64" d="M143.411 95.7834C143.411 98.9009 145.938 101.428 149.055 101.428C152.173 101.428 154.7 98.9009 154.7 95.7834C154.7 92.6659 152.173 90.1387 149.055 90.1387C145.938 90.1387 143.411 92.6659 143.411 95.7834Z" fill="black"/>
<path opacity="0.64" d="M80.7898 113.952C80.7898 117.07 83.3169 119.597 86.4344 119.597C89.5519 119.597 92.0791 117.07 92.0791 113.952C92.0791 110.835 89.5519 108.308 86.4344 108.308C83.3169 108.308 80.7898 110.835 80.7898 113.952Z" fill="black"/>
<path opacity="0.64" d="M101.605 113.952C101.605 117.07 104.132 119.597 107.249 119.597C110.367 119.597 112.894 117.07 112.894 113.952C112.894 110.835 110.367 108.308 107.249 108.308C104.132 108.308 101.605 110.835 101.605 113.952Z" fill="black"/>
<path opacity="0.64" d="M122.596 113.952C122.596 117.07 125.123 119.597 128.241 119.597C131.358 119.597 133.885 117.07 133.885 113.952C133.885 110.835 131.358 108.308 128.241 108.308C125.123 108.308 122.596 110.835 122.596 113.952Z" fill="black"/>
<path opacity="0.64" d="M143.411 113.952C143.411 117.07 145.938 119.597 149.055 119.597C152.173 119.597 154.7 117.07 154.7 113.952C154.7 110.835 152.173 108.308 149.055 108.308C145.938 108.308 143.411 110.835 143.411 113.952Z" fill="black"/>
<path opacity="0.64" d="M80.7898 132.121C80.7898 135.239 83.3169 137.766 86.4344 137.766C89.5519 137.766 92.0791 135.239 92.0791 132.121C92.0791 129.004 89.5519 126.477 86.4344 126.477C83.3169 126.477 80.7898 129.004 80.7898 132.121Z" fill="black"/>
<path opacity="0.64" d="M101.605 132.121C101.605 135.239 104.132 137.766 107.249 137.766C110.367 137.766 112.894 135.239 112.894 132.121C112.894 129.004 110.367 126.477 107.249 126.477C104.132 126.477 101.605 129.004 101.605 132.121Z" fill="black"/>
<path opacity="0.64" d="M122.596 132.121C122.596 135.239 125.123 137.766 128.241 137.766C131.358 137.766 133.885 135.239 133.885 132.121C133.885 129.004 131.358 126.477 128.241 126.477C125.123 126.477 122.596 129.004 122.596 132.121Z" fill="black"/>
<path opacity="0.64" d="M143.411 132.121C143.411 135.239 145.938 137.766 149.055 137.766C152.173 137.766 154.7 135.239 154.7 132.121C154.7 129.004 152.173 126.477 149.055 126.477C145.938 126.477 143.411 129.004 143.411 132.121Z" fill="black"/>
<path opacity="0.64" d="M80.7903 5.64472C80.7903 8.7622 83.3174 11.2894 86.4349 11.2894C89.5524 11.2894 92.0796 8.7622 92.0796 5.64472C92.0796 2.52724 89.5524 -1.10469e-07 86.4349 -2.46738e-07C83.3174 -3.83008e-07 80.7903 2.52724 80.7903 5.64472Z" fill="black"/>
<path opacity="0.64" d="M101.605 5.64472C101.605 8.7622 104.132 11.2894 107.249 11.2894C110.367 11.2894 112.894 8.7622 112.894 5.64472C112.894 2.52724 110.367 -1.10464e-07 107.249 -2.46734e-07C104.132 -3.83003e-07 101.605 2.52724 101.605 5.64472Z" fill="black"/>
<path opacity="0.64" d="M122.596 5.64472C122.596 8.7622 125.123 11.2894 128.241 11.2894C131.358 11.2894 133.885 8.7622 133.885 5.64472C133.885 2.52724 131.358 -1.10469e-07 128.241 -2.46738e-07C125.123 -3.83008e-07 122.596 2.52724 122.596 5.64472Z" fill="black"/>
<path opacity="0.64" d="M143.411 5.64472C143.411 8.7622 145.938 11.2894 149.055 11.2894C152.173 11.2894 154.7 8.7622 154.7 5.64472C154.7 2.52724 152.173 -1.10469e-07 149.055 -2.46738e-07C145.938 -3.83008e-07 143.411 2.52724 143.411 5.64472Z" fill="black"/>
<path opacity="0.64" d="M80.7903 23.8136C80.7903 26.9311 83.3174 29.4584 86.4349 29.4584C89.5524 29.4584 92.0796 26.9311 92.0796 23.8136C92.0796 20.6962 89.5524 18.1689 86.4349 18.1689C83.3174 18.1689 80.7903 20.6962 80.7903 23.8136Z" fill="black"/>
<path opacity="0.64" d="M101.605 23.8136C101.605 26.9311 104.132 29.4584 107.249 29.4584C110.367 29.4584 112.894 26.9311 112.894 23.8136C112.894 20.6962 110.367 18.1689 107.249 18.1689C104.132 18.1689 101.605 20.6962 101.605 23.8136Z" fill="black"/>
<path opacity="0.64" d="M122.596 23.8136C122.596 26.9311 125.123 29.4584 128.241 29.4584C131.358 29.4584 133.885 26.9311 133.885 23.8136C133.885 20.6962 131.358 18.1689 128.241 18.1689C125.123 18.1689 122.596 20.6962 122.596 23.8136Z" fill="black"/>
<path opacity="0.64" d="M143.411 23.8136C143.411 26.9311 145.938 29.4584 149.055 29.4584C152.173 29.4584 154.7 26.9311 154.7 23.8136C154.7 20.6962 152.173 18.1689 149.055 18.1689C145.938 18.1689 143.411 20.6962 143.411 23.8136Z" fill="black"/>
<path opacity="0.64" d="M80.7903 41.9826C80.7903 45.1001 83.3174 47.6273 86.4349 47.6273C89.5524 47.6273 92.0796 45.1001 92.0796 41.9826C92.0796 38.8651 89.5524 36.3379 86.4349 36.3379C83.3174 36.3379 80.7903 38.8651 80.7903 41.9826Z" fill="black"/>
<path opacity="0.64" d="M101.605 41.9826C101.605 45.1001 104.132 47.6273 107.249 47.6273C110.367 47.6273 112.894 45.1001 112.894 41.9826C112.894 38.8651 110.367 36.3379 107.249 36.3379C104.132 36.3379 101.605 38.8651 101.605 41.9826Z" fill="black"/>
<path opacity="0.64" d="M122.596 41.9826C122.596 45.1001 125.123 47.6273 128.241 47.6273C131.358 47.6273 133.885 45.1001 133.885 41.9826C133.885 38.8651 131.358 36.3379 128.241 36.3379C125.123 36.3379 122.596 38.8651 122.596 41.9826Z" fill="black"/>
<path opacity="0.64" d="M143.411 41.9826C143.411 45.1001 145.938 47.6273 149.055 47.6273C152.173 47.6273 154.7 45.1001 154.7 41.9826C154.7 38.8651 152.173 36.3379 149.055 36.3379C145.938 36.3379 143.411 38.8651 143.411 41.9826Z" fill="black"/>
<path opacity="0.64" d="M80.7903 60.1516C80.7903 63.269 83.3174 65.7963 86.4349 65.7963C89.5524 65.7963 92.0796 63.269 92.0796 60.1516C92.0796 57.0341 89.5524 54.5068 86.4349 54.5068C83.3174 54.5068 80.7903 57.0341 80.7903 60.1516Z" fill="black"/>
<path opacity="0.64" d="M101.605 60.1516C101.605 63.269 104.132 65.7963 107.249 65.7963C110.367 65.7963 112.894 63.269 112.894 60.1516C112.894 57.0341 110.367 54.5068 107.249 54.5068C104.132 54.5068 101.605 57.0341 101.605 60.1516Z" fill="black"/>
<path opacity="0.64" d="M122.596 60.1516C122.596 63.269 125.123 65.7963 128.241 65.7963C131.358 65.7963 133.885 63.269 133.885 60.1516C133.885 57.0341 131.358 54.5068 128.241 54.5068C125.123 54.5068 122.596 57.0341 122.596 60.1516Z" fill="black"/>
<path opacity="0.64" d="M143.411 60.1516C143.411 63.269 145.938 65.7963 149.055 65.7963C152.173 65.7963 154.7 63.269 154.7 60.1516C154.7 57.0341 152.173 54.5068 149.055 54.5068C145.938 54.5068 143.411 57.0341 143.411 60.1516Z" fill="black"/>
</g>
<path d="M181.03 173V108H116V173H181.03Z" fill="#F15F5C"/>
<path d="M137.995 132.879C141.709 132.879 144.72 129.869 144.72 126.155C144.72 122.442 141.709 119.431 137.995 119.431C134.282 119.431 131.271 122.442 131.271 126.155C131.271 129.869 134.282 132.879 137.995 132.879Z" fill="#23335D"/>
<path d="M156.15 149.914L163.098 161.943" stroke="#FEC93F" stroke-width="7" stroke-miterlimit="10"/>
<path d="M166.012 152.155L153.909 159.104" stroke="#FEC93F" stroke-width="7" stroke-miterlimit="10"/>
<path d="M138.667 136.615H135.455V139.835H138.667V136.615Z" fill="white"/>
<path d="M138.667 141.472H135.455V144.692H138.667V141.472Z" fill="white"/>
<path d="M138.667 146.478H135.455V149.698H138.667V146.478Z" fill="white"/>
<path d="M138.667 151.408H135.455V154.628H138.667V151.408Z" fill="white"/>
<path d="M143.673 151.408H140.461V154.628H143.673V151.408Z" fill="white"/>
<path d="M148.754 151.408H145.541V154.628H148.754V151.408Z" fill="white"/>
</svg>
