<svg width="48" height="48" viewBox="0 0 48 48" fill="none" xmlns="http://www.w3.org/2000/svg">
<path d="M18.3577 14.2256C17.1391 14.8654 16.0769 15.7698 15.248 16.8734C14.4191 17.977 13.8441 19.2523 13.5647 20.6069C13.1505 22.1354 13.1505 23.7477 13.5647 25.2762C13.8938 27.1421 14.7531 28.8721 16.0385 30.2568C16.77 31.2291 17.6585 32.0709 18.6669 32.747C19.8369 33.5574 21.1483 34.1383 22.5323 34.4591C24.3803 34.8774 26.3076 34.7696 28.0983 34.1478C29.5925 33.6975 30.9316 32.8348 31.9636 31.6575C32.9523 30.5901 33.6918 29.3139 34.1282 27.9221C34.5722 26.8945 34.7324 25.7653 34.592 24.6536C34.5488 24.0083 34.3917 23.3758 34.1282 22.7859L43.0957 12.6691C44.929 14.6195 46.3029 16.96 47.1157 19.5174C47.9094 21.814 48.1738 24.2623 47.8887 26.677C47.8367 29.1918 47.3121 31.6739 46.3426 33.9922C45.3606 36.4102 43.9456 38.6259 42.168 40.5291C40.0196 42.9328 37.3833 44.8436 34.4374 46.1323C31.7128 47.3575 28.7632 47.9938 25.7791 48C22.6635 47.9593 19.5779 47.3802 16.6569 46.2879C13.6704 45.0276 10.9038 43.2936 8.46249 41.1517C6.06379 38.9265 4.07478 36.2919 2.58723 33.3696C1.1569 30.6185 0.314229 27.5965 0.113416 24.498C-0.192942 21.508 0.123008 18.4866 1.0411 15.6263C2.88185 10.0026 6.81669 5.31624 12.0186 2.55238C14.1603 1.3159 16.5257 0.522181 18.9761 0.21774C21.3913 -0.117796 23.8441 -0.0652522 26.243 0.373392C28.7279 0.826016 31.1275 1.66623 33.3551 2.86368C30.2629 6.28782 27.1706 9.86756 23.9238 13.2917C22.0171 13.0136 20.0717 13.34 18.3577 14.2256Z" fill="#8EC6D8"/>
</svg>
