<svg width="210" height="127" viewBox="0 0 210 127" fill="none" xmlns="http://www.w3.org/2000/svg">
<g opacity="0.05">
<path opacity="0.64" d="M164.598 115.298C166.921 115.298 168.805 113.414 168.805 111.091C168.805 108.767 166.921 106.884 164.598 106.884C162.274 106.884 160.391 108.767 160.391 111.091C160.391 113.414 162.274 115.298 164.598 115.298Z" fill="black"/>
<path opacity="0.64" d="M164.598 99.784C166.921 99.784 168.805 97.9006 168.805 95.5771C168.805 93.2537 166.921 91.3701 164.598 91.3701C162.274 91.3701 160.391 93.2537 160.391 95.5771C160.391 97.9006 162.274 99.784 164.598 99.784Z" fill="black"/>
<path opacity="0.64" d="M164.598 84.2713C166.921 84.2713 168.805 82.3878 168.805 80.0643C168.805 77.7409 166.921 75.8574 164.598 75.8574C162.274 75.8574 160.391 77.7409 160.391 80.0643C160.391 82.3878 162.274 84.2713 164.598 84.2713Z" fill="black"/>
<path opacity="0.64" d="M164.598 68.6279C166.921 68.6279 168.805 66.7443 168.805 64.4209C168.805 62.0974 166.921 60.2139 164.598 60.2139C162.274 60.2139 160.391 62.0974 160.391 64.4209C160.391 66.7443 162.274 68.6279 164.598 68.6279Z" fill="black"/>
<path opacity="0.64" d="M178.141 115.298C180.464 115.298 182.348 113.414 182.348 111.091C182.348 108.767 180.464 106.884 178.141 106.884C175.817 106.884 173.934 108.767 173.934 111.091C173.934 113.414 175.817 115.298 178.141 115.298Z" fill="black"/>
<path opacity="0.64" d="M178.141 99.784C180.464 99.784 182.348 97.9006 182.348 95.5771C182.348 93.2537 180.464 91.3701 178.141 91.3701C175.817 91.3701 173.934 93.2537 173.934 95.5771C173.934 97.9006 175.817 99.784 178.141 99.784Z" fill="black"/>
<path opacity="0.64" d="M178.141 84.2713C180.464 84.2713 182.348 82.3878 182.348 80.0643C182.348 77.7409 180.464 75.8574 178.141 75.8574C175.817 75.8574 173.934 77.7409 173.934 80.0643C173.934 82.3878 175.817 84.2713 178.141 84.2713Z" fill="black"/>
<path opacity="0.64" d="M178.141 68.6279C180.464 68.6279 182.348 66.7443 182.348 64.4209C182.348 62.0974 180.464 60.2139 178.141 60.2139C175.817 60.2139 173.934 62.0974 173.934 64.4209C173.934 66.7443 175.817 68.6279 178.141 68.6279Z" fill="black"/>
<path opacity="0.64" d="M191.682 115.298C194.005 115.298 195.889 113.414 195.889 111.091C195.889 108.767 194.005 106.884 191.682 106.884C189.358 106.884 187.475 108.767 187.475 111.091C187.475 113.414 189.358 115.298 191.682 115.298Z" fill="black"/>
<path opacity="0.64" d="M191.682 99.784C194.005 99.784 195.889 97.9006 195.889 95.5771C195.889 93.2537 194.005 91.3701 191.682 91.3701C189.358 91.3701 187.475 93.2537 187.475 95.5771C187.475 97.9006 189.358 99.784 191.682 99.784Z" fill="black"/>
<path opacity="0.64" d="M191.682 84.2713C194.005 84.2713 195.889 82.3878 195.889 80.0643C195.889 77.7409 194.005 75.8574 191.682 75.8574C189.358 75.8574 187.475 77.7409 187.475 80.0643C187.475 82.3878 189.358 84.2713 191.682 84.2713Z" fill="black"/>
<path opacity="0.64" d="M191.682 68.6279C194.005 68.6279 195.889 66.7443 195.889 64.4209C195.889 62.0974 194.005 60.2139 191.682 60.2139C189.358 60.2139 187.475 62.0974 187.475 64.4209C187.475 66.7443 189.358 68.6279 191.682 68.6279Z" fill="black"/>
<path opacity="0.64" d="M205.223 115.298C207.546 115.298 209.43 113.414 209.43 111.091C209.43 108.767 207.546 106.884 205.223 106.884C202.899 106.884 201.016 108.767 201.016 111.091C201.016 113.414 202.899 115.298 205.223 115.298Z" fill="black"/>
<path opacity="0.64" d="M205.223 99.784C207.546 99.784 209.43 97.9006 209.43 95.5771C209.43 93.2537 207.546 91.3701 205.223 91.3701C202.899 91.3701 201.016 93.2537 201.016 95.5771C201.016 97.9006 202.899 99.784 205.223 99.784Z" fill="black"/>
<path opacity="0.64" d="M205.223 84.2713C207.546 84.2713 209.43 82.3878 209.43 80.0643C209.43 77.7409 207.546 75.8574 205.223 75.8574C202.899 75.8574 201.016 77.7409 201.016 80.0643C201.016 82.3878 202.899 84.2713 205.223 84.2713Z" fill="black"/>
<path opacity="0.64" d="M205.223 68.6259C207.546 68.6259 209.43 66.7424 209.43 64.4189C209.43 62.0955 207.546 60.2119 205.223 60.2119C202.899 60.2119 201.016 62.0955 201.016 64.4189C201.016 66.7424 202.899 68.6259 205.223 68.6259Z" fill="black"/>
<path opacity="0.64" d="M110.959 115.299C113.282 115.299 115.166 113.415 115.166 111.092C115.166 108.768 113.282 106.885 110.959 106.885C108.635 106.885 106.752 108.768 106.752 111.092C106.752 113.415 108.635 115.299 110.959 115.299Z" fill="black"/>
<path opacity="0.64" d="M110.959 99.784C113.282 99.784 115.166 97.9006 115.166 95.5771C115.166 93.2537 113.282 91.3701 110.959 91.3701C108.635 91.3701 106.752 93.2537 106.752 95.5771C106.752 97.9006 108.635 99.784 110.959 99.784Z" fill="black"/>
<path opacity="0.64" d="M110.959 84.2704C113.282 84.2704 115.166 82.3868 115.166 80.0634C115.166 77.7399 113.282 75.8564 110.959 75.8564C108.635 75.8564 106.752 77.7399 106.752 80.0634C106.752 82.3868 108.635 84.2704 110.959 84.2704Z" fill="black"/>
<path opacity="0.64" d="M110.959 68.6259C113.282 68.6259 115.166 66.7424 115.166 64.4189C115.166 62.0955 113.282 60.2119 110.959 60.2119C108.635 60.2119 106.752 62.0955 106.752 64.4189C106.752 66.7424 108.635 68.6259 110.959 68.6259Z" fill="black"/>
<path opacity="0.64" d="M124.5 115.299C126.823 115.299 128.707 113.415 128.707 111.092C128.707 108.768 126.823 106.885 124.5 106.885C122.177 106.885 120.293 108.768 120.293 111.092C120.293 113.415 122.177 115.299 124.5 115.299Z" fill="black"/>
<path opacity="0.64" d="M124.5 99.784C126.823 99.784 128.707 97.9006 128.707 95.5771C128.707 93.2537 126.823 91.3701 124.5 91.3701C122.177 91.3701 120.293 93.2537 120.293 95.5771C120.293 97.9006 122.177 99.784 124.5 99.784Z" fill="black"/>
<path opacity="0.64" d="M124.5 84.2704C126.823 84.2704 128.707 82.3868 128.707 80.0634C128.707 77.7399 126.823 75.8564 124.5 75.8564C122.177 75.8564 120.293 77.7399 120.293 80.0634C120.293 82.3868 122.177 84.2704 124.5 84.2704Z" fill="black"/>
<path opacity="0.64" d="M124.5 68.6259C126.823 68.6259 128.707 66.7424 128.707 64.4189C128.707 62.0955 126.823 60.2119 124.5 60.2119C122.177 60.2119 120.293 62.0955 120.293 64.4189C120.293 66.7424 122.177 68.6259 124.5 68.6259Z" fill="black"/>
<path opacity="0.64" d="M137.91 115.298C140.234 115.298 142.117 113.414 142.117 111.091C142.117 108.767 140.234 106.884 137.91 106.884C135.587 106.884 133.703 108.767 133.703 111.091C133.703 113.414 135.587 115.298 137.91 115.298Z" fill="black"/>
<path opacity="0.64" d="M137.91 99.784C140.234 99.784 142.117 97.9006 142.117 95.5771C142.117 93.2537 140.234 91.3701 137.91 91.3701C135.587 91.3701 133.703 93.2537 133.703 95.5771C133.703 97.9006 135.587 99.784 137.91 99.784Z" fill="black"/>
<path opacity="0.64" d="M137.91 84.2714C140.234 84.2714 142.117 82.3879 142.117 80.0644C142.117 77.741 140.234 75.8575 137.91 75.8575C135.587 75.8575 133.703 77.741 133.703 80.0644C133.703 82.3879 135.587 84.2714 137.91 84.2714Z" fill="black"/>
<path opacity="0.64" d="M137.91 68.6279C140.234 68.6279 142.117 66.7443 142.117 64.4209C142.117 62.0974 140.234 60.2139 137.91 60.2139C135.587 60.2139 133.703 62.0974 133.703 64.4209C133.703 66.7443 135.587 68.6279 137.91 68.6279Z" fill="black"/>
<path opacity="0.64" d="M151.451 115.298C153.775 115.298 155.658 113.414 155.658 111.091C155.658 108.767 153.775 106.884 151.451 106.884C149.128 106.884 147.244 108.767 147.244 111.091C147.244 113.414 149.128 115.298 151.451 115.298Z" fill="black"/>
<path opacity="0.64" d="M151.451 99.784C153.775 99.784 155.658 97.9006 155.658 95.5771C155.658 93.2537 153.775 91.3701 151.451 91.3701C149.128 91.3701 147.244 93.2537 147.244 95.5771C147.244 97.9006 149.128 99.784 151.451 99.784Z" fill="black"/>
<path opacity="0.64" d="M151.451 84.2713C153.775 84.2713 155.658 82.3878 155.658 80.0643C155.658 77.7409 153.775 75.8574 151.451 75.8574C149.128 75.8574 147.244 77.7409 147.244 80.0643C147.244 82.3878 149.128 84.2713 151.451 84.2713Z" fill="black"/>
<path opacity="0.64" d="M151.451 68.6279C153.775 68.6279 155.658 66.7443 155.658 64.4209C155.658 62.0974 153.775 60.2139 151.451 60.2139C149.128 60.2139 147.244 62.0974 147.244 64.4209C147.244 66.7443 149.128 68.6279 151.451 68.6279Z" fill="black"/>
<path opacity="0.64" d="M164.598 55.0858C166.921 55.0858 168.805 53.2023 168.805 50.8789C168.805 48.5554 166.921 46.6719 164.598 46.6719C162.274 46.6719 160.391 48.5554 160.391 50.8789C160.391 53.2023 162.274 55.0858 164.598 55.0858Z" fill="black"/>
<path opacity="0.64" d="M164.598 39.5721C166.921 39.5721 168.805 37.6886 168.805 35.3651C168.805 33.0417 166.921 31.1582 164.598 31.1582C162.274 31.1582 160.391 33.0417 160.391 35.3651C160.391 37.6886 162.274 39.5721 164.598 39.5721Z" fill="black"/>
<path opacity="0.64" d="M164.598 23.9267C166.921 23.9267 168.805 22.0432 168.805 19.7197C168.805 17.3962 166.921 15.5127 164.598 15.5127C162.274 15.5127 160.391 17.3962 160.391 19.7197C160.391 22.0432 162.274 23.9267 164.598 23.9267Z" fill="black"/>
<path opacity="0.64" d="M164.6 8.41393C166.923 8.41393 168.807 6.53046 168.807 4.207C168.807 1.88355 166.923 0 164.6 0C162.276 0 160.393 1.88355 160.393 4.207C160.393 6.53046 162.276 8.41393 164.6 8.41393Z" fill="black"/>
<path opacity="0.64" d="M178.141 55.0838C180.464 55.0838 182.348 53.2004 182.348 50.8769C182.348 48.5535 180.464 46.6699 178.141 46.6699C175.817 46.6699 173.934 48.5535 173.934 50.8769C173.934 53.2004 175.817 55.0838 178.141 55.0838Z" fill="black"/>
<path opacity="0.64" d="M178.141 39.5712C180.464 39.5712 182.348 37.6876 182.348 35.3641C182.348 33.0407 180.464 31.1572 178.141 31.1572C175.817 31.1572 173.934 33.0407 173.934 35.3641C173.934 37.6876 175.817 39.5712 178.141 39.5712Z" fill="black"/>
<path opacity="0.64" d="M178.141 23.9287C180.464 23.9287 182.348 22.0451 182.348 19.7217C182.348 17.3982 180.464 15.5146 178.141 15.5146C175.817 15.5146 173.934 17.3982 173.934 19.7217C173.934 22.0451 175.817 23.9287 178.141 23.9287Z" fill="black"/>
<path opacity="0.64" d="M178.141 8.41393C180.464 8.41393 182.348 6.53046 182.348 4.207C182.348 1.88355 180.464 0 178.141 0C175.817 0 173.934 1.88355 173.934 4.207C173.934 6.53046 175.817 8.41393 178.141 8.41393Z" fill="black"/>
<path opacity="0.64" d="M191.682 55.0858C194.005 55.0858 195.889 53.2023 195.889 50.8789C195.889 48.5554 194.005 46.6719 191.682 46.6719C189.358 46.6719 187.475 48.5554 187.475 50.8789C187.475 53.2023 189.358 55.0858 191.682 55.0858Z" fill="black"/>
<path opacity="0.64" d="M191.682 39.5712C194.005 39.5712 195.889 37.6876 195.889 35.3641C195.889 33.0407 194.005 31.1572 191.682 31.1572C189.358 31.1572 187.475 33.0407 187.475 35.3641C187.475 37.6876 189.358 39.5712 191.682 39.5712Z" fill="black"/>
<path opacity="0.64" d="M191.682 23.9267C194.005 23.9267 195.889 22.0432 195.889 19.7197C195.889 17.3962 194.005 15.5127 191.682 15.5127C189.358 15.5127 187.475 17.3962 187.475 19.7197C187.475 22.0432 189.358 23.9267 191.682 23.9267Z" fill="black"/>
<path opacity="0.64" d="M191.682 8.41393C194.005 8.41393 195.889 6.53046 195.889 4.207C195.889 1.88355 194.005 0 191.682 0C189.358 0 187.475 1.88355 187.475 4.207C187.475 6.53046 189.358 8.41393 191.682 8.41393Z" fill="black"/>
<path opacity="0.64" d="M205.223 55.0858C207.546 55.0858 209.43 53.2023 209.43 50.8789C209.43 48.5554 207.546 46.6719 205.223 46.6719C202.899 46.6719 201.016 48.5554 201.016 50.8789C201.016 53.2023 202.899 55.0858 205.223 55.0858Z" fill="black"/>
<path opacity="0.64" d="M205.223 39.5721C207.546 39.5721 209.43 37.6886 209.43 35.3651C209.43 33.0417 207.546 31.1582 205.223 31.1582C202.899 31.1582 201.016 33.0417 201.016 35.3651C201.016 37.6886 202.899 39.5721 205.223 39.5721Z" fill="black"/>
<path opacity="0.64" d="M205.223 23.9267C207.546 23.9267 209.43 22.0432 209.43 19.7197C209.43 17.3962 207.546 15.5127 205.223 15.5127C202.899 15.5127 201.016 17.3962 201.016 19.7197C201.016 22.0432 202.899 23.9267 205.223 23.9267Z" fill="black"/>
<path opacity="0.64" d="M205.223 8.41393C207.546 8.41393 209.43 6.53046 209.43 4.207C209.43 1.88355 207.546 0 205.223 0C202.899 0 201.016 1.88355 201.016 4.207C201.016 6.53046 202.899 8.41393 205.223 8.41393Z" fill="black"/>
<path opacity="0.64" d="M110.959 55.0838C113.282 55.0838 115.166 53.2004 115.166 50.8769C115.166 48.5535 113.282 46.6699 110.959 46.6699C108.635 46.6699 106.752 48.5535 106.752 50.8769C106.752 53.2004 108.635 55.0838 110.959 55.0838Z" fill="black"/>
<path opacity="0.64" d="M110.959 39.5712C113.282 39.5712 115.166 37.6876 115.166 35.3641C115.166 33.0407 113.282 31.1572 110.959 31.1572C108.635 31.1572 106.752 33.0407 106.752 35.3641C106.752 37.6876 108.635 39.5712 110.959 39.5712Z" fill="black"/>
<path opacity="0.64" d="M110.959 23.9287C113.282 23.9287 115.166 22.0451 115.166 19.7217C115.166 17.3982 113.282 15.5146 110.959 15.5146C108.635 15.5146 106.752 17.3982 106.752 19.7217C106.752 22.0451 108.635 23.9287 110.959 23.9287Z" fill="black"/>
<path opacity="0.64" d="M110.959 8.41393C113.282 8.41393 115.166 6.53046 115.166 4.207C115.166 1.88355 113.282 0 110.959 0C108.635 0 106.752 1.88355 106.752 4.207C106.752 6.53046 108.635 8.41393 110.959 8.41393Z" fill="black"/>
<path opacity="0.64" d="M124.5 55.0838C126.823 55.0838 128.707 53.2004 128.707 50.8769C128.707 48.5535 126.823 46.6699 124.5 46.6699C122.177 46.6699 120.293 48.5535 120.293 50.8769C120.293 53.2004 122.177 55.0838 124.5 55.0838Z" fill="black"/>
<path opacity="0.64" d="M124.5 39.5712C126.823 39.5712 128.707 37.6876 128.707 35.3641C128.707 33.0407 126.823 31.1572 124.5 31.1572C122.177 31.1572 120.293 33.0407 120.293 35.3641C120.293 37.6876 122.177 39.5712 124.5 39.5712Z" fill="black"/>
<path opacity="0.64" d="M124.5 23.9267C126.823 23.9267 128.707 22.0432 128.707 19.7197C128.707 17.3962 126.823 15.5127 124.5 15.5127C122.177 15.5127 120.293 17.3962 120.293 19.7197C120.293 22.0432 122.177 23.9267 124.5 23.9267Z" fill="black"/>
<path opacity="0.64" d="M124.5 8.41393C126.823 8.41393 128.707 6.53046 128.707 4.207C128.707 1.88355 126.823 0 124.5 0C122.177 0 120.293 1.88355 120.293 4.207C120.293 6.53046 122.177 8.41393 124.5 8.41393Z" fill="black"/>
<path opacity="0.64" d="M137.91 55.0858C140.234 55.0858 142.117 53.2023 142.117 50.8789C142.117 48.5554 140.234 46.6719 137.91 46.6719C135.587 46.6719 133.703 48.5554 133.703 50.8789C133.703 53.2023 135.587 55.0858 137.91 55.0858Z" fill="black"/>
<path opacity="0.64" d="M137.91 39.5721C140.234 39.5721 142.117 37.6886 142.117 35.3651C142.117 33.0417 140.234 31.1582 137.91 31.1582C135.587 31.1582 133.703 33.0417 133.703 35.3651C133.703 37.6886 135.587 39.5721 137.91 39.5721Z" fill="black"/>
<path opacity="0.64" d="M137.91 23.9285C140.234 23.9285 142.117 22.0449 142.117 19.7215C142.117 17.398 140.234 15.5145 137.91 15.5145C135.587 15.5145 133.703 17.398 133.703 19.7215C133.703 22.0449 135.587 23.9285 137.91 23.9285Z" fill="black"/>
<path opacity="0.64" d="M137.91 8.41393C140.234 8.41393 142.117 6.53046 142.117 4.207C142.117 1.88355 140.234 0 137.91 0C135.587 0 133.703 1.88355 133.703 4.207C133.703 6.53046 135.587 8.41393 137.91 8.41393Z" fill="black"/>
<path opacity="0.64" d="M151.451 55.0858C153.775 55.0858 155.658 53.2023 155.658 50.8789C155.658 48.5554 153.775 46.6719 151.451 46.6719C149.128 46.6719 147.244 48.5554 147.244 50.8789C147.244 53.2023 149.128 55.0858 151.451 55.0858Z" fill="black"/>
<path opacity="0.64" d="M151.451 39.5721C153.775 39.5721 155.658 37.6886 155.658 35.3651C155.658 33.0417 153.775 31.1582 151.451 31.1582C149.128 31.1582 147.244 33.0417 147.244 35.3651C147.244 37.6886 149.128 39.5721 151.451 39.5721Z" fill="black"/>
<path opacity="0.64" d="M151.451 23.9267C153.775 23.9267 155.658 22.0432 155.658 19.7197C155.658 17.3962 153.775 15.5127 151.451 15.5127C149.128 15.5127 147.244 17.3962 147.244 19.7197C147.244 22.0432 149.128 23.9267 151.451 23.9267Z" fill="black"/>
<path opacity="0.64" d="M151.451 8.41393C153.775 8.41393 155.658 6.53046 155.658 4.207C155.658 1.88355 153.775 0 151.451 0C149.128 0 147.244 1.88355 147.244 4.207C147.244 6.53046 149.128 8.41393 151.451 8.41393Z" fill="black"/>
<path opacity="0.64" d="M57.9785 115.299C60.3019 115.299 62.1855 113.415 62.1855 111.092C62.1855 108.768 60.3019 106.885 57.9785 106.885C55.655 106.885 53.7715 108.768 53.7715 111.092C53.7715 113.415 55.655 115.299 57.9785 115.299Z" fill="black"/>
<path opacity="0.64" d="M57.9785 99.784C60.3019 99.784 62.1855 97.9006 62.1855 95.5771C62.1855 93.2537 60.3019 91.3701 57.9785 91.3701C55.655 91.3701 53.7715 93.2537 53.7715 95.5771C53.7715 97.9006 55.655 99.784 57.9785 99.784Z" fill="black"/>
<path opacity="0.64" d="M57.9785 84.2713C60.3019 84.2713 62.1855 82.3878 62.1855 80.0643C62.1855 77.7409 60.3019 75.8574 57.9785 75.8574C55.655 75.8574 53.7715 77.7409 53.7715 80.0643C53.7715 82.3878 55.655 84.2713 57.9785 84.2713Z" fill="black"/>
<path opacity="0.64" d="M57.9765 68.6279C60.3 68.6279 62.1835 66.7443 62.1835 64.4209C62.1835 62.0974 60.3 60.2139 57.9765 60.2139C55.6531 60.2139 53.7695 62.0974 53.7695 64.4209C53.7695 66.7443 55.6531 68.6279 57.9765 68.6279Z" fill="black"/>
<path opacity="0.64" d="M71.3867 115.299C73.7101 115.299 75.5937 113.415 75.5937 111.092C75.5937 108.768 73.7101 106.885 71.3867 106.885C69.0632 106.885 67.1797 108.768 67.1797 111.092C67.1797 113.415 69.0632 115.299 71.3867 115.299Z" fill="black"/>
<path opacity="0.64" d="M71.3867 99.784C73.7101 99.784 75.5937 97.9006 75.5937 95.5771C75.5937 93.2537 73.7101 91.3701 71.3867 91.3701C69.0632 91.3701 67.1797 93.2537 67.1797 95.5771C67.1797 97.9006 69.0632 99.784 71.3867 99.784Z" fill="black"/>
<path opacity="0.64" d="M71.3867 84.2704C73.7101 84.2704 75.5937 82.3868 75.5937 80.0634C75.5937 77.7399 73.7101 75.8564 71.3867 75.8564C69.0632 75.8564 67.1797 77.7399 67.1797 80.0634C67.1797 82.3868 69.0632 84.2704 71.3867 84.2704Z" fill="black"/>
<path opacity="0.64" d="M71.3867 68.6259C73.7101 68.6259 75.5937 66.7424 75.5937 64.4189C75.5937 62.0955 73.7101 60.2119 71.3867 60.2119C69.0632 60.2119 67.1797 62.0955 67.1797 64.4189C67.1797 66.7424 69.0632 68.6259 71.3867 68.6259Z" fill="black"/>
<path opacity="0.64" d="M84.9277 115.299C87.2512 115.299 89.1347 113.415 89.1347 111.092C89.1347 108.768 87.2512 106.885 84.9277 106.885C82.6043 106.885 80.7207 108.768 80.7207 111.092C80.7207 113.415 82.6043 115.299 84.9277 115.299Z" fill="black"/>
<path opacity="0.64" d="M84.9277 99.784C87.2512 99.784 89.1347 97.9006 89.1347 95.5771C89.1347 93.2537 87.2512 91.3701 84.9277 91.3701C82.6043 91.3701 80.7207 93.2537 80.7207 95.5771C80.7207 97.9006 82.6043 99.784 84.9277 99.784Z" fill="black"/>
<path opacity="0.64" d="M84.9277 84.2704C87.2512 84.2704 89.1347 82.3868 89.1347 80.0634C89.1347 77.7399 87.2512 75.8564 84.9277 75.8564C82.6043 75.8564 80.7207 77.7399 80.7207 80.0634C80.7207 82.3868 82.6043 84.2704 84.9277 84.2704Z" fill="black"/>
<path opacity="0.64" d="M84.9277 68.6259C87.2512 68.6259 89.1347 66.7424 89.1347 64.4189C89.1347 62.0955 87.2512 60.2119 84.9277 60.2119C82.6043 60.2119 80.7207 62.0955 80.7207 64.4189C80.7207 66.7424 82.6043 68.6259 84.9277 68.6259Z" fill="black"/>
<path opacity="0.64" d="M98.4706 115.299C100.794 115.299 102.678 113.415 102.678 111.092C102.678 108.768 100.794 106.885 98.4706 106.885C96.1472 106.885 94.2637 108.768 94.2637 111.092C94.2637 113.415 96.1472 115.299 98.4706 115.299Z" fill="black"/>
<path opacity="0.64" d="M98.4706 99.784C100.794 99.784 102.678 97.9006 102.678 95.5771C102.678 93.2537 100.794 91.3701 98.4706 91.3701C96.1472 91.3701 94.2637 93.2537 94.2637 95.5771C94.2637 97.9006 96.1472 99.784 98.4706 99.784Z" fill="black"/>
<path opacity="0.64" d="M98.4706 84.2704C100.794 84.2704 102.678 82.3868 102.678 80.0634C102.678 77.7399 100.794 75.8564 98.4706 75.8564C96.1472 75.8564 94.2637 77.7399 94.2637 80.0634C94.2637 82.3868 96.1472 84.2704 98.4706 84.2704Z" fill="black"/>
<path opacity="0.64" d="M98.4706 68.6259C100.794 68.6259 102.678 66.7424 102.678 64.4189C102.678 62.0955 100.794 60.2119 98.4706 60.2119C96.1472 60.2119 94.2637 62.0955 94.2637 64.4189C94.2637 66.7424 96.1472 68.6259 98.4706 68.6259Z" fill="black"/>
<path opacity="0.64" d="M4.207 115.298C6.53046 115.298 8.41399 113.414 8.41399 111.091C8.41399 108.767 6.53046 106.884 4.207 106.884C1.88355 106.884 0 108.767 0 111.091C0 113.414 1.88355 115.298 4.207 115.298Z" fill="black"/>
<path opacity="0.64" d="M4.207 99.784C6.53046 99.784 8.41399 97.9006 8.41399 95.5771C8.41399 93.2537 6.53046 91.3701 4.207 91.3701C1.88355 91.3701 0 93.2537 0 95.5771C0 97.9006 1.88355 99.784 4.207 99.784Z" fill="black"/>
<path opacity="0.64" d="M4.207 84.2714C6.53046 84.2714 8.41399 82.3879 8.41399 80.0644C8.41399 77.741 6.53046 75.8575 4.207 75.8575C1.88355 75.8575 0 77.741 0 80.0644C0 82.3879 1.88355 84.2714 4.207 84.2714Z" fill="black"/>
<path opacity="0.64" d="M4.207 68.6279C6.53046 68.6279 8.41399 66.7443 8.41399 64.4209C8.41399 62.0974 6.53046 60.2139 4.207 60.2139C1.88355 60.2139 0 62.0974 0 64.4209C0 66.7443 1.88355 68.6279 4.207 68.6279Z" fill="black"/>
<path opacity="0.64" d="M17.748 115.299C20.0715 115.299 21.955 113.415 21.955 111.092C21.955 108.768 20.0715 106.885 17.748 106.885C15.4245 106.885 13.541 108.768 13.541 111.092C13.541 113.415 15.4245 115.299 17.748 115.299Z" fill="black"/>
<path opacity="0.64" d="M17.748 99.784C20.0715 99.784 21.955 97.9006 21.955 95.5771C21.955 93.2537 20.0715 91.3701 17.748 91.3701C15.4245 91.3701 13.541 93.2537 13.541 95.5771C13.541 97.9006 15.4245 99.784 17.748 99.784Z" fill="black"/>
<path opacity="0.64" d="M17.748 84.2713C20.0715 84.2713 21.955 82.3878 21.955 80.0643C21.955 77.7409 20.0715 75.8574 17.748 75.8574C15.4245 75.8574 13.541 77.7409 13.541 80.0643C13.541 82.3878 15.4245 84.2713 17.748 84.2713Z" fill="black"/>
<path opacity="0.64" d="M17.748 68.6279C20.0715 68.6279 21.955 66.7443 21.955 64.4209C21.955 62.0974 20.0715 60.2139 17.748 60.2139C15.4245 60.2139 13.541 62.0974 13.541 64.4209C13.541 66.7443 15.4245 68.6279 17.748 68.6279Z" fill="black"/>
<path opacity="0.64" d="M31.289 115.299C33.6125 115.299 35.496 113.415 35.496 111.092C35.496 108.768 33.6125 106.885 31.289 106.885C28.9656 106.885 27.082 108.768 27.082 111.092C27.082 113.415 28.9656 115.299 31.289 115.299Z" fill="black"/>
<path opacity="0.64" d="M31.289 99.784C33.6125 99.784 35.496 97.9006 35.496 95.5771C35.496 93.2537 33.6125 91.3701 31.289 91.3701C28.9656 91.3701 27.082 93.2537 27.082 95.5771C27.082 97.9006 28.9656 99.784 31.289 99.784Z" fill="black"/>
<path opacity="0.64" d="M31.289 84.2713C33.6125 84.2713 35.496 82.3878 35.496 80.0643C35.496 77.7409 33.6125 75.8574 31.289 75.8574C28.9656 75.8574 27.082 77.7409 27.082 80.0643C27.082 82.3878 28.9656 84.2713 31.289 84.2713Z" fill="black"/>
<path opacity="0.64" d="M31.289 68.6279C33.6125 68.6279 35.496 66.7443 35.496 64.4209C35.496 62.0974 33.6125 60.2139 31.289 60.2139C28.9656 60.2139 27.082 62.0974 27.082 64.4209C27.082 66.7443 28.9656 68.6279 31.289 68.6279Z" fill="black"/>
<path opacity="0.64" d="M44.8301 115.299C47.1535 115.299 49.0371 113.415 49.0371 111.092C49.0371 108.768 47.1535 106.885 44.8301 106.885C42.5066 106.885 40.623 108.768 40.623 111.092C40.623 113.415 42.5066 115.299 44.8301 115.299Z" fill="black"/>
<path opacity="0.64" d="M44.8301 99.784C47.1535 99.784 49.0371 97.9006 49.0371 95.5771C49.0371 93.2537 47.1535 91.3701 44.8301 91.3701C42.5066 91.3701 40.623 93.2537 40.623 95.5771C40.623 97.9006 42.5066 99.784 44.8301 99.784Z" fill="black"/>
<path opacity="0.64" d="M44.8301 84.2714C47.1535 84.2714 49.0371 82.3879 49.0371 80.0644C49.0371 77.741 47.1535 75.8575 44.8301 75.8575C42.5066 75.8575 40.623 77.741 40.623 80.0644C40.623 82.3879 42.5066 84.2714 44.8301 84.2714Z" fill="black"/>
<path opacity="0.64" d="M44.8301 68.6279C47.1535 68.6279 49.0371 66.7443 49.0371 64.4209C49.0371 62.0974 47.1535 60.2139 44.8301 60.2139C42.5066 60.2139 40.623 62.0974 40.623 64.4209C40.623 66.7443 42.5066 68.6279 44.8301 68.6279Z" fill="black"/>
<path opacity="0.64" d="M57.9765 55.0838C60.3 55.0838 62.1835 53.2004 62.1835 50.8769C62.1835 48.5535 60.3 46.6699 57.9765 46.6699C55.6531 46.6699 53.7695 48.5535 53.7695 50.8769C53.7695 53.2004 55.6531 55.0838 57.9765 55.0838Z" fill="black"/>
<path opacity="0.64" d="M57.9765 39.5712C60.3 39.5712 62.1835 37.6876 62.1835 35.3641C62.1835 33.0407 60.3 31.1572 57.9765 31.1572C55.6531 31.1572 53.7695 33.0407 53.7695 35.3641C53.7695 37.6876 55.6531 39.5712 57.9765 39.5712Z" fill="black"/>
<path opacity="0.64" d="M57.9765 23.9267C60.3 23.9267 62.1835 22.0432 62.1835 19.7197C62.1835 17.3962 60.3 15.5127 57.9765 15.5127C55.6531 15.5127 53.7695 17.3962 53.7695 19.7197C53.7695 22.0432 55.6531 23.9267 57.9765 23.9267Z" fill="black"/>
<path opacity="0.64" d="M57.9765 8.41393C60.3 8.41393 62.1835 6.53046 62.1835 4.207C62.1835 1.88355 60.3 0 57.9765 0C55.6531 0 53.7695 1.88355 53.7695 4.207C53.7695 6.53046 55.6531 8.41393 57.9765 8.41393Z" fill="black"/>
<path opacity="0.64" d="M71.3867 55.0858C73.7101 55.0858 75.5937 53.2023 75.5937 50.8789C75.5937 48.5554 73.7101 46.6719 71.3867 46.6719C69.0632 46.6719 67.1797 48.5554 67.1797 50.8789C67.1797 53.2023 69.0632 55.0858 71.3867 55.0858Z" fill="black"/>
<path opacity="0.64" d="M71.3867 39.5721C73.7101 39.5721 75.5937 37.6886 75.5937 35.3651C75.5937 33.0417 73.7101 31.1582 71.3867 31.1582C69.0632 31.1582 67.1797 33.0417 67.1797 35.3651C67.1797 37.6886 69.0632 39.5721 71.3867 39.5721Z" fill="black"/>
<path opacity="0.64" d="M71.3867 23.9287C73.7101 23.9287 75.5937 22.0451 75.5937 19.7217C75.5937 17.3982 73.7101 15.5146 71.3867 15.5146C69.0632 15.5146 67.1797 17.3982 67.1797 19.7217C67.1797 22.0451 69.0632 23.9287 71.3867 23.9287Z" fill="black"/>
<path opacity="0.64" d="M71.3867 8.41393C73.7101 8.41393 75.5937 6.53046 75.5937 4.207C75.5937 1.88355 73.7101 0 71.3867 0C69.0632 0 67.1797 1.88355 67.1797 4.207C67.1797 6.53046 69.0632 8.41393 71.3867 8.41393Z" fill="black"/>
<path opacity="0.64" d="M84.9277 55.0858C87.2512 55.0858 89.1347 53.2023 89.1347 50.8789C89.1347 48.5554 87.2512 46.6719 84.9277 46.6719C82.6043 46.6719 80.7207 48.5554 80.7207 50.8789C80.7207 53.2023 82.6043 55.0858 84.9277 55.0858Z" fill="black"/>
<path opacity="0.64" d="M84.9277 39.5721C87.2512 39.5721 89.1347 37.6886 89.1347 35.3651C89.1347 33.0417 87.2512 31.1582 84.9277 31.1582C82.6043 31.1582 80.7207 33.0417 80.7207 35.3651C80.7207 37.6886 82.6043 39.5721 84.9277 39.5721Z" fill="black"/>
<path opacity="0.64" d="M84.9277 23.9287C87.2512 23.9287 89.1347 22.0451 89.1347 19.7217C89.1347 17.3982 87.2512 15.5146 84.9277 15.5146C82.6043 15.5146 80.7207 17.3982 80.7207 19.7217C80.7207 22.0451 82.6043 23.9287 84.9277 23.9287Z" fill="black"/>
<path opacity="0.64" d="M84.9277 8.41393C87.2512 8.41393 89.1347 6.53046 89.1347 4.207C89.1347 1.88355 87.2512 0 84.9277 0C82.6043 0 80.7207 1.88355 80.7207 4.207C80.7207 6.53046 82.6043 8.41393 84.9277 8.41393Z" fill="black"/>
<path opacity="0.64" d="M98.4706 55.0858C100.794 55.0858 102.678 53.2023 102.678 50.8789C102.678 48.5554 100.794 46.6719 98.4706 46.6719C96.1472 46.6719 94.2637 48.5554 94.2637 50.8789C94.2637 53.2023 96.1472 55.0858 98.4706 55.0858Z" fill="black"/>
<path opacity="0.64" d="M98.4706 39.5721C100.794 39.5721 102.678 37.6886 102.678 35.3651C102.678 33.0417 100.794 31.1582 98.4706 31.1582C96.1472 31.1582 94.2637 33.0417 94.2637 35.3651C94.2637 37.6886 96.1472 39.5721 98.4706 39.5721Z" fill="black"/>
<path opacity="0.64" d="M98.4706 23.9267C100.794 23.9267 102.678 22.0432 102.678 19.7197C102.678 17.3962 100.794 15.5127 98.4706 15.5127C96.1472 15.5127 94.2637 17.3962 94.2637 19.7197C94.2637 22.0432 96.1472 23.9267 98.4706 23.9267Z" fill="black"/>
<path opacity="0.64" d="M98.4706 8.41393C100.794 8.41393 102.678 6.53046 102.678 4.207C102.678 1.88355 100.794 0 98.4706 0C96.1472 0 94.2637 1.88355 94.2637 4.207C94.2637 6.53046 96.1472 8.41393 98.4706 8.41393Z" fill="black"/>
<path opacity="0.64" d="M4.207 55.0858C6.53046 55.0858 8.41399 53.2023 8.41399 50.8789C8.41399 48.5554 6.53046 46.6719 4.207 46.6719C1.88355 46.6719 0 48.5554 0 50.8789C0 53.2023 1.88355 55.0858 4.207 55.0858Z" fill="black"/>
<path opacity="0.64" d="M4.207 39.5721C6.53046 39.5721 8.41399 37.6886 8.41399 35.3651C8.41399 33.0417 6.53046 31.1582 4.207 31.1582C1.88355 31.1582 0 33.0417 0 35.3651C0 37.6886 1.88355 39.5721 4.207 39.5721Z" fill="black"/>
<path opacity="0.64" d="M4.207 23.9267C6.53046 23.9267 8.41399 22.0432 8.41399 19.7197C8.41399 17.3962 6.53046 15.5127 4.207 15.5127C1.88355 15.5127 0 17.3962 0 19.7197C0 22.0432 1.88355 23.9267 4.207 23.9267Z" fill="black"/>
<path opacity="0.64" d="M4.207 8.41393C6.53046 8.41393 8.41399 6.53046 8.41399 4.207C8.41399 1.88355 6.53046 0 4.207 0C1.88355 0 0 1.88355 0 4.207C0 6.53046 1.88355 8.41393 4.207 8.41393Z" fill="black"/>
<path opacity="0.64" d="M17.748 55.0858C20.0715 55.0858 21.955 53.2023 21.955 50.8789C21.955 48.5554 20.0715 46.6719 17.748 46.6719C15.4245 46.6719 13.541 48.5554 13.541 50.8789C13.541 53.2023 15.4245 55.0858 17.748 55.0858Z" fill="black"/>
<path opacity="0.64" d="M17.748 39.5721C20.0715 39.5721 21.955 37.6886 21.955 35.3651C21.955 33.0417 20.0715 31.1582 17.748 31.1582C15.4245 31.1582 13.541 33.0417 13.541 35.3651C13.541 37.6886 15.4245 39.5721 17.748 39.5721Z" fill="black"/>
<path opacity="0.64" d="M17.748 23.9267C20.0715 23.9267 21.955 22.0432 21.955 19.7197C21.955 17.3962 20.0715 15.5127 17.748 15.5127C15.4245 15.5127 13.541 17.3962 13.541 19.7197C13.541 22.0432 15.4245 23.9267 17.748 23.9267Z" fill="black"/>
<path opacity="0.64" d="M17.748 8.41393C20.0715 8.41393 21.955 6.53046 21.955 4.207C21.955 1.88355 20.0715 0 17.748 0C15.4245 0 13.541 1.88355 13.541 4.207C13.541 6.53046 15.4245 8.41393 17.748 8.41393Z" fill="black"/>
<path opacity="0.64" d="M31.289 55.0858C33.6125 55.0858 35.496 53.2023 35.496 50.8789C35.496 48.5554 33.6125 46.6719 31.289 46.6719C28.9656 46.6719 27.082 48.5554 27.082 50.8789C27.082 53.2023 28.9656 55.0858 31.289 55.0858Z" fill="black"/>
<path opacity="0.64" d="M31.289 39.5721C33.6125 39.5721 35.496 37.6886 35.496 35.3651C35.496 33.0417 33.6125 31.1582 31.289 31.1582C28.9656 31.1582 27.082 33.0417 27.082 35.3651C27.082 37.6886 28.9656 39.5721 31.289 39.5721Z" fill="black"/>
<path opacity="0.64" d="M31.289 23.9267C33.6125 23.9267 35.496 22.0432 35.496 19.7197C35.496 17.3962 33.6125 15.5127 31.289 15.5127C28.9656 15.5127 27.082 17.3962 27.082 19.7197C27.082 22.0432 28.9656 23.9267 31.289 23.9267Z" fill="black"/>
<path opacity="0.64" d="M31.289 8.41393C33.6125 8.41393 35.496 6.53046 35.496 4.207C35.496 1.88355 33.6125 0 31.289 0C28.9656 0 27.082 1.88355 27.082 4.207C27.082 6.53046 28.9656 8.41393 31.289 8.41393Z" fill="black"/>
<path opacity="0.64" d="M44.8301 55.0838C47.1535 55.0838 49.0371 53.2004 49.0371 50.8769C49.0371 48.5535 47.1535 46.6699 44.8301 46.6699C42.5066 46.6699 40.623 48.5535 40.623 50.8769C40.623 53.2004 42.5066 55.0838 44.8301 55.0838Z" fill="black"/>
<path opacity="0.64" d="M44.8301 39.5709C47.1535 39.5709 49.0371 37.6874 49.0371 35.3639C49.0371 33.0405 47.1535 31.157 44.8301 31.157C42.5066 31.157 40.623 33.0405 40.623 35.3639C40.623 37.6874 42.5066 39.5709 44.8301 39.5709Z" fill="black"/>
<path opacity="0.64" d="M44.8301 23.9267C47.1535 23.9267 49.0371 22.0432 49.0371 19.7197C49.0371 17.3962 47.1535 15.5127 44.8301 15.5127C42.5066 15.5127 40.623 17.3962 40.623 19.7197C40.623 22.0432 42.5066 23.9267 44.8301 23.9267Z" fill="black"/>
<path opacity="0.64" d="M44.8301 8.41393C47.1535 8.41393 49.0371 6.53046 49.0371 4.207C49.0371 1.88355 47.1535 0 44.8301 0C42.5066 0 40.623 1.88355 40.623 4.207C40.623 6.53046 42.5066 8.41393 44.8301 8.41393Z" fill="black"/>
</g>
<path d="M33.2945 103.276L45.4297 114.164L34.5414 126.299L22.4062 115.411L33.2945 103.276Z" fill="#EE4D4A"/>
</svg>
