<svg width="238" height="487" viewBox="0 0 238 487" fill="none" xmlns="http://www.w3.org/2000/svg">
<g opacity="0.2">
<path d="M112.486 130.867C50.4181 203.143 58.6938 312.05 130.97 374.117C203.246 436.185 312.153 427.909 374.22 355.633C436.288 283.357 428.012 174.45 355.736 112.383C283.46 50.3151 174.553 58.5908 112.486 130.867Z" stroke="#545A5C" stroke-miterlimit="10"/>
<path d="M139.797 154.32C157.53 133.671 180.969 118.731 207.146 111.39C233.323 104.05 261.061 104.64 286.846 113.086C312.631 121.532 335.303 137.454 351.991 158.835C368.678 180.215 378.631 206.094 380.588 233.191C382.545 260.289 376.418 287.387 362.983 311.054C349.548 334.72 329.41 353.89 305.119 366.135C280.829 378.381 253.478 383.151 226.531 379.841C199.585 376.532 174.256 365.292 153.751 347.544C126.346 323.826 109.491 290.175 106.876 253.959C104.261 217.744 116.099 181.916 139.797 154.32V154.32Z" stroke="#545A5C" stroke-miterlimit="10"/>
<path d="M167.11 177.774C180.203 162.527 197.506 151.491 216.825 146.065C236.145 140.639 256.611 141.067 275.63 147.294C294.649 153.522 311.365 165.269 323.659 181.046C335.954 196.823 343.274 215.921 344.691 235.919C346.108 255.917 341.559 275.915 331.62 293.379C321.681 310.842 306.799 324.985 288.862 334.015C270.924 343.045 250.737 346.556 230.859 344.103C210.982 341.649 192.308 333.342 177.205 320.233C167.161 311.608 158.93 301.074 152.983 289.235C147.037 277.396 143.493 264.487 142.555 251.249C141.616 238.01 143.303 224.704 147.517 212.095C151.731 199.485 158.389 187.822 167.11 177.774V177.774Z" stroke="#545A5C" stroke-miterlimit="10"/>
<path d="M194.422 201.228C202.877 191.383 214.043 184.253 226.505 180.741C238.966 177.229 252.16 177.495 264.413 181.504C276.667 185.513 287.427 193.084 295.328 203.259C303.229 213.433 307.916 225.75 308.794 238.649C309.671 251.547 306.7 264.444 300.256 275.705C293.813 286.966 284.188 296.082 272.603 301.896C261.018 307.711 247.995 309.962 235.187 308.364C222.378 306.767 210.361 301.392 200.66 292.922C194.203 287.378 188.916 280.599 185.104 272.979C181.292 265.358 179.032 257.046 178.452 248.521C177.872 239.997 178.984 231.429 181.725 223.312C184.466 215.195 188.782 207.689 194.422 201.228Z" stroke="#545A5C" stroke-miterlimit="10"/>
</g>
<path d="M132.394 300.111C132.394 300.111 119.628 303.987 113.856 297.154C113.856 297.154 116.855 307.149 109.928 315.166C109.928 315.166 118.216 312.088 128.098 317.965C128.098 317.965 123.469 311.514 132.394 300.111Z" fill="#8EC6D8"/>
<path d="M153.963 149.614C153.963 149.614 158.337 137.234 167.099 136.759C167.099 136.759 157.454 133.161 155.154 122.916C155.154 122.916 152.759 131.289 142.357 135.575C142.357 135.575 150.152 135.773 153.963 149.614Z" fill="#EE4D4A"/>
<path d="M81.4786 307.476L89.2148 300.23L81.9696 292.494L74.2333 299.74L81.4786 307.476Z" fill="#F0CA50"/>
</svg>
