<svg width="206" height="206" viewBox="0 0 206 206" fill="none" xmlns="http://www.w3.org/2000/svg">
<g opacity="0.2">
<path d="M103.236 1.00027C46.773 1.00027 1.00028 46.773 1.00028 103.236C1.00028 159.7 46.773 205.473 103.236 205.473C159.7 205.473 205.473 159.7 205.473 103.236C205.473 46.773 159.7 1.00027 103.236 1.00027Z" stroke="#545A5C" stroke-miterlimit="10"/>
<path d="M103.235 22.3359C119.366 22.3361 135.134 27.1062 148.542 36.0421C161.95 44.978 172.395 57.6776 178.554 72.5326C184.712 87.3875 186.307 103.729 183.137 119.488C179.967 135.247 172.175 149.715 160.746 161.058C149.318 172.401 134.768 180.109 118.939 183.206C103.11 186.304 86.7153 184.651 71.83 178.457C56.9448 172.264 44.2392 161.808 35.3226 148.414C26.4061 135.02 21.6797 119.291 21.7419 103.219C21.8252 81.7385 30.4477 61.1663 45.7215 46.0068C60.9953 30.8473 81.6758 22.3358 103.235 22.3359V22.3359Z" stroke="#545A5C" stroke-miterlimit="10"/>
<path d="M103.235 43.6714C115.146 43.6716 126.789 47.1903 136.689 53.7818C146.588 60.3732 154.298 69.7405 158.842 80.6967C163.385 91.6528 164.558 103.705 162.211 115.325C159.865 126.945 154.104 137.61 145.659 145.969C137.215 154.328 126.467 160.004 114.777 162.278C103.087 164.553 90.9817 163.322 79.9952 158.744C69.0087 154.165 59.6354 146.444 53.0634 136.559C46.4914 126.674 43.0164 115.07 43.0787 103.218C43.0786 95.3714 44.6369 87.6026 47.6639 80.3576C50.6908 73.1126 55.1269 66.5344 60.7171 61.0009C66.3073 55.4674 72.9413 51.0878 80.238 48.1138C87.5347 45.1398 95.3501 43.6301 103.235 43.6714V43.6714Z" stroke="#545A5C" stroke-miterlimit="10"/>
<path d="M103.236 65.0084C110.927 65.0087 118.445 67.2761 124.836 71.523C131.226 75.77 136.201 81.8051 139.13 88.8626C142.059 95.92 142.809 103.682 141.285 111.163C139.762 118.644 136.033 125.508 130.572 130.882C125.112 136.257 118.165 139.901 110.614 141.352C103.063 142.803 95.2477 141.995 88.16 139.032C81.0723 136.068 75.0316 131.082 70.8041 124.705C66.5767 118.329 64.3532 110.851 64.4157 103.218C64.4156 98.174 65.4219 93.1797 67.3766 88.5233C69.3313 83.8669 72.1958 79.6408 75.8048 76.0885C79.4138 72.5363 83.6958 69.7283 88.4039 67.8266C93.1119 65.9249 98.1529 64.9671 103.236 65.0084Z" stroke="#545A5C" stroke-miterlimit="10"/>
</g>
<path d="M34.8284 75.3025C34.8284 75.3025 28.1564 71.0588 29.0001 65.8254C29.0001 65.8254 25.6638 71.0328 19.3845 71.0139C19.3845 71.0139 23.969 73.5517 25.142 80.2648C25.142 80.2648 26.255 75.6922 34.8284 75.3025Z" fill="#8EC6D8"/>
<path d="M106.373 30.2933C106.373 30.2933 118.723 25.5045 124.846 31.8981C124.846 31.8981 121.26 22.1512 127.589 13.6572C127.589 13.6572 119.607 17.3268 109.489 12.1831C109.489 12.1831 114.461 18.2789 106.373 30.2933Z" fill="#EE4D4A"/>
<path d="M11.8567 55.2527L18.1016 55.9336L18.7825 49.6887L12.5376 49.0078L11.8567 55.2527Z" fill="#F0CA50"/>
</svg>
