<svg width="64" height="64" viewBox="0 0 64 64" fill="none" xmlns="http://www.w3.org/2000/svg">
<path d="M42.1606 55.6289L43.0966 54.69L41.7961 53.8184H22.2631L20.9805 54.6012L21.8986 55.6289L31.9997 56.7539L42.1606 55.6289Z" fill="#F0CA50"/>
<path d="M21.8966 55.6289L20.5469 56.745L21.4289 57.9515H42.6264L43.5084 56.745L42.1586 55.6289H21.8966Z" fill="#E2BE49"/>
<path d="M17.4258 49.012L20.5622 50.137L23.2312 49.012L23.6985 46.6895L20.8573 45.5645L17.8932 46.6895L17.4258 49.012Z" fill="#D66E41"/>
<path d="M17.4247 49.0118L14.5637 63.2276C14.4833 63.627 14.7887 64 15.1962 64H19.6854C19.9927 64 20.2573 63.7833 20.3179 63.4821L23.2302 49.0117H17.4247V49.0118Z" fill="#E8834D"/>
<path d="M46.1647 46.6895L43.4959 45.5645L40.3594 46.6895L40.8269 49.012L43.4959 50.137L46.6322 49.012L46.1647 46.6895Z" fill="#D66E41"/>
<path d="M49.4945 63.2275L46.6335 49.0117H40.8281L43.7404 63.4821C43.801 63.7833 44.0656 64 44.3729 64H48.8621C49.2694 63.9998 49.5749 63.6268 49.4945 63.2275Z" fill="#E8834D"/>
<path d="M26.7422 4.84216L32.0002 5.96716L37.2582 4.84216V2.51953L32.0002 1.39453L26.7422 2.51953V4.84216Z" fill="#D66E41"/>
<path d="M37.2583 2.51988V1.29037C37.2583 0.57775 36.6807 0 35.9681 0H28.0326C27.3199 0 26.7422 0.57775 26.7422 1.29037V2.51988H37.2583Z" fill="#E8834D"/>
<path d="M3.22656 41.8461L32.0299 42.9711L60.7736 41.8461V39.5234L32.0299 38.3984L3.22656 39.5234V41.8461Z" fill="#D0D0D0"/>
<path d="M60.7736 39.5237H3.22656V7.42242C3.22656 5.99717 4.38194 4.8418 5.80719 4.8418H58.1929C59.6182 4.8418 60.7736 5.99717 60.7736 7.42242V39.5237Z" fill="#E4E4E4"/>
<path d="M62.7096 41.8477H1.29037C0.57775 41.8477 0 42.4253 0 43.1379V45.3997C0 46.1123 0.57775 46.69 1.29037 46.69H62.7098C63.4224 46.69 64.0001 46.1123 64.0001 45.3997V43.1379C64 42.4253 63.4222 41.8477 62.7096 41.8477Z" fill="#406BAC"/>
<path d="M62.7096 44.3673H1.29037C0.588 44.3673 0.017875 43.8058 0.001625 43.1074C0.00125 43.1177 0 43.1275 0 43.1378V45.3995C0 46.1122 0.57775 46.6899 1.29037 46.6899H62.7098C63.4224 46.6899 64.0001 46.1122 64.0001 45.3995V43.1378C64.0001 43.1275 63.9989 43.1175 63.9986 43.1074C63.9821 43.8058 63.412 44.3673 62.7096 44.3673Z" fill="#1C427B"/>
<path d="M18.7848 23.0185C21.8415 23.0185 24.9289 20.5087 24.9289 16.8012C24.3843 13.9027 21.8414 11.709 18.7848 11.709C15.728 11.709 13.1852 13.9026 12.6406 16.8012C12.6406 20.9175 15.728 23.0185 18.7848 23.0185Z" fill="#F0CA50"/>
<path d="M31.2148 31.4639C31.2148 33.7877 32.8047 34.5607 34.1247 34.5607C35.4446 34.5607 37.0346 33.7864 37.0346 31.4639C36.5731 30.3087 35.4446 29.4922 34.1247 29.4922C32.8048 29.4922 31.6763 30.3087 31.2148 31.4639Z" fill="#FF4755"/>
<path d="M34.1253 33.4346C32.8054 33.4346 31.6769 32.618 31.2154 31.4629C31.0719 31.8221 30.9922 32.2138 30.9922 32.6241C30.9922 34.3545 32.3949 35.7573 34.1252 35.7573C35.8556 35.7573 37.2583 34.3545 37.2583 32.6241C37.2583 32.2136 37.1786 31.8221 37.0351 31.4629C36.5737 32.618 35.4452 33.4346 34.1253 33.4346Z" fill="#FC2B3A"/>
<path d="M18.7848 21.893C15.728 21.893 13.1851 19.6994 12.6406 16.8008C12.5699 17.1773 12.5312 17.565 12.5312 17.962C12.5312 21.4158 15.331 24.2155 18.7848 24.2155C22.2385 24.2155 25.0383 21.4158 25.0383 17.962C25.0383 17.565 24.9996 17.1772 24.9289 16.8008C24.3843 19.6993 21.8415 21.893 18.7848 21.893Z" fill="#E2BE49"/>
<path d="M22.3582 15.457C21.9748 15.0828 21.3608 15.0908 20.9871 15.4741L17.8388 18.7024L16.5167 17.4168C16.1327 17.0431 15.5191 17.0521 15.1456 17.436C14.7722 17.82 14.7808 18.4338 15.1648 18.8071L17.1811 20.7679C17.3695 20.951 17.6133 21.0424 17.857 21.0424C18.1092 21.0424 18.3612 20.9445 18.5512 20.7498L22.3755 16.8283C22.7493 16.4446 22.7416 15.8309 22.3582 15.457Z" fill="#F9F6F6"/>
<path d="M21.6168 29.7702C21.2381 29.3917 20.6242 29.3917 20.2454 29.7702L18.7609 31.2546L17.2764 29.7702C16.8977 29.3917 16.2838 29.3917 15.9051 29.7702C15.5264 30.149 15.5264 30.7628 15.9051 31.1416L17.3894 32.626L15.9051 34.1105C15.5264 34.4892 15.5264 35.1031 15.9051 35.4818C16.0944 35.6711 16.3427 35.7658 16.5907 35.7658C16.8388 35.7658 17.0871 35.6711 17.2764 35.4818L18.7609 33.9973L20.2454 35.4818C20.4348 35.6711 20.6831 35.7658 20.9312 35.7658C21.1793 35.7658 21.4276 35.6711 21.6169 35.4818C21.9956 35.1031 21.9956 34.4892 21.6169 34.1105L20.1324 32.626L21.6169 31.1416C21.9954 30.7628 21.9954 30.149 21.6168 29.7702Z" fill="#8EC6D8"/>
<path d="M51.1909 29.7702C50.8122 29.3917 50.1983 29.3917 49.8195 29.7702L48.335 31.2546L46.8507 29.7702C46.4719 29.3917 45.858 29.3917 45.4793 29.7702C45.1007 30.149 45.1007 30.7628 45.4793 31.1416L46.9638 32.626L45.4793 34.1105C45.1007 34.4892 45.1007 35.1031 45.4793 35.4818C45.6687 35.6711 45.9169 35.7658 46.165 35.7658C46.4132 35.7658 46.6613 35.6711 46.8508 35.4818L48.3352 33.9973L49.8197 35.4818C50.009 35.6711 50.2573 35.7658 50.5054 35.7658C50.7535 35.7658 51.0017 35.6711 51.191 35.4818C51.5697 35.1031 51.5697 34.4892 51.191 34.1105L49.7067 32.626L51.191 31.1416C51.5697 30.7628 51.5697 30.149 51.1909 29.7702Z" fill="#8EC6D8"/>
<path d="M31.2722 20.9683C31.4616 21.1575 31.7099 21.2523 31.958 21.2523C32.2061 21.2523 32.4544 21.1575 32.6436 20.9683L34.128 19.4839L35.6124 20.9683C35.8017 21.1575 36.0499 21.2523 36.2981 21.2523C36.5462 21.2523 36.7944 21.1575 36.9839 20.9683C37.3625 20.5895 37.3625 19.9757 36.9839 19.5969L35.4995 18.1124L36.9839 16.6279C37.3625 16.2492 37.3625 15.6353 36.9839 15.2565C36.6051 14.878 35.9912 14.878 35.6125 15.2565L34.1281 16.7409L32.6437 15.2565C32.2651 14.8782 31.6512 14.8779 31.2724 15.2565C30.8937 15.6353 30.8937 16.2492 31.2724 16.6279L32.7567 18.1124L31.2724 19.5969C30.8936 19.9757 30.8936 20.5895 31.2722 20.9683Z" fill="#8EC6D8"/>
<path d="M27.9297 25.2991C27.8344 25.8261 28.184 26.3306 28.711 26.4261C28.8695 26.4547 30.5429 26.7467 32.8706 26.7467C36.0606 26.7467 40.4792 26.1981 43.9094 23.6715C46.706 21.6113 48.366 18.59 48.8434 14.691C48.9085 14.1595 48.5302 13.6757 47.9987 13.6107C47.4687 13.5461 46.9836 13.9238 46.9185 14.4553C46.5089 17.8006 45.1116 20.3745 42.7655 22.1053C37.5127 25.9808 29.1401 24.5327 29.056 24.5176C28.53 24.4232 28.0252 24.7723 27.9297 25.2991Z" fill="#EE4D4A"/>
</svg>
