<svg width="120" height="120" viewBox="0 0 120 120" fill="none" xmlns="http://www.w3.org/2000/svg">
<path d="M25.8108 87.6952L34.213 76.9004L22.5977 69.6577L36.1867 67.9546L33.1045 54.6357L43.92 63.0218L51.1767 51.4287L52.8831 64.9916L66.2274 61.9154L57.8253 72.7102L69.4406 79.9528L55.8516 81.6561L58.9337 94.975L48.1182 86.5889L40.8617 98.182L39.1553 84.6189L25.8108 87.6952Z" fill="#F7E39E"/>
<path d="M113.951 98.6777L100.284 112.319C98.8009 113.799 96.3976 113.799 94.9149 112.319L84.207 101.626L103.246 82.6241L105.992 85.3706L113.951 98.6777Z" fill="#545A5C"/>
<path d="M113.123 99.5059L113.953 98.6774C115.437 97.1966 115.437 94.7947 113.953 93.3137L105.995 85.3702L102.483 88.8753C99.5422 91.8104 99.5422 96.5708 102.483 99.5059C105.421 102.439 110.184 102.439 113.123 99.5059Z" fill="#1F2122"/>
<path d="M104.773 74.8224L88.2617 54.5384C82.3531 47.2798 71.6103 46.8783 64.9845 53.4914C62.746 55.7255 60.5023 57.976 58.2633 60.2105C51.8604 66.601 51.5993 77.3538 59.9265 82.819L64.1497 85.62C63.7667 85.8821 63.4027 86.1809 63.0647 86.5184C60.2424 89.3353 60.5963 93.9992 63.8112 96.3598L75.9511 103.589C80.9827 106.77 85.3632 105.96 88.5052 102.824L88.8757 102.454L90.3861 100.947L92.787 98.5505L104.126 87.2335C107.494 83.8723 107.773 78.5147 104.773 74.8224Z" fill="#5C9EDC"/>
<path d="M104.773 74.8223L88.2619 54.5384C84.0574 49.3732 77.4061 47.6838 71.5312 49.5197C74.3074 50.3958 76.8771 52.0692 78.8869 54.5384L95.3984 74.8223C98.3984 78.5145 98.119 83.872 94.7512 87.2334L83.4124 98.5505L81.0115 100.947L79.5012 102.454L79.1306 102.824C78.5442 103.409 77.9145 103.913 77.2455 104.326C81.7334 106.61 85.6362 105.688 88.5056 102.824L88.8762 102.454L90.3865 100.947L92.7874 98.5505L104.126 87.2334C107.494 83.8723 107.773 78.5147 104.773 74.8223Z" fill="#1C427B"/>
<path d="M19.7138 4.61621L6.04646 18.2575C4.56264 19.7383 4.56264 22.1402 6.04646 23.6212L15.7765 33.3993L34.6862 15.3014L22.0299 12.9679L19.7138 4.61621Z" fill="#F0CA50"/>
<path d="M18.8852 5.44168L19.7125 4.61574C21.1952 3.1359 23.5985 3.1359 25.0811 4.61574L34.5506 13.8283L29.5258 16.0722C26.5872 19.0052 21.824 19.0052 18.8854 16.0722C15.9445 13.1371 15.9445 8.37676 18.8852 5.44168Z" fill="#F7E39E"/>
<path d="M63.933 30.259L43.6104 13.7791C39.911 10.7847 34.5434 11.0636 31.1754 14.425L19.8366 25.7421L15.555 30.0157C12.413 33.1518 11.6011 37.5239 14.7886 42.5458L22.0315 54.6625C24.3968 57.8714 29.0695 58.2243 31.8919 55.4074C32.2298 55.0701 32.5291 54.7068 32.7919 54.3246L35.5983 58.5398C41.074 66.851 51.8473 66.5904 58.2502 60.1999C60.4889 57.9654 62.7436 55.7259 64.9821 53.4918C71.6079 46.8785 71.2057 36.1563 63.933 30.259Z" fill="#EE4D4A"/>
<g style="mix-blend-mode:multiply" opacity="0.1">
<path d="M63.935 30.2585L43.6123 13.7787C40.5467 11.2973 36.3362 11.066 33.0664 12.9719C33.4709 13.2082 33.863 13.4759 34.2373 13.7787L54.5602 30.2587C61.8329 36.1561 62.2351 46.878 55.6093 53.4912C53.3708 55.7252 51.1161 57.9649 48.8773 60.1992C47.0541 62.0189 44.8759 63.3396 42.567 64.1091C47.8379 65.9756 54.0059 64.4377 58.2523 60.1992C60.4911 57.9647 62.7458 55.7252 64.9843 53.4912C71.6098 46.878 71.2077 36.1559 63.935 30.2585Z" fill="#1F2122"/>
</g>
</svg>
