<svg width="201" height="93" viewBox="0 0 201 93" fill="none" xmlns="http://www.w3.org/2000/svg">
<g clip-path="url(#clip0_1374_11930)">
<path d="M176.154 35.4329L188.509 61.5984L201 2.12891L147.545 31.1874L176.154 35.4329Z" fill="#EE4D4A"/>
<path d="M128.532 64.1941L125.969 93.0001L166.823 47.9304L105.97 46.1377L128.532 64.1941Z" fill="#8EC6D8"/>
<path d="M72.65 61.9032L53.8711 83.9398L113.329 70.7114L64.7075 34.165L72.65 61.9032Z" fill="#1C427B"/>
<path d="M27.3637 27.9518L0 37.5301L58.0302 56.0136L34.5274 0L27.3637 27.9518Z" fill="#F7E39E"/>
<g style="mix-blend-mode:multiply" opacity="0.2">
<path d="M201 2.12891L176.154 35.4329L188.509 61.5984L201 2.12891Z" fill="#1F2122"/>
</g>
<g style="mix-blend-mode:multiply" opacity="0.2">
<path d="M166.823 47.9307L128.532 64.1943L125.969 93.0004L166.823 47.9307Z" fill="#1F2122"/>
</g>
<g style="mix-blend-mode:multiply" opacity="0.2">
<path d="M113.329 70.7115L72.65 61.9033L53.8711 83.9399L113.329 70.7115Z" fill="#1F2122"/>
</g>
<g style="mix-blend-mode:multiply" opacity="0.2">
<path d="M27.3637 27.9521L58.0302 56.0139L0 37.5304L27.3637 27.9521Z" fill="#1F2122"/>
</g>
<path d="M71.5916 17.3514C71.2737 17.2219 70.9168 17.3772 70.787 17.6944C70.6572 18.0115 70.813 18.3674 71.1309 18.4969C71.2088 18.5292 71.2867 18.5422 71.3645 18.5422C71.6111 18.5422 71.8382 18.3998 71.9356 18.1603C72.0588 17.8367 71.9031 17.4808 71.5916 17.3514Z" fill="#4D5254"/>
<path d="M82.5839 20.9757C82.253 20.8915 81.9155 21.0857 81.8312 21.4157C81.7468 21.7458 81.9415 22.0823 82.2724 22.1665C82.3243 22.1794 82.3762 22.1859 82.4282 22.1859C82.7007 22.1859 82.9538 22.0047 83.0251 21.7264C83.1095 21.3963 82.9083 21.0598 82.5839 20.9757Z" fill="#4D5254"/>
<path d="M78.8658 19.9207C78.5414 19.8236 78.1974 20.0048 78.0936 20.3284C77.9963 20.652 78.178 20.995 78.5024 21.0986C78.5608 21.118 78.6257 21.1245 78.6841 21.1245C78.9502 21.1245 79.1902 20.9562 79.2746 20.6908C79.3719 20.3673 79.1902 20.0242 78.8658 19.9207Z" fill="#4D5254"/>
<path d="M75.1998 18.7166C74.8754 18.6001 74.525 18.7684 74.4146 19.092C74.3043 19.4091 74.473 19.7651 74.791 19.8751C74.8559 19.901 74.9273 19.9074 74.9986 19.9074C75.2517 19.9074 75.4918 19.7521 75.5826 19.4997C75.6865 19.1826 75.5242 18.8266 75.1998 18.7166Z" fill="#4D5254"/>
<path d="M68.0422 15.8299C67.7308 15.6876 67.3674 15.8235 67.2246 16.1341C67.0819 16.4448 67.2181 16.8072 67.5296 16.9496C67.614 16.9884 67.6983 17.0078 67.7892 17.0078C68.0228 17.0078 68.2434 16.8719 68.3472 16.6519C68.49 16.3347 68.3537 15.9723 68.0422 15.8299Z" fill="#4D5254"/>
<path d="M54.7727 8.0641C54.5002 7.86347 54.1108 7.91525 53.9097 8.18706C53.7085 8.45888 53.7604 8.84719 54.0395 9.04782C54.1498 9.13195 54.2796 9.17078 54.4093 9.17078C54.5975 9.17078 54.7857 9.08665 54.9025 8.92485C55.0972 8.64656 55.0452 8.26473 54.7727 8.0641Z" fill="#4D5254"/>
<path d="M57.9259 10.2516C57.6404 10.0575 57.2575 10.1481 57.0694 10.4329C56.8812 10.7176 56.9591 11.0994 57.2446 11.2871C57.3484 11.3583 57.4652 11.3907 57.582 11.3907C57.7831 11.3907 57.9778 11.2871 58.0946 11.1059C58.2893 10.8276 58.2114 10.4458 57.9259 10.2516Z" fill="#4D5254"/>
<path d="M64.5772 14.1478C64.2722 13.9925 63.9023 14.1089 63.7466 14.4131C63.5909 14.7173 63.7077 15.0862 64.0126 15.2415C64.1035 15.2868 64.2008 15.3127 64.2981 15.3127C64.5188 15.3127 64.7394 15.1897 64.8497 14.9826C64.9989 14.672 64.8821 14.3031 64.5772 14.1478Z" fill="#4D5254"/>
<path d="M61.1967 12.2905C60.9047 12.1222 60.5284 12.2193 60.3532 12.5105C60.1845 12.8017 60.2818 13.1836 60.5738 13.3518C60.6711 13.4101 60.7815 13.436 60.8853 13.436C61.0994 13.436 61.3071 13.326 61.4174 13.1318C61.5926 12.8406 61.4952 12.4652 61.1967 12.2905Z" fill="#4D5254"/>
<path d="M109.35 24.2627C109.013 24.2627 108.734 24.528 108.74 24.871C108.74 25.2076 109.019 25.46 109.357 25.46C109.357 25.46 109.357 25.46 109.363 25.46C109.707 25.46 109.98 25.1946 109.973 24.8581C109.973 24.5216 109.694 24.2627 109.35 24.2627Z" fill="#4D5254"/>
<path d="M105.49 24.2241C105.152 24.2111 104.867 24.483 104.854 24.8195C104.841 25.156 105.114 25.4408 105.451 25.4537C105.457 25.4537 105.464 25.4537 105.47 25.4537C105.801 25.4537 106.074 25.1884 106.087 24.8583C106.093 24.5153 105.827 24.237 105.49 24.2241Z" fill="#4D5254"/>
<path d="M113.218 24.1792C112.88 24.1921 112.614 24.4769 112.627 24.8199C112.64 25.1499 112.913 25.4088 113.244 25.4088C113.25 25.4088 113.263 25.4088 113.27 25.4088C113.614 25.3959 113.873 25.1111 113.86 24.7681C113.841 24.4316 113.555 24.1662 113.218 24.1792Z" fill="#4D5254"/>
<path d="M117.072 23.9072C116.735 23.9719 116.482 24.2502 116.508 24.5868C116.534 24.9104 116.806 25.1563 117.124 25.1563C117.144 25.1563 117.157 25.1628 117.176 25.1563C117.513 25.1304 117.767 24.8198 117.741 24.4832C117.708 24.1532 117.41 23.9072 117.072 23.9072Z" fill="#4D5254"/>
<path d="M101.629 24.0362C101.292 24.0168 100.993 24.2692 100.974 24.6057C100.954 24.9423 101.207 25.24 101.551 25.2594C101.564 25.2594 101.577 25.2594 101.59 25.2594C101.915 25.2594 102.181 25.0134 102.207 24.6834C102.226 24.3533 101.967 24.0621 101.629 24.0362Z" fill="#4D5254"/>
<path d="M86.3342 21.8812C86.0033 21.81 85.6723 22.0171 85.601 22.3472C85.5296 22.6772 85.7372 23.0073 86.0682 23.0785C86.1136 23.0849 86.159 23.0914 86.1979 23.0914C86.4834 23.0914 86.7365 22.8973 86.8014 22.6125C86.8793 22.2824 86.6716 21.9524 86.3342 21.8812Z" fill="#4D5254"/>
<path d="M90.1235 22.6324C89.7861 22.5741 89.4682 22.7942 89.4098 23.1307C89.3514 23.4672 89.572 23.7844 89.9094 23.8426C89.9483 23.8491 89.9808 23.8491 90.0197 23.8491C90.3117 23.8491 90.5713 23.642 90.6232 23.3443C90.6816 23.0142 90.461 22.6971 90.1235 22.6324Z" fill="#4D5254"/>
<path d="M93.9392 23.2468C93.6018 23.2015 93.2903 23.4345 93.2449 23.7711C93.1995 24.1076 93.4331 24.4182 93.7705 24.4635C93.8029 24.47 93.8289 24.47 93.8549 24.47C94.1598 24.47 94.4194 24.25 94.4648 23.9393C94.5102 23.6028 94.2766 23.2921 93.9392 23.2468Z" fill="#4D5254"/>
<path d="M97.7744 23.7128C97.437 23.6805 97.132 23.9264 97.0995 24.2629C97.0671 24.5995 97.3137 24.9036 97.6511 24.936C97.6706 24.936 97.6965 24.936 97.716 24.936C98.0275 24.936 98.2935 24.703 98.3259 24.3859C98.3584 24.0494 98.1118 23.7452 97.7744 23.7128Z" fill="#4D5254"/>
<path d="M51.3528 5.52734C51.1906 5.52734 51.0283 5.59206 50.918 5.70855C50.8012 5.82505 50.7363 5.98037 50.7363 6.14217C50.7363 6.30396 50.8012 6.46576 50.918 6.57578C51.0348 6.69227 51.1906 6.75699 51.3528 6.75699C51.515 6.75699 51.6772 6.69227 51.7875 6.57578C51.9043 6.45929 51.9692 6.30396 51.9692 6.14217C51.9692 5.98037 51.9043 5.82505 51.7875 5.70855C51.6772 5.59853 51.515 5.52734 51.3528 5.52734Z" fill="#4D5254"/>
<path d="M170.06 1.23643C169.937 1.11347 169.749 1.07464 169.587 1.13936L161.904 4.03873C161.67 4.12933 161.553 4.38821 161.638 4.62119C161.728 4.85418 161.988 4.97067 162.222 4.88654L168.107 2.6667C157.426 13.8241 140.322 21.4738 120.933 23.7389C120.686 23.7648 120.505 23.9913 120.537 24.2437C120.563 24.4767 120.758 24.645 120.985 24.645C121.004 24.645 121.017 24.645 121.037 24.645C140.562 22.3669 157.809 14.659 168.646 3.42391L166.718 9.20324C166.641 9.4427 166.77 9.6951 167.004 9.77923C167.049 9.79217 167.101 9.80512 167.147 9.80512C167.335 9.80512 167.517 9.68215 167.575 9.49447L170.171 1.72182C170.235 1.53414 170.19 1.35293 170.06 1.23643Z" fill="#4D5254"/>
</g>
<defs>
<clipPath id="clip0_1374_11930">
<rect width="201" height="93" fill="white"/>
</clipPath>
</defs>
</svg>
