<svg width="85" height="147" viewBox="0 0 85 147" fill="none" xmlns="http://www.w3.org/2000/svg">
<path d="M66.0518 90.9816C43.4213 92.3615 24.7466 78.1026 16.2832 62.0957C8.73974 47.7447 10.3036 33.7616 10.8556 29.3459C12.2107 18.6226 16.4736 8.47434 23.1827 0L33.1181 10.4873C30.6342 13.707 24.1027 22.9064 24.0107 35.8775C23.9187 37.2574 24.1027 57.22 40.3855 68.9952C46.1353 73.2587 52.9868 75.7847 60.1281 76.2738C67.2694 76.763 74.4013 75.1947 80.6787 71.755C96.1337 63.3836 100.273 46.6407 101.009 43.421H114.9C114.101 51.1035 111.619 58.5157 107.633 65.1314C106.253 67.4313 92.4539 89.3258 66.0518 90.9816Z" fill="#5C9EDC"/>
<path d="M34.1296 43.2372H0.18397L0 28.7021H34.1296V43.2372Z" fill="#5C9EDC"/>
<path d="M45.3619 112.33C45.3619 112.33 50.5855 123.422 45.1062 129.698C45.1062 129.698 53.8033 125.53 62.0473 130.715C62.0473 130.715 58.0914 123.688 62.0798 113.921C62.0798 113.921 56.9541 118.946 45.3619 112.33Z" fill="#F0CA50"/>
<path d="M14.4808 100.701C14.4808 100.701 10.5774 105.721 6.54253 104.573C7.68255 105.534 8.57686 106.753 9.15129 108.13C9.72572 109.506 9.96373 110.999 9.84551 112.486C10.8041 111.374 11.9829 110.472 13.3075 109.839C14.632 109.205 16.0736 108.853 17.541 108.805C17.541 108.805 14.0468 107.547 14.4808 100.701Z" fill="#EE4D4A"/>
</svg>
