<svg width="75" height="53" viewBox="0 0 75 53" fill="none" xmlns="http://www.w3.org/2000/svg">
<path d="M64.776 32.1133C64.776 32.1133 61.7591 41.9764 54.7969 42.7886C54.7969 42.7886 62.5713 45.1094 64.776 52.9999C64.776 52.9999 66.2845 46.3858 74.291 42.5566C74.291 42.5566 68.2571 42.7886 64.776 32.1133Z" fill="#1C427B"/>
<path d="M7.19428 0C7.19428 0 3.13299 3.4811 0 1.85659C0.778104 2.84075 1.31031 3.99624 1.55248 5.22724C1.79464 6.45824 1.73979 7.72927 1.39245 8.93483C2.36959 8.17922 3.49278 7.63441 4.69111 7.33483C5.88944 7.03525 7.13688 6.98739 8.35465 7.19428C8.35465 7.19428 5.6858 5.56976 7.19428 0Z" fill="#F0CA50"/>
<path d="M42.2639 9.25391L10.1218 40.6998C7.80106 43.6007 8.26521 47.4299 10.2378 49.1705C12.2105 50.911 17.084 50.4469 19.2887 46.7337L42.2639 9.25391Z" fill="#EE4D4A"/>
<path d="M14.0687 48.358C16.1194 48.358 17.7818 46.6955 17.7818 44.6448C17.7818 42.5941 16.1194 40.9316 14.0687 40.9316C12.0179 40.9316 10.3555 42.5941 10.3555 44.6448C10.3555 46.6955 12.0179 48.358 14.0687 48.358Z" fill="white"/>
</svg>
