<svg width="129" height="94" viewBox="0 0 129 94" fill="none" xmlns="http://www.w3.org/2000/svg">
<g clip-path="url(#clip0_1855_17598)">
<path d="M122.755 35.5155V39.4364C122.755 40.9795 122.553 42.5478 122.125 44.0403L118.597 56.4101L104.035 43.6103V56.4101H97.7861L94.4855 46.4434C93.9312 44.7486 93.6289 42.9526 93.6289 41.1566V39.6894C93.6289 36.4009 96.1484 33.6942 99.3734 33.4413C99.449 33.3401 99.5498 33.2642 99.6254 33.163C100.759 32.0247 102.321 31.3164 104.035 31.3164H118.597C120.89 31.3417 122.755 33.2136 122.755 35.5155Z" fill="#1F2122"/>
<path d="M114.413 62.6582H101.941V71.8913H114.413V62.6582Z" fill="#E6AF78"/>
<path d="M101.941 66.5032C103.881 67.2874 105.973 67.7427 108.19 67.7427C110.407 67.7427 112.498 67.2874 114.438 66.5032V62.6582H101.967L101.941 66.5032Z" fill="#D29B6E"/>
<path d="M124.463 70.6259L114.435 67.7422L108.186 71.8907L101.938 67.7422L91.9102 70.6259C89.2395 71.3848 87.375 73.8638 87.375 76.6464V91.9252C87.375 93.0888 88.3072 94.0248 89.4662 94.0248H126.906C128.065 94.0248 128.998 93.0888 128.998 91.9252V76.6464C128.998 73.8385 127.158 71.3848 124.463 70.6259Z" fill="#F7E39E"/>
<path d="M110.282 93.9994H106.125L107.158 71.916H109.224L110.282 93.9994Z" fill="#545A5C"/>
<path d="M108.19 64.7579C101.287 64.7579 95.7188 59.1422 95.7188 52.2363V49.7826C95.7188 48.6696 96.1471 47.6072 96.9281 46.823L100.707 43.0286C101.514 42.2191 102.597 41.7638 103.731 41.7891C110.382 41.9915 116.278 43.4333 119.478 46.5953C120.259 47.3795 120.687 48.4419 120.687 49.555V52.211C120.687 59.1422 115.094 64.7579 108.19 64.7579Z" fill="#F0C087"/>
<path d="M120.684 82.8695C120.684 81.2 121.339 79.6064 122.523 78.4427L127.889 73.0547C128.595 74.0918 129.023 75.3313 129.023 76.6467V91.9255C129.023 93.0891 128.091 94.0251 126.932 94.0251H120.684V82.8695Z" fill="#F0CA50"/>
<path d="M109.222 76.0899H107.131C106.551 76.0899 106.098 75.6345 106.098 75.0527V71.916H110.255V75.0527C110.28 75.6345 109.801 76.0899 109.222 76.0899Z" fill="#1F2122"/>
<path d="M108.188 71.8909L104.66 74.5976C104.055 75.0529 103.174 74.8759 102.796 74.1929L99.6211 68.4001L100.906 66.4523C101.183 66.0223 101.788 65.9464 102.166 66.3005L108.188 71.8909Z" fill="#F0CA50"/>
<path d="M108.188 71.8909L111.715 74.5976C112.32 75.0529 113.201 74.8759 113.579 74.1929L116.754 68.4001L115.469 66.4523C115.192 66.0223 114.587 65.9464 114.209 66.3005L108.188 71.8909Z" fill="#F0CA50"/>
<path d="M37.2414 63.898C35.4526 59.1676 34.0416 51.0476 33.7393 46.7979C33.1598 38.7537 27.1129 32.1768 18.9496 32.1768C10.7863 32.1768 4.73947 38.7537 4.15998 46.7979C3.85764 51.0223 2.4467 59.1676 0.657832 63.898C0.254707 64.9351 0.708223 66.0987 1.74123 66.554C3.65607 67.4141 7.71252 69.1089 12.6004 69.7919H25.2737C30.1615 69.1342 34.2432 67.4394 36.1328 66.554C37.191 66.0734 37.6446 64.9351 37.2414 63.898Z" fill="#1F2122"/>
<path d="M33.9885 73.9655L27.2613 70.5758C25.8504 69.8675 24.9686 68.4257 24.9686 66.832V60.5586H12.4717V66.832C12.4717 68.4257 11.5898 69.8675 10.1789 70.5758L3.45176 73.9655C1.33535 75.0279 0 77.2034 0 79.5812V91.9257C0 93.0893 0.932227 94.0252 2.09121 94.0252H35.3742C36.5332 94.0252 37.4654 93.0893 37.4654 91.9257V79.5812C37.4402 77.2034 36.1049 75.0279 33.9885 73.9655Z" fill="#E6AF78"/>
<path d="M18.7203 68.9316C20.9627 68.9316 23.1043 68.4762 25.0695 67.6415C25.0191 67.3885 24.9688 67.1103 24.9688 66.832V60.5586H12.4719V66.832C12.4719 67.1103 12.4215 67.3632 12.3711 67.6415C14.3363 68.4762 16.4779 68.9316 18.7203 68.9316Z" fill="#D29B6E"/>
<path d="M33.9885 73.9654L29.2014 71.5623C26.9842 75.0025 23.1293 77.3045 18.7201 77.3045C14.3109 77.3045 10.4561 75.0278 8.23887 71.5623L3.45176 73.9654C1.33535 75.0278 0 77.2033 0 79.5811V91.9256C0 93.0892 0.932227 94.0251 2.09121 94.0251H35.3742C36.5332 94.0251 37.4654 93.0892 37.4654 91.9256V79.5811C37.4402 77.2033 36.1049 75.0278 33.9885 73.9654Z" fill="#F7E39E"/>
<path d="M18.7208 64.758C12.3715 64.758 7.13092 60.0024 6.34986 53.8554C6.22389 52.9701 6.65221 52.0847 7.45846 51.68C8.41588 51.1994 9.80162 50.3646 11.137 49.1757C12.6235 47.835 13.4801 46.4437 13.984 45.4066C14.4124 44.5212 15.3698 44.0153 16.3272 44.2682C23.659 46.1401 28.6477 49.9598 30.4618 51.5282C30.9405 51.9582 31.2176 52.5653 31.1672 53.1977C30.6633 59.6735 25.2967 64.758 18.7208 64.758Z" fill="#F0C087"/>
<path d="M1.25977 75.8125C0.453516 76.8749 0 78.1903 0 79.5816V91.9261C0 93.0897 0.932227 94.0256 2.09121 94.0256H8.31445V83.4772C8.31445 82.2124 7.73496 80.9982 6.75234 80.214L1.25977 75.8125Z" fill="#F0CA50"/>
<path d="M94.3791 71.1071L76.9691 64.7578L64.4975 68.9317L52.0258 64.7578L34.6158 71.1071C31.3152 72.296 29.1484 75.458 29.1484 78.9489V91.9004C29.1484 93.0641 30.0807 94 31.2396 94H97.8309C98.9898 94 99.9221 93.0641 99.9221 91.9004V78.9489C99.8717 75.458 97.6797 72.3213 94.3791 71.1071Z" fill="#5C9EDC"/>
<path d="M62.309 73.1055L60.3438 94H68.6582L66.693 73.1055H62.309Z" fill="#545A5C"/>
<path d="M66.6951 75.9892H62.3363C61.5301 75.9892 60.875 75.3315 60.875 74.5221V68.9316H68.1564V74.5221C68.1564 75.3315 67.5014 75.9892 66.6951 75.9892Z" fill="#1F2122"/>
<path d="M97.6295 73.2822C99.0404 74.8 99.8719 76.8237 99.8719 78.9738V91.9254C99.8719 93.089 98.9397 94.025 97.7807 94.025H87.375V87.018C87.375 84.7919 88.2568 82.667 89.8189 81.0987L97.6295 73.2822Z" fill="#1C427B"/>
<path d="M87.3736 21.6787V4.17384C87.3736 1.87191 85.5092 0 83.2164 0H58.2478C49.0516 0 41.5938 7.48762 41.5938 16.7207V21.6787C41.5938 23.93 41.9465 26.1561 42.652 28.2809L43.3322 30.3552C43.5338 30.9876 43.6598 31.6706 43.6598 32.3283V33.3907H85.2824V32.3283C85.2824 31.6453 85.3832 30.9876 85.61 30.3552L86.2902 28.2809C87.0209 26.1561 87.3736 23.93 87.3736 21.6787Z" fill="#1F2122"/>
<path d="M76.9725 50.1367H52.0039V68.9317H76.9725V50.1367Z" fill="#E6AF78"/>
<path d="M52.0291 57.1943C55.7076 59.3445 59.9656 60.584 64.5008 60.584C69.0359 60.584 73.3191 59.3445 76.9725 57.1943V50.1367H52.0039L52.0291 57.1943Z" fill="#D29B6E"/>
<path d="M64.4961 68.9314L57.8697 75.5843C56.9879 76.4696 55.5014 76.3684 54.7455 75.3819L47.8672 66.2753L49.6561 62.4556C50.1852 61.3426 51.5709 60.9126 52.6291 61.5703L64.4961 68.9314Z" fill="#1C427B"/>
<path d="M64.4961 68.9314L71.1225 75.5843C72.0043 76.4696 73.4908 76.3684 74.2467 75.3819L81.125 66.2753L79.3361 62.4556C78.807 61.3426 77.4213 60.9126 76.3631 61.5703L64.4961 68.9314Z" fill="#1C427B"/>
<path d="M64.4988 56.41C53.0098 56.41 43.6875 47.0504 43.6875 35.5155V33.0617C43.6875 31.9487 44.1158 30.8863 44.8969 30.1021L46.6102 28.382C47.3912 27.5978 47.8195 26.5354 47.8195 25.4223V20.4137C47.8195 19.4525 48.4746 18.6177 49.4068 18.39C54.3199 17.2264 69.6387 14.4692 80.0695 22.1592C80.7498 22.6651 81.1277 23.4745 81.1277 24.3346V25.4476C81.1277 26.5607 81.5561 27.6231 82.3371 28.4073L84.0504 30.1274C84.8314 30.9116 85.2598 31.974 85.2598 33.087V35.5407C85.3102 47.0504 75.9879 56.41 64.4988 56.41Z" fill="#F0C087"/>
<path d="M31.3713 73.2822C29.9604 74.8 29.1289 76.8237 29.1289 78.9738V91.9254C29.1289 93.089 30.0611 94.025 31.2201 94.025H41.6258V87.018C41.6258 84.7919 40.7439 82.667 39.1818 81.0987L31.3713 73.2822Z" fill="#1C427B"/>
</g>
<defs>
<clipPath id="clip0_1855_17598">
<rect width="129" height="94" fill="white"/>
</clipPath>
</defs>
</svg>
