<svg width="374" height="487" viewBox="0 0 374 487" fill="none" xmlns="http://www.w3.org/2000/svg">
<g opacity="0.2">
<path d="M260.874 131.132C322.941 203.409 314.666 312.316 242.39 374.383C170.113 436.451 61.2064 428.175 -0.861061 355.899C-62.9285 283.623 -54.6528 174.716 17.6233 112.648C89.8994 50.5807 198.806 58.8564 260.874 131.132Z" stroke="#2D2F30" stroke-miterlimit="10"/>
<path d="M233.562 154.586C215.83 133.937 192.391 118.997 166.213 111.656C140.036 104.316 112.298 104.906 86.5135 113.352C60.7285 121.798 38.0564 137.72 21.3687 159.101C4.68092 180.482 -5.27167 206.36 -7.22847 233.457C-9.18527 260.555 -3.05822 287.653 10.3765 311.32C23.8113 334.986 43.9493 354.156 68.2401 366.402C92.5309 378.647 119.882 383.417 146.828 380.108C173.774 376.798 199.104 365.558 219.609 347.811C247.013 324.092 263.868 290.441 266.483 254.225C269.099 218.01 257.261 182.182 233.562 154.586V154.586Z" stroke="#2D2F30" stroke-miterlimit="10"/>
<path d="M206.248 178.04C193.154 162.793 175.851 151.758 156.532 146.332C137.213 140.905 116.747 141.333 97.7277 147.561C78.7086 153.788 61.9925 165.535 49.6979 181.312C37.4033 197.09 30.0837 216.187 28.6665 236.185C27.2494 256.183 31.7986 276.181 41.7376 293.645C51.6766 311.108 66.5579 325.251 84.4958 334.281C102.434 343.311 122.621 346.822 142.498 344.369C162.376 341.915 181.049 333.608 196.152 320.499C206.196 311.874 214.428 301.34 220.374 289.501C226.321 277.662 229.865 264.753 230.803 251.515C231.741 238.276 230.055 224.97 225.841 212.361C221.627 199.751 214.968 188.088 206.248 178.04V178.04Z" stroke="#2D2F30" stroke-miterlimit="10"/>
<path d="M178.935 201.494C170.48 191.649 159.314 184.518 146.853 181.007C134.392 177.495 121.197 177.76 108.944 181.769C96.6907 185.778 85.9308 193.35 78.0294 203.524C70.1279 213.698 65.4411 226.016 64.5637 238.914C63.6862 251.812 66.6577 264.71 73.101 275.971C79.5443 287.231 89.169 296.347 100.754 302.162C112.339 307.977 125.362 310.228 138.171 308.63C150.98 307.032 162.997 301.658 172.698 293.188C179.155 287.643 184.442 280.865 188.253 273.244C192.065 265.624 194.326 257.311 194.906 248.787C195.486 240.262 194.373 231.695 191.632 223.578C188.891 215.461 184.576 207.955 178.935 201.494Z" stroke="#2D2F30" stroke-miterlimit="10"/>
</g>
<path d="M240.965 300.378C240.965 300.378 253.732 304.253 259.503 297.42C259.503 297.42 256.505 307.415 263.432 315.432C263.432 315.432 255.143 312.354 245.261 318.232C245.261 318.232 249.891 311.78 240.965 300.378Z" fill="#8EC6D8"/>
<path d="M219.395 149.879C219.395 149.879 215.021 137.499 206.259 137.024C206.259 137.024 215.904 133.426 218.205 123.181C218.205 123.181 220.6 131.554 231.002 135.84C231.002 135.84 223.207 136.038 219.395 149.879Z" fill="#EE4D4A"/>
<path d="M291.881 307.741L284.145 300.496L291.39 292.76L299.126 300.005L291.881 307.741Z" fill="#F0CA50"/>
</svg>
