<svg width="112" height="86" viewBox="0 0 112 86" fill="none" xmlns="http://www.w3.org/2000/svg">
<path d="M98.897 57.8693C96.533 59.4454 77.6204 72.2507 54.1767 64.9615C46.7313 62.7236 39.8877 58.8327 34.1567 53.5793C28.4257 48.3259 23.9555 41.8458 21.0798 34.6227C19.8603 31.1073 19.0021 27.4768 18.5187 23.7874L0.000183105 24.1814C0.529572 31.4429 2.26048 38.5662 5.12234 45.261C16.9427 72.8418 44.3265 81.904 47.4785 82.8891C60.9571 87.0368 75.3712 87.0368 88.8497 82.8891C97.2671 80.3868 105.102 76.2347 111.899 70.6747L98.897 57.8693Z" fill="#8EC6D8"/>
<path d="M38.8173 9.23643e-07L54.3838 8.06891L46.3421 23.5829L30.7756 15.514L38.8173 9.23643e-07Z" fill="#EE4D4A"/>
<path d="M74.8625 19.0595L74.0745 29.1068L98.1092 37.381L99.0942 27.3337L74.8625 19.0595Z" fill="#8EC6D8"/>
</svg>
