<svg width="158" height="231" viewBox="0 0 158 231" fill="none" xmlns="http://www.w3.org/2000/svg">
<path fill-rule="evenodd" clip-rule="evenodd" d="M127.667 122C129.324 122 130.667 123.343 130.667 125L130.667 200.167C130.667 201.823 129.324 203.167 127.667 203.167C126.01 203.167 124.667 201.823 124.667 200.167L124.667 125C124.667 123.343 126.01 122 127.667 122Z" fill="#EE4D4A"/>
<path fill-rule="evenodd" clip-rule="evenodd" d="M97.3329 170.097C98.5677 168.993 100.464 169.098 101.569 170.333L129.902 201.999C131.007 203.234 130.902 205.131 129.667 206.235C128.432 207.34 126.536 207.235 125.431 206L97.0976 174.333C95.9928 173.099 96.0981 171.202 97.3329 170.097Z" fill="#EE4D4A"/>
<path fill-rule="evenodd" clip-rule="evenodd" d="M156.96 170.062C158.215 171.145 158.354 173.039 157.271 174.293L129.938 205.96C128.855 207.214 126.961 207.353 125.707 206.271C124.452 205.188 124.313 203.294 125.396 202.039L152.729 170.373C153.812 169.119 155.706 168.979 156.96 170.062Z" fill="#EE4D4A"/>
<g opacity="0.05">
<path opacity="0.64" d="M0.397083 181.394C0.397083 183.955 2.47283 186.03 5.03338 186.03C7.59393 186.03 9.66968 183.955 9.66968 181.394C9.66968 178.834 7.59393 176.758 5.03338 176.758C2.47283 176.758 0.397083 178.834 0.397083 181.394Z" fill="black"/>
<path opacity="0.64" d="M17.4934 181.394C17.4934 183.955 19.569 186.03 22.1296 186.03C24.6901 186.03 26.7659 183.955 26.7659 181.394C26.7659 178.834 24.6901 176.758 22.1296 176.758C19.569 176.758 17.4934 178.834 17.4934 181.394Z" fill="black"/>
<path opacity="0.64" d="M34.59 181.394C34.59 183.955 36.6658 186.03 39.2263 186.03C41.7869 186.03 43.8625 183.955 43.8625 181.394C43.8625 178.834 41.7869 176.758 39.2263 176.758C36.6658 176.758 34.59 178.834 34.59 181.394Z" fill="black"/>
<path opacity="0.64" d="M51.8307 181.394C51.8307 183.955 53.9064 186.03 56.467 186.03C59.0275 186.03 61.1033 183.955 61.1033 181.394C61.1033 178.834 59.0275 176.758 56.467 176.758C53.9064 176.758 51.8307 178.834 51.8307 181.394Z" fill="black"/>
<path opacity="0.64" d="M0.397083 196.318C0.397083 198.878 2.47283 200.954 5.03338 200.954C7.59393 200.954 9.66968 198.878 9.66968 196.318C9.66968 193.757 7.59393 191.682 5.03338 191.682C2.47283 191.682 0.397083 193.757 0.397083 196.318Z" fill="black"/>
<path opacity="0.64" d="M17.4934 196.318C17.4934 198.878 19.569 200.954 22.1296 200.954C24.6901 200.954 26.7659 198.878 26.7659 196.318C26.7659 193.757 24.6901 191.682 22.1296 191.682C19.569 191.682 17.4934 193.757 17.4934 196.318Z" fill="black"/>
<path opacity="0.64" d="M34.59 196.318C34.59 198.878 36.6658 200.954 39.2263 200.954C41.7869 200.954 43.8625 198.878 43.8625 196.318C43.8625 193.757 41.7869 191.682 39.2263 191.682C36.6658 191.682 34.59 193.757 34.59 196.318Z" fill="black"/>
<path opacity="0.64" d="M51.8308 196.318C51.8308 198.878 53.9065 200.954 56.4671 200.954C59.0276 200.954 61.1034 198.878 61.1034 196.318C61.1034 193.757 59.0276 191.682 56.4671 191.682C53.9065 191.682 51.8308 193.757 51.8308 196.318Z" fill="black"/>
<path opacity="0.64" d="M0.397083 211.241C0.397083 213.801 2.47283 215.877 5.03338 215.877C7.59393 215.877 9.66968 213.801 9.66968 211.241C9.66968 208.68 7.59393 206.604 5.03338 206.604C2.47283 206.604 0.397083 208.68 0.397083 211.241Z" fill="black"/>
<path opacity="0.64" d="M17.4934 211.24C17.4934 213.8 19.569 215.876 22.1296 215.876C24.6901 215.876 26.7659 213.8 26.7659 211.24C26.7659 208.679 24.6901 206.604 22.1296 206.604C19.569 206.604 17.4934 208.679 17.4934 211.24Z" fill="black"/>
<path opacity="0.64" d="M34.5896 211.24C34.5896 213.8 36.6653 215.876 39.2259 215.876C41.7864 215.876 43.8621 213.8 43.8621 211.24C43.8621 208.679 41.7864 206.604 39.2259 206.604C36.6653 206.604 34.5896 208.679 34.5896 211.24Z" fill="black"/>
<path opacity="0.64" d="M51.8307 211.241C51.8307 213.801 53.9064 215.877 56.467 215.877C59.0275 215.877 61.1033 213.801 61.1033 211.241C61.1033 208.68 59.0275 206.604 56.467 206.604C53.9064 206.604 51.8307 208.68 51.8307 211.241Z" fill="black"/>
<path opacity="0.64" d="M0.397083 226.164C0.397083 228.724 2.47283 230.8 5.03338 230.8C7.59393 230.8 9.66968 228.724 9.66968 226.164C9.66968 223.603 7.59393 221.527 5.03338 221.527C2.47283 221.527 0.397083 223.603 0.397083 226.164Z" fill="black"/>
<path opacity="0.64" d="M17.4934 226.164C17.4934 228.724 19.569 230.8 22.1296 230.8C24.6901 230.8 26.7659 228.724 26.7659 226.164C26.7659 223.603 24.6901 221.527 22.1296 221.527C19.569 221.527 17.4934 223.603 17.4934 226.164Z" fill="black"/>
<path opacity="0.64" d="M34.59 226.164C34.59 228.724 36.6658 230.8 39.2263 230.8C41.7869 230.8 43.8625 228.724 43.8625 226.164C43.8625 223.603 41.7869 221.527 39.2263 221.527C36.6658 221.527 34.59 223.603 34.59 226.164Z" fill="black"/>
<path opacity="0.64" d="M51.8307 226.164C51.8307 228.724 53.9064 230.8 56.467 230.8C59.0275 230.8 61.1033 228.724 61.1033 226.164C61.1033 223.603 59.0275 221.527 56.467 221.527C53.9064 221.527 51.8307 223.603 51.8307 226.164Z" fill="black"/>
<path opacity="0.64" d="M0.397083 122.283C0.397083 124.843 2.47283 126.919 5.03338 126.919C7.59393 126.919 9.66968 124.843 9.66968 122.283C9.66968 119.722 7.59393 117.646 5.03338 117.646C2.47283 117.646 0.397083 119.722 0.397083 122.283Z" fill="black"/>
<path opacity="0.64" d="M17.4934 122.283C17.4934 124.843 19.569 126.919 22.1296 126.919C24.6901 126.919 26.7659 124.843 26.7659 122.283C26.7659 119.722 24.6901 117.646 22.1296 117.646C19.569 117.646 17.4934 119.722 17.4934 122.283Z" fill="black"/>
<path opacity="0.64" d="M34.59 122.282C34.59 124.842 36.6658 126.918 39.2263 126.918C41.7869 126.918 43.8625 124.842 43.8625 122.282C43.8625 119.721 41.7869 117.646 39.2263 117.646C36.6658 117.646 34.59 119.721 34.59 122.282Z" fill="black"/>
<path opacity="0.64" d="M51.8307 122.282C51.8307 124.842 53.9064 126.918 56.467 126.918C59.0275 126.918 61.1033 124.842 61.1033 122.282C61.1033 119.721 59.0275 117.646 56.467 117.646C53.9064 117.646 51.8307 119.721 51.8307 122.282Z" fill="black"/>
<path opacity="0.64" d="M0.397083 137.205C0.397083 139.765 2.47283 141.841 5.03338 141.841C7.59393 141.841 9.66968 139.765 9.66968 137.205C9.66968 134.644 7.59393 132.568 5.03338 132.568C2.47283 132.568 0.397083 134.644 0.397083 137.205Z" fill="black"/>
<path opacity="0.64" d="M17.4934 137.205C17.4934 139.765 19.569 141.841 22.1296 141.841C24.6901 141.841 26.7659 139.765 26.7659 137.205C26.7659 134.644 24.6901 132.568 22.1296 132.568C19.569 132.568 17.4934 134.644 17.4934 137.205Z" fill="black"/>
<path opacity="0.64" d="M34.59 137.205C34.59 139.765 36.6658 141.841 39.2263 141.841C41.7869 141.841 43.8625 139.765 43.8625 137.205C43.8625 134.644 41.7869 132.568 39.2263 132.568C36.6658 132.568 34.59 134.644 34.59 137.205Z" fill="black"/>
<path opacity="0.64" d="M51.8307 137.205C51.8307 139.765 53.9064 141.841 56.467 141.841C59.0275 141.841 61.1033 139.765 61.1033 137.205C61.1033 134.644 59.0275 132.568 56.467 132.568C53.9064 132.568 51.8307 134.644 51.8307 137.205Z" fill="black"/>
<path opacity="0.64" d="M0.397083 151.983C0.397083 154.543 2.47283 156.619 5.03338 156.619C7.59393 156.619 9.66968 154.543 9.66968 151.983C9.66968 149.422 7.59393 147.347 5.03338 147.347C2.47283 147.347 0.397083 149.422 0.397083 151.983Z" fill="black"/>
<path opacity="0.64" d="M17.4934 151.983C17.4934 154.543 19.569 156.619 22.1296 156.619C24.6901 156.619 26.7659 154.543 26.7659 151.983C26.7659 149.422 24.6901 147.347 22.1296 147.347C19.569 147.347 17.4934 149.422 17.4934 151.983Z" fill="black"/>
<path opacity="0.64" d="M34.59 151.983C34.59 154.543 36.6658 156.619 39.2263 156.619C41.7869 156.619 43.8625 154.543 43.8625 151.983C43.8625 149.422 41.7869 147.347 39.2263 147.347C36.6658 147.347 34.59 149.422 34.59 151.983Z" fill="black"/>
<path opacity="0.64" d="M51.8307 151.983C51.8307 154.543 53.9064 156.619 56.467 156.619C59.0275 156.619 61.1033 154.543 61.1033 151.983C61.1033 149.422 59.0275 147.347 56.467 147.347C53.9064 147.347 51.8307 149.422 51.8307 151.983Z" fill="black"/>
<path opacity="0.64" d="M0.397083 166.906C0.397083 169.466 2.47283 171.542 5.03338 171.542C7.59393 171.542 9.66968 169.466 9.66968 166.906C9.66968 164.345 7.59393 162.27 5.03338 162.27C2.47283 162.27 0.397083 164.345 0.397083 166.906Z" fill="black"/>
<path opacity="0.64" d="M17.4934 166.906C17.4934 169.466 19.569 171.542 22.1296 171.542C24.6901 171.542 26.7659 169.466 26.7659 166.906C26.7659 164.345 24.6901 162.27 22.1296 162.27C19.569 162.27 17.4934 164.345 17.4934 166.906Z" fill="black"/>
<path opacity="0.64" d="M34.59 166.906C34.59 169.466 36.6658 171.542 39.2263 171.542C41.7869 171.542 43.8625 169.466 43.8625 166.906C43.8625 164.345 41.7869 162.27 39.2263 162.27C36.6658 162.27 34.59 164.345 34.59 166.906Z" fill="black"/>
<path opacity="0.64" d="M51.8307 166.906C51.8307 169.466 53.9064 171.542 56.467 171.542C59.0275 171.542 61.1033 169.466 61.1033 166.906C61.1033 164.345 59.0275 162.27 56.467 162.27C53.9064 162.27 51.8307 164.345 51.8307 166.906Z" fill="black"/>
<path opacity="0.64" d="M66.754 181.394C66.754 183.955 68.8296 186.03 71.3902 186.03C73.9507 186.03 76.0265 183.955 76.0265 181.394C76.0265 178.834 73.9507 176.758 71.3902 176.758C68.8296 176.758 66.754 178.834 66.754 181.394Z" fill="black"/>
<path opacity="0.64" d="M83.8503 181.394C83.8503 183.955 85.926 186.03 88.4866 186.03C91.0471 186.03 93.1228 183.955 93.1228 181.394C93.1228 178.834 91.0471 176.758 88.4866 176.758C85.926 176.758 83.8503 178.834 83.8503 181.394Z" fill="black"/>
<path opacity="0.64" d="M101.091 181.394C101.091 183.955 103.167 186.03 105.728 186.03C108.288 186.03 110.364 183.955 110.364 181.394C110.364 178.834 108.288 176.758 105.728 176.758C103.167 176.758 101.091 178.834 101.091 181.394Z" fill="black"/>
<path opacity="0.64" d="M118.188 181.395C118.188 183.956 120.263 186.031 122.824 186.031C125.384 186.031 127.46 183.956 127.46 181.395C127.46 178.835 125.384 176.759 122.824 176.759C120.263 176.759 118.188 178.835 118.188 181.395Z" fill="black"/>
<path opacity="0.64" d="M66.7541 196.318C66.7541 198.878 68.8298 200.954 71.3903 200.954C73.9509 200.954 76.0266 198.878 76.0266 196.318C76.0266 193.757 73.9509 191.682 71.3903 191.682C68.8298 191.682 66.7541 193.757 66.7541 196.318Z" fill="black"/>
<path opacity="0.64" d="M83.8503 196.318C83.8503 198.878 85.926 200.954 88.4866 200.954C91.0471 200.954 93.1228 198.878 93.1228 196.318C93.1228 193.757 91.0471 191.682 88.4866 191.682C85.926 191.682 83.8503 193.757 83.8503 196.318Z" fill="black"/>
<path opacity="0.64" d="M101.091 196.318C101.091 198.878 103.167 200.954 105.728 200.954C108.288 200.954 110.364 198.878 110.364 196.318C110.364 193.757 108.288 191.682 105.728 191.682C103.167 191.682 101.091 193.757 101.091 196.318Z" fill="black"/>
<path opacity="0.64" d="M118.188 196.318C118.188 198.878 120.263 200.954 122.824 200.954C125.384 200.954 127.46 198.878 127.46 196.318C127.46 193.757 125.384 191.682 122.824 191.682C120.263 191.682 118.188 193.757 118.188 196.318Z" fill="black"/>
<path opacity="0.64" d="M66.7541 211.24C66.7541 213.8 68.8298 215.876 71.3903 215.876C73.9509 215.876 76.0266 213.8 76.0266 211.24C76.0266 208.679 73.9509 206.604 71.3903 206.604C68.8298 206.604 66.7541 208.679 66.7541 211.24Z" fill="black"/>
<path opacity="0.64" d="M83.8503 211.24C83.8503 213.8 85.926 215.876 88.4866 215.876C91.0471 215.876 93.1228 213.8 93.1228 211.24C93.1228 208.679 91.0471 206.604 88.4866 206.604C85.926 206.604 83.8503 208.679 83.8503 211.24Z" fill="black"/>
<path opacity="0.64" d="M101.091 211.24C101.091 213.8 103.167 215.876 105.728 215.876C108.288 215.876 110.364 213.8 110.364 211.24C110.364 208.679 108.288 206.604 105.728 206.604C103.167 206.604 101.091 208.679 101.091 211.24Z" fill="black"/>
<path opacity="0.64" d="M118.188 211.241C118.188 213.801 120.263 215.877 122.824 215.877C125.384 215.877 127.46 213.801 127.46 211.241C127.46 208.68 125.384 206.604 122.824 206.604C120.263 206.604 118.188 208.68 118.188 211.241Z" fill="black"/>
<path opacity="0.64" d="M66.754 226.164C66.754 228.724 68.8296 230.8 71.3902 230.8C73.9507 230.8 76.0265 228.724 76.0265 226.164C76.0265 223.603 73.9507 221.527 71.3902 221.527C68.8296 221.527 66.754 223.603 66.754 226.164Z" fill="black"/>
<path opacity="0.64" d="M83.8503 226.164C83.8503 228.724 85.926 230.8 88.4866 230.8C91.0471 230.8 93.1228 228.724 93.1228 226.164C93.1228 223.603 91.0471 221.527 88.4866 221.527C85.926 221.527 83.8503 223.603 83.8503 226.164Z" fill="black"/>
<path opacity="0.64" d="M101.091 226.164C101.091 228.724 103.167 230.8 105.728 230.8C108.288 230.8 110.364 228.724 110.364 226.164C110.364 223.603 108.288 221.527 105.728 221.527C103.167 221.527 101.091 223.603 101.091 226.164Z" fill="black"/>
<path opacity="0.64" d="M118.188 226.164C118.188 228.724 120.263 230.8 122.824 230.8C125.384 230.8 127.46 228.724 127.46 226.164C127.46 223.603 125.384 221.527 122.824 221.527C120.263 221.527 118.188 223.603 118.188 226.164Z" fill="black"/>
<path opacity="0.64" d="M66.7541 122.282C66.7541 124.842 68.8298 126.918 71.3903 126.918C73.9509 126.918 76.0266 124.842 76.0266 122.282C76.0266 119.721 73.9509 117.646 71.3903 117.646C68.8298 117.646 66.7541 119.721 66.7541 122.282Z" fill="black"/>
<path opacity="0.64" d="M83.8503 122.282C83.8503 124.842 85.926 126.918 88.4866 126.918C91.0471 126.918 93.1228 124.842 93.1228 122.282C93.1228 119.721 91.0471 117.646 88.4866 117.646C85.926 117.646 83.8503 119.721 83.8503 122.282Z" fill="black"/>
<path opacity="0.64" d="M101.091 122.282C101.091 124.842 103.167 126.918 105.728 126.918C108.288 126.918 110.364 124.842 110.364 122.282C110.364 119.721 108.288 117.646 105.728 117.646C103.167 117.646 101.091 119.721 101.091 122.282Z" fill="black"/>
<path opacity="0.64" d="M118.188 122.283C118.188 124.843 120.263 126.919 122.824 126.919C125.384 126.919 127.46 124.843 127.46 122.283C127.46 119.722 125.384 117.646 122.824 117.646C120.263 117.646 118.188 119.722 118.188 122.283Z" fill="black"/>
<path opacity="0.64" d="M66.7541 137.205C66.7541 139.765 68.8298 141.841 71.3903 141.841C73.9509 141.841 76.0266 139.765 76.0266 137.205C76.0266 134.644 73.9509 132.568 71.3903 132.568C68.8298 132.568 66.7541 134.644 66.7541 137.205Z" fill="black"/>
<path opacity="0.64" d="M83.8503 137.205C83.8503 139.765 85.926 141.841 88.4866 141.841C91.0471 141.841 93.1228 139.765 93.1228 137.205C93.1228 134.644 91.0471 132.568 88.4866 132.568C85.926 132.568 83.8503 134.644 83.8503 137.205Z" fill="black"/>
<path opacity="0.64" d="M101.091 137.205C101.091 139.765 103.167 141.841 105.727 141.841C108.288 141.841 110.364 139.765 110.364 137.205C110.364 134.644 108.288 132.568 105.727 132.568C103.167 132.568 101.091 134.644 101.091 137.205Z" fill="black"/>
<path opacity="0.64" d="M118.188 137.206C118.188 139.766 120.263 141.842 122.824 141.842C125.384 141.842 127.46 139.766 127.46 137.206C127.46 134.645 125.384 132.569 122.824 132.569C120.263 132.569 118.188 134.645 118.188 137.206Z" fill="black"/>
<path opacity="0.64" d="M66.7541 151.983C66.7541 154.543 68.8298 156.619 71.3903 156.619C73.9509 156.619 76.0266 154.543 76.0266 151.983C76.0266 149.422 73.9509 147.347 71.3903 147.347C68.8298 147.347 66.7541 149.422 66.7541 151.983Z" fill="black"/>
<path opacity="0.64" d="M83.8503 151.983C83.8503 154.543 85.926 156.619 88.4866 156.619C91.0471 156.619 93.1228 154.543 93.1228 151.983C93.1228 149.422 91.0471 147.347 88.4866 147.347C85.926 147.347 83.8503 149.422 83.8503 151.983Z" fill="black"/>
<path opacity="0.64" d="M101.091 151.983C101.091 154.543 103.167 156.619 105.727 156.619C108.288 156.619 110.364 154.543 110.364 151.983C110.364 149.422 108.288 147.347 105.727 147.347C103.167 147.347 101.091 149.422 101.091 151.983Z" fill="black"/>
<path opacity="0.64" d="M118.188 151.984C118.188 154.544 120.263 156.62 122.824 156.62C125.384 156.62 127.46 154.544 127.46 151.984C127.46 149.423 125.384 147.348 122.824 147.348C120.263 147.348 118.188 149.423 118.188 151.984Z" fill="black"/>
<path opacity="0.64" d="M66.7541 166.906C66.7541 169.466 68.8298 171.542 71.3903 171.542C73.9509 171.542 76.0266 169.466 76.0266 166.906C76.0266 164.345 73.9509 162.27 71.3903 162.27C68.8298 162.27 66.7541 164.345 66.7541 166.906Z" fill="black"/>
<path opacity="0.64" d="M83.8503 166.906C83.8503 169.466 85.926 171.542 88.4866 171.542C91.0471 171.542 93.1228 169.466 93.1228 166.906C93.1228 164.345 91.0471 162.27 88.4866 162.27C85.926 162.27 83.8503 164.345 83.8503 166.906Z" fill="black"/>
<path opacity="0.64" d="M101.091 166.906C101.091 169.466 103.167 171.542 105.728 171.542C108.288 171.542 110.364 169.466 110.364 166.906C110.364 164.345 108.288 162.27 105.728 162.27C103.167 162.27 101.091 164.345 101.091 166.906Z" fill="black"/>
<path opacity="0.64" d="M118.188 166.906C118.188 169.466 120.263 171.542 122.824 171.542C125.384 171.542 127.46 169.466 127.46 166.906C127.46 164.345 125.384 162.27 122.824 162.27C120.263 162.27 118.188 164.345 118.188 166.906Z" fill="black"/>
<path opacity="0.64" d="M0.397083 63.8931C0.397083 66.4537 2.47283 68.5294 5.03338 68.5294C7.59393 68.5294 9.66968 66.4537 9.66968 63.8931C9.66968 61.3326 7.59393 59.2568 5.03338 59.2568C2.47283 59.2568 0.397083 61.3326 0.397083 63.8931Z" fill="black"/>
<path opacity="0.64" d="M17.4934 63.8931C17.4934 66.4537 19.569 68.5294 22.1296 68.5294C24.6901 68.5294 26.7659 66.4537 26.7659 63.8931C26.7659 61.3326 24.6901 59.2568 22.1296 59.2568C19.569 59.2568 17.4934 61.3326 17.4934 63.8931Z" fill="black"/>
<path opacity="0.64" d="M34.59 63.8941C34.59 66.4547 36.6658 68.5304 39.2263 68.5304C41.7869 68.5304 43.8625 66.4547 43.8625 63.8941C43.8625 61.3336 41.7869 59.2578 39.2263 59.2578C36.6658 59.2578 34.59 61.3336 34.59 63.8941Z" fill="black"/>
<path opacity="0.64" d="M51.8308 63.8931C51.8308 66.4537 53.9065 68.5294 56.4671 68.5294C59.0276 68.5294 61.1034 66.4537 61.1034 63.8931C61.1034 61.3326 59.0276 59.2568 56.4671 59.2568C53.9065 59.2568 51.8308 61.3326 51.8308 63.8931Z" fill="black"/>
<path opacity="0.64" d="M0.397083 78.6724C0.397083 81.233 2.47283 83.3087 5.03338 83.3087C7.59393 83.3087 9.66968 81.233 9.66968 78.6724C9.66968 76.1119 7.59393 74.0361 5.03338 74.0361C2.47283 74.0361 0.397083 76.1119 0.397083 78.6724Z" fill="black"/>
<path opacity="0.64" d="M17.4934 78.6724C17.4934 81.233 19.569 83.3087 22.1296 83.3087C24.6901 83.3087 26.7659 81.233 26.7659 78.6724C26.7659 76.1119 24.6901 74.0361 22.1296 74.0361C19.569 74.0361 17.4934 76.1119 17.4934 78.6724Z" fill="black"/>
<path opacity="0.64" d="M34.59 78.6724C34.59 81.233 36.6658 83.3087 39.2263 83.3087C41.7869 83.3087 43.8625 81.233 43.8625 78.6724C43.8625 76.1119 41.7869 74.0361 39.2263 74.0361C36.6658 74.0361 34.59 76.1119 34.59 78.6724Z" fill="black"/>
<path opacity="0.64" d="M51.8307 78.6724C51.8307 81.233 53.9064 83.3087 56.467 83.3087C59.0275 83.3087 61.1033 81.233 61.1033 78.6724C61.1033 76.1119 59.0275 74.0361 56.467 74.0361C53.9064 74.0361 51.8307 76.1119 51.8307 78.6724Z" fill="black"/>
<path opacity="0.64" d="M0.397083 93.5943C0.397083 96.1549 2.47283 98.2306 5.03338 98.2306C7.59393 98.2306 9.66968 96.1549 9.66968 93.5943C9.66968 91.0338 7.59393 88.958 5.03338 88.958C2.47283 88.958 0.397083 91.0338 0.397083 93.5943Z" fill="black"/>
<path opacity="0.64" d="M17.4934 93.5953C17.4934 96.1558 19.569 98.2316 22.1296 98.2316C24.6901 98.2316 26.7659 96.1558 26.7659 93.5953C26.7659 91.0347 24.6901 88.959 22.1296 88.959C19.569 88.959 17.4934 91.0347 17.4934 93.5953Z" fill="black"/>
<path opacity="0.64" d="M34.59 93.5943C34.59 96.1549 36.6658 98.2306 39.2263 98.2306C41.7869 98.2306 43.8625 96.1549 43.8625 93.5943C43.8625 91.0338 41.7869 88.958 39.2263 88.958C36.6658 88.958 34.59 91.0338 34.59 93.5943Z" fill="black"/>
<path opacity="0.64" d="M51.8308 93.5943C51.8308 96.1549 53.9065 98.2306 56.4671 98.2306C59.0276 98.2306 61.1034 96.1549 61.1034 93.5943C61.1034 91.0338 59.0276 88.958 56.4671 88.958C53.9065 88.958 51.8308 91.0338 51.8308 93.5943Z" fill="black"/>
<path opacity="0.64" d="M0.396961 108.517C0.396961 111.078 2.47271 113.153 5.03326 113.153C7.5938 113.153 9.66956 111.078 9.66956 108.517C9.66956 105.957 7.5938 103.881 5.03326 103.881C2.47271 103.881 0.396961 105.957 0.396961 108.517Z" fill="black"/>
<path opacity="0.64" d="M17.4934 108.518C17.4934 111.079 19.569 113.154 22.1296 113.154C24.6901 113.154 26.7659 111.079 26.7659 108.518C26.7659 105.958 24.6901 103.882 22.1296 103.882C19.569 103.882 17.4934 105.958 17.4934 108.518Z" fill="black"/>
<path opacity="0.64" d="M34.59 108.517C34.59 111.078 36.6658 113.153 39.2263 113.153C41.7869 113.153 43.8625 111.078 43.8625 108.517C43.8625 105.957 41.7869 103.881 39.2263 103.881C36.6658 103.881 34.59 105.957 34.59 108.517Z" fill="black"/>
<path opacity="0.64" d="M51.8307 108.517C51.8307 111.078 53.9064 113.153 56.467 113.153C59.0275 113.153 61.1033 111.078 61.1033 108.517C61.1033 105.957 59.0275 103.881 56.467 103.881C53.9064 103.881 51.8307 105.957 51.8307 108.517Z" fill="black"/>
<path opacity="0.64" d="M0.397083 4.6363C0.397083 7.19684 2.47283 9.27257 5.03338 9.27257C7.59393 9.27257 9.66968 7.19684 9.66968 4.6363C9.66968 2.07575 7.59393 -9.0734e-08 5.03338 -2.02659e-07C2.47283 -3.14584e-07 0.397083 2.07575 0.397083 4.6363Z" fill="black"/>
<path opacity="0.64" d="M17.4934 4.6363C17.4934 7.19684 19.569 9.27257 22.1296 9.27257C24.6901 9.27257 26.7659 7.19684 26.7659 4.6363C26.7659 2.07575 24.6901 -9.0734e-08 22.1296 -2.02659e-07C19.569 -3.14584e-07 17.4934 2.07575 17.4934 4.6363Z" fill="black"/>
<path opacity="0.64" d="M34.59 4.6363C34.59 7.19684 36.6658 9.27257 39.2263 9.27257C41.7869 9.27257 43.8625 7.19684 43.8625 4.6363C43.8625 2.07575 41.7869 -9.07301e-08 39.2263 -2.02655e-07C36.6658 -3.1458e-07 34.59 2.07575 34.59 4.6363Z" fill="black"/>
<path opacity="0.64" d="M51.8308 4.6363C51.8308 7.19684 53.9065 9.27257 56.4671 9.27257C59.0276 9.27257 61.1034 7.19684 61.1034 4.6363C61.1034 2.07575 59.0276 -9.0734e-08 56.4671 -2.02659e-07C53.9065 -3.14584e-07 51.8308 2.07575 51.8308 4.6363Z" fill="black"/>
<path opacity="0.64" d="M0.397083 19.5591C0.397083 22.1197 2.47283 24.1954 5.03338 24.1954C7.59393 24.1954 9.66968 22.1197 9.66968 19.5591C9.66968 16.9986 7.59393 14.9229 5.03338 14.9229C2.47283 14.9229 0.397083 16.9986 0.397083 19.5591Z" fill="black"/>
<path opacity="0.64" d="M17.4934 19.5601C17.4934 22.1206 19.569 24.1964 22.1296 24.1964C24.6901 24.1964 26.7659 22.1206 26.7659 19.5601C26.7659 16.9996 24.6901 14.9238 22.1296 14.9238C19.569 14.9238 17.4934 16.9996 17.4934 19.5601Z" fill="black"/>
<path opacity="0.64" d="M34.59 19.5601C34.59 22.1206 36.6658 24.1964 39.2263 24.1964C41.7869 24.1964 43.8625 22.1206 43.8625 19.5601C43.8625 16.9996 41.7869 14.9238 39.2263 14.9238C36.6658 14.9238 34.59 16.9996 34.59 19.5601Z" fill="black"/>
<path opacity="0.64" d="M51.8307 19.5591C51.8307 22.1197 53.9064 24.1954 56.467 24.1954C59.0275 24.1954 61.1033 22.1197 61.1033 19.5591C61.1033 16.9986 59.0275 14.9229 56.467 14.9229C53.9064 14.9229 51.8307 16.9986 51.8307 19.5591Z" fill="black"/>
<path opacity="0.64" d="M0.397083 34.483C0.397083 37.0435 2.47283 39.1192 5.03338 39.1192C7.59393 39.1192 9.66968 37.0435 9.66968 34.483C9.66968 31.9224 7.59393 29.8467 5.03338 29.8467C2.47283 29.8467 0.397083 31.9224 0.397083 34.483Z" fill="black"/>
<path opacity="0.64" d="M17.4934 34.482C17.4934 37.0425 19.569 39.1183 22.1296 39.1183C24.6901 39.1183 26.7659 37.0425 26.7659 34.482C26.7659 31.9215 24.6901 29.8457 22.1296 29.8457C19.569 29.8457 17.4934 31.9215 17.4934 34.482Z" fill="black"/>
<path opacity="0.64" d="M34.59 34.483C34.59 37.0435 36.6658 39.1192 39.2263 39.1192C41.7869 39.1192 43.8625 37.0435 43.8625 34.483C43.8625 31.9224 41.7869 29.8467 39.2263 29.8467C36.6658 29.8467 34.59 31.9224 34.59 34.483Z" fill="black"/>
<path opacity="0.64" d="M51.8308 34.483C51.8308 37.0435 53.9065 39.1192 56.4671 39.1192C59.0276 39.1192 61.1034 37.0435 61.1034 34.483C61.1034 31.9224 59.0276 29.8467 56.4671 29.8467C53.9065 29.8467 51.8308 31.9224 51.8308 34.483Z" fill="black"/>
<path opacity="0.64" d="M0.397083 49.4049C0.397083 51.9654 2.47283 54.0411 5.03338 54.0411C7.59393 54.0411 9.66968 51.9654 9.66968 49.4049C9.66968 46.8443 7.59393 44.7686 5.03338 44.7686C2.47283 44.7686 0.397083 46.8443 0.397083 49.4049Z" fill="black"/>
<path opacity="0.64" d="M17.4934 49.4049C17.4934 51.9654 19.569 54.0411 22.1296 54.0411C24.6901 54.0411 26.7659 51.9654 26.7659 49.4049C26.7659 46.8443 24.6901 44.7686 22.1296 44.7686C19.569 44.7686 17.4934 46.8443 17.4934 49.4049Z" fill="black"/>
<path opacity="0.64" d="M34.59 49.4058C34.59 51.9664 36.6658 54.0421 39.2263 54.0421C41.7869 54.0421 43.8625 51.9664 43.8625 49.4058C43.8625 46.8453 41.7869 44.7695 39.2263 44.7695C36.6658 44.7695 34.59 46.8453 34.59 49.4058Z" fill="black"/>
<path opacity="0.64" d="M51.8307 49.4058C51.8307 51.9664 53.9064 54.0421 56.467 54.0421C59.0275 54.0421 61.1033 51.9664 61.1033 49.4058C61.1033 46.8453 59.0275 44.7695 56.467 44.7695C53.9064 44.7695 51.8307 46.8453 51.8307 49.4058Z" fill="black"/>
<path opacity="0.64" d="M66.7541 63.8941C66.7541 66.4547 68.8298 68.5304 71.3903 68.5304C73.9509 68.5304 76.0266 66.4547 76.0266 63.8941C76.0266 61.3336 73.9509 59.2578 71.3903 59.2578C68.8298 59.2578 66.7541 61.3336 66.7541 63.8941Z" fill="black"/>
<path opacity="0.64" d="M83.8503 63.8931C83.8503 66.4537 85.926 68.5294 88.4866 68.5294C91.0471 68.5294 93.1228 66.4537 93.1228 63.8931C93.1228 61.3326 91.0471 59.2568 88.4866 59.2568C85.926 59.2568 83.8503 61.3326 83.8503 63.8931Z" fill="black"/>
<path opacity="0.64" d="M101.091 63.8931C101.091 66.4537 103.167 68.5294 105.728 68.5294C108.288 68.5294 110.364 66.4537 110.364 63.8931C110.364 61.3326 108.288 59.2568 105.728 59.2568C103.167 59.2568 101.091 61.3326 101.091 63.8931Z" fill="black"/>
<path opacity="0.64" d="M118.188 63.8931C118.188 66.4537 120.263 68.5294 122.824 68.5294C125.384 68.5294 127.46 66.4537 127.46 63.8931C127.46 61.3326 125.384 59.2568 122.824 59.2568C120.263 59.2568 118.188 61.3326 118.188 63.8931Z" fill="black"/>
<path opacity="0.64" d="M66.7541 78.6724C66.7541 81.233 68.8298 83.3087 71.3903 83.3087C73.9509 83.3087 76.0266 81.233 76.0266 78.6724C76.0266 76.1119 73.9509 74.0361 71.3903 74.0361C68.8298 74.0361 66.7541 76.1119 66.7541 78.6724Z" fill="black"/>
<path opacity="0.64" d="M83.8503 78.6724C83.8503 81.233 85.926 83.3087 88.4866 83.3087C91.0471 83.3087 93.1228 81.233 93.1228 78.6724C93.1228 76.1119 91.0471 74.0361 88.4866 74.0361C85.926 74.0361 83.8503 76.1119 83.8503 78.6724Z" fill="black"/>
<path opacity="0.64" d="M101.091 78.6724C101.091 81.233 103.167 83.3087 105.728 83.3087C108.288 83.3087 110.364 81.233 110.364 78.6724C110.364 76.1119 108.288 74.0361 105.728 74.0361C103.167 74.0361 101.091 76.1119 101.091 78.6724Z" fill="black"/>
<path opacity="0.64" d="M118.188 78.6724C118.188 81.233 120.263 83.3087 122.824 83.3087C125.384 83.3087 127.46 81.233 127.46 78.6724C127.46 76.1119 125.384 74.0361 122.824 74.0361C120.263 74.0361 118.188 76.1119 118.188 78.6724Z" fill="black"/>
<path opacity="0.64" d="M66.7541 93.5943C66.7541 96.1549 68.8298 98.2306 71.3903 98.2306C73.9509 98.2306 76.0266 96.1549 76.0266 93.5943C76.0266 91.0338 73.9509 88.958 71.3903 88.958C68.8298 88.958 66.7541 91.0338 66.7541 93.5943Z" fill="black"/>
<path opacity="0.64" d="M83.8503 93.5943C83.8503 96.1549 85.926 98.2306 88.4866 98.2306C91.0471 98.2306 93.1228 96.1549 93.1228 93.5943C93.1228 91.0338 91.0471 88.958 88.4866 88.958C85.926 88.958 83.8503 91.0338 83.8503 93.5943Z" fill="black"/>
<path opacity="0.64" d="M101.091 93.5943C101.091 96.1549 103.167 98.2306 105.728 98.2306C108.288 98.2306 110.364 96.1549 110.364 93.5943C110.364 91.0338 108.288 88.958 105.728 88.958C103.167 88.958 101.091 91.0338 101.091 93.5943Z" fill="black"/>
<path opacity="0.64" d="M118.188 93.5943C118.188 96.1549 120.263 98.2306 122.824 98.2306C125.384 98.2306 127.46 96.1549 127.46 93.5943C127.46 91.0338 125.384 88.958 122.824 88.958C120.263 88.958 118.188 91.0338 118.188 93.5943Z" fill="black"/>
<path opacity="0.64" d="M66.754 108.517C66.754 111.078 68.8296 113.153 71.3902 113.153C73.9507 113.153 76.0265 111.078 76.0265 108.517C76.0265 105.957 73.9507 103.881 71.3902 103.881C68.8296 103.881 66.754 105.957 66.754 108.517Z" fill="black"/>
<path opacity="0.64" d="M83.8503 108.517C83.8503 111.078 85.926 113.153 88.4866 113.153C91.0471 113.153 93.1228 111.078 93.1228 108.517C93.1228 105.957 91.0471 103.881 88.4866 103.881C85.926 103.881 83.8503 105.957 83.8503 108.517Z" fill="black"/>
<path opacity="0.64" d="M101.091 108.517C101.091 111.078 103.167 113.153 105.728 113.153C108.288 113.153 110.364 111.078 110.364 108.517C110.364 105.957 108.288 103.881 105.728 103.881C103.167 103.881 101.091 105.957 101.091 108.517Z" fill="black"/>
<path opacity="0.64" d="M118.188 108.517C118.188 111.078 120.263 113.153 122.824 113.153C125.384 113.153 127.46 111.078 127.46 108.517C127.46 105.957 125.384 103.881 122.824 103.881C120.263 103.881 118.188 105.957 118.188 108.517Z" fill="black"/>
<path opacity="0.64" d="M66.7541 4.6363C66.7541 7.19684 68.8298 9.27257 71.3903 9.27257C73.9509 9.27257 76.0266 7.19684 76.0266 4.6363C76.0266 2.07575 73.9509 -9.0734e-08 71.3903 -2.02659e-07C68.8298 -3.14584e-07 66.7541 2.07575 66.7541 4.6363Z" fill="black"/>
<path opacity="0.64" d="M83.8503 4.6363C83.8503 7.19684 85.926 9.27257 88.4866 9.27257C91.0471 9.27257 93.1228 7.19684 93.1228 4.6363C93.1228 2.07575 91.0471 -9.07301e-08 88.4866 -2.02655e-07C85.926 -3.1458e-07 83.8503 2.07575 83.8503 4.6363Z" fill="black"/>
<path opacity="0.64" d="M101.091 4.6363C101.091 7.19684 103.167 9.27257 105.728 9.27257C108.288 9.27257 110.364 7.19684 110.364 4.6363C110.364 2.07575 108.288 -9.0734e-08 105.728 -2.02659e-07C103.167 -3.14584e-07 101.091 2.07575 101.091 4.6363Z" fill="black"/>
<path opacity="0.64" d="M118.188 4.6363C118.188 7.19684 120.263 9.27257 122.824 9.27257C125.384 9.27257 127.46 7.19684 127.46 4.6363C127.46 2.07575 125.384 -9.0734e-08 122.824 -2.02659e-07C120.263 -3.14584e-07 118.188 2.07575 118.188 4.6363Z" fill="black"/>
<path opacity="0.64" d="M66.754 19.5591C66.754 22.1197 68.8296 24.1954 71.3902 24.1954C73.9507 24.1954 76.0265 22.1197 76.0265 19.5591C76.0265 16.9986 73.9507 14.9229 71.3902 14.9229C68.8296 14.9229 66.754 16.9986 66.754 19.5591Z" fill="black"/>
<path opacity="0.64" d="M83.8503 19.5591C83.8503 22.1197 85.926 24.1954 88.4866 24.1954C91.0471 24.1954 93.1228 22.1197 93.1228 19.5591C93.1228 16.9986 91.0471 14.9229 88.4866 14.9229C85.926 14.9229 83.8503 16.9986 83.8503 19.5591Z" fill="black"/>
<path opacity="0.64" d="M101.091 19.5601C101.091 22.1206 103.167 24.1964 105.728 24.1964C108.288 24.1964 110.364 22.1206 110.364 19.5601C110.364 16.9996 108.288 14.9238 105.728 14.9238C103.167 14.9238 101.091 16.9996 101.091 19.5601Z" fill="black"/>
<path opacity="0.64" d="M118.188 19.5591C118.188 22.1197 120.263 24.1954 122.824 24.1954C125.384 24.1954 127.46 22.1197 127.46 19.5591C127.46 16.9986 125.384 14.9229 122.824 14.9229C120.263 14.9229 118.188 16.9986 118.188 19.5591Z" fill="black"/>
<path opacity="0.64" d="M66.7541 34.482C66.7541 37.0425 68.8298 39.1183 71.3903 39.1183C73.9509 39.1183 76.0266 37.0425 76.0266 34.482C76.0266 31.9215 73.9509 29.8457 71.3903 29.8457C68.8298 29.8457 66.7541 31.9215 66.7541 34.482Z" fill="black"/>
<path opacity="0.64" d="M83.8503 34.483C83.8503 37.0435 85.926 39.1192 88.4866 39.1192C91.0471 39.1192 93.1228 37.0435 93.1228 34.483C93.1228 31.9224 91.0471 29.8467 88.4866 29.8467C85.926 29.8467 83.8503 31.9224 83.8503 34.483Z" fill="black"/>
<path opacity="0.64" d="M101.091 34.482C101.091 37.0425 103.167 39.1183 105.728 39.1183C108.288 39.1183 110.364 37.0425 110.364 34.482C110.364 31.9215 108.288 29.8457 105.728 29.8457C103.167 29.8457 101.091 31.9215 101.091 34.482Z" fill="black"/>
<path opacity="0.64" d="M118.188 34.482C118.188 37.0425 120.263 39.1183 122.824 39.1183C125.384 39.1183 127.46 37.0425 127.46 34.482C127.46 31.9215 125.384 29.8457 122.824 29.8457C120.263 29.8457 118.188 31.9215 118.188 34.482Z" fill="black"/>
<path opacity="0.64" d="M66.7541 49.4058C66.7541 51.9664 68.8298 54.0421 71.3903 54.0421C73.9509 54.0421 76.0266 51.9664 76.0266 49.4058C76.0266 46.8453 73.9509 44.7695 71.3903 44.7695C68.8298 44.7695 66.7541 46.8453 66.7541 49.4058Z" fill="black"/>
<path opacity="0.64" d="M83.8503 49.4049C83.8503 51.9654 85.926 54.0411 88.4866 54.0411C91.0471 54.0411 93.1228 51.9654 93.1228 49.4049C93.1228 46.8443 91.0471 44.7686 88.4866 44.7686C85.926 44.7686 83.8503 46.8443 83.8503 49.4049Z" fill="black"/>
<path opacity="0.64" d="M101.091 49.4049C101.091 51.9654 103.167 54.0411 105.728 54.0411C108.288 54.0411 110.364 51.9654 110.364 49.4049C110.364 46.8443 108.288 44.7686 105.728 44.7686C103.167 44.7686 101.091 46.8443 101.091 49.4049Z" fill="black"/>
<path opacity="0.64" d="M118.188 49.4049C118.188 51.9654 120.263 54.0411 122.824 54.0411C125.384 54.0411 127.46 51.9654 127.46 49.4049C127.46 46.8443 125.384 44.7686 122.824 44.7686C120.263 44.7686 118.188 46.8443 118.188 49.4049Z" fill="black"/>
</g>
</svg>
