<svg width="84" height="84" viewBox="0 0 84 84" fill="none" xmlns="http://www.w3.org/2000/svg">
<path d="M83.5425 26.684C83.5425 41.2182 71.8848 53.0652 57.4263 53.368C57.237 53.368 57.0478 53.368 56.8585 53.368H56.745V53.2544C42.135 53.1787 30.2881 41.3318 30.2881 26.684C30.2881 12.0362 42.135 0.189244 56.745 0.113544V0H56.8585C57.0856 0 57.2749 0 57.4641 0C71.9227 0.340647 83.5425 12.1876 83.5425 26.684Z" fill="#5C9EDC"/>
<path d="M57.5015 0C57.2744 0 57.0851 0 56.8959 0H56.7824V0.113544C42.1724 0.189244 30.3255 12.0362 30.3255 26.684C30.3255 41.3318 42.1724 53.2166 56.7824 53.2544V53.368C42.1345 53.2923 30.2119 41.3696 30.2119 26.684C30.2119 11.9605 42.1724 0 56.8959 0C57.0851 0 57.2744 0 57.4636 0H57.5015Z" fill="#ADC9E9"/>
<path d="M63.4336 51.8432C63.4336 34.3265 49.2335 20.1264 31.7168 20.1264C14.2001 20.1264 -2.15207e-06 34.3265 -1.38639e-06 51.8432C-6.20706e-07 69.36 14.2001 83.5601 31.7168 83.5601C49.2335 83.5601 63.4336 69.36 63.4336 51.8432Z" fill="#1C427B"/>
<path d="M58.3714 53.1406V53.1784C57.6522 67.2206 46.0702 78.3484 32.028 78.462H31.7631C17.0396 78.462 5.0791 66.5015 5.0791 51.778C5.0791 37.5844 16.169 25.851 30.3627 25.1318H30.4005L53.0346 47.7659L53.1481 47.8795L58.3714 53.1406Z" fill="#F0CA50"/>
<path d="M58.4099 51.816C58.4099 52.2702 58.4099 52.7245 58.372 53.1786V53.2922H58.2585C57.7664 53.33 57.3122 53.3679 56.8581 53.3679C55.6847 53.3679 54.5114 53.2922 53.338 53.1408H53.2245H53.1866C40.0907 51.324 30.2119 39.9691 30.2119 26.7217C30.2119 26.2676 30.2119 25.8134 30.2498 25.3213V25.2078H30.3633C30.7797 25.1699 31.1582 25.1699 31.5367 25.1699C31.6124 25.1699 31.688 25.1699 31.7637 25.1699C31.953 25.1699 32.1422 25.1699 32.3315 25.1699C46.7522 25.4349 58.4099 37.2818 58.4099 51.816Z" fill="#EE4D4A"/>
</svg>
