<svg width="119" height="101" viewBox="0 0 119 101" fill="none" xmlns="http://www.w3.org/2000/svg">
<path d="M113.935 0H5.02736C2.24045 0 0 2.23376 0 5.01234V75.5665C0 78.3451 2.24045 80.5788 5.02736 80.5788H113.935C116.722 80.5788 118.963 78.3451 118.963 75.5665V5.01234C118.963 2.23376 116.722 0 113.935 0ZM108.416 62.2184C103.99 62.2184 100.438 65.7598 100.438 70.1728H15.5739C15.5739 67.3942 13.3334 65.1604 10.5465 65.1604V15.4184C13.3334 15.4184 15.5739 13.1846 15.5739 10.4061H103.389C103.389 13.1846 105.629 15.4184 108.416 15.4184V62.2184Z" fill="#F0CA50"/>
<path d="M108.416 15.4186V62.2186C103.99 62.2186 100.438 65.7599 100.438 70.173H15.5742C15.5742 67.3944 13.3338 65.1606 10.5469 65.1606V15.4186C13.3338 15.4186 15.5742 13.1848 15.5742 10.4062H103.389C103.389 13.1848 105.63 15.4186 108.416 15.4186Z" fill="white"/>
<path d="M91.3681 95.6153L97.1058 100.737C97.8162 101.336 98.9091 100.846 98.9091 99.9194V77.2549H82.4062V99.9194C82.4062 100.846 83.4992 101.336 84.2095 100.737L89.9473 95.6153C90.3298 95.2884 90.9856 95.2884 91.3681 95.6153Z" fill="#5C9EDC"/>
<path d="M110.275 61.6191L102.406 69.2465L104.264 80.034C104.647 82.2133 102.352 83.9022 100.384 82.867L90.7668 77.8002L90.6576 77.7457L80.9307 82.8126C78.9635 83.8477 76.6684 82.1588 77.0509 79.9795L78.9088 69.1921L71.0399 61.5646C69.4552 60.0391 70.3295 57.315 72.5154 56.9881L83.3897 55.4081L88.2532 45.6014C89.0728 43.8579 91.3679 43.64 92.5701 44.8931C92.7887 45.111 92.9526 45.329 93.0619 45.6014L97.9254 55.4081L108.8 56.9881C110.986 57.3695 111.86 60.0391 110.275 61.6191Z" fill="#EE4D4A"/>
<path d="M56.3393 55.627H27.2134C26.2298 55.627 25.4102 56.4442 25.4102 57.4249C25.4102 58.4055 26.2298 59.2228 27.2134 59.2228H56.3393C57.3229 59.2228 58.1426 58.4055 58.1426 57.4249C58.1426 56.4442 57.3229 55.627 56.3393 55.627Z" fill="#163459"/>
<path d="M27.2134 46.6368H75.3012C76.2848 46.6368 77.1045 45.8196 77.1045 44.8389C77.1045 43.8582 76.2848 43.041 75.3012 43.041H27.2134C26.2298 43.041 25.4102 43.8582 25.4102 44.8389C25.4102 45.8196 26.2298 46.6368 27.2134 46.6368Z" fill="#163459"/>
</svg>
