<svg width="101" height="100" viewBox="0 0 101 100" fill="none" xmlns="http://www.w3.org/2000/svg">
<rect width="100" height="100" transform="translate(0.0908203)" fill="white"/>
<path d="M80.6783 18.1227C71.8694 16.3517 63.3943 13.2049 55.5642 8.798C53.9037 7.82525 52.0141 7.3125 50.0898 7.3125C48.1654 7.3125 46.2758 7.82525 44.6154 8.798C36.7852 13.2049 28.3101 16.3517 19.5013 18.1227C17.0541 18.6382 14.8571 19.9756 13.2754 21.9126C11.6936 23.8497 10.8223 26.2697 10.8064 28.7704V35.6947C10.7577 45.2801 13.1694 54.7177 17.8106 63.1048C22.4518 71.4918 29.1673 78.5478 37.3148 83.5976L44.3381 87.955C46.0603 89.0318 48.0506 89.6029 50.0818 89.6029C52.113 89.6029 54.1033 89.0318 55.8256 87.955L62.8449 83.5976C70.9961 78.5501 77.7155 71.4953 82.3603 63.1081C87.0051 54.7208 89.4197 45.282 89.3731 35.6947V28.7704C89.3572 26.2697 88.4859 23.8497 86.9042 21.9126C85.3224 19.9756 83.1254 18.6382 80.6783 18.1227Z" fill="#5C9EDC"/>
<path d="M54.0517 55.3659C53.6614 55.3669 53.2749 55.2904 52.9145 55.1408C52.5541 54.9912 52.227 54.7715 51.9522 54.4945L44.0298 46.572C43.505 46.0088 43.2193 45.264 43.2329 44.4943C43.2465 43.7246 43.5583 42.9903 44.1026 42.4459C44.6469 41.9016 45.3813 41.5898 46.1509 41.5762C46.9206 41.5627 47.6655 41.8484 48.2287 42.3731L54.0517 48.1922L71.7583 30.4895C72.3215 29.9647 73.0664 29.679 73.836 29.6926C74.6057 29.7062 75.3401 30.018 75.8844 30.5623C76.4287 31.1066 76.7405 31.841 76.7541 32.6106C76.7677 33.3803 76.482 34.1252 75.9572 34.6884L56.1511 54.4945C55.8763 54.7715 55.5492 54.9912 55.1888 55.1408C54.8284 55.2904 54.4419 55.3669 54.0517 55.3659Z" fill="#F0CA50"/>
<path d="M50.0907 65.2692C47.0384 65.2747 44.0306 64.5375 41.3268 63.1213C38.623 61.7051 36.3043 59.6524 34.5707 57.1403C32.8371 54.6281 31.7407 51.7319 31.376 48.7015C31.0113 45.6711 31.3893 42.5975 32.4774 39.7458C33.5656 36.8941 35.3311 34.3499 37.6217 32.3326C39.9124 30.3154 42.6594 28.8857 45.6258 28.1669C48.5922 27.4481 51.689 27.4617 54.6489 28.2066C57.6089 28.9515 60.3432 30.4053 62.616 32.4426C62.9347 32.6942 63.1984 33.0083 63.3909 33.3658C63.5834 33.7232 63.7006 34.1163 63.7353 34.5208C63.77 34.9253 63.7214 35.3326 63.5925 35.7176C63.4637 36.1025 63.2573 36.457 62.9861 36.7591C62.7149 37.0613 62.3847 37.3046 62.0158 37.4741C61.6469 37.6436 61.2472 37.7357 60.8413 37.7447C60.4354 37.7538 60.032 37.6795 59.6559 37.5265C59.2799 37.3736 58.9392 37.1452 58.6548 36.8554C56.305 34.7393 53.2528 33.5718 50.0907 33.5795C46.6763 33.5795 43.4017 34.9358 40.9874 37.3502C38.5731 39.7645 37.2167 43.0391 37.2167 46.4534C37.2167 49.8678 38.5731 53.1424 40.9874 55.5567C43.4017 57.971 46.6763 59.3274 50.0907 59.3274C50.7673 59.3225 51.4426 59.2669 52.1109 59.161C53.3395 58.9668 54.532 58.5889 55.6482 58.04C58.2843 56.7871 60.409 54.6653 61.6653 52.0308C62.0036 51.3191 62.6108 50.7708 63.3533 50.5067C64.0958 50.2426 64.9128 50.2843 65.6246 50.6226C66.3363 50.9609 66.8846 51.5681 67.1487 52.3106C67.4128 53.0531 67.3711 53.8701 67.0328 54.5819C65.1921 58.4419 62.0822 61.5531 58.223 63.3956C56.5736 64.2013 54.8122 64.7542 52.9982 65.0355C52.0362 65.1854 51.0643 65.2635 50.0907 65.2692Z" fill="white"/>
</svg>
