<svg width="131" height="100" viewBox="0 0 131 100" fill="none" xmlns="http://www.w3.org/2000/svg">
<g clip-path="url(#clip0_1855_17585)">
<path d="M101.085 64.4801L65.4403 17.3267C61.6017 15.2227 46.6738 11.3242 35.5845 22.6484L22.058 36.3861C15.3557 43.193 15.3557 54.2697 22.058 61.0767L31.3194 70.4826L72.9957 93.5643C75.6157 96.2252 79.8199 96.2252 82.3789 93.5643L82.4399 93.5024C85.0599 90.8415 85.0599 86.5717 82.4399 83.9727L82.0743 83.6014L82.2571 83.7252C84.8771 86.3861 89.0813 86.3861 91.6403 83.7252L91.7013 83.6633C94.2603 81.0643 94.3213 76.7945 91.7622 74.1955C94.3822 76.7326 98.5254 76.7326 101.085 74.1336L101.145 74.0717C103.705 71.3489 103.705 67.0791 101.085 64.4801Z" fill="#FDDCCF"/>
<path opacity="0.6" d="M31.2585 70.4819L43.8101 77.4126C36.864 57.4869 39.3013 32.4869 50.878 15.1602C45.8817 15.779 40.398 17.821 35.5845 22.6478L22.058 36.3854C15.3557 43.1923 15.3557 54.2691 22.058 61.076L31.2585 70.4819Z" fill="#FDDCCF"/>
<path d="M105.776 35.4576C103.217 32.7967 95.6615 25.3709 93.8335 23.3289C82.6833 12.0046 67.6945 15.9031 63.9168 18.069L46.8563 25.6185C42.8349 27.5987 41.1898 32.4873 43.1396 36.5095C45.0894 40.5937 49.9028 42.2645 53.8633 40.2843L63.6121 35.8907C63.6731 35.9526 69.2177 38.9229 76.0419 38.9848L101.084 64.418C101.754 65.0987 102.242 65.8412 102.547 66.7076L105.776 63.4279C113.392 55.6927 113.392 43.1927 105.776 35.4576Z" fill="#DC9F83"/>
<path d="M29.3699 75.5566C26.689 72.8338 26.689 68.564 29.309 65.965L33.2695 61.9427C35.8895 59.2818 40.0937 59.2818 42.6527 61.9427L42.7137 62.0046C45.3337 64.6655 45.3337 68.9353 42.7137 71.5343L38.7532 75.5566C36.1941 78.2174 31.9899 78.2174 29.3699 75.5566Z" fill="#DC9F83"/>
<path d="M39.6082 84.406C36.9273 81.6832 36.9273 77.4134 39.5473 74.8144L47.5292 66.6461C50.1492 63.9852 54.3533 63.9852 56.9124 66.6461L56.9733 66.7079C59.5933 69.3688 59.5933 73.6386 56.9733 76.2376L48.9915 84.3441C46.4324 87.005 42.2282 87.005 39.6082 84.406Z" fill="#DC9F83"/>
<path d="M51.366 91.7072C48.6851 88.9844 48.6851 84.7146 51.3051 82.1156L55.2656 78.0933C57.8856 75.4324 62.0898 75.4324 64.6488 78.0933L64.7098 78.1552C67.3298 80.8161 67.3298 85.0859 64.7098 87.6849L60.7493 91.7072C58.1902 94.3062 53.9251 94.3062 51.366 91.7072Z" fill="#DC9F83"/>
<path d="M64.0379 98.0193C61.357 95.2966 61.357 91.0268 63.977 88.4278L64.2207 88.1802C66.8407 85.5193 71.0449 85.5193 73.604 88.1802L73.6649 88.2421C76.2849 90.903 76.2849 95.1728 73.6649 97.7718L73.4212 98.0193C70.8621 100.68 66.6579 100.68 64.0379 98.0193Z" fill="#DC9F83"/>
<path d="M44.7244 18.6881L17.7323 46.0396C14.5639 49.2574 9.38482 49.2574 6.21645 46.0396L2.43878 42.2029C-0.729593 38.9851 -0.729593 33.7252 2.43878 30.5074L29.3699 3.09403C32.5383 -0.123791 37.7174 -0.123791 40.8858 3.09403L44.6634 6.93066C47.8927 10.1485 47.8927 15.4084 44.7244 18.6881Z" fill="#EE4D4A"/>
<path d="M113.272 45.2348L86.4622 18.0071C83.2938 14.7892 83.2938 9.52934 86.4622 6.31152L90.2399 2.47489C93.4083 -0.742932 98.5873 -0.742932 101.756 2.47489L128.565 29.7026C131.733 32.9204 131.733 38.1803 128.565 41.3982L124.787 45.2348C121.619 48.4526 116.44 48.4526 113.272 45.2348Z" fill="#F0CA50"/>
</g>
<defs>
<clipPath id="clip0_1855_17585">
<rect width="131" height="100" fill="white"/>
</clipPath>
</defs>
</svg>
