<svg width="276" height="263" viewBox="0 0 276 263" fill="none" xmlns="http://www.w3.org/2000/svg">
<path fill-rule="evenodd" clip-rule="evenodd" d="M194.674 46.1298C233.825 67.0892 241.827 107.888 242.72 112.944L276.037 113.232C273.676 92.6321 266.344 72.921 254.677 55.8079C243.01 38.6949 227.36 24.6965 209.084 15.0265C203.537 11.8266 157.052 -11.4048 106.774 8.62667C94.5494 13.5288 83.241 20.475 73.3294 29.1702L96.2847 53.4576C101.581 49.2492 107.374 45.7132 113.533 42.9298C126.425 37.2978 140.418 34.6605 154.468 35.2145C168.518 35.7686 182.261 39.4998 194.674 46.1298ZM38.3223 193.487C58.2488 231.278 102.342 265.006 155.522 261.806C217.756 257.998 250.372 206.127 253.56 200.655C262.928 185.037 268.822 167.573 270.84 149.456L238.097 149.104C236.343 156.784 226.556 196.367 190.05 216.303C175.286 224.452 158.503 228.181 141.691 227.046C124.88 225.912 108.745 219.962 95.2004 209.903C70.4446 191.952 61.4825 165.977 58.2387 148.878H80.2797V114.575L58.1906 114.54C61.2126 98.8888 67.9561 84.1091 77.9521 71.5062L54.4548 46.6749C38.9545 66.2877 28.9874 89.7078 25.5798 114.488L0 114.447L0.286941 148.878H24.9573C26.7076 164.344 31.2039 179.461 38.3223 193.487ZM211.22 152.367H173.822C170.92 156.641 166.796 159.932 161.994 161.807C158.496 163.056 154.775 163.554 151.074 163.267C147.372 162.98 143.771 161.916 140.505 160.143C136.776 158.085 133.577 155.181 131.164 151.663C128.35 147.553 126.567 142.822 125.967 137.872C125.519 134.687 125.519 131.456 125.967 128.272C126.497 124.441 127.729 120.741 129.602 117.36C132.081 112.845 135.784 109.128 140.282 106.64C143.902 104.749 147.903 103.709 151.983 103.6C155.903 103.521 159.795 104.285 163.397 105.84C166.183 106.942 168.673 108.685 170.666 110.928C171.803 112.208 172.758 113.641 173.504 115.184L209.69 115.472C208.981 108.391 206.81 101.536 203.314 95.3446C200.032 89.6516 195.705 84.635 190.561 80.5609C185.458 76.4145 179.69 73.1684 173.504 70.9612C158.736 65.7473 142.548 66.3419 128.199 72.6251C120.817 75.9787 114.19 80.8012 108.719 86.8008C103.172 92.9289 98.8431 100.065 95.9658 107.824C89.8608 124.341 89.8608 142.507 95.9658 159.023C98.8777 166.718 103.204 173.795 108.719 179.886C114.201 185.856 120.827 190.656 128.199 193.998C135.991 197.425 144.434 199.106 152.94 198.926C159.968 198.982 166.952 197.791 173.567 195.406C179.77 193.213 185.55 189.965 190.656 185.806C195.665 181.592 199.97 176.601 203.409 171.023C206.982 165.259 209.619 158.962 211.22 152.367Z" fill="#163C74"/>
</svg>
