<svg width="12" height="12" viewBox="0 0 12 12" opacity="50%" fill="none" xmlns="http://www.w3.org/2000/svg">
<path d="M12.0624 10.94C11.2217 9.49195 9.87522 8.40584 8.28203 7.89056C9.04528 7.43643 9.63833 6.74428 9.9701 5.92044C10.3019 5.0966 10.354 4.18663 10.1185 3.33029C9.88301 2.47394 9.37289 1.71859 8.66652 1.18025C7.96014 0.641905 7.09656 0.350342 6.20843 0.350342C5.3203 0.350342 4.45672 0.641905 3.75034 1.18025C3.04397 1.71859 2.53385 2.47394 2.29835 3.33029C2.06286 4.18663 2.115 5.0966 2.44676 5.92044C2.77853 6.74428 3.37158 7.43643 4.13483 7.89056C2.54169 8.40584 1.19529 9.4919 0.354526 10.9399C0.314896 11.0084 0.294002 11.0861 0.293945 11.1652C0.293889 11.2444 0.314672 11.3221 0.354204 11.3907C0.393736 11.4592 0.450623 11.5161 0.519141 11.5557C0.58766 11.5953 0.665394 11.6161 0.744523 11.6161L11.6724 11.6163C11.7515 11.6163 11.8293 11.5954 11.8978 11.5558C11.9663 11.5163 12.0232 11.4593 12.0627 11.3908C12.1023 11.3222 12.1231 11.2445 12.123 11.1654C12.1229 11.0862 12.102 11.0085 12.0624 10.94L12.0624 10.94Z" fill="#1F2122"/>
</svg>
