<svg width="93" height="189" viewBox="0 0 93 189" fill="none" xmlns="http://www.w3.org/2000/svg">
<path d="M36.3432 91.9566C36.3432 91.9566 35.6812 98.6646 31.3751 100.032C31.3751 100.032 36.6203 100.572 39.0213 105.359C39.0213 105.359 39.1886 100.894 43.8446 97.4238C43.8446 97.4238 39.9377 98.3326 36.3432 91.9566Z" fill="#F0CA50"/>
<g opacity="0.05">
<path opacity="0.64" d="M0.0389741 134.646C0.0389741 136.546 1.57977 138.087 3.48042 138.087C5.38108 138.087 6.92187 136.546 6.92187 134.646C6.92187 132.745 5.38108 131.204 3.48042 131.204C1.57977 131.204 0.0389742 132.745 0.0389741 134.646Z" fill="black"/>
<path opacity="0.64" d="M12.7265 134.646C12.7265 136.546 14.2673 138.087 16.1679 138.087C18.0686 138.087 19.6094 136.546 19.6094 134.646C19.6094 132.745 18.0686 131.204 16.1679 131.204C14.2673 131.204 12.7265 132.745 12.7265 134.646Z" fill="black"/>
<path opacity="0.64" d="M25.4199 134.646C25.4199 136.546 26.9607 138.087 28.8613 138.087C30.762 138.087 32.3027 136.546 32.3027 134.646C32.3027 132.745 30.762 131.204 28.8613 131.204C26.9607 131.204 25.4199 132.745 25.4199 134.646Z" fill="black"/>
<path opacity="0.64" d="M38.2167 134.646C38.2167 136.546 39.7575 138.087 41.6582 138.087C43.5588 138.087 45.0996 136.546 45.0996 134.646C45.0996 132.745 43.5588 131.204 41.6582 131.204C39.7575 131.204 38.2167 132.745 38.2167 134.646Z" fill="black"/>
<path opacity="0.64" d="M0.0389741 145.724C0.0389741 147.624 1.57977 149.165 3.48042 149.165C5.38108 149.165 6.92187 147.624 6.92187 145.724C6.92187 143.823 5.38108 142.282 3.48042 142.282C1.57977 142.282 0.0389742 143.823 0.0389741 145.724Z" fill="black"/>
<path opacity="0.64" d="M12.7265 145.724C12.7265 147.624 14.2673 149.165 16.1679 149.165C18.0686 149.165 19.6094 147.624 19.6094 145.724C19.6094 143.823 18.0686 142.282 16.1679 142.282C14.2673 142.282 12.7265 143.823 12.7265 145.724Z" fill="black"/>
<path opacity="0.64" d="M25.4199 145.724C25.4199 147.624 26.9607 149.165 28.8613 149.165C30.762 149.165 32.3027 147.624 32.3027 145.724C32.3027 143.823 30.762 142.282 28.8613 142.282C26.9607 142.282 25.4199 143.823 25.4199 145.724Z" fill="black"/>
<path opacity="0.64" d="M38.2167 145.724C38.2167 147.624 39.7575 149.165 41.6582 149.165C43.5588 149.165 45.0996 147.624 45.0996 145.724C45.0996 143.823 43.5588 142.282 41.6582 142.282C39.7575 142.282 38.2167 143.823 38.2167 145.724Z" fill="black"/>
<path opacity="0.64" d="M0.0389741 156.801C0.0389741 158.701 1.57977 160.242 3.48042 160.242C5.38108 160.242 6.92187 158.701 6.92187 156.801C6.92187 154.9 5.38108 153.359 3.48042 153.359C1.57977 153.359 0.0389742 154.9 0.0389741 156.801Z" fill="black"/>
<path opacity="0.64" d="M12.7265 156.801C12.7265 158.701 14.2673 160.242 16.1679 160.242C18.0686 160.242 19.6094 158.701 19.6094 156.801C19.6094 154.9 18.0686 153.359 16.1679 153.359C14.2673 153.359 12.7265 154.9 12.7265 156.801Z" fill="black"/>
<path opacity="0.64" d="M25.4199 156.801C25.4199 158.701 26.9607 160.242 28.8613 160.242C30.762 160.242 32.3027 158.701 32.3027 156.801C32.3027 154.9 30.762 153.359 28.8613 153.359C26.9607 153.359 25.4199 154.9 25.4199 156.801Z" fill="black"/>
<path opacity="0.64" d="M38.2167 156.801C38.2167 158.701 39.7575 160.242 41.6582 160.242C43.5588 160.242 45.0996 158.701 45.0996 156.801C45.0996 154.9 43.5588 153.359 41.6582 153.359C39.7575 153.359 38.2167 154.9 38.2167 156.801Z" fill="black"/>
<path opacity="0.64" d="M0.0389741 167.878C0.0389741 169.779 1.57977 171.319 3.48042 171.319C5.38108 171.319 6.92187 169.779 6.92187 167.878C6.92187 165.977 5.38108 164.437 3.48042 164.437C1.57977 164.437 0.0389742 165.977 0.0389741 167.878Z" fill="black"/>
<path opacity="0.64" d="M12.7265 167.878C12.7265 169.779 14.2673 171.319 16.1679 171.319C18.0686 171.319 19.6094 169.779 19.6094 167.878C19.6094 165.977 18.0686 164.437 16.1679 164.437C14.2673 164.437 12.7265 165.977 12.7265 167.878Z" fill="black"/>
<path opacity="0.64" d="M25.4199 167.878C25.4199 169.779 26.9607 171.319 28.8613 171.319C30.762 171.319 32.3027 169.779 32.3027 167.878C32.3027 165.977 30.762 164.437 28.8613 164.437C26.9607 164.437 25.4199 165.977 25.4199 167.878Z" fill="black"/>
<path opacity="0.64" d="M38.2167 167.878C38.2167 169.779 39.7575 171.319 41.6582 171.319C43.5588 171.319 45.0996 169.779 45.0996 167.878C45.0996 165.977 43.5588 164.437 41.6582 164.437C39.7575 164.437 38.2167 165.977 38.2167 167.878Z" fill="black"/>
<path opacity="0.64" d="M0.0389741 90.7676C0.0389741 92.6682 1.57977 94.209 3.48042 94.209C5.38108 94.209 6.92187 92.6682 6.92187 90.7676C6.92187 88.8669 5.38108 87.3262 3.48042 87.3262C1.57977 87.3262 0.0389742 88.8669 0.0389741 90.7676Z" fill="black"/>
<path opacity="0.64" d="M12.7304 90.7676C12.7304 92.6682 14.2712 94.209 16.1718 94.209C18.0725 94.209 19.6133 92.6682 19.6133 90.7676C19.6133 88.8669 18.0725 87.3262 16.1718 87.3262C14.2712 87.3262 12.7304 88.8669 12.7304 90.7676Z" fill="black"/>
<path opacity="0.64" d="M25.4199 90.7676C25.4199 92.6682 26.9607 94.209 28.8613 94.209C30.762 94.209 32.3027 92.6682 32.3027 90.7676C32.3027 88.8669 30.762 87.3262 28.8613 87.3262C26.9607 87.3262 25.4199 88.8669 25.4199 90.7676Z" fill="black"/>
<path opacity="0.64" d="M38.2167 90.7676C38.2167 92.6682 39.7575 94.209 41.6582 94.209C43.5588 94.209 45.0996 92.6682 45.0996 90.7676C45.0996 88.8669 43.5588 87.3262 41.6582 87.3262C39.7575 87.3262 38.2167 88.8669 38.2167 90.7676Z" fill="black"/>
<path opacity="0.64" d="M0.0389741 101.846C0.0389741 103.746 1.57977 105.287 3.48042 105.287C5.38108 105.287 6.92187 103.746 6.92187 101.846C6.92187 99.9451 5.38108 98.4043 3.48042 98.4043C1.57977 98.4043 0.0389742 99.9451 0.0389741 101.846Z" fill="black"/>
<path opacity="0.64" d="M12.7307 101.846C12.7307 103.746 14.2714 105.287 16.172 105.287C18.0727 105.287 19.6135 103.746 19.6135 101.846C19.6135 99.945 18.0727 98.4042 16.172 98.4042C14.2714 98.4042 12.7307 99.945 12.7307 101.846Z" fill="black"/>
<path opacity="0.64" d="M25.4199 101.846C25.4199 103.746 26.9607 105.287 28.8613 105.287C30.762 105.287 32.3027 103.746 32.3027 101.846C32.3027 99.945 30.762 98.4042 28.8613 98.4042C26.9607 98.4042 25.4199 99.945 25.4199 101.846Z" fill="black"/>
<path opacity="0.64" d="M38.2167 101.846C38.2167 103.746 39.7575 105.287 41.6582 105.287C43.5588 105.287 45.0996 103.746 45.0996 101.846C45.0996 99.9451 43.5588 98.4043 41.6582 98.4043C39.7575 98.4043 38.2167 99.9451 38.2167 101.846Z" fill="black"/>
<path opacity="0.64" d="M0.0389741 112.814C0.0389741 114.715 1.57977 116.256 3.48042 116.256C5.38108 116.256 6.92187 114.715 6.92187 112.814C6.92187 110.914 5.38108 109.373 3.48042 109.373C1.57977 109.373 0.0389742 110.914 0.0389741 112.814Z" fill="black"/>
<path opacity="0.64" d="M12.7265 112.814C12.7265 114.715 14.2673 116.256 16.1679 116.256C18.0686 116.256 19.6094 114.715 19.6094 112.814C19.6094 110.914 18.0686 109.373 16.1679 109.373C14.2673 109.373 12.7265 110.914 12.7265 112.814Z" fill="black"/>
<path opacity="0.64" d="M25.4199 112.814C25.4199 114.715 26.9607 116.256 28.8613 116.256C30.762 116.256 32.3027 114.715 32.3027 112.814C32.3027 110.914 30.762 109.373 28.8613 109.373C26.9607 109.373 25.4199 110.914 25.4199 112.814Z" fill="black"/>
<path opacity="0.64" d="M38.2167 112.814C38.2167 114.715 39.7575 116.256 41.6582 116.256C43.5588 116.256 45.0996 114.715 45.0996 112.814C45.0996 110.914 43.5588 109.373 41.6582 109.373C39.7575 109.373 38.2167 110.914 38.2167 112.814Z" fill="black"/>
<path opacity="0.64" d="M0.0389741 123.892C0.0389741 125.792 1.57977 127.333 3.48042 127.333C5.38108 127.333 6.92187 125.792 6.92187 123.892C6.92187 121.991 5.38108 120.45 3.48042 120.45C1.57977 120.45 0.0389742 121.991 0.0389741 123.892Z" fill="black"/>
<path opacity="0.64" d="M12.7265 123.892C12.7265 125.792 14.2673 127.333 16.1679 127.333C18.0686 127.333 19.6094 125.792 19.6094 123.892C19.6094 121.991 18.0686 120.45 16.1679 120.45C14.2673 120.45 12.7265 121.991 12.7265 123.892Z" fill="black"/>
<path opacity="0.64" d="M25.4199 123.892C25.4199 125.792 26.9607 127.333 28.8613 127.333C30.762 127.333 32.3027 125.792 32.3027 123.892C32.3027 121.991 30.762 120.45 28.8613 120.45C26.9607 120.45 25.4199 121.991 25.4199 123.892Z" fill="black"/>
<path opacity="0.64" d="M38.2167 123.892C38.2167 125.792 39.7575 127.333 41.6582 127.333C43.5588 127.333 45.0996 125.792 45.0996 123.892C45.0996 121.991 43.5588 120.45 41.6582 120.45C39.7575 120.45 38.2167 121.991 38.2167 123.892Z" fill="black"/>
<path opacity="0.64" d="M49.2949 134.646C49.2949 136.546 50.8356 138.087 52.7363 138.087C54.6369 138.087 56.1777 136.546 56.1777 134.646C56.1777 132.745 54.6369 131.204 52.7363 131.204C50.8356 131.204 49.2949 132.745 49.2949 134.646Z" fill="black"/>
<path opacity="0.64" d="M61.9824 134.646C61.9824 136.546 63.5232 138.087 65.4238 138.087C67.3245 138.087 68.8652 136.546 68.8652 134.646C68.8652 132.745 67.3245 131.204 65.4238 131.204C63.5232 131.204 61.9824 132.745 61.9824 134.646Z" fill="black"/>
<path opacity="0.64" d="M74.7831 134.646C74.7831 136.546 76.3239 138.087 78.2246 138.087C80.1252 138.087 81.666 136.546 81.666 134.646C81.666 132.745 80.1252 131.204 78.2246 131.204C76.3239 131.204 74.7831 132.745 74.7831 134.646Z" fill="black"/>
<path opacity="0.64" d="M87.4726 134.647C87.4726 136.547 89.0134 138.088 90.914 138.088C92.8147 138.088 94.3555 136.547 94.3555 134.647C94.3555 132.746 92.8147 131.205 90.914 131.205C89.0134 131.205 87.4726 132.746 87.4726 134.647Z" fill="black"/>
<path opacity="0.64" d="M49.2951 145.724C49.2951 147.624 50.8358 149.165 52.7364 149.165C54.6371 149.165 56.1779 147.624 56.1779 145.724C56.1779 143.823 54.6371 142.282 52.7364 142.282C50.8358 142.282 49.2951 143.823 49.2951 145.724Z" fill="black"/>
<path opacity="0.64" d="M61.9863 145.724C61.9863 147.624 63.5271 149.165 65.4278 149.165C67.3284 149.165 68.8691 147.624 68.8691 145.724C68.8691 143.823 67.3284 142.282 65.4278 142.282C63.5271 142.282 61.9863 143.823 61.9863 145.724Z" fill="black"/>
<path opacity="0.64" d="M74.7812 145.724C74.7812 147.624 76.322 149.165 78.2226 149.165C80.1233 149.165 81.6641 147.624 81.6641 145.724C81.6641 143.823 80.1233 142.282 78.2226 142.282C76.322 142.282 74.7812 143.823 74.7812 145.724Z" fill="black"/>
<path opacity="0.64" d="M87.4726 145.724C87.4726 147.624 89.0134 149.165 90.914 149.165C92.8147 149.165 94.3555 147.624 94.3555 145.724C94.3555 143.823 92.8147 142.282 90.914 142.282C89.0134 142.282 87.4726 143.823 87.4726 145.724Z" fill="black"/>
<path opacity="0.64" d="M49.2949 156.801C49.2949 158.701 50.8356 160.242 52.7363 160.242C54.6369 160.242 56.1777 158.701 56.1777 156.801C56.1777 154.9 54.6369 153.359 52.7363 153.359C50.8356 153.359 49.2949 154.9 49.2949 156.801Z" fill="black"/>
<path opacity="0.64" d="M61.9863 156.801C61.9863 158.701 63.5271 160.242 65.4278 160.242C67.3284 160.242 68.8691 158.701 68.8691 156.801C68.8691 154.9 67.3284 153.359 65.4278 153.359C63.5271 153.359 61.9863 154.9 61.9863 156.801Z" fill="black"/>
<path opacity="0.64" d="M74.7831 156.801C74.7831 158.701 76.3239 160.242 78.2246 160.242C80.1252 160.242 81.666 158.701 81.666 156.801C81.666 154.9 80.1252 153.359 78.2246 153.359C76.3239 153.359 74.7831 154.9 74.7831 156.801Z" fill="black"/>
<path opacity="0.64" d="M87.4726 156.801C87.4726 158.701 89.0134 160.242 90.914 160.242C92.8147 160.242 94.3555 158.701 94.3555 156.801C94.3555 154.9 92.8147 153.359 90.914 153.359C89.0134 153.359 87.4726 154.9 87.4726 156.801Z" fill="black"/>
<path opacity="0.64" d="M49.2949 167.878C49.2949 169.779 50.8356 171.319 52.7363 171.319C54.6369 171.319 56.1777 169.779 56.1777 167.878C56.1777 165.977 54.6369 164.437 52.7363 164.437C50.8356 164.437 49.2949 165.977 49.2949 167.878Z" fill="black"/>
<path opacity="0.64" d="M61.9824 167.878C61.9824 169.779 63.5232 171.319 65.4238 171.319C67.3245 171.319 68.8652 169.779 68.8652 167.878C68.8652 165.977 67.3245 164.437 65.4238 164.437C63.5232 164.437 61.9824 165.977 61.9824 167.878Z" fill="black"/>
<path opacity="0.64" d="M74.7812 167.878C74.7812 169.779 76.322 171.319 78.2226 171.319C80.1233 171.319 81.6641 169.779 81.6641 167.878C81.6641 165.977 80.1233 164.437 78.2226 164.437C76.322 164.437 74.7812 165.977 74.7812 167.878Z" fill="black"/>
<path opacity="0.64" d="M87.4726 167.878C87.4726 169.779 89.0134 171.319 90.914 171.319C92.8147 171.319 94.3555 169.779 94.3555 167.878C94.3555 165.977 92.8147 164.437 90.914 164.437C89.0134 164.437 87.4726 165.977 87.4726 167.878Z" fill="black"/>
<path opacity="0.64" d="M49.2949 90.7676C49.2949 92.6682 50.8356 94.209 52.7363 94.209C54.6369 94.209 56.1777 92.6682 56.1777 90.7676C56.1777 88.8669 54.6369 87.3262 52.7363 87.3262C50.8356 87.3262 49.2949 88.8669 49.2949 90.7676Z" fill="black"/>
<path opacity="0.64" d="M61.9863 90.7676C61.9863 92.6682 63.5271 94.209 65.4278 94.209C67.3284 94.209 68.8691 92.6682 68.8691 90.7676C68.8691 88.8669 67.3284 87.3262 65.4278 87.3262C63.5271 87.3262 61.9863 88.8669 61.9863 90.7676Z" fill="black"/>
<path opacity="0.64" d="M74.7812 90.7676C74.7812 92.6682 76.322 94.209 78.2226 94.209C80.1233 94.209 81.6641 92.6682 81.6641 90.7676C81.6641 88.8669 80.1233 87.3262 78.2226 87.3262C76.322 87.3262 74.7812 88.8669 74.7812 90.7676Z" fill="black"/>
<path opacity="0.64" d="M87.4726 90.7676C87.4726 92.6682 89.0134 94.209 90.914 94.209C92.8147 94.209 94.3555 92.6682 94.3555 90.7676C94.3555 88.8669 92.8147 87.3262 90.914 87.3262C89.0134 87.3262 87.4726 88.8669 87.4726 90.7676Z" fill="black"/>
<path opacity="0.64" d="M49.2951 101.846C49.2951 103.746 50.8358 105.287 52.7364 105.287C54.6371 105.287 56.1779 103.746 56.1779 101.846C56.1779 99.945 54.6371 98.4042 52.7364 98.4042C50.8358 98.4042 49.2951 99.945 49.2951 101.846Z" fill="black"/>
<path opacity="0.64" d="M61.9863 101.846C61.9863 103.746 63.5271 105.287 65.4278 105.287C67.3284 105.287 68.8691 103.746 68.8691 101.846C68.8691 99.9451 67.3284 98.4043 65.4278 98.4043C63.5271 98.4043 61.9863 99.9451 61.9863 101.846Z" fill="black"/>
<path opacity="0.64" d="M74.7831 101.846C74.7831 103.746 76.3239 105.287 78.2246 105.287C80.1252 105.287 81.666 103.746 81.666 101.846C81.666 99.9451 80.1252 98.4043 78.2246 98.4043C76.3239 98.4043 74.7831 99.9451 74.7831 101.846Z" fill="black"/>
<path opacity="0.64" d="M87.4726 101.846C87.4726 103.746 89.0134 105.287 90.914 105.287C92.8147 105.287 94.3555 103.746 94.3555 101.846C94.3555 99.945 92.8147 98.4042 90.914 98.4042C89.0134 98.4042 87.4726 99.945 87.4726 101.846Z" fill="black"/>
<path opacity="0.64" d="M49.2949 112.814C49.2949 114.715 50.8356 116.256 52.7363 116.256C54.6369 116.256 56.1777 114.715 56.1777 112.814C56.1777 110.914 54.6369 109.373 52.7363 109.373C50.8356 109.373 49.2949 110.914 49.2949 112.814Z" fill="black"/>
<path opacity="0.64" d="M61.9824 112.814C61.9824 114.715 63.5232 116.256 65.4238 116.256C67.3245 116.256 68.8652 114.715 68.8652 112.814C68.8652 110.914 67.3245 109.373 65.4238 109.373C63.5232 109.373 61.9824 110.914 61.9824 112.814Z" fill="black"/>
<path opacity="0.64" d="M74.7812 112.814C74.7812 114.715 76.322 116.256 78.2226 116.256C80.1233 116.256 81.6641 114.715 81.6641 112.814C81.6641 110.914 80.1233 109.373 78.2226 109.373C76.322 109.373 74.7812 110.914 74.7812 112.814Z" fill="black"/>
<path opacity="0.64" d="M87.4726 112.815C87.4726 114.716 89.0134 116.257 90.914 116.257C92.8147 116.257 94.3555 114.716 94.3555 112.815C94.3555 110.915 92.8147 109.374 90.914 109.374C89.0134 109.374 87.4726 110.915 87.4726 112.815Z" fill="black"/>
<path opacity="0.64" d="M49.2949 123.892C49.2949 125.792 50.8356 127.333 52.7363 127.333C54.6369 127.333 56.1777 125.792 56.1777 123.892C56.1777 121.991 54.6369 120.45 52.7363 120.45C50.8356 120.45 49.2949 121.991 49.2949 123.892Z" fill="black"/>
<path opacity="0.64" d="M61.9824 123.892C61.9824 125.792 63.5232 127.333 65.4238 127.333C67.3245 127.333 68.8652 125.792 68.8652 123.892C68.8652 121.991 67.3245 120.45 65.4238 120.45C63.5232 120.45 61.9824 121.991 61.9824 123.892Z" fill="black"/>
<path opacity="0.64" d="M74.7831 123.892C74.7831 125.792 76.3239 127.333 78.2246 127.333C80.1252 127.333 81.666 125.792 81.666 123.892C81.666 121.991 80.1252 120.45 78.2246 120.45C76.3239 120.45 74.7831 121.991 74.7831 123.892Z" fill="black"/>
<path opacity="0.64" d="M87.4726 123.892C87.4726 125.792 89.0134 127.333 90.914 127.333C92.8147 127.333 94.3555 125.792 94.3555 123.892C94.3555 121.991 92.8147 120.45 90.914 120.45C89.0134 120.45 87.4726 121.991 87.4726 123.892Z" fill="black"/>
<path opacity="0.64" d="M0.0389741 47.4278C0.0389741 49.3284 1.57977 50.8692 3.48042 50.8692C5.38108 50.8692 6.92187 49.3284 6.92187 47.4278C6.92187 45.5271 5.38108 43.9863 3.48042 43.9863C1.57977 43.9863 0.0389742 45.5271 0.0389741 47.4278Z" fill="black"/>
<path opacity="0.64" d="M12.7265 47.4278C12.7265 49.3284 14.2673 50.8692 16.1679 50.8692C18.0686 50.8692 19.6094 49.3284 19.6094 47.4278C19.6094 45.5271 18.0686 43.9863 16.1679 43.9863C14.2673 43.9863 12.7265 45.5271 12.7265 47.4278Z" fill="black"/>
<path opacity="0.64" d="M25.4199 47.4277C25.4199 49.3283 26.9607 50.8691 28.8613 50.8691C30.762 50.8691 32.3027 49.3283 32.3027 47.4277C32.3027 45.527 30.762 43.9862 28.8613 43.9862C26.9607 43.9862 25.4199 45.527 25.4199 47.4277Z" fill="black"/>
<path opacity="0.64" d="M38.2167 47.4268C38.2167 49.3275 39.7575 50.8683 41.6582 50.8683C43.5588 50.8683 45.0996 49.3275 45.0996 47.4268C45.0996 45.5261 43.5588 43.9854 41.6582 43.9854C39.7575 43.9854 38.2167 45.5261 38.2167 47.4268Z" fill="black"/>
<path opacity="0.64" d="M0.0389741 58.3975C0.0389741 60.2982 1.57977 61.8389 3.48042 61.8389C5.38108 61.8389 6.92187 60.2982 6.92187 58.3975C6.92187 56.4969 5.38108 54.9561 3.48042 54.9561C1.57977 54.9561 0.0389742 56.4969 0.0389741 58.3975Z" fill="black"/>
<path opacity="0.64" d="M12.7304 58.3975C12.7304 60.2982 14.2712 61.8389 16.1718 61.8389C18.0725 61.8389 19.6133 60.2982 19.6133 58.3975C19.6133 56.4969 18.0725 54.9561 16.1718 54.9561C14.2712 54.9561 12.7304 56.4969 12.7304 58.3975Z" fill="black"/>
<path opacity="0.64" d="M25.4199 58.3975C25.4199 60.2982 26.9607 61.8389 28.8613 61.8389C30.762 61.8389 32.3027 60.2982 32.3027 58.3975C32.3027 56.4969 30.762 54.9561 28.8613 54.9561C26.9607 54.9561 25.4199 56.4969 25.4199 58.3975Z" fill="black"/>
<path opacity="0.64" d="M38.2167 58.3975C38.2167 60.2982 39.7575 61.8389 41.6582 61.8389C43.5588 61.8389 45.0996 60.2982 45.0996 58.3975C45.0996 56.4969 43.5588 54.9561 41.6582 54.9561C39.7575 54.9561 38.2167 56.4969 38.2167 58.3975Z" fill="black"/>
<path opacity="0.64" d="M0.0389741 69.4737C0.0389741 71.3743 1.57977 72.9151 3.48042 72.9151C5.38108 72.9151 6.92187 71.3743 6.92187 69.4737C6.92187 67.573 5.38108 66.0322 3.48042 66.0322C1.57977 66.0322 0.0389742 67.573 0.0389741 69.4737Z" fill="black"/>
<path opacity="0.64" d="M12.7304 69.4737C12.7304 71.3743 14.2712 72.9151 16.1718 72.9151C18.0725 72.9151 19.6133 71.3743 19.6133 69.4737C19.6133 67.573 18.0725 66.0322 16.1718 66.0322C14.2712 66.0322 12.7304 67.573 12.7304 69.4737Z" fill="black"/>
<path opacity="0.64" d="M25.4199 69.4737C25.4199 71.3743 26.9607 72.9151 28.8613 72.9151C30.762 72.9151 32.3027 71.3743 32.3027 69.4737C32.3027 67.573 30.762 66.0322 28.8613 66.0322C26.9607 66.0322 25.4199 67.573 25.4199 69.4737Z" fill="black"/>
<path opacity="0.64" d="M38.2167 69.4737C38.2167 71.3743 39.7575 72.9151 41.6582 72.9151C43.5588 72.9151 45.0996 71.3743 45.0996 69.4737C45.0996 67.573 43.5588 66.0322 41.6582 66.0322C39.7575 66.0322 38.2167 67.573 38.2167 69.4737Z" fill="black"/>
<path opacity="0.64" d="M0.0389741 80.5508C0.0389741 82.4514 1.57977 83.9922 3.48042 83.9922C5.38108 83.9922 6.92187 82.4514 6.92187 80.5508C6.92187 78.6501 5.38108 77.1094 3.48042 77.1094C1.57977 77.1094 0.0389742 78.6501 0.0389741 80.5508Z" fill="black"/>
<path opacity="0.64" d="M12.7307 80.5508C12.7307 82.4514 14.2714 83.9922 16.172 83.9922C18.0727 83.9922 19.6135 82.4514 19.6135 80.5508C19.6135 78.6501 18.0727 77.1094 16.172 77.1094C14.2714 77.1094 12.7307 78.6501 12.7307 80.5508Z" fill="black"/>
<path opacity="0.64" d="M25.4199 80.5508C25.4199 82.4514 26.9607 83.9922 28.8613 83.9922C30.762 83.9922 32.3027 82.4514 32.3027 80.5508C32.3027 78.6501 30.762 77.1094 28.8613 77.1094C26.9607 77.1094 25.4199 78.6501 25.4199 80.5508Z" fill="black"/>
<path opacity="0.64" d="M38.2167 80.5508C38.2167 82.4514 39.7575 83.9922 41.6582 83.9922C43.5588 83.9922 45.0996 82.4514 45.0996 80.5508C45.0996 78.6501 43.5588 77.1094 41.6582 77.1094C39.7575 77.1094 38.2167 78.6501 38.2167 80.5508Z" fill="black"/>
<path opacity="0.64" d="M0.0389741 3.44145C0.0389741 5.3421 1.57977 6.88288 3.48042 6.88288C5.38108 6.88288 6.92187 5.3421 6.92187 3.44145C6.92187 1.5408 5.38108 -6.73504e-08 3.48042 -1.50431e-07C1.57977 -2.33511e-07 0.0389742 1.5408 0.0389741 3.44145Z" fill="black"/>
<path opacity="0.64" d="M12.7265 3.44145C12.7265 5.3421 14.2673 6.88288 16.1679 6.88288C18.0686 6.88288 19.6094 5.3421 19.6094 3.44145C19.6094 1.5408 18.0686 -6.73504e-08 16.1679 -1.50431e-07C14.2673 -2.33511e-07 12.7265 1.5408 12.7265 3.44145Z" fill="black"/>
<path opacity="0.64" d="M25.4198 3.44145C25.4198 5.3421 26.9606 6.88288 28.8613 6.88288C30.7619 6.88288 32.3027 5.3421 32.3027 3.44145C32.3027 1.5408 30.7619 -6.73475e-08 28.8613 -1.50428e-07C26.9606 -2.33508e-07 25.4198 1.5408 25.4198 3.44145Z" fill="black"/>
<path opacity="0.64" d="M38.2167 3.44145C38.2167 5.3421 39.7575 6.88288 41.6582 6.88288C43.5588 6.88288 45.0996 5.3421 45.0996 3.44145C45.0996 1.5408 43.5588 -6.73504e-08 41.6582 -1.50431e-07C39.7575 -2.33511e-07 38.2167 1.5408 38.2167 3.44145Z" fill="black"/>
<path opacity="0.64" d="M0.0389741 14.5186C0.0389741 16.4192 1.57977 17.96 3.48042 17.96C5.38108 17.96 6.92187 16.4192 6.92187 14.5186C6.92187 12.6179 5.38108 11.0771 3.48042 11.0771C1.57977 11.0771 0.0389742 12.6179 0.0389741 14.5186Z" fill="black"/>
<path opacity="0.64" d="M12.7265 14.5186C12.7265 16.4192 14.2673 17.96 16.1679 17.96C18.0686 17.96 19.6094 16.4192 19.6094 14.5186C19.6094 12.6179 18.0686 11.0771 16.1679 11.0771C14.2673 11.0771 12.7265 12.6179 12.7265 14.5186Z" fill="black"/>
<path opacity="0.64" d="M25.4199 14.5186C25.4199 16.4192 26.9607 17.96 28.8613 17.96C30.762 17.96 32.3027 16.4192 32.3027 14.5186C32.3027 12.6179 30.762 11.0771 28.8613 11.0771C26.9607 11.0771 25.4199 12.6179 25.4199 14.5186Z" fill="black"/>
<path opacity="0.64" d="M38.2167 14.5186C38.2167 16.4192 39.7575 17.96 41.6582 17.96C43.5588 17.96 45.0996 16.4192 45.0996 14.5186C45.0996 12.6179 43.5588 11.0771 41.6582 11.0771C39.7575 11.0771 38.2167 12.6179 38.2167 14.5186Z" fill="black"/>
<path opacity="0.64" d="M0.0389741 25.5957C0.0389741 27.4964 1.57977 29.0372 3.48042 29.0372C5.38108 29.0372 6.92187 27.4964 6.92187 25.5957C6.92187 23.6951 5.38108 22.1543 3.48042 22.1543C1.57977 22.1543 0.0389742 23.6951 0.0389741 25.5957Z" fill="black"/>
<path opacity="0.64" d="M12.7265 25.5957C12.7265 27.4964 14.2673 29.0372 16.1679 29.0372C18.0686 29.0372 19.6094 27.4964 19.6094 25.5957C19.6094 23.6951 18.0686 22.1543 16.1679 22.1543C14.2673 22.1543 12.7265 23.6951 12.7265 25.5957Z" fill="black"/>
<path opacity="0.64" d="M25.4199 25.5957C25.4199 27.4964 26.9607 29.0372 28.8613 29.0372C30.762 29.0372 32.3027 27.4964 32.3027 25.5957C32.3027 23.6951 30.762 22.1543 28.8613 22.1543C26.9607 22.1543 25.4199 23.6951 25.4199 25.5957Z" fill="black"/>
<path opacity="0.64" d="M38.2167 25.5957C38.2167 27.4964 39.7575 29.0372 41.6582 29.0372C43.5588 29.0372 45.0996 27.4964 45.0996 25.5957C45.0996 23.6951 43.5588 22.1543 41.6582 22.1543C39.7575 22.1543 38.2167 23.6951 38.2167 25.5957Z" fill="black"/>
<path opacity="0.64" d="M0.0389741 36.6729C0.0389741 38.5735 1.57977 40.1143 3.48042 40.1143C5.38108 40.1143 6.92187 38.5735 6.92187 36.6729C6.92187 34.7722 5.38108 33.2314 3.48042 33.2314C1.57977 33.2314 0.0389742 34.7722 0.0389741 36.6729Z" fill="black"/>
<path opacity="0.64" d="M12.7265 36.6719C12.7265 38.5726 14.2673 40.1134 16.1679 40.1134C18.0686 40.1134 19.6094 38.5726 19.6094 36.6719C19.6094 34.7713 18.0686 33.2305 16.1679 33.2305C14.2673 33.2305 12.7265 34.7713 12.7265 36.6719Z" fill="black"/>
<path opacity="0.64" d="M25.4199 36.672C25.4199 38.5727 26.9607 40.1135 28.8613 40.1135C30.762 40.1135 32.3027 38.5727 32.3027 36.672C32.3027 34.7714 30.762 33.2306 28.8613 33.2306C26.9607 33.2306 25.4199 34.7714 25.4199 36.672Z" fill="black"/>
<path opacity="0.64" d="M38.2167 36.6729C38.2167 38.5735 39.7575 40.1143 41.6582 40.1143C43.5588 40.1143 45.0996 38.5735 45.0996 36.6729C45.0996 34.7722 43.5588 33.2314 41.6582 33.2314C39.7575 33.2314 38.2167 34.7722 38.2167 36.6729Z" fill="black"/>
<path opacity="0.64" d="M49.2951 47.4268C49.2951 49.3275 50.8358 50.8683 52.7364 50.8683C54.6371 50.8683 56.1779 49.3275 56.1779 47.4268C56.1779 45.5261 54.6371 43.9854 52.7364 43.9854C50.8358 43.9854 49.2951 45.5261 49.2951 47.4268Z" fill="black"/>
<path opacity="0.64" d="M61.9863 47.4268C61.9863 49.3275 63.5271 50.8683 65.4278 50.8683C67.3284 50.8683 68.8691 49.3275 68.8691 47.4268C68.8691 45.5261 67.3284 43.9854 65.4278 43.9854C63.5271 43.9854 61.9863 45.5261 61.9863 47.4268Z" fill="black"/>
<path opacity="0.64" d="M74.7831 47.4268C74.7831 49.3275 76.3239 50.8683 78.2246 50.8683C80.1252 50.8683 81.666 49.3275 81.666 47.4268C81.666 45.5261 80.1252 43.9854 78.2246 43.9854C76.3239 43.9854 74.7831 45.5261 74.7831 47.4268Z" fill="black"/>
<path opacity="0.64" d="M87.4726 47.4268C87.4726 49.3275 89.0134 50.8683 90.914 50.8683C92.8147 50.8683 94.3555 49.3275 94.3555 47.4268C94.3555 45.5261 92.8147 43.9854 90.914 43.9854C89.0134 43.9854 87.4726 45.5261 87.4726 47.4268Z" fill="black"/>
<path opacity="0.64" d="M49.2949 58.3975C49.2949 60.2982 50.8356 61.8389 52.7363 61.8389C54.6369 61.8389 56.1777 60.2982 56.1777 58.3975C56.1777 56.4969 54.6369 54.9561 52.7363 54.9561C50.8356 54.9561 49.2949 56.4969 49.2949 58.3975Z" fill="black"/>
<path opacity="0.64" d="M61.9824 58.3975C61.9824 60.2982 63.5232 61.8389 65.4238 61.8389C67.3245 61.8389 68.8652 60.2982 68.8652 58.3975C68.8652 56.4969 67.3245 54.9561 65.4238 54.9561C63.5232 54.9561 61.9824 56.4969 61.9824 58.3975Z" fill="black"/>
<path opacity="0.64" d="M74.7812 58.3975C74.7812 60.2982 76.322 61.8389 78.2226 61.8389C80.1233 61.8389 81.6641 60.2982 81.6641 58.3975C81.6641 56.4969 80.1233 54.9561 78.2226 54.9561C76.322 54.9561 74.7812 56.4969 74.7812 58.3975Z" fill="black"/>
<path opacity="0.64" d="M87.4726 58.3975C87.4726 60.2982 89.0134 61.8389 90.914 61.8389C92.8147 61.8389 94.3555 60.2982 94.3555 58.3975C94.3555 56.4969 92.8147 54.9561 90.914 54.9561C89.0134 54.9561 87.4726 56.4969 87.4726 58.3975Z" fill="black"/>
<path opacity="0.64" d="M49.2949 69.4737C49.2949 71.3743 50.8356 72.9151 52.7363 72.9151C54.6369 72.9151 56.1777 71.3743 56.1777 69.4737C56.1777 67.573 54.6369 66.0322 52.7363 66.0322C50.8356 66.0322 49.2949 67.573 49.2949 69.4737Z" fill="black"/>
<path opacity="0.64" d="M61.9824 69.4737C61.9824 71.3743 63.5232 72.9151 65.4238 72.9151C67.3245 72.9151 68.8652 71.3743 68.8652 69.4737C68.8652 67.573 67.3245 66.0322 65.4238 66.0322C63.5232 66.0322 61.9824 67.573 61.9824 69.4737Z" fill="black"/>
<path opacity="0.64" d="M74.7812 69.4737C74.7812 71.3743 76.322 72.9151 78.2226 72.9151C80.1233 72.9151 81.6641 71.3743 81.6641 69.4737C81.6641 67.573 80.1233 66.0322 78.2226 66.0322C76.322 66.0322 74.7812 67.573 74.7812 69.4737Z" fill="black"/>
<path opacity="0.64" d="M87.4726 69.4737C87.4726 71.3743 89.0134 72.9151 90.914 72.9151C92.8147 72.9151 94.3555 71.3743 94.3555 69.4737C94.3555 67.573 92.8147 66.0322 90.914 66.0322C89.0134 66.0322 87.4726 67.573 87.4726 69.4737Z" fill="black"/>
<path opacity="0.64" d="M49.2951 80.5508C49.2951 82.4514 50.8358 83.9922 52.7364 83.9922C54.6371 83.9922 56.1779 82.4514 56.1779 80.5508C56.1779 78.6501 54.6371 77.1094 52.7364 77.1094C50.8358 77.1094 49.2951 78.6501 49.2951 80.5508Z" fill="black"/>
<path opacity="0.64" d="M61.9825 80.5508C61.9825 82.4514 63.5233 83.9922 65.4239 83.9922C67.3246 83.9922 68.8653 82.4514 68.8653 80.5508C68.8653 78.6501 67.3246 77.1094 65.4239 77.1094C63.5233 77.1094 61.9825 78.6501 61.9825 80.5508Z" fill="black"/>
<path opacity="0.64" d="M74.7831 80.5508C74.7831 82.4514 76.3239 83.9922 78.2246 83.9922C80.1252 83.9922 81.666 82.4514 81.666 80.5508C81.666 78.6501 80.1252 77.1094 78.2246 77.1094C76.3239 77.1094 74.7831 78.6501 74.7831 80.5508Z" fill="black"/>
<path opacity="0.64" d="M87.4726 80.5508C87.4726 82.4514 89.0134 83.9922 90.914 83.9922C92.8147 83.9922 94.3555 82.4514 94.3555 80.5508C94.3555 78.6501 92.8147 77.1094 90.914 77.1094C89.0134 77.1094 87.4726 78.6501 87.4726 80.5508Z" fill="black"/>
<path opacity="0.64" d="M49.2951 3.44145C49.2951 5.3421 50.8358 6.88288 52.7364 6.88288C54.6371 6.88288 56.1779 5.3421 56.1779 3.44145C56.1779 1.5408 54.6371 -6.73504e-08 52.7364 -1.50431e-07C50.8358 -2.33511e-07 49.2951 1.5408 49.2951 3.44145Z" fill="black"/>
<path opacity="0.64" d="M61.9863 3.44145C61.9863 5.3421 63.5271 6.88288 65.4278 6.88288C67.3284 6.88288 68.8691 5.3421 68.8691 3.44145C68.8691 1.5408 67.3284 -6.73475e-08 65.4278 -1.50428e-07C63.5271 -2.33508e-07 61.9863 1.5408 61.9863 3.44145Z" fill="black"/>
<path opacity="0.64" d="M74.7831 3.44145C74.7831 5.3421 76.3239 6.88288 78.2246 6.88288C80.1252 6.88288 81.666 5.3421 81.666 3.44145C81.666 1.5408 80.1252 -6.73504e-08 78.2246 -1.50431e-07C76.3239 -2.33511e-07 74.7831 1.5408 74.7831 3.44145Z" fill="black"/>
<path opacity="0.64" d="M87.4726 3.44145C87.4726 5.3421 89.0134 6.88288 90.914 6.88288C92.8147 6.88288 94.3555 5.3421 94.3555 3.44145C94.3555 1.5408 92.8147 -6.73504e-08 90.914 -1.50431e-07C89.0134 -2.33511e-07 87.4726 1.5408 87.4726 3.44145Z" fill="black"/>
<path opacity="0.64" d="M49.2949 14.5186C49.2949 16.4192 50.8356 17.96 52.7363 17.96C54.6369 17.96 56.1777 16.4192 56.1777 14.5186C56.1777 12.6179 54.6369 11.0771 52.7363 11.0771C50.8356 11.0771 49.2949 12.6179 49.2949 14.5186Z" fill="black"/>
<path opacity="0.64" d="M61.9824 14.5186C61.9824 16.4192 63.5232 17.96 65.4238 17.96C67.3245 17.96 68.8652 16.4192 68.8652 14.5186C68.8652 12.6179 67.3245 11.0771 65.4238 11.0771C63.5232 11.0771 61.9824 12.6179 61.9824 14.5186Z" fill="black"/>
<path opacity="0.64" d="M74.7812 14.5186C74.7812 16.4192 76.322 17.96 78.2226 17.96C80.1233 17.96 81.6641 16.4192 81.6641 14.5186C81.6641 12.6179 80.1233 11.0771 78.2226 11.0771C76.322 11.0771 74.7812 12.6179 74.7812 14.5186Z" fill="black"/>
<path opacity="0.64" d="M87.4726 14.5186C87.4726 16.4192 89.0134 17.96 90.914 17.96C92.8147 17.96 94.3555 16.4192 94.3555 14.5186C94.3555 12.6179 92.8147 11.0771 90.914 11.0771C89.0134 11.0771 87.4726 12.6179 87.4726 14.5186Z" fill="black"/>
<path opacity="0.64" d="M49.2949 25.5957C49.2949 27.4964 50.8356 29.0372 52.7363 29.0372C54.6369 29.0372 56.1777 27.4964 56.1777 25.5957C56.1777 23.6951 54.6369 22.1543 52.7363 22.1543C50.8356 22.1543 49.2949 23.6951 49.2949 25.5957Z" fill="black"/>
<path opacity="0.64" d="M61.9824 25.5957C61.9824 27.4964 63.5232 29.0372 65.4238 29.0372C67.3245 29.0372 68.8652 27.4964 68.8652 25.5957C68.8652 23.6951 67.3245 22.1543 65.4238 22.1543C63.5232 22.1543 61.9824 23.6951 61.9824 25.5957Z" fill="black"/>
<path opacity="0.64" d="M74.7831 25.5957C74.7831 27.4964 76.3239 29.0372 78.2246 29.0372C80.1252 29.0372 81.666 27.4964 81.666 25.5957C81.666 23.6951 80.1252 22.1543 78.2246 22.1543C76.3239 22.1543 74.7831 23.6951 74.7831 25.5957Z" fill="black"/>
<path opacity="0.64" d="M87.4726 25.5957C87.4726 27.4964 89.0134 29.0372 90.914 29.0372C92.8147 29.0372 94.3555 27.4964 94.3555 25.5957C94.3555 23.6951 92.8147 22.1543 90.914 22.1543C89.0134 22.1543 87.4726 23.6951 87.4726 25.5957Z" fill="black"/>
<path opacity="0.64" d="M49.2951 36.6729C49.2951 38.5735 50.8358 40.1143 52.7364 40.1143C54.6371 40.1143 56.1779 38.5735 56.1779 36.6729C56.1779 34.7722 54.6371 33.2314 52.7364 33.2314C50.8358 33.2314 49.2951 34.7722 49.2951 36.6729Z" fill="black"/>
<path opacity="0.64" d="M61.9863 36.6719C61.9863 38.5726 63.5271 40.1134 65.4278 40.1134C67.3284 40.1134 68.8691 38.5726 68.8691 36.6719C68.8691 34.7713 67.3284 33.2305 65.4278 33.2305C63.5271 33.2305 61.9863 34.7713 61.9863 36.6719Z" fill="black"/>
<path opacity="0.64" d="M74.7812 36.6719C74.7812 38.5726 76.322 40.1134 78.2226 40.1134C80.1233 40.1134 81.6641 38.5726 81.6641 36.6719C81.6641 34.7713 80.1233 33.2305 78.2226 33.2305C76.322 33.2305 74.7812 34.7713 74.7812 36.6719Z" fill="black"/>
<path opacity="0.64" d="M87.4726 36.6729C87.4726 38.5735 89.0134 40.1143 90.914 40.1143C92.8147 40.1143 94.3555 38.5735 94.3555 36.6729C94.3555 34.7722 92.8147 33.2314 90.914 33.2314C89.0134 33.2314 87.4726 34.7722 87.4726 36.6729Z" fill="black"/>
</g>
<path d="M45.1738 189V149.371H5.52664V189H45.1738Z" fill="#8EC6D8"/>
<path d="M18.9355 164.54C21.1996 164.54 23.035 162.704 23.035 160.44C23.035 158.176 21.1996 156.341 18.9355 156.341C16.6714 156.341 14.8359 158.176 14.8359 160.44C14.8359 162.704 16.6714 164.54 18.9355 164.54Z" fill="#23335D"/>
<path d="M30.0039 174.925L34.2401 182.258" stroke="#EE4D4A" stroke-width="7" stroke-miterlimit="10"/>
<path d="M36.0179 176.292L28.6387 180.528" stroke="#EE4D4A" stroke-width="7" stroke-miterlimit="10"/>
<path d="M19.3454 166.817H17.3867V168.781H19.3454V166.817Z" fill="white"/>
<path d="M19.3454 169.777H17.3867V171.741H19.3454V169.777Z" fill="white"/>
<path d="M19.3454 172.829H17.3867V174.792H19.3454V172.829Z" fill="white"/>
<path d="M19.3454 175.837H17.3867V177.8H19.3454V175.837Z" fill="white"/>
<path d="M22.3981 175.837H20.4395V177.8H22.3981V175.837Z" fill="white"/>
<path d="M25.4977 175.837H23.5391V177.8H25.4977V175.837Z" fill="white"/>
</svg>
