<svg width="81" height="80" viewBox="0 0 81 80" fill="none" xmlns="http://www.w3.org/2000/svg">
<path d="M58.1975 35.7252C65.8781 35.7252 72.1045 29.501 72.1045 21.8231C72.1045 14.1452 65.8781 7.92102 58.1975 7.92102C50.5169 7.92102 44.2905 14.1452 44.2905 21.8231C44.2905 29.501 50.5169 35.7252 58.1975 35.7252Z" fill="#F1CA50"/>
<path d="M48.8544 32.1331L44.9375 36.0487C44.7578 35.8691 44.3625 35.7973 43.8594 35.8332C43.7875 35.8332 43.6797 35.8691 43.6078 35.8691C43.1048 35.941 42.5298 36.0847 41.8829 36.372C41.7751 36.408 41.6314 36.4798 41.5236 36.5516C41.272 36.6594 41.0205 36.8031 40.769 36.9468C40.6611 37.0186 40.5174 37.0905 40.3737 37.1983C40.2659 37.2701 40.1221 37.3779 39.9784 37.4856C39.7987 37.6293 39.5831 37.773 39.4034 37.9526C39.1519 38.1682 38.9003 38.4196 38.6128 38.6711C35.8458 41.4371 35.4865 44.4187 36.0614 44.9935L32.1445 48.8372C31.1023 47.6877 29.8805 46.7537 28.5509 45.9993C28.3713 45.8916 28.1916 45.7838 28.0119 45.712C27.3651 41.6886 29.1259 36.839 33.0069 32.9953C36.8879 29.1156 41.7033 27.3913 45.728 28.002C45.8358 28.1816 45.9077 28.3613 46.0155 28.5409C46.7342 29.87 47.7045 31.0914 48.8544 32.1331Z" fill="#EE4D4A"/>
<path d="M1.13196 73.444C-0.377321 74.9528 -0.377321 77.3596 1.13196 78.8684C2.64125 80.3771 5.04892 80.3771 6.5582 78.8684L14.7155 70.7139L9.28929 65.2896L1.13196 73.444Z" fill="#EE4D4A"/>
<path d="M73.4698 1.13157C74.9791 -0.377189 77.3868 -0.377189 78.8961 1.13157C80.4053 2.64032 80.4053 5.04715 78.8961 6.5559L70.7387 14.7104L65.3125 9.28604L73.4698 1.13157Z" fill="#EE4D4A"/>
<path d="M21.8306 36.7671C10.0078 36.7671 0.413086 46.3585 0.413086 58.1771C0.413086 69.9956 10.0078 79.587 21.8306 79.587C33.6533 79.587 43.248 69.9956 43.248 58.1771C43.248 46.3585 33.6533 36.7671 21.8306 36.7671ZM21.8306 72.0792C14.1404 72.0792 7.92357 65.8645 7.92357 58.1771C7.92357 50.4896 14.1404 44.2749 21.8306 44.2749C29.5207 44.2749 35.7375 50.4896 35.7375 58.1771C35.7375 65.8645 29.5207 72.0792 21.8306 72.0792Z" fill="#5C9EDC"/>
<path d="M58.1973 0.413086C46.3745 0.413086 36.7798 10.0045 36.7798 21.8231C36.7798 33.6416 46.3745 43.233 58.1973 43.233C70.02 43.233 79.6147 33.6416 79.6147 21.8231C79.5788 10.0045 70.02 0.413086 58.1973 0.413086ZM58.1973 35.7252C50.5071 35.7252 44.2903 29.5105 44.2903 21.8231C44.2903 14.1356 50.5071 7.92095 58.1973 7.92095C65.8874 7.92095 72.1042 14.1356 72.1042 21.8231C72.1042 29.5105 65.8874 35.7252 58.1973 35.7252Z" fill="#5C9EDC"/>
<path d="M21.8308 72.079C29.5114 72.079 35.7378 65.8548 35.7378 58.1769C35.7378 50.499 29.5114 44.2748 21.8308 44.2748C14.1502 44.2748 7.92383 50.499 7.92383 58.1769C7.92383 65.8548 14.1502 72.079 21.8308 72.079Z" fill="#F1CA50"/>
</svg>
