<svg width="48" height="49" viewBox="0 0 48 49" fill="none" xmlns="http://www.w3.org/2000/svg">
<g clip-path="url(#clip0_1855_14113)">
<path d="M48 12.7881V41.4461C48 43.8172 46.0771 45.7401 43.7061 45.7401H4.29394C1.92291 45.74 0 43.8171 0 41.446V12.7881C0 10.417 1.92291 8.49414 4.29394 8.49414H43.7061C46.0771 8.49414 48 10.417 48 12.7881Z" fill="#E4E4E4"/>
<path d="M7.41638 45.7401H4.29394C1.92291 45.7401 0 43.8172 0 41.4461V12.7881C0 10.417 1.92291 8.49414 4.29394 8.49414H7.41638C5.04534 8.49414 3.12244 10.417 3.12244 12.7881V41.4461C3.12244 43.8172 5.04534 45.7401 7.41638 45.7401Z" fill="#D0D0D0"/>
<path d="M48 8.21777V12.7879H0V8.21777C0 5.84673 1.92291 3.92383 4.29394 3.92383H43.7061C46.0771 3.92383 48 5.84673 48 8.21777Z" fill="#163459"/>
<path d="M7.41638 3.92383C5.04534 3.92383 3.12244 5.84673 3.12244 8.21777V12.7879H0V8.21777C0 5.84673 1.92291 3.92383 4.29394 3.92383H7.41638Z" fill="#040B15"/>
<path d="M32.211 30.4175L33.2583 25.86C33.4794 24.898 34.4384 24.2974 35.4004 24.5184L44.2436 26.5506C45.2055 26.7716 45.8062 27.7307 45.5851 28.6927L43.6225 37.2335C43.4014 38.1954 42.4423 38.7961 41.4804 38.575L36.6206 37.4583C36.0432 37.3256 35.5421 36.969 35.2276 36.4669L32.4949 32.1035C32.1805 31.6014 32.0784 30.9949 32.211 30.4175Z" fill="#F0CA50"/>
<path d="M32.211 30.4186L32.2964 30.0469C32.1348 30.7503 32.5741 31.4517 33.2775 31.6134L35.0853 32.0288C36.0472 32.2499 36.6478 33.2089 36.4268 34.1708L36.0113 35.9785C35.8497 36.6819 36.289 37.3834 36.9924 37.5451L36.6207 37.4597C36.0432 37.3269 35.5421 36.9701 35.2274 36.4682L32.4948 32.105C32.1806 31.6027 32.0783 30.9961 32.211 30.4186Z" fill="#E2BE49"/>
<path d="M43.0023 29.5738C42.9486 29.5738 42.894 29.5678 42.8394 29.5552L36.7381 28.1531C36.3482 28.0635 36.1047 27.6748 36.1943 27.2849C36.284 26.895 36.6727 26.6518 37.0626 26.7411L43.164 28.1433C43.5539 28.2329 43.7974 28.6216 43.7078 29.0115C43.6305 29.3468 43.3323 29.5738 43.0023 29.5738Z" fill="#163459"/>
<path d="M40.3786 31.6932C40.3248 31.6932 40.2703 31.6872 40.2157 31.6746L36.1443 30.7391C35.7544 30.6494 35.511 30.2608 35.6006 29.8709C35.6902 29.4809 36.0789 29.2377 36.4688 29.3271L40.5402 30.2626C40.9301 30.3523 41.1736 30.7409 41.0839 31.1309C41.0068 31.4662 40.7085 31.6932 40.3786 31.6932Z" fill="#163459"/>
<path d="M25.2537 37.8978L12.5995 42.3565C11.5016 42.7433 10.298 42.1669 9.91123 41.069L3.65942 23.3259C3.2726 22.228 3.84898 21.0244 4.94689 20.6376L17.6011 16.1789C18.699 15.7921 19.9025 16.3685 20.2894 17.4664L26.5412 35.2095C26.928 36.3074 26.3515 37.511 25.2537 37.8978Z" fill="#EE4D4A"/>
<path d="M16.9328 21.5157C16.8097 21.5157 16.6848 21.4842 16.5704 21.418C16.2242 21.2175 16.1062 20.7743 16.3067 20.4282L17.3692 18.594C17.5697 18.2478 18.0128 18.1299 18.359 18.3303C18.7052 18.5309 18.8232 18.974 18.6227 19.3201L17.5602 21.1543C17.426 21.3861 17.1828 21.5157 16.9328 21.5157Z" fill="#D0CEE7"/>
<path d="M19.0366 20.2852C18.9134 20.2852 18.7886 20.2537 18.6742 20.1875L16.5899 18.9801C16.2437 18.7796 16.1257 18.3364 16.3262 17.9903C16.5267 17.6441 16.97 17.5261 17.316 17.7266L19.4003 18.934C19.7465 19.1345 19.8645 19.5777 19.664 19.9238C19.5297 20.1556 19.2866 20.2852 19.0366 20.2852Z" fill="#1F2122"/>
<path d="M7.68936 25.4485C7.39067 25.4485 7.11102 25.2624 7.00621 24.9648C6.87327 24.5874 7.07136 24.1738 7.44861 24.0409L13.3451 21.9633C13.7225 21.8302 14.1361 22.0284 14.269 22.4058C14.402 22.783 14.2039 23.1967 13.8266 23.3297L7.93011 25.4073C7.85042 25.4352 7.76924 25.4485 7.68936 25.4485Z" fill="white"/>
<path d="M9.69522 31.2683C9.39653 31.2683 9.11688 31.0822 9.01206 30.7844C8.87913 30.4072 9.07722 29.9935 9.45456 29.8605L18.0875 26.8187C18.4651 26.6858 18.8785 26.8839 19.0114 27.2612C19.1444 27.6385 18.9463 28.0522 18.5689 28.1851L9.93597 31.2269C9.85638 31.255 9.77519 31.2683 9.69522 31.2683Z" fill="white"/>
<path d="M8.68155 28.2656C8.38286 28.2656 8.10321 28.0795 7.99839 27.7818C7.86546 27.4045 8.06355 26.9909 8.4408 26.8579L12.4099 25.4594C12.7873 25.3263 13.2009 25.5245 13.3338 25.9018C13.4667 26.2791 13.2686 26.6927 12.8914 26.8257L8.9223 28.2242C8.84261 28.2523 8.76143 28.2656 8.68155 28.2656Z" fill="white"/>
<path d="M27.1281 28.1628H22.8043C21.9081 28.1628 21.1816 27.4364 21.1816 26.5402V22.2164C21.1816 21.3202 21.9081 20.5938 22.8043 20.5938H27.1281C28.0243 20.5938 28.7507 21.3202 28.7507 22.2164V26.5402C28.7507 27.4364 28.0243 28.1628 27.1281 28.1628Z" fill="#8EC6D8"/>
<path d="M39.3607 22.1004C41.028 22.1004 42.3797 20.7488 42.3797 19.0814C42.3797 17.4141 41.028 16.0625 39.3607 16.0625C37.6934 16.0625 36.3418 17.4141 36.3418 19.0814C36.3418 20.7488 37.6934 22.1004 39.3607 22.1004Z" fill="#5C9EDC"/>
<path d="M40.1527 21.9954C39.9006 22.064 39.635 22.1007 39.3608 22.1007C37.6939 22.1007 36.3418 20.7485 36.3418 19.0815C36.3418 17.4146 37.694 16.0625 39.3608 16.0625C39.6351 16.0625 39.9007 16.0992 40.1527 16.1678C38.8701 16.5155 37.9265 17.6889 37.9265 19.0815C37.9265 20.4742 38.8702 21.6477 40.1527 21.9954Z" fill="#518CC4"/>
<path d="M30.5287 43.6514C32.196 43.6514 33.5476 42.2998 33.5476 40.6325C33.5476 38.9651 32.196 37.6135 30.5287 37.6135C28.8614 37.6135 27.5098 38.9651 27.5098 40.6325C27.5098 42.2998 28.8614 43.6514 30.5287 43.6514Z" fill="#545A5C"/>
<path d="M31.3207 43.5462C31.0686 43.6148 30.803 43.6514 30.5288 43.6514C28.8618 43.6514 27.5098 42.2993 27.5098 40.6323C27.5098 38.9653 28.8619 37.6133 30.5288 37.6133C30.8031 37.6133 31.0687 37.6499 31.3207 37.7186C30.0381 38.0663 29.0945 39.2397 29.0945 40.6323C29.0945 42.025 30.0381 43.1984 31.3207 43.5462Z" fill="black"/>
</g>
<defs>
<clipPath id="clip0_1855_14113">
<rect width="48" height="48" fill="white" transform="translate(0 0.832031)"/>
</clipPath>
</defs>
</svg>
