<svg width="244" height="487" viewBox="0 0 244 487" fill="none" xmlns="http://www.w3.org/2000/svg">
<g opacity="0.2">
<path d="M131.118 130.867C193.185 203.143 184.91 312.05 112.634 374.117C40.3576 436.185 -68.5495 427.909 -130.617 355.633C-192.684 283.357 -184.409 174.45 -112.133 112.383C-39.8565 50.3151 69.0505 58.5908 131.118 130.867Z" stroke="#545A5C" stroke-miterlimit="10"/>
<path d="M103.806 154.32C86.0739 133.672 62.6348 118.731 36.4575 111.391C10.2803 104.05 -17.4574 104.641 -43.2424 113.087C-69.0273 121.533 -91.6995 137.454 -108.387 158.835C-125.075 180.216 -135.028 206.094 -136.984 233.192C-138.941 260.289 -132.814 287.388 -119.379 311.054C-105.945 334.72 -85.8066 353.89 -61.5158 366.136C-37.225 378.381 -9.87431 383.151 17.072 379.842C44.0184 376.532 69.348 365.292 89.8529 347.545C117.257 323.826 134.112 290.175 136.727 253.96C139.343 217.744 127.505 181.916 103.806 154.32V154.32Z" stroke="#545A5C" stroke-miterlimit="10"/>
<path d="M76.4937 177.774C63.4001 162.528 46.0973 151.492 26.7781 146.066C7.45886 140.64 -13.0071 141.068 -32.0262 147.295C-51.0453 153.522 -67.7614 165.269 -80.056 181.047C-92.3506 196.824 -99.6702 215.922 -101.087 235.92C-102.505 255.918 -97.9554 275.916 -88.0163 293.379C-78.0773 310.843 -63.196 324.986 -45.2581 334.016C-27.3202 343.046 -7.13325 346.557 12.7444 344.103C32.622 341.65 51.2955 333.342 66.3985 320.234C76.4421 311.609 84.6736 301.074 90.6201 289.236C96.5667 277.397 100.111 264.487 101.049 251.249C101.987 238.011 100.301 224.704 96.0867 212.095C91.8727 199.486 85.2141 187.822 76.4937 177.774V177.774Z" stroke="#545A5C" stroke-miterlimit="10"/>
<path d="M49.1814 201.228C40.7264 191.383 29.5601 184.253 17.0989 180.741C4.63765 177.229 -8.55669 177.495 -20.81 181.504C-33.0632 185.513 -43.8231 193.084 -51.7245 203.259C-59.626 213.433 -64.3128 225.75 -65.1902 238.649C-66.0677 251.547 -63.0962 264.444 -56.6529 275.705C-50.2096 286.966 -40.5849 296.082 -28.9999 301.896C-17.415 307.711 -4.39192 309.962 8.41688 308.364C21.2257 306.767 33.243 301.392 42.9438 292.922C49.4009 287.378 54.6878 280.599 58.4995 272.979C62.3111 265.358 64.572 257.046 65.1519 248.521C65.7318 239.997 64.6191 231.429 61.8781 223.312C59.137 215.195 54.8218 207.689 49.1814 201.228Z" stroke="#545A5C" stroke-miterlimit="10"/>
</g>
<path d="M111.209 300.112C111.209 300.112 123.976 303.988 129.747 297.155C129.747 297.155 126.749 307.15 133.676 315.167C133.676 315.167 125.388 312.088 115.505 317.966C115.505 317.966 120.135 311.515 111.209 300.112Z" fill="#8EC6D8"/>
<path d="M89.6402 149.613C89.6402 149.613 85.266 137.234 76.504 136.758C76.504 136.758 86.1494 133.16 88.4496 122.915C88.4496 122.915 90.845 131.288 101.247 135.575C101.247 135.575 93.4519 135.772 89.6402 149.613Z" fill="#EE4D4A"/>
<path d="M162.125 307.476L154.389 300.23L161.634 292.494L169.37 299.74L162.125 307.476Z" fill="#F0CA50"/>
</svg>
