<svg width="80" height="80" viewBox="0 0 80 80" fill="none" xmlns="http://www.w3.org/2000/svg">
<path d="M26.1316 26.1322C26.2045 26.1322 30.8696 23.2164 33.6396 21.6128C33.7125 21.5764 33.9311 21.7221 34.004 21.6857C34.0405 18.2597 31.6715 15.1982 28.3184 14.3964C24.8195 13.5581 21.3936 15.344 19.9357 18.4055C18.9881 20.3736 17.3115 21.9044 15.1976 22.4511C14.7603 22.5604 14.3229 22.6333 13.922 22.7062C12.1726 22.8884 11.2979 24.9294 12.3184 26.3508C14.3594 29.1937 17.9311 32.0001 23.3617 29.9226C24.5644 28.2096 26.0587 26.1322 26.1316 26.1322Z" fill="#163459"/>
<path d="M64.8745 45.4851C64.8745 31.7812 53.7219 20.665 40.0544 20.665C26.387 20.665 15.2344 31.8177 15.2344 45.4851H64.8745Z" fill="#163459"/>
<path d="M60.7203 52.0821C63.6993 52.0821 66.1143 49.6671 66.1143 46.688C66.1143 43.709 63.6993 41.2939 60.7203 41.2939C57.7412 41.2939 55.3262 43.709 55.3262 46.688C55.3262 49.6671 57.7412 52.0821 60.7203 52.0821Z" fill="#EEB098"/>
<path d="M19.4615 52.0821C22.4405 52.0821 24.8555 49.6671 24.8555 46.688C24.8555 43.709 22.4405 41.2939 19.4615 41.2939C16.4824 41.2939 14.0674 43.709 14.0674 46.688C14.0674 49.6671 16.4824 52.0821 19.4615 52.0821Z" fill="#EEB098"/>
<path d="M22.6325 35.0251C23.981 32.7654 26.423 31.3804 29.0471 31.344C31.7077 31.3075 34.7328 31.8542 37.5756 33.7494C39.0699 34.7335 41.0015 34.7335 42.4959 33.7494C45.3387 31.8542 48.3637 31.3075 51.0243 31.344C53.6849 31.3804 56.1268 32.8383 57.4754 35.1344C59.2977 38.1959 60.3546 41.7677 60.3182 45.5946C60.2817 56.6743 51.243 65.713 40.1633 65.7859C28.9013 65.8588 19.7168 56.7472 19.7168 45.4852C19.7532 41.6583 20.8102 38.0866 22.6325 35.0251Z" fill="#EEB098"/>
<path d="M16.0729 0H4.04556C1.78588 0 0 1.82233 0 4.04556V16.0729C0 17.2756 0.984055 18.2597 2.18679 18.2597H5.02962C6.23235 18.2597 7.21641 17.2756 7.21641 16.0729V7.25285H16.0729C17.2756 7.25285 18.2597 6.26879 18.2597 5.06606V2.22324C18.2597 0.984058 17.2756 0 16.0729 0Z" fill="#F1CA50"/>
<path d="M63.8538 0H75.8811C78.1408 0 79.9267 1.82233 79.9267 4.04556V16.0729C79.9267 17.2756 78.9426 18.2597 77.7399 18.2597H74.8971C73.6943 18.2597 72.7103 17.2756 72.7103 16.0729V7.25285H63.8538C62.651 7.25285 61.667 6.26879 61.667 5.06606V2.22324C61.667 0.984058 62.651 0 63.8538 0Z" fill="#F1CA50"/>
<path d="M16.0729 79.9999H4.04556C1.78588 79.9999 0 78.1776 0 75.9544V63.927C0 62.7243 0.984055 61.7402 2.18679 61.7402H5.02962C6.23235 61.7402 7.21641 62.7243 7.21641 63.927V72.7835H16.0729C17.2756 72.7835 18.2597 73.7676 18.2597 74.9703V77.8131C18.2597 79.0159 17.2756 79.9999 16.0729 79.9999Z" fill="#F1CA50"/>
<path d="M63.8538 79.9999H75.8811C78.1408 79.9999 79.9267 78.1776 79.9267 75.9544V63.927C79.9267 62.7243 78.9426 61.7402 77.7399 61.7402H74.8971C73.6943 61.7402 72.7103 62.7243 72.7103 63.927V72.7835H63.8538C62.651 72.7835 61.667 73.7676 61.667 74.9703V77.8131C61.667 79.0159 62.651 79.9999 63.8538 79.9999Z" fill="#F1CA50"/>
</svg>
