<svg width="169" height="231" viewBox="0 0 169 231" fill="none" xmlns="http://www.w3.org/2000/svg">
<g opacity="0.05">
<path opacity="0.64" d="M-0.000133717 181.395C-0.000133829 183.955 2.07562 186.031 4.63616 186.031C7.19671 186.031 9.27246 183.955 9.27246 181.395C9.27246 178.834 7.19671 176.759 4.63616 176.759C2.07562 176.759 -0.000133605 178.834 -0.000133717 181.395Z" fill="black"/>
<path opacity="0.64" d="M17.0966 181.395C17.0966 183.955 19.1723 186.031 21.7328 186.031C24.2934 186.031 26.3691 183.955 26.3691 181.395C26.3691 178.834 24.2934 176.759 21.7328 176.759C19.1723 176.759 17.0966 178.834 17.0966 181.395Z" fill="black"/>
<path opacity="0.64" d="M34.1933 181.395C34.1933 183.955 36.2691 186.031 38.8296 186.031C41.3902 186.031 43.4658 183.955 43.4658 181.395C43.4658 178.834 41.3902 176.759 38.8296 176.759C36.2691 176.759 34.1933 178.834 34.1933 181.395Z" fill="black"/>
<path opacity="0.64" d="M51.4344 181.395C51.4344 183.955 53.5102 186.031 56.0707 186.031C58.6313 186.031 60.707 183.955 60.707 181.395C60.707 178.834 58.6313 176.759 56.0707 176.759C53.5102 176.759 51.4344 178.834 51.4344 181.395Z" fill="black"/>
<path opacity="0.64" d="M-0.000133717 196.318C-0.000133829 198.878 2.07562 200.954 4.63616 200.954C7.19671 200.954 9.27246 198.878 9.27246 196.318C9.27246 193.757 7.19671 191.682 4.63616 191.682C2.07562 191.682 -0.000133605 193.757 -0.000133717 196.318Z" fill="black"/>
<path opacity="0.64" d="M17.0966 196.318C17.0966 198.878 19.1723 200.954 21.7328 200.954C24.2934 200.954 26.3691 198.878 26.3691 196.318C26.3691 193.757 24.2934 191.682 21.7328 191.682C19.1723 191.682 17.0966 193.757 17.0966 196.318Z" fill="black"/>
<path opacity="0.64" d="M34.1933 196.318C34.1933 198.878 36.2691 200.954 38.8296 200.954C41.3902 200.954 43.4658 198.878 43.4658 196.318C43.4658 193.757 41.3902 191.682 38.8296 191.682C36.2691 191.682 34.1933 193.757 34.1933 196.318Z" fill="black"/>
<path opacity="0.64" d="M51.4344 196.318C51.4344 198.878 53.5102 200.954 56.0707 200.954C58.6313 200.954 60.707 198.878 60.707 196.318C60.707 193.757 58.6313 191.682 56.0707 191.682C53.5102 191.682 51.4344 193.757 51.4344 196.318Z" fill="black"/>
<path opacity="0.64" d="M-0.000133717 211.241C-0.000133829 213.801 2.07562 215.877 4.63616 215.877C7.19671 215.877 9.27246 213.801 9.27246 211.241C9.27246 208.68 7.19671 206.604 4.63616 206.604C2.07562 206.604 -0.000133605 208.68 -0.000133717 211.241Z" fill="black"/>
<path opacity="0.64" d="M17.0966 211.241C17.0966 213.801 19.1723 215.877 21.7328 215.877C24.2934 215.877 26.3691 213.801 26.3691 211.241C26.3691 208.68 24.2934 206.604 21.7328 206.604C19.1723 206.604 17.0966 208.68 17.0966 211.241Z" fill="black"/>
<path opacity="0.64" d="M34.1933 211.241C34.1933 213.801 36.2691 215.877 38.8296 215.877C41.3902 215.877 43.4658 213.801 43.4658 211.241C43.4658 208.68 41.3902 206.604 38.8296 206.604C36.2691 206.604 34.1933 208.68 34.1933 211.241Z" fill="black"/>
<path opacity="0.64" d="M51.4335 211.241C51.4335 213.801 53.5092 215.877 56.0698 215.877C58.6303 215.877 60.7061 213.801 60.7061 211.241C60.7061 208.68 58.6303 206.604 56.0698 206.604C53.5092 206.604 51.4335 208.68 51.4335 211.241Z" fill="black"/>
<path opacity="0.64" d="M-0.000133717 226.164C-0.000133829 228.724 2.07562 230.8 4.63616 230.8C7.19671 230.8 9.27246 228.724 9.27246 226.164C9.27246 223.603 7.19671 221.527 4.63616 221.527C2.07562 221.527 -0.000133605 223.603 -0.000133717 226.164Z" fill="black"/>
<path opacity="0.64" d="M17.0966 226.164C17.0966 228.724 19.1723 230.8 21.7328 230.8C24.2934 230.8 26.3691 228.724 26.3691 226.164C26.3691 223.603 24.2934 221.527 21.7328 221.527C19.1723 221.527 17.0966 223.603 17.0966 226.164Z" fill="black"/>
<path opacity="0.64" d="M34.1933 226.164C34.1933 228.724 36.2691 230.8 38.8296 230.8C41.3902 230.8 43.4658 228.724 43.4658 226.164C43.4658 223.603 41.3902 221.527 38.8296 221.527C36.2691 221.527 34.1933 223.603 34.1933 226.164Z" fill="black"/>
<path opacity="0.64" d="M51.4335 226.164C51.4335 228.724 53.5092 230.8 56.0698 230.8C58.6303 230.8 60.7061 228.724 60.7061 226.164C60.7061 223.603 58.6303 221.527 56.0698 221.527C53.5092 221.527 51.4335 223.603 51.4335 226.164Z" fill="black"/>
<path opacity="0.64" d="M0.000842845 122.282C0.000842734 124.843 2.07659 126.919 4.63714 126.919C7.19769 126.919 9.27344 124.843 9.27344 122.282C9.27344 119.722 7.19769 117.646 4.63714 117.646C2.07659 117.646 0.000842957 119.722 0.000842845 122.282Z" fill="black"/>
<path opacity="0.64" d="M17.0966 122.282C17.0966 124.843 19.1723 126.919 21.7328 126.919C24.2934 126.919 26.3691 124.843 26.3691 122.282C26.3691 119.722 24.2934 117.646 21.7328 117.646C19.1723 117.646 17.0966 119.722 17.0966 122.282Z" fill="black"/>
<path opacity="0.64" d="M34.1933 122.282C34.1933 124.843 36.2691 126.919 38.8296 126.919C41.3902 126.919 43.4658 124.843 43.4658 122.282C43.4658 119.722 41.3902 117.646 38.8296 117.646C36.2691 117.646 34.1933 119.722 34.1933 122.282Z" fill="black"/>
<path opacity="0.64" d="M51.4344 122.282C51.4344 124.843 53.5102 126.919 56.0707 126.919C58.6313 126.919 60.707 124.843 60.707 122.282C60.707 119.722 58.6313 117.646 56.0707 117.646C53.5102 117.646 51.4344 119.722 51.4344 122.282Z" fill="black"/>
<path opacity="0.64" d="M0.000842845 137.205C0.000842734 139.766 2.07659 141.842 4.63714 141.842C7.19769 141.842 9.27344 139.766 9.27344 137.205C9.27344 134.645 7.19769 132.569 4.63714 132.569C2.07659 132.569 0.000842957 134.645 0.000842845 137.205Z" fill="black"/>
<path opacity="0.64" d="M17.0966 137.205C17.0966 139.766 19.1723 141.842 21.7328 141.842C24.2934 141.842 26.3691 139.766 26.3691 137.205C26.3691 134.645 24.2934 132.569 21.7328 132.569C19.1723 132.569 17.0966 134.645 17.0966 137.205Z" fill="black"/>
<path opacity="0.64" d="M34.1933 137.205C34.1933 139.766 36.2691 141.842 38.8296 141.842C41.3902 141.842 43.4658 139.766 43.4658 137.205C43.4658 134.645 41.3902 132.569 38.8296 132.569C36.2691 132.569 34.1933 134.645 34.1933 137.205Z" fill="black"/>
<path opacity="0.64" d="M51.4344 137.205C51.4344 139.766 53.5102 141.842 56.0707 141.842C58.6313 141.842 60.707 139.766 60.707 137.205C60.707 134.645 58.6313 132.569 56.0707 132.569C53.5102 132.569 51.4344 134.645 51.4344 137.205Z" fill="black"/>
<path opacity="0.64" d="M0.000842845 151.983C0.000842734 154.544 2.07659 156.62 4.63714 156.62C7.19769 156.62 9.27344 154.544 9.27344 151.983C9.27344 149.423 7.19769 147.347 4.63714 147.347C2.07659 147.347 0.000842957 149.423 0.000842845 151.983Z" fill="black"/>
<path opacity="0.64" d="M17.0966 151.983C17.0966 154.544 19.1723 156.62 21.7328 156.62C24.2934 156.62 26.3691 154.544 26.3691 151.983C26.3691 149.423 24.2934 147.347 21.7328 147.347C19.1723 147.347 17.0966 149.423 17.0966 151.983Z" fill="black"/>
<path opacity="0.64" d="M34.1933 151.983C34.1933 154.544 36.2691 156.619 38.8296 156.619C41.3902 156.619 43.4658 154.544 43.4658 151.983C43.4658 149.423 41.3902 147.347 38.8296 147.347C36.2691 147.347 34.1933 149.423 34.1933 151.983Z" fill="black"/>
<path opacity="0.64" d="M51.4344 151.983C51.4344 154.544 53.5102 156.619 56.0707 156.619C58.6313 156.619 60.707 154.544 60.707 151.983C60.707 149.423 58.6313 147.347 56.0707 147.347C53.5102 147.347 51.4344 149.423 51.4344 151.983Z" fill="black"/>
<path opacity="0.64" d="M0.000842845 166.907C0.000842734 169.467 2.07659 171.543 4.63714 171.543C7.19769 171.543 9.27344 169.467 9.27344 166.907C9.27344 164.346 7.19769 162.27 4.63714 162.27C2.07659 162.27 0.000842957 164.346 0.000842845 166.907Z" fill="black"/>
<path opacity="0.64" d="M17.0966 166.907C17.0966 169.467 19.1723 171.543 21.7328 171.543C24.2934 171.543 26.3691 169.467 26.3691 166.907C26.3691 164.346 24.2934 162.27 21.7328 162.27C19.1723 162.27 17.0966 164.346 17.0966 166.907Z" fill="black"/>
<path opacity="0.64" d="M34.1933 166.906C34.1933 169.467 36.2691 171.543 38.8296 171.543C41.3902 171.543 43.4658 169.467 43.4658 166.906C43.4658 164.346 41.3902 162.27 38.8296 162.27C36.2691 162.27 34.1933 164.346 34.1933 166.906Z" fill="black"/>
<path opacity="0.64" d="M51.4344 166.906C51.4344 169.467 53.5102 171.543 56.0707 171.543C58.6313 171.543 60.707 169.467 60.707 166.906C60.707 164.346 58.6313 162.27 56.0707 162.27C53.5102 162.27 51.4344 164.346 51.4344 166.906Z" fill="black"/>
<path opacity="0.64" d="M66.3574 181.395C66.3574 183.955 68.433 186.031 70.9936 186.031C73.5541 186.031 75.6299 183.955 75.6299 181.395C75.6299 178.834 73.5541 176.759 70.9936 176.759C68.433 176.759 66.3574 178.834 66.3574 181.395Z" fill="black"/>
<path opacity="0.64" d="M83.4541 181.395C83.4541 183.955 85.5298 186.031 88.0904 186.031C90.6509 186.031 92.7266 183.955 92.7266 181.395C92.7266 178.834 90.6509 176.759 88.0904 176.759C85.5298 176.759 83.4541 178.834 83.4541 181.395Z" fill="black"/>
<path opacity="0.64" d="M100.694 181.395C100.694 183.955 102.77 186.031 105.33 186.031C107.891 186.031 109.967 183.955 109.967 181.395C109.967 178.834 107.891 176.759 105.33 176.759C102.77 176.759 100.694 178.834 100.694 181.395Z" fill="black"/>
<path opacity="0.64" d="M117.791 181.395C117.791 183.955 119.867 186.031 122.427 186.031C124.988 186.031 127.063 183.955 127.063 181.395C127.063 178.834 124.988 176.759 122.427 176.759C119.867 176.759 117.791 178.834 117.791 181.395Z" fill="black"/>
<path opacity="0.64" d="M66.3574 196.318C66.3574 198.878 68.433 200.954 70.9936 200.954C73.5541 200.954 75.6299 198.878 75.6299 196.318C75.6299 193.757 73.5541 191.682 70.9936 191.682C68.433 191.682 66.3574 193.757 66.3574 196.318Z" fill="black"/>
<path opacity="0.64" d="M83.4541 196.318C83.4541 198.878 85.5298 200.954 88.0904 200.954C90.6509 200.954 92.7266 198.878 92.7266 196.318C92.7266 193.757 90.6509 191.682 88.0904 191.682C85.5298 191.682 83.4541 193.757 83.4541 196.318Z" fill="black"/>
<path opacity="0.64" d="M100.694 196.318C100.694 198.878 102.77 200.954 105.33 200.954C107.891 200.954 109.967 198.878 109.967 196.318C109.967 193.757 107.891 191.682 105.33 191.682C102.77 191.682 100.694 193.757 100.694 196.318Z" fill="black"/>
<path opacity="0.64" d="M117.791 196.318C117.791 198.878 119.867 200.954 122.427 200.954C124.988 200.954 127.063 198.878 127.063 196.318C127.063 193.757 124.988 191.682 122.427 191.682C119.867 191.682 117.791 193.757 117.791 196.318Z" fill="black"/>
<path opacity="0.64" d="M66.3574 211.241C66.3574 213.801 68.433 215.877 70.9936 215.877C73.5541 215.877 75.6299 213.801 75.6299 211.241C75.6299 208.68 73.5541 206.604 70.9936 206.604C68.433 206.604 66.3574 208.68 66.3574 211.241Z" fill="black"/>
<path opacity="0.64" d="M83.4531 211.241C83.4531 213.801 85.5288 215.877 88.0894 215.877C90.6499 215.877 92.7256 213.801 92.7256 211.241C92.7256 208.68 90.6499 206.604 88.0894 206.604C85.5288 206.604 83.4531 208.68 83.4531 211.241Z" fill="black"/>
<path opacity="0.64" d="M100.694 211.241C100.694 213.801 102.77 215.877 105.33 215.877C107.891 215.877 109.967 213.801 109.967 211.241C109.967 208.68 107.891 206.604 105.33 206.604C102.77 206.604 100.694 208.68 100.694 211.241Z" fill="black"/>
<path opacity="0.64" d="M117.791 211.241C117.791 213.801 119.867 215.877 122.427 215.877C124.988 215.877 127.063 213.801 127.063 211.241C127.063 208.68 124.988 206.604 122.427 206.604C119.867 206.604 117.791 208.68 117.791 211.241Z" fill="black"/>
<path opacity="0.64" d="M66.3574 226.164C66.3574 228.724 68.433 230.8 70.9936 230.8C73.5541 230.8 75.6299 228.724 75.6299 226.164C75.6299 223.603 73.5541 221.527 70.9936 221.527C68.433 221.527 66.3574 223.603 66.3574 226.164Z" fill="black"/>
<path opacity="0.64" d="M83.4541 226.164C83.4541 228.724 85.5298 230.8 88.0904 230.8C90.6509 230.8 92.7266 228.724 92.7266 226.164C92.7266 223.603 90.6509 221.527 88.0904 221.527C85.5298 221.527 83.4541 223.603 83.4541 226.164Z" fill="black"/>
<path opacity="0.64" d="M100.694 226.164C100.694 228.724 102.77 230.8 105.33 230.8C107.891 230.8 109.967 228.724 109.967 226.164C109.967 223.603 107.891 221.527 105.33 221.527C102.77 221.527 100.694 223.603 100.694 226.164Z" fill="black"/>
<path opacity="0.64" d="M117.791 226.164C117.791 228.724 119.867 230.8 122.427 230.8C124.988 230.8 127.063 228.724 127.063 226.164C127.063 223.603 124.988 221.527 122.427 221.527C119.867 221.527 117.791 223.603 117.791 226.164Z" fill="black"/>
<path opacity="0.64" d="M66.3574 122.282C66.3574 124.843 68.433 126.919 70.9936 126.919C73.5541 126.919 75.6299 124.843 75.6299 122.282C75.6299 119.722 73.5541 117.646 70.9936 117.646C68.433 117.646 66.3574 119.722 66.3574 122.282Z" fill="black"/>
<path opacity="0.64" d="M83.4531 122.282C83.4531 124.843 85.5288 126.919 88.0894 126.919C90.6499 126.919 92.7256 124.843 92.7256 122.282C92.7256 119.722 90.6499 117.646 88.0894 117.646C85.5288 117.646 83.4531 119.722 83.4531 122.282Z" fill="black"/>
<path opacity="0.64" d="M100.694 122.282C100.694 124.843 102.77 126.919 105.33 126.919C107.891 126.919 109.967 124.843 109.967 122.282C109.967 119.722 107.891 117.646 105.33 117.646C102.77 117.646 100.694 119.722 100.694 122.282Z" fill="black"/>
<path opacity="0.64" d="M117.791 122.282C117.791 124.843 119.867 126.919 122.427 126.919C124.988 126.919 127.063 124.843 127.063 122.282C127.063 119.722 124.988 117.646 122.427 117.646C119.867 117.646 117.791 119.722 117.791 122.282Z" fill="black"/>
<path opacity="0.64" d="M66.3574 137.205C66.3574 139.766 68.433 141.842 70.9936 141.842C73.5541 141.842 75.6299 139.766 75.6299 137.205C75.6299 134.645 73.5541 132.569 70.9936 132.569C68.433 132.569 66.3574 134.645 66.3574 137.205Z" fill="black"/>
<path opacity="0.64" d="M83.4541 137.205C83.4541 139.766 85.5298 141.842 88.0904 141.842C90.6509 141.842 92.7266 139.766 92.7266 137.205C92.7266 134.645 90.6509 132.569 88.0904 132.569C85.5298 132.569 83.4541 134.645 83.4541 137.205Z" fill="black"/>
<path opacity="0.64" d="M100.694 137.205C100.694 139.766 102.77 141.842 105.33 141.842C107.891 141.842 109.967 139.766 109.967 137.205C109.967 134.645 107.891 132.569 105.33 132.569C102.77 132.569 100.694 134.645 100.694 137.205Z" fill="black"/>
<path opacity="0.64" d="M117.791 137.205C117.791 139.766 119.867 141.842 122.427 141.842C124.988 141.842 127.063 139.766 127.063 137.205C127.063 134.645 124.988 132.569 122.427 132.569C119.867 132.569 117.791 134.645 117.791 137.205Z" fill="black"/>
<path opacity="0.64" d="M66.3574 151.983C66.3574 154.544 68.433 156.619 70.9936 156.619C73.5541 156.619 75.6299 154.544 75.6299 151.983C75.6299 149.423 73.5541 147.347 70.9936 147.347C68.433 147.347 66.3574 149.423 66.3574 151.983Z" fill="black"/>
<path opacity="0.64" d="M83.4541 151.983C83.4541 154.544 85.5298 156.619 88.0904 156.619C90.6509 156.619 92.7266 154.544 92.7266 151.983C92.7266 149.423 90.6509 147.347 88.0904 147.347C85.5298 147.347 83.4541 149.423 83.4541 151.983Z" fill="black"/>
<path opacity="0.64" d="M100.694 151.983C100.694 154.544 102.77 156.619 105.33 156.619C107.891 156.619 109.967 154.544 109.967 151.983C109.967 149.423 107.891 147.347 105.33 147.347C102.77 147.347 100.694 149.423 100.694 151.983Z" fill="black"/>
<path opacity="0.64" d="M117.791 151.983C117.791 154.544 119.867 156.62 122.427 156.62C124.988 156.62 127.063 154.544 127.063 151.983C127.063 149.423 124.988 147.347 122.427 147.347C119.867 147.347 117.791 149.423 117.791 151.983Z" fill="black"/>
<path opacity="0.64" d="M66.3574 166.906C66.3574 169.467 68.433 171.543 70.9936 171.543C73.5541 171.543 75.6299 169.467 75.6299 166.906C75.6299 164.346 73.5541 162.27 70.9936 162.27C68.433 162.27 66.3574 164.346 66.3574 166.906Z" fill="black"/>
<path opacity="0.64" d="M83.4541 166.906C83.4541 169.467 85.5298 171.543 88.0904 171.543C90.6509 171.543 92.7266 169.467 92.7266 166.906C92.7266 164.346 90.6509 162.27 88.0904 162.27C85.5298 162.27 83.4541 164.346 83.4541 166.906Z" fill="black"/>
<path opacity="0.64" d="M100.694 166.906C100.694 169.467 102.77 171.543 105.33 171.543C107.891 171.543 109.967 169.467 109.967 166.906C109.967 164.346 107.891 162.27 105.33 162.27C102.77 162.27 100.694 164.346 100.694 166.906Z" fill="black"/>
<path opacity="0.64" d="M117.791 166.906C117.791 169.467 119.867 171.543 122.427 171.543C124.988 171.543 127.063 169.467 127.063 166.906C127.063 164.346 124.988 162.27 122.427 162.27C119.867 162.27 117.791 164.346 117.791 166.906Z" fill="black"/>
<path opacity="0.64" d="M-0.000133717 63.8936C-0.000133829 66.4542 2.07562 68.5299 4.63616 68.5299C7.19671 68.5299 9.27246 66.4542 9.27246 63.8936C9.27246 61.3331 7.19671 59.2573 4.63616 59.2573C2.07562 59.2573 -0.000133605 61.3331 -0.000133717 63.8936Z" fill="black"/>
<path opacity="0.64" d="M17.0966 63.8936C17.0966 66.4542 19.1723 68.5299 21.7328 68.5299C24.2934 68.5299 26.3691 66.4542 26.3691 63.8936C26.3691 61.3331 24.2934 59.2573 21.7328 59.2573C19.1723 59.2573 17.0966 61.3331 17.0966 63.8936Z" fill="black"/>
<path opacity="0.64" d="M34.1933 63.8936C34.1933 66.4542 36.2691 68.5299 38.8296 68.5299C41.3902 68.5299 43.4658 66.4542 43.4658 63.8936C43.4658 61.3331 41.3902 59.2573 38.8296 59.2573C36.2691 59.2573 34.1933 61.3331 34.1933 63.8936Z" fill="black"/>
<path opacity="0.64" d="M51.4344 63.8936C51.4344 66.4542 53.5102 68.5299 56.0707 68.5299C58.6313 68.5299 60.707 66.4542 60.707 63.8936C60.707 61.3331 58.6313 59.2573 56.0707 59.2573C53.5102 59.2573 51.4344 61.3331 51.4344 63.8936Z" fill="black"/>
<path opacity="0.64" d="M-0.000133717 78.6719C-0.000133829 81.2325 2.07562 83.3082 4.63616 83.3082C7.19671 83.3082 9.27246 81.2325 9.27246 78.6719C9.27246 76.1114 7.19671 74.0356 4.63616 74.0356C2.07562 74.0356 -0.000133605 76.1114 -0.000133717 78.6719Z" fill="black"/>
<path opacity="0.64" d="M17.0966 78.6719C17.0966 81.2325 19.1723 83.3082 21.7328 83.3082C24.2934 83.3082 26.3691 81.2325 26.3691 78.6719C26.3691 76.1114 24.2934 74.0356 21.7328 74.0356C19.1723 74.0356 17.0966 76.1114 17.0966 78.6719Z" fill="black"/>
<path opacity="0.64" d="M34.1933 78.6719C34.1933 81.2325 36.2691 83.3082 38.8296 83.3082C41.3902 83.3082 43.4658 81.2325 43.4658 78.6719C43.4658 76.1114 41.3902 74.0356 38.8296 74.0356C36.2691 74.0356 34.1933 76.1114 34.1933 78.6719Z" fill="black"/>
<path opacity="0.64" d="M51.4335 78.6719C51.4335 81.2325 53.5092 83.3082 56.0698 83.3082C58.6303 83.3082 60.7061 81.2325 60.7061 78.6719C60.7061 76.1114 58.6303 74.0356 56.0698 74.0356C53.5092 74.0356 51.4335 76.1114 51.4335 78.6719Z" fill="black"/>
<path opacity="0.64" d="M-0.000133717 93.5948C-0.000133829 96.1553 2.07562 98.2311 4.63616 98.2311C7.19671 98.2311 9.27246 96.1553 9.27246 93.5948C9.27246 91.0342 7.19671 88.9585 4.63616 88.9585C2.07562 88.9585 -0.000133605 91.0342 -0.000133717 93.5948Z" fill="black"/>
<path opacity="0.64" d="M17.0966 93.5948C17.0966 96.1553 19.1723 98.2311 21.7328 98.2311C24.2934 98.2311 26.3691 96.1553 26.3691 93.5948C26.3691 91.0342 24.2934 88.9585 21.7328 88.9585C19.1723 88.9585 17.0966 91.0342 17.0966 93.5948Z" fill="black"/>
<path opacity="0.64" d="M34.1933 93.5948C34.1933 96.1553 36.2691 98.2311 38.8296 98.2311C41.3902 98.2311 43.4658 96.1553 43.4658 93.5948C43.4658 91.0342 41.3902 88.9585 38.8296 88.9585C36.2691 88.9585 34.1933 91.0342 34.1933 93.5948Z" fill="black"/>
<path opacity="0.64" d="M51.4344 93.5948C51.4344 96.1553 53.5102 98.2311 56.0707 98.2311C58.6313 98.2311 60.707 96.1553 60.707 93.5948C60.707 91.0342 58.6313 88.9585 56.0707 88.9585C53.5102 88.9585 51.4344 91.0342 51.4344 93.5948Z" fill="black"/>
<path opacity="0.64" d="M-0.000133717 108.518C-0.000133829 111.078 2.07562 113.154 4.63616 113.154C7.19671 113.154 9.27246 111.078 9.27246 108.518C9.27246 105.957 7.19671 103.882 4.63616 103.882C2.07562 103.882 -0.000133605 105.957 -0.000133717 108.518Z" fill="black"/>
<path opacity="0.64" d="M17.0966 108.518C17.0966 111.078 19.1723 113.154 21.7328 113.154C24.2934 113.154 26.3691 111.078 26.3691 108.518C26.3691 105.957 24.2934 103.882 21.7328 103.882C19.1723 103.882 17.0966 105.957 17.0966 108.518Z" fill="black"/>
<path opacity="0.64" d="M34.1933 108.518C34.1933 111.078 36.2691 113.154 38.8296 113.154C41.3902 113.154 43.4658 111.078 43.4658 108.518C43.4658 105.957 41.3902 103.882 38.8296 103.882C36.2691 103.882 34.1933 105.957 34.1933 108.518Z" fill="black"/>
<path opacity="0.64" d="M51.4344 108.518C51.4344 111.078 53.5102 113.154 56.0707 113.154C58.6313 113.154 60.707 111.078 60.707 108.518C60.707 105.957 58.6313 103.882 56.0707 103.882C53.5102 103.882 51.4344 105.957 51.4344 108.518Z" fill="black"/>
<path opacity="0.64" d="M-0.000133717 4.6363C-0.000133829 7.19684 2.07562 9.27257 4.63616 9.27257C7.19671 9.27257 9.27246 7.19684 9.27246 4.6363C9.27246 2.07575 7.19671 -9.0734e-08 4.63616 -2.02659e-07C2.07562 -3.14584e-07 -0.000133605 2.07575 -0.000133717 4.6363Z" fill="black"/>
<path opacity="0.64" d="M17.0966 4.6363C17.0966 7.19684 19.1723 9.27257 21.7328 9.27257C24.2934 9.27257 26.3691 7.19684 26.3691 4.6363C26.3691 2.07575 24.2934 -9.0734e-08 21.7328 -2.02659e-07C19.1723 -3.14584e-07 17.0966 2.07575 17.0966 4.6363Z" fill="black"/>
<path opacity="0.64" d="M34.1933 4.6363C34.1933 7.19684 36.2691 9.27257 38.8296 9.27257C41.3902 9.27257 43.4658 7.19684 43.4658 4.6363C43.4658 2.07575 41.3902 -9.07301e-08 38.8296 -2.02655e-07C36.2691 -3.1458e-07 34.1933 2.07575 34.1933 4.6363Z" fill="black"/>
<path opacity="0.64" d="M51.4344 4.6363C51.4344 7.19684 53.5102 9.27257 56.0707 9.27257C58.6313 9.27257 60.707 7.19684 60.707 4.6363C60.707 2.07575 58.6313 -9.0734e-08 56.0707 -2.02659e-07C53.5102 -3.14584e-07 51.4344 2.07575 51.4344 4.6363Z" fill="black"/>
<path opacity="0.64" d="M-0.000133717 19.5594C-0.000133829 22.1199 2.07562 24.1957 4.63616 24.1957C7.19671 24.1957 9.27246 22.1199 9.27246 19.5594C9.27246 16.9988 7.19671 14.9231 4.63616 14.9231C2.07562 14.9231 -0.000133605 16.9988 -0.000133717 19.5594Z" fill="black"/>
<path opacity="0.64" d="M17.0966 19.5594C17.0966 22.1199 19.1723 24.1957 21.7328 24.1957C24.2934 24.1957 26.3691 22.1199 26.3691 19.5594C26.3691 16.9988 24.2934 14.9231 21.7328 14.9231C19.1723 14.9231 17.0966 16.9988 17.0966 19.5594Z" fill="black"/>
<path opacity="0.64" d="M34.1933 19.5594C34.1933 22.1199 36.2691 24.1957 38.8296 24.1957C41.3902 24.1957 43.4658 22.1199 43.4658 19.5594C43.4658 16.9988 41.3902 14.9231 38.8296 14.9231C36.2691 14.9231 34.1933 16.9988 34.1933 19.5594Z" fill="black"/>
<path opacity="0.64" d="M51.4344 19.5594C51.4344 22.1199 53.5102 24.1957 56.0707 24.1957C58.6313 24.1957 60.707 22.1199 60.707 19.5594C60.707 16.9988 58.6313 14.9231 56.0707 14.9231C53.5102 14.9231 51.4344 16.9988 51.4344 19.5594Z" fill="black"/>
<path opacity="0.64" d="M-0.000133717 34.4825C-0.000133829 37.043 2.07562 39.1187 4.63616 39.1187C7.19671 39.1187 9.27246 37.043 9.27246 34.4825C9.27246 31.9219 7.19671 29.8462 4.63616 29.8462C2.07562 29.8462 -0.000133605 31.9219 -0.000133717 34.4825Z" fill="black"/>
<path opacity="0.64" d="M17.0966 34.4825C17.0966 37.043 19.1723 39.1187 21.7328 39.1187C24.2934 39.1187 26.3691 37.043 26.3691 34.4825C26.3691 31.9219 24.2934 29.8462 21.7328 29.8462C19.1723 29.8462 17.0966 31.9219 17.0966 34.4825Z" fill="black"/>
<path opacity="0.64" d="M34.1933 34.4825C34.1933 37.043 36.2691 39.1187 38.8296 39.1187C41.3902 39.1187 43.4658 37.043 43.4658 34.4825C43.4658 31.9219 41.3902 29.8462 38.8296 29.8462C36.2691 29.8462 34.1933 31.9219 34.1933 34.4825Z" fill="black"/>
<path opacity="0.64" d="M51.4344 34.4825C51.4344 37.043 53.5102 39.1187 56.0707 39.1187C58.6313 39.1187 60.707 37.043 60.707 34.4825C60.707 31.9219 58.6313 29.8462 56.0707 29.8462C53.5102 29.8462 51.4344 31.9219 51.4344 34.4825Z" fill="black"/>
<path opacity="0.64" d="M-0.000133717 49.4053C-0.000133829 51.9659 2.07562 54.0416 4.63616 54.0416C7.19671 54.0416 9.27246 51.9659 9.27246 49.4053C9.27246 46.8448 7.19671 44.769 4.63616 44.769C2.07562 44.769 -0.000133605 46.8448 -0.000133717 49.4053Z" fill="black"/>
<path opacity="0.64" d="M17.0966 49.4053C17.0966 51.9659 19.1723 54.0416 21.7328 54.0416C24.2934 54.0416 26.3691 51.9659 26.3691 49.4053C26.3691 46.8448 24.2934 44.769 21.7328 44.769C19.1723 44.769 17.0966 46.8448 17.0966 49.4053Z" fill="black"/>
<path opacity="0.64" d="M34.1933 49.4053C34.1933 51.9659 36.2691 54.0416 38.8296 54.0416C41.3902 54.0416 43.4658 51.9659 43.4658 49.4053C43.4658 46.8448 41.3902 44.769 38.8296 44.769C36.2691 44.769 34.1933 46.8448 34.1933 49.4053Z" fill="black"/>
<path opacity="0.64" d="M51.4335 49.4053C51.4335 51.9659 53.5092 54.0416 56.0698 54.0416C58.6303 54.0416 60.7061 51.9659 60.7061 49.4053C60.7061 46.8448 58.6303 44.769 56.0698 44.769C53.5092 44.769 51.4335 46.8448 51.4335 49.4053Z" fill="black"/>
<path opacity="0.64" d="M66.3574 63.8936C66.3574 66.4542 68.433 68.5299 70.9936 68.5299C73.5541 68.5299 75.6299 66.4542 75.6299 63.8936C75.6299 61.3331 73.5541 59.2573 70.9936 59.2573C68.433 59.2573 66.3574 61.3331 66.3574 63.8936Z" fill="black"/>
<path opacity="0.64" d="M83.4541 63.8936C83.4541 66.4542 85.5298 68.5299 88.0904 68.5299C90.6509 68.5299 92.7266 66.4542 92.7266 63.8936C92.7266 61.3331 90.6509 59.2573 88.0904 59.2573C85.5298 59.2573 83.4541 61.3331 83.4541 63.8936Z" fill="black"/>
<path opacity="0.64" d="M100.694 63.8936C100.694 66.4542 102.77 68.5299 105.33 68.5299C107.891 68.5299 109.967 66.4542 109.967 63.8936C109.967 61.3331 107.891 59.2573 105.33 59.2573C102.77 59.2573 100.694 61.3331 100.694 63.8936Z" fill="black"/>
<path opacity="0.64" d="M117.791 63.8936C117.791 66.4541 119.867 68.5299 122.427 68.5299C124.988 68.5299 127.063 66.4541 127.063 63.8936C127.063 61.333 124.988 59.2573 122.427 59.2573C119.867 59.2573 117.791 61.333 117.791 63.8936Z" fill="black"/>
<path opacity="0.64" d="M66.3574 78.6719C66.3574 81.2325 68.433 83.3082 70.9936 83.3082C73.5541 83.3082 75.6299 81.2325 75.6299 78.6719C75.6299 76.1114 73.5541 74.0356 70.9936 74.0356C68.433 74.0356 66.3574 76.1114 66.3574 78.6719Z" fill="black"/>
<path opacity="0.64" d="M83.4541 78.6719C83.4541 81.2325 85.5298 83.3082 88.0904 83.3082C90.6509 83.3082 92.7266 81.2325 92.7266 78.6719C92.7266 76.1114 90.6509 74.0356 88.0904 74.0356C85.5298 74.0356 83.4541 76.1114 83.4541 78.6719Z" fill="black"/>
<path opacity="0.64" d="M100.694 78.6719C100.694 81.2325 102.77 83.3082 105.33 83.3082C107.891 83.3082 109.967 81.2325 109.967 78.6719C109.967 76.1114 107.891 74.0356 105.33 74.0356C102.77 74.0356 100.694 76.1114 100.694 78.6719Z" fill="black"/>
<path opacity="0.64" d="M117.791 78.672C117.791 81.2326 119.867 83.3083 122.427 83.3083C124.988 83.3083 127.063 81.2326 127.063 78.672C127.063 76.1115 124.988 74.0357 122.427 74.0357C119.867 74.0357 117.791 76.1115 117.791 78.672Z" fill="black"/>
<path opacity="0.64" d="M66.3574 93.5948C66.3574 96.1553 68.433 98.2311 70.9936 98.2311C73.5541 98.2311 75.6299 96.1553 75.6299 93.5948C75.6299 91.0342 73.5541 88.9585 70.9936 88.9585C68.433 88.9585 66.3574 91.0342 66.3574 93.5948Z" fill="black"/>
<path opacity="0.64" d="M83.4541 93.5948C83.4541 96.1553 85.5298 98.2311 88.0904 98.2311C90.6509 98.2311 92.7266 96.1553 92.7266 93.5948C92.7266 91.0342 90.6509 88.9585 88.0904 88.9585C85.5298 88.9585 83.4541 91.0342 83.4541 93.5948Z" fill="black"/>
<path opacity="0.64" d="M100.694 93.5948C100.694 96.1553 102.77 98.2311 105.33 98.2311C107.891 98.2311 109.967 96.1553 109.967 93.5948C109.967 91.0342 107.891 88.9585 105.33 88.9585C102.77 88.9585 100.694 91.0342 100.694 93.5948Z" fill="black"/>
<path opacity="0.64" d="M117.791 93.5948C117.791 96.1553 119.867 98.2311 122.427 98.2311C124.988 98.2311 127.063 96.1553 127.063 93.5948C127.063 91.0342 124.988 88.9585 122.427 88.9585C119.867 88.9585 117.791 91.0342 117.791 93.5948Z" fill="black"/>
<path opacity="0.64" d="M66.3574 108.518C66.3574 111.078 68.433 113.154 70.9936 113.154C73.5541 113.154 75.6299 111.078 75.6299 108.518C75.6299 105.957 73.5541 103.882 70.9936 103.882C68.433 103.882 66.3574 105.957 66.3574 108.518Z" fill="black"/>
<path opacity="0.64" d="M83.4541 108.518C83.4541 111.078 85.5298 113.154 88.0904 113.154C90.6509 113.154 92.7266 111.078 92.7266 108.518C92.7266 105.957 90.6509 103.882 88.0904 103.882C85.5298 103.882 83.4541 105.957 83.4541 108.518Z" fill="black"/>
<path opacity="0.64" d="M100.694 108.518C100.694 111.078 102.77 113.154 105.33 113.154C107.891 113.154 109.967 111.078 109.967 108.518C109.967 105.957 107.891 103.882 105.33 103.882C102.77 103.882 100.694 105.957 100.694 108.518Z" fill="black"/>
<path opacity="0.64" d="M117.791 108.518C117.791 111.078 119.867 113.154 122.427 113.154C124.988 113.154 127.063 111.078 127.063 108.518C127.063 105.957 124.988 103.882 122.427 103.882C119.867 103.882 117.791 105.957 117.791 108.518Z" fill="black"/>
<path opacity="0.64" d="M66.3574 4.6363C66.3574 7.19684 68.433 9.27257 70.9936 9.27257C73.5541 9.27257 75.6299 7.19684 75.6299 4.6363C75.6299 2.07575 73.5541 -9.0734e-08 70.9936 -2.02659e-07C68.433 -3.14584e-07 66.3574 2.07575 66.3574 4.6363Z" fill="black"/>
<path opacity="0.64" d="M83.4541 4.6363C83.4541 7.19684 85.5298 9.27257 88.0904 9.27257C90.6509 9.27257 92.7266 7.19684 92.7266 4.6363C92.7266 2.07575 90.6509 -9.07301e-08 88.0904 -2.02655e-07C85.5298 -3.1458e-07 83.4541 2.07575 83.4541 4.6363Z" fill="black"/>
<path opacity="0.64" d="M100.694 4.6363C100.694 7.19684 102.77 9.27257 105.33 9.27257C107.891 9.27257 109.967 7.19684 109.967 4.6363C109.967 2.07575 107.891 -9.0734e-08 105.33 -2.02659e-07C102.77 -3.14584e-07 100.694 2.07575 100.694 4.6363Z" fill="black"/>
<path opacity="0.64" d="M117.791 4.6363C117.791 7.19684 119.867 9.27257 122.427 9.27257C124.988 9.27257 127.063 7.19684 127.063 4.6363C127.063 2.07575 124.988 -9.0734e-08 122.427 -2.02659e-07C119.867 -3.14584e-07 117.791 2.07575 117.791 4.6363Z" fill="black"/>
<path opacity="0.64" d="M66.3574 19.5594C66.3574 22.1199 68.433 24.1957 70.9936 24.1957C73.5541 24.1957 75.6299 22.1199 75.6299 19.5594C75.6299 16.9988 73.5541 14.9231 70.9936 14.9231C68.433 14.9231 66.3574 16.9988 66.3574 19.5594Z" fill="black"/>
<path opacity="0.64" d="M83.4541 19.5594C83.4541 22.1199 85.5298 24.1957 88.0904 24.1957C90.6509 24.1957 92.7266 22.1199 92.7266 19.5594C92.7266 16.9988 90.6509 14.9231 88.0904 14.9231C85.5298 14.9231 83.4541 16.9988 83.4541 19.5594Z" fill="black"/>
<path opacity="0.64" d="M100.694 19.5594C100.694 22.1199 102.77 24.1957 105.33 24.1957C107.891 24.1957 109.967 22.1199 109.967 19.5594C109.967 16.9988 107.891 14.9231 105.33 14.9231C102.77 14.9231 100.694 16.9988 100.694 19.5594Z" fill="black"/>
<path opacity="0.64" d="M117.791 19.5594C117.791 22.1199 119.867 24.1957 122.427 24.1957C124.988 24.1957 127.063 22.1199 127.063 19.5594C127.063 16.9988 124.988 14.9231 122.427 14.9231C119.867 14.9231 117.791 16.9988 117.791 19.5594Z" fill="black"/>
<path opacity="0.64" d="M66.3574 34.4825C66.3574 37.043 68.433 39.1187 70.9936 39.1187C73.5541 39.1187 75.6299 37.043 75.6299 34.4825C75.6299 31.9219 73.5541 29.8462 70.9936 29.8462C68.433 29.8462 66.3574 31.9219 66.3574 34.4825Z" fill="black"/>
<path opacity="0.64" d="M83.4541 34.4825C83.4541 37.043 85.5298 39.1187 88.0904 39.1187C90.6509 39.1187 92.7266 37.043 92.7266 34.4825C92.7266 31.9219 90.6509 29.8462 88.0904 29.8462C85.5298 29.8462 83.4541 31.9219 83.4541 34.4825Z" fill="black"/>
<path opacity="0.64" d="M100.694 34.4825C100.694 37.043 102.77 39.1187 105.33 39.1187C107.891 39.1187 109.967 37.043 109.967 34.4825C109.967 31.9219 107.891 29.8462 105.33 29.8462C102.77 29.8462 100.694 31.9219 100.694 34.4825Z" fill="black"/>
<path opacity="0.64" d="M117.791 34.4825C117.791 37.043 119.867 39.1187 122.427 39.1187C124.988 39.1187 127.063 37.043 127.063 34.4825C127.063 31.9219 124.988 29.8462 122.427 29.8462C119.867 29.8462 117.791 31.9219 117.791 34.4825Z" fill="black"/>
<path opacity="0.64" d="M66.3574 49.4053C66.3574 51.9659 68.433 54.0416 70.9936 54.0416C73.5541 54.0416 75.6299 51.9659 75.6299 49.4053C75.6299 46.8448 73.5541 44.769 70.9936 44.769C68.433 44.769 66.3574 46.8448 66.3574 49.4053Z" fill="black"/>
<path opacity="0.64" d="M83.4541 49.4053C83.4541 51.9659 85.5298 54.0416 88.0904 54.0416C90.6509 54.0416 92.7266 51.9659 92.7266 49.4053C92.7266 46.8448 90.6509 44.769 88.0904 44.769C85.5298 44.769 83.4541 46.8448 83.4541 49.4053Z" fill="black"/>
<path opacity="0.64" d="M100.694 49.4053C100.694 51.9659 102.77 54.0416 105.33 54.0416C107.891 54.0416 109.967 51.9659 109.967 49.4053C109.967 46.8448 107.891 44.769 105.33 44.769C102.77 44.769 100.694 46.8448 100.694 49.4053Z" fill="black"/>
<path opacity="0.64" d="M117.791 49.4053C117.791 51.9659 119.867 54.0416 122.427 54.0416C124.988 54.0416 127.063 51.9659 127.063 49.4053C127.063 46.8448 124.988 44.769 122.427 44.769C119.867 44.769 117.791 46.8448 117.791 49.4053Z" fill="black"/>
</g>
<path d="M155.601 126.869C153.237 128.445 134.324 141.251 110.881 133.962C103.435 131.724 96.5918 127.833 90.8608 122.579C85.1298 117.326 80.6596 110.846 77.7839 103.623C76.5644 100.107 75.7062 96.4767 75.2228 92.7874L56.7043 93.1814C57.2337 100.443 58.9646 107.566 61.8264 114.261C73.6468 141.842 101.031 150.904 104.183 151.889C117.661 156.037 132.075 156.037 145.554 151.889C153.971 149.387 161.807 145.235 168.604 139.675L155.601 126.869Z" fill="#8EC6D8"/>
<path d="M95.5214 68.9999L111.088 77.0688L103.046 92.5829L87.4797 84.514L95.5214 68.9999Z" fill="#F0CA50"/>
<path d="M131.566 88.0596L130.778 98.1069L154.813 106.381L155.798 96.3338L131.566 88.0596Z" fill="#8EC6D8"/>
</svg>
