<svg width="100" height="100" viewBox="0 0 100 100" fill="none" xmlns="http://www.w3.org/2000/svg">
<path d="M99.7465 38.5252C99.7465 59.2592 83.3822 76.1585 62.8712 77.0949C62.2915 77.1395 61.7119 77.1394 61.1322 77.1394C39.8185 77.1394 22.5625 59.8834 22.5625 38.5697C22.5625 19.5747 36.296 3.79014 54.3546 0.579714C56.5841 0.178411 58.8582 8.62189e-05 61.1768 8.62189e-05C82.4459 -0.044503 99.7465 17.2115 99.7465 38.5252Z" fill="#5C9EDC"/>
<path d="M86.9487 38.3914C86.9487 52.8046 75.2772 64.4761 60.864 64.4761C59.2582 64.4761 57.6915 64.3195 56.1641 64.0453C44.0225 61.852 34.7793 51.1988 34.7793 38.3914C34.7793 27.8948 41.0067 18.8083 49.9366 14.6958C53.2658 13.1683 56.9474 12.3066 60.8248 12.3066C75.2772 12.3458 86.9487 24.0174 86.9487 38.3914Z" fill="#F0CA50"/>
<path d="M61.0877 51.9909C68.4755 51.9909 74.4645 46.0019 74.4645 38.6141C74.4645 31.2263 68.4755 25.2373 61.0877 25.2373C53.6999 25.2373 47.7109 31.2263 47.7109 38.6141C47.7109 46.0019 53.6999 51.9909 61.0877 51.9909Z" fill="white"/>
<path d="M35.6018 67.3298V89.6244C35.6018 90.3824 35.2897 91.1404 34.7546 91.6754L27.5757 99.0773C27.3082 99.3448 27.0407 99.5231 26.7285 99.7015L19.9064 92.8794L7.10926 80.0822L0.287109 73.2602C0.420877 72.948 0.643823 72.6804 0.911359 72.4129L8.31317 65.2341C8.84825 64.699 9.60626 64.3868 10.3643 64.3868H32.6589C34.3087 64.3422 35.6018 65.68 35.6018 67.3298Z" fill="#1C427B"/>
<path d="M26.7287 73.2598V99.7012C25.614 100.236 24.2763 100.058 23.34 99.1216L0.866981 76.6485C-0.0248037 75.7568 -0.24775 74.3746 0.287321 73.2598H26.7287Z" fill="#EE4D4A"/>
<path d="M63.1148 41.3348L47.3302 57.1193L35.6478 68.8018L12.6844 91.7652C11.4359 93.0137 9.47394 93.0137 8.22544 91.7652C6.97694 90.5167 6.97694 88.5548 8.22544 87.3063L34.3547 61.177L58.6559 36.8758C59.9044 35.6273 61.8663 35.6273 63.1148 36.8758C64.3187 38.1243 64.3187 40.0863 63.1148 41.3348Z" fill="#1C427B"/>
</svg>
