<svg width="101" height="100" viewBox="0 0 101 100" fill="none" xmlns="http://www.w3.org/2000/svg">
<path d="M44.3324 55.3931H41.9558V41.9562L27.6506 40.8594V43.1903C27.6506 46.161 26.3709 48.8118 24.0858 50.0915C23.1717 50.5942 22.0748 50.9141 20.8408 50.8684C16.7275 50.777 14.2595 47.4406 14.2595 43.3273V40.8136L0 41.9106V79.1589C0 81.7183 2.10236 83.8207 4.66176 83.8207H31.6268H40.2648C41.1789 83.8207 41.8644 83.0894 41.8644 82.2211V70.4295H44.4238C48.5371 70.4295 51.8735 67.1389 51.9649 63.0256C52.102 58.8209 48.5371 55.3931 44.3324 55.3931Z" fill="#F0CA50"/>
<path d="M32.9522 21.1609C32.8608 16.9562 36.4257 14.1226 40.6304 14.1226H42.9613L41.9101 0.0458984H31.5811H4.66176C2.10236 0.0458984 0 2.14824 0 4.70763V41.956H11.7915C12.7056 41.956 13.3911 42.6873 13.3911 43.5556V44.2869C13.3911 48.4916 16.8646 52.0565 21.0693 51.9651C22.1662 51.9651 23.2174 51.6909 24.1315 51.2338C26.6909 50.0455 28.4733 47.4405 28.4733 44.4241V43.5556C28.4733 42.6416 29.2045 41.956 30.0729 41.956H41.8644L42.8699 27.7879H40.3562C36.2886 27.7879 33.0436 25.2285 32.9522 21.1609Z" fill="#1C427B"/>
<path d="M98.8136 58.1359H87.0221V55.8049C87.0221 51.6002 83.5487 48.0353 79.3439 48.1267C75.2306 48.2181 71.94 51.5545 71.94 55.6678V58.1815H60.1485C59.2344 58.1815 58.5488 58.9127 58.5488 59.7811V69.973C58.5488 70.8871 59.2801 71.5726 60.1485 71.5726H60.8797C64.993 71.5726 68.4665 74.8176 68.5579 78.931C68.6036 81.079 67.7809 83.0443 66.3641 84.4154C64.993 85.7865 63.1192 86.6092 61.0168 86.6092H60.1485C59.2344 86.6092 58.5488 87.3404 58.5488 88.2088V98.4006C58.5488 99.3147 59.2801 100 60.1485 100H95.7972C98.3566 100 100.459 97.8979 100.459 95.3385V59.6897C100.459 58.8214 99.7277 58.1359 98.8136 58.1359Z" fill="#EE4D4A"/>
<path d="M41.9092 0.0456366V11.8372C41.9092 12.7512 41.178 13.4368 40.3096 13.4368H39.5783C35.3736 13.4368 31.8088 16.9103 31.9002 21.115C31.9916 25.2283 35.3279 28.5189 39.4412 28.5189H40.3096C41.2237 28.5189 41.9092 29.2502 41.9092 30.1186V41.9101H53.7007C54.6148 41.9101 55.3004 41.1788 55.3004 40.3105V39.5792C55.3004 35.4659 58.5453 31.9924 62.6586 31.901C64.8067 31.8553 66.7719 32.6779 68.143 34.0948C69.5142 35.4659 70.3368 37.3397 70.3368 39.442V40.3105C70.3368 41.2245 71.0681 41.9101 71.9364 41.9101H82.1283C83.0424 41.9101 83.7279 41.1788 83.7279 40.3105V4.66174C83.7279 2.10234 81.6256 0 79.0662 0L41.9092 0.0456366Z" fill="#5C9EDC"/>
</svg>
