<svg width="101" height="100" viewBox="0 0 101 100" fill="none" xmlns="http://www.w3.org/2000/svg">
<circle cx="61.2693" cy="39.3836" r="28.9314" fill="#C4C4C4"/>
<path d="M3.49977 79.6083C-1.16659 84.2747 -1.16659 91.8342 3.49977 96.5006C8.16613 101.167 15.7256 101.167 20.392 96.5006L51.19 65.7026C55.8564 61.0362 55.8564 53.4767 51.19 48.8103C46.5236 44.144 38.9641 44.144 34.2978 48.8103L3.49977 79.6083Z" fill="#1C427B"/>
<path d="M52.3569 71.9555L28.0918 47.6904L21.5589 54.2233C18.1991 57.5831 18.1991 63.0428 21.5589 66.4025L33.6448 78.4884C37.0046 81.8482 42.4642 81.8482 45.824 78.4884L52.3569 71.9555Z" fill="#EE4D4A"/>
<path d="M61.6427 0C40.4574 0 23.2852 17.1722 23.2852 38.4042C23.2852 59.5895 40.4574 76.7617 61.6427 76.7617C82.8279 76.7617 100.047 59.5895 100.047 38.4042C100 17.2189 82.8279 0 61.6427 0ZM61.6427 63.2759C47.8769 63.2759 36.7709 52.1233 36.7709 38.4042C36.7709 24.6384 47.9236 13.4858 61.6427 13.4858C75.4084 13.4858 86.5144 24.6384 86.5144 38.4042C86.5144 52.1233 75.3618 63.2759 61.6427 63.2759Z" fill="#5C9EDC"/>
<path d="M61.6432 63.2756C75.3795 63.2756 86.5149 52.1402 86.5149 38.404C86.5149 24.6677 75.3795 13.5322 61.6432 13.5322C47.9069 13.5322 36.7715 24.6677 36.7715 38.404C36.7715 52.1402 47.9069 63.2756 61.6432 63.2756Z" fill="white"/>
</svg>
