<svg width="135" height="135" viewBox="0 0 135 135" fill="none" xmlns="http://www.w3.org/2000/svg">
<path d="M134.939 112.92V128.296C134.939 131.433 132.417 134.016 129.219 134.016H48.5264V119.747C59.1665 119.747 68.6996 114.888 74.9729 107.2H129.219C132.417 107.2 134.939 109.783 134.939 112.92Z" fill="#163459"/>
<path d="M129.28 26.8156H43.6671C40.5304 26.8156 37.9473 24.2324 37.9473 21.0957V5.71979C37.9473 2.58311 40.5304 0 43.6671 0H129.28C132.417 0 135 2.58311 135 5.71979V21.0957C134.939 24.2939 132.417 26.8156 129.28 26.8156Z" fill="#EE4D4A"/>
<path d="M134.938 59.3505V74.7264C134.938 77.8631 132.416 80.4462 129.218 80.4462H82.3525C80.5074 68.207 72.2044 58.0589 61.0107 53.6306H129.28C132.416 53.6306 134.938 56.1523 134.938 59.3505Z" fill="#163459"/>
<path d="M118.64 32.6577V47.849C118.64 51.0472 116.057 53.6304 112.859 53.6304H61.0728C57.198 52.0928 53.0158 51.2933 48.5875 51.2933C44.1593 51.2933 39.977 52.0928 36.1023 53.6304H27.4303C24.2321 53.6304 21.6489 51.0472 21.6489 47.849V32.6577C21.6489 29.4595 24.2321 26.8763 27.4303 26.8763H112.797C115.996 26.8148 118.64 29.4595 118.64 32.6577Z" fill="#5C9EDC"/>
<path d="M134.939 86.2274V101.419C134.939 104.617 132.356 107.2 129.158 107.2H74.9731C79.8319 101.296 82.7226 93.7308 82.7226 85.4894C82.7226 83.7673 82.5996 82.0451 82.3536 80.3845H129.219C132.418 80.446 134.939 83.0292 134.939 86.2274Z" fill="#5C9EDC"/>
<path d="M48.5264 37.0247C21.7723 37.0247 0 58.7355 0 85.4896C0 112.244 21.7108 133.954 48.5264 133.954C75.2805 133.954 96.9913 112.244 96.9913 85.4896C96.9913 58.7355 75.2805 37.0247 48.5264 37.0247ZM48.5264 119.747C29.6448 119.747 14.2688 104.433 14.2688 85.4896C14.2688 66.5464 29.5833 51.232 48.5264 51.232C67.4695 51.232 82.7224 66.5464 82.7224 85.4896C82.7224 104.433 67.408 119.747 48.5264 119.747Z" fill="#F0CA50"/>
<path d="M48.6489 125.221C70.5579 125.221 88.3187 107.46 88.3187 85.5512C88.3187 63.6422 70.5579 45.8813 48.6489 45.8813C26.7398 45.8813 8.979 63.6422 8.979 85.5512C8.979 107.46 26.7398 125.221 48.6489 125.221Z" fill="white"/>
</svg>
