<svg width="222" height="215" viewBox="0 0 222 215" fill="none" xmlns="http://www.w3.org/2000/svg">
<path d="M65.246 195.68C65.246 195.68 64.4836 204.435 58.888 206.259C58.888 206.259 65.737 206.914 68.9404 213.136C68.9404 213.136 69.0915 207.312 75.1117 202.742C75.1117 202.742 70.0299 203.963 65.246 195.68Z" fill="#F0CA50"/>
<g opacity="0.05">
<path opacity="0.64" d="M189.879 154.7C192.997 154.7 195.524 152.172 195.524 149.055C195.524 145.937 192.997 143.41 189.879 143.41C186.762 143.41 184.234 145.937 184.234 149.055C184.234 152.172 186.762 154.7 189.879 154.7Z" fill="#1A1A1A"/>
<path opacity="0.64" d="M189.879 133.885C192.997 133.885 195.524 131.358 195.524 128.24C195.524 125.123 192.997 122.596 189.879 122.596C186.762 122.596 184.234 125.123 184.234 128.24C184.234 131.358 186.762 133.885 189.879 133.885Z" fill="#1A1A1A"/>
<path opacity="0.64" d="M189.879 113.071C192.997 113.071 195.524 110.543 195.524 107.426C195.524 104.308 192.997 101.781 189.879 101.781C186.762 101.781 184.234 104.308 184.234 107.426C184.234 110.543 186.762 113.071 189.879 113.071Z" fill="#1A1A1A"/>
<path opacity="0.64" d="M189.879 92.0795C192.997 92.0795 195.524 89.5522 195.524 86.4348C195.524 83.3173 192.997 80.79 189.879 80.79C186.762 80.79 184.234 83.3173 184.234 86.4348C184.234 89.5522 186.762 92.0795 189.879 92.0795Z" fill="#1A1A1A"/>
<path opacity="0.64" d="M208.048 154.7C211.166 154.7 213.693 152.172 213.693 149.055C213.693 145.937 211.166 143.41 208.048 143.41C204.931 143.41 202.403 145.937 202.403 149.055C202.403 152.172 204.931 154.7 208.048 154.7Z" fill="#1A1A1A"/>
<path opacity="0.64" d="M208.048 133.885C211.166 133.885 213.693 131.358 213.693 128.24C213.693 125.123 211.166 122.596 208.048 122.596C204.931 122.596 202.403 125.123 202.403 128.24C202.403 131.358 204.931 133.885 208.048 133.885Z" fill="#1A1A1A"/>
<path opacity="0.64" d="M208.048 113.071C211.166 113.071 213.693 110.543 213.693 107.426C213.693 104.308 211.166 101.781 208.048 101.781C204.931 101.781 202.403 104.308 202.403 107.426C202.403 110.543 204.931 113.071 208.048 113.071Z" fill="#1A1A1A"/>
<path opacity="0.64" d="M208.048 92.0795C211.166 92.0795 213.693 89.5522 213.693 86.4348C213.693 83.3173 211.166 80.79 208.048 80.79C204.931 80.79 202.403 83.3173 202.403 86.4348C202.403 89.5522 204.931 92.0795 208.048 92.0795Z" fill="#1A1A1A"/>
<path opacity="0.64" d="M226.041 154.7C229.158 154.7 231.685 152.172 231.685 149.055C231.685 145.937 229.158 143.41 226.041 143.41C222.923 143.41 220.396 145.937 220.396 149.055C220.396 152.172 222.923 154.7 226.041 154.7Z" fill="#1A1A1A"/>
<path opacity="0.64" d="M226.041 133.885C229.158 133.885 231.685 131.358 231.685 128.24C231.685 125.123 229.158 122.596 226.041 122.596C222.923 122.596 220.396 125.123 220.396 128.24C220.396 131.358 222.923 133.885 226.041 133.885Z" fill="#1A1A1A"/>
<path opacity="0.64" d="M226.041 113.071C229.158 113.071 231.685 110.543 231.685 107.426C231.685 104.308 229.158 101.781 226.041 101.781C222.923 101.781 220.396 104.308 220.396 107.426C220.396 110.543 222.923 113.071 226.041 113.071Z" fill="#1A1A1A"/>
<path opacity="0.64" d="M226.041 92.0795C229.158 92.0795 231.685 89.5522 231.685 86.4348C231.685 83.3173 229.158 80.79 226.041 80.79C222.923 80.79 220.396 83.3173 220.396 86.4348C220.396 89.5522 222.923 92.0795 226.041 92.0795Z" fill="#1A1A1A"/>
<path opacity="0.64" d="M189.879 73.9104C192.997 73.9104 195.524 71.3833 195.524 68.2658C195.524 65.1483 192.997 62.6211 189.879 62.6211C186.762 62.6211 184.234 65.1483 184.234 68.2658C184.234 71.3833 186.762 73.9104 189.879 73.9104Z" fill="#1A1A1A"/>
<path opacity="0.64" d="M189.879 53.095C192.997 53.095 195.524 50.5678 195.524 47.4503C195.524 44.3328 192.997 41.8057 189.879 41.8057C186.762 41.8057 184.234 44.3328 184.234 47.4503C184.234 50.5678 186.762 53.095 189.879 53.095Z" fill="#1A1A1A"/>
<path opacity="0.64" d="M189.879 32.1039C192.997 32.1039 195.524 29.5766 195.524 26.4592C195.524 23.3417 192.997 20.8145 189.879 20.8145C186.762 20.8145 184.234 23.3417 184.234 26.4592C184.234 29.5766 186.762 32.1039 189.879 32.1039Z" fill="#1A1A1A"/>
<path opacity="0.64" d="M189.879 11.2893C192.997 11.2893 195.524 8.7622 195.524 5.64472C195.524 2.52724 192.997 0 189.879 0C186.762 0 184.234 2.52724 184.234 5.64472C184.234 8.7622 186.762 11.2893 189.879 11.2893Z" fill="#1A1A1A"/>
<path opacity="0.64" d="M208.048 73.9104C211.166 73.9104 213.693 71.3833 213.693 68.2658C213.693 65.1483 211.166 62.6211 208.048 62.6211C204.931 62.6211 202.403 65.1483 202.403 68.2658C202.403 71.3833 204.931 73.9104 208.048 73.9104Z" fill="#1A1A1A"/>
<path opacity="0.64" d="M208.048 53.095C211.166 53.095 213.693 50.5678 213.693 47.4503C213.693 44.3328 211.166 41.8057 208.048 41.8057C204.931 41.8057 202.403 44.3328 202.403 47.4503C202.403 50.5678 204.931 53.095 208.048 53.095Z" fill="#1A1A1A"/>
<path opacity="0.64" d="M208.048 32.1039C211.166 32.1039 213.693 29.5766 213.693 26.4592C213.693 23.3417 211.166 20.8145 208.048 20.8145C204.931 20.8145 202.403 23.3417 202.403 26.4592C202.403 29.5766 204.931 32.1039 208.048 32.1039Z" fill="#1A1A1A"/>
<path opacity="0.64" d="M208.048 11.2893C211.166 11.2893 213.693 8.7622 213.693 5.64472C213.693 2.52724 211.166 0 208.048 0C204.931 0 202.403 2.52724 202.403 5.64472C202.403 8.7622 204.931 11.2893 208.048 11.2893Z" fill="#1A1A1A"/>
<path opacity="0.64" d="M226.041 73.9104C229.158 73.9104 231.685 71.3833 231.685 68.2658C231.685 65.1483 229.158 62.6211 226.041 62.6211C222.923 62.6211 220.396 65.1483 220.396 68.2658C220.396 71.3833 222.923 73.9104 226.041 73.9104Z" fill="#1A1A1A"/>
<path opacity="0.64" d="M226.041 53.095C229.158 53.095 231.685 50.5678 231.685 47.4503C231.685 44.3328 229.158 41.8057 226.041 41.8057C222.923 41.8057 220.396 44.3328 220.396 47.4503C220.396 50.5678 222.923 53.095 226.041 53.095Z" fill="#1A1A1A"/>
<path opacity="0.64" d="M226.041 32.1039C229.158 32.1039 231.685 29.5766 231.685 26.4592C231.685 23.3417 229.158 20.8145 226.041 20.8145C222.923 20.8145 220.396 23.3417 220.396 26.4592C220.396 29.5766 222.923 32.1039 226.041 32.1039Z" fill="#1A1A1A"/>
<path opacity="0.64" d="M226.041 11.2893C229.158 11.2893 231.685 8.7622 231.685 5.64472C231.685 2.52724 229.158 0 226.041 0C222.923 0 220.396 2.52724 220.396 5.64472C220.396 8.7622 222.923 11.2893 226.041 11.2893Z" fill="#1A1A1A"/>
<path opacity="0.64" d="M118.791 154.7C121.908 154.7 124.436 152.172 124.436 149.055C124.436 145.937 121.908 143.41 118.791 143.41C115.673 143.41 113.146 145.937 113.146 149.055C113.146 152.172 115.673 154.7 118.791 154.7Z" fill="#1A1A1A"/>
<path opacity="0.64" d="M118.791 133.885C121.908 133.885 124.436 131.358 124.436 128.24C124.436 125.123 121.908 122.596 118.791 122.596C115.673 122.596 113.146 125.123 113.146 128.24C113.146 131.358 115.673 133.885 118.791 133.885Z" fill="#1A1A1A"/>
<path opacity="0.64" d="M118.791 113.071C121.908 113.071 124.436 110.543 124.436 107.426C124.436 104.308 121.908 101.781 118.791 101.781C115.673 101.781 113.146 104.308 113.146 107.426C113.146 110.543 115.673 113.071 118.791 113.071Z" fill="#1A1A1A"/>
<path opacity="0.64" d="M118.791 92.0795C121.908 92.0795 124.436 89.5522 124.436 86.4348C124.436 83.3173 121.908 80.79 118.791 80.79C115.673 80.79 113.146 83.3173 113.146 86.4348C113.146 89.5522 115.673 92.0795 118.791 92.0795Z" fill="#1A1A1A"/>
<path opacity="0.64" d="M136.783 154.7C139.901 154.7 142.428 152.172 142.428 149.055C142.428 145.937 139.901 143.41 136.783 143.41C133.666 143.41 131.139 145.937 131.139 149.055C131.139 152.172 133.666 154.7 136.783 154.7Z" fill="#1A1A1A"/>
<path opacity="0.64" d="M136.783 133.885C139.901 133.885 142.428 131.358 142.428 128.24C142.428 125.123 139.901 122.596 136.783 122.596C133.666 122.596 131.139 125.123 131.139 128.24C131.139 131.358 133.666 133.885 136.783 133.885Z" fill="#1A1A1A"/>
<path opacity="0.64" d="M136.783 113.071C139.901 113.071 142.428 110.543 142.428 107.426C142.428 104.308 139.901 101.781 136.783 101.781C133.666 101.781 131.139 104.308 131.139 107.426C131.139 110.543 133.666 113.071 136.783 113.071Z" fill="#1A1A1A"/>
<path opacity="0.64" d="M136.783 92.0795C139.901 92.0795 142.428 89.5522 142.428 86.4348C142.428 83.3173 139.901 80.79 136.783 80.79C133.666 80.79 131.139 83.3173 131.139 86.4348C131.139 89.5522 133.666 92.0795 136.783 92.0795Z" fill="#1A1A1A"/>
<path opacity="0.64" d="M154.952 154.7C158.07 154.7 160.597 152.172 160.597 149.055C160.597 145.937 158.07 143.41 154.952 143.41C151.835 143.41 149.308 145.937 149.308 149.055C149.308 152.172 151.835 154.7 154.952 154.7Z" fill="#1A1A1A"/>
<path opacity="0.64" d="M154.952 133.885C158.07 133.885 160.597 131.358 160.597 128.24C160.597 125.123 158.07 122.596 154.952 122.596C151.835 122.596 149.308 125.123 149.308 128.24C149.308 131.358 151.835 133.885 154.952 133.885Z" fill="#1A1A1A"/>
<path opacity="0.64" d="M154.952 113.071C158.07 113.071 160.597 110.543 160.597 107.426C160.597 104.308 158.07 101.781 154.952 101.781C151.835 101.781 149.308 104.308 149.308 107.426C149.308 110.543 151.835 113.071 154.952 113.071Z" fill="#1A1A1A"/>
<path opacity="0.64" d="M154.952 92.0795C158.07 92.0795 160.597 89.5522 160.597 86.4348C160.597 83.3173 158.07 80.79 154.952 80.79C151.835 80.79 149.308 83.3173 149.308 86.4348C149.308 89.5522 151.835 92.0795 154.952 92.0795Z" fill="#1A1A1A"/>
<path opacity="0.64" d="M173.121 154.7C176.239 154.7 178.766 152.172 178.766 149.055C178.766 145.937 176.239 143.41 173.121 143.41C170.004 143.41 167.477 145.937 167.477 149.055C167.477 152.172 170.004 154.7 173.121 154.7Z" fill="#1A1A1A"/>
<path opacity="0.64" d="M173.121 133.885C176.239 133.885 178.766 131.358 178.766 128.24C178.766 125.123 176.239 122.596 173.121 122.596C170.004 122.596 167.477 125.123 167.477 128.24C167.477 131.358 170.004 133.885 173.121 133.885Z" fill="#1A1A1A"/>
<path opacity="0.64" d="M173.121 113.071C176.239 113.071 178.766 110.543 178.766 107.426C178.766 104.308 176.239 101.781 173.121 101.781C170.004 101.781 167.477 104.308 167.477 107.426C167.477 110.543 170.004 113.071 173.121 113.071Z" fill="#1A1A1A"/>
<path opacity="0.64" d="M173.121 92.0795C176.239 92.0795 178.766 89.5522 178.766 86.4348C178.766 83.3173 176.239 80.79 173.121 80.79C170.004 80.79 167.477 83.3173 167.477 86.4348C167.477 89.5522 170.004 92.0795 173.121 92.0795Z" fill="#1A1A1A"/>
<path opacity="0.64" d="M46.6447 154.7C49.7622 154.7 52.2894 152.172 52.2894 149.055C52.2894 145.937 49.7622 143.41 46.6447 143.41C43.5272 143.41 41 145.937 41 149.055C41 152.172 43.5272 154.7 46.6447 154.7Z" fill="#1A1A1A"/>
<path opacity="0.64" d="M46.6447 133.885C49.7622 133.885 52.2894 131.358 52.2894 128.24C52.2894 125.123 49.7622 122.596 46.6447 122.596C43.5272 122.596 41 125.123 41 128.24C41 131.358 43.5272 133.885 46.6447 133.885Z" fill="#1A1A1A"/>
<path opacity="0.64" d="M46.6447 113.071C49.7622 113.071 52.2894 110.543 52.2894 107.426C52.2894 104.308 49.7622 101.781 46.6447 101.781C43.5272 101.781 41 104.308 41 107.426C41 110.543 43.5272 113.071 46.6447 113.071Z" fill="#1A1A1A"/>
<path opacity="0.64" d="M46.6447 92.0795C49.7622 92.0795 52.2894 89.5522 52.2894 86.4348C52.2894 83.3173 49.7622 80.79 46.6447 80.79C43.5272 80.79 41 83.3173 41 86.4348C41 89.5522 43.5272 92.0795 46.6447 92.0795Z" fill="#1A1A1A"/>
<path opacity="0.64" d="M64.8136 154.7C67.9311 154.7 70.4584 152.172 70.4584 149.055C70.4584 145.937 67.9311 143.41 64.8136 143.41C61.6962 143.41 59.1689 145.937 59.1689 149.055C59.1689 152.172 61.6962 154.7 64.8136 154.7Z" fill="#1A1A1A"/>
<path opacity="0.64" d="M64.8136 133.885C67.9311 133.885 70.4584 131.358 70.4584 128.24C70.4584 125.123 67.9311 122.596 64.8136 122.596C61.6962 122.596 59.1689 125.123 59.1689 128.24C59.1689 131.358 61.6962 133.885 64.8136 133.885Z" fill="#1A1A1A"/>
<path opacity="0.64" d="M64.8136 113.071C67.9311 113.071 70.4584 110.543 70.4584 107.426C70.4584 104.308 67.9311 101.781 64.8136 101.781C61.6962 101.781 59.1689 104.308 59.1689 107.426C59.1689 110.543 61.6962 113.071 64.8136 113.071Z" fill="#1A1A1A"/>
<path opacity="0.64" d="M64.8136 92.0795C67.9311 92.0795 70.4584 89.5522 70.4584 86.4348C70.4584 83.3173 67.9311 80.79 64.8136 80.79C61.6962 80.79 59.1689 83.3173 59.1689 86.4348C59.1689 89.5522 61.6962 92.0795 64.8136 92.0795Z" fill="#1A1A1A"/>
<path opacity="0.64" d="M82.9826 154.7C86.1001 154.7 88.6273 152.172 88.6273 149.055C88.6273 145.937 86.1001 143.41 82.9826 143.41C79.8651 143.41 77.3379 145.937 77.3379 149.055C77.3379 152.172 79.8651 154.7 82.9826 154.7Z" fill="#1A1A1A"/>
<path opacity="0.64" d="M82.9826 133.885C86.1001 133.885 88.6273 131.358 88.6273 128.24C88.6273 125.123 86.1001 122.596 82.9826 122.596C79.8651 122.596 77.3379 125.123 77.3379 128.24C77.3379 131.358 79.8651 133.885 82.9826 133.885Z" fill="#1A1A1A"/>
<path opacity="0.64" d="M82.9826 113.071C86.1001 113.071 88.6273 110.543 88.6273 107.426C88.6273 104.308 86.1001 101.781 82.9826 101.781C79.8651 101.781 77.3379 104.308 77.3379 107.426C77.3379 110.543 79.8651 113.071 82.9826 113.071Z" fill="#1A1A1A"/>
<path opacity="0.64" d="M82.9826 92.0795C86.1001 92.0795 88.6273 89.5522 88.6273 86.4348C88.6273 83.3173 86.1001 80.79 82.9826 80.79C79.8651 80.79 77.3379 83.3173 77.3379 86.4348C77.3379 89.5522 79.8651 92.0795 82.9826 92.0795Z" fill="#1A1A1A"/>
<path opacity="0.64" d="M101.151 154.7C104.269 154.7 106.796 152.172 106.796 149.055C106.796 145.937 104.269 143.41 101.151 143.41C98.0336 143.41 95.5064 145.937 95.5064 149.055C95.5064 152.172 98.0336 154.7 101.151 154.7Z" fill="#1A1A1A"/>
<path opacity="0.64" d="M101.151 133.885C104.269 133.885 106.796 131.358 106.796 128.24C106.796 125.123 104.269 122.596 101.151 122.596C98.0336 122.596 95.5064 125.123 95.5064 128.24C95.5064 131.358 98.0336 133.885 101.151 133.885Z" fill="#1A1A1A"/>
<path opacity="0.64" d="M101.151 113.071C104.269 113.071 106.796 110.543 106.796 107.426C106.796 104.308 104.269 101.781 101.151 101.781C98.0336 101.781 95.5064 104.308 95.5064 107.426C95.5064 110.543 98.0336 113.071 101.151 113.071Z" fill="#1A1A1A"/>
<path opacity="0.64" d="M101.151 92.0795C104.269 92.0795 106.796 89.5522 106.796 86.4348C106.796 83.3173 104.269 80.79 101.151 80.79C98.0336 80.79 95.5064 83.3173 95.5064 86.4348C95.5064 89.5522 98.0336 92.0795 101.151 92.0795Z" fill="#1A1A1A"/>
<path opacity="0.64" d="M118.791 73.9104C121.908 73.9104 124.436 71.3833 124.436 68.2658C124.436 65.1483 121.908 62.6211 118.791 62.6211C115.673 62.6211 113.146 65.1483 113.146 68.2658C113.146 71.3833 115.673 73.9104 118.791 73.9104Z" fill="#1A1A1A"/>
<path opacity="0.64" d="M118.791 53.095C121.908 53.095 124.436 50.5678 124.436 47.4503C124.436 44.3328 121.908 41.8057 118.791 41.8057C115.673 41.8057 113.146 44.3328 113.146 47.4503C113.146 50.5678 115.673 53.095 118.791 53.095Z" fill="#1A1A1A"/>
<path opacity="0.64" d="M118.791 32.1039C121.908 32.1039 124.436 29.5766 124.436 26.4592C124.436 23.3417 121.908 20.8145 118.791 20.8145C115.673 20.8145 113.146 23.3417 113.146 26.4592C113.146 29.5766 115.673 32.1039 118.791 32.1039Z" fill="#1A1A1A"/>
<path opacity="0.64" d="M118.791 11.2893C121.908 11.2893 124.436 8.7622 124.436 5.64472C124.436 2.52724 121.908 0 118.791 0C115.673 0 113.146 2.52724 113.146 5.64472C113.146 8.7622 115.673 11.2893 118.791 11.2893Z" fill="#1A1A1A"/>
<path opacity="0.64" d="M136.783 73.9104C139.901 73.9104 142.428 71.3833 142.428 68.2658C142.428 65.1483 139.901 62.6211 136.783 62.6211C133.666 62.6211 131.139 65.1483 131.139 68.2658C131.139 71.3833 133.666 73.9104 136.783 73.9104Z" fill="#1A1A1A"/>
<path opacity="0.64" d="M136.783 53.095C139.901 53.095 142.428 50.5678 142.428 47.4503C142.428 44.3328 139.901 41.8057 136.783 41.8057C133.666 41.8057 131.139 44.3328 131.139 47.4503C131.139 50.5678 133.666 53.095 136.783 53.095Z" fill="#1A1A1A"/>
<path opacity="0.64" d="M136.783 32.1039C139.901 32.1039 142.428 29.5766 142.428 26.4592C142.428 23.3417 139.901 20.8145 136.783 20.8145C133.666 20.8145 131.139 23.3417 131.139 26.4592C131.139 29.5766 133.666 32.1039 136.783 32.1039Z" fill="#1A1A1A"/>
<path opacity="0.64" d="M136.783 11.2893C139.901 11.2893 142.428 8.7622 142.428 5.64472C142.428 2.52724 139.901 0 136.783 0C133.666 0 131.139 2.52724 131.139 5.64472C131.139 8.7622 133.666 11.2893 136.783 11.2893Z" fill="#1A1A1A"/>
<path opacity="0.64" d="M154.952 73.9104C158.07 73.9104 160.597 71.3833 160.597 68.2658C160.597 65.1483 158.07 62.6211 154.952 62.6211C151.835 62.6211 149.308 65.1483 149.308 68.2658C149.308 71.3833 151.835 73.9104 154.952 73.9104Z" fill="#1A1A1A"/>
<path opacity="0.64" d="M154.952 53.095C158.07 53.095 160.597 50.5678 160.597 47.4503C160.597 44.3328 158.07 41.8057 154.952 41.8057C151.835 41.8057 149.308 44.3328 149.308 47.4503C149.308 50.5678 151.835 53.095 154.952 53.095Z" fill="#1A1A1A"/>
<path opacity="0.64" d="M154.952 32.1039C158.07 32.1039 160.597 29.5766 160.597 26.4592C160.597 23.3417 158.07 20.8145 154.952 20.8145C151.835 20.8145 149.308 23.3417 149.308 26.4592C149.308 29.5766 151.835 32.1039 154.952 32.1039Z" fill="#1A1A1A"/>
<path opacity="0.64" d="M154.952 11.2893C158.07 11.2893 160.597 8.7622 160.597 5.64472C160.597 2.52724 158.07 0 154.952 0C151.835 0 149.308 2.52724 149.308 5.64472C149.308 8.7622 151.835 11.2893 154.952 11.2893Z" fill="#1A1A1A"/>
<path opacity="0.64" d="M173.121 73.9104C176.239 73.9104 178.766 71.3833 178.766 68.2658C178.766 65.1483 176.239 62.6211 173.121 62.6211C170.004 62.6211 167.477 65.1483 167.477 68.2658C167.477 71.3833 170.004 73.9104 173.121 73.9104Z" fill="#1A1A1A"/>
<path opacity="0.64" d="M173.121 53.095C176.239 53.095 178.766 50.5678 178.766 47.4503C178.766 44.3328 176.239 41.8057 173.121 41.8057C170.004 41.8057 167.477 44.3328 167.477 47.4503C167.477 50.5678 170.004 53.095 173.121 53.095Z" fill="#1A1A1A"/>
<path opacity="0.64" d="M173.121 32.1039C176.239 32.1039 178.766 29.5766 178.766 26.4592C178.766 23.3417 176.239 20.8145 173.121 20.8145C170.004 20.8145 167.477 23.3417 167.477 26.4592C167.477 29.5766 170.004 32.1039 173.121 32.1039Z" fill="#1A1A1A"/>
<path opacity="0.64" d="M173.121 11.2893C176.239 11.2893 178.766 8.7622 178.766 5.64472C178.766 2.52724 176.239 0 173.121 0C170.004 0 167.477 2.52724 167.477 5.64472C167.477 8.7622 170.004 11.2893 173.121 11.2893Z" fill="#1A1A1A"/>
<path opacity="0.64" d="M46.6447 73.9104C49.7622 73.9104 52.2894 71.3833 52.2894 68.2658C52.2894 65.1483 49.7622 62.6211 46.6447 62.6211C43.5272 62.6211 41 65.1483 41 68.2658C41 71.3833 43.5272 73.9104 46.6447 73.9104Z" fill="#1A1A1A"/>
<path opacity="0.64" d="M46.6447 53.095C49.7622 53.095 52.2894 50.5678 52.2894 47.4503C52.2894 44.3328 49.7622 41.8057 46.6447 41.8057C43.5272 41.8057 41 44.3328 41 47.4503C41 50.5678 43.5272 53.095 46.6447 53.095Z" fill="#1A1A1A"/>
<path opacity="0.64" d="M46.6447 32.1039C49.7622 32.1039 52.2894 29.5766 52.2894 26.4592C52.2894 23.3417 49.7622 20.8145 46.6447 20.8145C43.5272 20.8145 41 23.3417 41 26.4592C41 29.5766 43.5272 32.1039 46.6447 32.1039Z" fill="#1A1A1A"/>
<path opacity="0.64" d="M46.6447 11.2893C49.7622 11.2893 52.2894 8.7622 52.2894 5.64472C52.2894 2.52724 49.7622 0 46.6447 0C43.5272 0 41 2.52724 41 5.64472C41 8.7622 43.5272 11.2893 46.6447 11.2893Z" fill="#1A1A1A"/>
<path opacity="0.64" d="M64.8136 73.9104C67.9311 73.9104 70.4584 71.3833 70.4584 68.2658C70.4584 65.1483 67.9311 62.6211 64.8136 62.6211C61.6962 62.6211 59.1689 65.1483 59.1689 68.2658C59.1689 71.3833 61.6962 73.9104 64.8136 73.9104Z" fill="#1A1A1A"/>
<path opacity="0.64" d="M64.8136 53.095C67.9311 53.095 70.4584 50.5678 70.4584 47.4503C70.4584 44.3328 67.9311 41.8057 64.8136 41.8057C61.6962 41.8057 59.1689 44.3328 59.1689 47.4503C59.1689 50.5678 61.6962 53.095 64.8136 53.095Z" fill="#1A1A1A"/>
<path opacity="0.64" d="M64.8136 32.1039C67.9311 32.1039 70.4584 29.5766 70.4584 26.4592C70.4584 23.3417 67.9311 20.8145 64.8136 20.8145C61.6962 20.8145 59.1689 23.3417 59.1689 26.4592C59.1689 29.5766 61.6962 32.1039 64.8136 32.1039Z" fill="#1A1A1A"/>
<path opacity="0.64" d="M64.8136 11.2893C67.9311 11.2893 70.4584 8.7622 70.4584 5.64472C70.4584 2.52724 67.9311 0 64.8136 0C61.6962 0 59.1689 2.52724 59.1689 5.64472C59.1689 8.7622 61.6962 11.2893 64.8136 11.2893Z" fill="#1A1A1A"/>
<path opacity="0.64" d="M82.9826 73.9104C86.1001 73.9104 88.6273 71.3833 88.6273 68.2658C88.6273 65.1483 86.1001 62.6211 82.9826 62.6211C79.8651 62.6211 77.3379 65.1483 77.3379 68.2658C77.3379 71.3833 79.8651 73.9104 82.9826 73.9104Z" fill="#1A1A1A"/>
<path opacity="0.64" d="M82.9826 53.095C86.1001 53.095 88.6273 50.5678 88.6273 47.4503C88.6273 44.3328 86.1001 41.8057 82.9826 41.8057C79.8651 41.8057 77.3379 44.3328 77.3379 47.4503C77.3379 50.5678 79.8651 53.095 82.9826 53.095Z" fill="#1A1A1A"/>
<path opacity="0.64" d="M82.9826 32.1039C86.1001 32.1039 88.6273 29.5766 88.6273 26.4592C88.6273 23.3417 86.1001 20.8145 82.9826 20.8145C79.8651 20.8145 77.3379 23.3417 77.3379 26.4592C77.3379 29.5766 79.8651 32.1039 82.9826 32.1039Z" fill="#1A1A1A"/>
<path opacity="0.64" d="M82.9826 11.2893C86.1001 11.2893 88.6273 8.7622 88.6273 5.64472C88.6273 2.52724 86.1001 0 82.9826 0C79.8651 0 77.3379 2.52724 77.3379 5.64472C77.3379 8.7622 79.8651 11.2893 82.9826 11.2893Z" fill="#1A1A1A"/>
<path opacity="0.64" d="M101.151 73.9104C104.269 73.9104 106.796 71.3833 106.796 68.2658C106.796 65.1483 104.269 62.6211 101.151 62.6211C98.0336 62.6211 95.5064 65.1483 95.5064 68.2658C95.5064 71.3833 98.0336 73.9104 101.151 73.9104Z" fill="#1A1A1A"/>
<path opacity="0.64" d="M101.151 53.095C104.269 53.095 106.796 50.5678 106.796 47.4503C106.796 44.3328 104.269 41.8057 101.151 41.8057C98.0336 41.8057 95.5064 44.3328 95.5064 47.4503C95.5064 50.5678 98.0336 53.095 101.151 53.095Z" fill="#1A1A1A"/>
<path opacity="0.64" d="M101.151 32.1039C104.269 32.1039 106.796 29.5766 106.796 26.4592C106.796 23.3417 104.269 20.8145 101.151 20.8145C98.0336 20.8145 95.5064 23.3417 95.5064 26.4592C95.5064 29.5766 98.0336 32.1039 101.151 32.1039Z" fill="#1A1A1A"/>
<path opacity="0.64" d="M101.151 11.2893C104.269 11.2893 106.796 8.7622 106.796 5.64472C106.796 2.52724 104.269 0 101.151 0C98.0336 0 95.5064 2.52724 95.5064 5.64472C95.5064 8.7622 98.0336 11.2893 101.151 11.2893Z" fill="#1A1A1A"/>
</g>
<path d="M13.0024 153.869C15.3665 155.445 34.279 168.25 57.7227 160.961C65.1681 158.723 72.0118 154.832 77.7427 149.579C83.4737 144.326 87.9439 137.845 90.8196 130.622C92.0392 127.107 92.8973 123.477 93.3807 119.787L111.899 120.181C111.37 127.443 109.639 134.566 106.777 141.261C94.9567 168.841 67.573 177.904 64.4209 178.889C50.9424 183.037 36.5282 183.037 23.0497 178.889C14.6323 176.387 6.79697 172.234 0 166.674L13.0024 153.869Z" fill="#8EC6D8"/>
<path d="M73.0821 95.9995L57.5156 104.068L65.5573 119.582L81.1238 111.513L73.0821 95.9995Z" fill="#EE4D4A"/>
<path d="M37.0369 115.06L37.8249 125.107L13.7902 133.381L12.8052 123.334L37.0369 115.06Z" fill="#8EC6D8"/>
</svg>
