<svg width="153" height="153" viewBox="0 0 153 153" fill="none" xmlns="http://www.w3.org/2000/svg">
<path d="M152.97 45.3627C152.97 70.0708 133.152 90.2106 108.572 90.7253C108.251 90.7253 107.929 90.7253 107.607 90.7253H107.414V90.5323C82.5772 90.4036 62.4375 70.2639 62.4375 45.3627C62.4375 20.4615 82.5772 0.321713 107.414 0.193025V0H107.607C107.993 0 108.315 0 108.637 0C133.216 0.579098 152.97 20.7188 152.97 45.3627Z" fill="#5C9EDC"/>
<path d="M108.702 0C108.316 0 107.994 0 107.673 0H107.48V0.193025C82.6428 0.321713 62.5031 20.4615 62.5031 45.3627C62.5031 70.2639 82.6428 90.468 107.48 90.5323V90.7253C82.5785 90.5966 62.3101 70.3282 62.3101 45.3627C62.3101 20.3328 82.6428 0 107.673 0C107.994 0 108.316 0 108.638 0H108.702Z" fill="#ADC9E9"/>
<path d="M117.342 100.524C124.185 71.5429 106.239 42.5013 77.2572 35.6579C48.2759 28.8146 19.2342 46.7611 12.3909 75.7424C5.5476 104.724 23.494 133.765 52.4754 140.609C81.4567 147.452 110.498 129.506 117.342 100.524Z" fill="#1C427B"/>
<path d="M110.182 90.3388V90.4032C108.959 114.275 89.2697 133.192 65.398 133.385H64.9476C39.9177 133.385 19.585 113.052 19.585 88.0225C19.585 63.8934 38.4378 43.9467 62.5669 42.7241H62.6312L101.109 81.202L101.302 81.395L110.182 90.3388Z" fill="#F0CA50"/>
<path d="M110.246 88.0871C110.246 88.8592 110.246 89.6314 110.182 90.4035V90.5966H109.989C109.153 90.6609 108.381 90.7253 107.608 90.7253C105.614 90.7253 103.619 90.5965 101.624 90.3392H101.431H101.367C79.1039 87.2506 62.3101 67.9474 62.3101 45.4269C62.3101 44.6548 62.3101 43.8826 62.3744 43.0462V42.8531H62.5674C63.2752 42.7888 63.9187 42.7888 64.5621 42.7888C64.6908 42.7888 64.8195 42.7888 64.9482 42.7888C65.2699 42.7888 65.5916 42.7888 65.9133 42.7888C90.4285 43.2392 110.246 63.3789 110.246 88.0871Z" fill="#EE4D4A"/>
</svg>
