<svg width="132" height="140" viewBox="0 0 132 140" fill="none" xmlns="http://www.w3.org/2000/svg">
<path d="M14.9336 68.821C16.95 67.2457 19.8485 67.3087 21.8649 68.947L50.913 92.7653C52.7403 94.2145 53.7485 96.4199 53.7485 98.7513V128.682H19.0924V107.384L2.52045 87.1572C0.882156 85.1409 0 82.6835 0 80.1V44.0576C0 42.1673 0.756133 40.466 2.01636 39.2688C3.21357 38.0716 4.91487 37.2524 6.80521 37.2524C10.3968 37.2524 13.3584 40.0879 13.6104 43.6795L14.9336 68.821Z" fill="#FDDCCF"/>
<path d="M53.7483 98.7517V98.8147H36.4202L27.5356 90.3712L14.3663 77.2018C13.2951 76.1306 12.728 74.6814 12.728 73.2321C12.728 71.7829 13.2951 70.3966 14.3663 69.2624C14.5553 69.0734 14.7444 68.8844 14.9334 68.7584C16.9498 67.1831 19.8483 67.2461 21.8646 68.8844L50.9128 92.7026C52.7401 94.2149 53.7483 96.4203 53.7483 98.7517Z" fill="#F0BCA8"/>
<path d="M57.7186 137.378V122.886C57.7186 120.239 55.5762 118.097 52.9297 118.097H19.9119C17.2654 118.097 15.123 120.239 15.123 122.886V137.378C15.123 138.386 15.9422 139.268 17.0134 139.268H55.8913C56.8994 139.268 57.7186 138.386 57.7186 137.378Z" fill="#EE4D4A"/>
<path d="M116.381 68.8207L117.767 43.6792C117.893 41.8519 118.649 40.2766 119.846 39.1424C121.044 38.0082 122.682 37.2521 124.509 37.2521C128.227 37.2521 131.314 40.2766 131.314 44.0572V80.0997C131.314 82.6831 130.432 85.1405 128.794 87.1569L112.222 107.383L112.6 133.092H77.5659V98.7509C77.5659 96.4195 78.6371 94.2141 80.4014 92.7649L109.45 68.9466C110.458 68.1275 111.718 67.6864 112.978 67.6864C114.238 67.6864 115.436 68.0645 116.381 68.8207Z" fill="#FDDCCF"/>
<path d="M116.949 69.325C119.154 71.5304 119.154 75.0591 116.949 77.2014L103.78 90.3708L92.4375 100.642L80.2764 92.8282L80.3394 92.7652L109.388 68.947C110.396 68.1278 111.656 67.6868 112.916 67.6868C114.113 67.6868 115.311 68.0649 116.319 68.821C116.571 68.947 116.823 69.136 116.949 69.325Z" fill="#F0BCA8"/>
<path d="M104.977 40.5296C104.725 36.938 101.827 33.9765 98.235 33.7874C96.7858 33.7244 95.3995 34.0394 94.2653 34.6695C93.1941 35.2996 91.9339 35.6147 90.6737 35.7408L90.2956 35.8038C89.7285 35.8668 89.1614 35.3627 89.1614 34.7956V21.7522C89.1614 18.9167 86.893 16.6483 84.0575 16.6483H68.0527C67.1705 16.6483 66.4144 15.8922 66.4774 14.9471L66.5404 14.38C66.6664 13.1197 66.9815 11.9225 67.5486 10.8514C68.1157 9.78016 68.4938 8.58291 68.4938 7.25967C68.4938 3.10093 64.9651 -0.238657 60.8064 0.0133878C57.2148 0.265432 54.2532 3.16399 54.0642 6.75563C54.0012 8.20489 54.3162 9.59108 54.9464 10.7253C55.5765 11.7965 55.8915 13.0567 56.0175 14.317L56.0806 14.8841C56.1436 15.7662 55.4504 16.5854 54.5053 16.5854H39.6977C36.8622 16.5854 34.5938 18.8537 34.5938 21.6892V63.2136C34.5938 66.0491 36.8622 68.3175 39.6977 68.3175H55.3244C55.8915 68.3175 56.3326 67.8764 56.2696 67.3093L56.0806 65.1669C55.9545 63.9067 55.6395 62.7095 55.0094 61.5753C54.3793 60.4411 54.0012 59.0549 54.1272 57.6056C54.3793 54.014 57.2778 51.0525 60.8694 50.8634C65.0912 50.6114 68.5568 53.951 68.5568 58.1097C68.5568 59.433 68.2417 60.6301 67.6116 61.7013C66.9815 62.7725 66.6664 63.9697 66.6034 65.2299L66.4144 67.3723C66.3514 67.9394 66.7925 68.3805 67.3596 68.3805H84.1205C86.956 68.3805 89.2244 66.1121 89.2244 63.2766V47.3348C89.2244 46.7047 89.7285 46.2636 90.3586 46.3266L90.7367 46.3897C91.9969 46.5157 93.1941 46.8307 94.2653 47.3978C95.3365 47.9649 96.5337 48.343 97.857 48.343C101.89 48.28 105.229 44.7513 104.977 40.5296Z" fill="#F0CA50"/>
<path d="M116.193 137.567V122.886C116.193 120.239 114.05 118.097 111.404 118.097H78.386C75.7396 118.097 73.5972 120.239 73.5972 122.886V137.567C73.5972 138.512 74.3533 139.268 75.2985 139.268H114.554C115.437 139.268 116.193 138.512 116.193 137.567Z" fill="#EE4D4A"/>
</svg>
