<svg width="148" height="144" viewBox="0 0 148 144" fill="none" xmlns="http://www.w3.org/2000/svg">
<path d="M114.011 19.5902C101.897 7.47613 85.2138 0 66.8004 0C29.9737 0 0 29.9737 0 66.8005C0 85.2138 7.47611 101.897 19.5902 114.011C31.7043 126.125 48.3871 133.601 66.8004 133.601C103.627 133.601 133.601 103.627 133.601 66.8005C133.532 48.3178 126.056 31.635 114.011 19.5902Z" fill="#5F9DD5"/>
<path d="M99.4741 34.0573C91.0981 25.6813 79.5378 20.4895 66.8007 20.4895C41.3265 20.4895 20.5596 41.2565 20.5596 66.7306C20.5596 79.4677 25.7513 91.028 34.1273 99.404C42.5033 107.78 54.0636 112.972 66.8007 112.972C92.2749 112.972 113.042 92.2048 113.042 66.7306C113.042 53.9936 107.85 42.4333 99.4741 34.0573Z" fill="white"/>
<path d="M84.937 48.5942C80.299 43.9562 73.8613 41.0488 66.8005 41.0488C52.6097 41.0488 41.1187 52.5399 41.1187 66.7306C41.1187 73.7914 44.026 80.2292 48.664 84.8671C53.3019 89.5051 59.7397 92.4125 66.8005 92.4125C80.9912 92.4125 92.4823 80.9214 92.4823 66.7306C92.4823 59.6699 89.5749 53.2321 84.937 48.5942Z" fill="#F0CA50"/>
<path d="M77.1152 72.6844C81.4071 72.3383 93.9365 72.1998 102.659 80.922L85.3528 98.2278C76.6999 89.5057 76.8383 76.9762 77.1152 72.6844Z" fill="#1C427B"/>
<path d="M113.527 132.147L116.365 117.887C116.503 117.264 116.296 116.641 115.88 116.156C115.465 115.672 114.842 115.395 114.219 115.464L103.42 116.295L85.353 98.2274L102.659 80.9216L120.726 98.9889L119.895 109.788C119.826 110.411 120.103 111.034 120.588 111.449C121.072 111.864 121.695 112.072 122.318 111.934L136.578 109.096L148 120.517L133.394 126.124L125.71 118.441C124.88 117.61 123.633 117.61 122.803 118.441C121.972 119.271 121.972 120.517 122.803 121.348L130.487 129.032L124.88 143.638L113.527 132.147Z" fill="#EE4D4A"/>
</svg>
