<svg width="194" height="281" viewBox="0 0 194 281" fill="none" xmlns="http://www.w3.org/2000/svg">
<g opacity="0.05">
<path opacity="0.64" d="M39.0001 220.849C39.0001 223.966 41.5274 226.493 44.6448 226.493C47.7623 226.493 50.2896 223.966 50.2896 220.849C50.2896 217.731 47.7623 215.204 44.6448 215.204C41.5274 215.204 39.0001 217.731 39.0001 220.849Z" fill="black"/>
<path opacity="0.64" d="M59.8152 220.849C59.8152 223.966 62.3423 226.493 65.4598 226.493C68.5773 226.493 71.1045 223.966 71.1045 220.849C71.1045 217.731 68.5773 215.204 65.4598 215.204C62.3423 215.204 59.8152 217.731 59.8152 220.849Z" fill="black"/>
<path opacity="0.64" d="M80.63 220.849C80.63 223.966 83.1572 226.493 86.2747 226.493C89.3922 226.493 91.9193 223.966 91.9193 220.849C91.9193 217.731 89.3922 215.204 86.2747 215.204C83.1572 215.204 80.63 217.731 80.63 220.849Z" fill="black"/>
<path opacity="0.64" d="M101.621 220.849C101.621 223.966 104.148 226.493 107.265 226.493C110.383 226.493 112.91 223.966 112.91 220.849C112.91 217.731 110.383 215.204 107.265 215.204C104.148 215.204 101.621 217.731 101.621 220.849Z" fill="black"/>
<path opacity="0.64" d="M39.0001 239.018C39.0001 242.135 41.5274 244.662 44.6448 244.662C47.7623 244.662 50.2896 242.135 50.2896 239.018C50.2896 235.9 47.7623 233.373 44.6448 233.373C41.5274 233.373 39.0001 235.9 39.0001 239.018Z" fill="black"/>
<path opacity="0.64" d="M59.8152 239.018C59.8152 242.135 62.3423 244.662 65.4598 244.662C68.5773 244.662 71.1045 242.135 71.1045 239.018C71.1045 235.9 68.5773 233.373 65.4598 233.373C62.3423 233.373 59.8152 235.9 59.8152 239.018Z" fill="black"/>
<path opacity="0.64" d="M80.63 239.018C80.63 242.135 83.1572 244.662 86.2747 244.662C89.3922 244.662 91.9193 242.135 91.9193 239.018C91.9193 235.9 89.3922 233.373 86.2747 233.373C83.1572 233.373 80.63 235.9 80.63 239.018Z" fill="black"/>
<path opacity="0.64" d="M101.621 239.018C101.621 242.135 104.148 244.662 107.265 244.662C110.383 244.662 112.91 242.135 112.91 239.018C112.91 235.9 110.383 233.373 107.265 233.373C104.148 233.373 101.621 235.9 101.621 239.018Z" fill="black"/>
<path opacity="0.64" d="M39.0001 257.187C39.0001 260.304 41.5274 262.831 44.6448 262.831C47.7623 262.831 50.2896 260.304 50.2896 257.187C50.2896 254.069 47.7623 251.542 44.6448 251.542C41.5274 251.542 39.0001 254.069 39.0001 257.187Z" fill="black"/>
<path opacity="0.64" d="M59.8152 257.187C59.8152 260.304 62.3423 262.831 65.4598 262.831C68.5773 262.831 71.1045 260.304 71.1045 257.187C71.1045 254.069 68.5773 251.542 65.4598 251.542C62.3423 251.542 59.8152 254.069 59.8152 257.187Z" fill="black"/>
<path opacity="0.64" d="M80.63 257.187C80.63 260.304 83.1572 262.831 86.2747 262.831C89.3922 262.831 91.9193 260.304 91.9193 257.187C91.9193 254.069 89.3922 251.542 86.2747 251.542C83.1572 251.542 80.63 254.069 80.63 257.187Z" fill="black"/>
<path opacity="0.64" d="M101.621 257.187C101.621 260.304 104.148 262.831 107.265 262.831C110.383 262.831 112.91 260.304 112.91 257.187C112.91 254.069 110.383 251.542 107.265 251.542C104.148 251.542 101.621 254.069 101.621 257.187Z" fill="black"/>
<path opacity="0.64" d="M39.0001 275.356C39.0001 278.473 41.5274 281 44.6448 281C47.7623 281 50.2896 278.473 50.2896 275.356C50.2896 272.238 47.7623 269.711 44.6448 269.711C41.5274 269.711 39.0001 272.238 39.0001 275.356Z" fill="black"/>
<path opacity="0.64" d="M59.8152 275.356C59.8152 278.473 62.3423 281 65.4598 281C68.5773 281 71.1045 278.473 71.1045 275.356C71.1045 272.238 68.5773 269.711 65.4598 269.711C62.3423 269.711 59.8152 272.238 59.8152 275.356Z" fill="black"/>
<path opacity="0.64" d="M80.63 275.356C80.63 278.473 83.1572 281 86.2747 281C89.3922 281 91.9193 278.473 91.9193 275.356C91.9193 272.238 89.3922 269.711 86.2747 269.711C83.1572 269.711 80.63 272.238 80.63 275.356Z" fill="black"/>
<path opacity="0.64" d="M101.621 275.356C101.621 278.473 104.148 281 107.265 281C110.383 281 112.91 278.473 112.91 275.356C112.91 272.238 110.383 269.711 107.265 269.711C104.148 269.711 101.621 272.238 101.621 275.356Z" fill="black"/>
<path opacity="0.64" d="M39.0001 148.879C39.0001 151.997 41.5274 154.524 44.6448 154.524C47.7623 154.524 50.2896 151.997 50.2896 148.879C50.2896 145.762 47.7623 143.234 44.6448 143.234C41.5274 143.234 39.0001 145.762 39.0001 148.879Z" fill="black"/>
<path opacity="0.64" d="M59.8152 148.879C59.8152 151.997 62.3423 154.524 65.4598 154.524C68.5773 154.524 71.1045 151.997 71.1045 148.879C71.1045 145.762 68.5773 143.234 65.4598 143.234C62.3423 143.234 59.8152 145.762 59.8152 148.879Z" fill="black"/>
<path opacity="0.64" d="M80.63 148.879C80.63 151.997 83.1572 154.524 86.2747 154.524C89.3922 154.524 91.9193 151.997 91.9193 148.879C91.9193 145.762 89.3922 143.234 86.2747 143.234C83.1572 143.234 80.63 145.762 80.63 148.879Z" fill="black"/>
<path opacity="0.64" d="M101.621 148.879C101.621 151.997 104.148 154.524 107.266 154.524C110.383 154.524 112.911 151.997 112.911 148.879C112.911 145.762 110.383 143.234 107.266 143.234C104.148 143.234 101.621 145.762 101.621 148.879Z" fill="black"/>
<path opacity="0.64" d="M39.0001 167.048C39.0001 170.166 41.5274 172.693 44.6448 172.693C47.7623 172.693 50.2896 170.166 50.2896 167.048C50.2896 163.931 47.7623 161.403 44.6448 161.403C41.5274 161.403 39.0001 163.931 39.0001 167.048Z" fill="black"/>
<path opacity="0.64" d="M59.8152 167.048C59.8152 170.166 62.3423 172.693 65.4598 172.693C68.5773 172.693 71.1045 170.166 71.1045 167.048C71.1045 163.931 68.5773 161.403 65.4598 161.403C62.3423 161.403 59.8152 163.931 59.8152 167.048Z" fill="black"/>
<path opacity="0.64" d="M80.63 167.048C80.63 170.166 83.1572 172.693 86.2747 172.693C89.3922 172.693 91.9193 170.166 91.9193 167.048C91.9193 163.931 89.3922 161.403 86.2747 161.403C83.1572 161.403 80.63 163.931 80.63 167.048Z" fill="black"/>
<path opacity="0.64" d="M101.621 167.048C101.621 170.166 104.148 172.693 107.265 172.693C110.383 172.693 112.91 170.166 112.91 167.048C112.91 163.931 110.383 161.403 107.265 161.403C104.148 161.403 101.621 163.931 101.621 167.048Z" fill="black"/>
<path opacity="0.64" d="M39.0001 185.04C39.0001 188.158 41.5274 190.685 44.6448 190.685C47.7623 190.685 50.2896 188.158 50.2896 185.04C50.2896 181.923 47.7623 179.396 44.6448 179.396C41.5274 179.396 39.0001 181.923 39.0001 185.04Z" fill="black"/>
<path opacity="0.64" d="M59.8152 185.04C59.8152 188.158 62.3423 190.685 65.4598 190.685C68.5773 190.685 71.1045 188.158 71.1045 185.04C71.1045 181.923 68.5773 179.396 65.4598 179.396C62.3423 179.396 59.8152 181.923 59.8152 185.04Z" fill="black"/>
<path opacity="0.64" d="M80.63 185.04C80.63 188.158 83.1572 190.685 86.2747 190.685C89.3922 190.685 91.9193 188.158 91.9193 185.04C91.9193 181.923 89.3922 179.396 86.2747 179.396C83.1572 179.396 80.63 181.923 80.63 185.04Z" fill="black"/>
<path opacity="0.64" d="M101.621 185.04C101.621 188.158 104.148 190.685 107.265 190.685C110.383 190.685 112.91 188.158 112.91 185.04C112.91 181.923 110.383 179.396 107.265 179.396C104.148 179.396 101.621 181.923 101.621 185.04Z" fill="black"/>
<path opacity="0.64" d="M39.0001 203.209C39.0001 206.327 41.5274 208.854 44.6448 208.854C47.7623 208.854 50.2896 206.327 50.2896 203.209C50.2896 200.092 47.7623 197.564 44.6448 197.564C41.5274 197.564 39.0001 200.092 39.0001 203.209Z" fill="black"/>
<path opacity="0.64" d="M59.8152 203.209C59.8152 206.327 62.3423 208.854 65.4598 208.854C68.5773 208.854 71.1045 206.327 71.1045 203.209C71.1045 200.092 68.5773 197.564 65.4598 197.564C62.3423 197.564 59.8152 200.092 59.8152 203.209Z" fill="black"/>
<path opacity="0.64" d="M80.63 203.209C80.63 206.327 83.1572 208.854 86.2747 208.854C89.3922 208.854 91.9193 206.327 91.9193 203.209C91.9193 200.092 89.3922 197.564 86.2747 197.564C83.1572 197.564 80.63 200.092 80.63 203.209Z" fill="black"/>
<path opacity="0.64" d="M101.621 203.209C101.621 206.327 104.148 208.854 107.265 208.854C110.383 208.854 112.91 206.327 112.91 203.209C112.91 200.092 110.383 197.564 107.265 197.564C104.148 197.564 101.621 200.092 101.621 203.209Z" fill="black"/>
<path opacity="0.64" d="M119.79 220.849C119.79 223.966 122.317 226.493 125.434 226.493C128.552 226.493 131.079 223.966 131.079 220.849C131.079 217.731 128.552 215.204 125.434 215.204C122.317 215.204 119.79 217.731 119.79 220.849Z" fill="black"/>
<path opacity="0.64" d="M140.605 220.849C140.605 223.966 143.132 226.493 146.249 226.493C149.367 226.493 151.894 223.966 151.894 220.849C151.894 217.731 149.367 215.204 146.249 215.204C143.132 215.204 140.605 217.731 140.605 220.849Z" fill="black"/>
<path opacity="0.64" d="M161.596 220.849C161.596 223.966 164.123 226.493 167.241 226.493C170.358 226.493 172.885 223.966 172.885 220.849C172.885 217.731 170.358 215.204 167.241 215.204C164.123 215.204 161.596 217.731 161.596 220.849Z" fill="black"/>
<path opacity="0.64" d="M182.411 220.849C182.411 223.966 184.938 226.493 188.055 226.493C191.173 226.493 193.7 223.966 193.7 220.849C193.7 217.731 191.173 215.204 188.055 215.204C184.938 215.204 182.411 217.731 182.411 220.849Z" fill="black"/>
<path opacity="0.64" d="M119.79 239.018C119.79 242.135 122.317 244.662 125.435 244.662C128.552 244.662 131.08 242.135 131.08 239.018C131.08 235.9 128.552 233.373 125.435 233.373C122.317 233.373 119.79 235.9 119.79 239.018Z" fill="black"/>
<path opacity="0.64" d="M140.605 239.018C140.605 242.135 143.132 244.662 146.249 244.662C149.367 244.662 151.894 242.135 151.894 239.018C151.894 235.9 149.367 233.373 146.249 233.373C143.132 233.373 140.605 235.9 140.605 239.018Z" fill="black"/>
<path opacity="0.64" d="M161.596 239.018C161.596 242.135 164.123 244.662 167.241 244.662C170.358 244.662 172.885 242.135 172.885 239.018C172.885 235.9 170.358 233.373 167.241 233.373C164.123 233.373 161.596 235.9 161.596 239.018Z" fill="black"/>
<path opacity="0.64" d="M182.411 239.018C182.411 242.135 184.938 244.662 188.055 244.662C191.173 244.662 193.7 242.135 193.7 239.018C193.7 235.9 191.173 233.373 188.055 233.373C184.938 233.373 182.411 235.9 182.411 239.018Z" fill="black"/>
<path opacity="0.64" d="M119.79 257.187C119.79 260.304 122.317 262.831 125.434 262.831C128.552 262.831 131.079 260.304 131.079 257.187C131.079 254.069 128.552 251.542 125.434 251.542C122.317 251.542 119.79 254.069 119.79 257.187Z" fill="black"/>
<path opacity="0.64" d="M140.605 257.187C140.605 260.304 143.132 262.831 146.249 262.831C149.367 262.831 151.894 260.304 151.894 257.187C151.894 254.069 149.367 251.542 146.249 251.542C143.132 251.542 140.605 254.069 140.605 257.187Z" fill="black"/>
<path opacity="0.64" d="M161.596 257.187C161.596 260.304 164.123 262.831 167.241 262.831C170.358 262.831 172.885 260.304 172.885 257.187C172.885 254.069 170.358 251.542 167.241 251.542C164.123 251.542 161.596 254.069 161.596 257.187Z" fill="black"/>
<path opacity="0.64" d="M182.411 257.187C182.411 260.304 184.938 262.831 188.055 262.831C191.173 262.831 193.7 260.304 193.7 257.187C193.7 254.069 191.173 251.542 188.055 251.542C184.938 251.542 182.411 254.069 182.411 257.187Z" fill="black"/>
<path opacity="0.64" d="M119.79 275.356C119.79 278.473 122.317 281 125.434 281C128.552 281 131.079 278.473 131.079 275.356C131.079 272.238 128.552 269.711 125.434 269.711C122.317 269.711 119.79 272.238 119.79 275.356Z" fill="black"/>
<path opacity="0.64" d="M140.605 275.356C140.605 278.473 143.132 281 146.249 281C149.367 281 151.894 278.473 151.894 275.356C151.894 272.238 149.367 269.711 146.249 269.711C143.132 269.711 140.605 272.238 140.605 275.356Z" fill="black"/>
<path opacity="0.64" d="M161.596 275.356C161.596 278.473 164.123 281 167.241 281C170.358 281 172.885 278.473 172.885 275.356C172.885 272.238 170.358 269.711 167.241 269.711C164.123 269.711 161.596 272.238 161.596 275.356Z" fill="black"/>
<path opacity="0.64" d="M182.411 275.356C182.411 278.473 184.938 281 188.055 281C191.173 281 193.7 278.473 193.7 275.356C193.7 272.238 191.173 269.711 188.055 269.711C184.938 269.711 182.411 272.238 182.411 275.356Z" fill="black"/>
<path opacity="0.64" d="M119.79 148.879C119.79 151.997 122.317 154.524 125.435 154.524C128.552 154.524 131.08 151.997 131.08 148.879C131.08 145.762 128.552 143.234 125.435 143.234C122.317 143.234 119.79 145.762 119.79 148.879Z" fill="black"/>
<path opacity="0.64" d="M140.605 148.879C140.605 151.997 143.132 154.524 146.249 154.524C149.367 154.524 151.894 151.997 151.894 148.879C151.894 145.762 149.367 143.234 146.249 143.234C143.132 143.234 140.605 145.762 140.605 148.879Z" fill="black"/>
<path opacity="0.64" d="M161.596 148.879C161.596 151.997 164.123 154.524 167.241 154.524C170.358 154.524 172.885 151.997 172.885 148.879C172.885 145.762 170.358 143.234 167.241 143.234C164.123 143.234 161.596 145.762 161.596 148.879Z" fill="black"/>
<path opacity="0.64" d="M182.411 148.879C182.411 151.997 184.938 154.524 188.055 154.524C191.173 154.524 193.7 151.997 193.7 148.879C193.7 145.762 191.173 143.234 188.055 143.234C184.938 143.234 182.411 145.762 182.411 148.879Z" fill="black"/>
<path opacity="0.64" d="M119.79 167.048C119.79 170.166 122.317 172.693 125.434 172.693C128.552 172.693 131.079 170.166 131.079 167.048C131.079 163.931 128.552 161.403 125.434 161.403C122.317 161.403 119.79 163.931 119.79 167.048Z" fill="black"/>
<path opacity="0.64" d="M140.605 167.048C140.605 170.166 143.132 172.693 146.249 172.693C149.367 172.693 151.894 170.166 151.894 167.048C151.894 163.931 149.367 161.403 146.249 161.403C143.132 161.403 140.605 163.931 140.605 167.048Z" fill="black"/>
<path opacity="0.64" d="M161.596 167.048C161.596 170.166 164.123 172.693 167.241 172.693C170.358 172.693 172.885 170.166 172.885 167.048C172.885 163.931 170.358 161.403 167.241 161.403C164.123 161.403 161.596 163.931 161.596 167.048Z" fill="black"/>
<path opacity="0.64" d="M182.411 167.048C182.411 170.166 184.938 172.693 188.055 172.693C191.173 172.693 193.7 170.166 193.7 167.048C193.7 163.931 191.173 161.403 188.055 161.403C184.938 161.403 182.411 163.931 182.411 167.048Z" fill="black"/>
<path opacity="0.64" d="M119.79 185.04C119.79 188.158 122.317 190.685 125.434 190.685C128.552 190.685 131.079 188.158 131.079 185.04C131.079 181.923 128.552 179.396 125.434 179.396C122.317 179.396 119.79 181.923 119.79 185.04Z" fill="black"/>
<path opacity="0.64" d="M140.605 185.04C140.605 188.158 143.132 190.685 146.249 190.685C149.367 190.685 151.894 188.158 151.894 185.04C151.894 181.923 149.367 179.396 146.249 179.396C143.132 179.396 140.605 181.923 140.605 185.04Z" fill="black"/>
<path opacity="0.64" d="M161.596 185.04C161.596 188.158 164.123 190.685 167.241 190.685C170.358 190.685 172.885 188.158 172.885 185.04C172.885 181.923 170.358 179.396 167.241 179.396C164.123 179.396 161.596 181.923 161.596 185.04Z" fill="black"/>
<path opacity="0.64" d="M182.411 185.04C182.411 188.158 184.938 190.685 188.055 190.685C191.173 190.685 193.7 188.158 193.7 185.04C193.7 181.923 191.173 179.396 188.055 179.396C184.938 179.396 182.411 181.923 182.411 185.04Z" fill="black"/>
<path opacity="0.64" d="M119.79 203.209C119.79 206.327 122.317 208.854 125.434 208.854C128.552 208.854 131.079 206.327 131.079 203.209C131.079 200.092 128.552 197.564 125.434 197.564C122.317 197.564 119.79 200.092 119.79 203.209Z" fill="black"/>
<path opacity="0.64" d="M140.605 203.209C140.605 206.327 143.132 208.854 146.249 208.854C149.367 208.854 151.894 206.327 151.894 203.209C151.894 200.092 149.367 197.564 146.249 197.564C143.132 197.564 140.605 200.092 140.605 203.209Z" fill="black"/>
<path opacity="0.64" d="M161.596 203.209C161.596 206.327 164.123 208.854 167.241 208.854C170.358 208.854 172.885 206.327 172.885 203.209C172.885 200.092 170.358 197.564 167.241 197.564C164.123 197.564 161.596 200.092 161.596 203.209Z" fill="black"/>
<path opacity="0.64" d="M182.411 203.209C182.411 206.327 184.938 208.854 188.055 208.854C191.173 208.854 193.7 206.327 193.7 203.209C193.7 200.092 191.173 197.564 188.055 197.564C184.938 197.564 182.411 200.092 182.411 203.209Z" fill="black"/>
<path opacity="0.64" d="M39.0001 77.7912C39.0001 80.9087 41.5274 83.4359 44.6448 83.4359C47.7623 83.4359 50.2896 80.9087 50.2896 77.7912C50.2896 74.6737 47.7623 72.1465 44.6448 72.1465C41.5274 72.1465 39.0001 74.6737 39.0001 77.7912Z" fill="black"/>
<path opacity="0.64" d="M59.8152 77.7912C59.8152 80.9087 62.3423 83.4359 65.4598 83.4359C68.5773 83.4359 71.1045 80.9087 71.1045 77.7912C71.1045 74.6737 68.5773 72.1465 65.4598 72.1465C62.3423 72.1465 59.8152 74.6737 59.8152 77.7912Z" fill="black"/>
<path opacity="0.64" d="M80.63 77.7912C80.63 80.9087 83.1572 83.4359 86.2747 83.4359C89.3922 83.4359 91.9193 80.9087 91.9193 77.7912C91.9193 74.6737 89.3922 72.1465 86.2747 72.1465C83.1572 72.1465 80.63 74.6737 80.63 77.7912Z" fill="black"/>
<path opacity="0.64" d="M101.621 77.7902C101.621 80.9077 104.148 83.4349 107.265 83.4349C110.383 83.4349 112.91 80.9077 112.91 77.7902C112.91 74.6727 110.383 72.1455 107.265 72.1455C104.148 72.1455 101.621 74.6727 101.621 77.7902Z" fill="black"/>
<path opacity="0.64" d="M39.0001 95.7834C39.0001 98.9009 41.5274 101.428 44.6448 101.428C47.7623 101.428 50.2896 98.9009 50.2896 95.7834C50.2896 92.6659 47.7623 90.1387 44.6448 90.1387C41.5274 90.1387 39.0001 92.6659 39.0001 95.7834Z" fill="black"/>
<path opacity="0.64" d="M59.8152 95.7834C59.8152 98.9009 62.3423 101.428 65.4598 101.428C68.5773 101.428 71.1045 98.9009 71.1045 95.7834C71.1045 92.6659 68.5773 90.1387 65.4598 90.1387C62.3423 90.1387 59.8152 92.6659 59.8152 95.7834Z" fill="black"/>
<path opacity="0.64" d="M80.63 95.7834C80.63 98.9009 83.1572 101.428 86.2747 101.428C89.3922 101.428 91.9193 98.9009 91.9193 95.7834C91.9193 92.6659 89.3922 90.1387 86.2747 90.1387C83.1572 90.1387 80.63 92.6659 80.63 95.7834Z" fill="black"/>
<path opacity="0.64" d="M101.621 95.7834C101.621 98.9009 104.148 101.428 107.265 101.428C110.383 101.428 112.91 98.9009 112.91 95.7834C112.91 92.6659 110.383 90.1387 107.265 90.1387C104.148 90.1387 101.621 92.6659 101.621 95.7834Z" fill="black"/>
<path opacity="0.64" d="M39.0001 113.952C39.0001 117.07 41.5274 119.597 44.6448 119.597C47.7623 119.597 50.2896 117.07 50.2896 113.952C50.2896 110.835 47.7623 108.308 44.6448 108.308C41.5274 108.308 39.0001 110.835 39.0001 113.952Z" fill="black"/>
<path opacity="0.64" d="M59.8152 113.952C59.8152 117.07 62.3423 119.597 65.4598 119.597C68.5773 119.597 71.1045 117.07 71.1045 113.952C71.1045 110.835 68.5773 108.308 65.4598 108.308C62.3423 108.308 59.8152 110.835 59.8152 113.952Z" fill="black"/>
<path opacity="0.64" d="M80.63 113.952C80.63 117.07 83.1572 119.597 86.2747 119.597C89.3922 119.597 91.9193 117.07 91.9193 113.952C91.9193 110.835 89.3922 108.308 86.2747 108.308C83.1572 108.308 80.63 110.835 80.63 113.952Z" fill="black"/>
<path opacity="0.64" d="M101.621 113.952C101.621 117.07 104.148 119.597 107.265 119.597C110.383 119.597 112.91 117.07 112.91 113.952C112.91 110.835 110.383 108.308 107.265 108.308C104.148 108.308 101.621 110.835 101.621 113.952Z" fill="black"/>
<path opacity="0.64" d="M39.0001 132.121C39.0001 135.239 41.5274 137.766 44.6448 137.766C47.7623 137.766 50.2896 135.239 50.2896 132.121C50.2896 129.004 47.7623 126.477 44.6448 126.477C41.5274 126.477 39.0001 129.004 39.0001 132.121Z" fill="black"/>
<path opacity="0.64" d="M59.8152 132.121C59.8152 135.239 62.3423 137.766 65.4598 137.766C68.5773 137.766 71.1045 135.239 71.1045 132.121C71.1045 129.004 68.5773 126.477 65.4598 126.477C62.3423 126.477 59.8152 129.004 59.8152 132.121Z" fill="black"/>
<path opacity="0.64" d="M80.63 132.121C80.63 135.239 83.1572 137.766 86.2747 137.766C89.3922 137.766 91.9193 135.239 91.9193 132.121C91.9193 129.004 89.3922 126.477 86.2747 126.477C83.1572 126.477 80.63 129.004 80.63 132.121Z" fill="black"/>
<path opacity="0.64" d="M101.621 132.121C101.621 135.239 104.148 137.766 107.265 137.766C110.383 137.766 112.91 135.239 112.91 132.121C112.91 129.004 110.383 126.477 107.265 126.477C104.148 126.477 101.621 129.004 101.621 132.121Z" fill="black"/>
<path opacity="0.64" d="M39.0001 5.64472C39.0001 8.7622 41.5274 11.2894 44.6448 11.2894C47.7623 11.2894 50.2896 8.7622 50.2896 5.64472C50.2896 2.52724 47.7623 -1.10469e-07 44.6448 -2.46738e-07C41.5274 -3.83008e-07 39.0001 2.52724 39.0001 5.64472Z" fill="black"/>
<path opacity="0.64" d="M59.8152 5.64472C59.8152 8.7622 62.3423 11.2894 65.4598 11.2894C68.5773 11.2894 71.1045 8.7622 71.1045 5.64472C71.1045 2.52724 68.5773 -1.10469e-07 65.4598 -2.46738e-07C62.3423 -3.83008e-07 59.8152 2.52724 59.8152 5.64472Z" fill="black"/>
<path opacity="0.64" d="M80.63 5.64472C80.63 8.7622 83.1572 11.2894 86.2747 11.2894C89.3922 11.2894 91.9193 8.7622 91.9193 5.64472C91.9193 2.52724 89.3922 -1.10464e-07 86.2747 -2.46734e-07C83.1572 -3.83003e-07 80.63 2.52724 80.63 5.64472Z" fill="black"/>
<path opacity="0.64" d="M101.621 5.64472C101.621 8.7622 104.148 11.2894 107.265 11.2894C110.383 11.2894 112.91 8.7622 112.91 5.64472C112.91 2.52724 110.383 -1.10469e-07 107.265 -2.46738e-07C104.148 -3.83008e-07 101.621 2.52724 101.621 5.64472Z" fill="black"/>
<path opacity="0.64" d="M39.0001 23.8136C39.0001 26.9311 41.5274 29.4584 44.6448 29.4584C47.7623 29.4584 50.2896 26.9311 50.2896 23.8136C50.2896 20.6962 47.7623 18.1689 44.6448 18.1689C41.5274 18.1689 39.0001 20.6962 39.0001 23.8136Z" fill="black"/>
<path opacity="0.64" d="M59.8152 23.8136C59.8152 26.9311 62.3423 29.4584 65.4598 29.4584C68.5773 29.4584 71.1045 26.9311 71.1045 23.8136C71.1045 20.6962 68.5773 18.1689 65.4598 18.1689C62.3423 18.1689 59.8152 20.6962 59.8152 23.8136Z" fill="black"/>
<path opacity="0.64" d="M80.63 23.8136C80.63 26.9311 83.1572 29.4584 86.2747 29.4584C89.3922 29.4584 91.9193 26.9311 91.9193 23.8136C91.9193 20.6962 89.3922 18.1689 86.2747 18.1689C83.1572 18.1689 80.63 20.6962 80.63 23.8136Z" fill="black"/>
<path opacity="0.64" d="M101.621 23.8136C101.621 26.9311 104.148 29.4584 107.265 29.4584C110.383 29.4584 112.91 26.9311 112.91 23.8136C112.91 20.6962 110.383 18.1689 107.265 18.1689C104.148 18.1689 101.621 20.6962 101.621 23.8136Z" fill="black"/>
<path opacity="0.64" d="M39.0001 41.9826C39.0001 45.1001 41.5274 47.6273 44.6448 47.6273C47.7623 47.6273 50.2896 45.1001 50.2896 41.9826C50.2896 38.8651 47.7623 36.3379 44.6448 36.3379C41.5274 36.3379 39.0001 38.8651 39.0001 41.9826Z" fill="black"/>
<path opacity="0.64" d="M59.8152 41.9826C59.8152 45.1001 62.3423 47.6273 65.4598 47.6273C68.5773 47.6273 71.1045 45.1001 71.1045 41.9826C71.1045 38.8651 68.5773 36.3379 65.4598 36.3379C62.3423 36.3379 59.8152 38.8651 59.8152 41.9826Z" fill="black"/>
<path opacity="0.64" d="M80.63 41.9826C80.63 45.1001 83.1572 47.6273 86.2747 47.6273C89.3922 47.6273 91.9193 45.1001 91.9193 41.9826C91.9193 38.8651 89.3922 36.3379 86.2747 36.3379C83.1572 36.3379 80.63 38.8651 80.63 41.9826Z" fill="black"/>
<path opacity="0.64" d="M101.621 41.9826C101.621 45.1001 104.148 47.6273 107.265 47.6273C110.383 47.6273 112.91 45.1001 112.91 41.9826C112.91 38.8651 110.383 36.3379 107.265 36.3379C104.148 36.3379 101.621 38.8651 101.621 41.9826Z" fill="black"/>
<path opacity="0.64" d="M39.0001 60.1516C39.0001 63.269 41.5274 65.7963 44.6448 65.7963C47.7623 65.7963 50.2896 63.269 50.2896 60.1516C50.2896 57.0341 47.7623 54.5068 44.6448 54.5068C41.5274 54.5068 39.0001 57.0341 39.0001 60.1516Z" fill="black"/>
<path opacity="0.64" d="M59.8152 60.1516C59.8152 63.269 62.3423 65.7963 65.4598 65.7963C68.5773 65.7963 71.1045 63.269 71.1045 60.1516C71.1045 57.0341 68.5773 54.5068 65.4598 54.5068C62.3423 54.5068 59.8152 57.0341 59.8152 60.1516Z" fill="black"/>
<path opacity="0.64" d="M80.63 60.1516C80.63 63.269 83.1572 65.7963 86.2747 65.7963C89.3922 65.7963 91.9193 63.269 91.9193 60.1516C91.9193 57.0341 89.3922 54.5068 86.2747 54.5068C83.1572 54.5068 80.63 57.0341 80.63 60.1516Z" fill="black"/>
<path opacity="0.64" d="M101.621 60.1516C101.621 63.269 104.148 65.7963 107.265 65.7963C110.383 65.7963 112.91 63.269 112.91 60.1516C112.91 57.0341 110.383 54.5068 107.265 54.5068C104.148 54.5068 101.621 57.0341 101.621 60.1516Z" fill="black"/>
<path opacity="0.64" d="M119.79 77.7902C119.79 80.9077 122.317 83.4349 125.435 83.4349C128.552 83.4349 131.08 80.9077 131.08 77.7902C131.08 74.6727 128.552 72.1455 125.435 72.1455C122.317 72.1455 119.79 74.6727 119.79 77.7902Z" fill="black"/>
<path opacity="0.64" d="M140.605 77.7902C140.605 80.9077 143.132 83.4349 146.249 83.4349C149.367 83.4349 151.894 80.9077 151.894 77.7902C151.894 74.6727 149.367 72.1455 146.249 72.1455C143.132 72.1455 140.605 74.6727 140.605 77.7902Z" fill="black"/>
<path opacity="0.64" d="M161.596 77.7912C161.596 80.9087 164.123 83.4359 167.241 83.4359C170.358 83.4359 172.885 80.9087 172.885 77.7912C172.885 74.6737 170.358 72.1465 167.241 72.1465C164.123 72.1465 161.596 74.6737 161.596 77.7912Z" fill="black"/>
<path opacity="0.64" d="M182.411 77.7912C182.411 80.9087 184.938 83.4359 188.055 83.4359C191.173 83.4359 193.7 80.9087 193.7 77.7912C193.7 74.6737 191.173 72.1465 188.055 72.1465C184.938 72.1465 182.411 74.6737 182.411 77.7912Z" fill="black"/>
<path opacity="0.64" d="M119.79 95.7834C119.79 98.9009 122.317 101.428 125.434 101.428C128.552 101.428 131.079 98.9009 131.079 95.7834C131.079 92.6659 128.552 90.1387 125.434 90.1387C122.317 90.1387 119.79 92.6659 119.79 95.7834Z" fill="black"/>
<path opacity="0.64" d="M140.605 95.7834C140.605 98.9009 143.132 101.428 146.249 101.428C149.367 101.428 151.894 98.9009 151.894 95.7834C151.894 92.6659 149.367 90.1387 146.249 90.1387C143.132 90.1387 140.605 92.6659 140.605 95.7834Z" fill="black"/>
<path opacity="0.64" d="M161.596 95.7834C161.596 98.9009 164.123 101.428 167.241 101.428C170.358 101.428 172.885 98.9009 172.885 95.7834C172.885 92.6659 170.358 90.1387 167.241 90.1387C164.123 90.1387 161.596 92.6659 161.596 95.7834Z" fill="black"/>
<path opacity="0.64" d="M182.411 95.7834C182.411 98.9009 184.938 101.428 188.055 101.428C191.173 101.428 193.7 98.9009 193.7 95.7834C193.7 92.6659 191.173 90.1387 188.055 90.1387C184.938 90.1387 182.411 92.6659 182.411 95.7834Z" fill="black"/>
<path opacity="0.64" d="M119.79 113.952C119.79 117.07 122.317 119.597 125.434 119.597C128.552 119.597 131.079 117.07 131.079 113.952C131.079 110.835 128.552 108.308 125.434 108.308C122.317 108.308 119.79 110.835 119.79 113.952Z" fill="black"/>
<path opacity="0.64" d="M140.605 113.952C140.605 117.07 143.132 119.597 146.249 119.597C149.367 119.597 151.894 117.07 151.894 113.952C151.894 110.835 149.367 108.308 146.249 108.308C143.132 108.308 140.605 110.835 140.605 113.952Z" fill="black"/>
<path opacity="0.64" d="M161.596 113.952C161.596 117.07 164.123 119.597 167.241 119.597C170.358 119.597 172.885 117.07 172.885 113.952C172.885 110.835 170.358 108.308 167.241 108.308C164.123 108.308 161.596 110.835 161.596 113.952Z" fill="black"/>
<path opacity="0.64" d="M182.411 113.952C182.411 117.07 184.938 119.597 188.055 119.597C191.173 119.597 193.7 117.07 193.7 113.952C193.7 110.835 191.173 108.308 188.055 108.308C184.938 108.308 182.411 110.835 182.411 113.952Z" fill="black"/>
<path opacity="0.64" d="M119.79 132.121C119.79 135.239 122.317 137.766 125.434 137.766C128.552 137.766 131.079 135.239 131.079 132.121C131.079 129.004 128.552 126.477 125.434 126.477C122.317 126.477 119.79 129.004 119.79 132.121Z" fill="black"/>
<path opacity="0.64" d="M140.605 132.121C140.605 135.239 143.132 137.766 146.249 137.766C149.367 137.766 151.894 135.239 151.894 132.121C151.894 129.004 149.367 126.477 146.249 126.477C143.132 126.477 140.605 129.004 140.605 132.121Z" fill="black"/>
<path opacity="0.64" d="M161.596 132.121C161.596 135.239 164.123 137.766 167.241 137.766C170.358 137.766 172.885 135.239 172.885 132.121C172.885 129.004 170.358 126.477 167.241 126.477C164.123 126.477 161.596 129.004 161.596 132.121Z" fill="black"/>
<path opacity="0.64" d="M182.411 132.121C182.411 135.239 184.938 137.766 188.055 137.766C191.173 137.766 193.7 135.239 193.7 132.121C193.7 129.004 191.173 126.477 188.055 126.477C184.938 126.477 182.411 129.004 182.411 132.121Z" fill="black"/>
<path opacity="0.64" d="M119.79 5.64472C119.79 8.7622 122.317 11.2894 125.435 11.2894C128.552 11.2894 131.08 8.7622 131.08 5.64472C131.08 2.52724 128.552 -1.10469e-07 125.435 -2.46738e-07C122.317 -3.83008e-07 119.79 2.52724 119.79 5.64472Z" fill="black"/>
<path opacity="0.64" d="M140.605 5.64472C140.605 8.7622 143.132 11.2894 146.249 11.2894C149.367 11.2894 151.894 8.7622 151.894 5.64472C151.894 2.52724 149.367 -1.10464e-07 146.249 -2.46734e-07C143.132 -3.83003e-07 140.605 2.52724 140.605 5.64472Z" fill="black"/>
<path opacity="0.64" d="M161.596 5.64472C161.596 8.7622 164.123 11.2894 167.241 11.2894C170.358 11.2894 172.885 8.7622 172.885 5.64472C172.885 2.52724 170.358 -1.10469e-07 167.241 -2.46738e-07C164.123 -3.83008e-07 161.596 2.52724 161.596 5.64472Z" fill="black"/>
<path opacity="0.64" d="M182.411 5.64472C182.411 8.7622 184.938 11.2894 188.055 11.2894C191.173 11.2894 193.7 8.7622 193.7 5.64472C193.7 2.52724 191.173 -1.10469e-07 188.055 -2.46738e-07C184.938 -3.83008e-07 182.411 2.52724 182.411 5.64472Z" fill="black"/>
<path opacity="0.64" d="M119.79 23.8136C119.79 26.9311 122.317 29.4584 125.435 29.4584C128.552 29.4584 131.08 26.9311 131.08 23.8136C131.08 20.6962 128.552 18.1689 125.435 18.1689C122.317 18.1689 119.79 20.6962 119.79 23.8136Z" fill="black"/>
<path opacity="0.64" d="M140.605 23.8136C140.605 26.9311 143.132 29.4584 146.249 29.4584C149.367 29.4584 151.894 26.9311 151.894 23.8136C151.894 20.6962 149.367 18.1689 146.249 18.1689C143.132 18.1689 140.605 20.6962 140.605 23.8136Z" fill="black"/>
<path opacity="0.64" d="M161.596 23.8136C161.596 26.9311 164.123 29.4584 167.241 29.4584C170.358 29.4584 172.885 26.9311 172.885 23.8136C172.885 20.6962 170.358 18.1689 167.241 18.1689C164.123 18.1689 161.596 20.6962 161.596 23.8136Z" fill="black"/>
<path opacity="0.64" d="M182.411 23.8136C182.411 26.9311 184.938 29.4584 188.055 29.4584C191.173 29.4584 193.7 26.9311 193.7 23.8136C193.7 20.6962 191.173 18.1689 188.055 18.1689C184.938 18.1689 182.411 20.6962 182.411 23.8136Z" fill="black"/>
<path opacity="0.64" d="M119.79 41.9826C119.79 45.1001 122.317 47.6273 125.435 47.6273C128.552 47.6273 131.08 45.1001 131.08 41.9826C131.08 38.8651 128.552 36.3379 125.435 36.3379C122.317 36.3379 119.79 38.8651 119.79 41.9826Z" fill="black"/>
<path opacity="0.64" d="M140.605 41.9826C140.605 45.1001 143.132 47.6273 146.249 47.6273C149.367 47.6273 151.894 45.1001 151.894 41.9826C151.894 38.8651 149.367 36.3379 146.249 36.3379C143.132 36.3379 140.605 38.8651 140.605 41.9826Z" fill="black"/>
<path opacity="0.64" d="M161.596 41.9826C161.596 45.1001 164.123 47.6273 167.241 47.6273C170.358 47.6273 172.885 45.1001 172.885 41.9826C172.885 38.8651 170.358 36.3379 167.241 36.3379C164.123 36.3379 161.596 38.8651 161.596 41.9826Z" fill="black"/>
<path opacity="0.64" d="M182.411 41.9826C182.411 45.1001 184.938 47.6273 188.055 47.6273C191.173 47.6273 193.7 45.1001 193.7 41.9826C193.7 38.8651 191.173 36.3379 188.055 36.3379C184.938 36.3379 182.411 38.8651 182.411 41.9826Z" fill="black"/>
<path opacity="0.64" d="M119.79 60.1516C119.79 63.269 122.317 65.7963 125.435 65.7963C128.552 65.7963 131.08 63.269 131.08 60.1516C131.08 57.0341 128.552 54.5068 125.435 54.5068C122.317 54.5068 119.79 57.0341 119.79 60.1516Z" fill="black"/>
<path opacity="0.64" d="M140.605 60.1506C140.605 63.2681 143.132 65.7953 146.249 65.7953C149.367 65.7953 151.894 63.2681 151.894 60.1506C151.894 57.0331 149.367 54.5059 146.249 54.5059C143.132 54.5059 140.605 57.0331 140.605 60.1506Z" fill="black"/>
<path opacity="0.64" d="M161.596 60.1516C161.596 63.269 164.123 65.7963 167.241 65.7963C170.358 65.7963 172.885 63.269 172.885 60.1516C172.885 57.0341 170.358 54.5068 167.241 54.5068C164.123 54.5068 161.596 57.0341 161.596 60.1516Z" fill="black"/>
<path opacity="0.64" d="M182.411 60.1516C182.411 63.269 184.938 65.7963 188.055 65.7963C191.173 65.7963 193.7 63.269 193.7 60.1516C193.7 57.0341 191.173 54.5068 188.055 54.5068C184.938 54.5068 182.411 57.0341 182.411 60.1516Z" fill="black"/>
</g>
<path fill-rule="evenodd" clip-rule="evenodd" d="M95.3334 122.151L137.329 237.7L136.389 238.041C104.351 249.692 69.1495 233.188 57.7375 201.145C46.0867 169.34 62.5975 134.146 94.392 122.496L95.3334 122.151ZM94.1415 124.727C63.9884 136.344 48.4618 170.016 59.617 200.461L59.6201 200.469C70.5447 231.151 104.017 247.11 134.763 236.496L94.1415 124.727Z" fill="#545A5C"/>
<path d="M149.181 229.937L115.034 135.613C141.062 126.062 169.956 139.673 179.269 165.702C188.582 191.73 175.21 220.624 149.181 229.937Z" fill="#F0CA50"/>
<path d="M40.9624 226C40.9624 226 34.2582 231.683 29 229.04C29 229.04 33.4038 234.326 31.3005 241C31.3005 241 35.507 236.969 43 237.96C43 237.96 38.5305 235.251 40.9624 226Z" fill="#F0CA50"/>
<path d="M10.8882 189.023L23.0234 178.135L12.1352 166L-2.99712e-05 176.888L10.8882 189.023Z" fill="#EE4D4A"/>
</svg>
