<svg width="141" height="149" viewBox="0 0 141 149" fill="none" xmlns="http://www.w3.org/2000/svg">
<circle cx="70.9523" cy="81.9176" r="54.1818" fill="#F0CA50"/>
<path d="M34.5275 112.234H44.6735C50.2311 112.234 54.6902 116.163 54.6902 120.934L58.6969 135.865L54.7548 149H27.4188C25.8032 149 24.5107 147.877 24.5107 146.474V120.934C24.5107 116.107 29.0344 112.234 34.5275 112.234Z" fill="#5C9EDC"/>
<path d="M84.2402 107.719L88.2394 130.746L84.2402 149H56.9558C55.3433 149 54.0532 147.71 54.0532 146.098V107.719C54.0532 102.172 58.5684 97.7209 64.0511 97.7209H74.1779C79.7251 97.6564 84.2402 102.172 84.2402 107.719Z" fill="#1C427B"/>
<path d="M46.8678 0.389362C24.1912 6.06744 6.12864 23.8887 0.38914 46.8259C-1.46776 54.1343 3.54024 61.274 10.7428 62.3984C12.6559 62.6795 12.881 62.5109 34.0946 62.5671H49.9064C56.8838 62.5671 62.5671 56.889 62.5671 49.9179C62.5671 43.003 62.5671 19.6161 62.5671 12.7012C62.5671 4.49332 54.8581 -1.63451 46.8678 0.389362Z" fill="#EE4D4A"/>
<path d="M90.1737 82.5627H100.3C105.848 82.5627 110.298 87.0779 110.298 92.5606L114.297 126.489L110.298 148.935H80.1113V92.5606C80.1758 87.0779 84.6265 82.5627 90.1737 82.5627Z" fill="#163459"/>
<path d="M140.357 149H110.17C110.17 139.97 110.17 74.6289 110.17 71.4683C110.17 65.9211 114.686 61.4705 120.168 61.4705H130.295C135.842 61.4705 140.293 65.9856 140.293 71.4683V149H140.357Z" fill="#EE4D4A"/>
<path d="M38.3911 97.3983C37.7978 97.3983 37.2044 97.1641 36.7891 96.7542C35.8991 95.8759 35.8991 94.4707 36.7891 93.5924L53.8182 76.7878C54.2335 76.378 54.8269 76.1438 55.4202 76.1438C56.0136 76.1438 56.6069 76.378 57.0223 76.7878L64.4985 84.1655L87.0457 61.9155H81.1122C79.8662 61.9155 78.8575 60.9201 78.8575 59.632C78.8575 58.4024 79.8662 57.407 81.1122 57.407C83.6043 57.407 85.6216 57.407 87.1643 57.407H89.7751C92.9198 57.407 93.0385 57.4655 93.3945 57.5826C94.1658 57.8754 94.6999 58.578 94.8185 59.3392V59.4563C94.8185 59.632 94.8185 60.7445 94.8185 64.1405V70.9326C94.8185 72.1622 93.8098 73.1576 92.5638 73.1576C91.3178 73.1576 90.3091 72.1622 90.3091 70.9326V65.0774L66.1005 88.9668C65.6851 89.3766 65.0918 89.6108 64.4985 89.6108C63.9051 89.6108 63.3118 89.3766 62.8964 88.9668L55.4202 81.5891L39.9932 96.8128C39.5778 97.1641 39.0438 97.3983 38.3911 97.3983Z" fill="white"/>
</svg>
