<svg width="170" height="124" viewBox="0 0 170 124" fill="none" xmlns="http://www.w3.org/2000/svg">
<path d="M153.139 30.9372L121.97 33.6442H121.815L97.8389 31.4012V15.4686H133.03C141.383 15.4686 148.885 20.4958 151.979 28.1528C152.443 29.0809 152.83 30.0091 153.139 30.9372Z" fill="#EE4D4A"/>
<path d="M164.818 92.8115V97.3746L154.532 103.021H97.8392L92.6572 100.546V59.8633L97.7619 43.1573V30.9371H113.23L121.893 33.6441L136.82 38.362L153.062 30.9371L151.67 54.4493L163.503 72.1608C164.431 78.967 164.818 85.9279 164.818 92.8115Z" fill="#EE4D4A"/>
<path d="M163.58 72.0825H144.631C142.697 72.0825 140.764 71.5411 139.139 70.4583L118.102 57.0779C115.163 55.2217 113.384 51.896 113.384 48.4155V30.8586H153.216C156.928 40.2945 159.713 49.9623 161.646 59.8622C162.42 63.9614 163.038 67.9833 163.58 72.0825Z" fill="#EE4D4A"/>
<path d="M158.089 70.5361H140.279C138.462 70.5361 136.644 70.0282 135.118 69.0125L115.345 56.4605C112.582 54.7192 110.91 51.5994 110.91 48.3345V31.8646H148.348C151.838 40.7162 154.455 49.7855 156.272 59.0725C156.999 62.9178 157.58 66.6907 158.089 70.5361Z" fill="white"/>
<path d="M164.895 103.02H154.608V87.5519C154.608 84.6902 156.929 82.4473 159.713 82.4473H164.895C167.757 82.4473 170 84.7675 170 87.5519V97.9158C170 100.7 167.679 103.02 164.895 103.02Z" fill="#5C9EDC"/>
<path d="M97.9166 43.1573L89.0222 72.1609L97.9166 82.4475H10.2871V77.1882L14.8503 68.4485L10.2871 43.1573V10.2865C10.2871 4.64052 14.8503 0 20.5737 0H87.63C93.276 0 97.9166 4.56317 97.9166 10.2865V43.1573Z" fill="#F0CA50"/>
<path d="M42.4618 76.4912C43.3899 78.1154 43.8539 79.817 43.8539 81.5185C43.8539 81.8279 43.8539 82.1373 43.7766 82.4467H10.2871V77.1874L14.6183 69.3757L10.2871 60.0173V43.1565C12.066 41.919 14.1543 41.2229 16.2425 41.2229C19.6456 41.2229 23.0487 42.9244 24.9823 46.2502C25.1369 46.4822 25.2916 46.7916 25.4463 47.0236C27.3025 49.7306 30.3963 51.3548 33.722 51.3548C39.6001 51.3548 43.8539 56.1501 43.8539 61.4868C43.8539 63.1883 43.3899 64.8899 42.4618 66.5141C41.5336 68.0609 41.1469 69.8398 41.1469 71.5414C41.0696 73.1656 41.5336 74.9444 42.4618 76.4912Z" fill="#F0CA50"/>
<path d="M43.7766 81.5185C43.7766 81.8279 43.7766 82.1373 43.6992 82.4467H10.2871V77.1874V69.3757V60.0173V43.1565C12.066 41.919 14.1543 41.2229 16.2425 41.2229C19.6456 41.2229 23.0487 42.9244 24.9823 46.2502C25.1369 46.4822 25.2916 46.7916 25.4463 47.0236C27.3799 58.0063 32.7166 69.8398 43.7766 81.5185Z" fill="#F0CA50"/>
<path d="M97.9169 60.0173V72.7788V82.4467H64.4274C64.4274 82.1373 64.3501 81.8279 64.3501 81.5185C64.3501 79.817 64.8142 78.1154 65.7423 76.4912C66.6704 74.9444 67.0571 73.1655 67.0571 71.464C67.0571 69.7624 66.593 67.9835 65.7423 66.4367C64.8142 64.8125 64.3501 63.1109 64.3501 61.4094C64.3501 56.1501 68.5266 51.2775 74.482 51.2775C78.1171 51.2775 81.4429 49.3439 83.2218 46.2502C85.1553 42.9244 88.5584 41.2229 91.9615 41.2229C94.0498 41.2229 96.138 41.8416 97.9169 43.1565V60.0173Z" fill="#F0CA50"/>
<path d="M126.224 123.593C136.177 123.593 144.245 115.525 144.245 105.572C144.245 95.6198 136.177 87.5515 126.224 87.5515C116.271 87.5515 108.203 95.6198 108.203 105.572C108.203 115.525 116.271 123.593 126.224 123.593Z" fill="#1C427B"/>
<path d="M126.225 113.307C130.496 113.307 133.959 109.845 133.959 105.573C133.959 101.302 130.496 97.8387 126.225 97.8387C121.953 97.8387 118.49 101.302 118.49 105.573C118.49 109.845 121.953 113.307 126.225 113.307Z" fill="white"/>
<path d="M97.9161 77.2646V103.02H10.2866C4.64057 103.02 0 98.4565 0 92.7332V87.4739C0 81.8279 4.56323 77.1873 10.2866 77.1873H33.1028H57.1564H97.9161V77.2646Z" fill="#5C9EDC"/>
<path d="M33.4892 123.593C43.4418 123.593 51.5101 115.525 51.5101 105.572C51.5101 95.6198 43.4418 87.5515 33.4892 87.5515C23.5365 87.5515 15.4683 95.6198 15.4683 105.572C15.4683 115.525 23.5365 123.593 33.4892 123.593Z" fill="#1C427B"/>
<path d="M33.4902 113.307C37.7617 113.307 41.2244 109.845 41.2244 105.573C41.2244 101.302 37.7617 97.8387 33.4902 97.8387C29.2186 97.8387 25.7559 101.302 25.7559 105.573C25.7559 109.845 29.2186 113.307 33.4902 113.307Z" fill="white"/>
</svg>
