<svg width="96" height="52" viewBox="0 0 96 52" fill="none" xmlns="http://www.w3.org/2000/svg">
<path d="M83.9997 27.1719C83.9997 27.1719 80.4135 38.8959 72.1377 39.8614C72.1377 39.8614 81.379 42.6201 83.9997 51.9993C83.9997 51.9993 85.7928 44.1373 95.31 39.5856C95.31 39.5856 88.1376 39.8615 83.9997 27.1719Z" fill="#F0CA50"/>
<path d="M8.5517 7.03418C8.5517 7.03418 3.72412 11.1721 0 9.24107C0.924917 10.4109 1.55754 11.7844 1.8454 13.2477C2.13325 14.711 2.06806 16.2218 1.65518 17.6548C2.81668 16.7566 4.15179 16.1091 5.57623 15.7529C7.00066 15.3968 8.48347 15.34 9.931 15.5859C9.931 15.5859 6.7586 13.6548 8.5517 7.03418Z" fill="#F0CA50"/>
<path d="M57.2408 0L19.0342 37.3791C16.2756 40.8274 16.8273 45.3791 19.1721 47.448C21.5169 49.517 27.31 48.9653 29.9306 44.5515L57.2408 0Z" fill="#EE4D4A"/>
<path d="M23.7243 46.4818C26.162 46.4818 28.1381 44.5057 28.1381 42.068C28.1381 39.6304 26.162 37.6543 23.7243 37.6543C21.2867 37.6543 19.3105 39.6304 19.3105 42.068C19.3105 44.5057 21.2867 46.4818 23.7243 46.4818Z" fill="white"/>
</svg>
