<svg width="166" height="347" viewBox="0 0 166 347" fill="none" xmlns="http://www.w3.org/2000/svg">
<g opacity="0.2">
<path d="M165 173.5C165 268.769 87.7691 346 -7.49998 346C-102.769 346 -180 268.769 -180 173.5C-180 78.2308 -102.769 0.999997 -7.5 0.999992C87.7691 0.999988 165 78.2308 165 173.5Z" stroke="#545A5C" stroke-miterlimit="10"/>
<path d="M129 173.499C129 146.281 120.951 119.676 105.874 97.0533C90.7968 74.4301 69.3691 56.8068 44.3048 46.4156C19.2405 36.0243 -8.33272 33.3326 -34.9225 38.6812C-61.5122 44.0298 -85.9223 57.1782 -105.061 76.4611C-124.199 95.744 -137.205 120.294 -142.432 147.001C-147.658 173.708 -144.869 201.371 -134.419 226.487C-123.969 251.602 -106.327 273.04 -83.7277 288.085C-61.1287 303.129 -34.5893 311.104 -7.47098 310.999C28.7719 310.859 63.4827 296.31 89.0609 270.539C114.639 244.768 129 209.874 129 173.499V173.499Z" stroke="#545A5C" stroke-miterlimit="10"/>
<path d="M92.9986 173.499C92.9983 153.401 87.0612 133.756 75.9397 117.053C64.8182 100.351 49.013 87.3415 30.527 79.6751C12.041 72.0087 -8.29369 70.0299 -27.8999 73.9896C-47.5061 77.9493 -65.5014 87.6691 -79.6051 101.917C-93.7088 116.166 -103.286 134.301 -107.123 154.025C-110.96 173.749 -108.885 194.173 -101.159 212.711C-93.4337 231.248 -80.4061 247.063 -63.7275 258.152C-47.0488 269.241 -27.4698 275.104 -7.47184 274.999C5.76674 274.999 18.8748 272.37 31.0991 267.262C43.3233 262.155 54.4225 254.67 63.759 245.238C73.0955 235.806 80.4852 224.612 85.5031 212.301C90.521 199.989 93.0683 186.803 92.9986 173.499V173.499Z" stroke="#545A5C" stroke-miterlimit="10"/>
<path d="M56.9978 173.498C56.9974 160.521 53.1717 147.836 46.0059 137.053C38.8401 126.271 28.6572 117.876 16.7494 112.934C4.84159 107.993 -8.25449 106.727 -20.8773 109.298C-33.5 111.869 -45.0806 118.16 -54.1495 127.374C-63.2184 136.588 -69.3668 148.308 -71.8148 161.049C-74.2628 173.79 -72.9001 186.976 -67.8993 198.935C-62.8986 210.894 -54.4853 221.086 -43.727 228.219C-32.9687 235.352 -20.3501 239.103 -7.47257 238.998C1.03847 238.998 9.46536 237.3 17.3219 234.002C25.1785 230.704 32.3091 225.871 38.3027 219.781C44.2963 213.692 49.0341 206.467 52.2428 198.523C55.4515 190.58 57.0676 182.074 56.9978 173.498Z" stroke="#545A5C" stroke-miterlimit="10"/>
</g>
<path d="M39.6335 288.927C39.6335 288.927 46.7936 300.185 55.6239 298.761C55.6239 298.761 46.8375 304.391 46.8695 314.985C46.8695 314.985 42.5874 307.25 31.2607 305.271C31.2607 305.271 38.9759 303.393 39.6335 288.927Z" fill="#8EC6D8"/>
<path d="M116.385 130C116.385 130 134.103 145.154 148 138.106C148 138.106 136.362 152.203 141.92 170C141.92 170 130.803 159.251 111 161.894C111 161.894 122.812 154.67 116.385 130Z" fill="#EE4D4A"/>
<path d="M73.4633 327.686L72.3145 317.149L82.8512 316L84.0001 326.537L73.4633 327.686Z" fill="#F0CA50"/>
</svg>
