<svg width="141" height="160" viewBox="0 0 141 160" fill="none" xmlns="http://www.w3.org/2000/svg">
<path d="M97.4579 160H42.8611L24.0547 138.351C30.9795 114.077 48.1823 106.642 48.1823 106.642H92.0639C92.0639 106.642 109.267 114.077 116.191 138.351L97.4579 160Z" fill="#5C9EDC"/>
<path d="M42.8621 138.351V160H21.2129C21.2129 151.617 22.3063 144.474 24.0557 138.351H42.8621Z" fill="#FDDCCF"/>
<path d="M119.035 160H97.3862V138.351H116.193C118.015 144.474 119.035 151.617 119.035 160Z" fill="#FDDCCF"/>
<path d="M70.1237 131.353C79.7856 131.353 87.618 123.521 87.618 113.859C87.618 104.197 79.7856 96.3647 70.1237 96.3647C60.4619 96.3647 52.6294 104.197 52.6294 113.859C52.6294 123.521 60.4619 131.353 70.1237 131.353Z" fill="#FDDCCF"/>
<path d="M5.61377 64.5103C5.61377 28.9385 34.5523 0 70.1241 0C105.696 0 134.634 28.9385 134.634 64.5103H5.61377Z" fill="#EE4D4A"/>
<path d="M20.1914 81.7858C31.3427 81.7858 40.3827 72.7458 40.3827 61.5944C40.3827 50.4431 31.3427 41.4031 20.1914 41.4031C9.03998 41.4031 0 50.4431 0 61.5944C0 72.7458 9.03998 81.7858 20.1914 81.7858Z" fill="#1C427B"/>
<path d="M120.129 81.7858C131.28 81.7858 140.32 72.7458 140.32 61.5944C140.32 50.4431 131.28 41.4031 120.129 41.4031C108.977 41.4031 99.9375 50.4431 99.9375 61.5944C99.9375 72.7458 108.977 81.7858 120.129 81.7858Z" fill="#1C427B"/>
<path d="M33.1673 30.9795C25.0762 39.7995 20.1924 51.6082 20.1924 64.5103C20.1924 92.1367 42.5705 114.515 70.197 114.515C97.8234 114.515 120.202 92.1367 120.202 64.5103C120.202 51.3895 115.099 39.3622 106.789 30.4692L33.1673 30.9795Z" fill="#FDDCCF"/>
<path d="M70.1234 14.5786C56.4924 14.5786 44.1735 20.0456 35.1348 28.8656C34.4058 29.5217 33.7498 30.2506 33.0938 30.9795C34.7703 31.7814 36.3739 32.4374 37.9776 33.0205C49.4947 37.1025 58.3876 35.9363 58.3876 35.9363C56.9298 37.2483 55.399 38.5604 53.7954 39.6538C51.5357 41.2575 51.9001 44.6834 54.4514 45.7768C59.6268 48.0365 65.3853 49.2757 71.4355 49.2757C86.087 49.2757 99.0619 41.8406 106.716 30.5422C97.6041 20.7016 84.6291 14.5786 70.1234 14.5786Z" fill="#F0CA50"/>
<path d="M58.1691 78.2871H47.0164L45.0483 86.0138L47.0164 93.7404H58.1691C62.4698 93.7404 65.8957 90.3145 65.8957 86.0138C65.8957 81.7131 62.4698 78.2871 58.1691 78.2871Z" fill="white"/>
<path d="M8.82129 78.2876C8.82129 86.8161 14.7256 93.7409 23.2541 93.7409H47.0172V78.2876H8.82129Z" fill="#EE4D4A"/>
</svg>
