<svg width="148" height="160" viewBox="0 0 148 160" fill="none" xmlns="http://www.w3.org/2000/svg">
<path d="M113.761 160H10.6264C4.73095 160 0 155.269 0 149.374C0 143.478 4.73095 138.747 10.6264 138.747H113.761C119.657 138.747 124.388 143.478 124.388 149.374C124.388 155.269 119.657 160 113.761 160Z" fill="#1C427B"/>
<path d="M98.4026 118.658H25.9827C20.4511 118.658 15.9385 123.17 15.9385 128.702C15.9385 134.233 20.4511 138.746 25.9827 138.746H98.4026C103.934 138.746 108.447 134.233 108.447 128.702C108.447 123.17 103.934 118.658 98.4026 118.658Z" fill="#EE4D4A"/>
<path d="M142.511 84.5231L85.4485 47.185C80.6447 44.0552 74.1669 45.3653 70.9645 50.2419C67.762 55.1184 69.1449 61.5234 74.0214 64.7259L131.084 102.064C135.888 105.194 142.365 103.884 145.568 99.0071C148.698 94.1306 147.315 87.6528 142.511 84.5231Z" fill="#5C9EDC"/>
<path d="M77.8061 13.1211L114.562 37.1398L77.8789 93.2562L41.123 69.2375L77.8061 13.1211Z" fill="#F0CA50"/>
<path d="M78.7502 89.4721L41.9944 65.4534C37.1906 62.3237 30.7128 63.6338 27.5104 68.5104C24.3079 73.3869 25.6908 79.7919 30.5673 82.9943L67.3232 107.013C72.1269 110.143 78.6046 108.833 81.8071 103.956C84.9368 99.0796 83.554 92.6018 78.7502 89.4721Z" fill="#1C427B"/>
<path d="M123.657 25.7137L86.9016 1.69503C82.0978 -1.43468 75.6201 -0.124585 72.4176 4.75194C69.2151 9.62846 70.598 16.0335 75.4745 19.2359L112.23 43.2546C117.034 46.3843 123.512 45.0742 126.714 40.1977C129.844 35.3212 128.461 28.8434 123.657 25.7137Z" fill="#1C427B"/>
</svg>
