<svg width="148" height="148" viewBox="0 0 148 148" fill="none" xmlns="http://www.w3.org/2000/svg">
<path d="M13.4545 31.4001V82.998H0V31.4001C0 27.7001 3.02725 24.6729 6.72723 24.6729C10.4272 24.6729 13.4545 27.7001 13.4545 31.4001Z" fill="#5C9EDC"/>
<path d="M134.545 69.5438V96.4528H121.09V69.5438C121.09 64.0275 120.148 58.7802 118.399 53.8694C111.941 35.504 94.4505 22.4532 73.9997 22.4532C53.4816 22.4532 36.0581 35.5713 29.5999 53.8694C27.8509 58.7802 26.9091 64.0275 26.9091 69.5438V96.4528H13.4546V69.5438C13.4546 66.2475 13.7237 63.0184 14.2619 59.8566C14.3291 59.453 14.3964 59.0493 14.4637 58.7129C19.5764 30.3913 44.3999 9.06601 73.9997 9.06601C103.734 9.06601 128.423 30.4586 133.536 58.7129C133.603 59.1166 133.67 59.5202 133.737 59.8566C134.276 63.0184 134.545 66.2475 134.545 69.5438Z" fill="#5C9EDC"/>
<path d="M22.469 67.2573C22.469 67.2573 23.2089 67.1228 7.19814 70.3518C3.02725 71.1591 0 74.8591 0 79.0972V113.81C0 118.048 3.02725 121.748 7.19814 122.555C23.1417 125.717 22.4017 125.582 22.469 125.65C32.9634 82.259 22.469 67.2573 22.469 67.2573Z" fill="#1C427B"/>
<path d="M148 79.0974V113.81C148 117.712 145.511 121.075 141.945 122.286C141.609 122.421 141.205 122.488 140.802 122.555C126.069 125.515 125.531 125.582 125.531 125.65C115.171 82.73 125.329 67.6611 125.531 67.3247C125.531 67.3247 126.002 67.4593 136.833 69.612C138.044 69.8811 139.322 70.0829 140.802 70.4192C144.973 71.1592 148 74.8592 148 79.0974Z" fill="#1C427B"/>
<path d="M40.3637 67.2568V125.582C40.3637 127.264 39.4219 128.744 38.0091 129.484C37.4037 129.82 36.6637 130.022 35.8564 130.022H26.9092C24.4201 130.022 22.4692 128.004 22.4692 125.582V67.2568C22.4692 64.7677 24.4874 62.8168 26.9092 62.8168H35.9237C38.3455 62.8168 40.3637 64.835 40.3637 67.2568Z" fill="#EE4D4A"/>
<path d="M125.597 67.2568V125.582C125.597 127.264 124.656 128.744 123.243 129.484C122.637 129.82 121.897 130.022 121.09 130.022H112.076C109.587 130.022 107.636 128.004 107.636 125.582V67.2568C107.636 64.7677 109.654 62.8168 112.076 62.8168H121.09C123.579 62.8168 125.597 64.835 125.597 67.2568Z" fill="#EE4D4A"/>
<path d="M119.61 28.4407L109.923 38.1279C106.896 41.1552 102.052 41.6261 98.5539 39.137C89.1358 32.4771 77.6322 30.1226 66.7341 32.0062C60.6796 33.0825 54.8269 35.437 49.5797 39.137C46.0815 41.6261 41.2379 41.1552 38.2107 38.1279L28.5235 28.4407C24.6889 24.6062 25.0926 18.2826 29.4653 14.9863C39.0179 7.72085 49.9833 3.07907 61.2851 1.12818C81.0631 -2.36998 101.985 2.27179 118.803 14.9863C122.974 18.2826 123.377 24.6062 119.61 28.4407Z" fill="#F0CA50"/>
<path d="M33.6367 129.684C33.6367 133.452 36.7313 136.412 40.364 136.412H47.3603C48.3694 132.577 51.8675 129.684 56.0384 129.684H64.9856C69.8965 129.684 73.9329 133.721 73.9329 138.632C73.9329 143.543 69.8965 147.579 64.9856 147.579H56.0384C51.8675 147.579 48.3694 144.686 47.3603 140.852H40.364C34.2422 140.852 29.1968 135.941 29.1968 129.617" fill="#5C9EDC"/>
</svg>
