<svg width="172" height="165" viewBox="0 0 172 165" fill="none" xmlns="http://www.w3.org/2000/svg">
<path d="M132 138C145.647 138 158.987 133.953 170.334 126.371C181.681 118.79 190.525 108.013 195.748 95.4052C200.97 82.7971 202.336 68.9235 199.674 55.5388C197.012 42.1541 190.44 29.8595 180.79 20.2097C171.14 10.5599 158.846 3.98822 145.461 1.32585C132.077 -1.33653 118.203 0.0298989 105.595 5.25234C92.9867 10.4748 82.2104 19.3187 74.6286 30.6657C67.0468 42.0126 63 55.3531 63 69C63 87.2999 70.2696 104.85 83.2096 117.79C96.1496 130.73 113.7 138 132 138Z" fill="#1C437C"/>
<path d="M194.254 68.2332C194.254 51.9666 187.792 36.3662 176.289 24.864C164.787 13.3618 149.187 6.8999 132.92 6.8999C116.654 6.8999 101.053 13.3618 89.551 24.864C78.0488 36.3662 71.5869 51.9666 71.5869 68.2332H194.254Z" fill="#8EC6D8"/>
<path d="M71.5869 71.1465C71.5869 87.4131 78.0488 103.013 89.551 114.516C101.053 126.018 116.654 132.48 132.92 132.48C149.187 132.48 164.787 126.018 176.289 114.516C187.792 103.013 194.254 87.4131 194.254 71.1465H71.5869Z" fill="#1C437C"/>
<path d="M164.353 66.7001C163.676 54.9793 158.542 43.9611 150.005 35.9025C141.467 27.8439 130.171 23.3548 118.43 23.3548C106.69 23.3548 95.3937 27.8439 86.8558 35.9025C78.3179 43.9611 73.1844 54.9793 72.5068 66.7001H164.353Z" fill="white"/>
<path d="M72.0469 68.2333H194.253" stroke="#F0CA50" stroke-width="4"/>
<path d="M72.5068 68.8465C72.5068 81.0464 77.3533 92.7467 85.9799 101.373C94.6066 110 106.307 114.846 118.507 114.846C130.707 114.846 142.407 110 151.034 101.373C159.66 92.7467 164.507 81.0464 164.507 68.8465H72.5068Z" fill="#EE4D4A"/>
<path d="M72.6602 66.5464H164.353" stroke="black" stroke-width="4"/>
<path d="M40.2 142C40.2 142 30 150.6 22 146.6C22 146.6 28.7 154.6 25.5 164.7C25.5 164.7 31.9 158.6 43.3 160.1C43.3 160.1 36.5 156 40.2 142Z" fill="#F0CA50"/>
<path d="M12.9816 97.2381L10.2383 87L0.000230292 89.7433L2.74351 99.9813L12.9816 97.2381Z" fill="#EE4D4A"/>
</svg>
