<svg width="149" height="150" viewBox="0 0 149 150" fill="none" xmlns="http://www.w3.org/2000/svg">
<path d="M96.6582 96.6579L106.958 106.958C110.642 110.642 116.781 110.232 119.851 106.003C128.036 94.9526 132.879 81.2418 132.879 66.4397L120.533 58.8681L109.073 66.4397L96.6582 96.6579Z" fill="#1C427B"/>
<path d="M66.4393 23.738L59.5498 12.2783L66.4393 0C84.7885 0 101.432 7.43518 113.438 19.4406L111.255 33.4242L96.6575 36.2209L66.4393 23.738Z" fill="#5C9EDC"/>
<path d="M23.8062 66.439L13.3697 74.0788L0 66.439C0 48.0898 7.43518 31.4459 19.4406 19.4404L33.6971 22.1689L36.2891 36.2207L23.8062 66.439Z" fill="#F0CA50"/>
<path d="M36.2901 36.289L19.5098 19.5086C31.5152 7.50314 48.1591 0.0679626 66.5083 0.0679626V23.806L36.2901 36.289Z" fill="#5C9EDC"/>
<path d="M23.8062 66.4394H0C0 81.2416 4.8431 94.9523 13.0286 106.003C16.1664 110.164 22.2373 110.641 25.9208 106.958L36.2209 96.6577L23.8062 66.4394Z" fill="#F0CA50"/>
<path d="M96.6582 36.289L113.439 19.5086C125.444 31.514 132.879 48.1579 132.879 66.5071H109.141L96.6582 36.289Z" fill="#1C427B"/>
<path d="M109.14 66.4396C109.14 78.2404 104.365 88.8815 96.6574 96.5895C88.9494 104.298 78.24 109.072 66.5074 109.072C54.7066 109.072 44.0655 104.298 36.3574 96.5895C28.6494 88.8815 23.8745 78.1721 23.8745 66.4396C23.8745 54.6388 28.6494 43.9976 36.3574 36.2896C44.0655 28.5816 54.7749 23.8066 66.5074 23.8066C78.24 23.8066 88.9494 28.5816 96.6574 36.2896C104.365 43.9976 109.14 54.6388 109.14 66.4396Z" fill="white"/>
<path d="M62.7559 57.5034L81.0369 43.8608C83.5608 41.9509 87.1761 42.4965 89.086 45.0204C90.6549 47.135 90.5867 49.9317 89.086 51.9099L75.4435 70.1909C72.4421 74.2154 66.7805 75.034 62.7559 72.0326C57.9128 68.4855 57.7764 61.1868 62.7559 57.5034Z" fill="#5C9EDC"/>
<path d="M141.201 92.906C139.973 91.2689 137.381 91.8828 137.04 93.9292C136.358 97.6127 134.584 102.524 130.014 106.344C131.037 85.0615 116.508 88.1311 119.85 67.1898C120.123 65.3481 118.281 63.9156 116.576 64.666C110.369 67.3945 99.1819 75.1707 99.1819 95.4299C94.6799 91.61 93.0428 86.9715 92.4288 83.5608C92.0878 81.6509 89.7685 80.9006 88.4043 82.3331C84.1069 86.8351 81.1055 92.4967 79.332 98.4312C75.7167 110.368 76.3989 123.465 83.3566 134.038C89.8368 143.929 100.887 150 112.688 150C132.333 150 148.295 134.038 148.295 114.393C148.363 106.276 145.703 98.8405 141.201 92.906Z" fill="#EE4D4A"/>
</svg>
