<svg width="149" height="149" viewBox="0 0 149 149" fill="none" xmlns="http://www.w3.org/2000/svg">
<path d="M127.22 86.896H22.0297C18.2185 86.896 15.0933 83.7708 15.0933 79.9596V6.93641C15.0933 3.12519 18.2185 0 22.0297 0H127.22C131.031 0 134.156 3.12519 134.156 6.93641V79.9596C134.156 83.7708 131.031 86.896 127.22 86.896Z" fill="#EE4D4A"/>
<path d="M63.9524 33.0051V39.5604C63.9524 43.5241 60.751 46.6493 56.8635 46.6493H7.08888C3.12521 46.6493 0 49.8507 0 53.7381V129.505C0 133.469 3.20143 136.594 7.08888 136.594H130.115H141.854C145.818 136.594 148.943 133.393 148.943 129.505V33.0051C148.943 29.0414 145.741 25.9162 141.854 25.9162H71.0413C67.1538 25.84 63.9524 29.0414 63.9524 33.0051Z" fill="#F1CA50"/>
<path d="M62.8857 103.818V114.947C62.8857 128.21 55.7969 140.482 44.2107 147.114C39.7897 149.629 34.3778 149.629 29.9568 147.114C18.4468 140.482 11.2817 128.21 11.2817 114.947V103.818C11.2817 101.76 13.1111 100.159 15.1692 100.388C18.9042 100.845 24.8497 100.845 30.6428 97.6438C32.091 96.8815 33.4631 95.8906 34.8351 94.671C36.1309 93.4514 38.189 93.4514 39.4848 94.671C46.345 100.845 54.4248 100.998 59.1507 100.464C61.0564 100.159 62.8857 101.76 62.8857 103.818Z" fill="#5C9EDC"/>
<path d="M53.4387 109.873V115.263C53.4387 124.951 48.194 133.984 39.8171 138.792C38.8702 139.374 37.7047 139.593 36.5392 139.447C35.8108 139.374 35.0823 139.156 34.4268 138.792C25.977 133.984 20.8052 124.951 20.8052 115.263V109.873C23.0633 109.8 25.54 109.509 28.2351 108.78C31.1488 107.979 34.2082 106.668 37.1948 104.701C42.7308 108.489 48.7039 109.727 53.4387 109.873Z" fill="white"/>
</svg>
