<svg width="281" height="222" viewBox="0 0 281 222" fill="none" xmlns="http://www.w3.org/2000/svg">
<g opacity="0.05">
<path opacity="0.64" d="M60.1492 221.7C57.0317 221.7 54.5046 219.173 54.5046 216.055C54.5046 212.938 57.0317 210.411 60.1492 210.411C63.2667 210.411 65.7939 212.938 65.7939 216.055C65.7939 219.173 63.2667 221.7 60.1492 221.7Z" fill="white"/>
<path opacity="0.64" d="M60.1492 200.885C57.0317 200.885 54.5046 198.358 54.5046 195.24C54.5046 192.123 57.0317 189.596 60.1492 189.596C63.2667 189.596 65.7939 192.123 65.7939 195.24C65.7939 198.358 63.2667 200.885 60.1492 200.885Z" fill="white"/>
<path opacity="0.64" d="M60.1492 180.07C57.0317 180.07 54.5046 177.543 54.5046 174.425C54.5046 171.308 57.0317 168.781 60.1492 168.781C63.2667 168.781 65.7939 171.308 65.7939 174.425C65.7939 177.543 63.2667 180.07 60.1492 180.07Z" fill="white"/>
<path opacity="0.64" d="M60.1492 159.079C57.0317 159.079 54.5046 156.552 54.5046 153.435C54.5046 150.317 57.0317 147.79 60.1492 147.79C63.2667 147.79 65.7939 150.317 65.7939 153.435C65.7939 156.552 63.2667 159.079 60.1492 159.079Z" fill="white"/>
<path opacity="0.64" d="M41.9813 221.7C38.8638 221.7 36.3366 219.173 36.3366 216.055C36.3366 212.938 38.8638 210.411 41.9813 210.411C45.0988 210.411 47.626 212.938 47.626 216.055C47.626 219.173 45.0988 221.7 41.9813 221.7Z" fill="white"/>
<path opacity="0.64" d="M41.9813 200.885C38.8638 200.885 36.3366 198.358 36.3366 195.24C36.3366 192.123 38.8638 189.596 41.9813 189.596C45.0988 189.596 47.626 192.123 47.626 195.24C47.626 198.358 45.0988 200.885 41.9813 200.885Z" fill="white"/>
<path opacity="0.64" d="M41.9813 180.07C38.8638 180.07 36.3366 177.543 36.3366 174.425C36.3366 171.308 38.8638 168.781 41.9813 168.781C45.0988 168.781 47.626 171.308 47.626 174.425C47.626 177.543 45.0988 180.07 41.9813 180.07Z" fill="white"/>
<path opacity="0.64" d="M41.9813 159.079C38.8638 159.079 36.3366 156.552 36.3366 153.435C36.3366 150.317 38.8638 147.79 41.9813 147.79C45.0988 147.79 47.626 150.317 47.626 153.435C47.626 156.552 45.0988 159.079 41.9813 159.079Z" fill="white"/>
<path opacity="0.64" d="M23.8123 221.7C20.6948 221.7 18.1677 219.173 18.1677 216.055C18.1677 212.938 20.6948 210.411 23.8123 210.411C26.9298 210.411 29.457 212.938 29.457 216.055C29.457 219.173 26.9298 221.7 23.8123 221.7Z" fill="white"/>
<path opacity="0.64" d="M23.8123 200.885C20.6948 200.885 18.1677 198.358 18.1677 195.24C18.1677 192.123 20.6948 189.596 23.8123 189.596C26.9298 189.596 29.457 192.123 29.457 195.24C29.457 198.358 26.9298 200.885 23.8123 200.885Z" fill="white"/>
<path opacity="0.64" d="M23.8123 180.07C20.6948 180.07 18.1677 177.543 18.1677 174.425C18.1677 171.308 20.6948 168.781 23.8123 168.781C26.9298 168.781 29.457 171.308 29.457 174.425C29.457 177.543 26.9298 180.07 23.8123 180.07Z" fill="white"/>
<path opacity="0.64" d="M23.8123 159.079C20.6948 159.079 18.1677 156.552 18.1677 153.435C18.1677 150.317 20.6948 147.79 23.8123 147.79C26.9298 147.79 29.457 150.317 29.457 153.435C29.457 156.552 26.9298 159.079 23.8123 159.079Z" fill="white"/>
<path opacity="0.64" d="M5.64337 221.7C2.52589 221.7 -0.0013485 219.173 -0.0013485 216.055C-0.0013485 212.938 2.52589 210.411 5.64337 210.411C8.76085 210.411 11.2881 212.938 11.2881 216.055C11.2881 219.173 8.76085 221.7 5.64337 221.7Z" fill="white"/>
<path opacity="0.64" d="M5.64337 200.885C2.52589 200.885 -0.0013485 198.358 -0.0013485 195.24C-0.0013485 192.123 2.52589 189.596 5.64337 189.596C8.76085 189.596 11.2881 192.123 11.2881 195.24C11.2881 198.358 8.76085 200.885 5.64337 200.885Z" fill="white"/>
<path opacity="0.64" d="M5.64337 180.07C2.52589 180.07 -0.0013485 177.543 -0.0013485 174.425C-0.0013485 171.308 2.52589 168.781 5.64337 168.781C8.76085 168.781 11.2881 171.308 11.2881 174.425C11.2881 177.543 8.76085 180.07 5.64337 180.07Z" fill="white"/>
<path opacity="0.64" d="M5.64337 159.079C2.52589 159.079 -0.0013485 156.552 -0.0013485 153.435C-0.0013485 150.317 2.52589 147.79 5.64337 147.79C8.76085 147.79 11.2881 150.317 11.2881 153.435C11.2881 156.552 8.76085 159.079 5.64337 159.079Z" fill="white"/>
<path opacity="0.64" d="M132.12 221.7C129.003 221.7 126.475 219.173 126.475 216.055C126.475 212.938 129.003 210.411 132.12 210.411C135.237 210.411 137.765 212.938 137.765 216.055C137.765 219.173 135.237 221.7 132.12 221.7Z" fill="white"/>
<path opacity="0.64" d="M132.12 200.885C129.003 200.885 126.475 198.358 126.475 195.24C126.475 192.123 129.003 189.596 132.12 189.596C135.237 189.596 137.765 192.123 137.765 195.24C137.765 198.358 135.237 200.885 132.12 200.885Z" fill="white"/>
<path opacity="0.64" d="M132.12 180.07C129.003 180.07 126.475 177.543 126.475 174.425C126.475 171.308 129.003 168.781 132.12 168.781C135.237 168.781 137.765 171.308 137.765 174.425C137.765 177.543 135.237 180.07 132.12 180.07Z" fill="white"/>
<path opacity="0.64" d="M132.12 159.079C129.003 159.079 126.475 156.552 126.475 153.435C126.475 150.317 129.003 147.79 132.12 147.79C135.237 147.79 137.765 150.317 137.765 153.435C137.765 156.552 135.237 159.079 132.12 159.079Z" fill="white"/>
<path opacity="0.64" d="M113.951 221.7C110.834 221.7 108.306 219.173 108.306 216.055C108.306 212.938 110.834 210.411 113.951 210.411C117.068 210.411 119.596 212.938 119.596 216.055C119.596 219.173 117.068 221.7 113.951 221.7Z" fill="white"/>
<path opacity="0.64" d="M113.951 200.885C110.834 200.885 108.306 198.358 108.306 195.24C108.306 192.123 110.834 189.596 113.951 189.596C117.068 189.596 119.596 192.123 119.596 195.24C119.596 198.358 117.068 200.885 113.951 200.885Z" fill="white"/>
<path opacity="0.64" d="M113.951 180.07C110.834 180.07 108.306 177.543 108.306 174.425C108.306 171.308 110.834 168.781 113.951 168.781C117.068 168.781 119.596 171.308 119.596 174.425C119.596 177.543 117.068 180.07 113.951 180.07Z" fill="white"/>
<path opacity="0.64" d="M113.951 159.079C110.834 159.079 108.306 156.552 108.306 153.435C108.306 150.317 110.834 147.79 113.951 147.79C117.068 147.79 119.596 150.317 119.596 153.435C119.596 156.552 117.068 159.079 113.951 159.079Z" fill="white"/>
<path opacity="0.64" d="M95.9579 221.7C92.8404 221.7 90.3132 219.173 90.3132 216.055C90.3132 212.938 92.8404 210.411 95.9579 210.411C99.0754 210.411 101.603 212.938 101.603 216.055C101.603 219.173 99.0754 221.7 95.9579 221.7Z" fill="white"/>
<path opacity="0.64" d="M95.9579 200.885C92.8404 200.885 90.3132 198.358 90.3132 195.24C90.3132 192.123 92.8404 189.596 95.9579 189.596C99.0754 189.596 101.603 192.123 101.603 195.24C101.603 198.358 99.0754 200.885 95.9579 200.885Z" fill="white"/>
<path opacity="0.64" d="M95.9579 180.07C92.8404 180.07 90.3132 177.543 90.3132 174.425C90.3132 171.308 92.8404 168.781 95.9579 168.781C99.0754 168.781 101.603 171.308 101.603 174.425C101.603 177.543 99.0754 180.07 95.9579 180.07Z" fill="white"/>
<path opacity="0.64" d="M95.9579 159.079C92.8404 159.079 90.3132 156.552 90.3132 153.435C90.3132 150.317 92.8404 147.79 95.9579 147.79C99.0754 147.79 101.603 150.317 101.603 153.435C101.603 156.552 99.0754 159.079 95.9579 159.079Z" fill="white"/>
<path opacity="0.64" d="M77.7899 221.7C74.6724 221.7 72.1452 219.173 72.1452 216.055C72.1452 212.938 74.6724 210.411 77.7899 210.411C80.9073 210.411 83.4346 212.938 83.4346 216.055C83.4346 219.173 80.9073 221.7 77.7899 221.7Z" fill="white"/>
<path opacity="0.64" d="M77.7899 200.885C74.6724 200.885 72.1452 198.358 72.1452 195.24C72.1452 192.123 74.6724 189.596 77.7899 189.596C80.9073 189.596 83.4346 192.123 83.4346 195.24C83.4346 198.358 80.9073 200.885 77.7899 200.885Z" fill="white"/>
<path opacity="0.64" d="M77.7899 180.07C74.6724 180.07 72.1452 177.543 72.1452 174.425C72.1452 171.308 74.6724 168.781 77.7899 168.781C80.9073 168.781 83.4346 171.308 83.4346 174.425C83.4346 177.543 80.9073 180.07 77.7899 180.07Z" fill="white"/>
<path opacity="0.64" d="M77.7899 159.079C74.6724 159.079 72.1452 156.552 72.1452 153.435C72.1452 150.317 74.6724 147.79 77.7899 147.79C80.9073 147.79 83.4346 150.317 83.4346 153.435C83.4346 156.552 80.9073 159.079 77.7899 159.079Z" fill="white"/>
<path opacity="0.64" d="M60.1492 140.91C57.0317 140.91 54.5046 138.383 54.5046 135.266C54.5046 132.148 57.0317 129.621 60.1492 129.621C63.2667 129.621 65.7939 132.148 65.7939 135.266C65.7939 138.383 63.2667 140.91 60.1492 140.91Z" fill="white"/>
<path opacity="0.64" d="M60.1492 120.095C57.0317 120.095 54.5046 117.568 54.5046 114.451C54.5046 111.333 57.0317 108.806 60.1492 108.806C63.2667 108.806 65.7939 111.333 65.7939 114.451C65.7939 117.568 63.2667 120.095 60.1492 120.095Z" fill="white"/>
<path opacity="0.64" d="M60.1492 99.1044C57.0317 99.1044 54.5046 96.5771 54.5046 93.4597C54.5046 90.3422 57.0317 87.8149 60.1492 87.8149C63.2667 87.8149 65.7939 90.3422 65.7939 93.4597C65.7939 96.5771 63.2667 99.1044 60.1492 99.1044Z" fill="white"/>
<path opacity="0.64" d="M60.1492 78.2893C57.0317 78.2893 54.5046 75.7622 54.5046 72.6447C54.5046 69.5272 57.0317 67 60.1492 67C63.2667 67 65.7939 69.5272 65.7939 72.6447C65.7939 75.7622 63.2667 78.2893 60.1492 78.2893Z" fill="white"/>
<path opacity="0.64" d="M41.9813 140.91C38.8638 140.91 36.3366 138.383 36.3366 135.266C36.3366 132.148 38.8638 129.621 41.9813 129.621C45.0988 129.621 47.626 132.148 47.626 135.266C47.626 138.383 45.0988 140.91 41.9813 140.91Z" fill="white"/>
<path opacity="0.64" d="M41.9813 120.095C38.8638 120.095 36.3366 117.568 36.3366 114.451C36.3366 111.333 38.8638 108.806 41.9813 108.806C45.0988 108.806 47.626 111.333 47.626 114.451C47.626 117.568 45.0988 120.095 41.9813 120.095Z" fill="white"/>
<path opacity="0.64" d="M41.9813 99.1044C38.8638 99.1044 36.3366 96.5771 36.3366 93.4597C36.3366 90.3422 38.8638 87.8149 41.9813 87.8149C45.0988 87.8149 47.626 90.3422 47.626 93.4597C47.626 96.5771 45.0988 99.1044 41.9813 99.1044Z" fill="white"/>
<path opacity="0.64" d="M41.9813 78.2893C38.8638 78.2893 36.3366 75.7622 36.3366 72.6447C36.3366 69.5272 38.8638 67 41.9813 67C45.0988 67 47.626 69.5272 47.626 72.6447C47.626 75.7622 45.0988 78.2893 41.9813 78.2893Z" fill="white"/>
<path opacity="0.64" d="M23.8123 140.91C20.6948 140.91 18.1677 138.383 18.1677 135.266C18.1677 132.148 20.6948 129.621 23.8123 129.621C26.9298 129.621 29.457 132.148 29.457 135.266C29.457 138.383 26.9298 140.91 23.8123 140.91Z" fill="white"/>
<path opacity="0.64" d="M23.8123 120.095C20.6948 120.095 18.1677 117.568 18.1677 114.451C18.1677 111.333 20.6948 108.806 23.8123 108.806C26.9298 108.806 29.457 111.333 29.457 114.451C29.457 117.568 26.9298 120.095 23.8123 120.095Z" fill="white"/>
<path opacity="0.64" d="M23.8123 99.1044C20.6948 99.1044 18.1677 96.5771 18.1677 93.4597C18.1677 90.3422 20.6948 87.8149 23.8123 87.8149C26.9298 87.8149 29.457 90.3422 29.457 93.4597C29.457 96.5771 26.9298 99.1044 23.8123 99.1044Z" fill="white"/>
<path opacity="0.64" d="M23.8123 78.2893C20.6948 78.2893 18.1677 75.7622 18.1677 72.6447C18.1677 69.5272 20.6948 67 23.8123 67C26.9298 67 29.457 69.5272 29.457 72.6447C29.457 75.7622 26.9298 78.2893 23.8123 78.2893Z" fill="white"/>
<path opacity="0.64" d="M5.64337 140.91C2.52589 140.91 -0.0013485 138.383 -0.0013485 135.266C-0.0013485 132.148 2.52589 129.621 5.64337 129.621C8.76085 129.621 11.2881 132.148 11.2881 135.266C11.2881 138.383 8.76085 140.91 5.64337 140.91Z" fill="white"/>
<path opacity="0.64" d="M5.64337 120.095C2.52589 120.095 -0.0013485 117.568 -0.0013485 114.451C-0.0013485 111.333 2.52589 108.806 5.64337 108.806C8.76085 108.806 11.2881 111.333 11.2881 114.451C11.2881 117.568 8.76085 120.095 5.64337 120.095Z" fill="white"/>
<path opacity="0.64" d="M5.64337 99.1044C2.52589 99.1044 -0.0013485 96.5771 -0.0013485 93.4597C-0.0013485 90.3422 2.52589 87.8149 5.64337 87.8149C8.76085 87.8149 11.2881 90.3422 11.2881 93.4597C11.2881 96.5771 8.76085 99.1044 5.64337 99.1044Z" fill="white"/>
<path opacity="0.64" d="M5.64337 78.2893C2.52589 78.2893 -0.0013485 75.7622 -0.0013485 72.6447C-0.0013485 69.5272 2.52589 67 5.64337 67C8.76085 67 11.2881 69.5272 11.2881 72.6447C11.2881 75.7622 8.76085 78.2893 5.64337 78.2893Z" fill="white"/>
<path opacity="0.64" d="M132.12 140.91C129.003 140.91 126.475 138.383 126.475 135.266C126.475 132.148 129.003 129.621 132.12 129.621C135.237 129.621 137.765 132.148 137.765 135.266C137.765 138.383 135.237 140.91 132.12 140.91Z" fill="white"/>
<path opacity="0.64" d="M132.12 120.095C129.003 120.095 126.475 117.568 126.475 114.451C126.475 111.333 129.003 108.806 132.12 108.806C135.237 108.806 137.765 111.333 137.765 114.451C137.765 117.568 135.237 120.095 132.12 120.095Z" fill="white"/>
<path opacity="0.64" d="M132.12 99.1044C129.003 99.1044 126.475 96.5771 126.475 93.4597C126.475 90.3422 129.003 87.8149 132.12 87.8149C135.237 87.8149 137.765 90.3422 137.765 93.4597C137.765 96.5771 135.237 99.1044 132.12 99.1044Z" fill="white"/>
<path opacity="0.64" d="M132.12 78.2893C129.003 78.2893 126.475 75.7622 126.475 72.6447C126.475 69.5272 129.003 67 132.12 67C135.237 67 137.765 69.5272 137.765 72.6447C137.765 75.7622 135.237 78.2893 132.12 78.2893Z" fill="white"/>
<path opacity="0.64" d="M113.951 140.91C110.834 140.91 108.306 138.383 108.306 135.266C108.306 132.148 110.834 129.621 113.951 129.621C117.068 129.621 119.596 132.148 119.596 135.266C119.596 138.383 117.068 140.91 113.951 140.91Z" fill="white"/>
<path opacity="0.64" d="M113.951 120.095C110.834 120.095 108.306 117.568 108.306 114.451C108.306 111.333 110.834 108.806 113.951 108.806C117.068 108.806 119.596 111.333 119.596 114.451C119.596 117.568 117.068 120.095 113.951 120.095Z" fill="white"/>
<path opacity="0.64" d="M113.951 99.1044C110.834 99.1044 108.306 96.5771 108.306 93.4597C108.306 90.3422 110.834 87.8149 113.951 87.8149C117.068 87.8149 119.596 90.3422 119.596 93.4597C119.596 96.5771 117.068 99.1044 113.951 99.1044Z" fill="white"/>
<path opacity="0.64" d="M113.951 78.2893C110.834 78.2893 108.306 75.7622 108.306 72.6447C108.306 69.5272 110.834 67 113.951 67C117.068 67 119.596 69.5272 119.596 72.6447C119.596 75.7622 117.068 78.2893 113.951 78.2893Z" fill="white"/>
<path opacity="0.64" d="M95.9579 140.91C92.8404 140.91 90.3132 138.383 90.3132 135.266C90.3132 132.148 92.8404 129.621 95.9579 129.621C99.0754 129.621 101.603 132.148 101.603 135.266C101.603 138.383 99.0754 140.91 95.9579 140.91Z" fill="white"/>
<path opacity="0.64" d="M95.9579 120.095C92.8404 120.095 90.3132 117.568 90.3132 114.451C90.3132 111.333 92.8404 108.806 95.9579 108.806C99.0754 108.806 101.603 111.333 101.603 114.451C101.603 117.568 99.0754 120.095 95.9579 120.095Z" fill="white"/>
<path opacity="0.64" d="M95.9579 99.1044C92.8404 99.1044 90.3132 96.5771 90.3132 93.4597C90.3132 90.3422 92.8404 87.8149 95.9579 87.8149C99.0754 87.8149 101.603 90.3422 101.603 93.4597C101.603 96.5771 99.0754 99.1044 95.9579 99.1044Z" fill="white"/>
<path opacity="0.64" d="M95.9579 78.2893C92.8404 78.2893 90.3132 75.7622 90.3132 72.6447C90.3132 69.5272 92.8404 67 95.9579 67C99.0754 67 101.603 69.5272 101.603 72.6447C101.603 75.7622 99.0754 78.2893 95.9579 78.2893Z" fill="white"/>
<path opacity="0.64" d="M77.7899 140.91C74.6724 140.91 72.1452 138.383 72.1452 135.266C72.1452 132.148 74.6724 129.621 77.7899 129.621C80.9073 129.621 83.4346 132.148 83.4346 135.266C83.4346 138.383 80.9073 140.91 77.7899 140.91Z" fill="white"/>
<path opacity="0.64" d="M77.7899 120.095C74.6724 120.095 72.1452 117.568 72.1452 114.451C72.1452 111.333 74.6724 108.806 77.7899 108.806C80.9073 108.806 83.4346 111.333 83.4346 114.451C83.4346 117.568 80.9073 120.095 77.7899 120.095Z" fill="white"/>
<path opacity="0.64" d="M77.7899 99.1044C74.6724 99.1044 72.1452 96.5771 72.1452 93.4597C72.1452 90.3422 74.6724 87.8149 77.7899 87.8149C80.9073 87.8149 83.4346 90.3422 83.4346 93.4597C83.4346 96.5771 80.9073 99.1044 77.7899 99.1044Z" fill="white"/>
<path opacity="0.64" d="M77.7899 78.2893C74.6724 78.2893 72.1452 75.7622 72.1452 72.6447C72.1452 69.5272 74.6724 67 77.7899 67C80.9073 67 83.4346 69.5272 83.4346 72.6447C83.4346 75.7622 80.9073 78.2893 77.7899 78.2893Z" fill="white"/>
<path opacity="0.64" d="M203.208 221.7C200.09 221.7 197.563 219.173 197.563 216.055C197.563 212.938 200.09 210.411 203.208 210.411C206.325 210.411 208.853 212.938 208.853 216.055C208.853 219.173 206.325 221.7 203.208 221.7Z" fill="white"/>
<path opacity="0.64" d="M203.208 200.885C200.09 200.885 197.563 198.358 197.563 195.24C197.563 192.123 200.09 189.596 203.208 189.596C206.325 189.596 208.853 192.123 208.853 195.24C208.853 198.358 206.325 200.885 203.208 200.885Z" fill="white"/>
<path opacity="0.64" d="M203.208 180.07C200.09 180.07 197.563 177.543 197.563 174.425C197.563 171.308 200.09 168.781 203.208 168.781C206.325 168.781 208.853 171.308 208.853 174.425C208.853 177.543 206.325 180.07 203.208 180.07Z" fill="white"/>
<path opacity="0.64" d="M203.208 159.079C200.09 159.079 197.563 156.552 197.563 153.435C197.563 150.317 200.09 147.79 203.208 147.79C206.325 147.79 208.853 150.317 208.853 153.435C208.853 156.552 206.325 159.079 203.208 159.079Z" fill="white"/>
<path opacity="0.64" d="M185.216 221.7C182.098 221.7 179.571 219.173 179.571 216.055C179.571 212.938 182.098 210.411 185.216 210.411C188.333 210.411 190.86 212.938 190.86 216.055C190.86 219.173 188.333 221.7 185.216 221.7Z" fill="white"/>
<path opacity="0.64" d="M185.216 200.885C182.098 200.885 179.571 198.358 179.571 195.24C179.571 192.123 182.098 189.596 185.216 189.596C188.333 189.596 190.86 192.123 190.86 195.24C190.86 198.358 188.333 200.885 185.216 200.885Z" fill="white"/>
<path opacity="0.64" d="M185.216 180.07C182.098 180.07 179.571 177.543 179.571 174.425C179.571 171.308 182.098 168.781 185.216 168.781C188.333 168.781 190.86 171.308 190.86 174.425C190.86 177.543 188.333 180.07 185.216 180.07Z" fill="white"/>
<path opacity="0.64" d="M185.216 159.079C182.098 159.079 179.571 156.552 179.571 153.435C179.571 150.317 182.098 147.79 185.216 147.79C188.333 147.79 190.86 150.317 190.86 153.435C190.86 156.552 188.333 159.079 185.216 159.079Z" fill="white"/>
<path opacity="0.64" d="M167.047 221.7C163.929 221.7 161.402 219.173 161.402 216.055C161.402 212.938 163.929 210.411 167.047 210.411C170.164 210.411 172.691 212.938 172.691 216.055C172.691 219.173 170.164 221.7 167.047 221.7Z" fill="white"/>
<path opacity="0.64" d="M167.047 200.885C163.929 200.885 161.402 198.358 161.402 195.24C161.402 192.123 163.929 189.596 167.047 189.596C170.164 189.596 172.691 192.123 172.691 195.24C172.691 198.358 170.164 200.885 167.047 200.885Z" fill="white"/>
<path opacity="0.64" d="M167.047 180.07C163.929 180.07 161.402 177.543 161.402 174.425C161.402 171.308 163.929 168.781 167.047 168.781C170.164 168.781 172.691 171.308 172.691 174.425C172.691 177.543 170.164 180.07 167.047 180.07Z" fill="white"/>
<path opacity="0.64" d="M167.047 159.079C163.929 159.079 161.402 156.552 161.402 153.435C161.402 150.317 163.929 147.79 167.047 147.79C170.164 147.79 172.691 150.317 172.691 153.435C172.691 156.552 170.164 159.079 167.047 159.079Z" fill="white"/>
<path opacity="0.64" d="M148.878 221.7C145.76 221.7 143.233 219.173 143.233 216.055C143.233 212.938 145.76 210.411 148.878 210.411C151.995 210.411 154.522 212.938 154.522 216.055C154.522 219.173 151.995 221.7 148.878 221.7Z" fill="white"/>
<path opacity="0.64" d="M148.878 200.885C145.76 200.885 143.233 198.358 143.233 195.24C143.233 192.123 145.76 189.596 148.878 189.596C151.995 189.596 154.522 192.123 154.522 195.24C154.522 198.358 151.995 200.885 148.878 200.885Z" fill="white"/>
<path opacity="0.64" d="M148.878 180.07C145.76 180.07 143.233 177.543 143.233 174.425C143.233 171.308 145.76 168.781 148.878 168.781C151.995 168.781 154.522 171.308 154.522 174.425C154.522 177.543 151.995 180.07 148.878 180.07Z" fill="white"/>
<path opacity="0.64" d="M148.878 159.079C145.76 159.079 143.233 156.552 143.233 153.435C143.233 150.317 145.76 147.79 148.878 147.79C151.995 147.79 154.522 150.317 154.522 153.435C154.522 156.552 151.995 159.079 148.878 159.079Z" fill="white"/>
<path opacity="0.64" d="M275.354 221.7C272.237 221.7 269.71 219.173 269.71 216.055C269.71 212.938 272.237 210.411 275.354 210.411C278.472 210.411 280.999 212.938 280.999 216.055C280.999 219.173 278.472 221.7 275.354 221.7Z" fill="white"/>
<path opacity="0.64" d="M275.354 200.885C272.237 200.885 269.71 198.358 269.71 195.24C269.71 192.123 272.237 189.596 275.354 189.596C278.472 189.596 280.999 192.123 280.999 195.24C280.999 198.358 278.472 200.885 275.354 200.885Z" fill="white"/>
<path opacity="0.64" d="M275.354 180.07C272.237 180.07 269.71 177.543 269.71 174.425C269.71 171.308 272.237 168.781 275.354 168.781C278.472 168.781 280.999 171.308 280.999 174.425C280.999 177.543 278.472 180.07 275.354 180.07Z" fill="white"/>
<path opacity="0.64" d="M275.354 159.079C272.237 159.079 269.71 156.552 269.71 153.435C269.71 150.317 272.237 147.79 275.354 147.79C278.472 147.79 280.999 150.317 280.999 153.435C280.999 156.552 278.472 159.079 275.354 159.079Z" fill="white"/>
<path opacity="0.64" d="M257.185 221.7C254.068 221.7 251.541 219.173 251.541 216.055C251.541 212.938 254.068 210.411 257.185 210.411C260.303 210.411 262.83 212.938 262.83 216.055C262.83 219.173 260.303 221.7 257.185 221.7Z" fill="white"/>
<path opacity="0.64" d="M257.185 200.885C254.068 200.885 251.541 198.358 251.541 195.24C251.541 192.123 254.068 189.596 257.185 189.596C260.303 189.596 262.83 192.123 262.83 195.24C262.83 198.358 260.303 200.885 257.185 200.885Z" fill="white"/>
<path opacity="0.64" d="M257.185 180.07C254.068 180.07 251.541 177.543 251.541 174.425C251.541 171.308 254.068 168.781 257.185 168.781C260.303 168.781 262.83 171.308 262.83 174.425C262.83 177.543 260.303 180.07 257.185 180.07Z" fill="white"/>
<path opacity="0.64" d="M257.185 159.079C254.068 159.079 251.541 156.552 251.541 153.435C251.541 150.317 254.068 147.79 257.185 147.79C260.303 147.79 262.83 150.317 262.83 153.435C262.83 156.552 260.303 159.079 257.185 159.079Z" fill="white"/>
<path opacity="0.64" d="M239.016 221.7C235.899 221.7 233.372 219.173 233.372 216.055C233.372 212.938 235.899 210.411 239.016 210.411C242.134 210.411 244.661 212.938 244.661 216.055C244.661 219.173 242.134 221.7 239.016 221.7Z" fill="white"/>
<path opacity="0.64" d="M239.016 200.885C235.899 200.885 233.372 198.358 233.372 195.24C233.372 192.123 235.899 189.596 239.016 189.596C242.134 189.596 244.661 192.123 244.661 195.24C244.661 198.358 242.134 200.885 239.016 200.885Z" fill="white"/>
<path opacity="0.64" d="M239.016 180.07C235.899 180.07 233.372 177.543 233.372 174.425C233.372 171.308 235.899 168.781 239.016 168.781C242.134 168.781 244.661 171.308 244.661 174.425C244.661 177.543 242.134 180.07 239.016 180.07Z" fill="white"/>
<path opacity="0.64" d="M239.016 159.079C235.899 159.079 233.372 156.552 233.372 153.435C233.372 150.317 235.899 147.79 239.016 147.79C242.134 147.79 244.661 150.317 244.661 153.435C244.661 156.552 242.134 159.079 239.016 159.079Z" fill="white"/>
<path opacity="0.64" d="M220.847 221.7C217.73 221.7 215.203 219.173 215.203 216.055C215.203 212.938 217.73 210.411 220.847 210.411C223.965 210.411 226.492 212.938 226.492 216.055C226.492 219.173 223.965 221.7 220.847 221.7Z" fill="white"/>
<path opacity="0.64" d="M220.847 200.885C217.73 200.885 215.203 198.358 215.203 195.24C215.203 192.123 217.73 189.596 220.847 189.596C223.965 189.596 226.492 192.123 226.492 195.24C226.492 198.358 223.965 200.885 220.847 200.885Z" fill="white"/>
<path opacity="0.64" d="M220.847 180.07C217.73 180.07 215.203 177.543 215.203 174.425C215.203 171.308 217.73 168.781 220.847 168.781C223.965 168.781 226.492 171.308 226.492 174.425C226.492 177.543 223.965 180.07 220.847 180.07Z" fill="white"/>
<path opacity="0.64" d="M220.847 159.079C217.73 159.079 215.203 156.552 215.203 153.435C215.203 150.317 217.73 147.79 220.847 147.79C223.965 147.79 226.492 150.317 226.492 153.435C226.492 156.552 223.965 159.079 220.847 159.079Z" fill="white"/>
<path opacity="0.64" d="M203.208 140.91C200.09 140.91 197.563 138.383 197.563 135.266C197.563 132.148 200.09 129.621 203.208 129.621C206.325 129.621 208.853 132.148 208.853 135.266C208.853 138.383 206.325 140.91 203.208 140.91Z" fill="white"/>
<path opacity="0.64" d="M203.208 120.095C200.09 120.095 197.563 117.568 197.563 114.451C197.563 111.333 200.09 108.806 203.208 108.806C206.325 108.806 208.853 111.333 208.853 114.451C208.853 117.568 206.325 120.095 203.208 120.095Z" fill="white"/>
<path opacity="0.64" d="M203.208 99.1044C200.09 99.1044 197.563 96.5771 197.563 93.4597C197.563 90.3422 200.09 87.8149 203.208 87.8149C206.325 87.8149 208.853 90.3422 208.853 93.4597C208.853 96.5771 206.325 99.1044 203.208 99.1044Z" fill="white"/>
<path opacity="0.64" d="M203.208 78.2893C200.09 78.2893 197.563 75.7622 197.563 72.6447C197.563 69.5272 200.09 67 203.208 67C206.325 67 208.853 69.5272 208.853 72.6447C208.853 75.7622 206.325 78.2893 203.208 78.2893Z" fill="white"/>
<path opacity="0.64" d="M185.216 140.91C182.098 140.91 179.571 138.383 179.571 135.266C179.571 132.148 182.098 129.621 185.216 129.621C188.333 129.621 190.86 132.148 190.86 135.266C190.86 138.383 188.333 140.91 185.216 140.91Z" fill="white"/>
<path opacity="0.64" d="M185.216 120.095C182.098 120.095 179.571 117.568 179.571 114.451C179.571 111.333 182.098 108.806 185.216 108.806C188.333 108.806 190.86 111.333 190.86 114.451C190.86 117.568 188.333 120.095 185.216 120.095Z" fill="white"/>
<path opacity="0.64" d="M185.216 99.1044C182.098 99.1044 179.571 96.5771 179.571 93.4597C179.571 90.3422 182.098 87.8149 185.216 87.8149C188.333 87.8149 190.86 90.3422 190.86 93.4597C190.86 96.5771 188.333 99.1044 185.216 99.1044Z" fill="white"/>
<path opacity="0.64" d="M185.216 78.2893C182.098 78.2893 179.571 75.7622 179.571 72.6447C179.571 69.5272 182.098 67 185.216 67C188.333 67 190.86 69.5272 190.86 72.6447C190.86 75.7622 188.333 78.2893 185.216 78.2893Z" fill="white"/>
<path opacity="0.64" d="M167.047 140.91C163.929 140.91 161.402 138.383 161.402 135.266C161.402 132.148 163.929 129.621 167.047 129.621C170.164 129.621 172.691 132.148 172.691 135.266C172.691 138.383 170.164 140.91 167.047 140.91Z" fill="white"/>
<path opacity="0.64" d="M167.047 120.095C163.929 120.095 161.402 117.568 161.402 114.451C161.402 111.333 163.929 108.806 167.047 108.806C170.164 108.806 172.691 111.333 172.691 114.451C172.691 117.568 170.164 120.095 167.047 120.095Z" fill="white"/>
<path opacity="0.64" d="M167.047 99.1044C163.929 99.1044 161.402 96.5771 161.402 93.4597C161.402 90.3422 163.929 87.8149 167.047 87.8149C170.164 87.8149 172.691 90.3422 172.691 93.4597C172.691 96.5771 170.164 99.1044 167.047 99.1044Z" fill="white"/>
<path opacity="0.64" d="M167.047 78.2893C163.929 78.2893 161.402 75.7622 161.402 72.6447C161.402 69.5272 163.929 67 167.047 67C170.164 67 172.691 69.5272 172.691 72.6447C172.691 75.7622 170.164 78.2893 167.047 78.2893Z" fill="white"/>
<path opacity="0.64" d="M148.878 140.91C145.76 140.91 143.233 138.383 143.233 135.266C143.233 132.148 145.76 129.621 148.878 129.621C151.995 129.621 154.522 132.148 154.522 135.266C154.522 138.383 151.995 140.91 148.878 140.91Z" fill="white"/>
<path opacity="0.64" d="M148.878 120.095C145.76 120.095 143.233 117.568 143.233 114.451C143.233 111.333 145.76 108.806 148.878 108.806C151.995 108.806 154.522 111.333 154.522 114.451C154.522 117.568 151.995 120.095 148.878 120.095Z" fill="white"/>
<path opacity="0.64" d="M148.878 99.1044C145.76 99.1044 143.233 96.5771 143.233 93.4597C143.233 90.3422 145.76 87.8149 148.878 87.8149C151.995 87.8149 154.522 90.3422 154.522 93.4597C154.522 96.5771 151.995 99.1044 148.878 99.1044Z" fill="white"/>
<path opacity="0.64" d="M148.878 78.2893C145.76 78.2893 143.233 75.7622 143.233 72.6447C143.233 69.5272 145.76 67 148.878 67C151.995 67 154.522 69.5272 154.522 72.6447C154.522 75.7622 151.995 78.2893 148.878 78.2893Z" fill="white"/>
<path opacity="0.64" d="M275.354 140.91C272.237 140.91 269.71 138.383 269.71 135.266C269.71 132.148 272.237 129.621 275.354 129.621C278.472 129.621 280.999 132.148 280.999 135.266C280.999 138.383 278.472 140.91 275.354 140.91Z" fill="white"/>
<path opacity="0.64" d="M275.354 120.095C272.237 120.095 269.71 117.568 269.71 114.451C269.71 111.333 272.237 108.806 275.354 108.806C278.472 108.806 280.999 111.333 280.999 114.451C280.999 117.568 278.472 120.095 275.354 120.095Z" fill="white"/>
<path opacity="0.64" d="M275.354 99.1044C272.237 99.1044 269.71 96.5771 269.71 93.4597C269.71 90.3422 272.237 87.8149 275.354 87.8149C278.472 87.8149 280.999 90.3422 280.999 93.4597C280.999 96.5771 278.472 99.1044 275.354 99.1044Z" fill="white"/>
<path opacity="0.64" d="M275.354 78.2893C272.237 78.2893 269.71 75.7622 269.71 72.6447C269.71 69.5272 272.237 67 275.354 67C278.472 67 280.999 69.5272 280.999 72.6447C280.999 75.7622 278.472 78.2893 275.354 78.2893Z" fill="white"/>
<path opacity="0.64" d="M257.185 140.91C254.068 140.91 251.541 138.383 251.541 135.266C251.541 132.148 254.068 129.621 257.185 129.621C260.303 129.621 262.83 132.148 262.83 135.266C262.83 138.383 260.303 140.91 257.185 140.91Z" fill="white"/>
<path opacity="0.64" d="M257.185 120.095C254.068 120.095 251.541 117.568 251.541 114.451C251.541 111.333 254.068 108.806 257.185 108.806C260.303 108.806 262.83 111.333 262.83 114.451C262.83 117.568 260.303 120.095 257.185 120.095Z" fill="white"/>
<path opacity="0.64" d="M257.185 99.1044C254.068 99.1044 251.541 96.5771 251.541 93.4597C251.541 90.3422 254.068 87.8149 257.185 87.8149C260.303 87.8149 262.83 90.3422 262.83 93.4597C262.83 96.5771 260.303 99.1044 257.185 99.1044Z" fill="white"/>
<path opacity="0.64" d="M257.185 78.2893C254.068 78.2893 251.541 75.7622 251.541 72.6447C251.541 69.5272 254.068 67 257.185 67C260.303 67 262.83 69.5272 262.83 72.6447C262.83 75.7622 260.303 78.2893 257.185 78.2893Z" fill="white"/>
<path opacity="0.64" d="M239.016 140.91C235.899 140.91 233.372 138.383 233.372 135.266C233.372 132.148 235.899 129.621 239.016 129.621C242.134 129.621 244.661 132.148 244.661 135.266C244.661 138.383 242.134 140.91 239.016 140.91Z" fill="white"/>
<path opacity="0.64" d="M239.016 120.095C235.899 120.095 233.372 117.568 233.372 114.451C233.372 111.333 235.899 108.806 239.016 108.806C242.134 108.806 244.661 111.333 244.661 114.451C244.661 117.568 242.134 120.095 239.016 120.095Z" fill="white"/>
<path opacity="0.64" d="M239.016 99.1044C235.899 99.1044 233.372 96.5771 233.372 93.4597C233.372 90.3422 235.899 87.8149 239.016 87.8149C242.134 87.8149 244.661 90.3422 244.661 93.4597C244.661 96.5771 242.134 99.1044 239.016 99.1044Z" fill="white"/>
<path opacity="0.64" d="M239.016 78.2893C235.899 78.2893 233.372 75.7622 233.372 72.6447C233.372 69.5272 235.899 67 239.016 67C242.134 67 244.661 69.5272 244.661 72.6447C244.661 75.7622 242.134 78.2893 239.016 78.2893Z" fill="white"/>
<path opacity="0.64" d="M220.847 140.91C217.73 140.91 215.203 138.383 215.203 135.266C215.203 132.148 217.73 129.621 220.847 129.621C223.965 129.621 226.492 132.148 226.492 135.266C226.492 138.383 223.965 140.91 220.847 140.91Z" fill="white"/>
<path opacity="0.64" d="M220.847 120.095C217.73 120.095 215.203 117.568 215.203 114.451C215.203 111.333 217.73 108.806 220.847 108.806C223.965 108.806 226.492 111.333 226.492 114.451C226.492 117.568 223.965 120.095 220.847 120.095Z" fill="white"/>
<path opacity="0.64" d="M220.847 99.1044C217.73 99.1044 215.203 96.5771 215.203 93.4597C215.203 90.3422 217.73 87.8149 220.847 87.8149C223.965 87.8149 226.492 90.3422 226.492 93.4597C226.492 96.5771 223.965 99.1044 220.847 99.1044Z" fill="white"/>
<path opacity="0.64" d="M220.847 78.2893C217.73 78.2893 215.203 75.7622 215.203 72.6447C215.203 69.5272 217.73 67 220.847 67C223.965 67 226.492 69.5272 226.492 72.6447C226.492 75.7622 223.965 78.2893 220.847 78.2893Z" fill="white"/>
</g>
<path d="M109.502 180.434C109.502 180.434 110.264 189.19 115.86 191.013C115.86 191.013 109.011 191.669 105.807 197.89C105.807 197.89 105.656 192.066 99.6359 187.496C99.6359 187.496 104.718 188.717 109.502 180.434Z" fill="white"/>
<path d="M65.0014 57.8693C67.3655 59.4453 86.278 72.2507 109.722 64.9615C117.167 62.7236 124.011 58.8327 129.742 53.5793C135.473 48.3259 139.943 41.8457 142.819 34.6227C144.038 31.1073 144.896 27.4767 145.38 23.7874L163.898 24.1814C163.369 31.4429 161.638 38.5662 158.776 45.261C146.956 72.8417 119.572 81.904 116.42 82.889C102.941 87.0368 88.5272 87.0368 75.0487 82.889C66.6314 80.3868 58.796 76.2347 51.999 70.6747L65.0014 57.8693Z" fill="#8EC6D8"/>
<path d="M125.081 -6.01115e-05L109.515 8.06885L117.556 23.5829L133.123 15.514L125.081 -6.01115e-05Z" fill="#F0CA50"/>
<path d="M89.0354 19.0596L89.8235 29.1069L65.7887 37.3811L64.8037 27.3338L89.0354 19.0596Z" fill="#8EC6D8"/>
</svg>
