<svg width="194" height="281" viewBox="0 0 194 281" fill="none" xmlns="http://www.w3.org/2000/svg">
<g opacity="0.05">
<path opacity="0.64" d="M154.999 220.849C154.999 223.967 152.472 226.494 149.355 226.494C146.237 226.494 143.71 223.967 143.71 220.849C143.71 217.732 146.237 215.204 149.355 215.204C152.472 215.204 154.999 217.732 154.999 220.849Z" fill="white"/>
<path opacity="0.64" d="M134.185 220.849C134.185 223.967 131.658 226.494 128.54 226.494C125.423 226.494 122.896 223.967 122.896 220.849C122.896 217.732 125.423 215.204 128.54 215.204C131.658 215.204 134.185 217.732 134.185 220.849Z" fill="white"/>
<path opacity="0.64" d="M113.37 220.849C113.37 223.967 110.843 226.494 107.726 226.494C104.608 226.494 102.081 223.967 102.081 220.849C102.081 217.732 104.608 215.204 107.726 215.204C110.843 215.204 113.37 217.732 113.37 220.849Z" fill="white"/>
<path opacity="0.64" d="M92.3803 220.849C92.3803 223.967 89.853 226.494 86.7355 226.494C83.6181 226.494 81.0908 223.967 81.0908 220.849C81.0908 217.732 83.6181 215.204 86.7355 215.204C89.853 215.204 92.3803 217.732 92.3803 220.849Z" fill="white"/>
<path opacity="0.64" d="M154.999 239.018C154.999 242.135 152.472 244.663 149.355 244.663C146.237 244.663 143.71 242.135 143.71 239.018C143.71 235.9 146.237 233.373 149.355 233.373C152.472 233.373 154.999 235.9 154.999 239.018Z" fill="white"/>
<path opacity="0.64" d="M134.185 239.018C134.185 242.135 131.658 244.663 128.54 244.663C125.423 244.663 122.896 242.135 122.896 239.018C122.896 235.9 125.423 233.373 128.54 233.373C131.658 233.373 134.185 235.9 134.185 239.018Z" fill="white"/>
<path opacity="0.64" d="M113.37 239.018C113.37 242.135 110.843 244.663 107.726 244.663C104.608 244.663 102.081 242.135 102.081 239.018C102.081 235.9 104.608 233.373 107.726 233.373C110.843 233.373 113.37 235.9 113.37 239.018Z" fill="white"/>
<path opacity="0.64" d="M92.3803 239.018C92.3803 242.135 89.853 244.663 86.7355 244.663C83.6181 244.663 81.0908 242.135 81.0908 239.018C81.0908 235.9 83.6181 233.373 86.7355 233.373C89.853 233.373 92.3803 235.9 92.3803 239.018Z" fill="white"/>
<path opacity="0.64" d="M154.999 257.187C154.999 260.304 152.472 262.831 149.355 262.831C146.237 262.831 143.71 260.304 143.71 257.187C143.71 254.069 146.237 251.542 149.355 251.542C152.472 251.542 154.999 254.069 154.999 257.187Z" fill="white"/>
<path opacity="0.64" d="M134.185 257.187C134.185 260.304 131.658 262.831 128.54 262.831C125.423 262.831 122.896 260.304 122.896 257.187C122.896 254.069 125.423 251.542 128.54 251.542C131.658 251.542 134.185 254.069 134.185 257.187Z" fill="white"/>
<path opacity="0.64" d="M113.37 257.187C113.37 260.304 110.843 262.831 107.726 262.831C104.608 262.831 102.081 260.304 102.081 257.187C102.081 254.069 104.608 251.542 107.726 251.542C110.843 251.542 113.37 254.069 113.37 257.187Z" fill="white"/>
<path opacity="0.64" d="M92.3803 257.187C92.3803 260.304 89.853 262.831 86.7355 262.831C83.6181 262.831 81.0908 260.304 81.0908 257.187C81.0908 254.069 83.6181 251.542 86.7355 251.542C89.853 251.542 92.3803 254.069 92.3803 257.187Z" fill="white"/>
<path opacity="0.64" d="M154.999 275.356C154.999 278.473 152.472 281 149.355 281C146.237 281 143.71 278.473 143.71 275.356C143.71 272.238 146.237 269.711 149.355 269.711C152.472 269.711 154.999 272.238 154.999 275.356Z" fill="white"/>
<path opacity="0.64" d="M134.185 275.356C134.185 278.473 131.658 281 128.54 281C125.423 281 122.896 278.473 122.896 275.356C122.896 272.238 125.423 269.711 128.54 269.711C131.658 269.711 134.185 272.238 134.185 275.356Z" fill="white"/>
<path opacity="0.64" d="M113.37 275.356C113.37 278.473 110.843 281 107.726 281C104.608 281 102.081 278.473 102.081 275.356C102.081 272.238 104.608 269.711 107.726 269.711C110.843 269.711 113.37 272.238 113.37 275.356Z" fill="white"/>
<path opacity="0.64" d="M92.3783 275.356C92.3783 278.473 89.8511 281 86.7336 281C83.6161 281 81.0889 278.473 81.0889 275.356C81.0889 272.238 83.6161 269.711 86.7336 269.711C89.8511 269.711 92.3783 272.238 92.3783 275.356Z" fill="white"/>
<path opacity="0.64" d="M154.999 148.879C154.999 151.997 152.472 154.524 149.355 154.524C146.237 154.524 143.71 151.997 143.71 148.879C143.71 145.762 146.237 143.234 149.355 143.234C152.472 143.234 154.999 145.762 154.999 148.879Z" fill="white"/>
<path opacity="0.64" d="M134.185 148.879C134.185 151.997 131.658 154.524 128.54 154.524C125.423 154.524 122.896 151.997 122.896 148.879C122.896 145.762 125.423 143.234 128.54 143.234C131.658 143.234 134.185 145.762 134.185 148.879Z" fill="white"/>
<path opacity="0.64" d="M113.37 148.879C113.37 151.997 110.843 154.524 107.726 154.524C104.608 154.524 102.081 151.997 102.081 148.879C102.081 145.762 104.608 143.234 107.726 143.234C110.843 143.234 113.37 145.762 113.37 148.879Z" fill="white"/>
<path opacity="0.64" d="M92.3783 148.879C92.3783 151.997 89.8511 154.524 86.7336 154.524C83.6161 154.524 81.0889 151.997 81.0889 148.879C81.0889 145.762 83.6161 143.234 86.7336 143.234C89.8511 143.234 92.3783 145.762 92.3783 148.879Z" fill="white"/>
<path opacity="0.64" d="M154.999 167.048C154.999 170.166 152.472 172.693 149.355 172.693C146.237 172.693 143.71 170.166 143.71 167.048C143.71 163.931 146.237 161.404 149.355 161.404C152.472 161.404 154.999 163.931 154.999 167.048Z" fill="white"/>
<path opacity="0.64" d="M134.185 167.048C134.185 170.166 131.658 172.693 128.54 172.693C125.423 172.693 122.896 170.166 122.896 167.048C122.896 163.931 125.423 161.404 128.54 161.404C131.658 161.404 134.185 163.931 134.185 167.048Z" fill="white"/>
<path opacity="0.64" d="M113.37 167.048C113.37 170.166 110.843 172.693 107.726 172.693C104.608 172.693 102.081 170.166 102.081 167.048C102.081 163.931 104.608 161.404 107.726 161.404C110.843 161.404 113.37 163.931 113.37 167.048Z" fill="white"/>
<path opacity="0.64" d="M92.3783 167.048C92.3783 170.166 89.8511 172.693 86.7336 172.693C83.6161 172.693 81.0889 170.166 81.0889 167.048C81.0889 163.931 83.6161 161.404 86.7336 161.404C89.8511 161.404 92.3783 163.931 92.3783 167.048Z" fill="white"/>
<path opacity="0.64" d="M154.999 185.04C154.999 188.158 152.472 190.685 149.355 190.685C146.237 190.685 143.71 188.158 143.71 185.04C143.71 181.923 146.237 179.396 149.355 179.396C152.472 179.396 154.999 181.923 154.999 185.04Z" fill="white"/>
<path opacity="0.64" d="M134.185 185.04C134.185 188.158 131.658 190.685 128.54 190.685C125.423 190.685 122.896 188.158 122.896 185.04C122.896 181.923 125.423 179.396 128.54 179.396C131.658 179.396 134.185 181.923 134.185 185.04Z" fill="white"/>
<path opacity="0.64" d="M113.37 185.04C113.37 188.158 110.843 190.685 107.726 190.685C104.608 190.685 102.081 188.158 102.081 185.04C102.081 181.923 104.608 179.396 107.726 179.396C110.843 179.396 113.37 181.923 113.37 185.04Z" fill="white"/>
<path opacity="0.64" d="M92.3803 185.04C92.3803 188.158 89.853 190.685 86.7355 190.685C83.6181 190.685 81.0908 188.158 81.0908 185.04C81.0908 181.923 83.6181 179.396 86.7355 179.396C89.853 179.396 92.3803 181.923 92.3803 185.04Z" fill="white"/>
<path opacity="0.64" d="M154.999 203.209C154.999 206.327 152.472 208.854 149.355 208.854C146.237 208.854 143.71 206.327 143.71 203.209C143.71 200.092 146.237 197.565 149.355 197.565C152.472 197.565 154.999 200.092 154.999 203.209Z" fill="white"/>
<path opacity="0.64" d="M134.185 203.209C134.185 206.327 131.658 208.854 128.54 208.854C125.423 208.854 122.896 206.327 122.896 203.209C122.896 200.092 125.423 197.565 128.54 197.565C131.658 197.565 134.185 200.092 134.185 203.209Z" fill="white"/>
<path opacity="0.64" d="M113.37 203.209C113.37 206.327 110.843 208.854 107.726 208.854C104.608 208.854 102.081 206.327 102.081 203.209C102.081 200.092 104.608 197.565 107.726 197.565C110.843 197.565 113.37 200.092 113.37 203.209Z" fill="white"/>
<path opacity="0.64" d="M92.3803 203.209C92.3803 206.327 89.853 208.854 86.7355 208.854C83.6181 208.854 81.0908 206.327 81.0908 203.209C81.0908 200.092 83.6181 197.565 86.7355 197.565C89.853 197.565 92.3803 200.092 92.3803 203.209Z" fill="white"/>
<path opacity="0.64" d="M74.2102 220.849C74.2102 223.967 71.6831 226.494 68.5656 226.494C65.4481 226.494 62.9209 223.967 62.9209 220.849C62.9209 217.732 65.4481 215.204 68.5656 215.204C71.6831 215.204 74.2102 217.732 74.2102 220.849Z" fill="white"/>
<path opacity="0.64" d="M53.3958 220.849C53.3958 223.967 50.8685 226.494 47.7511 226.494C44.6336 226.494 42.1064 223.967 42.1064 220.849C42.1064 217.732 44.6336 215.204 47.7511 215.204C50.8685 215.204 53.3958 217.732 53.3958 220.849Z" fill="white"/>
<path opacity="0.64" d="M32.4037 220.849C32.4037 223.967 29.8765 226.494 26.759 226.494C23.6415 226.494 21.1143 223.967 21.1143 220.849C21.1143 217.732 23.6415 215.204 26.759 215.204C29.8765 215.204 32.4037 217.732 32.4037 220.849Z" fill="white"/>
<path opacity="0.64" d="M11.5891 220.849C11.5891 223.967 9.062 226.494 5.94452 226.494C2.82704 226.494 0.299805 223.967 0.299805 220.849C0.299805 217.732 2.82704 215.204 5.94452 215.204C9.062 215.204 11.5891 217.732 11.5891 220.849Z" fill="white"/>
<path opacity="0.64" d="M74.2102 239.018C74.2102 242.135 71.6831 244.663 68.5656 244.663C65.4481 244.663 62.9209 242.135 62.9209 239.018C62.9209 235.9 65.4481 233.373 68.5656 233.373C71.6831 233.373 74.2102 235.9 74.2102 239.018Z" fill="white"/>
<path opacity="0.64" d="M53.3958 239.018C53.3958 242.135 50.8685 244.663 47.7511 244.663C44.6336 244.663 42.1064 242.135 42.1064 239.018C42.1064 235.9 44.6336 233.373 47.7511 233.373C50.8685 233.373 53.3958 235.9 53.3958 239.018Z" fill="white"/>
<path opacity="0.64" d="M32.4037 239.018C32.4037 242.135 29.8765 244.663 26.759 244.663C23.6415 244.663 21.1143 242.135 21.1143 239.018C21.1143 235.9 23.6415 233.373 26.759 233.373C29.8765 233.373 32.4037 235.9 32.4037 239.018Z" fill="white"/>
<path opacity="0.64" d="M11.5891 239.018C11.5891 242.135 9.062 244.663 5.94452 244.663C2.82704 244.663 0.299805 242.135 0.299805 239.018C0.299805 235.9 2.82704 233.373 5.94452 233.373C9.062 233.373 11.5891 235.9 11.5891 239.018Z" fill="white"/>
<path opacity="0.64" d="M74.2102 257.187C74.2102 260.304 71.6831 262.831 68.5656 262.831C65.4481 262.831 62.9209 260.304 62.9209 257.187C62.9209 254.069 65.4481 251.542 68.5656 251.542C71.6831 251.542 74.2102 254.069 74.2102 257.187Z" fill="white"/>
<path opacity="0.64" d="M53.3958 257.187C53.3958 260.304 50.8685 262.831 47.7511 262.831C44.6336 262.831 42.1064 260.304 42.1064 257.187C42.1064 254.069 44.6336 251.542 47.7511 251.542C50.8685 251.542 53.3958 254.069 53.3958 257.187Z" fill="white"/>
<path opacity="0.64" d="M32.4037 257.187C32.4037 260.304 29.8765 262.831 26.759 262.831C23.6415 262.831 21.1143 260.304 21.1143 257.187C21.1143 254.069 23.6415 251.542 26.759 251.542C29.8765 251.542 32.4037 254.069 32.4037 257.187Z" fill="white"/>
<path opacity="0.64" d="M11.5891 257.187C11.5891 260.304 9.062 262.831 5.94452 262.831C2.82704 262.831 0.299805 260.304 0.299805 257.187C0.299805 254.069 2.82704 251.542 5.94452 251.542C9.062 251.542 11.5891 254.069 11.5891 257.187Z" fill="white"/>
<path opacity="0.64" d="M74.2102 275.356C74.2102 278.473 71.6831 281 68.5656 281C65.4481 281 62.9209 278.473 62.9209 275.356C62.9209 272.238 65.4481 269.711 68.5656 269.711C71.6831 269.711 74.2102 272.238 74.2102 275.356Z" fill="white"/>
<path opacity="0.64" d="M53.3958 275.356C53.3958 278.473 50.8685 281 47.7511 281C44.6336 281 42.1064 278.473 42.1064 275.356C42.1064 272.238 44.6336 269.711 47.7511 269.711C50.8685 269.711 53.3958 272.238 53.3958 275.356Z" fill="white"/>
<path opacity="0.64" d="M32.4037 275.356C32.4037 278.473 29.8765 281 26.759 281C23.6415 281 21.1143 278.473 21.1143 275.356C21.1143 272.238 23.6415 269.711 26.759 269.711C29.8765 269.711 32.4037 272.238 32.4037 275.356Z" fill="white"/>
<path opacity="0.64" d="M11.5891 275.356C11.5891 278.473 9.062 281 5.94452 281C2.82704 281 0.299805 278.473 0.299805 275.356C0.299805 272.238 2.82704 269.711 5.94452 269.711C9.062 269.711 11.5891 272.238 11.5891 275.356Z" fill="white"/>
<path opacity="0.64" d="M74.2102 148.879C74.2102 151.997 71.6831 154.524 68.5656 154.524C65.4481 154.524 62.9209 151.997 62.9209 148.879C62.9209 145.762 65.4481 143.234 68.5656 143.234C71.6831 143.234 74.2102 145.762 74.2102 148.879Z" fill="white"/>
<path opacity="0.64" d="M53.3958 148.879C53.3958 151.997 50.8685 154.524 47.7511 154.524C44.6336 154.524 42.1064 151.997 42.1064 148.879C42.1064 145.762 44.6336 143.234 47.7511 143.234C50.8685 143.234 53.3958 145.762 53.3958 148.879Z" fill="white"/>
<path opacity="0.64" d="M32.4037 148.879C32.4037 151.997 29.8765 154.524 26.759 154.524C23.6415 154.524 21.1143 151.997 21.1143 148.879C21.1143 145.762 23.6415 143.234 26.759 143.234C29.8765 143.234 32.4037 145.762 32.4037 148.879Z" fill="white"/>
<path opacity="0.64" d="M11.5891 148.879C11.5891 151.997 9.062 154.524 5.94452 154.524C2.82704 154.524 0.299805 151.997 0.299805 148.879C0.299805 145.762 2.82704 143.234 5.94452 143.234C9.062 143.234 11.5891 145.762 11.5891 148.879Z" fill="white"/>
<path opacity="0.64" d="M74.2102 167.048C74.2102 170.166 71.6831 172.693 68.5656 172.693C65.4481 172.693 62.9209 170.166 62.9209 167.048C62.9209 163.931 65.4481 161.404 68.5656 161.404C71.6831 161.404 74.2102 163.931 74.2102 167.048Z" fill="white"/>
<path opacity="0.64" d="M53.3938 167.048C53.3938 170.166 50.8666 172.693 47.7491 172.693C44.6316 172.693 42.1045 170.166 42.1045 167.048C42.1045 163.931 44.6316 161.404 47.7491 161.404C50.8666 161.404 53.3938 163.931 53.3938 167.048Z" fill="white"/>
<path opacity="0.64" d="M32.4037 167.048C32.4037 170.166 29.8765 172.693 26.759 172.693C23.6415 172.693 21.1143 170.166 21.1143 167.048C21.1143 163.931 23.6415 161.404 26.759 161.404C29.8765 161.404 32.4037 163.931 32.4037 167.048Z" fill="white"/>
<path opacity="0.64" d="M11.5891 167.048C11.5891 170.166 9.062 172.693 5.94452 172.693C2.82704 172.693 0.299805 170.166 0.299805 167.048C0.299805 163.931 2.82704 161.404 5.94452 161.404C9.062 161.404 11.5891 163.931 11.5891 167.048Z" fill="white"/>
<path opacity="0.64" d="M74.2102 185.04C74.2102 188.158 71.6831 190.685 68.5656 190.685C65.4481 190.685 62.9209 188.158 62.9209 185.04C62.9209 181.923 65.4481 179.396 68.5656 179.396C71.6831 179.396 74.2102 181.923 74.2102 185.04Z" fill="white"/>
<path opacity="0.64" d="M53.3958 185.04C53.3958 188.158 50.8685 190.685 47.7511 190.685C44.6336 190.685 42.1064 188.158 42.1064 185.04C42.1064 181.923 44.6336 179.396 47.7511 179.396C50.8685 179.396 53.3958 181.923 53.3958 185.04Z" fill="white"/>
<path opacity="0.64" d="M32.4037 185.04C32.4037 188.158 29.8765 190.685 26.759 190.685C23.6415 190.685 21.1143 188.158 21.1143 185.04C21.1143 181.923 23.6415 179.396 26.759 179.396C29.8765 179.396 32.4037 181.923 32.4037 185.04Z" fill="white"/>
<path opacity="0.64" d="M11.5891 185.04C11.5891 188.158 9.062 190.685 5.94452 190.685C2.82704 190.685 0.299805 188.158 0.299805 185.04C0.299805 181.923 2.82704 179.396 5.94452 179.396C9.062 179.396 11.5891 181.923 11.5891 185.04Z" fill="white"/>
<path opacity="0.64" d="M74.2102 203.209C74.2102 206.327 71.6831 208.854 68.5656 208.854C65.4481 208.854 62.9209 206.327 62.9209 203.209C62.9209 200.092 65.4481 197.565 68.5656 197.565C71.6831 197.565 74.2102 200.092 74.2102 203.209Z" fill="white"/>
<path opacity="0.64" d="M53.3958 203.209C53.3958 206.327 50.8685 208.854 47.7511 208.854C44.6336 208.854 42.1064 206.327 42.1064 203.209C42.1064 200.092 44.6336 197.565 47.7511 197.565C50.8685 197.565 53.3958 200.092 53.3958 203.209Z" fill="white"/>
<path opacity="0.64" d="M32.4037 203.209C32.4037 206.327 29.8765 208.854 26.759 208.854C23.6415 208.854 21.1143 206.327 21.1143 203.209C21.1143 200.092 23.6415 197.565 26.759 197.565C29.8765 197.565 32.4037 200.092 32.4037 203.209Z" fill="white"/>
<path opacity="0.64" d="M11.5891 203.209C11.5891 206.327 9.062 208.854 5.94452 208.854C2.82704 208.854 0.299805 206.327 0.299805 203.209C0.299805 200.092 2.82704 197.565 5.94452 197.565C9.062 197.565 11.5891 200.092 11.5891 203.209Z" fill="white"/>
<path opacity="0.64" d="M154.999 77.7907C154.999 80.9082 152.472 83.4354 149.355 83.4354C146.237 83.4354 143.71 80.9082 143.71 77.7907C143.71 74.6732 146.237 72.146 149.355 72.146C152.472 72.146 154.999 74.6732 154.999 77.7907Z" fill="white"/>
<path opacity="0.64" d="M134.185 77.7907C134.185 80.9082 131.658 83.4354 128.54 83.4354C125.423 83.4354 122.896 80.9082 122.896 77.7907C122.896 74.6732 125.423 72.146 128.54 72.146C131.658 72.146 134.185 74.6732 134.185 77.7907Z" fill="white"/>
<path opacity="0.64" d="M113.37 77.7907C113.37 80.9082 110.843 83.4354 107.726 83.4354C104.608 83.4354 102.081 80.9082 102.081 77.7907C102.081 74.6732 104.608 72.146 107.726 72.146C110.843 72.146 113.37 74.6732 113.37 77.7907Z" fill="white"/>
<path opacity="0.64" d="M92.3803 77.7907C92.3803 80.9082 89.853 83.4354 86.7355 83.4354C83.6181 83.4354 81.0908 80.9082 81.0908 77.7907C81.0908 74.6732 83.6181 72.146 86.7355 72.146C89.853 72.146 92.3803 74.6732 92.3803 77.7907Z" fill="white"/>
<path opacity="0.64" d="M154.999 95.7836C154.999 98.9011 152.472 101.428 149.355 101.428C146.237 101.428 143.71 98.9011 143.71 95.7836C143.71 92.6662 146.237 90.1389 149.355 90.1389C152.472 90.1389 154.999 92.6662 154.999 95.7836Z" fill="white"/>
<path opacity="0.64" d="M134.185 95.7836C134.185 98.9011 131.658 101.428 128.54 101.428C125.423 101.428 122.896 98.9011 122.896 95.7836C122.896 92.6662 125.423 90.1389 128.54 90.1389C131.658 90.1389 134.185 92.6662 134.185 95.7836Z" fill="white"/>
<path opacity="0.64" d="M113.37 95.7836C113.37 98.9011 110.843 101.428 107.726 101.428C104.608 101.428 102.081 98.9011 102.081 95.7836C102.081 92.6662 104.608 90.1389 107.726 90.1389C110.843 90.1389 113.37 92.6662 113.37 95.7836Z" fill="white"/>
<path opacity="0.64" d="M92.3783 95.7836C92.3783 98.9011 89.8511 101.428 86.7336 101.428C83.6161 101.428 81.0889 98.9011 81.0889 95.7836C81.0889 92.6662 83.6161 90.1389 86.7336 90.1389C89.8511 90.1389 92.3783 92.6662 92.3783 95.7836Z" fill="white"/>
<path opacity="0.64" d="M154.999 113.952C154.999 117.07 152.472 119.597 149.355 119.597C146.237 119.597 143.71 117.07 143.71 113.952C143.71 110.835 146.237 108.307 149.355 108.307C152.472 108.307 154.999 110.835 154.999 113.952Z" fill="white"/>
<path opacity="0.64" d="M134.185 113.952C134.185 117.07 131.658 119.597 128.54 119.597C125.423 119.597 122.896 117.07 122.896 113.952C122.896 110.835 125.423 108.307 128.54 108.307C131.658 108.307 134.185 110.835 134.185 113.952Z" fill="white"/>
<path opacity="0.64" d="M113.37 113.952C113.37 117.07 110.843 119.597 107.726 119.597C104.608 119.597 102.081 117.07 102.081 113.952C102.081 110.835 104.608 108.307 107.726 108.307C110.843 108.307 113.37 110.835 113.37 113.952Z" fill="white"/>
<path opacity="0.64" d="M92.3783 113.952C92.3783 117.07 89.8511 119.597 86.7336 119.597C83.6161 119.597 81.0889 117.07 81.0889 113.952C81.0889 110.835 83.6161 108.307 86.7336 108.307C89.8511 108.307 92.3783 110.835 92.3783 113.952Z" fill="white"/>
<path opacity="0.64" d="M154.999 132.121C154.999 135.238 152.472 137.766 149.355 137.766C146.237 137.766 143.71 135.238 143.71 132.121C143.71 129.004 146.237 126.476 149.355 126.476C152.472 126.476 154.999 129.004 154.999 132.121Z" fill="white"/>
<path opacity="0.64" d="M134.185 132.121C134.185 135.238 131.658 137.766 128.54 137.766C125.423 137.766 122.896 135.238 122.896 132.121C122.896 129.004 125.423 126.476 128.54 126.476C131.658 126.476 134.185 129.004 134.185 132.121Z" fill="white"/>
<path opacity="0.64" d="M113.37 132.121C113.37 135.238 110.843 137.766 107.726 137.766C104.608 137.766 102.081 135.238 102.081 132.121C102.081 129.004 104.608 126.476 107.726 126.476C110.843 126.476 113.37 129.004 113.37 132.121Z" fill="white"/>
<path opacity="0.64" d="M92.3783 132.121C92.3783 135.238 89.8511 137.766 86.7336 137.766C83.6161 137.766 81.0889 135.238 81.0889 132.121C81.0889 129.004 83.6161 126.476 86.7336 126.476C89.8511 126.476 92.3783 129.004 92.3783 132.121Z" fill="white"/>
<path opacity="0.64" d="M154.999 5.64472C154.999 8.7622 152.472 11.2894 149.355 11.2894C146.237 11.2894 143.71 8.7622 143.71 5.64472C143.71 2.52724 146.237 -1.10469e-07 149.355 -2.46738e-07C152.472 -3.83008e-07 154.999 2.52724 154.999 5.64472Z" fill="white"/>
<path opacity="0.64" d="M134.185 5.64472C134.185 8.7622 131.658 11.2894 128.54 11.2894C125.423 11.2894 122.896 8.7622 122.896 5.64472C122.896 2.52724 125.423 -1.10469e-07 128.54 -2.46738e-07C131.658 -3.83008e-07 134.185 2.52724 134.185 5.64472Z" fill="white"/>
<path opacity="0.64" d="M113.37 5.64472C113.37 8.7622 110.843 11.2894 107.726 11.2894C104.608 11.2894 102.081 8.7622 102.081 5.64472C102.081 2.52724 104.608 -1.10464e-07 107.726 -2.46734e-07C110.843 -3.83003e-07 113.37 2.52724 113.37 5.64472Z" fill="white"/>
<path opacity="0.64" d="M92.3783 5.64472C92.3783 8.7622 89.8511 11.2894 86.7336 11.2894C83.6161 11.2894 81.0889 8.7622 81.0889 5.64472C81.0889 2.52724 83.6161 -1.10469e-07 86.7336 -2.46738e-07C89.8511 -3.83008e-07 92.3783 2.52724 92.3783 5.64472Z" fill="white"/>
<path opacity="0.64" d="M154.999 23.8136C154.999 26.9311 152.472 29.4584 149.355 29.4584C146.237 29.4584 143.71 26.9311 143.71 23.8136C143.71 20.6962 146.237 18.1689 149.355 18.1689C152.472 18.1689 154.999 20.6962 154.999 23.8136Z" fill="white"/>
<path opacity="0.64" d="M134.185 23.8136C134.185 26.9311 131.658 29.4584 128.54 29.4584C125.423 29.4584 122.896 26.9311 122.896 23.8136C122.896 20.6962 125.423 18.1689 128.54 18.1689C131.658 18.1689 134.185 20.6962 134.185 23.8136Z" fill="white"/>
<path opacity="0.64" d="M113.37 23.8136C113.37 26.9311 110.843 29.4584 107.726 29.4584C104.608 29.4584 102.081 26.9311 102.081 23.8136C102.081 20.6962 104.608 18.1689 107.726 18.1689C110.843 18.1689 113.37 20.6962 113.37 23.8136Z" fill="white"/>
<path opacity="0.64" d="M92.3803 23.8136C92.3803 26.9311 89.853 29.4584 86.7355 29.4584C83.6181 29.4584 81.0908 26.9311 81.0908 23.8136C81.0908 20.6962 83.6181 18.1689 86.7355 18.1689C89.853 18.1689 92.3803 20.6962 92.3803 23.8136Z" fill="white"/>
<path opacity="0.64" d="M154.999 41.9826C154.999 45.1001 152.472 47.6273 149.355 47.6273C146.237 47.6273 143.71 45.1001 143.71 41.9826C143.71 38.8651 146.237 36.3379 149.355 36.3379C152.472 36.3379 154.999 38.8651 154.999 41.9826Z" fill="white"/>
<path opacity="0.64" d="M134.185 41.9826C134.185 45.1001 131.658 47.6273 128.54 47.6273C125.423 47.6273 122.896 45.1001 122.896 41.9826C122.896 38.8651 125.423 36.3379 128.54 36.3379C131.658 36.3379 134.185 38.8651 134.185 41.9826Z" fill="white"/>
<path opacity="0.64" d="M113.37 41.9826C113.37 45.1001 110.843 47.6273 107.726 47.6273C104.608 47.6273 102.081 45.1001 102.081 41.9826C102.081 38.8651 104.608 36.3379 107.726 36.3379C110.843 36.3379 113.37 38.8651 113.37 41.9826Z" fill="white"/>
<path opacity="0.64" d="M92.3803 41.9826C92.3803 45.1001 89.853 47.6273 86.7355 47.6273C83.6181 47.6273 81.0908 45.1001 81.0908 41.9826C81.0908 38.8651 83.6181 36.3379 86.7355 36.3379C89.853 36.3379 92.3803 38.8651 92.3803 41.9826Z" fill="white"/>
<path opacity="0.64" d="M154.999 60.1511C154.999 63.2685 152.472 65.7958 149.355 65.7958C146.237 65.7958 143.71 63.2685 143.71 60.1511C143.71 57.0336 146.237 54.5063 149.355 54.5063C152.472 54.5063 154.999 57.0336 154.999 60.1511Z" fill="white"/>
<path opacity="0.64" d="M134.185 60.1511C134.185 63.2685 131.658 65.7958 128.54 65.7958C125.423 65.7958 122.896 63.2685 122.896 60.1511C122.896 57.0336 125.423 54.5063 128.54 54.5063C131.658 54.5063 134.185 57.0336 134.185 60.1511Z" fill="white"/>
<path opacity="0.64" d="M113.37 60.1511C113.37 63.2685 110.843 65.7958 107.726 65.7958C104.608 65.7958 102.081 63.2685 102.081 60.1511C102.081 57.0336 104.608 54.5063 107.726 54.5063C110.843 54.5063 113.37 57.0336 113.37 60.1511Z" fill="white"/>
<path opacity="0.64" d="M92.3803 60.1511C92.3803 63.2685 89.853 65.7958 86.7355 65.7958C83.6181 65.7958 81.0908 63.2685 81.0908 60.1511C81.0908 57.0336 83.6181 54.5063 86.7355 54.5063C89.853 54.5063 92.3803 57.0336 92.3803 60.1511Z" fill="white"/>
<path opacity="0.64" d="M74.2102 77.7907C74.2102 80.9082 71.6831 83.4354 68.5656 83.4354C65.4481 83.4354 62.9209 80.9082 62.9209 77.7907C62.9209 74.6732 65.4481 72.146 68.5656 72.146C71.6831 72.146 74.2102 74.6732 74.2102 77.7907Z" fill="white"/>
<path opacity="0.64" d="M53.3958 77.7907C53.3958 80.9082 50.8685 83.4354 47.7511 83.4354C44.6336 83.4354 42.1064 80.9082 42.1064 77.7907C42.1064 74.6732 44.6336 72.146 47.7511 72.146C50.8685 72.146 53.3958 74.6732 53.3958 77.7907Z" fill="white"/>
<path opacity="0.64" d="M32.4037 77.7907C32.4037 80.9082 29.8765 83.4354 26.759 83.4354C23.6415 83.4354 21.1143 80.9082 21.1143 77.7907C21.1143 74.6732 23.6415 72.146 26.759 72.146C29.8765 72.146 32.4037 74.6732 32.4037 77.7907Z" fill="white"/>
<path opacity="0.64" d="M11.5891 77.7907C11.5891 80.9082 9.062 83.4354 5.94452 83.4354C2.82704 83.4354 0.299805 80.9082 0.299805 77.7907C0.299805 74.6732 2.82704 72.146 5.94452 72.146C9.062 72.146 11.5891 74.6732 11.5891 77.7907Z" fill="white"/>
<path opacity="0.64" d="M74.2102 95.7836C74.2102 98.9011 71.6831 101.428 68.5656 101.428C65.4481 101.428 62.9209 98.9011 62.9209 95.7836C62.9209 92.6662 65.4481 90.1389 68.5656 90.1389C71.6831 90.1389 74.2102 92.6662 74.2102 95.7836Z" fill="white"/>
<path opacity="0.64" d="M53.3958 95.7836C53.3958 98.9011 50.8685 101.428 47.7511 101.428C44.6336 101.428 42.1064 98.9011 42.1064 95.7836C42.1064 92.6662 44.6336 90.1389 47.7511 90.1389C50.8685 90.1389 53.3958 92.6662 53.3958 95.7836Z" fill="white"/>
<path opacity="0.64" d="M32.4037 95.7836C32.4037 98.9011 29.8765 101.428 26.759 101.428C23.6415 101.428 21.1143 98.9011 21.1143 95.7836C21.1143 92.6662 23.6415 90.1389 26.759 90.1389C29.8765 90.1389 32.4037 92.6662 32.4037 95.7836Z" fill="white"/>
<path opacity="0.64" d="M11.5891 95.7836C11.5891 98.9011 9.062 101.428 5.94452 101.428C2.82704 101.428 0.299805 98.9011 0.299805 95.7836C0.299805 92.6662 2.82704 90.1389 5.94452 90.1389C9.062 90.1389 11.5891 92.6662 11.5891 95.7836Z" fill="white"/>
<path opacity="0.64" d="M74.2102 113.952C74.2102 117.07 71.6831 119.597 68.5656 119.597C65.4481 119.597 62.9209 117.07 62.9209 113.952C62.9209 110.835 65.4481 108.307 68.5656 108.307C71.6831 108.307 74.2102 110.835 74.2102 113.952Z" fill="white"/>
<path opacity="0.64" d="M53.3958 113.952C53.3958 117.07 50.8685 119.597 47.7511 119.597C44.6336 119.597 42.1064 117.07 42.1064 113.952C42.1064 110.835 44.6336 108.307 47.7511 108.307C50.8685 108.307 53.3958 110.835 53.3958 113.952Z" fill="white"/>
<path opacity="0.64" d="M32.4037 113.952C32.4037 117.07 29.8765 119.597 26.759 119.597C23.6415 119.597 21.1143 117.07 21.1143 113.952C21.1143 110.835 23.6415 108.307 26.759 108.307C29.8765 108.307 32.4037 110.835 32.4037 113.952Z" fill="white"/>
<path opacity="0.64" d="M11.5891 113.952C11.5891 117.07 9.062 119.597 5.94452 119.597C2.82704 119.597 0.299805 117.07 0.299805 113.952C0.299805 110.835 2.82704 108.307 5.94452 108.307C9.062 108.307 11.5891 110.835 11.5891 113.952Z" fill="white"/>
<path opacity="0.64" d="M74.2102 132.121C74.2102 135.238 71.6831 137.766 68.5656 137.766C65.4481 137.766 62.9209 135.238 62.9209 132.121C62.9209 129.004 65.4481 126.476 68.5656 126.476C71.6831 126.476 74.2102 129.004 74.2102 132.121Z" fill="white"/>
<path opacity="0.64" d="M53.3958 132.121C53.3958 135.238 50.8685 137.766 47.7511 137.766C44.6336 137.766 42.1064 135.238 42.1064 132.121C42.1064 129.004 44.6336 126.476 47.7511 126.476C50.8685 126.476 53.3958 129.004 53.3958 132.121Z" fill="white"/>
<path opacity="0.64" d="M32.4037 132.121C32.4037 135.238 29.8765 137.766 26.759 137.766C23.6415 137.766 21.1143 135.238 21.1143 132.121C21.1143 129.004 23.6415 126.476 26.759 126.476C29.8765 126.476 32.4037 129.004 32.4037 132.121Z" fill="white"/>
<path opacity="0.64" d="M11.5891 132.121C11.5891 135.238 9.062 137.766 5.94452 137.766C2.82704 137.766 0.299805 135.238 0.299805 132.121C0.299805 129.004 2.82704 126.476 5.94452 126.476C9.062 126.476 11.5891 129.004 11.5891 132.121Z" fill="white"/>
<path opacity="0.64" d="M74.2102 5.64472C74.2102 8.7622 71.6831 11.2894 68.5656 11.2894C65.4481 11.2894 62.9209 8.7622 62.9209 5.64472C62.9209 2.52724 65.4481 -1.10469e-07 68.5656 -2.46738e-07C71.6831 -3.83008e-07 74.2102 2.52724 74.2102 5.64472Z" fill="white"/>
<path opacity="0.64" d="M53.3958 5.64472C53.3958 8.7622 50.8685 11.2894 47.7511 11.2894C44.6336 11.2894 42.1064 8.7622 42.1064 5.64472C42.1064 2.52724 44.6336 -1.10464e-07 47.7511 -2.46734e-07C50.8685 -3.83003e-07 53.3958 2.52724 53.3958 5.64472Z" fill="white"/>
<path opacity="0.64" d="M32.4037 5.64472C32.4037 8.7622 29.8765 11.2894 26.759 11.2894C23.6415 11.2894 21.1143 8.7622 21.1143 5.64472C21.1143 2.52724 23.6415 -1.10469e-07 26.759 -2.46738e-07C29.8765 -3.83008e-07 32.4037 2.52724 32.4037 5.64472Z" fill="white"/>
<path opacity="0.64" d="M11.5891 5.64472C11.5891 8.7622 9.062 11.2894 5.94452 11.2894C2.82704 11.2894 0.299805 8.7622 0.299805 5.64472C0.299805 2.52724 2.82704 -1.10469e-07 5.94452 -2.46738e-07C9.062 -3.83008e-07 11.5891 2.52724 11.5891 5.64472Z" fill="white"/>
<path opacity="0.64" d="M74.2102 23.8136C74.2102 26.9311 71.6831 29.4584 68.5656 29.4584C65.4481 29.4584 62.9209 26.9311 62.9209 23.8136C62.9209 20.6962 65.4481 18.1689 68.5656 18.1689C71.6831 18.1689 74.2102 20.6962 74.2102 23.8136Z" fill="white"/>
<path opacity="0.64" d="M53.3958 23.8136C53.3958 26.9311 50.8685 29.4584 47.7511 29.4584C44.6336 29.4584 42.1064 26.9311 42.1064 23.8136C42.1064 20.6962 44.6336 18.1689 47.7511 18.1689C50.8685 18.1689 53.3958 20.6962 53.3958 23.8136Z" fill="white"/>
<path opacity="0.64" d="M32.4037 23.8136C32.4037 26.9311 29.8765 29.4584 26.759 29.4584C23.6415 29.4584 21.1143 26.9311 21.1143 23.8136C21.1143 20.6962 23.6415 18.1689 26.759 18.1689C29.8765 18.1689 32.4037 20.6962 32.4037 23.8136Z" fill="white"/>
<path opacity="0.64" d="M11.5891 23.8136C11.5891 26.9311 9.062 29.4584 5.94452 29.4584C2.82704 29.4584 0.299805 26.9311 0.299805 23.8136C0.299805 20.6962 2.82704 18.1689 5.94452 18.1689C9.062 18.1689 11.5891 20.6962 11.5891 23.8136Z" fill="white"/>
<path opacity="0.64" d="M74.2102 41.9826C74.2102 45.1001 71.6831 47.6273 68.5656 47.6273C65.4481 47.6273 62.9209 45.1001 62.9209 41.9826C62.9209 38.8651 65.4481 36.3379 68.5656 36.3379C71.6831 36.3379 74.2102 38.8651 74.2102 41.9826Z" fill="white"/>
<path opacity="0.64" d="M53.3958 41.9826C53.3958 45.1001 50.8685 47.6273 47.7511 47.6273C44.6336 47.6273 42.1064 45.1001 42.1064 41.9826C42.1064 38.8651 44.6336 36.3379 47.7511 36.3379C50.8685 36.3379 53.3958 38.8651 53.3958 41.9826Z" fill="white"/>
<path opacity="0.64" d="M32.4037 41.9826C32.4037 45.1001 29.8765 47.6273 26.759 47.6273C23.6415 47.6273 21.1143 45.1001 21.1143 41.9826C21.1143 38.8651 23.6415 36.3379 26.759 36.3379C29.8765 36.3379 32.4037 38.8651 32.4037 41.9826Z" fill="white"/>
<path opacity="0.64" d="M11.5891 41.9826C11.5891 45.1001 9.062 47.6273 5.94452 47.6273C2.82704 47.6273 0.299805 45.1001 0.299805 41.9826C0.299805 38.8651 2.82704 36.3379 5.94452 36.3379C9.062 36.3379 11.5891 38.8651 11.5891 41.9826Z" fill="white"/>
<path opacity="0.64" d="M74.2102 60.1511C74.2102 63.2685 71.6831 65.7958 68.5656 65.7958C65.4481 65.7958 62.9209 63.2685 62.9209 60.1511C62.9209 57.0336 65.4481 54.5063 68.5656 54.5063C71.6831 54.5063 74.2102 57.0336 74.2102 60.1511Z" fill="white"/>
<path opacity="0.64" d="M53.3958 60.1511C53.3958 63.2685 50.8685 65.7958 47.7511 65.7958C44.6336 65.7958 42.1064 63.2685 42.1064 60.1511C42.1064 57.0336 44.6336 54.5063 47.7511 54.5063C50.8685 54.5063 53.3958 57.0336 53.3958 60.1511Z" fill="white"/>
<path opacity="0.64" d="M32.4037 60.1511C32.4037 63.2685 29.8765 65.7958 26.759 65.7958C23.6415 65.7958 21.1143 63.2685 21.1143 60.1511C21.1143 57.0336 23.6415 54.5063 26.759 54.5063C29.8765 54.5063 32.4037 57.0336 32.4037 60.1511Z" fill="white"/>
<path opacity="0.64" d="M11.5891 60.1511C11.5891 63.2685 9.062 65.7958 5.94452 65.7958C2.82704 65.7958 0.299805 63.2685 0.299805 60.1511C0.299805 57.0336 2.82704 54.5063 5.94452 54.5063C9.062 54.5063 11.5891 57.0336 11.5891 60.1511Z" fill="white"/>
</g>
<path d="M99.2629 123.435L57.9515 237.102C89.4724 248.564 124.098 232.326 135.321 200.805C146.783 169.523 130.545 134.897 99.2629 123.435Z" stroke="white" stroke-width="2" stroke-miterlimit="10"/>
<path d="M44.8182 229.938L78.9658 135.614C52.9372 126.062 24.0431 139.673 14.7301 165.702C5.41709 191.73 18.7896 220.625 44.8182 229.938Z" fill="#F0CA50"/>
<path d="M153.037 226C153.037 226 159.741 231.683 164.999 229.04C164.999 229.04 160.595 234.326 162.699 241C162.699 241 158.492 236.969 150.999 237.96C150.999 237.96 155.469 235.251 153.037 226Z" fill="white"/>
<path d="M183.111 189.024L170.976 178.135L181.864 166L193.999 176.888L183.111 189.024Z" fill="#F0CA50"/>
</svg>
